G04 EAGLE Gerber RS-274X export*
G75*
%MOMM*%
%FSLAX34Y34*%
%LPD*%
%INSoldermask Bottom*%
%IPPOS*%
%AMOC8*
5,1,8,0,0,1.08239X$1,22.5*%
G01*
%ADD10R,1.727200X1.727200*%
%ADD11C,3.505200*%
%ADD12C,3.251200*%
%ADD13C,2.997200*%
%ADD14C,1.981200*%
%ADD15C,3.530600*%
%ADD16C,2.082800*%
%ADD17C,3.419200*%
%ADD18C,1.303200*%


D10*
X863600Y342900D03*
X838200Y342900D03*
X812800Y342900D03*
X787400Y342900D03*
X762000Y342900D03*
X736600Y342900D03*
X711200Y342900D03*
X685800Y342900D03*
X660400Y342900D03*
X635000Y342900D03*
X609600Y342900D03*
X584200Y342900D03*
X558800Y342900D03*
X533400Y342900D03*
X508000Y342900D03*
X482600Y342900D03*
X863600Y546100D03*
X838200Y546100D03*
X812800Y546100D03*
X787400Y546100D03*
X762000Y546100D03*
X736600Y546100D03*
X711200Y546100D03*
X685800Y546100D03*
X660400Y546100D03*
X635000Y546100D03*
X609600Y546100D03*
X584200Y546100D03*
D11*
X368300Y533400D03*
X901700Y533400D03*
X901700Y355600D03*
X368300Y355600D03*
D12*
X311150Y330200D03*
X311150Y558800D03*
X1289050Y330200D03*
X1289050Y558800D03*
D13*
X800100Y287020D03*
X800100Y601980D03*
D11*
X1308100Y88900D03*
X114300Y88900D03*
X114300Y876300D03*
D14*
X482600Y774700D03*
X508000Y774700D03*
X533400Y774700D03*
X558800Y774700D03*
X584200Y774700D03*
X609600Y774700D03*
X635000Y774700D03*
X660400Y774700D03*
X685800Y774700D03*
X711200Y774700D03*
X736600Y774700D03*
X762000Y774700D03*
X787400Y774700D03*
X812800Y774700D03*
X838200Y774700D03*
X863600Y774700D03*
X889000Y774700D03*
X914400Y774700D03*
X939800Y774700D03*
X965200Y774700D03*
X469900Y793750D03*
X495300Y793750D03*
X520700Y793750D03*
X546100Y793750D03*
X571500Y793750D03*
X596900Y793750D03*
X622300Y793750D03*
X647700Y793750D03*
X673100Y793750D03*
X698500Y793750D03*
X723900Y793750D03*
X749300Y793750D03*
X774700Y793750D03*
X800100Y793750D03*
X825500Y793750D03*
X850900Y793750D03*
X876300Y793750D03*
X901700Y793750D03*
X927100Y793750D03*
X952500Y793750D03*
X482600Y812800D03*
X508000Y812800D03*
X533400Y812800D03*
X558800Y812800D03*
X584200Y812800D03*
X609600Y812800D03*
X635000Y812800D03*
X660400Y812800D03*
X685800Y812800D03*
X711200Y812800D03*
X736600Y812800D03*
X762000Y812800D03*
X787400Y812800D03*
X812800Y812800D03*
X838200Y812800D03*
X863600Y812800D03*
X889000Y812800D03*
X914400Y812800D03*
X939800Y812800D03*
X965200Y812800D03*
X469900Y831850D03*
X495300Y831850D03*
X520700Y831850D03*
X546100Y831850D03*
X571500Y831850D03*
X596900Y831850D03*
X622300Y831850D03*
X647700Y831850D03*
X673100Y831850D03*
X698500Y831850D03*
X723900Y831850D03*
X749300Y831850D03*
X774700Y831850D03*
X800100Y831850D03*
X825500Y831850D03*
X850900Y831850D03*
X876300Y831850D03*
X901700Y831850D03*
X927100Y831850D03*
X952500Y831850D03*
D13*
X1041400Y876300D03*
D15*
X118900Y505841D03*
X118900Y637159D03*
D16*
X151000Y797000D03*
X151000Y773270D03*
X151000Y750730D03*
X151000Y727000D03*
D17*
X127000Y704000D03*
X127000Y820000D03*
D18*
X126000Y784500D03*
X126000Y739500D03*
D11*
X1308100Y876300D03*
M02*
