M48
;GenerationSoftware,Autodesk,EAGLE,9.6.2*%
;CreationDate,2021-07-23T13:40:50Z*%
FMAT,2
ICI,OFF
METRIC,TZ,000.000
T12C0.305
T11C0.381
T10C0.914
T9C0.991
T8C1.016
T7C1.100
T6C1.118
T5C2.200
T4C2.311
T3C2.794
T2C3.048
T1C3.302
%
G90
M71
T1
X36830Y53340
X36830Y35560
X11430Y87630
X130810Y8890
X11430Y8890
X130810Y87630
X90170Y53340
X90170Y35560
T2
X31115Y33020
X31115Y55880
X128905Y33020
X128905Y55880
T3
X80010Y28702
X80010Y60198
X104140Y87630
T4
X11890Y50584
X11890Y63716
T5
X12700Y82000
X12700Y70400
T6
X53340Y15240
X40640Y15240
T7
X12600Y73950
X12600Y78450
T8
X60960Y54610
X66040Y54610
X68580Y54610
X71120Y54610
X73660Y54610
X76200Y54610
X63500Y54610
X86360Y34290
X83820Y34290
X81280Y34290
X78740Y34290
X76200Y34290
X73660Y34290
X71120Y34290
X68580Y34290
X78740Y54610
X63500Y34290
X60960Y34290
X58420Y34290
X55880Y34290
X53340Y34290
X66040Y34290
X48260Y34290
X86360Y54610
X83820Y54610
X81280Y54610
X58420Y54610
X50800Y34290
T9
X74930Y79375
X77470Y79375
X80010Y79375
X82550Y79375
X85090Y79375
X87630Y79375
X90170Y79375
X92710Y79375
X95250Y79375
X48260Y81280
X53340Y81280
X55880Y81280
X58420Y81280
X60960Y81280
X63500Y81280
X66040Y81280
X68580Y81280
X71120Y81280
X73660Y81280
X76200Y81280
X78740Y81280
X81280Y81280
X83820Y81280
X86360Y81280
X88900Y81280
X91440Y81280
X93980Y81280
X96520Y81280
X46990Y83185
X49530Y83185
X52070Y83185
X54610Y83185
X57150Y83185
X62230Y83185
X64770Y83185
X67310Y83185
X69850Y83185
X72390Y83185
X74930Y83185
X77470Y83185
X80010Y83185
X82550Y83185
X85090Y83185
X87630Y83185
X90170Y83185
X92710Y83185
X95250Y83185
X59690Y83185
X50800Y81280
X48260Y77470
X50800Y77470
X53340Y77470
X55880Y77470
X58420Y77470
X60960Y77470
X63500Y77470
X66040Y77470
X68580Y77470
X71120Y77470
X73660Y77470
X76200Y77470
X78740Y77470
X81280Y77470
X83820Y77470
X86360Y77470
X88900Y77470
X91440Y77470
X93980Y77470
X96520Y77470
X46990Y79375
X49530Y79375
X52070Y79375
X54610Y79375
X57150Y79375
X59690Y79375
X62230Y79375
X64770Y79375
X67310Y79375
X69850Y79375
X72390Y79375
T10
X15100Y79700
X15100Y77327
X15100Y75073
X15100Y72700
T11
X97790Y73660
X96520Y72390
X97790Y72390
X97790Y71120
X96520Y71120
X96520Y69850
X97790Y69850
X88900Y87630
X87630Y87630
X86360Y87630
X85090Y87630
X83820Y87630
X82550Y87630
X81280Y87630
X64770Y87630
X66040Y87630
X67310Y87630
X68580Y87630
X69850Y87630
X71120Y87630
X73660Y87630
X74930Y87630
X76200Y87630
X77470Y87630
X78740Y87630
X80010Y87630
X90170Y64770
X91440Y63500
X101600Y63500
X113030Y64770
X101600Y68580
X110490Y69850
X102870Y67310
X116840Y68580
X101600Y80010
X113030Y69850
X109855Y74930
X34290Y68580
X91440Y21590
X92710Y17780
X93980Y10160
X93980Y13970
X49530Y68580
X60960Y85090
X55880Y87630
X72390Y87630
X53848Y72898
X52070Y60960
X50546Y74930
X44450Y74930
X54610Y86360
X57150Y64770
X62230Y60960
X96520Y74930
X97790Y74930
X96520Y73660
X48260Y64770
T12
X22860Y87630
X25400Y63246
X22860Y84836
X88900Y67310
X20066Y56134
X20066Y59690
M30