G04 EAGLE Gerber RS-274X export*
G75*
%MOMM*%
%FSLAX34Y34*%
%LPD*%
%INTop Copper*%
%IPPOS*%
%AMOC8*
5,1,8,0,0,1.08239X$1,22.5*%
G01*
%ADD10C,0.228600*%


D10*
X666702Y279845D02*
X666702Y270030D01*
X666704Y269909D01*
X666710Y269788D01*
X666719Y269668D01*
X666733Y269547D01*
X666750Y269428D01*
X666772Y269308D01*
X666797Y269190D01*
X666825Y269072D01*
X666858Y268956D01*
X666894Y268840D01*
X666934Y268726D01*
X666978Y268613D01*
X667025Y268502D01*
X667076Y268392D01*
X667130Y268284D01*
X667188Y268178D01*
X667249Y268073D01*
X667313Y267971D01*
X667381Y267870D01*
X667452Y267772D01*
X667526Y267676D01*
X667603Y267583D01*
X667682Y267492D01*
X667765Y267404D01*
X667851Y267318D01*
X667939Y267235D01*
X668030Y267156D01*
X668123Y267079D01*
X668219Y267005D01*
X668317Y266934D01*
X668418Y266866D01*
X668520Y266802D01*
X668625Y266741D01*
X668731Y266683D01*
X668839Y266629D01*
X668949Y266578D01*
X669060Y266531D01*
X669173Y266487D01*
X669287Y266447D01*
X669403Y266411D01*
X669519Y266378D01*
X669637Y266350D01*
X669755Y266325D01*
X669875Y266303D01*
X669994Y266286D01*
X670115Y266272D01*
X670235Y266263D01*
X670356Y266257D01*
X670477Y266255D01*
X670598Y266257D01*
X670719Y266263D01*
X670839Y266272D01*
X670960Y266286D01*
X671079Y266303D01*
X671199Y266325D01*
X671317Y266350D01*
X671435Y266378D01*
X671551Y266411D01*
X671667Y266447D01*
X671781Y266487D01*
X671894Y266531D01*
X672005Y266578D01*
X672115Y266629D01*
X672223Y266683D01*
X672329Y266741D01*
X672434Y266802D01*
X672536Y266866D01*
X672637Y266934D01*
X672735Y267005D01*
X672831Y267079D01*
X672924Y267156D01*
X673015Y267235D01*
X673103Y267318D01*
X673189Y267404D01*
X673272Y267492D01*
X673351Y267583D01*
X673428Y267676D01*
X673502Y267772D01*
X673573Y267870D01*
X673641Y267971D01*
X673705Y268073D01*
X673766Y268178D01*
X673824Y268284D01*
X673878Y268392D01*
X673929Y268502D01*
X673976Y268613D01*
X674020Y268726D01*
X674060Y268840D01*
X674096Y268956D01*
X674129Y269072D01*
X674157Y269190D01*
X674182Y269308D01*
X674204Y269428D01*
X674221Y269547D01*
X674235Y269668D01*
X674244Y269788D01*
X674250Y269909D01*
X674252Y270030D01*
X674251Y270030D02*
X674251Y279845D01*
X681740Y275315D02*
X681740Y261726D01*
X681740Y275315D02*
X685515Y275315D01*
X685609Y275313D01*
X685702Y275307D01*
X685795Y275298D01*
X685888Y275284D01*
X685980Y275267D01*
X686071Y275246D01*
X686161Y275221D01*
X686250Y275192D01*
X686338Y275160D01*
X686425Y275124D01*
X686510Y275085D01*
X686593Y275042D01*
X686674Y274996D01*
X686754Y274946D01*
X686831Y274893D01*
X686906Y274837D01*
X686979Y274778D01*
X687049Y274716D01*
X687117Y274652D01*
X687181Y274584D01*
X687243Y274514D01*
X687302Y274441D01*
X687358Y274366D01*
X687411Y274289D01*
X687461Y274209D01*
X687507Y274128D01*
X687550Y274045D01*
X687589Y273960D01*
X687625Y273873D01*
X687657Y273785D01*
X687686Y273696D01*
X687711Y273606D01*
X687732Y273515D01*
X687749Y273423D01*
X687763Y273330D01*
X687772Y273237D01*
X687778Y273144D01*
X687780Y273050D01*
X687780Y268520D01*
X687778Y268426D01*
X687772Y268333D01*
X687763Y268240D01*
X687749Y268147D01*
X687732Y268055D01*
X687711Y267964D01*
X687686Y267874D01*
X687657Y267785D01*
X687625Y267697D01*
X687589Y267610D01*
X687550Y267525D01*
X687507Y267442D01*
X687461Y267361D01*
X687411Y267281D01*
X687358Y267204D01*
X687302Y267129D01*
X687243Y267056D01*
X687181Y266986D01*
X687117Y266918D01*
X687049Y266854D01*
X686979Y266792D01*
X686906Y266733D01*
X686831Y266677D01*
X686754Y266624D01*
X686674Y266574D01*
X686593Y266528D01*
X686510Y266485D01*
X686425Y266446D01*
X686338Y266410D01*
X686250Y266378D01*
X686161Y266349D01*
X686071Y266324D01*
X685980Y266303D01*
X685888Y266286D01*
X685795Y266272D01*
X685702Y266263D01*
X685609Y266257D01*
X685515Y266255D01*
X685515Y266256D02*
X681740Y266256D01*
X694314Y271540D02*
X703373Y271540D01*
X710861Y266256D02*
X710861Y279845D01*
X715390Y272295D01*
X719920Y279845D01*
X719920Y266256D01*
X726737Y266256D02*
X726737Y275315D01*
X726360Y279090D02*
X726360Y279845D01*
X727114Y279845D01*
X727114Y279090D01*
X726360Y279090D01*
X738640Y279845D02*
X738640Y266256D01*
X734865Y266256D01*
X734865Y266255D02*
X734771Y266257D01*
X734678Y266263D01*
X734585Y266272D01*
X734492Y266286D01*
X734400Y266303D01*
X734309Y266324D01*
X734219Y266349D01*
X734130Y266378D01*
X734042Y266410D01*
X733955Y266446D01*
X733870Y266485D01*
X733787Y266528D01*
X733706Y266574D01*
X733626Y266624D01*
X733549Y266677D01*
X733474Y266733D01*
X733401Y266792D01*
X733331Y266854D01*
X733263Y266918D01*
X733199Y266986D01*
X733137Y267056D01*
X733078Y267129D01*
X733022Y267204D01*
X732969Y267281D01*
X732919Y267361D01*
X732873Y267442D01*
X732830Y267525D01*
X732791Y267610D01*
X732755Y267697D01*
X732723Y267785D01*
X732694Y267874D01*
X732669Y267964D01*
X732648Y268055D01*
X732631Y268147D01*
X732617Y268240D01*
X732608Y268333D01*
X732602Y268426D01*
X732600Y268520D01*
X732600Y273050D01*
X732602Y273144D01*
X732608Y273237D01*
X732617Y273330D01*
X732631Y273423D01*
X732648Y273515D01*
X732669Y273606D01*
X732694Y273696D01*
X732723Y273785D01*
X732755Y273873D01*
X732791Y273960D01*
X732830Y274045D01*
X732873Y274128D01*
X732919Y274209D01*
X732969Y274289D01*
X733022Y274366D01*
X733078Y274441D01*
X733137Y274514D01*
X733199Y274584D01*
X733263Y274652D01*
X733331Y274716D01*
X733401Y274778D01*
X733474Y274837D01*
X733549Y274893D01*
X733626Y274946D01*
X733706Y274996D01*
X733787Y275042D01*
X733870Y275085D01*
X733955Y275124D01*
X734042Y275160D01*
X734130Y275192D01*
X734219Y275221D01*
X734309Y275246D01*
X734400Y275267D01*
X734492Y275284D01*
X734585Y275298D01*
X734678Y275307D01*
X734771Y275313D01*
X734865Y275315D01*
X738640Y275315D01*
X751405Y279845D02*
X751405Y266256D01*
X747630Y266256D01*
X747630Y266255D02*
X747536Y266257D01*
X747443Y266263D01*
X747350Y266272D01*
X747257Y266286D01*
X747165Y266303D01*
X747074Y266324D01*
X746984Y266349D01*
X746895Y266378D01*
X746807Y266410D01*
X746720Y266446D01*
X746635Y266485D01*
X746552Y266528D01*
X746471Y266574D01*
X746391Y266624D01*
X746314Y266677D01*
X746239Y266733D01*
X746166Y266792D01*
X746096Y266854D01*
X746028Y266918D01*
X745964Y266986D01*
X745902Y267056D01*
X745843Y267129D01*
X745787Y267204D01*
X745734Y267281D01*
X745684Y267361D01*
X745638Y267442D01*
X745595Y267525D01*
X745556Y267610D01*
X745520Y267697D01*
X745488Y267785D01*
X745459Y267874D01*
X745434Y267964D01*
X745413Y268055D01*
X745396Y268147D01*
X745382Y268240D01*
X745373Y268333D01*
X745367Y268426D01*
X745365Y268520D01*
X745365Y273050D01*
X745367Y273144D01*
X745373Y273237D01*
X745382Y273330D01*
X745396Y273423D01*
X745413Y273515D01*
X745434Y273606D01*
X745459Y273696D01*
X745488Y273785D01*
X745520Y273873D01*
X745556Y273960D01*
X745595Y274045D01*
X745638Y274128D01*
X745684Y274209D01*
X745734Y274289D01*
X745787Y274366D01*
X745843Y274441D01*
X745902Y274514D01*
X745964Y274584D01*
X746028Y274652D01*
X746096Y274716D01*
X746166Y274778D01*
X746239Y274837D01*
X746314Y274893D01*
X746391Y274946D01*
X746471Y274996D01*
X746552Y275042D01*
X746635Y275085D01*
X746720Y275124D01*
X746807Y275160D01*
X746895Y275192D01*
X746984Y275221D01*
X747074Y275246D01*
X747165Y275267D01*
X747257Y275284D01*
X747350Y275298D01*
X747443Y275307D01*
X747536Y275313D01*
X747630Y275315D01*
X751405Y275315D01*
X758312Y279845D02*
X758312Y268520D01*
X758314Y268426D01*
X758320Y268333D01*
X758329Y268240D01*
X758343Y268147D01*
X758360Y268055D01*
X758381Y267964D01*
X758406Y267874D01*
X758435Y267785D01*
X758467Y267697D01*
X758503Y267610D01*
X758542Y267525D01*
X758585Y267442D01*
X758631Y267361D01*
X758681Y267281D01*
X758734Y267204D01*
X758790Y267129D01*
X758849Y267056D01*
X758911Y266986D01*
X758975Y266918D01*
X759043Y266854D01*
X759113Y266792D01*
X759186Y266733D01*
X759261Y266677D01*
X759338Y266624D01*
X759418Y266574D01*
X759499Y266528D01*
X759582Y266485D01*
X759667Y266446D01*
X759754Y266410D01*
X759842Y266378D01*
X759931Y266349D01*
X760021Y266324D01*
X760112Y266303D01*
X760204Y266286D01*
X760297Y266272D01*
X760390Y266263D01*
X760483Y266257D01*
X760577Y266255D01*
X768059Y266256D02*
X771834Y266256D01*
X768059Y266255D02*
X767965Y266257D01*
X767872Y266263D01*
X767779Y266272D01*
X767686Y266286D01*
X767594Y266303D01*
X767503Y266324D01*
X767413Y266349D01*
X767324Y266378D01*
X767236Y266410D01*
X767149Y266446D01*
X767064Y266485D01*
X766981Y266528D01*
X766900Y266574D01*
X766820Y266624D01*
X766743Y266677D01*
X766668Y266733D01*
X766595Y266792D01*
X766525Y266854D01*
X766457Y266918D01*
X766393Y266986D01*
X766331Y267056D01*
X766272Y267129D01*
X766216Y267204D01*
X766163Y267281D01*
X766113Y267361D01*
X766067Y267442D01*
X766024Y267525D01*
X765985Y267610D01*
X765949Y267697D01*
X765917Y267785D01*
X765888Y267874D01*
X765863Y267964D01*
X765842Y268055D01*
X765825Y268147D01*
X765811Y268240D01*
X765802Y268333D01*
X765796Y268426D01*
X765794Y268520D01*
X765794Y272295D01*
X765796Y272404D01*
X765802Y272513D01*
X765812Y272622D01*
X765825Y272730D01*
X765843Y272837D01*
X765865Y272944D01*
X765890Y273050D01*
X765919Y273155D01*
X765952Y273259D01*
X765989Y273362D01*
X766029Y273463D01*
X766073Y273563D01*
X766121Y273661D01*
X766172Y273758D01*
X766226Y273852D01*
X766284Y273944D01*
X766345Y274035D01*
X766410Y274123D01*
X766477Y274208D01*
X766548Y274291D01*
X766621Y274372D01*
X766698Y274450D01*
X766777Y274525D01*
X766859Y274597D01*
X766943Y274666D01*
X767030Y274732D01*
X767119Y274795D01*
X767211Y274854D01*
X767304Y274910D01*
X767399Y274963D01*
X767497Y275013D01*
X767596Y275058D01*
X767696Y275101D01*
X767798Y275139D01*
X767902Y275174D01*
X768006Y275205D01*
X768112Y275232D01*
X768218Y275256D01*
X768325Y275275D01*
X768433Y275291D01*
X768542Y275303D01*
X768651Y275311D01*
X768759Y275315D01*
X768869Y275315D01*
X768977Y275311D01*
X769086Y275303D01*
X769195Y275291D01*
X769303Y275275D01*
X769410Y275256D01*
X769516Y275232D01*
X769622Y275205D01*
X769726Y275174D01*
X769830Y275139D01*
X769932Y275101D01*
X770032Y275058D01*
X770131Y275013D01*
X770229Y274963D01*
X770324Y274910D01*
X770417Y274854D01*
X770509Y274795D01*
X770598Y274732D01*
X770685Y274666D01*
X770769Y274597D01*
X770851Y274525D01*
X770930Y274450D01*
X771007Y274372D01*
X771080Y274291D01*
X771151Y274208D01*
X771218Y274123D01*
X771283Y274035D01*
X771344Y273944D01*
X771402Y273852D01*
X771456Y273758D01*
X771507Y273661D01*
X771555Y273563D01*
X771599Y273463D01*
X771639Y273362D01*
X771676Y273259D01*
X771709Y273155D01*
X771738Y273050D01*
X771763Y272944D01*
X771785Y272837D01*
X771803Y272730D01*
X771816Y272622D01*
X771826Y272513D01*
X771832Y272404D01*
X771834Y272295D01*
X771834Y270785D01*
X765794Y270785D01*
X778789Y266256D02*
X778789Y279845D01*
X778789Y266256D02*
X784828Y266256D01*
X792921Y271540D02*
X796318Y271540D01*
X792921Y271540D02*
X792820Y271538D01*
X792719Y271532D01*
X792618Y271523D01*
X792518Y271509D01*
X792418Y271492D01*
X792319Y271471D01*
X792221Y271446D01*
X792124Y271417D01*
X792028Y271384D01*
X791933Y271348D01*
X791840Y271309D01*
X791749Y271266D01*
X791659Y271219D01*
X791571Y271169D01*
X791485Y271116D01*
X791401Y271059D01*
X791319Y270999D01*
X791240Y270936D01*
X791163Y270870D01*
X791089Y270802D01*
X791017Y270730D01*
X790949Y270656D01*
X790883Y270579D01*
X790820Y270500D01*
X790760Y270418D01*
X790703Y270334D01*
X790650Y270248D01*
X790600Y270160D01*
X790553Y270070D01*
X790510Y269979D01*
X790471Y269886D01*
X790435Y269791D01*
X790402Y269695D01*
X790373Y269598D01*
X790348Y269500D01*
X790327Y269401D01*
X790310Y269301D01*
X790296Y269201D01*
X790287Y269100D01*
X790281Y268999D01*
X790279Y268898D01*
X790281Y268797D01*
X790287Y268696D01*
X790296Y268595D01*
X790310Y268495D01*
X790327Y268395D01*
X790348Y268296D01*
X790373Y268198D01*
X790402Y268101D01*
X790435Y268005D01*
X790471Y267910D01*
X790510Y267817D01*
X790553Y267726D01*
X790600Y267636D01*
X790650Y267548D01*
X790703Y267462D01*
X790760Y267378D01*
X790820Y267296D01*
X790883Y267217D01*
X790949Y267140D01*
X791017Y267066D01*
X791089Y266994D01*
X791163Y266926D01*
X791240Y266860D01*
X791319Y266797D01*
X791401Y266737D01*
X791485Y266680D01*
X791571Y266627D01*
X791659Y266577D01*
X791749Y266530D01*
X791840Y266487D01*
X791933Y266448D01*
X792028Y266412D01*
X792124Y266379D01*
X792221Y266350D01*
X792319Y266325D01*
X792418Y266304D01*
X792518Y266287D01*
X792618Y266273D01*
X792719Y266264D01*
X792820Y266258D01*
X792921Y266256D01*
X796318Y266256D01*
X796318Y273050D01*
X796316Y273144D01*
X796310Y273237D01*
X796301Y273330D01*
X796287Y273423D01*
X796270Y273515D01*
X796249Y273606D01*
X796224Y273696D01*
X796195Y273785D01*
X796163Y273873D01*
X796127Y273960D01*
X796088Y274045D01*
X796045Y274128D01*
X795999Y274209D01*
X795949Y274289D01*
X795896Y274366D01*
X795840Y274441D01*
X795781Y274514D01*
X795719Y274584D01*
X795655Y274652D01*
X795587Y274716D01*
X795517Y274778D01*
X795444Y274837D01*
X795369Y274893D01*
X795292Y274946D01*
X795212Y274996D01*
X795131Y275042D01*
X795048Y275085D01*
X794963Y275124D01*
X794876Y275160D01*
X794788Y275192D01*
X794699Y275221D01*
X794609Y275246D01*
X794518Y275267D01*
X794426Y275284D01*
X794333Y275298D01*
X794240Y275307D01*
X794147Y275313D01*
X794053Y275315D01*
X791034Y275315D01*
X802671Y261726D02*
X804180Y261726D01*
X808710Y275315D01*
X802671Y275315D02*
X805690Y266256D01*
X816755Y266256D02*
X820529Y266256D01*
X816755Y266255D02*
X816661Y266257D01*
X816568Y266263D01*
X816475Y266272D01*
X816382Y266286D01*
X816290Y266303D01*
X816199Y266324D01*
X816109Y266349D01*
X816020Y266378D01*
X815932Y266410D01*
X815845Y266446D01*
X815760Y266485D01*
X815677Y266528D01*
X815596Y266574D01*
X815516Y266624D01*
X815439Y266677D01*
X815364Y266733D01*
X815291Y266792D01*
X815221Y266854D01*
X815153Y266918D01*
X815089Y266986D01*
X815027Y267056D01*
X814968Y267129D01*
X814912Y267204D01*
X814859Y267281D01*
X814809Y267361D01*
X814763Y267442D01*
X814720Y267525D01*
X814681Y267610D01*
X814645Y267697D01*
X814613Y267785D01*
X814584Y267874D01*
X814559Y267964D01*
X814538Y268055D01*
X814521Y268147D01*
X814507Y268240D01*
X814498Y268333D01*
X814492Y268426D01*
X814490Y268520D01*
X814490Y272295D01*
X814492Y272404D01*
X814498Y272513D01*
X814508Y272622D01*
X814521Y272730D01*
X814539Y272837D01*
X814561Y272944D01*
X814586Y273050D01*
X814615Y273155D01*
X814648Y273259D01*
X814685Y273362D01*
X814725Y273463D01*
X814769Y273563D01*
X814817Y273661D01*
X814868Y273758D01*
X814922Y273852D01*
X814980Y273944D01*
X815041Y274035D01*
X815106Y274123D01*
X815173Y274208D01*
X815244Y274291D01*
X815317Y274372D01*
X815394Y274450D01*
X815473Y274525D01*
X815555Y274597D01*
X815639Y274666D01*
X815726Y274732D01*
X815815Y274795D01*
X815907Y274854D01*
X816000Y274910D01*
X816095Y274963D01*
X816193Y275013D01*
X816292Y275058D01*
X816392Y275101D01*
X816494Y275139D01*
X816598Y275174D01*
X816702Y275205D01*
X816808Y275232D01*
X816914Y275256D01*
X817021Y275275D01*
X817129Y275291D01*
X817238Y275303D01*
X817347Y275311D01*
X817455Y275315D01*
X817565Y275315D01*
X817673Y275311D01*
X817782Y275303D01*
X817891Y275291D01*
X817999Y275275D01*
X818106Y275256D01*
X818212Y275232D01*
X818318Y275205D01*
X818422Y275174D01*
X818526Y275139D01*
X818628Y275101D01*
X818728Y275058D01*
X818827Y275013D01*
X818925Y274963D01*
X819020Y274910D01*
X819113Y274854D01*
X819205Y274795D01*
X819294Y274732D01*
X819381Y274666D01*
X819465Y274597D01*
X819547Y274525D01*
X819626Y274450D01*
X819703Y274372D01*
X819776Y274291D01*
X819847Y274208D01*
X819914Y274123D01*
X819979Y274035D01*
X820040Y273944D01*
X820098Y273852D01*
X820152Y273758D01*
X820203Y273661D01*
X820251Y273563D01*
X820295Y273463D01*
X820335Y273362D01*
X820372Y273259D01*
X820405Y273155D01*
X820434Y273050D01*
X820459Y272944D01*
X820481Y272837D01*
X820499Y272730D01*
X820512Y272622D01*
X820522Y272513D01*
X820528Y272404D01*
X820530Y272295D01*
X820529Y272295D02*
X820529Y270785D01*
X814490Y270785D01*
X827368Y266256D02*
X827368Y275315D01*
X831898Y275315D01*
X831898Y273805D01*
M02*
