M48
;GenerationSoftware,Autodesk,EAGLE,9.6.2*%
;CreationDate,2021-07-23T14:33:02Z*%
FMAT,2
ICI,OFF
METRIC,TZ,000.000
T4C1.700
T3C2.794
T2C3.048
T1C3.302
%
G90
M71
T1
X2540Y20320
X55880Y20320
X55880Y2540
X2540Y2540
T2
X-3175Y0
X-3175Y22860
X94615Y0
X94615Y22860
T3
X45720Y-4318
X45720Y27178
T4
X16256Y10414
X13716Y10414
X85979Y7493
X52070Y1270
X49530Y1270
X46990Y1270
X44450Y1270
X41910Y1270
X39370Y1270
X36830Y1270
X34290Y1270
X31750Y1270
X29210Y1270
X26670Y1270
X24130Y1270
X21590Y1270
X16510Y1270
X13970Y1270
X52070Y21590
X49530Y21590
X46990Y21590
X44450Y21590
X41910Y21590
X39370Y21590
X36830Y21590
X34290Y21590
X31750Y21590
X29210Y21590
X26670Y21590
X24130Y21590
X1255Y15748
X1255Y7112
M30