G04 EAGLE Gerber RS-274X export*
G75*
%MOMM*%
%FSLAX34Y34*%
%LPD*%
%INSilkscreen Top*%
%IPPOS*%
%AMOC8*
5,1,8,0,0,1.08239X$1,22.5*%
G01*
%ADD10C,0.228600*%


D10*
X178278Y263165D02*
X187338Y263165D01*
X187338Y267695D02*
X178278Y267695D01*
X180543Y272225D02*
X180543Y258636D01*
X185073Y258636D02*
X185073Y272225D01*
X193689Y262410D02*
X193691Y262531D01*
X193697Y262652D01*
X193706Y262772D01*
X193720Y262893D01*
X193737Y263012D01*
X193759Y263132D01*
X193784Y263250D01*
X193812Y263368D01*
X193845Y263484D01*
X193881Y263600D01*
X193921Y263714D01*
X193965Y263827D01*
X194012Y263938D01*
X194063Y264048D01*
X194117Y264156D01*
X194175Y264262D01*
X194236Y264367D01*
X194300Y264469D01*
X194368Y264570D01*
X194439Y264668D01*
X194513Y264764D01*
X194590Y264857D01*
X194669Y264948D01*
X194752Y265036D01*
X194838Y265122D01*
X194926Y265205D01*
X195017Y265284D01*
X195110Y265361D01*
X195206Y265435D01*
X195304Y265506D01*
X195405Y265574D01*
X195507Y265638D01*
X195612Y265699D01*
X195718Y265757D01*
X195826Y265811D01*
X195936Y265862D01*
X196047Y265909D01*
X196160Y265953D01*
X196274Y265993D01*
X196390Y266029D01*
X196506Y266062D01*
X196624Y266090D01*
X196742Y266115D01*
X196862Y266137D01*
X196981Y266154D01*
X197102Y266168D01*
X197222Y266177D01*
X197343Y266183D01*
X197464Y266185D01*
X197585Y266183D01*
X197706Y266177D01*
X197826Y266168D01*
X197947Y266154D01*
X198066Y266137D01*
X198186Y266115D01*
X198304Y266090D01*
X198422Y266062D01*
X198538Y266029D01*
X198654Y265993D01*
X198768Y265953D01*
X198881Y265909D01*
X198992Y265862D01*
X199102Y265811D01*
X199210Y265757D01*
X199316Y265699D01*
X199421Y265638D01*
X199523Y265574D01*
X199624Y265506D01*
X199722Y265435D01*
X199818Y265361D01*
X199911Y265284D01*
X200002Y265205D01*
X200090Y265122D01*
X200176Y265036D01*
X200259Y264948D01*
X200338Y264857D01*
X200415Y264764D01*
X200489Y264668D01*
X200560Y264570D01*
X200628Y264469D01*
X200692Y264367D01*
X200753Y264262D01*
X200811Y264156D01*
X200865Y264048D01*
X200916Y263938D01*
X200963Y263827D01*
X201007Y263714D01*
X201047Y263600D01*
X201083Y263484D01*
X201116Y263368D01*
X201144Y263250D01*
X201169Y263132D01*
X201191Y263012D01*
X201208Y262893D01*
X201222Y262772D01*
X201231Y262652D01*
X201237Y262531D01*
X201239Y262410D01*
X201237Y262289D01*
X201231Y262168D01*
X201222Y262048D01*
X201208Y261927D01*
X201191Y261808D01*
X201169Y261688D01*
X201144Y261570D01*
X201116Y261452D01*
X201083Y261336D01*
X201047Y261220D01*
X201007Y261106D01*
X200963Y260993D01*
X200916Y260882D01*
X200865Y260772D01*
X200811Y260664D01*
X200753Y260558D01*
X200692Y260453D01*
X200628Y260351D01*
X200560Y260250D01*
X200489Y260152D01*
X200415Y260056D01*
X200338Y259963D01*
X200259Y259872D01*
X200176Y259784D01*
X200090Y259698D01*
X200002Y259615D01*
X199911Y259536D01*
X199818Y259459D01*
X199722Y259385D01*
X199624Y259314D01*
X199523Y259246D01*
X199421Y259182D01*
X199316Y259121D01*
X199210Y259063D01*
X199102Y259009D01*
X198992Y258958D01*
X198881Y258911D01*
X198768Y258867D01*
X198654Y258827D01*
X198538Y258791D01*
X198422Y258758D01*
X198304Y258730D01*
X198186Y258705D01*
X198066Y258683D01*
X197947Y258666D01*
X197826Y258652D01*
X197706Y258643D01*
X197585Y258637D01*
X197464Y258635D01*
X197343Y258637D01*
X197222Y258643D01*
X197102Y258652D01*
X196981Y258666D01*
X196862Y258683D01*
X196742Y258705D01*
X196624Y258730D01*
X196506Y258758D01*
X196390Y258791D01*
X196274Y258827D01*
X196160Y258867D01*
X196047Y258911D01*
X195936Y258958D01*
X195826Y259009D01*
X195718Y259063D01*
X195612Y259121D01*
X195507Y259182D01*
X195405Y259246D01*
X195304Y259314D01*
X195206Y259385D01*
X195110Y259459D01*
X195017Y259536D01*
X194926Y259615D01*
X194838Y259698D01*
X194752Y259784D01*
X194669Y259872D01*
X194590Y259963D01*
X194513Y260056D01*
X194439Y260152D01*
X194368Y260250D01*
X194300Y260351D01*
X194236Y260453D01*
X194175Y260558D01*
X194117Y260664D01*
X194063Y260772D01*
X194012Y260882D01*
X193965Y260993D01*
X193921Y261106D01*
X193881Y261220D01*
X193845Y261336D01*
X193812Y261452D01*
X193784Y261570D01*
X193759Y261688D01*
X193737Y261808D01*
X193720Y261927D01*
X193706Y262048D01*
X193697Y262168D01*
X193691Y262289D01*
X193689Y262410D01*
X194444Y269205D02*
X194446Y269314D01*
X194452Y269423D01*
X194462Y269532D01*
X194475Y269640D01*
X194493Y269747D01*
X194515Y269854D01*
X194540Y269960D01*
X194569Y270065D01*
X194602Y270169D01*
X194639Y270272D01*
X194679Y270373D01*
X194723Y270473D01*
X194771Y270571D01*
X194822Y270668D01*
X194876Y270762D01*
X194934Y270854D01*
X194995Y270945D01*
X195060Y271033D01*
X195127Y271118D01*
X195198Y271201D01*
X195271Y271282D01*
X195348Y271360D01*
X195427Y271435D01*
X195509Y271507D01*
X195593Y271576D01*
X195680Y271642D01*
X195769Y271705D01*
X195861Y271764D01*
X195954Y271820D01*
X196049Y271873D01*
X196147Y271923D01*
X196246Y271968D01*
X196346Y272011D01*
X196448Y272049D01*
X196552Y272084D01*
X196656Y272115D01*
X196762Y272142D01*
X196868Y272166D01*
X196975Y272185D01*
X197083Y272201D01*
X197192Y272213D01*
X197301Y272221D01*
X197409Y272225D01*
X197519Y272225D01*
X197627Y272221D01*
X197736Y272213D01*
X197845Y272201D01*
X197953Y272185D01*
X198060Y272166D01*
X198166Y272142D01*
X198272Y272115D01*
X198376Y272084D01*
X198480Y272049D01*
X198582Y272011D01*
X198682Y271968D01*
X198781Y271923D01*
X198879Y271873D01*
X198974Y271820D01*
X199067Y271764D01*
X199159Y271705D01*
X199248Y271642D01*
X199335Y271576D01*
X199419Y271507D01*
X199501Y271435D01*
X199580Y271360D01*
X199657Y271282D01*
X199730Y271201D01*
X199801Y271118D01*
X199868Y271033D01*
X199933Y270945D01*
X199994Y270854D01*
X200052Y270762D01*
X200106Y270668D01*
X200157Y270571D01*
X200205Y270473D01*
X200249Y270373D01*
X200289Y270272D01*
X200326Y270169D01*
X200359Y270065D01*
X200388Y269960D01*
X200413Y269854D01*
X200435Y269747D01*
X200453Y269640D01*
X200466Y269532D01*
X200476Y269423D01*
X200482Y269314D01*
X200484Y269205D01*
X200482Y269096D01*
X200476Y268987D01*
X200466Y268878D01*
X200453Y268770D01*
X200435Y268663D01*
X200413Y268556D01*
X200388Y268450D01*
X200359Y268345D01*
X200326Y268241D01*
X200289Y268138D01*
X200249Y268037D01*
X200205Y267937D01*
X200157Y267839D01*
X200106Y267742D01*
X200052Y267648D01*
X199994Y267556D01*
X199933Y267465D01*
X199868Y267377D01*
X199801Y267292D01*
X199730Y267209D01*
X199657Y267128D01*
X199580Y267050D01*
X199501Y266975D01*
X199419Y266903D01*
X199335Y266834D01*
X199248Y266768D01*
X199159Y266705D01*
X199067Y266646D01*
X198974Y266590D01*
X198879Y266537D01*
X198781Y266487D01*
X198682Y266442D01*
X198582Y266399D01*
X198480Y266361D01*
X198376Y266326D01*
X198272Y266295D01*
X198166Y266268D01*
X198060Y266244D01*
X197953Y266225D01*
X197845Y266209D01*
X197736Y266197D01*
X197627Y266189D01*
X197519Y266185D01*
X197409Y266185D01*
X197301Y266189D01*
X197192Y266197D01*
X197083Y266209D01*
X196975Y266225D01*
X196868Y266244D01*
X196762Y266268D01*
X196656Y266295D01*
X196552Y266326D01*
X196448Y266361D01*
X196346Y266399D01*
X196246Y266442D01*
X196147Y266487D01*
X196049Y266537D01*
X195954Y266590D01*
X195861Y266646D01*
X195769Y266705D01*
X195680Y266768D01*
X195593Y266834D01*
X195509Y266903D01*
X195427Y266975D01*
X195348Y267050D01*
X195271Y267128D01*
X195198Y267209D01*
X195127Y267292D01*
X195060Y267377D01*
X194995Y267465D01*
X194934Y267556D01*
X194876Y267648D01*
X194822Y267742D01*
X194771Y267839D01*
X194723Y267937D01*
X194679Y268037D01*
X194639Y268138D01*
X194602Y268241D01*
X194569Y268345D01*
X194540Y268450D01*
X194515Y268556D01*
X194493Y268663D01*
X194475Y268770D01*
X194462Y268878D01*
X194452Y268987D01*
X194446Y269096D01*
X194444Y269205D01*
X207872Y262410D02*
X207874Y262531D01*
X207880Y262652D01*
X207889Y262772D01*
X207903Y262893D01*
X207920Y263012D01*
X207942Y263132D01*
X207967Y263250D01*
X207995Y263368D01*
X208028Y263484D01*
X208064Y263600D01*
X208104Y263714D01*
X208148Y263827D01*
X208195Y263938D01*
X208246Y264048D01*
X208300Y264156D01*
X208358Y264262D01*
X208419Y264367D01*
X208483Y264469D01*
X208551Y264570D01*
X208622Y264668D01*
X208696Y264764D01*
X208773Y264857D01*
X208852Y264948D01*
X208935Y265036D01*
X209021Y265122D01*
X209109Y265205D01*
X209200Y265284D01*
X209293Y265361D01*
X209389Y265435D01*
X209487Y265506D01*
X209588Y265574D01*
X209690Y265638D01*
X209795Y265699D01*
X209901Y265757D01*
X210009Y265811D01*
X210119Y265862D01*
X210230Y265909D01*
X210343Y265953D01*
X210457Y265993D01*
X210573Y266029D01*
X210689Y266062D01*
X210807Y266090D01*
X210925Y266115D01*
X211045Y266137D01*
X211164Y266154D01*
X211285Y266168D01*
X211405Y266177D01*
X211526Y266183D01*
X211647Y266185D01*
X211768Y266183D01*
X211889Y266177D01*
X212009Y266168D01*
X212130Y266154D01*
X212249Y266137D01*
X212369Y266115D01*
X212487Y266090D01*
X212605Y266062D01*
X212721Y266029D01*
X212837Y265993D01*
X212951Y265953D01*
X213064Y265909D01*
X213175Y265862D01*
X213285Y265811D01*
X213393Y265757D01*
X213499Y265699D01*
X213604Y265638D01*
X213706Y265574D01*
X213807Y265506D01*
X213905Y265435D01*
X214001Y265361D01*
X214094Y265284D01*
X214185Y265205D01*
X214273Y265122D01*
X214359Y265036D01*
X214442Y264948D01*
X214521Y264857D01*
X214598Y264764D01*
X214672Y264668D01*
X214743Y264570D01*
X214811Y264469D01*
X214875Y264367D01*
X214936Y264262D01*
X214994Y264156D01*
X215048Y264048D01*
X215099Y263938D01*
X215146Y263827D01*
X215190Y263714D01*
X215230Y263600D01*
X215266Y263484D01*
X215299Y263368D01*
X215327Y263250D01*
X215352Y263132D01*
X215374Y263012D01*
X215391Y262893D01*
X215405Y262772D01*
X215414Y262652D01*
X215420Y262531D01*
X215422Y262410D01*
X215420Y262289D01*
X215414Y262168D01*
X215405Y262048D01*
X215391Y261927D01*
X215374Y261808D01*
X215352Y261688D01*
X215327Y261570D01*
X215299Y261452D01*
X215266Y261336D01*
X215230Y261220D01*
X215190Y261106D01*
X215146Y260993D01*
X215099Y260882D01*
X215048Y260772D01*
X214994Y260664D01*
X214936Y260558D01*
X214875Y260453D01*
X214811Y260351D01*
X214743Y260250D01*
X214672Y260152D01*
X214598Y260056D01*
X214521Y259963D01*
X214442Y259872D01*
X214359Y259784D01*
X214273Y259698D01*
X214185Y259615D01*
X214094Y259536D01*
X214001Y259459D01*
X213905Y259385D01*
X213807Y259314D01*
X213706Y259246D01*
X213604Y259182D01*
X213499Y259121D01*
X213393Y259063D01*
X213285Y259009D01*
X213175Y258958D01*
X213064Y258911D01*
X212951Y258867D01*
X212837Y258827D01*
X212721Y258791D01*
X212605Y258758D01*
X212487Y258730D01*
X212369Y258705D01*
X212249Y258683D01*
X212130Y258666D01*
X212009Y258652D01*
X211889Y258643D01*
X211768Y258637D01*
X211647Y258635D01*
X211526Y258637D01*
X211405Y258643D01*
X211285Y258652D01*
X211164Y258666D01*
X211045Y258683D01*
X210925Y258705D01*
X210807Y258730D01*
X210689Y258758D01*
X210573Y258791D01*
X210457Y258827D01*
X210343Y258867D01*
X210230Y258911D01*
X210119Y258958D01*
X210009Y259009D01*
X209901Y259063D01*
X209795Y259121D01*
X209690Y259182D01*
X209588Y259246D01*
X209487Y259314D01*
X209389Y259385D01*
X209293Y259459D01*
X209200Y259536D01*
X209109Y259615D01*
X209021Y259698D01*
X208935Y259784D01*
X208852Y259872D01*
X208773Y259963D01*
X208696Y260056D01*
X208622Y260152D01*
X208551Y260250D01*
X208483Y260351D01*
X208419Y260453D01*
X208358Y260558D01*
X208300Y260664D01*
X208246Y260772D01*
X208195Y260882D01*
X208148Y260993D01*
X208104Y261106D01*
X208064Y261220D01*
X208028Y261336D01*
X207995Y261452D01*
X207967Y261570D01*
X207942Y261688D01*
X207920Y261808D01*
X207903Y261927D01*
X207889Y262048D01*
X207880Y262168D01*
X207874Y262289D01*
X207872Y262410D01*
X208627Y269205D02*
X208629Y269314D01*
X208635Y269423D01*
X208645Y269532D01*
X208658Y269640D01*
X208676Y269747D01*
X208698Y269854D01*
X208723Y269960D01*
X208752Y270065D01*
X208785Y270169D01*
X208822Y270272D01*
X208862Y270373D01*
X208906Y270473D01*
X208954Y270571D01*
X209005Y270668D01*
X209059Y270762D01*
X209117Y270854D01*
X209178Y270945D01*
X209243Y271033D01*
X209310Y271118D01*
X209381Y271201D01*
X209454Y271282D01*
X209531Y271360D01*
X209610Y271435D01*
X209692Y271507D01*
X209776Y271576D01*
X209863Y271642D01*
X209952Y271705D01*
X210044Y271764D01*
X210137Y271820D01*
X210232Y271873D01*
X210330Y271923D01*
X210429Y271968D01*
X210529Y272011D01*
X210631Y272049D01*
X210735Y272084D01*
X210839Y272115D01*
X210945Y272142D01*
X211051Y272166D01*
X211158Y272185D01*
X211266Y272201D01*
X211375Y272213D01*
X211484Y272221D01*
X211592Y272225D01*
X211702Y272225D01*
X211810Y272221D01*
X211919Y272213D01*
X212028Y272201D01*
X212136Y272185D01*
X212243Y272166D01*
X212349Y272142D01*
X212455Y272115D01*
X212559Y272084D01*
X212663Y272049D01*
X212765Y272011D01*
X212865Y271968D01*
X212964Y271923D01*
X213062Y271873D01*
X213157Y271820D01*
X213250Y271764D01*
X213342Y271705D01*
X213431Y271642D01*
X213518Y271576D01*
X213602Y271507D01*
X213684Y271435D01*
X213763Y271360D01*
X213840Y271282D01*
X213913Y271201D01*
X213984Y271118D01*
X214051Y271033D01*
X214116Y270945D01*
X214177Y270854D01*
X214235Y270762D01*
X214289Y270668D01*
X214340Y270571D01*
X214388Y270473D01*
X214432Y270373D01*
X214472Y270272D01*
X214509Y270169D01*
X214542Y270065D01*
X214571Y269960D01*
X214596Y269854D01*
X214618Y269747D01*
X214636Y269640D01*
X214649Y269532D01*
X214659Y269423D01*
X214665Y269314D01*
X214667Y269205D01*
X214665Y269096D01*
X214659Y268987D01*
X214649Y268878D01*
X214636Y268770D01*
X214618Y268663D01*
X214596Y268556D01*
X214571Y268450D01*
X214542Y268345D01*
X214509Y268241D01*
X214472Y268138D01*
X214432Y268037D01*
X214388Y267937D01*
X214340Y267839D01*
X214289Y267742D01*
X214235Y267648D01*
X214177Y267556D01*
X214116Y267465D01*
X214051Y267377D01*
X213984Y267292D01*
X213913Y267209D01*
X213840Y267128D01*
X213763Y267050D01*
X213684Y266975D01*
X213602Y266903D01*
X213518Y266834D01*
X213431Y266768D01*
X213342Y266705D01*
X213250Y266646D01*
X213157Y266590D01*
X213062Y266537D01*
X212964Y266487D01*
X212865Y266442D01*
X212765Y266399D01*
X212663Y266361D01*
X212559Y266326D01*
X212455Y266295D01*
X212349Y266268D01*
X212243Y266244D01*
X212136Y266225D01*
X212028Y266209D01*
X211919Y266197D01*
X211810Y266189D01*
X211702Y266185D01*
X211592Y266185D01*
X211484Y266189D01*
X211375Y266197D01*
X211266Y266209D01*
X211158Y266225D01*
X211051Y266244D01*
X210945Y266268D01*
X210839Y266295D01*
X210735Y266326D01*
X210631Y266361D01*
X210529Y266399D01*
X210429Y266442D01*
X210330Y266487D01*
X210232Y266537D01*
X210137Y266590D01*
X210044Y266646D01*
X209952Y266705D01*
X209863Y266768D01*
X209776Y266834D01*
X209692Y266903D01*
X209610Y266975D01*
X209531Y267050D01*
X209454Y267128D01*
X209381Y267209D01*
X209310Y267292D01*
X209243Y267377D01*
X209178Y267465D01*
X209117Y267556D01*
X209059Y267648D01*
X209005Y267742D01*
X208954Y267839D01*
X208906Y267937D01*
X208862Y268037D01*
X208822Y268138D01*
X208785Y268241D01*
X208752Y268345D01*
X208723Y268450D01*
X208698Y268556D01*
X208676Y268663D01*
X208658Y268770D01*
X208645Y268878D01*
X208635Y268987D01*
X208629Y269096D01*
X208627Y269205D01*
X91476Y-30036D02*
X91476Y-43625D01*
X96006Y-37585D02*
X91476Y-30036D01*
X96006Y-37585D02*
X100536Y-30036D01*
X100536Y-43625D01*
X107353Y-43625D02*
X107353Y-34565D01*
X106975Y-30790D02*
X106975Y-30036D01*
X107730Y-30036D01*
X107730Y-30790D01*
X106975Y-30790D01*
X115603Y-43625D02*
X118623Y-43625D01*
X115603Y-43625D02*
X115509Y-43623D01*
X115416Y-43617D01*
X115323Y-43608D01*
X115230Y-43594D01*
X115138Y-43577D01*
X115047Y-43556D01*
X114957Y-43531D01*
X114868Y-43502D01*
X114780Y-43470D01*
X114693Y-43434D01*
X114608Y-43395D01*
X114525Y-43352D01*
X114444Y-43306D01*
X114364Y-43256D01*
X114287Y-43203D01*
X114212Y-43147D01*
X114139Y-43088D01*
X114069Y-43026D01*
X114001Y-42962D01*
X113937Y-42894D01*
X113875Y-42824D01*
X113816Y-42751D01*
X113760Y-42676D01*
X113707Y-42599D01*
X113657Y-42519D01*
X113611Y-42438D01*
X113568Y-42355D01*
X113529Y-42270D01*
X113493Y-42183D01*
X113461Y-42095D01*
X113432Y-42006D01*
X113407Y-41916D01*
X113386Y-41825D01*
X113369Y-41733D01*
X113355Y-41640D01*
X113346Y-41547D01*
X113340Y-41454D01*
X113338Y-41360D01*
X113338Y-36830D01*
X113340Y-36736D01*
X113346Y-36643D01*
X113355Y-36550D01*
X113369Y-36457D01*
X113386Y-36365D01*
X113407Y-36274D01*
X113432Y-36184D01*
X113461Y-36095D01*
X113493Y-36007D01*
X113529Y-35920D01*
X113568Y-35835D01*
X113611Y-35752D01*
X113657Y-35671D01*
X113707Y-35591D01*
X113760Y-35514D01*
X113816Y-35439D01*
X113875Y-35366D01*
X113937Y-35296D01*
X114001Y-35228D01*
X114069Y-35164D01*
X114139Y-35102D01*
X114212Y-35043D01*
X114287Y-34987D01*
X114364Y-34934D01*
X114444Y-34884D01*
X114525Y-34838D01*
X114608Y-34795D01*
X114693Y-34756D01*
X114780Y-34720D01*
X114868Y-34688D01*
X114957Y-34659D01*
X115047Y-34634D01*
X115138Y-34613D01*
X115230Y-34596D01*
X115323Y-34582D01*
X115416Y-34573D01*
X115509Y-34567D01*
X115603Y-34565D01*
X118623Y-34565D01*
X124776Y-34565D02*
X124776Y-43625D01*
X124776Y-34565D02*
X129305Y-34565D01*
X129305Y-36075D01*
X134118Y-37585D02*
X134118Y-40605D01*
X134117Y-37585D02*
X134119Y-37476D01*
X134125Y-37367D01*
X134135Y-37258D01*
X134148Y-37150D01*
X134166Y-37043D01*
X134188Y-36936D01*
X134213Y-36830D01*
X134242Y-36725D01*
X134275Y-36621D01*
X134312Y-36518D01*
X134352Y-36417D01*
X134396Y-36317D01*
X134444Y-36219D01*
X134495Y-36122D01*
X134549Y-36028D01*
X134607Y-35936D01*
X134668Y-35845D01*
X134733Y-35757D01*
X134800Y-35672D01*
X134871Y-35589D01*
X134944Y-35508D01*
X135021Y-35430D01*
X135100Y-35355D01*
X135182Y-35283D01*
X135266Y-35214D01*
X135353Y-35148D01*
X135442Y-35085D01*
X135534Y-35026D01*
X135627Y-34970D01*
X135722Y-34917D01*
X135820Y-34867D01*
X135919Y-34822D01*
X136019Y-34779D01*
X136121Y-34741D01*
X136225Y-34706D01*
X136329Y-34675D01*
X136435Y-34648D01*
X136541Y-34624D01*
X136648Y-34605D01*
X136756Y-34589D01*
X136865Y-34577D01*
X136974Y-34569D01*
X137082Y-34565D01*
X137192Y-34565D01*
X137300Y-34569D01*
X137409Y-34577D01*
X137518Y-34589D01*
X137626Y-34605D01*
X137733Y-34624D01*
X137839Y-34648D01*
X137945Y-34675D01*
X138049Y-34706D01*
X138153Y-34741D01*
X138255Y-34779D01*
X138355Y-34822D01*
X138454Y-34867D01*
X138552Y-34917D01*
X138647Y-34970D01*
X138740Y-35026D01*
X138832Y-35085D01*
X138921Y-35148D01*
X139008Y-35214D01*
X139092Y-35283D01*
X139174Y-35355D01*
X139253Y-35430D01*
X139330Y-35508D01*
X139403Y-35589D01*
X139474Y-35672D01*
X139541Y-35757D01*
X139606Y-35845D01*
X139667Y-35936D01*
X139725Y-36028D01*
X139779Y-36122D01*
X139830Y-36219D01*
X139878Y-36317D01*
X139922Y-36417D01*
X139962Y-36518D01*
X139999Y-36621D01*
X140032Y-36725D01*
X140061Y-36830D01*
X140086Y-36936D01*
X140108Y-37043D01*
X140126Y-37150D01*
X140139Y-37258D01*
X140149Y-37367D01*
X140155Y-37476D01*
X140157Y-37585D01*
X140157Y-40605D01*
X140155Y-40714D01*
X140149Y-40823D01*
X140139Y-40932D01*
X140126Y-41040D01*
X140108Y-41147D01*
X140086Y-41254D01*
X140061Y-41360D01*
X140032Y-41465D01*
X139999Y-41569D01*
X139962Y-41672D01*
X139922Y-41773D01*
X139878Y-41873D01*
X139830Y-41971D01*
X139779Y-42068D01*
X139725Y-42162D01*
X139667Y-42254D01*
X139606Y-42345D01*
X139541Y-42433D01*
X139474Y-42518D01*
X139403Y-42601D01*
X139330Y-42682D01*
X139253Y-42760D01*
X139174Y-42835D01*
X139092Y-42907D01*
X139008Y-42976D01*
X138921Y-43042D01*
X138832Y-43105D01*
X138740Y-43164D01*
X138647Y-43220D01*
X138552Y-43273D01*
X138454Y-43323D01*
X138355Y-43368D01*
X138255Y-43411D01*
X138153Y-43449D01*
X138049Y-43484D01*
X137945Y-43515D01*
X137839Y-43542D01*
X137733Y-43566D01*
X137626Y-43585D01*
X137518Y-43601D01*
X137409Y-43613D01*
X137300Y-43621D01*
X137192Y-43625D01*
X137082Y-43625D01*
X136974Y-43621D01*
X136865Y-43613D01*
X136756Y-43601D01*
X136648Y-43585D01*
X136541Y-43566D01*
X136435Y-43542D01*
X136329Y-43515D01*
X136225Y-43484D01*
X136121Y-43449D01*
X136019Y-43411D01*
X135919Y-43368D01*
X135820Y-43323D01*
X135722Y-43273D01*
X135627Y-43220D01*
X135534Y-43164D01*
X135442Y-43105D01*
X135353Y-43042D01*
X135266Y-42976D01*
X135182Y-42907D01*
X135100Y-42835D01*
X135021Y-42760D01*
X134944Y-42682D01*
X134871Y-42601D01*
X134800Y-42518D01*
X134733Y-42433D01*
X134668Y-42345D01*
X134607Y-42254D01*
X134549Y-42162D01*
X134495Y-42068D01*
X134444Y-41971D01*
X134396Y-41873D01*
X134352Y-41773D01*
X134312Y-41672D01*
X134275Y-41569D01*
X134242Y-41465D01*
X134213Y-41360D01*
X134188Y-41254D01*
X134166Y-41147D01*
X134148Y-41040D01*
X134135Y-40932D01*
X134125Y-40823D01*
X134119Y-40714D01*
X134117Y-40605D01*
X147264Y-43625D02*
X147264Y-30036D01*
X151793Y-37585D01*
X156323Y-30036D01*
X156323Y-43625D01*
X163430Y-40605D02*
X163430Y-37585D01*
X163429Y-37585D02*
X163431Y-37476D01*
X163437Y-37367D01*
X163447Y-37258D01*
X163460Y-37150D01*
X163478Y-37043D01*
X163500Y-36936D01*
X163525Y-36830D01*
X163554Y-36725D01*
X163587Y-36621D01*
X163624Y-36518D01*
X163664Y-36417D01*
X163708Y-36317D01*
X163756Y-36219D01*
X163807Y-36122D01*
X163861Y-36028D01*
X163919Y-35936D01*
X163980Y-35845D01*
X164045Y-35757D01*
X164112Y-35672D01*
X164183Y-35589D01*
X164256Y-35508D01*
X164333Y-35430D01*
X164412Y-35355D01*
X164494Y-35283D01*
X164578Y-35214D01*
X164665Y-35148D01*
X164754Y-35085D01*
X164846Y-35026D01*
X164939Y-34970D01*
X165034Y-34917D01*
X165132Y-34867D01*
X165231Y-34822D01*
X165331Y-34779D01*
X165433Y-34741D01*
X165537Y-34706D01*
X165641Y-34675D01*
X165747Y-34648D01*
X165853Y-34624D01*
X165960Y-34605D01*
X166068Y-34589D01*
X166177Y-34577D01*
X166286Y-34569D01*
X166394Y-34565D01*
X166504Y-34565D01*
X166612Y-34569D01*
X166721Y-34577D01*
X166830Y-34589D01*
X166938Y-34605D01*
X167045Y-34624D01*
X167151Y-34648D01*
X167257Y-34675D01*
X167361Y-34706D01*
X167465Y-34741D01*
X167567Y-34779D01*
X167667Y-34822D01*
X167766Y-34867D01*
X167864Y-34917D01*
X167959Y-34970D01*
X168052Y-35026D01*
X168144Y-35085D01*
X168233Y-35148D01*
X168320Y-35214D01*
X168404Y-35283D01*
X168486Y-35355D01*
X168565Y-35430D01*
X168642Y-35508D01*
X168715Y-35589D01*
X168786Y-35672D01*
X168853Y-35757D01*
X168918Y-35845D01*
X168979Y-35936D01*
X169037Y-36028D01*
X169091Y-36122D01*
X169142Y-36219D01*
X169190Y-36317D01*
X169234Y-36417D01*
X169274Y-36518D01*
X169311Y-36621D01*
X169344Y-36725D01*
X169373Y-36830D01*
X169398Y-36936D01*
X169420Y-37043D01*
X169438Y-37150D01*
X169451Y-37258D01*
X169461Y-37367D01*
X169467Y-37476D01*
X169469Y-37585D01*
X169469Y-40605D01*
X169467Y-40714D01*
X169461Y-40823D01*
X169451Y-40932D01*
X169438Y-41040D01*
X169420Y-41147D01*
X169398Y-41254D01*
X169373Y-41360D01*
X169344Y-41465D01*
X169311Y-41569D01*
X169274Y-41672D01*
X169234Y-41773D01*
X169190Y-41873D01*
X169142Y-41971D01*
X169091Y-42068D01*
X169037Y-42162D01*
X168979Y-42254D01*
X168918Y-42345D01*
X168853Y-42433D01*
X168786Y-42518D01*
X168715Y-42601D01*
X168642Y-42682D01*
X168565Y-42760D01*
X168486Y-42835D01*
X168404Y-42907D01*
X168320Y-42976D01*
X168233Y-43042D01*
X168144Y-43105D01*
X168052Y-43164D01*
X167959Y-43220D01*
X167864Y-43273D01*
X167766Y-43323D01*
X167667Y-43368D01*
X167567Y-43411D01*
X167465Y-43449D01*
X167361Y-43484D01*
X167257Y-43515D01*
X167151Y-43542D01*
X167045Y-43566D01*
X166938Y-43585D01*
X166830Y-43601D01*
X166721Y-43613D01*
X166612Y-43621D01*
X166504Y-43625D01*
X166394Y-43625D01*
X166286Y-43621D01*
X166177Y-43613D01*
X166068Y-43601D01*
X165960Y-43585D01*
X165853Y-43566D01*
X165747Y-43542D01*
X165641Y-43515D01*
X165537Y-43484D01*
X165433Y-43449D01*
X165331Y-43411D01*
X165231Y-43368D01*
X165132Y-43323D01*
X165034Y-43273D01*
X164939Y-43220D01*
X164846Y-43164D01*
X164754Y-43105D01*
X164665Y-43042D01*
X164578Y-42976D01*
X164494Y-42907D01*
X164412Y-42835D01*
X164333Y-42760D01*
X164256Y-42682D01*
X164183Y-42601D01*
X164112Y-42518D01*
X164045Y-42433D01*
X163980Y-42345D01*
X163919Y-42254D01*
X163861Y-42162D01*
X163807Y-42068D01*
X163756Y-41971D01*
X163708Y-41873D01*
X163664Y-41773D01*
X163624Y-41672D01*
X163587Y-41569D01*
X163554Y-41465D01*
X163525Y-41360D01*
X163500Y-41254D01*
X163478Y-41147D01*
X163460Y-41040D01*
X163447Y-40932D01*
X163437Y-40823D01*
X163431Y-40714D01*
X163429Y-40605D01*
X181662Y-43625D02*
X181662Y-30036D01*
X181662Y-43625D02*
X177887Y-43625D01*
X177793Y-43623D01*
X177700Y-43617D01*
X177607Y-43608D01*
X177514Y-43594D01*
X177422Y-43577D01*
X177331Y-43556D01*
X177241Y-43531D01*
X177152Y-43502D01*
X177064Y-43470D01*
X176977Y-43434D01*
X176892Y-43395D01*
X176809Y-43352D01*
X176728Y-43306D01*
X176648Y-43256D01*
X176571Y-43203D01*
X176496Y-43147D01*
X176423Y-43088D01*
X176353Y-43026D01*
X176285Y-42962D01*
X176221Y-42894D01*
X176159Y-42824D01*
X176100Y-42751D01*
X176044Y-42676D01*
X175991Y-42599D01*
X175941Y-42519D01*
X175895Y-42438D01*
X175852Y-42355D01*
X175813Y-42270D01*
X175777Y-42183D01*
X175745Y-42095D01*
X175716Y-42006D01*
X175691Y-41916D01*
X175670Y-41825D01*
X175653Y-41733D01*
X175639Y-41640D01*
X175630Y-41547D01*
X175624Y-41454D01*
X175622Y-41360D01*
X175622Y-36830D01*
X175624Y-36736D01*
X175630Y-36643D01*
X175639Y-36550D01*
X175653Y-36457D01*
X175670Y-36365D01*
X175691Y-36274D01*
X175716Y-36184D01*
X175745Y-36095D01*
X175777Y-36007D01*
X175813Y-35920D01*
X175852Y-35835D01*
X175895Y-35752D01*
X175941Y-35671D01*
X175991Y-35591D01*
X176044Y-35514D01*
X176100Y-35439D01*
X176159Y-35366D01*
X176221Y-35296D01*
X176285Y-35228D01*
X176353Y-35164D01*
X176423Y-35102D01*
X176496Y-35043D01*
X176571Y-34987D01*
X176648Y-34934D01*
X176728Y-34884D01*
X176809Y-34838D01*
X176892Y-34795D01*
X176977Y-34756D01*
X177064Y-34720D01*
X177152Y-34688D01*
X177241Y-34659D01*
X177331Y-34634D01*
X177422Y-34613D01*
X177514Y-34596D01*
X177607Y-34582D01*
X177700Y-34573D01*
X177793Y-34567D01*
X177887Y-34565D01*
X181662Y-34565D01*
X199071Y-30036D02*
X199071Y-43625D01*
X195296Y-30036D02*
X202846Y-30036D01*
X208816Y-30036D02*
X208816Y-43625D01*
X208816Y-34565D02*
X212591Y-34565D01*
X212685Y-34567D01*
X212778Y-34573D01*
X212871Y-34582D01*
X212964Y-34596D01*
X213056Y-34613D01*
X213147Y-34634D01*
X213237Y-34659D01*
X213326Y-34688D01*
X213414Y-34720D01*
X213501Y-34756D01*
X213586Y-34795D01*
X213669Y-34838D01*
X213750Y-34884D01*
X213830Y-34934D01*
X213907Y-34987D01*
X213982Y-35043D01*
X214055Y-35102D01*
X214125Y-35164D01*
X214193Y-35228D01*
X214257Y-35296D01*
X214319Y-35366D01*
X214378Y-35439D01*
X214434Y-35514D01*
X214487Y-35591D01*
X214537Y-35671D01*
X214583Y-35752D01*
X214626Y-35835D01*
X214665Y-35920D01*
X214701Y-36007D01*
X214733Y-36095D01*
X214762Y-36184D01*
X214787Y-36274D01*
X214808Y-36365D01*
X214825Y-36457D01*
X214839Y-36550D01*
X214848Y-36643D01*
X214854Y-36736D01*
X214856Y-36830D01*
X214856Y-43625D01*
X221291Y-43625D02*
X221291Y-34565D01*
X220914Y-30790D02*
X220914Y-30036D01*
X221669Y-30036D01*
X221669Y-30790D01*
X220914Y-30790D01*
X227727Y-34565D02*
X227727Y-43625D01*
X227727Y-34565D02*
X231502Y-34565D01*
X231596Y-34567D01*
X231689Y-34573D01*
X231782Y-34582D01*
X231875Y-34596D01*
X231967Y-34613D01*
X232058Y-34634D01*
X232148Y-34659D01*
X232237Y-34688D01*
X232325Y-34720D01*
X232412Y-34756D01*
X232497Y-34795D01*
X232580Y-34838D01*
X232661Y-34884D01*
X232741Y-34934D01*
X232818Y-34987D01*
X232893Y-35043D01*
X232966Y-35102D01*
X233036Y-35164D01*
X233104Y-35228D01*
X233168Y-35296D01*
X233230Y-35366D01*
X233289Y-35439D01*
X233345Y-35514D01*
X233398Y-35591D01*
X233448Y-35671D01*
X233494Y-35752D01*
X233537Y-35835D01*
X233576Y-35920D01*
X233612Y-36007D01*
X233644Y-36095D01*
X233673Y-36184D01*
X233698Y-36274D01*
X233719Y-36365D01*
X233736Y-36457D01*
X233750Y-36550D01*
X233759Y-36643D01*
X233765Y-36736D01*
X233767Y-36830D01*
X233767Y-43625D01*
X242657Y-43625D02*
X246432Y-43625D01*
X242657Y-43625D02*
X242563Y-43623D01*
X242470Y-43617D01*
X242377Y-43608D01*
X242284Y-43594D01*
X242192Y-43577D01*
X242101Y-43556D01*
X242011Y-43531D01*
X241922Y-43502D01*
X241834Y-43470D01*
X241747Y-43434D01*
X241662Y-43395D01*
X241579Y-43352D01*
X241498Y-43306D01*
X241418Y-43256D01*
X241341Y-43203D01*
X241266Y-43147D01*
X241193Y-43088D01*
X241123Y-43026D01*
X241055Y-42962D01*
X240991Y-42894D01*
X240929Y-42824D01*
X240870Y-42751D01*
X240814Y-42676D01*
X240761Y-42599D01*
X240711Y-42519D01*
X240665Y-42438D01*
X240622Y-42355D01*
X240583Y-42270D01*
X240547Y-42183D01*
X240515Y-42095D01*
X240486Y-42006D01*
X240461Y-41916D01*
X240440Y-41825D01*
X240423Y-41733D01*
X240409Y-41640D01*
X240400Y-41547D01*
X240394Y-41454D01*
X240392Y-41360D01*
X240392Y-36830D01*
X240394Y-36736D01*
X240400Y-36643D01*
X240409Y-36550D01*
X240423Y-36457D01*
X240440Y-36365D01*
X240461Y-36274D01*
X240486Y-36184D01*
X240515Y-36095D01*
X240547Y-36007D01*
X240583Y-35920D01*
X240622Y-35835D01*
X240665Y-35752D01*
X240711Y-35671D01*
X240761Y-35591D01*
X240814Y-35514D01*
X240870Y-35439D01*
X240929Y-35366D01*
X240991Y-35296D01*
X241055Y-35228D01*
X241123Y-35164D01*
X241193Y-35102D01*
X241266Y-35043D01*
X241341Y-34987D01*
X241418Y-34934D01*
X241498Y-34884D01*
X241579Y-34838D01*
X241662Y-34795D01*
X241747Y-34756D01*
X241834Y-34720D01*
X241922Y-34688D01*
X242011Y-34659D01*
X242101Y-34634D01*
X242192Y-34613D01*
X242284Y-34596D01*
X242377Y-34582D01*
X242470Y-34573D01*
X242563Y-34567D01*
X242657Y-34565D01*
X246432Y-34565D01*
X246432Y-45889D01*
X246430Y-45983D01*
X246424Y-46076D01*
X246415Y-46169D01*
X246401Y-46262D01*
X246384Y-46354D01*
X246363Y-46445D01*
X246338Y-46535D01*
X246309Y-46624D01*
X246277Y-46712D01*
X246241Y-46799D01*
X246202Y-46884D01*
X246159Y-46967D01*
X246113Y-47048D01*
X246063Y-47128D01*
X246010Y-47205D01*
X245954Y-47280D01*
X245895Y-47353D01*
X245833Y-47423D01*
X245769Y-47491D01*
X245701Y-47555D01*
X245631Y-47617D01*
X245558Y-47676D01*
X245483Y-47732D01*
X245406Y-47785D01*
X245326Y-47835D01*
X245245Y-47881D01*
X245162Y-47924D01*
X245077Y-47963D01*
X244990Y-47999D01*
X244902Y-48031D01*
X244813Y-48060D01*
X244723Y-48085D01*
X244632Y-48106D01*
X244540Y-48123D01*
X244447Y-48137D01*
X244354Y-48146D01*
X244261Y-48152D01*
X244167Y-48154D01*
X241147Y-48154D01*
X261772Y-43625D02*
X261772Y-30036D01*
X265546Y-30036D01*
X265546Y-30035D02*
X265667Y-30037D01*
X265788Y-30043D01*
X265908Y-30052D01*
X266029Y-30066D01*
X266148Y-30083D01*
X266268Y-30105D01*
X266386Y-30130D01*
X266504Y-30158D01*
X266620Y-30191D01*
X266736Y-30227D01*
X266850Y-30267D01*
X266963Y-30311D01*
X267074Y-30358D01*
X267184Y-30409D01*
X267292Y-30463D01*
X267398Y-30521D01*
X267503Y-30582D01*
X267605Y-30646D01*
X267706Y-30714D01*
X267804Y-30785D01*
X267900Y-30859D01*
X267993Y-30936D01*
X268084Y-31015D01*
X268172Y-31098D01*
X268258Y-31184D01*
X268341Y-31272D01*
X268420Y-31363D01*
X268497Y-31456D01*
X268571Y-31552D01*
X268642Y-31650D01*
X268710Y-31751D01*
X268774Y-31853D01*
X268835Y-31958D01*
X268893Y-32064D01*
X268947Y-32172D01*
X268998Y-32282D01*
X269045Y-32393D01*
X269089Y-32506D01*
X269129Y-32620D01*
X269165Y-32736D01*
X269198Y-32852D01*
X269226Y-32970D01*
X269251Y-33088D01*
X269273Y-33208D01*
X269290Y-33327D01*
X269304Y-33448D01*
X269313Y-33568D01*
X269319Y-33689D01*
X269321Y-33810D01*
X269319Y-33931D01*
X269313Y-34052D01*
X269304Y-34172D01*
X269290Y-34293D01*
X269273Y-34412D01*
X269251Y-34532D01*
X269226Y-34650D01*
X269198Y-34768D01*
X269165Y-34884D01*
X269129Y-35000D01*
X269089Y-35114D01*
X269045Y-35227D01*
X268998Y-35338D01*
X268947Y-35448D01*
X268893Y-35556D01*
X268835Y-35662D01*
X268774Y-35767D01*
X268710Y-35869D01*
X268642Y-35970D01*
X268571Y-36068D01*
X268497Y-36164D01*
X268420Y-36257D01*
X268341Y-36348D01*
X268258Y-36436D01*
X268172Y-36522D01*
X268084Y-36605D01*
X267993Y-36684D01*
X267900Y-36761D01*
X267804Y-36835D01*
X267706Y-36906D01*
X267605Y-36974D01*
X267503Y-37038D01*
X267398Y-37099D01*
X267292Y-37157D01*
X267184Y-37211D01*
X267074Y-37262D01*
X266963Y-37309D01*
X266850Y-37353D01*
X266736Y-37393D01*
X266620Y-37429D01*
X266504Y-37462D01*
X266386Y-37490D01*
X266268Y-37515D01*
X266148Y-37537D01*
X266029Y-37554D01*
X265908Y-37568D01*
X265788Y-37577D01*
X265667Y-37583D01*
X265546Y-37585D01*
X261772Y-37585D01*
X275087Y-41360D02*
X275087Y-30036D01*
X275087Y-41360D02*
X275089Y-41454D01*
X275095Y-41547D01*
X275104Y-41640D01*
X275118Y-41733D01*
X275135Y-41825D01*
X275156Y-41916D01*
X275181Y-42006D01*
X275210Y-42095D01*
X275242Y-42183D01*
X275278Y-42270D01*
X275317Y-42355D01*
X275360Y-42438D01*
X275406Y-42519D01*
X275456Y-42599D01*
X275509Y-42676D01*
X275565Y-42751D01*
X275624Y-42824D01*
X275686Y-42894D01*
X275750Y-42962D01*
X275818Y-43026D01*
X275888Y-43088D01*
X275961Y-43147D01*
X276036Y-43203D01*
X276113Y-43256D01*
X276193Y-43306D01*
X276274Y-43352D01*
X276357Y-43395D01*
X276442Y-43434D01*
X276529Y-43470D01*
X276617Y-43502D01*
X276706Y-43531D01*
X276796Y-43556D01*
X276887Y-43577D01*
X276979Y-43594D01*
X277072Y-43608D01*
X277165Y-43617D01*
X277258Y-43623D01*
X277352Y-43625D01*
X283042Y-41360D02*
X283042Y-34565D01*
X283042Y-41360D02*
X283044Y-41454D01*
X283050Y-41547D01*
X283059Y-41640D01*
X283073Y-41733D01*
X283090Y-41825D01*
X283111Y-41916D01*
X283136Y-42006D01*
X283165Y-42095D01*
X283197Y-42183D01*
X283233Y-42270D01*
X283272Y-42355D01*
X283315Y-42438D01*
X283361Y-42519D01*
X283411Y-42599D01*
X283464Y-42676D01*
X283520Y-42751D01*
X283579Y-42824D01*
X283641Y-42894D01*
X283705Y-42962D01*
X283773Y-43026D01*
X283843Y-43088D01*
X283916Y-43147D01*
X283991Y-43203D01*
X284068Y-43256D01*
X284148Y-43306D01*
X284229Y-43352D01*
X284312Y-43395D01*
X284397Y-43434D01*
X284484Y-43470D01*
X284572Y-43502D01*
X284661Y-43531D01*
X284751Y-43556D01*
X284842Y-43577D01*
X284934Y-43594D01*
X285027Y-43608D01*
X285120Y-43617D01*
X285213Y-43623D01*
X285307Y-43625D01*
X289081Y-43625D01*
X289081Y-34565D01*
X296939Y-38340D02*
X300714Y-39850D01*
X296939Y-38339D02*
X296859Y-38305D01*
X296780Y-38267D01*
X296702Y-38225D01*
X296627Y-38181D01*
X296554Y-38132D01*
X296483Y-38081D01*
X296414Y-38027D01*
X296348Y-37969D01*
X296285Y-37909D01*
X296224Y-37845D01*
X296167Y-37780D01*
X296112Y-37711D01*
X296060Y-37640D01*
X296012Y-37567D01*
X295967Y-37492D01*
X295925Y-37415D01*
X295887Y-37337D01*
X295852Y-37256D01*
X295821Y-37174D01*
X295794Y-37091D01*
X295770Y-37007D01*
X295750Y-36921D01*
X295734Y-36835D01*
X295722Y-36748D01*
X295714Y-36661D01*
X295710Y-36574D01*
X295709Y-36486D01*
X295713Y-36399D01*
X295720Y-36311D01*
X295732Y-36224D01*
X295747Y-36138D01*
X295766Y-36053D01*
X295789Y-35968D01*
X295816Y-35885D01*
X295846Y-35803D01*
X295880Y-35722D01*
X295918Y-35643D01*
X295959Y-35565D01*
X296003Y-35490D01*
X296051Y-35417D01*
X296102Y-35345D01*
X296156Y-35277D01*
X296214Y-35210D01*
X296274Y-35147D01*
X296337Y-35086D01*
X296402Y-35028D01*
X296471Y-34973D01*
X296541Y-34921D01*
X296614Y-34872D01*
X296689Y-34826D01*
X296766Y-34784D01*
X296844Y-34746D01*
X296925Y-34711D01*
X297006Y-34680D01*
X297089Y-34652D01*
X297174Y-34628D01*
X297259Y-34608D01*
X297345Y-34592D01*
X297432Y-34579D01*
X297519Y-34571D01*
X297606Y-34566D01*
X297694Y-34565D01*
X297695Y-34565D02*
X297901Y-34570D01*
X298106Y-34581D01*
X298312Y-34596D01*
X298517Y-34616D01*
X298722Y-34641D01*
X298926Y-34672D01*
X299129Y-34707D01*
X299331Y-34746D01*
X299532Y-34791D01*
X299733Y-34841D01*
X299931Y-34895D01*
X300129Y-34954D01*
X300325Y-35018D01*
X300519Y-35087D01*
X300712Y-35160D01*
X300903Y-35237D01*
X301092Y-35320D01*
X300714Y-39850D02*
X300794Y-39884D01*
X300873Y-39922D01*
X300951Y-39964D01*
X301026Y-40008D01*
X301099Y-40057D01*
X301170Y-40108D01*
X301239Y-40162D01*
X301305Y-40220D01*
X301368Y-40280D01*
X301429Y-40344D01*
X301486Y-40409D01*
X301541Y-40478D01*
X301593Y-40549D01*
X301641Y-40622D01*
X301686Y-40697D01*
X301728Y-40774D01*
X301766Y-40852D01*
X301801Y-40933D01*
X301832Y-41015D01*
X301859Y-41098D01*
X301883Y-41182D01*
X301903Y-41268D01*
X301919Y-41354D01*
X301931Y-41441D01*
X301939Y-41528D01*
X301943Y-41615D01*
X301944Y-41703D01*
X301940Y-41790D01*
X301933Y-41878D01*
X301921Y-41965D01*
X301906Y-42051D01*
X301887Y-42136D01*
X301864Y-42221D01*
X301837Y-42304D01*
X301807Y-42386D01*
X301773Y-42467D01*
X301735Y-42546D01*
X301694Y-42624D01*
X301650Y-42699D01*
X301602Y-42772D01*
X301551Y-42844D01*
X301497Y-42912D01*
X301439Y-42979D01*
X301379Y-43042D01*
X301316Y-43103D01*
X301251Y-43161D01*
X301182Y-43216D01*
X301112Y-43268D01*
X301039Y-43317D01*
X300964Y-43363D01*
X300887Y-43405D01*
X300809Y-43443D01*
X300728Y-43478D01*
X300647Y-43509D01*
X300564Y-43537D01*
X300479Y-43561D01*
X300394Y-43581D01*
X300308Y-43597D01*
X300221Y-43610D01*
X300134Y-43618D01*
X300047Y-43623D01*
X299959Y-43624D01*
X299959Y-43625D02*
X299656Y-43617D01*
X299354Y-43602D01*
X299052Y-43580D01*
X298750Y-43550D01*
X298450Y-43514D01*
X298150Y-43470D01*
X297852Y-43419D01*
X297554Y-43362D01*
X297258Y-43297D01*
X296964Y-43225D01*
X296672Y-43147D01*
X296381Y-43061D01*
X296093Y-42969D01*
X295807Y-42870D01*
X685409Y-33055D02*
X689184Y-30036D01*
X689184Y-43625D01*
X692958Y-43625D02*
X685409Y-43625D01*
X699592Y-39850D02*
X699594Y-39729D01*
X699600Y-39608D01*
X699609Y-39488D01*
X699623Y-39367D01*
X699640Y-39248D01*
X699662Y-39128D01*
X699687Y-39010D01*
X699715Y-38892D01*
X699748Y-38776D01*
X699784Y-38660D01*
X699824Y-38546D01*
X699868Y-38433D01*
X699915Y-38322D01*
X699966Y-38212D01*
X700020Y-38104D01*
X700078Y-37998D01*
X700139Y-37893D01*
X700203Y-37791D01*
X700271Y-37690D01*
X700342Y-37592D01*
X700416Y-37496D01*
X700493Y-37403D01*
X700572Y-37312D01*
X700655Y-37224D01*
X700741Y-37138D01*
X700829Y-37055D01*
X700920Y-36976D01*
X701013Y-36899D01*
X701109Y-36825D01*
X701207Y-36754D01*
X701308Y-36686D01*
X701410Y-36622D01*
X701515Y-36561D01*
X701621Y-36503D01*
X701729Y-36449D01*
X701839Y-36398D01*
X701950Y-36351D01*
X702063Y-36307D01*
X702177Y-36267D01*
X702293Y-36231D01*
X702409Y-36198D01*
X702527Y-36170D01*
X702645Y-36145D01*
X702765Y-36123D01*
X702884Y-36106D01*
X703005Y-36092D01*
X703125Y-36083D01*
X703246Y-36077D01*
X703367Y-36075D01*
X703488Y-36077D01*
X703609Y-36083D01*
X703729Y-36092D01*
X703850Y-36106D01*
X703969Y-36123D01*
X704089Y-36145D01*
X704207Y-36170D01*
X704325Y-36198D01*
X704441Y-36231D01*
X704557Y-36267D01*
X704671Y-36307D01*
X704784Y-36351D01*
X704895Y-36398D01*
X705005Y-36449D01*
X705113Y-36503D01*
X705219Y-36561D01*
X705324Y-36622D01*
X705426Y-36686D01*
X705527Y-36754D01*
X705625Y-36825D01*
X705721Y-36899D01*
X705814Y-36976D01*
X705905Y-37055D01*
X705993Y-37138D01*
X706079Y-37224D01*
X706162Y-37312D01*
X706241Y-37403D01*
X706318Y-37496D01*
X706392Y-37592D01*
X706463Y-37690D01*
X706531Y-37791D01*
X706595Y-37893D01*
X706656Y-37998D01*
X706714Y-38104D01*
X706768Y-38212D01*
X706819Y-38322D01*
X706866Y-38433D01*
X706910Y-38546D01*
X706950Y-38660D01*
X706986Y-38776D01*
X707019Y-38892D01*
X707047Y-39010D01*
X707072Y-39128D01*
X707094Y-39248D01*
X707111Y-39367D01*
X707125Y-39488D01*
X707134Y-39608D01*
X707140Y-39729D01*
X707142Y-39850D01*
X707140Y-39971D01*
X707134Y-40092D01*
X707125Y-40212D01*
X707111Y-40333D01*
X707094Y-40452D01*
X707072Y-40572D01*
X707047Y-40690D01*
X707019Y-40808D01*
X706986Y-40924D01*
X706950Y-41040D01*
X706910Y-41154D01*
X706866Y-41267D01*
X706819Y-41378D01*
X706768Y-41488D01*
X706714Y-41596D01*
X706656Y-41702D01*
X706595Y-41807D01*
X706531Y-41909D01*
X706463Y-42010D01*
X706392Y-42108D01*
X706318Y-42204D01*
X706241Y-42297D01*
X706162Y-42388D01*
X706079Y-42476D01*
X705993Y-42562D01*
X705905Y-42645D01*
X705814Y-42724D01*
X705721Y-42801D01*
X705625Y-42875D01*
X705527Y-42946D01*
X705426Y-43014D01*
X705324Y-43078D01*
X705219Y-43139D01*
X705113Y-43197D01*
X705005Y-43251D01*
X704895Y-43302D01*
X704784Y-43349D01*
X704671Y-43393D01*
X704557Y-43433D01*
X704441Y-43469D01*
X704325Y-43502D01*
X704207Y-43530D01*
X704089Y-43555D01*
X703969Y-43577D01*
X703850Y-43594D01*
X703729Y-43608D01*
X703609Y-43617D01*
X703488Y-43623D01*
X703367Y-43625D01*
X703246Y-43623D01*
X703125Y-43617D01*
X703005Y-43608D01*
X702884Y-43594D01*
X702765Y-43577D01*
X702645Y-43555D01*
X702527Y-43530D01*
X702409Y-43502D01*
X702293Y-43469D01*
X702177Y-43433D01*
X702063Y-43393D01*
X701950Y-43349D01*
X701839Y-43302D01*
X701729Y-43251D01*
X701621Y-43197D01*
X701515Y-43139D01*
X701410Y-43078D01*
X701308Y-43014D01*
X701207Y-42946D01*
X701109Y-42875D01*
X701013Y-42801D01*
X700920Y-42724D01*
X700829Y-42645D01*
X700741Y-42562D01*
X700655Y-42476D01*
X700572Y-42388D01*
X700493Y-42297D01*
X700416Y-42204D01*
X700342Y-42108D01*
X700271Y-42010D01*
X700203Y-41909D01*
X700139Y-41807D01*
X700078Y-41702D01*
X700020Y-41596D01*
X699966Y-41488D01*
X699915Y-41378D01*
X699868Y-41267D01*
X699824Y-41154D01*
X699784Y-41040D01*
X699748Y-40924D01*
X699715Y-40808D01*
X699687Y-40690D01*
X699662Y-40572D01*
X699640Y-40452D01*
X699623Y-40333D01*
X699609Y-40212D01*
X699600Y-40092D01*
X699594Y-39971D01*
X699592Y-39850D01*
X700347Y-33055D02*
X700349Y-32946D01*
X700355Y-32837D01*
X700365Y-32728D01*
X700378Y-32620D01*
X700396Y-32513D01*
X700418Y-32406D01*
X700443Y-32300D01*
X700472Y-32195D01*
X700505Y-32091D01*
X700542Y-31988D01*
X700582Y-31887D01*
X700626Y-31787D01*
X700674Y-31689D01*
X700725Y-31592D01*
X700779Y-31498D01*
X700837Y-31406D01*
X700898Y-31315D01*
X700963Y-31227D01*
X701030Y-31142D01*
X701101Y-31059D01*
X701174Y-30978D01*
X701251Y-30900D01*
X701330Y-30825D01*
X701412Y-30753D01*
X701496Y-30684D01*
X701583Y-30618D01*
X701672Y-30555D01*
X701764Y-30496D01*
X701857Y-30440D01*
X701952Y-30387D01*
X702050Y-30337D01*
X702149Y-30292D01*
X702249Y-30249D01*
X702351Y-30211D01*
X702455Y-30176D01*
X702559Y-30145D01*
X702665Y-30118D01*
X702771Y-30094D01*
X702878Y-30075D01*
X702986Y-30059D01*
X703095Y-30047D01*
X703204Y-30039D01*
X703312Y-30035D01*
X703422Y-30035D01*
X703530Y-30039D01*
X703639Y-30047D01*
X703748Y-30059D01*
X703856Y-30075D01*
X703963Y-30094D01*
X704069Y-30118D01*
X704175Y-30145D01*
X704279Y-30176D01*
X704383Y-30211D01*
X704485Y-30249D01*
X704585Y-30292D01*
X704684Y-30337D01*
X704782Y-30387D01*
X704877Y-30440D01*
X704970Y-30496D01*
X705062Y-30555D01*
X705151Y-30618D01*
X705238Y-30684D01*
X705322Y-30753D01*
X705404Y-30825D01*
X705483Y-30900D01*
X705560Y-30978D01*
X705633Y-31059D01*
X705704Y-31142D01*
X705771Y-31227D01*
X705836Y-31315D01*
X705897Y-31406D01*
X705955Y-31498D01*
X706009Y-31592D01*
X706060Y-31689D01*
X706108Y-31787D01*
X706152Y-31887D01*
X706192Y-31988D01*
X706229Y-32091D01*
X706262Y-32195D01*
X706291Y-32300D01*
X706316Y-32406D01*
X706338Y-32513D01*
X706356Y-32620D01*
X706369Y-32728D01*
X706379Y-32837D01*
X706385Y-32946D01*
X706387Y-33055D01*
X706385Y-33164D01*
X706379Y-33273D01*
X706369Y-33382D01*
X706356Y-33490D01*
X706338Y-33597D01*
X706316Y-33704D01*
X706291Y-33810D01*
X706262Y-33915D01*
X706229Y-34019D01*
X706192Y-34122D01*
X706152Y-34223D01*
X706108Y-34323D01*
X706060Y-34421D01*
X706009Y-34518D01*
X705955Y-34612D01*
X705897Y-34704D01*
X705836Y-34795D01*
X705771Y-34883D01*
X705704Y-34968D01*
X705633Y-35051D01*
X705560Y-35132D01*
X705483Y-35210D01*
X705404Y-35285D01*
X705322Y-35357D01*
X705238Y-35426D01*
X705151Y-35492D01*
X705062Y-35555D01*
X704970Y-35614D01*
X704877Y-35670D01*
X704782Y-35723D01*
X704684Y-35773D01*
X704585Y-35818D01*
X704485Y-35861D01*
X704383Y-35899D01*
X704279Y-35934D01*
X704175Y-35965D01*
X704069Y-35992D01*
X703963Y-36016D01*
X703856Y-36035D01*
X703748Y-36051D01*
X703639Y-36063D01*
X703530Y-36071D01*
X703422Y-36075D01*
X703312Y-36075D01*
X703204Y-36071D01*
X703095Y-36063D01*
X702986Y-36051D01*
X702878Y-36035D01*
X702771Y-36016D01*
X702665Y-35992D01*
X702559Y-35965D01*
X702455Y-35934D01*
X702351Y-35899D01*
X702249Y-35861D01*
X702149Y-35818D01*
X702050Y-35773D01*
X701952Y-35723D01*
X701857Y-35670D01*
X701764Y-35614D01*
X701672Y-35555D01*
X701583Y-35492D01*
X701496Y-35426D01*
X701412Y-35357D01*
X701330Y-35285D01*
X701251Y-35210D01*
X701174Y-35132D01*
X701101Y-35051D01*
X701030Y-34968D01*
X700963Y-34883D01*
X700898Y-34795D01*
X700837Y-34704D01*
X700779Y-34612D01*
X700725Y-34518D01*
X700674Y-34421D01*
X700626Y-34323D01*
X700582Y-34223D01*
X700542Y-34122D01*
X700505Y-34019D01*
X700472Y-33915D01*
X700443Y-33810D01*
X700418Y-33704D01*
X700396Y-33597D01*
X700378Y-33490D01*
X700365Y-33382D01*
X700355Y-33273D01*
X700349Y-33164D01*
X700347Y-33055D01*
X713776Y-36830D02*
X713779Y-36563D01*
X713789Y-36296D01*
X713805Y-36029D01*
X713827Y-35762D01*
X713856Y-35496D01*
X713891Y-35231D01*
X713932Y-34967D01*
X713980Y-34704D01*
X714033Y-34442D01*
X714094Y-34182D01*
X714160Y-33923D01*
X714232Y-33666D01*
X714311Y-33410D01*
X714396Y-33157D01*
X714486Y-32905D01*
X714583Y-32656D01*
X714686Y-32409D01*
X714794Y-32165D01*
X714908Y-31923D01*
X714944Y-31825D01*
X714983Y-31727D01*
X715027Y-31632D01*
X715073Y-31538D01*
X715124Y-31445D01*
X715177Y-31355D01*
X715235Y-31267D01*
X715295Y-31181D01*
X715358Y-31098D01*
X715425Y-31016D01*
X715495Y-30938D01*
X715567Y-30862D01*
X715642Y-30789D01*
X715720Y-30719D01*
X715801Y-30651D01*
X715884Y-30587D01*
X715970Y-30526D01*
X716057Y-30468D01*
X716147Y-30414D01*
X716239Y-30363D01*
X716332Y-30315D01*
X716428Y-30271D01*
X716525Y-30231D01*
X716623Y-30194D01*
X716723Y-30161D01*
X716824Y-30132D01*
X716925Y-30107D01*
X717028Y-30085D01*
X717132Y-30068D01*
X717236Y-30054D01*
X717340Y-30044D01*
X717445Y-30038D01*
X717550Y-30036D01*
X717655Y-30038D01*
X717760Y-30044D01*
X717864Y-30054D01*
X717968Y-30068D01*
X718072Y-30085D01*
X718175Y-30107D01*
X718277Y-30132D01*
X718377Y-30161D01*
X718477Y-30194D01*
X718575Y-30231D01*
X718672Y-30271D01*
X718768Y-30315D01*
X718861Y-30363D01*
X718953Y-30414D01*
X719043Y-30468D01*
X719130Y-30526D01*
X719216Y-30587D01*
X719299Y-30651D01*
X719380Y-30719D01*
X719458Y-30789D01*
X719533Y-30862D01*
X719605Y-30938D01*
X719675Y-31017D01*
X719742Y-31098D01*
X719805Y-31181D01*
X719866Y-31267D01*
X719923Y-31355D01*
X719976Y-31446D01*
X720027Y-31538D01*
X720073Y-31632D01*
X720117Y-31727D01*
X720156Y-31825D01*
X720192Y-31923D01*
X720193Y-31923D02*
X720307Y-32165D01*
X720415Y-32409D01*
X720518Y-32656D01*
X720615Y-32905D01*
X720705Y-33157D01*
X720790Y-33410D01*
X720869Y-33666D01*
X720941Y-33923D01*
X721007Y-34182D01*
X721068Y-34442D01*
X721121Y-34704D01*
X721169Y-34967D01*
X721210Y-35231D01*
X721245Y-35496D01*
X721274Y-35762D01*
X721296Y-36029D01*
X721312Y-36296D01*
X721322Y-36563D01*
X721325Y-36830D01*
X713776Y-36830D02*
X713779Y-37097D01*
X713789Y-37364D01*
X713805Y-37631D01*
X713827Y-37898D01*
X713856Y-38164D01*
X713891Y-38429D01*
X713932Y-38693D01*
X713980Y-38956D01*
X714033Y-39218D01*
X714094Y-39478D01*
X714160Y-39737D01*
X714232Y-39994D01*
X714311Y-40250D01*
X714396Y-40503D01*
X714486Y-40755D01*
X714583Y-41004D01*
X714686Y-41251D01*
X714794Y-41495D01*
X714908Y-41737D01*
X714944Y-41836D01*
X714983Y-41933D01*
X715027Y-42028D01*
X715074Y-42122D01*
X715124Y-42215D01*
X715177Y-42305D01*
X715235Y-42393D01*
X715295Y-42479D01*
X715358Y-42562D01*
X715425Y-42644D01*
X715495Y-42722D01*
X715567Y-42798D01*
X715642Y-42871D01*
X715721Y-42941D01*
X715801Y-43009D01*
X715884Y-43073D01*
X715970Y-43134D01*
X716057Y-43192D01*
X716147Y-43246D01*
X716239Y-43297D01*
X716332Y-43345D01*
X716428Y-43389D01*
X716525Y-43429D01*
X716623Y-43466D01*
X716723Y-43499D01*
X716824Y-43528D01*
X716925Y-43553D01*
X717028Y-43575D01*
X717132Y-43592D01*
X717236Y-43606D01*
X717340Y-43616D01*
X717445Y-43622D01*
X717550Y-43624D01*
X720193Y-41737D02*
X720307Y-41495D01*
X720415Y-41251D01*
X720518Y-41004D01*
X720615Y-40755D01*
X720705Y-40503D01*
X720790Y-40250D01*
X720869Y-39994D01*
X720941Y-39737D01*
X721007Y-39478D01*
X721068Y-39218D01*
X721121Y-38956D01*
X721169Y-38693D01*
X721210Y-38429D01*
X721245Y-38164D01*
X721274Y-37898D01*
X721296Y-37631D01*
X721312Y-37364D01*
X721322Y-37097D01*
X721325Y-36830D01*
X720192Y-41737D02*
X720156Y-41835D01*
X720117Y-41933D01*
X720073Y-42028D01*
X720027Y-42122D01*
X719976Y-42215D01*
X719923Y-42305D01*
X719865Y-42393D01*
X719805Y-42479D01*
X719742Y-42562D01*
X719675Y-42644D01*
X719605Y-42722D01*
X719533Y-42798D01*
X719458Y-42871D01*
X719380Y-42941D01*
X719299Y-43009D01*
X719216Y-43073D01*
X719130Y-43134D01*
X719043Y-43192D01*
X718953Y-43246D01*
X718861Y-43297D01*
X718768Y-43345D01*
X718672Y-43389D01*
X718575Y-43429D01*
X718477Y-43466D01*
X718377Y-43499D01*
X718276Y-43528D01*
X718175Y-43553D01*
X718072Y-43575D01*
X717968Y-43592D01*
X717864Y-43606D01*
X717760Y-43616D01*
X717655Y-43622D01*
X717550Y-43624D01*
X714530Y-40605D02*
X720570Y-33055D01*
X732111Y-30036D02*
X732225Y-30038D01*
X732338Y-30044D01*
X732451Y-30053D01*
X732564Y-30066D01*
X732676Y-30083D01*
X732788Y-30104D01*
X732898Y-30129D01*
X733008Y-30157D01*
X733117Y-30189D01*
X733225Y-30224D01*
X733332Y-30263D01*
X733437Y-30306D01*
X733541Y-30352D01*
X733643Y-30401D01*
X733744Y-30454D01*
X733842Y-30510D01*
X733939Y-30570D01*
X734034Y-30632D01*
X734126Y-30698D01*
X734216Y-30767D01*
X734304Y-30839D01*
X734390Y-30914D01*
X734473Y-30991D01*
X734553Y-31071D01*
X734630Y-31154D01*
X734705Y-31240D01*
X734777Y-31328D01*
X734846Y-31418D01*
X734912Y-31510D01*
X734974Y-31605D01*
X735034Y-31702D01*
X735090Y-31800D01*
X735143Y-31901D01*
X735192Y-32003D01*
X735238Y-32107D01*
X735281Y-32212D01*
X735320Y-32319D01*
X735355Y-32427D01*
X735387Y-32536D01*
X735415Y-32646D01*
X735440Y-32756D01*
X735461Y-32868D01*
X735478Y-32980D01*
X735491Y-33093D01*
X735500Y-33206D01*
X735506Y-33319D01*
X735508Y-33433D01*
X732111Y-30035D02*
X731980Y-30037D01*
X731850Y-30043D01*
X731719Y-30053D01*
X731589Y-30066D01*
X731460Y-30084D01*
X731331Y-30105D01*
X731203Y-30131D01*
X731075Y-30160D01*
X730949Y-30193D01*
X730823Y-30229D01*
X730699Y-30270D01*
X730576Y-30314D01*
X730454Y-30362D01*
X730334Y-30413D01*
X730216Y-30468D01*
X730099Y-30526D01*
X729984Y-30588D01*
X729871Y-30654D01*
X729760Y-30723D01*
X729650Y-30795D01*
X729544Y-30870D01*
X729439Y-30948D01*
X729337Y-31030D01*
X729237Y-31114D01*
X729140Y-31202D01*
X729046Y-31292D01*
X728954Y-31385D01*
X728865Y-31481D01*
X728779Y-31580D01*
X728696Y-31681D01*
X728617Y-31784D01*
X728540Y-31890D01*
X728466Y-31998D01*
X728396Y-32108D01*
X728329Y-32221D01*
X728265Y-32335D01*
X728205Y-32451D01*
X728149Y-32569D01*
X728096Y-32688D01*
X728046Y-32809D01*
X728000Y-32931D01*
X727958Y-33055D01*
X734376Y-36075D02*
X734460Y-35993D01*
X734541Y-35907D01*
X734620Y-35819D01*
X734696Y-35728D01*
X734769Y-35635D01*
X734838Y-35540D01*
X734905Y-35442D01*
X734969Y-35342D01*
X735029Y-35241D01*
X735086Y-35137D01*
X735139Y-35032D01*
X735189Y-34925D01*
X735236Y-34816D01*
X735279Y-34706D01*
X735318Y-34594D01*
X735354Y-34482D01*
X735386Y-34368D01*
X735415Y-34253D01*
X735439Y-34138D01*
X735460Y-34021D01*
X735477Y-33904D01*
X735491Y-33787D01*
X735500Y-33669D01*
X735506Y-33551D01*
X735508Y-33433D01*
X734376Y-36075D02*
X727959Y-43625D01*
X735508Y-43625D01*
X742142Y-31545D02*
X742142Y-30036D01*
X749691Y-30036D01*
X745917Y-43625D01*
X246544Y258636D02*
X242015Y272225D01*
X251074Y272225D02*
X246544Y258636D01*
X256953Y269205D02*
X260727Y272225D01*
X260727Y258636D01*
X256953Y258636D02*
X264502Y258636D01*
X271136Y269205D02*
X274911Y272225D01*
X274911Y258636D01*
X278685Y258636D02*
X271136Y258636D01*
M02*
