G04 EAGLE Gerber RS-274X export*
G75*
%MOMM*%
%FSLAX34Y34*%
%LPD*%
%INSoldermask Bottom*%
%IPPOS*%
%AMOC8*
5,1,8,0,0,1.08239X$1,22.5*%
G01*
%ADD10C,1.903222*%
%ADD11C,3.505200*%
%ADD12C,3.251200*%
%ADD13C,2.997200*%


D10*
X162560Y104140D03*
X137160Y104140D03*
X859790Y74930D03*
X520700Y12700D03*
X495300Y12700D03*
X469900Y12700D03*
X444500Y12700D03*
X419100Y12700D03*
X393700Y12700D03*
X368300Y12700D03*
X342900Y12700D03*
X317500Y12700D03*
X292100Y12700D03*
X266700Y12700D03*
X241300Y12700D03*
X215900Y12700D03*
X165100Y12700D03*
X139700Y12700D03*
X520700Y215900D03*
X495300Y215900D03*
X469900Y215900D03*
X444500Y215900D03*
X419100Y215900D03*
X393700Y215900D03*
X368300Y215900D03*
X342900Y215900D03*
X317500Y215900D03*
X292100Y215900D03*
X266700Y215900D03*
X241300Y215900D03*
X12550Y157480D03*
X12550Y71120D03*
D11*
X25400Y203200D03*
X558800Y203200D03*
X558800Y25400D03*
X25400Y25400D03*
D12*
X-31750Y0D03*
X-31750Y228600D03*
X946150Y0D03*
X946150Y228600D03*
D13*
X457200Y-43180D03*
X457200Y271780D03*
M02*
