G04 EAGLE Gerber RS-274X export*
G75*
%MOMM*%
%FSLAX34Y34*%
%LPD*%
%INSoldermask Top*%
%IPPOS*%
%AMOC8*
5,1,8,0,0,1.08239X$1,22.5*%
G01*
%ADD10R,1.727200X1.727200*%
%ADD11C,3.505200*%
%ADD12C,3.251200*%
%ADD13C,2.997200*%
%ADD14R,0.803200X1.403200*%
%ADD15R,0.838200X1.473200*%
%ADD16R,1.403200X1.603200*%
%ADD17C,1.981200*%
%ADD18R,1.203200X1.303200*%
%ADD19R,1.473200X0.863600*%
%ADD20R,1.033200X0.833200*%
%ADD21C,3.530600*%
%ADD22R,3.203200X1.103200*%
%ADD23C,2.082800*%
%ADD24C,3.419200*%
%ADD25C,1.303200*%
%ADD26R,2.203200X1.403200*%
%ADD27R,1.553200X0.803200*%

G36*
X496635Y154952D02*
X496635Y154952D01*
X496701Y154954D01*
X496744Y154972D01*
X496791Y154980D01*
X496848Y155014D01*
X496908Y155039D01*
X496943Y155070D01*
X496984Y155095D01*
X497026Y155146D01*
X497074Y155190D01*
X497096Y155232D01*
X497125Y155269D01*
X497146Y155331D01*
X497177Y155390D01*
X497185Y155444D01*
X497197Y155481D01*
X497196Y155521D01*
X497204Y155575D01*
X497204Y159385D01*
X497193Y159450D01*
X497191Y159516D01*
X497173Y159559D01*
X497165Y159606D01*
X497131Y159663D01*
X497106Y159723D01*
X497075Y159758D01*
X497050Y159799D01*
X496999Y159841D01*
X496955Y159889D01*
X496913Y159911D01*
X496876Y159940D01*
X496814Y159961D01*
X496755Y159992D01*
X496701Y160000D01*
X496664Y160012D01*
X496624Y160011D01*
X496570Y160019D01*
X494030Y160019D01*
X493965Y160008D01*
X493899Y160006D01*
X493856Y159988D01*
X493809Y159980D01*
X493752Y159946D01*
X493692Y159921D01*
X493657Y159890D01*
X493616Y159865D01*
X493575Y159814D01*
X493526Y159770D01*
X493504Y159728D01*
X493475Y159691D01*
X493454Y159629D01*
X493423Y159570D01*
X493415Y159516D01*
X493403Y159479D01*
X493403Y159475D01*
X493403Y159474D01*
X493404Y159439D01*
X493396Y159385D01*
X493396Y155575D01*
X493407Y155510D01*
X493409Y155444D01*
X493427Y155401D01*
X493435Y155354D01*
X493469Y155297D01*
X493494Y155237D01*
X493525Y155202D01*
X493550Y155161D01*
X493601Y155120D01*
X493645Y155071D01*
X493687Y155049D01*
X493724Y155020D01*
X493786Y154999D01*
X493845Y154968D01*
X493899Y154960D01*
X493936Y154948D01*
X493976Y154949D01*
X494030Y154941D01*
X496570Y154941D01*
X496635Y154952D01*
G37*
G36*
X445835Y154952D02*
X445835Y154952D01*
X445901Y154954D01*
X445944Y154972D01*
X445991Y154980D01*
X446048Y155014D01*
X446108Y155039D01*
X446143Y155070D01*
X446184Y155095D01*
X446226Y155146D01*
X446274Y155190D01*
X446296Y155232D01*
X446325Y155269D01*
X446346Y155331D01*
X446377Y155390D01*
X446385Y155444D01*
X446397Y155481D01*
X446396Y155521D01*
X446404Y155575D01*
X446404Y159385D01*
X446393Y159450D01*
X446391Y159516D01*
X446373Y159559D01*
X446365Y159606D01*
X446331Y159663D01*
X446306Y159723D01*
X446275Y159758D01*
X446250Y159799D01*
X446199Y159841D01*
X446155Y159889D01*
X446113Y159911D01*
X446076Y159940D01*
X446014Y159961D01*
X445955Y159992D01*
X445901Y160000D01*
X445864Y160012D01*
X445824Y160011D01*
X445770Y160019D01*
X443230Y160019D01*
X443165Y160008D01*
X443099Y160006D01*
X443056Y159988D01*
X443009Y159980D01*
X442952Y159946D01*
X442892Y159921D01*
X442857Y159890D01*
X442816Y159865D01*
X442775Y159814D01*
X442726Y159770D01*
X442704Y159728D01*
X442675Y159691D01*
X442654Y159629D01*
X442623Y159570D01*
X442615Y159516D01*
X442603Y159479D01*
X442603Y159475D01*
X442603Y159474D01*
X442604Y159439D01*
X442596Y159385D01*
X442596Y155575D01*
X442607Y155510D01*
X442609Y155444D01*
X442627Y155401D01*
X442635Y155354D01*
X442669Y155297D01*
X442694Y155237D01*
X442725Y155202D01*
X442750Y155161D01*
X442801Y155120D01*
X442845Y155071D01*
X442887Y155049D01*
X442924Y155020D01*
X442986Y154999D01*
X443045Y154968D01*
X443099Y154960D01*
X443136Y154948D01*
X443176Y154949D01*
X443230Y154941D01*
X445770Y154941D01*
X445835Y154952D01*
G37*
D10*
X863600Y342900D03*
X838200Y342900D03*
X812800Y342900D03*
X787400Y342900D03*
X762000Y342900D03*
X736600Y342900D03*
X711200Y342900D03*
X685800Y342900D03*
X660400Y342900D03*
X635000Y342900D03*
X609600Y342900D03*
X584200Y342900D03*
X558800Y342900D03*
X533400Y342900D03*
X508000Y342900D03*
X482600Y342900D03*
X863600Y546100D03*
X838200Y546100D03*
X812800Y546100D03*
X787400Y546100D03*
X762000Y546100D03*
X736600Y546100D03*
X711200Y546100D03*
X685800Y546100D03*
X660400Y546100D03*
X635000Y546100D03*
X609600Y546100D03*
X584200Y546100D03*
D11*
X368300Y533400D03*
X901700Y533400D03*
X901700Y355600D03*
X368300Y355600D03*
D12*
X311150Y330200D03*
X311150Y558800D03*
X1289050Y330200D03*
X1289050Y558800D03*
D13*
X800100Y287020D03*
X800100Y601980D03*
D11*
X1308100Y88900D03*
X114300Y88900D03*
X114300Y876300D03*
D14*
X1073150Y670500D03*
X1085850Y670500D03*
X1098550Y670500D03*
X1111250Y670500D03*
X1123950Y670500D03*
X1136650Y670500D03*
X1149350Y670500D03*
X1149350Y726500D03*
X1136650Y726500D03*
X1123950Y726500D03*
X1111250Y726500D03*
X1098550Y726500D03*
X1085850Y726500D03*
X1073150Y726500D03*
D15*
X1108964Y647700D03*
X1100836Y647700D03*
X1113536Y749300D03*
X1121664Y749300D03*
X1147064Y749300D03*
X1138936Y749300D03*
X1075436Y647700D03*
X1083564Y647700D03*
D16*
X975600Y101600D03*
X1005600Y101600D03*
X975600Y139700D03*
X1005600Y139700D03*
X975600Y177800D03*
X1005600Y177800D03*
X975600Y215900D03*
X1005600Y215900D03*
D17*
X482600Y774700D03*
X508000Y774700D03*
X533400Y774700D03*
X558800Y774700D03*
X584200Y774700D03*
X609600Y774700D03*
X635000Y774700D03*
X660400Y774700D03*
X685800Y774700D03*
X711200Y774700D03*
X736600Y774700D03*
X762000Y774700D03*
X787400Y774700D03*
X812800Y774700D03*
X838200Y774700D03*
X863600Y774700D03*
X889000Y774700D03*
X914400Y774700D03*
X939800Y774700D03*
X965200Y774700D03*
X469900Y793750D03*
X495300Y793750D03*
X520700Y793750D03*
X546100Y793750D03*
X571500Y793750D03*
X596900Y793750D03*
X622300Y793750D03*
X647700Y793750D03*
X673100Y793750D03*
X698500Y793750D03*
X723900Y793750D03*
X749300Y793750D03*
X774700Y793750D03*
X800100Y793750D03*
X825500Y793750D03*
X850900Y793750D03*
X876300Y793750D03*
X901700Y793750D03*
X927100Y793750D03*
X952500Y793750D03*
X482600Y812800D03*
X508000Y812800D03*
X533400Y812800D03*
X558800Y812800D03*
X584200Y812800D03*
X609600Y812800D03*
X635000Y812800D03*
X660400Y812800D03*
X685800Y812800D03*
X711200Y812800D03*
X736600Y812800D03*
X762000Y812800D03*
X787400Y812800D03*
X812800Y812800D03*
X838200Y812800D03*
X863600Y812800D03*
X889000Y812800D03*
X914400Y812800D03*
X939800Y812800D03*
X965200Y812800D03*
X469900Y831850D03*
X495300Y831850D03*
X520700Y831850D03*
X546100Y831850D03*
X571500Y831850D03*
X596900Y831850D03*
X622300Y831850D03*
X647700Y831850D03*
X673100Y831850D03*
X698500Y831850D03*
X723900Y831850D03*
X749300Y831850D03*
X774700Y831850D03*
X800100Y831850D03*
X825500Y831850D03*
X850900Y831850D03*
X876300Y831850D03*
X901700Y831850D03*
X927100Y831850D03*
X952500Y831850D03*
D13*
X1041400Y876300D03*
D18*
X444500Y232800D03*
X444500Y249800D03*
X444500Y194700D03*
X444500Y211700D03*
X495300Y194700D03*
X495300Y211700D03*
X495300Y232800D03*
X495300Y249800D03*
D19*
X444500Y152273D03*
X444500Y162687D03*
X495300Y152273D03*
X495300Y162687D03*
D20*
X406400Y786200D03*
X406400Y763200D03*
D18*
X406400Y804300D03*
X406400Y821300D03*
D21*
X118900Y505841D03*
X118900Y637159D03*
D22*
X161020Y581500D03*
X161020Y606500D03*
X161020Y561500D03*
X161020Y536500D03*
D14*
X209550Y670500D03*
X222250Y670500D03*
X234950Y670500D03*
X247650Y670500D03*
X260350Y670500D03*
X273050Y670500D03*
X285750Y670500D03*
X285750Y726500D03*
X273050Y726500D03*
X260350Y726500D03*
X247650Y726500D03*
X234950Y726500D03*
X222250Y726500D03*
X209550Y726500D03*
D23*
X151000Y797000D03*
X151000Y773270D03*
X151000Y750730D03*
X151000Y727000D03*
D24*
X127000Y704000D03*
X127000Y820000D03*
D25*
X126000Y784500D03*
X126000Y739500D03*
D26*
X102950Y269300D03*
X102950Y213300D03*
D27*
X139700Y256300D03*
X139700Y246300D03*
X139700Y236300D03*
X139700Y226300D03*
D18*
X1054100Y707000D03*
X1054100Y690000D03*
X190500Y728100D03*
X190500Y745100D03*
X177800Y258200D03*
X177800Y275200D03*
D11*
X1308100Y876300D03*
D18*
X203200Y275200D03*
X203200Y258200D03*
M02*
