G04 EAGLE Gerber RS-274X export*
G75*
%MOMM*%
%FSLAX34Y34*%
%LPD*%
%INBottom Copper*%
%IPPOS*%
%AMOC8*
5,1,8,0,0,1.08239X$1,22.5*%
G01*
%ADD10R,1.524000X1.524000*%
%ADD11C,1.778000*%
%ADD12C,1.879600*%
%ADD13C,3.327400*%
%ADD14C,3.216000*%
%ADD15C,0.736600*%
%ADD16C,0.304800*%
%ADD17C,0.660400*%
%ADD18C,0.254000*%
%ADD19C,0.381000*%
%ADD20C,0.508000*%

G36*
X1300034Y66818D02*
X1300034Y66818D01*
X1300141Y66826D01*
X1300174Y66838D01*
X1300208Y66843D01*
X1300307Y66887D01*
X1300408Y66924D01*
X1300436Y66945D01*
X1300468Y66959D01*
X1300550Y67029D01*
X1300637Y67092D01*
X1300658Y67120D01*
X1300685Y67142D01*
X1300745Y67232D01*
X1300810Y67318D01*
X1300823Y67350D01*
X1300842Y67379D01*
X1300875Y67482D01*
X1300915Y67582D01*
X1300918Y67617D01*
X1300928Y67650D01*
X1300931Y67758D01*
X1300941Y67865D01*
X1300935Y67900D01*
X1300936Y67934D01*
X1300908Y68039D01*
X1300888Y68145D01*
X1300873Y68176D01*
X1300864Y68209D01*
X1300809Y68302D01*
X1300760Y68398D01*
X1300736Y68424D01*
X1300718Y68454D01*
X1300640Y68528D01*
X1300566Y68607D01*
X1300539Y68622D01*
X1300511Y68648D01*
X1300320Y68746D01*
X1300274Y68772D01*
X1297138Y69913D01*
X1291305Y74808D01*
X1287498Y81402D01*
X1286176Y88900D01*
X1287498Y96398D01*
X1291305Y102992D01*
X1297138Y107887D01*
X1304293Y110491D01*
X1311907Y110491D01*
X1319062Y107887D01*
X1324895Y102992D01*
X1328303Y97089D01*
X1328315Y97074D01*
X1328323Y97056D01*
X1328402Y96962D01*
X1328478Y96865D01*
X1328494Y96854D01*
X1328507Y96839D01*
X1328609Y96771D01*
X1328708Y96699D01*
X1328727Y96692D01*
X1328743Y96681D01*
X1328860Y96644D01*
X1328976Y96603D01*
X1328996Y96601D01*
X1329014Y96596D01*
X1329137Y96592D01*
X1329260Y96585D01*
X1329279Y96589D01*
X1329298Y96588D01*
X1329417Y96619D01*
X1329537Y96646D01*
X1329555Y96655D01*
X1329573Y96660D01*
X1329679Y96723D01*
X1329787Y96782D01*
X1329801Y96795D01*
X1329818Y96805D01*
X1329902Y96894D01*
X1329989Y96981D01*
X1329999Y96998D01*
X1330012Y97013D01*
X1330068Y97122D01*
X1330128Y97229D01*
X1330133Y97248D01*
X1330142Y97266D01*
X1330154Y97338D01*
X1330193Y97506D01*
X1330191Y97557D01*
X1330197Y97597D01*
X1330197Y867603D01*
X1330195Y867623D01*
X1330197Y867642D01*
X1330175Y867763D01*
X1330157Y867885D01*
X1330149Y867902D01*
X1330146Y867922D01*
X1330091Y868032D01*
X1330041Y868144D01*
X1330029Y868159D01*
X1330020Y868177D01*
X1329937Y868267D01*
X1329858Y868361D01*
X1329841Y868372D01*
X1329828Y868386D01*
X1329723Y868451D01*
X1329621Y868519D01*
X1329602Y868525D01*
X1329586Y868535D01*
X1329467Y868567D01*
X1329350Y868604D01*
X1329330Y868605D01*
X1329311Y868610D01*
X1329189Y868609D01*
X1329066Y868612D01*
X1329047Y868607D01*
X1329027Y868607D01*
X1328909Y868571D01*
X1328791Y868540D01*
X1328774Y868530D01*
X1328755Y868524D01*
X1328652Y868457D01*
X1328546Y868395D01*
X1328533Y868380D01*
X1328516Y868370D01*
X1328470Y868313D01*
X1328352Y868187D01*
X1328328Y868142D01*
X1328303Y868111D01*
X1324895Y862208D01*
X1319062Y857313D01*
X1311907Y854709D01*
X1304293Y854709D01*
X1297138Y857313D01*
X1291305Y862208D01*
X1287498Y868802D01*
X1286176Y876300D01*
X1287498Y883798D01*
X1291305Y890392D01*
X1297138Y895287D01*
X1300274Y896428D01*
X1300369Y896479D01*
X1300468Y896523D01*
X1300494Y896545D01*
X1300525Y896562D01*
X1300602Y896637D01*
X1300685Y896707D01*
X1300704Y896735D01*
X1300729Y896760D01*
X1300783Y896853D01*
X1300842Y896943D01*
X1300853Y896976D01*
X1300870Y897006D01*
X1300896Y897111D01*
X1300928Y897214D01*
X1300929Y897249D01*
X1300937Y897283D01*
X1300933Y897390D01*
X1300936Y897498D01*
X1300927Y897532D01*
X1300925Y897567D01*
X1300891Y897669D01*
X1300864Y897773D01*
X1300846Y897803D01*
X1300835Y897836D01*
X1300774Y897925D01*
X1300718Y898018D01*
X1300693Y898042D01*
X1300673Y898070D01*
X1300590Y898138D01*
X1300511Y898212D01*
X1300480Y898228D01*
X1300453Y898250D01*
X1300354Y898293D01*
X1300258Y898342D01*
X1300227Y898347D01*
X1300192Y898362D01*
X1299980Y898388D01*
X1299927Y898397D01*
X1049573Y898397D01*
X1049466Y898382D01*
X1049359Y898374D01*
X1049326Y898362D01*
X1049292Y898357D01*
X1049193Y898313D01*
X1049092Y898276D01*
X1049064Y898255D01*
X1049032Y898241D01*
X1048950Y898171D01*
X1048863Y898108D01*
X1048842Y898080D01*
X1048815Y898058D01*
X1048755Y897968D01*
X1048690Y897882D01*
X1048677Y897850D01*
X1048658Y897821D01*
X1048625Y897718D01*
X1048586Y897618D01*
X1048582Y897583D01*
X1048572Y897550D01*
X1048569Y897442D01*
X1048559Y897335D01*
X1048565Y897300D01*
X1048564Y897266D01*
X1048592Y897161D01*
X1048612Y897055D01*
X1048628Y897024D01*
X1048636Y896991D01*
X1048691Y896898D01*
X1048740Y896802D01*
X1048764Y896776D01*
X1048782Y896746D01*
X1048860Y896672D01*
X1048934Y896593D01*
X1048961Y896578D01*
X1048989Y896552D01*
X1049179Y896454D01*
X1049226Y896428D01*
X1052362Y895287D01*
X1058195Y890392D01*
X1062002Y883798D01*
X1063324Y876300D01*
X1062002Y868802D01*
X1058195Y862208D01*
X1052362Y857313D01*
X1045207Y854709D01*
X1037593Y854709D01*
X1030438Y857313D01*
X1024605Y862208D01*
X1020798Y868802D01*
X1019476Y876300D01*
X1020798Y883798D01*
X1024605Y890392D01*
X1030438Y895287D01*
X1033574Y896428D01*
X1033670Y896479D01*
X1033768Y896523D01*
X1033794Y896545D01*
X1033825Y896562D01*
X1033902Y896637D01*
X1033985Y896707D01*
X1034004Y896735D01*
X1034029Y896760D01*
X1034083Y896853D01*
X1034142Y896943D01*
X1034153Y896976D01*
X1034170Y897006D01*
X1034196Y897111D01*
X1034228Y897214D01*
X1034229Y897249D01*
X1034237Y897283D01*
X1034233Y897390D01*
X1034236Y897498D01*
X1034227Y897532D01*
X1034225Y897567D01*
X1034191Y897669D01*
X1034164Y897773D01*
X1034146Y897803D01*
X1034135Y897836D01*
X1034073Y897925D01*
X1034018Y898018D01*
X1033993Y898042D01*
X1033973Y898070D01*
X1033890Y898139D01*
X1033811Y898212D01*
X1033780Y898228D01*
X1033753Y898250D01*
X1033654Y898293D01*
X1033558Y898342D01*
X1033527Y898347D01*
X1033492Y898362D01*
X1033280Y898388D01*
X1033227Y898397D01*
X122473Y898397D01*
X122366Y898382D01*
X122259Y898374D01*
X122226Y898362D01*
X122192Y898357D01*
X122093Y898313D01*
X121992Y898276D01*
X121964Y898255D01*
X121932Y898241D01*
X121850Y898171D01*
X121763Y898108D01*
X121742Y898080D01*
X121715Y898058D01*
X121655Y897968D01*
X121590Y897882D01*
X121577Y897850D01*
X121558Y897821D01*
X121525Y897718D01*
X121486Y897618D01*
X121482Y897583D01*
X121472Y897550D01*
X121469Y897442D01*
X121459Y897335D01*
X121465Y897300D01*
X121464Y897266D01*
X121492Y897161D01*
X121512Y897055D01*
X121528Y897024D01*
X121536Y896991D01*
X121591Y896898D01*
X121640Y896802D01*
X121664Y896776D01*
X121682Y896746D01*
X121760Y896672D01*
X121834Y896593D01*
X121861Y896578D01*
X121889Y896552D01*
X122079Y896454D01*
X122126Y896428D01*
X125262Y895287D01*
X131095Y890392D01*
X134902Y883798D01*
X136224Y876300D01*
X134902Y868802D01*
X131095Y862208D01*
X125262Y857313D01*
X118107Y854709D01*
X110493Y854709D01*
X103338Y857313D01*
X97505Y862208D01*
X94097Y868111D01*
X94085Y868126D01*
X94077Y868144D01*
X93998Y868238D01*
X93922Y868335D01*
X93906Y868346D01*
X93893Y868361D01*
X93791Y868429D01*
X93692Y868501D01*
X93673Y868508D01*
X93657Y868519D01*
X93540Y868556D01*
X93424Y868597D01*
X93404Y868599D01*
X93386Y868604D01*
X93263Y868608D01*
X93140Y868615D01*
X93121Y868611D01*
X93102Y868612D01*
X92983Y868581D01*
X92863Y868554D01*
X92845Y868545D01*
X92827Y868540D01*
X92721Y868477D01*
X92613Y868418D01*
X92599Y868405D01*
X92582Y868395D01*
X92498Y868305D01*
X92411Y868219D01*
X92401Y868202D01*
X92388Y868187D01*
X92332Y868078D01*
X92272Y867971D01*
X92267Y867952D01*
X92258Y867934D01*
X92246Y867862D01*
X92207Y867694D01*
X92209Y867643D01*
X92203Y867603D01*
X92203Y97597D01*
X92205Y97577D01*
X92203Y97558D01*
X92225Y97437D01*
X92243Y97315D01*
X92251Y97298D01*
X92254Y97278D01*
X92309Y97168D01*
X92359Y97056D01*
X92371Y97041D01*
X92380Y97023D01*
X92463Y96933D01*
X92542Y96839D01*
X92559Y96828D01*
X92572Y96814D01*
X92677Y96749D01*
X92779Y96681D01*
X92798Y96675D01*
X92814Y96665D01*
X92933Y96633D01*
X93050Y96596D01*
X93070Y96595D01*
X93089Y96590D01*
X93211Y96591D01*
X93334Y96588D01*
X93353Y96593D01*
X93373Y96593D01*
X93491Y96629D01*
X93609Y96660D01*
X93626Y96670D01*
X93645Y96676D01*
X93748Y96743D01*
X93854Y96805D01*
X93867Y96820D01*
X93884Y96830D01*
X93930Y96887D01*
X94048Y97013D01*
X94072Y97058D01*
X94097Y97089D01*
X97505Y102992D01*
X103338Y107887D01*
X110493Y110491D01*
X118107Y110491D01*
X125262Y107887D01*
X131095Y102992D01*
X134902Y96398D01*
X136224Y88900D01*
X134902Y81402D01*
X131095Y74808D01*
X125262Y69913D01*
X122126Y68772D01*
X122031Y68721D01*
X121932Y68677D01*
X121906Y68655D01*
X121875Y68638D01*
X121798Y68563D01*
X121715Y68493D01*
X121696Y68465D01*
X121671Y68440D01*
X121617Y68347D01*
X121558Y68257D01*
X121547Y68224D01*
X121530Y68194D01*
X121504Y68089D01*
X121472Y67986D01*
X121471Y67951D01*
X121463Y67917D01*
X121467Y67810D01*
X121464Y67702D01*
X121473Y67668D01*
X121475Y67633D01*
X121509Y67531D01*
X121536Y67427D01*
X121554Y67397D01*
X121565Y67364D01*
X121626Y67275D01*
X121682Y67182D01*
X121707Y67158D01*
X121727Y67130D01*
X121810Y67062D01*
X121889Y66988D01*
X121920Y66972D01*
X121947Y66950D01*
X122046Y66907D01*
X122142Y66858D01*
X122173Y66853D01*
X122208Y66838D01*
X122420Y66812D01*
X122473Y66803D01*
X1299927Y66803D01*
X1300034Y66818D01*
G37*
%LPC*%
G36*
X938663Y95884D02*
X938663Y95884D01*
X936562Y96754D01*
X934954Y98362D01*
X934084Y100463D01*
X934084Y102737D01*
X934954Y104838D01*
X936562Y106446D01*
X938663Y107316D01*
X940937Y107316D01*
X943038Y106446D01*
X944029Y105454D01*
X944099Y105402D01*
X944163Y105342D01*
X944212Y105316D01*
X944256Y105283D01*
X944338Y105252D01*
X944416Y105212D01*
X944464Y105204D01*
X944522Y105182D01*
X944670Y105170D01*
X944747Y105157D01*
X950606Y105157D01*
X950693Y105169D01*
X950780Y105172D01*
X950833Y105189D01*
X950888Y105197D01*
X950968Y105232D01*
X951051Y105259D01*
X951090Y105287D01*
X951147Y105313D01*
X951260Y105409D01*
X951324Y105454D01*
X961346Y115476D01*
X961398Y115546D01*
X961458Y115610D01*
X961484Y115659D01*
X961517Y115703D01*
X961548Y115785D01*
X961588Y115863D01*
X961596Y115910D01*
X961618Y115969D01*
X961630Y116116D01*
X961643Y116194D01*
X961643Y560273D01*
X986746Y585376D01*
X986798Y585446D01*
X986858Y585510D01*
X986884Y585559D01*
X986917Y585603D01*
X986948Y585685D01*
X986988Y585763D01*
X986996Y585810D01*
X987018Y585869D01*
X987030Y586016D01*
X987043Y586094D01*
X987043Y849006D01*
X987031Y849093D01*
X987028Y849180D01*
X987011Y849233D01*
X987003Y849288D01*
X986968Y849368D01*
X986941Y849451D01*
X986913Y849490D01*
X986887Y849547D01*
X986791Y849660D01*
X986746Y849724D01*
X976724Y859746D01*
X976654Y859798D01*
X976590Y859858D01*
X976541Y859884D01*
X976497Y859917D01*
X976415Y859948D01*
X976337Y859988D01*
X976290Y859996D01*
X976231Y860018D01*
X976084Y860030D01*
X976006Y860043D01*
X954394Y860043D01*
X954307Y860031D01*
X954220Y860028D01*
X954167Y860011D01*
X954112Y860003D01*
X954032Y859968D01*
X953949Y859941D01*
X953910Y859913D01*
X953853Y859887D01*
X953740Y859791D01*
X953676Y859746D01*
X943654Y849724D01*
X943602Y849654D01*
X943542Y849590D01*
X943516Y849541D01*
X943483Y849497D01*
X943452Y849415D01*
X943412Y849337D01*
X943404Y849290D01*
X943382Y849231D01*
X943370Y849084D01*
X943357Y849006D01*
X943357Y840605D01*
X943361Y840576D01*
X943358Y840547D01*
X943381Y840435D01*
X943397Y840323D01*
X943409Y840297D01*
X943414Y840268D01*
X943467Y840167D01*
X943513Y840064D01*
X943532Y840042D01*
X943545Y840015D01*
X943623Y839933D01*
X943696Y839847D01*
X943721Y839831D01*
X943741Y839809D01*
X943839Y839752D01*
X943933Y839689D01*
X943961Y839680D01*
X943986Y839666D01*
X944096Y839638D01*
X944204Y839604D01*
X944234Y839603D01*
X944262Y839596D01*
X944375Y839599D01*
X944488Y839596D01*
X944517Y839604D01*
X944546Y839605D01*
X944654Y839640D01*
X944763Y839668D01*
X944789Y839683D01*
X944817Y839692D01*
X944881Y839738D01*
X945008Y839813D01*
X945051Y839859D01*
X945090Y839887D01*
X946313Y841110D01*
X950327Y842773D01*
X954673Y842773D01*
X958687Y841110D01*
X961760Y838037D01*
X963423Y834023D01*
X963423Y829677D01*
X961751Y825641D01*
X961724Y825606D01*
X961653Y825523D01*
X961639Y825493D01*
X961619Y825465D01*
X961580Y825364D01*
X961535Y825265D01*
X961530Y825231D01*
X961518Y825200D01*
X961509Y825091D01*
X961492Y824984D01*
X961497Y824950D01*
X961494Y824917D01*
X961515Y824810D01*
X961530Y824702D01*
X961543Y824671D01*
X961550Y824638D01*
X961600Y824541D01*
X961644Y824442D01*
X961665Y824415D01*
X961681Y824385D01*
X961756Y824307D01*
X961825Y824223D01*
X961853Y824204D01*
X961877Y824179D01*
X961970Y824124D01*
X962060Y824063D01*
X962093Y824053D01*
X962122Y824036D01*
X962227Y824009D01*
X962331Y823975D01*
X962361Y823975D01*
X962397Y823965D01*
X962617Y823972D01*
X962666Y823972D01*
X963169Y824052D01*
X963169Y814831D01*
X953948Y814831D01*
X954051Y815477D01*
X954607Y817188D01*
X955424Y818791D01*
X955851Y819380D01*
X955854Y819385D01*
X955858Y819390D01*
X955921Y819511D01*
X955984Y819631D01*
X955986Y819637D01*
X955989Y819642D01*
X956015Y819777D01*
X956043Y819909D01*
X956042Y819915D01*
X956044Y819921D01*
X956032Y820056D01*
X956022Y820192D01*
X956020Y820198D01*
X956019Y820204D01*
X955970Y820331D01*
X955923Y820459D01*
X955919Y820464D01*
X955917Y820470D01*
X955835Y820578D01*
X955754Y820688D01*
X955749Y820691D01*
X955745Y820696D01*
X955636Y820778D01*
X955529Y820861D01*
X955523Y820863D01*
X955518Y820867D01*
X955392Y820914D01*
X955264Y820964D01*
X955257Y820965D01*
X955252Y820967D01*
X955118Y820978D01*
X954981Y820990D01*
X954974Y820989D01*
X954968Y820990D01*
X954926Y820980D01*
X954701Y820937D01*
X954682Y820927D01*
X950327Y820927D01*
X949567Y821242D01*
X949484Y821264D01*
X949404Y821294D01*
X949347Y821299D01*
X949292Y821313D01*
X949206Y821311D01*
X949120Y821318D01*
X949065Y821307D01*
X949008Y821305D01*
X948926Y821279D01*
X948842Y821262D01*
X948791Y821236D01*
X948737Y821218D01*
X948666Y821170D01*
X948589Y821131D01*
X948548Y821092D01*
X948501Y821060D01*
X948446Y820994D01*
X948383Y820935D01*
X948354Y820886D01*
X948318Y820842D01*
X948283Y820764D01*
X948240Y820690D01*
X948225Y820635D01*
X948202Y820583D01*
X948191Y820497D01*
X948169Y820414D01*
X948171Y820357D01*
X948163Y820301D01*
X948176Y820216D01*
X948178Y820130D01*
X948196Y820076D01*
X948204Y820020D01*
X948239Y819941D01*
X948266Y819860D01*
X948295Y819819D01*
X948321Y819761D01*
X948415Y819650D01*
X948461Y819586D01*
X949060Y818987D01*
X950723Y814973D01*
X950723Y810627D01*
X949060Y806613D01*
X948461Y806014D01*
X948409Y805945D01*
X948350Y805883D01*
X948324Y805832D01*
X948290Y805787D01*
X948259Y805706D01*
X948220Y805630D01*
X948209Y805574D01*
X948189Y805521D01*
X948182Y805435D01*
X948165Y805351D01*
X948170Y805294D01*
X948165Y805238D01*
X948182Y805153D01*
X948189Y805068D01*
X948210Y805015D01*
X948221Y804959D01*
X948261Y804882D01*
X948291Y804802D01*
X948326Y804757D01*
X948352Y804707D01*
X948411Y804644D01*
X948463Y804576D01*
X948509Y804542D01*
X948548Y804500D01*
X948622Y804457D01*
X948691Y804406D01*
X948744Y804385D01*
X948793Y804357D01*
X948876Y804336D01*
X948957Y804305D01*
X949014Y804301D01*
X949069Y804287D01*
X949154Y804289D01*
X949240Y804282D01*
X949288Y804294D01*
X949353Y804296D01*
X949491Y804340D01*
X949567Y804358D01*
X950327Y804673D01*
X954687Y804673D01*
X954786Y804649D01*
X954917Y804615D01*
X954923Y804615D01*
X954929Y804613D01*
X955065Y804619D01*
X955201Y804623D01*
X955207Y804625D01*
X955213Y804625D01*
X955342Y804668D01*
X955472Y804710D01*
X955477Y804713D01*
X955483Y804715D01*
X955595Y804792D01*
X955708Y804868D01*
X955712Y804873D01*
X955717Y804876D01*
X955804Y804982D01*
X955891Y805085D01*
X955893Y805091D01*
X955897Y805096D01*
X955951Y805222D01*
X956006Y805345D01*
X956007Y805351D01*
X956009Y805357D01*
X956026Y805492D01*
X956045Y805627D01*
X956044Y805633D01*
X956045Y805639D01*
X956024Y805773D01*
X956004Y805908D01*
X956002Y805914D01*
X956001Y805920D01*
X955981Y805959D01*
X955887Y806167D01*
X955864Y806195D01*
X955851Y806220D01*
X955424Y806809D01*
X954607Y808412D01*
X954051Y810123D01*
X953948Y810769D01*
X963169Y810769D01*
X963169Y801548D01*
X962666Y801628D01*
X962558Y801630D01*
X962449Y801639D01*
X962416Y801632D01*
X962382Y801633D01*
X962277Y801604D01*
X962170Y801583D01*
X962140Y801567D01*
X962108Y801559D01*
X962015Y801502D01*
X961918Y801452D01*
X961894Y801429D01*
X961865Y801411D01*
X961791Y801331D01*
X961712Y801256D01*
X961695Y801227D01*
X961672Y801202D01*
X961623Y801105D01*
X961568Y801011D01*
X961560Y800978D01*
X961545Y800948D01*
X961525Y800841D01*
X961498Y800735D01*
X961499Y800701D01*
X961493Y800668D01*
X961504Y800560D01*
X961507Y800451D01*
X961518Y800419D01*
X961521Y800385D01*
X961561Y800284D01*
X961595Y800181D01*
X961612Y800156D01*
X961626Y800121D01*
X961749Y799963D01*
X963423Y795923D01*
X963423Y791577D01*
X961751Y787541D01*
X961724Y787506D01*
X961653Y787423D01*
X961639Y787393D01*
X961619Y787365D01*
X961580Y787264D01*
X961535Y787165D01*
X961530Y787131D01*
X961518Y787100D01*
X961509Y786991D01*
X961492Y786884D01*
X961497Y786850D01*
X961494Y786817D01*
X961515Y786710D01*
X961530Y786602D01*
X961543Y786571D01*
X961550Y786538D01*
X961600Y786441D01*
X961644Y786342D01*
X961665Y786315D01*
X961681Y786285D01*
X961756Y786207D01*
X961825Y786123D01*
X961853Y786104D01*
X961877Y786079D01*
X961970Y786024D01*
X962060Y785963D01*
X962093Y785953D01*
X962122Y785936D01*
X962227Y785909D01*
X962331Y785875D01*
X962361Y785875D01*
X962397Y785865D01*
X962617Y785872D01*
X962666Y785872D01*
X963169Y785952D01*
X963169Y775716D01*
X963177Y775658D01*
X963175Y775600D01*
X963197Y775518D01*
X963209Y775435D01*
X963233Y775381D01*
X963247Y775325D01*
X963290Y775252D01*
X963325Y775175D01*
X963363Y775131D01*
X963393Y775080D01*
X963454Y775023D01*
X963509Y774958D01*
X963557Y774926D01*
X963600Y774886D01*
X963675Y774847D01*
X963745Y774801D01*
X963801Y774783D01*
X963853Y774756D01*
X963921Y774745D01*
X964016Y774715D01*
X964116Y774712D01*
X964184Y774701D01*
X965201Y774701D01*
X965201Y774699D01*
X964184Y774699D01*
X964126Y774691D01*
X964068Y774692D01*
X963986Y774671D01*
X963903Y774659D01*
X963849Y774635D01*
X963793Y774621D01*
X963720Y774578D01*
X963643Y774543D01*
X963598Y774505D01*
X963548Y774475D01*
X963490Y774414D01*
X963426Y774359D01*
X963394Y774311D01*
X963354Y774268D01*
X963315Y774193D01*
X963269Y774123D01*
X963251Y774067D01*
X963224Y774015D01*
X963213Y773947D01*
X963183Y773852D01*
X963180Y773752D01*
X963169Y773684D01*
X963169Y763448D01*
X962523Y763551D01*
X960812Y764107D01*
X959209Y764924D01*
X957689Y766028D01*
X957657Y766045D01*
X957654Y766047D01*
X957563Y766115D01*
X957536Y766126D01*
X957511Y766142D01*
X957403Y766176D01*
X957298Y766217D01*
X957268Y766219D01*
X957240Y766228D01*
X957127Y766231D01*
X957015Y766240D01*
X956985Y766235D01*
X956956Y766235D01*
X956846Y766207D01*
X956736Y766185D01*
X956709Y766171D01*
X956681Y766164D01*
X956584Y766106D01*
X956483Y766054D01*
X956462Y766033D01*
X956436Y766018D01*
X956359Y765936D01*
X956277Y765858D01*
X956262Y765833D01*
X956242Y765811D01*
X956190Y765710D01*
X956133Y765613D01*
X956126Y765584D01*
X956112Y765558D01*
X956099Y765481D01*
X956063Y765338D01*
X956065Y765275D01*
X956057Y765227D01*
X956057Y150927D01*
X945813Y140683D01*
X945761Y140613D01*
X945701Y140549D01*
X945675Y140500D01*
X945642Y140456D01*
X945611Y140374D01*
X945571Y140296D01*
X945563Y140249D01*
X945541Y140190D01*
X945531Y140074D01*
X945530Y140069D01*
X945529Y140048D01*
X945529Y140043D01*
X945516Y139965D01*
X945516Y138563D01*
X944646Y136462D01*
X943038Y134854D01*
X940937Y133984D01*
X938663Y133984D01*
X936562Y134854D01*
X934954Y136462D01*
X934084Y138563D01*
X934084Y140837D01*
X934954Y142938D01*
X936562Y144546D01*
X938663Y145416D01*
X940065Y145416D01*
X940152Y145428D01*
X940239Y145431D01*
X940292Y145448D01*
X940347Y145456D01*
X940427Y145491D01*
X940510Y145518D01*
X940549Y145546D01*
X940606Y145572D01*
X940719Y145668D01*
X940783Y145713D01*
X948646Y153576D01*
X948698Y153646D01*
X948758Y153710D01*
X948784Y153759D01*
X948817Y153803D01*
X948848Y153885D01*
X948888Y153963D01*
X948896Y154010D01*
X948918Y154069D01*
X948930Y154216D01*
X948943Y154294D01*
X948943Y765945D01*
X948939Y765974D01*
X948942Y766003D01*
X948919Y766115D01*
X948903Y766227D01*
X948891Y766253D01*
X948886Y766282D01*
X948833Y766383D01*
X948787Y766486D01*
X948768Y766508D01*
X948755Y766535D01*
X948677Y766617D01*
X948604Y766703D01*
X948579Y766719D01*
X948559Y766741D01*
X948461Y766798D01*
X948367Y766861D01*
X948339Y766870D01*
X948314Y766884D01*
X948204Y766912D01*
X948096Y766946D01*
X948066Y766947D01*
X948038Y766954D01*
X947925Y766951D01*
X947812Y766954D01*
X947783Y766946D01*
X947754Y766945D01*
X947646Y766910D01*
X947537Y766882D01*
X947511Y766867D01*
X947483Y766858D01*
X947419Y766812D01*
X947292Y766737D01*
X947249Y766691D01*
X947210Y766663D01*
X945987Y765440D01*
X943983Y764610D01*
X943982Y764609D01*
X943981Y764609D01*
X943860Y764537D01*
X943739Y764466D01*
X943738Y764465D01*
X943736Y764464D01*
X943639Y764360D01*
X943543Y764259D01*
X943543Y764258D01*
X943542Y764256D01*
X943477Y764131D01*
X943413Y764006D01*
X943413Y764005D01*
X943412Y764003D01*
X943410Y763988D01*
X943358Y763727D01*
X943361Y763697D01*
X943357Y763672D01*
X943357Y189027D01*
X933113Y178783D01*
X933061Y178713D01*
X933001Y178649D01*
X932975Y178600D01*
X932942Y178556D01*
X932911Y178474D01*
X932871Y178396D01*
X932863Y178349D01*
X932841Y178290D01*
X932829Y178143D01*
X932816Y178065D01*
X932816Y176663D01*
X931946Y174562D01*
X930338Y172954D01*
X928237Y172084D01*
X925963Y172084D01*
X923862Y172954D01*
X922254Y174562D01*
X921384Y176663D01*
X921384Y178937D01*
X922254Y181038D01*
X923862Y182646D01*
X925963Y183516D01*
X927365Y183516D01*
X927452Y183528D01*
X927539Y183531D01*
X927592Y183548D01*
X927647Y183556D01*
X927727Y183591D01*
X927810Y183618D01*
X927849Y183646D01*
X927906Y183672D01*
X928019Y183768D01*
X928083Y183813D01*
X935946Y191676D01*
X935998Y191746D01*
X936058Y191810D01*
X936084Y191859D01*
X936117Y191903D01*
X936148Y191985D01*
X936188Y192063D01*
X936196Y192110D01*
X936218Y192169D01*
X936230Y192316D01*
X936243Y192394D01*
X936243Y763672D01*
X936243Y763674D01*
X936243Y763675D01*
X936223Y763815D01*
X936203Y763954D01*
X936203Y763955D01*
X936203Y763957D01*
X936146Y764083D01*
X936087Y764213D01*
X936086Y764214D01*
X936085Y764216D01*
X935994Y764323D01*
X935904Y764430D01*
X935902Y764431D01*
X935901Y764432D01*
X935888Y764440D01*
X935667Y764588D01*
X935638Y764597D01*
X935617Y764610D01*
X933613Y765440D01*
X932390Y766663D01*
X932366Y766681D01*
X932347Y766703D01*
X932253Y766766D01*
X932163Y766834D01*
X932135Y766844D01*
X932111Y766861D01*
X932003Y766895D01*
X931897Y766935D01*
X931868Y766938D01*
X931840Y766946D01*
X931726Y766949D01*
X931614Y766959D01*
X931585Y766953D01*
X931556Y766954D01*
X931446Y766925D01*
X931335Y766903D01*
X931309Y766889D01*
X931281Y766882D01*
X931183Y766824D01*
X931083Y766772D01*
X931061Y766752D01*
X931036Y766737D01*
X930959Y766654D01*
X930877Y766576D01*
X930862Y766551D01*
X930842Y766529D01*
X930790Y766429D01*
X930733Y766331D01*
X930726Y766302D01*
X930712Y766276D01*
X930699Y766199D01*
X930663Y766055D01*
X930665Y765993D01*
X930657Y765945D01*
X930657Y227127D01*
X920413Y216883D01*
X920361Y216813D01*
X920301Y216749D01*
X920275Y216700D01*
X920242Y216656D01*
X920211Y216574D01*
X920171Y216496D01*
X920163Y216449D01*
X920141Y216390D01*
X920129Y216243D01*
X920116Y216165D01*
X920116Y214763D01*
X919246Y212662D01*
X917638Y211054D01*
X915537Y210184D01*
X913263Y210184D01*
X911162Y211054D01*
X909554Y212662D01*
X908684Y214763D01*
X908684Y217037D01*
X909554Y219138D01*
X911162Y220746D01*
X913263Y221616D01*
X914665Y221616D01*
X914752Y221628D01*
X914839Y221631D01*
X914892Y221648D01*
X914947Y221656D01*
X915027Y221691D01*
X915110Y221718D01*
X915149Y221746D01*
X915206Y221772D01*
X915319Y221868D01*
X915383Y221913D01*
X923246Y229776D01*
X923298Y229846D01*
X923358Y229910D01*
X923384Y229959D01*
X923417Y230003D01*
X923448Y230085D01*
X923488Y230163D01*
X923496Y230210D01*
X923518Y230269D01*
X923530Y230416D01*
X923543Y230494D01*
X923543Y346463D01*
X923541Y346483D01*
X923543Y346502D01*
X923521Y346623D01*
X923503Y346745D01*
X923495Y346763D01*
X923492Y346782D01*
X923437Y346892D01*
X923387Y347004D01*
X923375Y347019D01*
X923366Y347037D01*
X923283Y347127D01*
X923204Y347221D01*
X923187Y347232D01*
X923174Y347246D01*
X923069Y347311D01*
X922967Y347379D01*
X922948Y347385D01*
X922932Y347395D01*
X922813Y347427D01*
X922696Y347465D01*
X922676Y347465D01*
X922657Y347470D01*
X922535Y347469D01*
X922412Y347472D01*
X922393Y347467D01*
X922373Y347467D01*
X922255Y347431D01*
X922137Y347400D01*
X922120Y347390D01*
X922101Y347384D01*
X921998Y347317D01*
X921892Y347255D01*
X921879Y347240D01*
X921862Y347230D01*
X921816Y347173D01*
X921698Y347047D01*
X921674Y347002D01*
X921649Y346971D01*
X918495Y341508D01*
X912662Y336613D01*
X905507Y334009D01*
X897893Y334009D01*
X890738Y336613D01*
X884905Y341508D01*
X881098Y348102D01*
X879776Y355600D01*
X881098Y363098D01*
X884905Y369692D01*
X890738Y374587D01*
X897893Y377191D01*
X905507Y377191D01*
X912662Y374587D01*
X918495Y369692D01*
X921649Y364229D01*
X921661Y364214D01*
X921669Y364196D01*
X921748Y364102D01*
X921824Y364005D01*
X921840Y363994D01*
X921853Y363979D01*
X921955Y363911D01*
X922054Y363839D01*
X922073Y363832D01*
X922089Y363821D01*
X922206Y363784D01*
X922322Y363743D01*
X922342Y363741D01*
X922360Y363735D01*
X922483Y363732D01*
X922606Y363724D01*
X922625Y363729D01*
X922644Y363728D01*
X922763Y363759D01*
X922883Y363786D01*
X922901Y363795D01*
X922919Y363800D01*
X923025Y363863D01*
X923133Y363921D01*
X923147Y363935D01*
X923164Y363945D01*
X923248Y364035D01*
X923335Y364121D01*
X923345Y364138D01*
X923358Y364153D01*
X923414Y364262D01*
X923474Y364369D01*
X923479Y364388D01*
X923488Y364406D01*
X923500Y364478D01*
X923539Y364646D01*
X923537Y364697D01*
X923543Y364737D01*
X923543Y524263D01*
X923541Y524283D01*
X923543Y524302D01*
X923521Y524423D01*
X923503Y524545D01*
X923495Y524563D01*
X923492Y524582D01*
X923437Y524692D01*
X923387Y524804D01*
X923375Y524819D01*
X923366Y524837D01*
X923283Y524927D01*
X923204Y525021D01*
X923187Y525032D01*
X923174Y525046D01*
X923069Y525111D01*
X922967Y525179D01*
X922948Y525185D01*
X922932Y525195D01*
X922813Y525227D01*
X922696Y525265D01*
X922676Y525265D01*
X922657Y525270D01*
X922535Y525269D01*
X922412Y525272D01*
X922393Y525267D01*
X922373Y525267D01*
X922255Y525231D01*
X922137Y525200D01*
X922120Y525190D01*
X922101Y525184D01*
X921998Y525117D01*
X921892Y525055D01*
X921879Y525040D01*
X921862Y525030D01*
X921816Y524973D01*
X921698Y524847D01*
X921674Y524802D01*
X921649Y524771D01*
X918495Y519308D01*
X912662Y514413D01*
X905507Y511809D01*
X897893Y511809D01*
X890738Y514413D01*
X884905Y519308D01*
X881751Y524771D01*
X881739Y524786D01*
X881731Y524804D01*
X881652Y524898D01*
X881576Y524995D01*
X881560Y525006D01*
X881547Y525021D01*
X881445Y525089D01*
X881346Y525161D01*
X881327Y525168D01*
X881311Y525179D01*
X881194Y525216D01*
X881078Y525257D01*
X881058Y525259D01*
X881040Y525265D01*
X880917Y525268D01*
X880794Y525276D01*
X880775Y525271D01*
X880756Y525272D01*
X880637Y525241D01*
X880517Y525214D01*
X880499Y525205D01*
X880481Y525200D01*
X880375Y525137D01*
X880267Y525079D01*
X880253Y525065D01*
X880236Y525055D01*
X880152Y524965D01*
X880065Y524879D01*
X880055Y524862D01*
X880042Y524847D01*
X879986Y524738D01*
X879926Y524631D01*
X879921Y524612D01*
X879912Y524594D01*
X879900Y524522D01*
X879861Y524354D01*
X879863Y524303D01*
X879857Y524263D01*
X879857Y443027D01*
X867454Y430624D01*
X867402Y430554D01*
X867342Y430490D01*
X867316Y430441D01*
X867283Y430397D01*
X867252Y430315D01*
X867212Y430237D01*
X867204Y430190D01*
X867182Y430131D01*
X867170Y429984D01*
X867157Y429906D01*
X867157Y353568D01*
X867165Y353510D01*
X867163Y353452D01*
X867185Y353370D01*
X867197Y353286D01*
X867220Y353233D01*
X867235Y353177D01*
X867278Y353104D01*
X867313Y353027D01*
X867351Y352982D01*
X867380Y352932D01*
X867442Y352874D01*
X867496Y352810D01*
X867545Y352778D01*
X867588Y352738D01*
X867663Y352699D01*
X867733Y352652D01*
X867789Y352635D01*
X867841Y352608D01*
X867909Y352597D01*
X868004Y352567D01*
X868104Y352564D01*
X868172Y352553D01*
X872062Y352553D01*
X873253Y351362D01*
X873253Y334438D01*
X872062Y333247D01*
X855138Y333247D01*
X853947Y334438D01*
X853947Y351362D01*
X855138Y352553D01*
X859028Y352553D01*
X859086Y352561D01*
X859144Y352559D01*
X859226Y352581D01*
X859310Y352593D01*
X859363Y352616D01*
X859419Y352631D01*
X859492Y352674D01*
X859569Y352709D01*
X859614Y352747D01*
X859664Y352776D01*
X859722Y352838D01*
X859786Y352892D01*
X859818Y352941D01*
X859858Y352984D01*
X859897Y353059D01*
X859944Y353129D01*
X859961Y353185D01*
X859988Y353237D01*
X859999Y353305D01*
X860029Y353400D01*
X860032Y353500D01*
X860043Y353568D01*
X860043Y433273D01*
X872446Y445676D01*
X872498Y445746D01*
X872558Y445810D01*
X872584Y445859D01*
X872617Y445903D01*
X872648Y445985D01*
X872688Y446063D01*
X872696Y446110D01*
X872718Y446169D01*
X872730Y446316D01*
X872743Y446394D01*
X872743Y535432D01*
X872735Y535490D01*
X872737Y535548D01*
X872715Y535630D01*
X872703Y535714D01*
X872680Y535767D01*
X872665Y535823D01*
X872622Y535896D01*
X872587Y535973D01*
X872549Y536018D01*
X872520Y536068D01*
X872458Y536126D01*
X872404Y536190D01*
X872355Y536222D01*
X872312Y536262D01*
X872237Y536301D01*
X872167Y536348D01*
X872111Y536365D01*
X872059Y536392D01*
X871991Y536403D01*
X871896Y536433D01*
X871796Y536436D01*
X871728Y536447D01*
X855472Y536447D01*
X855414Y536439D01*
X855356Y536441D01*
X855274Y536419D01*
X855190Y536407D01*
X855137Y536384D01*
X855081Y536369D01*
X855008Y536326D01*
X854931Y536291D01*
X854886Y536253D01*
X854836Y536224D01*
X854778Y536162D01*
X854714Y536108D01*
X854682Y536059D01*
X854642Y536016D01*
X854603Y535941D01*
X854556Y535871D01*
X854539Y535815D01*
X854512Y535763D01*
X854501Y535695D01*
X854471Y535600D01*
X854468Y535500D01*
X854457Y535432D01*
X854457Y404927D01*
X839673Y390143D01*
X801994Y390143D01*
X801907Y390131D01*
X801820Y390128D01*
X801767Y390111D01*
X801712Y390103D01*
X801632Y390068D01*
X801549Y390041D01*
X801510Y390013D01*
X801453Y389987D01*
X801340Y389891D01*
X801276Y389846D01*
X791254Y379824D01*
X791202Y379754D01*
X791142Y379690D01*
X791116Y379641D01*
X791083Y379597D01*
X791052Y379515D01*
X791012Y379437D01*
X791004Y379390D01*
X790982Y379331D01*
X790970Y379184D01*
X790957Y379106D01*
X790957Y353568D01*
X790965Y353510D01*
X790963Y353452D01*
X790985Y353370D01*
X790997Y353286D01*
X791020Y353233D01*
X791035Y353177D01*
X791078Y353104D01*
X791113Y353027D01*
X791151Y352982D01*
X791180Y352932D01*
X791242Y352874D01*
X791296Y352810D01*
X791345Y352778D01*
X791388Y352738D01*
X791463Y352699D01*
X791533Y352652D01*
X791589Y352635D01*
X791641Y352608D01*
X791709Y352597D01*
X791804Y352567D01*
X791904Y352564D01*
X791972Y352553D01*
X795862Y352553D01*
X797053Y351362D01*
X797053Y334438D01*
X795862Y333247D01*
X778938Y333247D01*
X777747Y334438D01*
X777747Y351362D01*
X778938Y352553D01*
X782828Y352553D01*
X782886Y352561D01*
X782944Y352559D01*
X783026Y352581D01*
X783110Y352593D01*
X783163Y352616D01*
X783219Y352631D01*
X783292Y352674D01*
X783369Y352709D01*
X783414Y352747D01*
X783464Y352776D01*
X783522Y352838D01*
X783586Y352892D01*
X783618Y352941D01*
X783658Y352984D01*
X783697Y353059D01*
X783744Y353129D01*
X783761Y353185D01*
X783788Y353237D01*
X783799Y353305D01*
X783829Y353400D01*
X783832Y353500D01*
X783843Y353568D01*
X783843Y382473D01*
X798627Y397257D01*
X836306Y397257D01*
X836393Y397269D01*
X836480Y397272D01*
X836533Y397289D01*
X836588Y397297D01*
X836668Y397332D01*
X836751Y397359D01*
X836790Y397387D01*
X836847Y397413D01*
X836960Y397509D01*
X837024Y397554D01*
X847046Y407576D01*
X847098Y407646D01*
X847158Y407710D01*
X847184Y407759D01*
X847217Y407803D01*
X847248Y407885D01*
X847288Y407963D01*
X847296Y408010D01*
X847318Y408069D01*
X847330Y408216D01*
X847343Y408294D01*
X847343Y535432D01*
X847335Y535490D01*
X847337Y535548D01*
X847315Y535630D01*
X847303Y535714D01*
X847280Y535767D01*
X847265Y535823D01*
X847222Y535896D01*
X847187Y535973D01*
X847149Y536018D01*
X847120Y536068D01*
X847058Y536126D01*
X847004Y536190D01*
X846955Y536222D01*
X846912Y536262D01*
X846837Y536301D01*
X846767Y536348D01*
X846711Y536365D01*
X846659Y536392D01*
X846591Y536403D01*
X846496Y536433D01*
X846396Y536436D01*
X846328Y536447D01*
X829738Y536447D01*
X828547Y537638D01*
X828547Y554562D01*
X829738Y555753D01*
X846328Y555753D01*
X846386Y555761D01*
X846444Y555759D01*
X846526Y555781D01*
X846610Y555793D01*
X846663Y555816D01*
X846719Y555831D01*
X846792Y555874D01*
X846869Y555909D01*
X846914Y555947D01*
X846964Y555976D01*
X847022Y556038D01*
X847086Y556092D01*
X847118Y556141D01*
X847158Y556184D01*
X847197Y556259D01*
X847244Y556329D01*
X847261Y556385D01*
X847288Y556437D01*
X847299Y556505D01*
X847329Y556600D01*
X847332Y556700D01*
X847343Y556768D01*
X847343Y722006D01*
X847331Y722093D01*
X847328Y722180D01*
X847311Y722233D01*
X847303Y722288D01*
X847268Y722368D01*
X847241Y722451D01*
X847213Y722490D01*
X847187Y722547D01*
X847091Y722660D01*
X847046Y722724D01*
X834643Y735127D01*
X834643Y763672D01*
X834643Y763674D01*
X834643Y763675D01*
X834623Y763815D01*
X834603Y763954D01*
X834603Y763955D01*
X834603Y763957D01*
X834546Y764083D01*
X834487Y764213D01*
X834486Y764214D01*
X834485Y764216D01*
X834394Y764323D01*
X834304Y764430D01*
X834302Y764431D01*
X834301Y764432D01*
X834288Y764440D01*
X834067Y764588D01*
X834038Y764597D01*
X834017Y764610D01*
X832013Y765440D01*
X830790Y766663D01*
X830766Y766681D01*
X830747Y766703D01*
X830653Y766766D01*
X830563Y766834D01*
X830535Y766844D01*
X830511Y766861D01*
X830403Y766895D01*
X830297Y766935D01*
X830268Y766938D01*
X830240Y766946D01*
X830126Y766949D01*
X830014Y766959D01*
X829985Y766953D01*
X829956Y766954D01*
X829846Y766925D01*
X829735Y766903D01*
X829709Y766889D01*
X829681Y766882D01*
X829583Y766824D01*
X829483Y766772D01*
X829461Y766752D01*
X829436Y766737D01*
X829359Y766654D01*
X829277Y766576D01*
X829262Y766551D01*
X829242Y766529D01*
X829190Y766429D01*
X829133Y766331D01*
X829126Y766302D01*
X829112Y766276D01*
X829099Y766199D01*
X829063Y766055D01*
X829065Y765993D01*
X829057Y765945D01*
X829057Y582727D01*
X816654Y570324D01*
X816602Y570254D01*
X816542Y570190D01*
X816516Y570141D01*
X816483Y570097D01*
X816452Y570015D01*
X816412Y569937D01*
X816404Y569890D01*
X816382Y569831D01*
X816370Y569684D01*
X816357Y569606D01*
X816357Y556768D01*
X816365Y556710D01*
X816363Y556652D01*
X816385Y556570D01*
X816397Y556486D01*
X816420Y556433D01*
X816435Y556377D01*
X816478Y556304D01*
X816513Y556227D01*
X816551Y556182D01*
X816580Y556132D01*
X816642Y556074D01*
X816696Y556010D01*
X816745Y555978D01*
X816788Y555938D01*
X816863Y555899D01*
X816933Y555852D01*
X816989Y555835D01*
X817041Y555808D01*
X817109Y555797D01*
X817204Y555767D01*
X817304Y555764D01*
X817372Y555753D01*
X821262Y555753D01*
X822453Y554562D01*
X822453Y537638D01*
X821262Y536447D01*
X804338Y536447D01*
X803147Y537638D01*
X803147Y554562D01*
X804338Y555753D01*
X808228Y555753D01*
X808286Y555761D01*
X808344Y555759D01*
X808426Y555781D01*
X808510Y555793D01*
X808563Y555816D01*
X808619Y555831D01*
X808692Y555874D01*
X808769Y555909D01*
X808814Y555947D01*
X808864Y555976D01*
X808922Y556038D01*
X808986Y556092D01*
X809018Y556141D01*
X809058Y556184D01*
X809097Y556259D01*
X809144Y556329D01*
X809161Y556385D01*
X809188Y556437D01*
X809199Y556505D01*
X809229Y556600D01*
X809232Y556700D01*
X809243Y556768D01*
X809243Y572973D01*
X821646Y585376D01*
X821698Y585446D01*
X821758Y585510D01*
X821784Y585559D01*
X821817Y585603D01*
X821848Y585685D01*
X821888Y585763D01*
X821896Y585810D01*
X821918Y585869D01*
X821930Y586016D01*
X821943Y586094D01*
X821943Y765945D01*
X821939Y765974D01*
X821942Y766003D01*
X821919Y766115D01*
X821903Y766227D01*
X821891Y766253D01*
X821886Y766282D01*
X821833Y766383D01*
X821787Y766486D01*
X821768Y766508D01*
X821755Y766535D01*
X821677Y766617D01*
X821604Y766703D01*
X821579Y766719D01*
X821559Y766741D01*
X821461Y766798D01*
X821367Y766861D01*
X821339Y766870D01*
X821314Y766884D01*
X821204Y766912D01*
X821096Y766946D01*
X821066Y766947D01*
X821038Y766954D01*
X820925Y766951D01*
X820812Y766954D01*
X820783Y766946D01*
X820754Y766945D01*
X820646Y766910D01*
X820537Y766882D01*
X820511Y766867D01*
X820483Y766858D01*
X820419Y766812D01*
X820292Y766737D01*
X820249Y766691D01*
X820210Y766663D01*
X818987Y765440D01*
X814973Y763777D01*
X810627Y763777D01*
X806613Y765440D01*
X803540Y768513D01*
X801877Y772527D01*
X801877Y776873D01*
X803540Y780887D01*
X804139Y781486D01*
X804191Y781555D01*
X804250Y781617D01*
X804276Y781668D01*
X804310Y781713D01*
X804341Y781794D01*
X804380Y781870D01*
X804391Y781926D01*
X804411Y781979D01*
X804418Y782065D01*
X804435Y782149D01*
X804430Y782206D01*
X804435Y782262D01*
X804418Y782347D01*
X804411Y782432D01*
X804390Y782485D01*
X804379Y782541D01*
X804339Y782617D01*
X804309Y782698D01*
X804274Y782743D01*
X804248Y782793D01*
X804189Y782856D01*
X804137Y782924D01*
X804091Y782958D01*
X804052Y783000D01*
X803978Y783043D01*
X803909Y783094D01*
X803856Y783115D01*
X803807Y783143D01*
X803724Y783165D01*
X803643Y783195D01*
X803587Y783199D01*
X803531Y783213D01*
X803445Y783211D01*
X803360Y783218D01*
X803312Y783206D01*
X803247Y783204D01*
X803109Y783160D01*
X803033Y783142D01*
X802273Y782827D01*
X797927Y782827D01*
X797167Y783142D01*
X797084Y783164D01*
X797004Y783194D01*
X796947Y783199D01*
X796892Y783213D01*
X796806Y783211D01*
X796720Y783218D01*
X796665Y783207D01*
X796608Y783205D01*
X796526Y783179D01*
X796442Y783162D01*
X796391Y783136D01*
X796337Y783118D01*
X796266Y783070D01*
X796189Y783031D01*
X796148Y782992D01*
X796101Y782960D01*
X796045Y782894D01*
X795983Y782835D01*
X795954Y782786D01*
X795918Y782742D01*
X795883Y782664D01*
X795839Y782590D01*
X795825Y782535D01*
X795802Y782483D01*
X795791Y782397D01*
X795769Y782314D01*
X795771Y782257D01*
X795763Y782201D01*
X795776Y782116D01*
X795778Y782030D01*
X795796Y781976D01*
X795804Y781920D01*
X795839Y781842D01*
X795866Y781760D01*
X795895Y781719D01*
X795921Y781661D01*
X796015Y781550D01*
X796061Y781486D01*
X796660Y780887D01*
X798323Y776873D01*
X798323Y772527D01*
X796660Y768513D01*
X793587Y765440D01*
X789573Y763777D01*
X785227Y763777D01*
X781213Y765440D01*
X779990Y766663D01*
X779966Y766681D01*
X779947Y766703D01*
X779853Y766766D01*
X779763Y766834D01*
X779735Y766844D01*
X779711Y766861D01*
X779603Y766895D01*
X779497Y766935D01*
X779468Y766938D01*
X779440Y766946D01*
X779326Y766949D01*
X779214Y766959D01*
X779185Y766953D01*
X779156Y766954D01*
X779046Y766925D01*
X778935Y766903D01*
X778909Y766889D01*
X778881Y766882D01*
X778783Y766824D01*
X778683Y766772D01*
X778661Y766752D01*
X778636Y766737D01*
X778559Y766654D01*
X778477Y766576D01*
X778462Y766551D01*
X778442Y766529D01*
X778390Y766429D01*
X778333Y766331D01*
X778326Y766302D01*
X778312Y766276D01*
X778299Y766199D01*
X778263Y766055D01*
X778265Y765993D01*
X778257Y765945D01*
X778257Y586094D01*
X778269Y586007D01*
X778272Y585920D01*
X778289Y585867D01*
X778297Y585812D01*
X778332Y585732D01*
X778359Y585649D01*
X778387Y585610D01*
X778413Y585553D01*
X778509Y585440D01*
X778554Y585376D01*
X790957Y572973D01*
X790957Y556768D01*
X790965Y556710D01*
X790963Y556652D01*
X790985Y556570D01*
X790997Y556486D01*
X791020Y556433D01*
X791035Y556377D01*
X791078Y556304D01*
X791113Y556227D01*
X791151Y556182D01*
X791180Y556132D01*
X791242Y556074D01*
X791296Y556010D01*
X791345Y555978D01*
X791388Y555938D01*
X791463Y555899D01*
X791533Y555852D01*
X791589Y555835D01*
X791641Y555808D01*
X791709Y555797D01*
X791804Y555767D01*
X791904Y555764D01*
X791972Y555753D01*
X795862Y555753D01*
X797053Y554562D01*
X797053Y537638D01*
X795862Y536447D01*
X778938Y536447D01*
X777747Y537638D01*
X777747Y554562D01*
X778938Y555753D01*
X782828Y555753D01*
X782886Y555761D01*
X782944Y555759D01*
X783026Y555781D01*
X783110Y555793D01*
X783163Y555816D01*
X783219Y555831D01*
X783292Y555874D01*
X783369Y555909D01*
X783414Y555947D01*
X783464Y555976D01*
X783522Y556038D01*
X783586Y556092D01*
X783618Y556141D01*
X783658Y556184D01*
X783697Y556259D01*
X783744Y556329D01*
X783761Y556385D01*
X783788Y556437D01*
X783799Y556505D01*
X783829Y556600D01*
X783832Y556700D01*
X783843Y556768D01*
X783843Y569606D01*
X783831Y569693D01*
X783828Y569780D01*
X783811Y569833D01*
X783803Y569888D01*
X783768Y569968D01*
X783741Y570051D01*
X783713Y570090D01*
X783687Y570147D01*
X783591Y570260D01*
X783546Y570324D01*
X771143Y582727D01*
X771143Y765945D01*
X771139Y765974D01*
X771142Y766003D01*
X771119Y766115D01*
X771103Y766227D01*
X771091Y766253D01*
X771086Y766282D01*
X771033Y766383D01*
X770987Y766486D01*
X770968Y766508D01*
X770955Y766535D01*
X770877Y766617D01*
X770804Y766703D01*
X770779Y766719D01*
X770759Y766741D01*
X770661Y766798D01*
X770567Y766861D01*
X770539Y766870D01*
X770514Y766884D01*
X770404Y766912D01*
X770296Y766946D01*
X770266Y766947D01*
X770238Y766954D01*
X770125Y766951D01*
X770012Y766954D01*
X769983Y766946D01*
X769954Y766945D01*
X769846Y766910D01*
X769737Y766882D01*
X769711Y766867D01*
X769683Y766858D01*
X769619Y766812D01*
X769492Y766737D01*
X769449Y766691D01*
X769410Y766663D01*
X768187Y765440D01*
X766183Y764610D01*
X766182Y764609D01*
X766181Y764609D01*
X766060Y764537D01*
X765939Y764466D01*
X765938Y764465D01*
X765936Y764464D01*
X765839Y764360D01*
X765743Y764259D01*
X765743Y764258D01*
X765742Y764256D01*
X765677Y764131D01*
X765613Y764006D01*
X765613Y764005D01*
X765612Y764003D01*
X765610Y763988D01*
X765558Y763727D01*
X765561Y763697D01*
X765557Y763672D01*
X765557Y556768D01*
X765565Y556710D01*
X765563Y556652D01*
X765585Y556570D01*
X765597Y556486D01*
X765620Y556433D01*
X765635Y556377D01*
X765678Y556304D01*
X765713Y556227D01*
X765751Y556182D01*
X765780Y556132D01*
X765842Y556074D01*
X765896Y556010D01*
X765945Y555978D01*
X765988Y555938D01*
X766063Y555899D01*
X766133Y555852D01*
X766189Y555835D01*
X766241Y555808D01*
X766309Y555797D01*
X766404Y555767D01*
X766504Y555764D01*
X766572Y555753D01*
X770462Y555753D01*
X771653Y554562D01*
X771653Y537638D01*
X770462Y536447D01*
X753538Y536447D01*
X752347Y537638D01*
X752347Y554562D01*
X753538Y555753D01*
X757428Y555753D01*
X757486Y555761D01*
X757544Y555759D01*
X757626Y555781D01*
X757710Y555793D01*
X757763Y555816D01*
X757819Y555831D01*
X757892Y555874D01*
X757969Y555909D01*
X758014Y555947D01*
X758064Y555976D01*
X758122Y556038D01*
X758186Y556092D01*
X758218Y556141D01*
X758258Y556184D01*
X758297Y556259D01*
X758344Y556329D01*
X758361Y556385D01*
X758388Y556437D01*
X758399Y556505D01*
X758429Y556600D01*
X758432Y556700D01*
X758443Y556768D01*
X758443Y763672D01*
X758443Y763674D01*
X758443Y763675D01*
X758423Y763815D01*
X758403Y763954D01*
X758403Y763955D01*
X758403Y763957D01*
X758346Y764083D01*
X758287Y764213D01*
X758286Y764214D01*
X758285Y764216D01*
X758194Y764323D01*
X758104Y764430D01*
X758102Y764431D01*
X758101Y764432D01*
X758088Y764440D01*
X757867Y764588D01*
X757838Y764597D01*
X757817Y764610D01*
X755813Y765440D01*
X754590Y766663D01*
X754566Y766681D01*
X754547Y766703D01*
X754453Y766766D01*
X754363Y766834D01*
X754335Y766844D01*
X754311Y766861D01*
X754203Y766895D01*
X754097Y766935D01*
X754068Y766938D01*
X754040Y766946D01*
X753926Y766949D01*
X753814Y766959D01*
X753785Y766953D01*
X753756Y766954D01*
X753646Y766925D01*
X753535Y766903D01*
X753509Y766889D01*
X753481Y766882D01*
X753383Y766824D01*
X753283Y766772D01*
X753261Y766752D01*
X753236Y766737D01*
X753159Y766654D01*
X753077Y766576D01*
X753062Y766551D01*
X753042Y766529D01*
X752990Y766429D01*
X752933Y766331D01*
X752926Y766302D01*
X752912Y766276D01*
X752899Y766199D01*
X752863Y766055D01*
X752865Y765993D01*
X752857Y765945D01*
X752857Y697027D01*
X740454Y684624D01*
X740402Y684554D01*
X740342Y684490D01*
X740316Y684441D01*
X740283Y684397D01*
X740252Y684315D01*
X740212Y684237D01*
X740204Y684190D01*
X740182Y684131D01*
X740170Y683984D01*
X740157Y683906D01*
X740157Y556768D01*
X740165Y556710D01*
X740163Y556652D01*
X740185Y556570D01*
X740197Y556486D01*
X740220Y556433D01*
X740235Y556377D01*
X740278Y556304D01*
X740313Y556227D01*
X740351Y556182D01*
X740380Y556132D01*
X740442Y556074D01*
X740496Y556010D01*
X740545Y555978D01*
X740588Y555938D01*
X740663Y555899D01*
X740733Y555852D01*
X740789Y555835D01*
X740841Y555808D01*
X740909Y555797D01*
X741004Y555767D01*
X741104Y555764D01*
X741172Y555753D01*
X745062Y555753D01*
X746253Y554562D01*
X746253Y537638D01*
X745062Y536447D01*
X728472Y536447D01*
X728414Y536439D01*
X728356Y536441D01*
X728274Y536419D01*
X728190Y536407D01*
X728137Y536384D01*
X728081Y536369D01*
X728008Y536326D01*
X727931Y536291D01*
X727886Y536253D01*
X727836Y536224D01*
X727778Y536162D01*
X727714Y536108D01*
X727682Y536059D01*
X727642Y536016D01*
X727603Y535941D01*
X727556Y535871D01*
X727539Y535815D01*
X727512Y535763D01*
X727501Y535695D01*
X727471Y535600D01*
X727468Y535500D01*
X727457Y535432D01*
X727457Y506527D01*
X715054Y494124D01*
X715002Y494054D01*
X714942Y493990D01*
X714916Y493941D01*
X714883Y493897D01*
X714852Y493815D01*
X714812Y493737D01*
X714804Y493690D01*
X714782Y493631D01*
X714770Y493484D01*
X714757Y493406D01*
X714757Y353568D01*
X714765Y353510D01*
X714763Y353452D01*
X714785Y353370D01*
X714797Y353286D01*
X714820Y353233D01*
X714835Y353177D01*
X714878Y353104D01*
X714913Y353027D01*
X714951Y352982D01*
X714980Y352932D01*
X715042Y352874D01*
X715096Y352810D01*
X715145Y352778D01*
X715188Y352738D01*
X715263Y352699D01*
X715333Y352652D01*
X715389Y352635D01*
X715441Y352608D01*
X715509Y352597D01*
X715604Y352567D01*
X715704Y352564D01*
X715772Y352553D01*
X719662Y352553D01*
X720853Y351362D01*
X720853Y334438D01*
X719662Y333247D01*
X702738Y333247D01*
X701547Y334438D01*
X701547Y351362D01*
X702738Y352553D01*
X706628Y352553D01*
X706686Y352561D01*
X706744Y352559D01*
X706826Y352581D01*
X706910Y352593D01*
X706963Y352616D01*
X707019Y352631D01*
X707092Y352674D01*
X707169Y352709D01*
X707214Y352747D01*
X707264Y352776D01*
X707322Y352838D01*
X707386Y352892D01*
X707418Y352941D01*
X707458Y352984D01*
X707497Y353059D01*
X707544Y353129D01*
X707561Y353185D01*
X707588Y353237D01*
X707599Y353305D01*
X707629Y353400D01*
X707632Y353500D01*
X707643Y353568D01*
X707643Y496773D01*
X720046Y509176D01*
X720098Y509246D01*
X720158Y509310D01*
X720184Y509359D01*
X720217Y509403D01*
X720248Y509485D01*
X720288Y509563D01*
X720296Y509610D01*
X720318Y509669D01*
X720330Y509816D01*
X720343Y509894D01*
X720343Y535432D01*
X720335Y535490D01*
X720337Y535548D01*
X720315Y535630D01*
X720303Y535714D01*
X720280Y535767D01*
X720265Y535823D01*
X720222Y535896D01*
X720187Y535973D01*
X720149Y536018D01*
X720120Y536068D01*
X720058Y536126D01*
X720004Y536190D01*
X719955Y536222D01*
X719912Y536262D01*
X719837Y536301D01*
X719767Y536348D01*
X719711Y536365D01*
X719659Y536392D01*
X719591Y536403D01*
X719496Y536433D01*
X719396Y536436D01*
X719328Y536447D01*
X703072Y536447D01*
X703014Y536439D01*
X702956Y536441D01*
X702874Y536419D01*
X702790Y536407D01*
X702737Y536384D01*
X702681Y536369D01*
X702608Y536326D01*
X702531Y536291D01*
X702486Y536253D01*
X702436Y536224D01*
X702378Y536162D01*
X702314Y536108D01*
X702282Y536059D01*
X702242Y536016D01*
X702203Y535941D01*
X702156Y535871D01*
X702139Y535815D01*
X702112Y535763D01*
X702101Y535695D01*
X702071Y535600D01*
X702068Y535500D01*
X702057Y535432D01*
X702057Y506527D01*
X699676Y504146D01*
X689654Y494124D01*
X689602Y494054D01*
X689542Y493990D01*
X689516Y493941D01*
X689483Y493897D01*
X689452Y493815D01*
X689412Y493737D01*
X689404Y493690D01*
X689382Y493631D01*
X689370Y493484D01*
X689357Y493406D01*
X689357Y353568D01*
X689365Y353510D01*
X689363Y353452D01*
X689385Y353370D01*
X689397Y353286D01*
X689420Y353233D01*
X689435Y353177D01*
X689478Y353104D01*
X689513Y353027D01*
X689551Y352982D01*
X689580Y352932D01*
X689642Y352874D01*
X689696Y352810D01*
X689745Y352778D01*
X689788Y352738D01*
X689863Y352699D01*
X689933Y352652D01*
X689989Y352635D01*
X690041Y352608D01*
X690109Y352597D01*
X690204Y352567D01*
X690304Y352564D01*
X690372Y352553D01*
X694262Y352553D01*
X695453Y351362D01*
X695453Y334438D01*
X694262Y333247D01*
X677338Y333247D01*
X676147Y334438D01*
X676147Y351362D01*
X677338Y352553D01*
X681228Y352553D01*
X681286Y352561D01*
X681344Y352559D01*
X681426Y352581D01*
X681510Y352593D01*
X681563Y352616D01*
X681619Y352631D01*
X681692Y352674D01*
X681769Y352709D01*
X681814Y352747D01*
X681864Y352776D01*
X681922Y352838D01*
X681986Y352892D01*
X682018Y352941D01*
X682058Y352984D01*
X682097Y353059D01*
X682144Y353129D01*
X682161Y353185D01*
X682188Y353237D01*
X682199Y353305D01*
X682229Y353400D01*
X682232Y353500D01*
X682243Y353568D01*
X682243Y496773D01*
X694646Y509176D01*
X694698Y509246D01*
X694758Y509310D01*
X694784Y509359D01*
X694817Y509403D01*
X694848Y509485D01*
X694888Y509563D01*
X694896Y509610D01*
X694918Y509669D01*
X694930Y509816D01*
X694943Y509894D01*
X694943Y535432D01*
X694935Y535490D01*
X694937Y535548D01*
X694915Y535630D01*
X694903Y535714D01*
X694880Y535767D01*
X694865Y535823D01*
X694822Y535896D01*
X694787Y535973D01*
X694749Y536018D01*
X694720Y536068D01*
X694658Y536126D01*
X694604Y536190D01*
X694555Y536222D01*
X694512Y536262D01*
X694437Y536301D01*
X694367Y536348D01*
X694311Y536365D01*
X694259Y536392D01*
X694191Y536403D01*
X694096Y536433D01*
X693996Y536436D01*
X693928Y536447D01*
X677338Y536447D01*
X676147Y537638D01*
X676147Y554562D01*
X677338Y555753D01*
X693928Y555753D01*
X693986Y555761D01*
X694044Y555759D01*
X694126Y555781D01*
X694210Y555793D01*
X694263Y555816D01*
X694319Y555831D01*
X694392Y555874D01*
X694469Y555909D01*
X694514Y555947D01*
X694564Y555976D01*
X694622Y556038D01*
X694686Y556092D01*
X694718Y556141D01*
X694758Y556184D01*
X694797Y556259D01*
X694844Y556329D01*
X694861Y556385D01*
X694888Y556437D01*
X694899Y556505D01*
X694929Y556600D01*
X694932Y556700D01*
X694943Y556768D01*
X694943Y725373D01*
X707346Y737776D01*
X707398Y737846D01*
X707458Y737910D01*
X707484Y737959D01*
X707517Y738003D01*
X707548Y738085D01*
X707588Y738163D01*
X707596Y738210D01*
X707618Y738269D01*
X707630Y738416D01*
X707643Y738494D01*
X707643Y763672D01*
X707643Y763674D01*
X707643Y763675D01*
X707623Y763815D01*
X707603Y763954D01*
X707603Y763955D01*
X707603Y763957D01*
X707546Y764083D01*
X707487Y764213D01*
X707486Y764214D01*
X707485Y764216D01*
X707394Y764323D01*
X707304Y764430D01*
X707302Y764431D01*
X707301Y764432D01*
X707288Y764440D01*
X707067Y764588D01*
X707038Y764597D01*
X707017Y764610D01*
X705013Y765440D01*
X701940Y768513D01*
X700277Y772527D01*
X700277Y776873D01*
X701940Y780887D01*
X702539Y781486D01*
X702591Y781555D01*
X702650Y781617D01*
X702676Y781668D01*
X702710Y781713D01*
X702741Y781794D01*
X702780Y781870D01*
X702791Y781926D01*
X702811Y781979D01*
X702818Y782065D01*
X702835Y782149D01*
X702830Y782206D01*
X702835Y782262D01*
X702818Y782347D01*
X702811Y782432D01*
X702790Y782485D01*
X702779Y782541D01*
X702739Y782618D01*
X702709Y782698D01*
X702674Y782743D01*
X702648Y782793D01*
X702589Y782856D01*
X702537Y782924D01*
X702491Y782958D01*
X702452Y783000D01*
X702378Y783043D01*
X702309Y783094D01*
X702256Y783115D01*
X702207Y783143D01*
X702124Y783164D01*
X702043Y783195D01*
X701986Y783199D01*
X701931Y783213D01*
X701846Y783211D01*
X701760Y783218D01*
X701712Y783206D01*
X701647Y783204D01*
X701509Y783160D01*
X701433Y783142D01*
X700673Y782827D01*
X696327Y782827D01*
X695567Y783142D01*
X695484Y783164D01*
X695404Y783194D01*
X695347Y783199D01*
X695292Y783213D01*
X695206Y783211D01*
X695120Y783218D01*
X695065Y783207D01*
X695008Y783205D01*
X694926Y783179D01*
X694842Y783162D01*
X694791Y783136D01*
X694737Y783118D01*
X694666Y783070D01*
X694589Y783031D01*
X694548Y782992D01*
X694501Y782960D01*
X694446Y782894D01*
X694383Y782835D01*
X694354Y782786D01*
X694318Y782742D01*
X694283Y782664D01*
X694240Y782590D01*
X694225Y782535D01*
X694202Y782483D01*
X694191Y782397D01*
X694169Y782314D01*
X694171Y782257D01*
X694163Y782201D01*
X694176Y782116D01*
X694178Y782030D01*
X694196Y781976D01*
X694204Y781920D01*
X694239Y781841D01*
X694266Y781760D01*
X694295Y781719D01*
X694321Y781661D01*
X694415Y781550D01*
X694461Y781486D01*
X695060Y780887D01*
X696723Y776873D01*
X696723Y772527D01*
X695060Y768513D01*
X691987Y765440D01*
X687973Y763777D01*
X683627Y763777D01*
X679613Y765440D01*
X676540Y768513D01*
X674877Y772527D01*
X674877Y776873D01*
X676540Y780887D01*
X677139Y781486D01*
X677191Y781555D01*
X677250Y781617D01*
X677276Y781668D01*
X677310Y781713D01*
X677341Y781794D01*
X677380Y781870D01*
X677391Y781926D01*
X677411Y781979D01*
X677418Y782065D01*
X677435Y782149D01*
X677430Y782206D01*
X677435Y782262D01*
X677418Y782347D01*
X677411Y782432D01*
X677390Y782485D01*
X677379Y782541D01*
X677339Y782618D01*
X677309Y782698D01*
X677274Y782743D01*
X677248Y782793D01*
X677189Y782856D01*
X677137Y782924D01*
X677091Y782958D01*
X677052Y783000D01*
X676978Y783043D01*
X676909Y783094D01*
X676856Y783115D01*
X676807Y783143D01*
X676724Y783164D01*
X676643Y783195D01*
X676586Y783199D01*
X676531Y783213D01*
X676446Y783211D01*
X676360Y783218D01*
X676312Y783206D01*
X676247Y783204D01*
X676109Y783160D01*
X676033Y783142D01*
X675273Y782827D01*
X670927Y782827D01*
X670167Y783142D01*
X670084Y783164D01*
X670004Y783194D01*
X669947Y783199D01*
X669892Y783213D01*
X669806Y783211D01*
X669720Y783218D01*
X669665Y783207D01*
X669608Y783205D01*
X669526Y783179D01*
X669442Y783162D01*
X669391Y783136D01*
X669337Y783118D01*
X669266Y783070D01*
X669189Y783031D01*
X669148Y782992D01*
X669101Y782960D01*
X669046Y782894D01*
X668983Y782835D01*
X668954Y782786D01*
X668918Y782742D01*
X668883Y782664D01*
X668840Y782590D01*
X668825Y782535D01*
X668802Y782483D01*
X668791Y782397D01*
X668769Y782314D01*
X668771Y782257D01*
X668763Y782201D01*
X668776Y782116D01*
X668778Y782030D01*
X668796Y781976D01*
X668804Y781920D01*
X668839Y781841D01*
X668866Y781760D01*
X668895Y781719D01*
X668921Y781661D01*
X669015Y781550D01*
X669061Y781486D01*
X669660Y780887D01*
X671323Y776873D01*
X671323Y772527D01*
X669660Y768513D01*
X666587Y765440D01*
X662573Y763777D01*
X658227Y763777D01*
X654213Y765440D01*
X652990Y766663D01*
X652966Y766681D01*
X652947Y766703D01*
X652853Y766766D01*
X652763Y766834D01*
X652735Y766844D01*
X652711Y766861D01*
X652603Y766895D01*
X652497Y766935D01*
X652468Y766938D01*
X652440Y766946D01*
X652326Y766949D01*
X652214Y766959D01*
X652185Y766953D01*
X652156Y766954D01*
X652046Y766925D01*
X651935Y766903D01*
X651909Y766889D01*
X651881Y766882D01*
X651783Y766824D01*
X651683Y766772D01*
X651661Y766752D01*
X651636Y766737D01*
X651559Y766654D01*
X651477Y766576D01*
X651462Y766551D01*
X651442Y766529D01*
X651390Y766429D01*
X651333Y766331D01*
X651326Y766302D01*
X651312Y766276D01*
X651299Y766199D01*
X651263Y766055D01*
X651265Y765993D01*
X651257Y765945D01*
X651257Y556768D01*
X651265Y556710D01*
X651263Y556652D01*
X651285Y556570D01*
X651297Y556486D01*
X651320Y556433D01*
X651335Y556377D01*
X651378Y556304D01*
X651413Y556227D01*
X651451Y556182D01*
X651480Y556132D01*
X651542Y556074D01*
X651596Y556010D01*
X651645Y555978D01*
X651688Y555938D01*
X651763Y555899D01*
X651833Y555852D01*
X651889Y555835D01*
X651941Y555808D01*
X652009Y555797D01*
X652104Y555767D01*
X652204Y555764D01*
X652272Y555753D01*
X668862Y555753D01*
X670053Y554562D01*
X670053Y537638D01*
X668862Y536447D01*
X652272Y536447D01*
X652214Y536439D01*
X652156Y536441D01*
X652074Y536419D01*
X651990Y536407D01*
X651937Y536384D01*
X651881Y536369D01*
X651808Y536326D01*
X651731Y536291D01*
X651686Y536253D01*
X651636Y536224D01*
X651578Y536162D01*
X651514Y536108D01*
X651482Y536059D01*
X651442Y536016D01*
X651403Y535941D01*
X651356Y535871D01*
X651339Y535815D01*
X651312Y535763D01*
X651301Y535695D01*
X651271Y535600D01*
X651268Y535500D01*
X651257Y535432D01*
X651257Y481127D01*
X636473Y466343D01*
X547994Y466343D01*
X547907Y466331D01*
X547820Y466328D01*
X547767Y466311D01*
X547712Y466303D01*
X547632Y466268D01*
X547549Y466241D01*
X547510Y466213D01*
X547453Y466187D01*
X547340Y466091D01*
X547276Y466046D01*
X537254Y456024D01*
X537202Y455954D01*
X537142Y455890D01*
X537116Y455841D01*
X537083Y455797D01*
X537052Y455715D01*
X537012Y455637D01*
X537004Y455590D01*
X536982Y455531D01*
X536970Y455384D01*
X536957Y455306D01*
X536957Y408294D01*
X536969Y408207D01*
X536972Y408120D01*
X536989Y408067D01*
X536997Y408012D01*
X537032Y407932D01*
X537059Y407849D01*
X537087Y407810D01*
X537113Y407753D01*
X537209Y407640D01*
X537254Y407576D01*
X547276Y397554D01*
X547346Y397502D01*
X547410Y397442D01*
X547459Y397416D01*
X547503Y397383D01*
X547585Y397352D01*
X547663Y397312D01*
X547710Y397304D01*
X547769Y397282D01*
X547916Y397270D01*
X547994Y397257D01*
X598373Y397257D01*
X613157Y382473D01*
X613157Y353568D01*
X613165Y353510D01*
X613163Y353452D01*
X613185Y353370D01*
X613197Y353286D01*
X613220Y353233D01*
X613235Y353177D01*
X613278Y353104D01*
X613313Y353027D01*
X613351Y352982D01*
X613380Y352932D01*
X613442Y352874D01*
X613496Y352810D01*
X613545Y352778D01*
X613588Y352738D01*
X613663Y352699D01*
X613733Y352652D01*
X613789Y352635D01*
X613841Y352608D01*
X613909Y352597D01*
X614004Y352567D01*
X614104Y352564D01*
X614172Y352553D01*
X618062Y352553D01*
X619253Y351362D01*
X619253Y334438D01*
X618062Y333247D01*
X601138Y333247D01*
X599947Y334438D01*
X599947Y351362D01*
X601138Y352553D01*
X605028Y352553D01*
X605086Y352561D01*
X605144Y352559D01*
X605226Y352581D01*
X605310Y352593D01*
X605363Y352616D01*
X605419Y352631D01*
X605492Y352674D01*
X605569Y352709D01*
X605614Y352747D01*
X605664Y352776D01*
X605722Y352838D01*
X605786Y352892D01*
X605818Y352941D01*
X605858Y352984D01*
X605897Y353059D01*
X605944Y353129D01*
X605961Y353185D01*
X605988Y353237D01*
X605999Y353305D01*
X606029Y353400D01*
X606032Y353500D01*
X606043Y353568D01*
X606043Y379106D01*
X606031Y379193D01*
X606028Y379280D01*
X606011Y379333D01*
X606003Y379388D01*
X605968Y379468D01*
X605941Y379551D01*
X605913Y379590D01*
X605887Y379647D01*
X605791Y379760D01*
X605746Y379824D01*
X595724Y389846D01*
X595654Y389898D01*
X595590Y389958D01*
X595541Y389984D01*
X595497Y390017D01*
X595415Y390048D01*
X595337Y390088D01*
X595290Y390096D01*
X595231Y390118D01*
X595084Y390130D01*
X595006Y390143D01*
X544627Y390143D01*
X529843Y404927D01*
X529843Y458673D01*
X544627Y473457D01*
X633106Y473457D01*
X633193Y473469D01*
X633280Y473472D01*
X633333Y473489D01*
X633388Y473497D01*
X633468Y473532D01*
X633551Y473559D01*
X633590Y473587D01*
X633647Y473613D01*
X633760Y473709D01*
X633824Y473754D01*
X643846Y483776D01*
X643898Y483846D01*
X643958Y483910D01*
X643984Y483959D01*
X644017Y484003D01*
X644048Y484085D01*
X644088Y484163D01*
X644096Y484210D01*
X644118Y484269D01*
X644130Y484416D01*
X644143Y484494D01*
X644143Y535432D01*
X644135Y535490D01*
X644137Y535548D01*
X644115Y535630D01*
X644103Y535714D01*
X644080Y535767D01*
X644065Y535823D01*
X644022Y535896D01*
X643987Y535973D01*
X643949Y536018D01*
X643920Y536068D01*
X643858Y536126D01*
X643804Y536190D01*
X643755Y536222D01*
X643712Y536262D01*
X643637Y536301D01*
X643567Y536348D01*
X643511Y536365D01*
X643459Y536392D01*
X643391Y536403D01*
X643296Y536433D01*
X643196Y536436D01*
X643128Y536447D01*
X626538Y536447D01*
X625347Y537638D01*
X625347Y554562D01*
X626538Y555753D01*
X643128Y555753D01*
X643186Y555761D01*
X643244Y555759D01*
X643326Y555781D01*
X643410Y555793D01*
X643463Y555816D01*
X643519Y555831D01*
X643592Y555874D01*
X643669Y555909D01*
X643714Y555947D01*
X643764Y555976D01*
X643822Y556038D01*
X643886Y556092D01*
X643918Y556141D01*
X643958Y556184D01*
X643997Y556259D01*
X644044Y556329D01*
X644061Y556385D01*
X644088Y556437D01*
X644099Y556505D01*
X644129Y556600D01*
X644132Y556700D01*
X644143Y556768D01*
X644143Y765945D01*
X644139Y765974D01*
X644142Y766003D01*
X644119Y766115D01*
X644103Y766227D01*
X644091Y766253D01*
X644086Y766282D01*
X644033Y766383D01*
X643987Y766486D01*
X643968Y766508D01*
X643955Y766535D01*
X643877Y766617D01*
X643804Y766703D01*
X643779Y766719D01*
X643759Y766741D01*
X643661Y766798D01*
X643567Y766861D01*
X643539Y766870D01*
X643514Y766884D01*
X643404Y766912D01*
X643296Y766946D01*
X643266Y766947D01*
X643238Y766954D01*
X643125Y766951D01*
X643012Y766954D01*
X642983Y766946D01*
X642954Y766945D01*
X642846Y766910D01*
X642737Y766882D01*
X642711Y766867D01*
X642683Y766858D01*
X642619Y766812D01*
X642492Y766737D01*
X642449Y766691D01*
X642410Y766663D01*
X641187Y765440D01*
X639183Y764610D01*
X639182Y764609D01*
X639181Y764609D01*
X639060Y764537D01*
X638939Y764466D01*
X638938Y764465D01*
X638936Y764464D01*
X638839Y764360D01*
X638743Y764259D01*
X638743Y764258D01*
X638742Y764256D01*
X638677Y764131D01*
X638613Y764006D01*
X638613Y764005D01*
X638612Y764003D01*
X638610Y763988D01*
X638558Y763727D01*
X638561Y763697D01*
X638557Y763672D01*
X638557Y620827D01*
X628313Y610583D01*
X628261Y610513D01*
X628201Y610449D01*
X628175Y610400D01*
X628142Y610356D01*
X628111Y610274D01*
X628071Y610196D01*
X628063Y610149D01*
X628041Y610090D01*
X628029Y609943D01*
X628016Y609865D01*
X628016Y608463D01*
X627146Y606362D01*
X625538Y604754D01*
X623437Y603884D01*
X621163Y603884D01*
X619062Y604754D01*
X617454Y606362D01*
X616584Y608463D01*
X616584Y610737D01*
X617454Y612838D01*
X619062Y614446D01*
X621163Y615316D01*
X622565Y615316D01*
X622652Y615328D01*
X622739Y615331D01*
X622792Y615348D01*
X622847Y615356D01*
X622927Y615391D01*
X623010Y615418D01*
X623049Y615446D01*
X623106Y615472D01*
X623219Y615568D01*
X623283Y615613D01*
X631146Y623476D01*
X631157Y623491D01*
X631167Y623499D01*
X631194Y623540D01*
X631198Y623546D01*
X631258Y623610D01*
X631284Y623659D01*
X631317Y623703D01*
X631348Y623785D01*
X631388Y623863D01*
X631396Y623910D01*
X631418Y623969D01*
X631430Y624116D01*
X631443Y624194D01*
X631443Y763672D01*
X631443Y763674D01*
X631443Y763675D01*
X631423Y763815D01*
X631403Y763954D01*
X631403Y763955D01*
X631403Y763957D01*
X631346Y764083D01*
X631287Y764213D01*
X631286Y764214D01*
X631285Y764216D01*
X631194Y764323D01*
X631104Y764430D01*
X631102Y764431D01*
X631101Y764432D01*
X631088Y764440D01*
X630867Y764588D01*
X630838Y764597D01*
X630817Y764610D01*
X628813Y765440D01*
X627590Y766663D01*
X627566Y766681D01*
X627547Y766703D01*
X627453Y766766D01*
X627363Y766834D01*
X627335Y766844D01*
X627311Y766861D01*
X627203Y766895D01*
X627097Y766935D01*
X627068Y766938D01*
X627040Y766946D01*
X626926Y766949D01*
X626814Y766959D01*
X626785Y766953D01*
X626756Y766954D01*
X626646Y766925D01*
X626535Y766903D01*
X626509Y766889D01*
X626481Y766882D01*
X626383Y766824D01*
X626283Y766772D01*
X626261Y766752D01*
X626236Y766737D01*
X626159Y766654D01*
X626077Y766576D01*
X626062Y766551D01*
X626042Y766529D01*
X625990Y766429D01*
X625933Y766331D01*
X625926Y766302D01*
X625912Y766276D01*
X625899Y766199D01*
X625863Y766055D01*
X625865Y765993D01*
X625857Y765945D01*
X625857Y722427D01*
X613454Y710024D01*
X613402Y709954D01*
X613342Y709890D01*
X613316Y709841D01*
X613283Y709797D01*
X613252Y709715D01*
X613212Y709637D01*
X613204Y709590D01*
X613182Y709531D01*
X613170Y709384D01*
X613157Y709306D01*
X613157Y556768D01*
X613165Y556710D01*
X613163Y556652D01*
X613185Y556570D01*
X613197Y556486D01*
X613220Y556433D01*
X613235Y556377D01*
X613278Y556304D01*
X613313Y556227D01*
X613351Y556182D01*
X613380Y556132D01*
X613442Y556074D01*
X613496Y556010D01*
X613545Y555978D01*
X613588Y555938D01*
X613663Y555899D01*
X613733Y555852D01*
X613789Y555835D01*
X613841Y555808D01*
X613909Y555797D01*
X614004Y555767D01*
X614104Y555764D01*
X614172Y555753D01*
X618062Y555753D01*
X619253Y554562D01*
X619253Y537638D01*
X618062Y536447D01*
X601138Y536447D01*
X599947Y537638D01*
X599947Y554562D01*
X601138Y555753D01*
X605028Y555753D01*
X605086Y555761D01*
X605144Y555759D01*
X605226Y555781D01*
X605310Y555793D01*
X605363Y555816D01*
X605419Y555831D01*
X605492Y555874D01*
X605569Y555909D01*
X605614Y555947D01*
X605664Y555976D01*
X605722Y556038D01*
X605786Y556092D01*
X605818Y556141D01*
X605858Y556184D01*
X605897Y556259D01*
X605944Y556329D01*
X605961Y556385D01*
X605988Y556437D01*
X605999Y556505D01*
X606029Y556600D01*
X606032Y556700D01*
X606043Y556768D01*
X606043Y712673D01*
X618446Y725076D01*
X618498Y725146D01*
X618558Y725210D01*
X618584Y725259D01*
X618617Y725303D01*
X618648Y725385D01*
X618688Y725463D01*
X618696Y725510D01*
X618718Y725569D01*
X618730Y725716D01*
X618743Y725794D01*
X618743Y765945D01*
X618739Y765974D01*
X618742Y766003D01*
X618719Y766115D01*
X618703Y766227D01*
X618691Y766253D01*
X618686Y766282D01*
X618633Y766383D01*
X618587Y766486D01*
X618568Y766508D01*
X618555Y766535D01*
X618477Y766617D01*
X618404Y766703D01*
X618379Y766719D01*
X618359Y766741D01*
X618261Y766798D01*
X618167Y766861D01*
X618139Y766870D01*
X618114Y766884D01*
X618004Y766912D01*
X617896Y766946D01*
X617866Y766947D01*
X617838Y766954D01*
X617725Y766951D01*
X617612Y766954D01*
X617583Y766946D01*
X617554Y766945D01*
X617446Y766910D01*
X617337Y766882D01*
X617311Y766867D01*
X617283Y766858D01*
X617219Y766812D01*
X617092Y766737D01*
X617049Y766691D01*
X617010Y766663D01*
X615787Y765440D01*
X611773Y763777D01*
X607427Y763777D01*
X603413Y765440D01*
X602190Y766663D01*
X602166Y766681D01*
X602147Y766703D01*
X602053Y766766D01*
X601963Y766834D01*
X601935Y766844D01*
X601911Y766861D01*
X601803Y766895D01*
X601697Y766935D01*
X601668Y766938D01*
X601640Y766946D01*
X601526Y766949D01*
X601414Y766959D01*
X601385Y766953D01*
X601356Y766954D01*
X601246Y766925D01*
X601135Y766903D01*
X601109Y766889D01*
X601081Y766882D01*
X600983Y766824D01*
X600883Y766772D01*
X600861Y766752D01*
X600836Y766737D01*
X600759Y766654D01*
X600677Y766576D01*
X600662Y766551D01*
X600642Y766529D01*
X600590Y766429D01*
X600533Y766331D01*
X600526Y766302D01*
X600512Y766276D01*
X600499Y766199D01*
X600463Y766055D01*
X600465Y765993D01*
X600457Y765945D01*
X600457Y747827D01*
X560273Y707643D01*
X557312Y707643D01*
X557300Y707652D01*
X557236Y707712D01*
X557187Y707738D01*
X557143Y707771D01*
X557061Y707802D01*
X556983Y707842D01*
X556936Y707850D01*
X556877Y707872D01*
X556730Y707884D01*
X556652Y707897D01*
X357389Y707897D01*
X357302Y707885D01*
X357215Y707882D01*
X357162Y707865D01*
X357107Y707857D01*
X357027Y707822D01*
X356944Y707795D01*
X356905Y707767D01*
X356848Y707741D01*
X356734Y707645D01*
X356671Y707600D01*
X346500Y697429D01*
X346448Y697360D01*
X346388Y697296D01*
X346362Y697246D01*
X346329Y697202D01*
X346298Y697120D01*
X346258Y697042D01*
X346250Y696995D01*
X346228Y696936D01*
X346216Y696789D01*
X346203Y696711D01*
X346203Y691001D01*
X346215Y690914D01*
X346218Y690827D01*
X346235Y690774D01*
X346243Y690720D01*
X346278Y690640D01*
X346305Y690557D01*
X346333Y690517D01*
X346359Y690460D01*
X346455Y690347D01*
X346500Y690283D01*
X347746Y689038D01*
X348616Y686937D01*
X348616Y684663D01*
X347746Y682562D01*
X346138Y680954D01*
X344037Y680084D01*
X341763Y680084D01*
X339662Y680954D01*
X338054Y682562D01*
X337184Y684663D01*
X337184Y686937D01*
X338054Y689038D01*
X339300Y690283D01*
X339352Y690353D01*
X339412Y690417D01*
X339438Y690466D01*
X339471Y690510D01*
X339502Y690592D01*
X339542Y690670D01*
X339550Y690718D01*
X339572Y690776D01*
X339584Y690924D01*
X339597Y691001D01*
X339597Y699868D01*
X354232Y714503D01*
X556652Y714503D01*
X556739Y714515D01*
X556826Y714518D01*
X556879Y714535D01*
X556934Y714543D01*
X557014Y714578D01*
X557097Y714605D01*
X557136Y714633D01*
X557193Y714659D01*
X557306Y714755D01*
X557370Y714800D01*
X593046Y750476D01*
X593098Y750546D01*
X593158Y750610D01*
X593184Y750659D01*
X593217Y750703D01*
X593248Y750785D01*
X593288Y750863D01*
X593296Y750910D01*
X593318Y750969D01*
X593330Y751116D01*
X593343Y751194D01*
X593343Y765945D01*
X593339Y765974D01*
X593342Y766003D01*
X593319Y766115D01*
X593303Y766227D01*
X593291Y766253D01*
X593286Y766282D01*
X593233Y766383D01*
X593187Y766486D01*
X593168Y766508D01*
X593155Y766535D01*
X593077Y766617D01*
X593004Y766703D01*
X592979Y766719D01*
X592959Y766741D01*
X592861Y766798D01*
X592767Y766861D01*
X592739Y766870D01*
X592714Y766884D01*
X592604Y766912D01*
X592496Y766946D01*
X592466Y766947D01*
X592438Y766954D01*
X592325Y766951D01*
X592212Y766954D01*
X592183Y766946D01*
X592154Y766945D01*
X592046Y766910D01*
X591937Y766882D01*
X591911Y766867D01*
X591883Y766858D01*
X591819Y766812D01*
X591692Y766737D01*
X591649Y766691D01*
X591610Y766663D01*
X590387Y765440D01*
X586373Y763777D01*
X582027Y763777D01*
X578013Y765440D01*
X576790Y766663D01*
X576766Y766681D01*
X576747Y766703D01*
X576653Y766766D01*
X576563Y766834D01*
X576535Y766844D01*
X576511Y766861D01*
X576403Y766895D01*
X576297Y766935D01*
X576268Y766938D01*
X576240Y766946D01*
X576126Y766949D01*
X576014Y766959D01*
X575985Y766953D01*
X575956Y766954D01*
X575846Y766925D01*
X575735Y766903D01*
X575709Y766889D01*
X575681Y766882D01*
X575583Y766824D01*
X575483Y766772D01*
X575461Y766752D01*
X575436Y766737D01*
X575359Y766654D01*
X575277Y766576D01*
X575262Y766551D01*
X575242Y766529D01*
X575190Y766429D01*
X575133Y766331D01*
X575126Y766302D01*
X575112Y766276D01*
X575099Y766199D01*
X575063Y766055D01*
X575065Y765993D01*
X575057Y765945D01*
X575057Y750367D01*
X550113Y725423D01*
X543427Y725423D01*
X543340Y725411D01*
X543253Y725408D01*
X543200Y725391D01*
X543146Y725383D01*
X543066Y725348D01*
X542983Y725321D01*
X542943Y725293D01*
X542886Y725267D01*
X542773Y725171D01*
X542709Y725126D01*
X541718Y724134D01*
X539617Y723264D01*
X537343Y723264D01*
X535242Y724134D01*
X533634Y725742D01*
X532764Y727843D01*
X532764Y730117D01*
X533634Y732218D01*
X535242Y733826D01*
X537343Y734696D01*
X539617Y734696D01*
X541718Y733826D01*
X542709Y732834D01*
X542779Y732782D01*
X542843Y732722D01*
X542892Y732696D01*
X542936Y732663D01*
X543018Y732632D01*
X543096Y732592D01*
X543144Y732584D01*
X543202Y732562D01*
X543350Y732550D01*
X543427Y732537D01*
X546746Y732537D01*
X546833Y732549D01*
X546920Y732552D01*
X546973Y732569D01*
X547028Y732577D01*
X547108Y732612D01*
X547191Y732639D01*
X547230Y732667D01*
X547287Y732693D01*
X547400Y732789D01*
X547464Y732834D01*
X567646Y753016D01*
X567698Y753086D01*
X567758Y753150D01*
X567784Y753199D01*
X567817Y753243D01*
X567848Y753325D01*
X567888Y753403D01*
X567896Y753450D01*
X567918Y753509D01*
X567930Y753656D01*
X567943Y753734D01*
X567943Y765945D01*
X567939Y765974D01*
X567942Y766003D01*
X567919Y766115D01*
X567903Y766227D01*
X567891Y766253D01*
X567886Y766282D01*
X567833Y766383D01*
X567787Y766486D01*
X567768Y766508D01*
X567755Y766535D01*
X567677Y766617D01*
X567604Y766703D01*
X567579Y766719D01*
X567559Y766741D01*
X567461Y766798D01*
X567367Y766861D01*
X567339Y766870D01*
X567314Y766884D01*
X567204Y766912D01*
X567096Y766946D01*
X567066Y766947D01*
X567038Y766954D01*
X566925Y766951D01*
X566812Y766954D01*
X566783Y766946D01*
X566754Y766945D01*
X566646Y766910D01*
X566537Y766882D01*
X566511Y766867D01*
X566483Y766858D01*
X566419Y766812D01*
X566292Y766737D01*
X566249Y766691D01*
X566210Y766663D01*
X564987Y765440D01*
X560973Y763777D01*
X556627Y763777D01*
X552613Y765440D01*
X551390Y766663D01*
X551366Y766681D01*
X551347Y766703D01*
X551253Y766766D01*
X551163Y766834D01*
X551135Y766844D01*
X551111Y766861D01*
X551003Y766895D01*
X550897Y766935D01*
X550868Y766938D01*
X550840Y766946D01*
X550726Y766949D01*
X550614Y766959D01*
X550585Y766953D01*
X550556Y766954D01*
X550446Y766925D01*
X550335Y766903D01*
X550309Y766889D01*
X550281Y766882D01*
X550183Y766824D01*
X550083Y766772D01*
X550061Y766752D01*
X550036Y766737D01*
X549959Y766654D01*
X549877Y766576D01*
X549862Y766551D01*
X549842Y766529D01*
X549790Y766429D01*
X549733Y766331D01*
X549726Y766302D01*
X549712Y766276D01*
X549699Y766199D01*
X549663Y766055D01*
X549665Y765993D01*
X549657Y765945D01*
X549657Y755447D01*
X514553Y720343D01*
X511592Y720343D01*
X511580Y720352D01*
X511516Y720412D01*
X511467Y720438D01*
X511423Y720471D01*
X511341Y720502D01*
X511263Y720542D01*
X511216Y720550D01*
X511157Y720572D01*
X511010Y720584D01*
X510932Y720597D01*
X293889Y720597D01*
X293802Y720585D01*
X293715Y720582D01*
X293662Y720565D01*
X293607Y720557D01*
X293527Y720522D01*
X293444Y720495D01*
X293405Y720467D01*
X293348Y720441D01*
X293234Y720345D01*
X293171Y720300D01*
X283000Y710129D01*
X282948Y710060D01*
X282888Y709996D01*
X282862Y709946D01*
X282829Y709902D01*
X282798Y709820D01*
X282758Y709742D01*
X282750Y709695D01*
X282728Y709636D01*
X282716Y709489D01*
X282703Y709411D01*
X282703Y281189D01*
X282715Y281102D01*
X282718Y281015D01*
X282735Y280962D01*
X282743Y280907D01*
X282778Y280827D01*
X282805Y280744D01*
X282833Y280705D01*
X282859Y280648D01*
X282955Y280534D01*
X283000Y280471D01*
X293171Y270300D01*
X293240Y270248D01*
X293304Y270188D01*
X293354Y270162D01*
X293398Y270129D01*
X293480Y270098D01*
X293558Y270058D01*
X293605Y270050D01*
X293664Y270028D01*
X293811Y270016D01*
X293889Y270003D01*
X522068Y270003D01*
X536703Y255368D01*
X536703Y164083D01*
X536703Y164081D01*
X536703Y164080D01*
X536723Y163940D01*
X536743Y163801D01*
X536743Y163800D01*
X536743Y163798D01*
X536800Y163672D01*
X536859Y163542D01*
X536860Y163541D01*
X536861Y163539D01*
X536952Y163432D01*
X537042Y163325D01*
X537044Y163324D01*
X537045Y163323D01*
X537058Y163315D01*
X537279Y163167D01*
X537308Y163158D01*
X537329Y163145D01*
X539875Y162091D01*
X543090Y158875D01*
X544831Y154674D01*
X544831Y150126D01*
X543090Y145925D01*
X539875Y142710D01*
X535674Y140969D01*
X531126Y140969D01*
X526925Y142710D01*
X523710Y145925D01*
X521969Y150126D01*
X521969Y154674D01*
X523710Y158875D01*
X526925Y162091D01*
X529471Y163145D01*
X529472Y163146D01*
X529473Y163146D01*
X529594Y163218D01*
X529715Y163289D01*
X529716Y163291D01*
X529718Y163291D01*
X529815Y163395D01*
X529911Y163496D01*
X529911Y163497D01*
X529912Y163499D01*
X529977Y163624D01*
X530041Y163749D01*
X530041Y163750D01*
X530042Y163752D01*
X530044Y163767D01*
X530096Y164028D01*
X530093Y164058D01*
X530097Y164083D01*
X530097Y252211D01*
X530085Y252298D01*
X530082Y252385D01*
X530065Y252438D01*
X530057Y252493D01*
X530022Y252573D01*
X529995Y252656D01*
X529967Y252695D01*
X529941Y252752D01*
X529845Y252866D01*
X529800Y252929D01*
X519629Y263100D01*
X519560Y263152D01*
X519496Y263212D01*
X519446Y263238D01*
X519402Y263271D01*
X519320Y263302D01*
X519242Y263342D01*
X519195Y263350D01*
X519136Y263372D01*
X518989Y263384D01*
X518911Y263397D01*
X290732Y263397D01*
X276097Y278032D01*
X276097Y712568D01*
X290732Y727203D01*
X510932Y727203D01*
X511019Y727215D01*
X511106Y727218D01*
X511159Y727235D01*
X511214Y727243D01*
X511294Y727278D01*
X511377Y727305D01*
X511416Y727333D01*
X511473Y727359D01*
X511586Y727455D01*
X511650Y727500D01*
X542246Y758096D01*
X542298Y758166D01*
X542358Y758230D01*
X542384Y758279D01*
X542417Y758323D01*
X542448Y758405D01*
X542488Y758483D01*
X542496Y758530D01*
X542518Y758589D01*
X542530Y758736D01*
X542543Y758814D01*
X542543Y765945D01*
X542539Y765974D01*
X542542Y766003D01*
X542519Y766115D01*
X542503Y766227D01*
X542491Y766253D01*
X542486Y766282D01*
X542433Y766383D01*
X542387Y766486D01*
X542368Y766508D01*
X542355Y766535D01*
X542277Y766617D01*
X542204Y766703D01*
X542179Y766719D01*
X542159Y766741D01*
X542061Y766798D01*
X541967Y766861D01*
X541939Y766870D01*
X541914Y766884D01*
X541804Y766912D01*
X541696Y766946D01*
X541666Y766947D01*
X541638Y766954D01*
X541525Y766951D01*
X541412Y766954D01*
X541383Y766946D01*
X541354Y766945D01*
X541246Y766910D01*
X541137Y766882D01*
X541111Y766867D01*
X541083Y766858D01*
X541019Y766812D01*
X540892Y766737D01*
X540849Y766691D01*
X540810Y766663D01*
X539587Y765440D01*
X537583Y764610D01*
X537582Y764609D01*
X537581Y764609D01*
X537460Y764537D01*
X537339Y764466D01*
X537338Y764465D01*
X537336Y764464D01*
X537239Y764360D01*
X537143Y764259D01*
X537143Y764258D01*
X537142Y764256D01*
X537077Y764131D01*
X537013Y764006D01*
X537013Y764005D01*
X537012Y764003D01*
X537010Y763988D01*
X536958Y763727D01*
X536961Y763697D01*
X536957Y763672D01*
X536957Y760527D01*
X509473Y733043D01*
X506512Y733043D01*
X506500Y733052D01*
X506436Y733112D01*
X506387Y733138D01*
X506343Y733171D01*
X506261Y733202D01*
X506183Y733242D01*
X506136Y733250D01*
X506077Y733272D01*
X505930Y733284D01*
X505852Y733297D01*
X281189Y733297D01*
X281102Y733285D01*
X281015Y733282D01*
X280962Y733265D01*
X280907Y733257D01*
X280827Y733222D01*
X280744Y733195D01*
X280705Y733167D01*
X280648Y733141D01*
X280534Y733045D01*
X280471Y733000D01*
X270300Y722829D01*
X270248Y722760D01*
X270188Y722696D01*
X270162Y722646D01*
X270129Y722602D01*
X270098Y722520D01*
X270058Y722442D01*
X270050Y722395D01*
X270028Y722336D01*
X270016Y722189D01*
X270003Y722111D01*
X270003Y255789D01*
X270015Y255702D01*
X270018Y255615D01*
X270035Y255562D01*
X270043Y255507D01*
X270078Y255427D01*
X270105Y255344D01*
X270133Y255305D01*
X270159Y255248D01*
X270255Y255134D01*
X270300Y255071D01*
X280471Y244900D01*
X280540Y244848D01*
X280604Y244788D01*
X280654Y244762D01*
X280698Y244729D01*
X280780Y244698D01*
X280858Y244658D01*
X280905Y244650D01*
X280964Y244628D01*
X281111Y244616D01*
X281189Y244603D01*
X395068Y244603D01*
X409703Y229968D01*
X409703Y164083D01*
X409703Y164081D01*
X409703Y164080D01*
X409723Y163940D01*
X409743Y163801D01*
X409743Y163800D01*
X409743Y163798D01*
X409800Y163672D01*
X409859Y163542D01*
X409860Y163541D01*
X409861Y163539D01*
X409952Y163432D01*
X410042Y163325D01*
X410044Y163324D01*
X410045Y163323D01*
X410058Y163315D01*
X410279Y163167D01*
X410308Y163158D01*
X410329Y163145D01*
X412875Y162091D01*
X416090Y158875D01*
X417831Y154674D01*
X417831Y150126D01*
X416090Y145925D01*
X412875Y142710D01*
X408674Y140969D01*
X404126Y140969D01*
X399925Y142710D01*
X396710Y145925D01*
X394969Y150126D01*
X394969Y154674D01*
X396710Y158875D01*
X399925Y162091D01*
X402471Y163145D01*
X402472Y163146D01*
X402473Y163146D01*
X402594Y163218D01*
X402715Y163289D01*
X402716Y163291D01*
X402718Y163291D01*
X402815Y163395D01*
X402911Y163496D01*
X402911Y163497D01*
X402912Y163499D01*
X402977Y163624D01*
X403041Y163749D01*
X403041Y163750D01*
X403042Y163752D01*
X403044Y163767D01*
X403096Y164028D01*
X403093Y164058D01*
X403097Y164083D01*
X403097Y226811D01*
X403085Y226898D01*
X403082Y226985D01*
X403065Y227038D01*
X403057Y227093D01*
X403022Y227173D01*
X402995Y227256D01*
X402967Y227295D01*
X402941Y227352D01*
X402845Y227466D01*
X402800Y227529D01*
X392629Y237700D01*
X392560Y237752D01*
X392496Y237812D01*
X392446Y237838D01*
X392402Y237871D01*
X392320Y237902D01*
X392242Y237942D01*
X392195Y237950D01*
X392136Y237972D01*
X391989Y237984D01*
X391911Y237997D01*
X278032Y237997D01*
X263397Y252632D01*
X263397Y725268D01*
X278032Y739903D01*
X505852Y739903D01*
X505939Y739915D01*
X506026Y739918D01*
X506079Y739935D01*
X506134Y739943D01*
X506214Y739978D01*
X506297Y740005D01*
X506336Y740033D01*
X506393Y740059D01*
X506506Y740155D01*
X506570Y740200D01*
X508719Y742349D01*
X508771Y742418D01*
X508830Y742480D01*
X508856Y742531D01*
X508890Y742576D01*
X508921Y742657D01*
X508960Y742733D01*
X508971Y742789D01*
X508991Y742842D01*
X508998Y742928D01*
X509015Y743012D01*
X509010Y743069D01*
X509015Y743125D01*
X508998Y743210D01*
X508991Y743295D01*
X508970Y743348D01*
X508959Y743404D01*
X508919Y743480D01*
X508889Y743561D01*
X508854Y743606D01*
X508828Y743656D01*
X508769Y743719D01*
X508717Y743787D01*
X508671Y743821D01*
X508632Y743863D01*
X508558Y743906D01*
X508489Y743957D01*
X508436Y743978D01*
X508387Y744006D01*
X508304Y744027D01*
X508223Y744058D01*
X508167Y744062D01*
X508111Y744076D01*
X508026Y744074D01*
X507940Y744080D01*
X507892Y744069D01*
X507827Y744067D01*
X507689Y744023D01*
X507613Y744005D01*
X506597Y743584D01*
X504323Y743584D01*
X502222Y744454D01*
X501231Y745446D01*
X501161Y745498D01*
X501097Y745558D01*
X501048Y745584D01*
X501004Y745617D01*
X500922Y745648D01*
X500844Y745688D01*
X500796Y745696D01*
X500738Y745718D01*
X500590Y745730D01*
X500513Y745743D01*
X449447Y745743D01*
X449360Y745731D01*
X449273Y745728D01*
X449220Y745711D01*
X449166Y745703D01*
X449086Y745668D01*
X449003Y745641D01*
X448963Y745613D01*
X448906Y745587D01*
X448793Y745491D01*
X448729Y745446D01*
X447738Y744454D01*
X445637Y743584D01*
X443363Y743584D01*
X441262Y744454D01*
X439654Y746062D01*
X438784Y748163D01*
X438784Y750437D01*
X439654Y752538D01*
X441262Y754146D01*
X443363Y755016D01*
X445637Y755016D01*
X447738Y754146D01*
X448729Y753154D01*
X448799Y753102D01*
X448863Y753042D01*
X448912Y753016D01*
X448956Y752983D01*
X449038Y752952D01*
X449116Y752912D01*
X449164Y752904D01*
X449222Y752882D01*
X449370Y752870D01*
X449447Y752857D01*
X500513Y752857D01*
X500600Y752869D01*
X500687Y752872D01*
X500740Y752889D01*
X500794Y752897D01*
X500874Y752932D01*
X500957Y752959D01*
X500997Y752987D01*
X501054Y753013D01*
X501167Y753109D01*
X501231Y753154D01*
X502222Y754146D01*
X504323Y755016D01*
X506597Y755016D01*
X508698Y754146D01*
X510306Y752538D01*
X511176Y750437D01*
X511176Y748163D01*
X510755Y747147D01*
X510733Y747064D01*
X510703Y746984D01*
X510698Y746927D01*
X510684Y746872D01*
X510686Y746786D01*
X510679Y746700D01*
X510691Y746645D01*
X510692Y746588D01*
X510718Y746506D01*
X510735Y746422D01*
X510761Y746371D01*
X510779Y746317D01*
X510827Y746246D01*
X510866Y746169D01*
X510905Y746128D01*
X510937Y746081D01*
X511003Y746026D01*
X511062Y745963D01*
X511111Y745934D01*
X511155Y745898D01*
X511233Y745863D01*
X511307Y745820D01*
X511362Y745806D01*
X511414Y745782D01*
X511500Y745771D01*
X511583Y745749D01*
X511640Y745751D01*
X511696Y745743D01*
X511781Y745756D01*
X511867Y745758D01*
X511921Y745776D01*
X511977Y745784D01*
X512056Y745819D01*
X512137Y745846D01*
X512178Y745875D01*
X512236Y745901D01*
X512347Y745995D01*
X512411Y746041D01*
X529389Y763019D01*
X529458Y763111D01*
X529532Y763199D01*
X529543Y763224D01*
X529560Y763246D01*
X529601Y763354D01*
X529648Y763459D01*
X529651Y763486D01*
X529661Y763512D01*
X529671Y763626D01*
X529687Y763740D01*
X529683Y763768D01*
X529685Y763795D01*
X529662Y763908D01*
X529646Y764022D01*
X529634Y764047D01*
X529629Y764074D01*
X529576Y764176D01*
X529529Y764281D01*
X529511Y764302D01*
X529498Y764326D01*
X529419Y764409D01*
X529344Y764497D01*
X529323Y764510D01*
X529302Y764533D01*
X529073Y764667D01*
X529060Y764675D01*
X527213Y765440D01*
X524140Y768513D01*
X522477Y772527D01*
X522477Y776873D01*
X524140Y780887D01*
X524739Y781486D01*
X524791Y781555D01*
X524850Y781617D01*
X524876Y781668D01*
X524910Y781713D01*
X524941Y781794D01*
X524980Y781870D01*
X524991Y781926D01*
X525011Y781979D01*
X525018Y782065D01*
X525035Y782149D01*
X525030Y782206D01*
X525035Y782262D01*
X525018Y782347D01*
X525011Y782432D01*
X524990Y782485D01*
X524979Y782541D01*
X524939Y782617D01*
X524909Y782698D01*
X524874Y782743D01*
X524848Y782793D01*
X524789Y782856D01*
X524737Y782924D01*
X524691Y782958D01*
X524652Y783000D01*
X524578Y783043D01*
X524509Y783094D01*
X524456Y783115D01*
X524407Y783143D01*
X524324Y783164D01*
X524243Y783195D01*
X524186Y783199D01*
X524131Y783213D01*
X524045Y783211D01*
X523960Y783218D01*
X523912Y783206D01*
X523847Y783204D01*
X523709Y783160D01*
X523633Y783142D01*
X522873Y782827D01*
X518527Y782827D01*
X517767Y783142D01*
X517684Y783164D01*
X517604Y783194D01*
X517547Y783199D01*
X517492Y783213D01*
X517406Y783211D01*
X517320Y783218D01*
X517265Y783207D01*
X517208Y783205D01*
X517126Y783179D01*
X517042Y783162D01*
X516991Y783136D01*
X516937Y783118D01*
X516866Y783070D01*
X516789Y783031D01*
X516748Y782992D01*
X516701Y782960D01*
X516646Y782894D01*
X516583Y782835D01*
X516554Y782786D01*
X516518Y782742D01*
X516483Y782664D01*
X516440Y782590D01*
X516426Y782535D01*
X516402Y782483D01*
X516391Y782397D01*
X516369Y782314D01*
X516371Y782257D01*
X516363Y782201D01*
X516376Y782116D01*
X516379Y782030D01*
X516396Y781976D01*
X516404Y781920D01*
X516440Y781841D01*
X516466Y781760D01*
X516495Y781719D01*
X516521Y781661D01*
X516615Y781550D01*
X516661Y781486D01*
X517260Y780887D01*
X518923Y776873D01*
X518923Y772527D01*
X517260Y768513D01*
X514187Y765440D01*
X510173Y763777D01*
X505827Y763777D01*
X501813Y765440D01*
X498740Y768513D01*
X497077Y772527D01*
X497077Y776873D01*
X498740Y780887D01*
X499339Y781486D01*
X499391Y781555D01*
X499450Y781617D01*
X499476Y781668D01*
X499510Y781713D01*
X499541Y781794D01*
X499580Y781870D01*
X499591Y781926D01*
X499611Y781979D01*
X499618Y782065D01*
X499635Y782149D01*
X499630Y782206D01*
X499635Y782262D01*
X499618Y782347D01*
X499611Y782432D01*
X499590Y782485D01*
X499579Y782541D01*
X499539Y782617D01*
X499509Y782698D01*
X499474Y782743D01*
X499448Y782793D01*
X499389Y782856D01*
X499337Y782924D01*
X499291Y782958D01*
X499252Y783000D01*
X499178Y783043D01*
X499109Y783094D01*
X499056Y783115D01*
X499007Y783143D01*
X498924Y783164D01*
X498843Y783195D01*
X498786Y783199D01*
X498731Y783213D01*
X498645Y783211D01*
X498560Y783218D01*
X498512Y783206D01*
X498447Y783204D01*
X498309Y783160D01*
X498233Y783142D01*
X497473Y782827D01*
X493127Y782827D01*
X492367Y783142D01*
X492284Y783164D01*
X492204Y783194D01*
X492147Y783199D01*
X492092Y783213D01*
X492006Y783211D01*
X491920Y783218D01*
X491865Y783207D01*
X491808Y783205D01*
X491726Y783179D01*
X491642Y783162D01*
X491591Y783136D01*
X491537Y783118D01*
X491466Y783070D01*
X491389Y783031D01*
X491348Y782992D01*
X491301Y782960D01*
X491246Y782894D01*
X491183Y782835D01*
X491154Y782786D01*
X491118Y782742D01*
X491083Y782664D01*
X491040Y782590D01*
X491026Y782535D01*
X491002Y782483D01*
X490991Y782397D01*
X490969Y782314D01*
X490971Y782257D01*
X490963Y782201D01*
X490976Y782116D01*
X490979Y782030D01*
X490996Y781976D01*
X491004Y781920D01*
X491040Y781841D01*
X491066Y781760D01*
X491095Y781719D01*
X491121Y781661D01*
X491215Y781550D01*
X491261Y781486D01*
X491860Y780887D01*
X493523Y776873D01*
X493523Y772527D01*
X491860Y768513D01*
X488787Y765440D01*
X484773Y763777D01*
X480427Y763777D01*
X476413Y765440D01*
X473340Y768513D01*
X471677Y772527D01*
X471677Y776873D01*
X473349Y780909D01*
X473376Y780944D01*
X473447Y781027D01*
X473461Y781057D01*
X473481Y781085D01*
X473520Y781186D01*
X473565Y781285D01*
X473570Y781319D01*
X473582Y781350D01*
X473591Y781459D01*
X473608Y781566D01*
X473603Y781600D01*
X473606Y781633D01*
X473585Y781740D01*
X473570Y781848D01*
X473557Y781879D01*
X473550Y781912D01*
X473500Y782009D01*
X473456Y782108D01*
X473435Y782135D01*
X473419Y782165D01*
X473344Y782243D01*
X473275Y782327D01*
X473247Y782346D01*
X473223Y782371D01*
X473130Y782426D01*
X473040Y782487D01*
X473007Y782497D01*
X472978Y782514D01*
X472873Y782541D01*
X472769Y782575D01*
X472739Y782575D01*
X472703Y782585D01*
X472483Y782578D01*
X472434Y782578D01*
X471931Y782498D01*
X471931Y791719D01*
X481152Y791719D01*
X481049Y791073D01*
X480493Y789362D01*
X479676Y787759D01*
X479249Y787170D01*
X479246Y787165D01*
X479242Y787160D01*
X479194Y787068D01*
X479185Y787054D01*
X479181Y787043D01*
X479179Y787039D01*
X479116Y786919D01*
X479114Y786913D01*
X479111Y786908D01*
X479085Y786773D01*
X479057Y786641D01*
X479058Y786635D01*
X479056Y786629D01*
X479068Y786494D01*
X479078Y786358D01*
X479080Y786352D01*
X479081Y786346D01*
X479130Y786219D01*
X479177Y786091D01*
X479181Y786086D01*
X479183Y786080D01*
X479265Y785972D01*
X479346Y785862D01*
X479351Y785859D01*
X479355Y785854D01*
X479464Y785772D01*
X479571Y785689D01*
X479577Y785687D01*
X479582Y785683D01*
X479709Y785636D01*
X479836Y785586D01*
X479843Y785585D01*
X479848Y785583D01*
X479982Y785572D01*
X480119Y785560D01*
X480126Y785561D01*
X480132Y785560D01*
X480174Y785570D01*
X480399Y785613D01*
X480418Y785623D01*
X484773Y785623D01*
X485533Y785308D01*
X485616Y785286D01*
X485696Y785256D01*
X485753Y785251D01*
X485808Y785237D01*
X485894Y785239D01*
X485980Y785232D01*
X486035Y785243D01*
X486092Y785245D01*
X486174Y785271D01*
X486258Y785288D01*
X486309Y785314D01*
X486363Y785332D01*
X486434Y785380D01*
X486511Y785419D01*
X486552Y785458D01*
X486599Y785490D01*
X486654Y785556D01*
X486717Y785615D01*
X486746Y785664D01*
X486782Y785708D01*
X486817Y785786D01*
X486860Y785860D01*
X486874Y785915D01*
X486898Y785967D01*
X486909Y786053D01*
X486931Y786136D01*
X486929Y786193D01*
X486937Y786249D01*
X486924Y786334D01*
X486921Y786420D01*
X486904Y786474D01*
X486896Y786530D01*
X486860Y786609D01*
X486834Y786690D01*
X486805Y786731D01*
X486779Y786789D01*
X486685Y786900D01*
X486639Y786964D01*
X486040Y787563D01*
X484377Y791577D01*
X484377Y795923D01*
X486040Y799937D01*
X486639Y800536D01*
X486691Y800605D01*
X486750Y800667D01*
X486776Y800718D01*
X486810Y800763D01*
X486841Y800844D01*
X486880Y800920D01*
X486891Y800976D01*
X486911Y801029D01*
X486918Y801115D01*
X486935Y801199D01*
X486930Y801256D01*
X486935Y801312D01*
X486918Y801397D01*
X486911Y801482D01*
X486890Y801535D01*
X486879Y801591D01*
X486839Y801668D01*
X486809Y801748D01*
X486774Y801793D01*
X486748Y801843D01*
X486689Y801906D01*
X486637Y801974D01*
X486591Y802008D01*
X486552Y802050D01*
X486478Y802093D01*
X486409Y802144D01*
X486356Y802165D01*
X486307Y802193D01*
X486224Y802214D01*
X486143Y802245D01*
X486086Y802249D01*
X486031Y802263D01*
X485946Y802261D01*
X485860Y802268D01*
X485812Y802256D01*
X485747Y802254D01*
X485609Y802210D01*
X485533Y802192D01*
X484773Y801877D01*
X480413Y801877D01*
X480314Y801901D01*
X480183Y801935D01*
X480177Y801935D01*
X480171Y801937D01*
X480035Y801931D01*
X479899Y801927D01*
X479893Y801925D01*
X479887Y801925D01*
X479758Y801882D01*
X479628Y801840D01*
X479623Y801837D01*
X479617Y801835D01*
X479505Y801758D01*
X479392Y801682D01*
X479388Y801677D01*
X479383Y801674D01*
X479296Y801568D01*
X479209Y801465D01*
X479207Y801459D01*
X479203Y801454D01*
X479149Y801328D01*
X479094Y801205D01*
X479093Y801199D01*
X479091Y801193D01*
X479074Y801058D01*
X479055Y800923D01*
X479056Y800917D01*
X479055Y800911D01*
X479076Y800777D01*
X479096Y800642D01*
X479098Y800636D01*
X479099Y800630D01*
X479119Y800591D01*
X479213Y800383D01*
X479236Y800355D01*
X479249Y800330D01*
X479676Y799741D01*
X480493Y798138D01*
X481049Y796427D01*
X481152Y795781D01*
X471931Y795781D01*
X471931Y805002D01*
X472434Y804922D01*
X472542Y804920D01*
X472651Y804911D01*
X472684Y804918D01*
X472718Y804917D01*
X472823Y804946D01*
X472930Y804967D01*
X472960Y804983D01*
X472992Y804991D01*
X473085Y805048D01*
X473182Y805098D01*
X473206Y805121D01*
X473235Y805139D01*
X473309Y805219D01*
X473388Y805294D01*
X473405Y805323D01*
X473428Y805348D01*
X473477Y805445D01*
X473532Y805539D01*
X473540Y805572D01*
X473555Y805602D01*
X473575Y805709D01*
X473602Y805815D01*
X473601Y805849D01*
X473607Y805882D01*
X473596Y805990D01*
X473593Y806099D01*
X473582Y806131D01*
X473579Y806165D01*
X473539Y806266D01*
X473505Y806369D01*
X473488Y806394D01*
X473474Y806429D01*
X473351Y806587D01*
X471677Y810627D01*
X471677Y814973D01*
X473349Y819009D01*
X473376Y819044D01*
X473447Y819127D01*
X473461Y819157D01*
X473481Y819185D01*
X473520Y819286D01*
X473565Y819385D01*
X473570Y819418D01*
X473582Y819450D01*
X473591Y819559D01*
X473608Y819666D01*
X473603Y819700D01*
X473606Y819733D01*
X473585Y819840D01*
X473570Y819948D01*
X473557Y819979D01*
X473550Y820012D01*
X473500Y820109D01*
X473456Y820208D01*
X473435Y820235D01*
X473419Y820265D01*
X473344Y820343D01*
X473275Y820427D01*
X473247Y820446D01*
X473223Y820471D01*
X473130Y820526D01*
X473040Y820587D01*
X473007Y820597D01*
X472978Y820614D01*
X472873Y820641D01*
X472769Y820675D01*
X472739Y820675D01*
X472703Y820685D01*
X472483Y820678D01*
X472434Y820678D01*
X471931Y820598D01*
X471931Y829819D01*
X481152Y829819D01*
X481049Y829173D01*
X480493Y827462D01*
X479676Y825859D01*
X479249Y825270D01*
X479246Y825265D01*
X479242Y825260D01*
X479179Y825139D01*
X479116Y825019D01*
X479114Y825013D01*
X479111Y825008D01*
X479085Y824873D01*
X479057Y824741D01*
X479058Y824735D01*
X479056Y824729D01*
X479068Y824594D01*
X479078Y824458D01*
X479080Y824452D01*
X479081Y824446D01*
X479130Y824319D01*
X479177Y824191D01*
X479181Y824186D01*
X479183Y824180D01*
X479265Y824072D01*
X479346Y823962D01*
X479351Y823959D01*
X479355Y823954D01*
X479464Y823872D01*
X479571Y823789D01*
X479577Y823787D01*
X479582Y823783D01*
X479709Y823736D01*
X479836Y823686D01*
X479843Y823685D01*
X479848Y823683D01*
X479982Y823672D01*
X480119Y823660D01*
X480126Y823661D01*
X480132Y823660D01*
X480174Y823670D01*
X480399Y823713D01*
X480418Y823723D01*
X484773Y823723D01*
X485533Y823408D01*
X485616Y823386D01*
X485696Y823356D01*
X485753Y823351D01*
X485808Y823337D01*
X485894Y823339D01*
X485980Y823332D01*
X486035Y823343D01*
X486092Y823345D01*
X486174Y823371D01*
X486258Y823388D01*
X486309Y823414D01*
X486363Y823432D01*
X486434Y823480D01*
X486511Y823519D01*
X486552Y823558D01*
X486599Y823590D01*
X486655Y823656D01*
X486717Y823715D01*
X486746Y823764D01*
X486782Y823808D01*
X486817Y823886D01*
X486861Y823960D01*
X486875Y824015D01*
X486898Y824067D01*
X486909Y824153D01*
X486931Y824236D01*
X486929Y824293D01*
X486937Y824349D01*
X486924Y824434D01*
X486922Y824520D01*
X486904Y824574D01*
X486896Y824630D01*
X486861Y824708D01*
X486834Y824790D01*
X486805Y824831D01*
X486779Y824889D01*
X486685Y825000D01*
X486639Y825064D01*
X486040Y825663D01*
X484377Y829677D01*
X484377Y834023D01*
X486040Y838037D01*
X489113Y841110D01*
X493127Y842773D01*
X497473Y842773D01*
X501487Y841110D01*
X504560Y838037D01*
X506223Y834023D01*
X506223Y829677D01*
X504560Y825663D01*
X503961Y825064D01*
X503909Y824995D01*
X503850Y824933D01*
X503824Y824882D01*
X503790Y824837D01*
X503759Y824756D01*
X503720Y824680D01*
X503709Y824624D01*
X503689Y824571D01*
X503682Y824485D01*
X503665Y824401D01*
X503670Y824344D01*
X503665Y824288D01*
X503682Y824203D01*
X503689Y824118D01*
X503710Y824065D01*
X503721Y824009D01*
X503761Y823932D01*
X503791Y823852D01*
X503826Y823807D01*
X503852Y823757D01*
X503911Y823694D01*
X503963Y823626D01*
X504009Y823592D01*
X504048Y823550D01*
X504122Y823507D01*
X504191Y823456D01*
X504244Y823435D01*
X504293Y823407D01*
X504376Y823385D01*
X504457Y823355D01*
X504513Y823351D01*
X504569Y823337D01*
X504654Y823339D01*
X504740Y823332D01*
X504788Y823344D01*
X504853Y823346D01*
X504991Y823390D01*
X505067Y823408D01*
X505827Y823723D01*
X510173Y823723D01*
X510933Y823408D01*
X511016Y823386D01*
X511096Y823356D01*
X511153Y823351D01*
X511208Y823337D01*
X511294Y823339D01*
X511380Y823332D01*
X511435Y823343D01*
X511492Y823345D01*
X511574Y823371D01*
X511658Y823388D01*
X511709Y823414D01*
X511763Y823432D01*
X511834Y823480D01*
X511911Y823519D01*
X511952Y823558D01*
X511999Y823590D01*
X512055Y823656D01*
X512117Y823715D01*
X512146Y823764D01*
X512182Y823808D01*
X512217Y823886D01*
X512261Y823960D01*
X512275Y824015D01*
X512298Y824067D01*
X512309Y824153D01*
X512331Y824236D01*
X512329Y824293D01*
X512337Y824349D01*
X512324Y824434D01*
X512322Y824520D01*
X512304Y824574D01*
X512296Y824630D01*
X512261Y824708D01*
X512234Y824790D01*
X512205Y824831D01*
X512179Y824889D01*
X512085Y825000D01*
X512039Y825064D01*
X511440Y825663D01*
X509777Y829677D01*
X509777Y834023D01*
X511440Y838037D01*
X514513Y841110D01*
X518527Y842773D01*
X522873Y842773D01*
X526887Y841110D01*
X528110Y839887D01*
X528134Y839869D01*
X528153Y839847D01*
X528247Y839784D01*
X528337Y839716D01*
X528365Y839706D01*
X528389Y839689D01*
X528497Y839655D01*
X528603Y839615D01*
X528632Y839612D01*
X528660Y839604D01*
X528774Y839601D01*
X528886Y839591D01*
X528915Y839597D01*
X528944Y839596D01*
X529054Y839625D01*
X529165Y839647D01*
X529191Y839661D01*
X529219Y839668D01*
X529317Y839726D01*
X529417Y839778D01*
X529439Y839798D01*
X529464Y839813D01*
X529541Y839896D01*
X529623Y839974D01*
X529638Y839999D01*
X529658Y840021D01*
X529710Y840121D01*
X529767Y840219D01*
X529774Y840248D01*
X529788Y840274D01*
X529801Y840351D01*
X529837Y840495D01*
X529835Y840557D01*
X529843Y840605D01*
X529843Y882853D01*
X539547Y892557D01*
X992073Y892557D01*
X1019557Y865073D01*
X1019557Y805047D01*
X1019569Y804960D01*
X1019572Y804873D01*
X1019589Y804820D01*
X1019597Y804766D01*
X1019632Y804686D01*
X1019659Y804603D01*
X1019687Y804563D01*
X1019713Y804506D01*
X1019809Y804393D01*
X1019854Y804329D01*
X1020846Y803338D01*
X1021716Y801237D01*
X1021716Y798963D01*
X1020846Y796862D01*
X1019238Y795254D01*
X1017137Y794384D01*
X1014863Y794384D01*
X1012762Y795254D01*
X1011154Y796862D01*
X1010284Y798963D01*
X1010284Y801237D01*
X1011154Y803338D01*
X1012146Y804329D01*
X1012198Y804399D01*
X1012258Y804463D01*
X1012284Y804512D01*
X1012317Y804556D01*
X1012348Y804638D01*
X1012388Y804716D01*
X1012396Y804764D01*
X1012418Y804822D01*
X1012430Y804970D01*
X1012443Y805047D01*
X1012443Y861706D01*
X1012431Y861793D01*
X1012428Y861880D01*
X1012411Y861933D01*
X1012403Y861988D01*
X1012368Y862068D01*
X1012341Y862151D01*
X1012313Y862190D01*
X1012287Y862247D01*
X1012199Y862352D01*
X1012182Y862379D01*
X1012169Y862392D01*
X1012146Y862424D01*
X989424Y885146D01*
X989354Y885198D01*
X989290Y885258D01*
X989241Y885284D01*
X989197Y885317D01*
X989115Y885348D01*
X989037Y885388D01*
X988990Y885396D01*
X988931Y885418D01*
X988784Y885430D01*
X988706Y885443D01*
X542914Y885443D01*
X542827Y885431D01*
X542740Y885428D01*
X542687Y885411D01*
X542632Y885403D01*
X542552Y885368D01*
X542469Y885341D01*
X542430Y885313D01*
X542373Y885287D01*
X542260Y885191D01*
X542196Y885146D01*
X537254Y880204D01*
X537202Y880134D01*
X537142Y880070D01*
X537116Y880021D01*
X537083Y879977D01*
X537052Y879895D01*
X537012Y879817D01*
X537004Y879770D01*
X536982Y879711D01*
X536970Y879564D01*
X536957Y879486D01*
X536957Y840605D01*
X536961Y840576D01*
X536958Y840547D01*
X536981Y840435D01*
X536997Y840323D01*
X537009Y840297D01*
X537014Y840268D01*
X537067Y840167D01*
X537113Y840064D01*
X537132Y840042D01*
X537145Y840015D01*
X537223Y839933D01*
X537296Y839847D01*
X537321Y839831D01*
X537341Y839809D01*
X537439Y839752D01*
X537533Y839689D01*
X537561Y839680D01*
X537586Y839666D01*
X537696Y839638D01*
X537804Y839604D01*
X537834Y839603D01*
X537862Y839596D01*
X537975Y839599D01*
X538088Y839596D01*
X538117Y839604D01*
X538146Y839605D01*
X538254Y839640D01*
X538363Y839668D01*
X538389Y839683D01*
X538417Y839692D01*
X538481Y839738D01*
X538608Y839813D01*
X538651Y839859D01*
X538690Y839887D01*
X539913Y841110D01*
X543927Y842773D01*
X548273Y842773D01*
X552287Y841110D01*
X555360Y838037D01*
X557023Y834023D01*
X557023Y829677D01*
X555360Y825663D01*
X554761Y825064D01*
X554709Y824995D01*
X554650Y824933D01*
X554624Y824882D01*
X554590Y824837D01*
X554559Y824756D01*
X554520Y824680D01*
X554509Y824624D01*
X554489Y824571D01*
X554482Y824485D01*
X554465Y824401D01*
X554470Y824344D01*
X554465Y824288D01*
X554482Y824203D01*
X554489Y824118D01*
X554510Y824065D01*
X554521Y824009D01*
X554561Y823933D01*
X554591Y823852D01*
X554626Y823807D01*
X554652Y823757D01*
X554711Y823694D01*
X554763Y823626D01*
X554809Y823592D01*
X554848Y823550D01*
X554922Y823507D01*
X554991Y823456D01*
X555044Y823435D01*
X555093Y823407D01*
X555176Y823385D01*
X555257Y823355D01*
X555313Y823351D01*
X555369Y823337D01*
X555455Y823339D01*
X555540Y823332D01*
X555588Y823344D01*
X555653Y823346D01*
X555791Y823390D01*
X555867Y823408D01*
X556627Y823723D01*
X560973Y823723D01*
X561733Y823408D01*
X561816Y823386D01*
X561896Y823356D01*
X561953Y823351D01*
X562008Y823337D01*
X562094Y823339D01*
X562180Y823332D01*
X562235Y823343D01*
X562292Y823345D01*
X562374Y823371D01*
X562458Y823388D01*
X562509Y823414D01*
X562563Y823432D01*
X562634Y823480D01*
X562711Y823519D01*
X562752Y823558D01*
X562799Y823590D01*
X562854Y823656D01*
X562917Y823715D01*
X562946Y823764D01*
X562982Y823808D01*
X563017Y823886D01*
X563060Y823960D01*
X563075Y824015D01*
X563098Y824067D01*
X563109Y824153D01*
X563131Y824236D01*
X563129Y824293D01*
X563137Y824349D01*
X563124Y824434D01*
X563122Y824520D01*
X563104Y824574D01*
X563096Y824630D01*
X563061Y824709D01*
X563034Y824790D01*
X563005Y824831D01*
X562979Y824889D01*
X562885Y825000D01*
X562839Y825064D01*
X562240Y825663D01*
X560577Y829677D01*
X560577Y834023D01*
X562240Y838037D01*
X565313Y841110D01*
X569327Y842773D01*
X573673Y842773D01*
X577687Y841110D01*
X580760Y838037D01*
X582423Y834023D01*
X582423Y829677D01*
X580760Y825663D01*
X580161Y825064D01*
X580109Y824995D01*
X580050Y824933D01*
X580024Y824882D01*
X579990Y824837D01*
X579959Y824756D01*
X579920Y824680D01*
X579909Y824624D01*
X579889Y824571D01*
X579882Y824485D01*
X579865Y824401D01*
X579870Y824344D01*
X579865Y824288D01*
X579882Y824203D01*
X579889Y824118D01*
X579910Y824065D01*
X579921Y824009D01*
X579961Y823932D01*
X579991Y823852D01*
X580026Y823807D01*
X580052Y823757D01*
X580111Y823694D01*
X580163Y823626D01*
X580209Y823592D01*
X580248Y823550D01*
X580322Y823507D01*
X580391Y823456D01*
X580444Y823435D01*
X580493Y823407D01*
X580576Y823386D01*
X580657Y823355D01*
X580714Y823351D01*
X580769Y823337D01*
X580854Y823339D01*
X580940Y823332D01*
X580988Y823344D01*
X581053Y823346D01*
X581191Y823390D01*
X581267Y823408D01*
X582027Y823723D01*
X586373Y823723D01*
X587133Y823408D01*
X587216Y823386D01*
X587296Y823356D01*
X587353Y823351D01*
X587408Y823337D01*
X587494Y823339D01*
X587580Y823332D01*
X587635Y823343D01*
X587692Y823345D01*
X587774Y823371D01*
X587858Y823388D01*
X587909Y823414D01*
X587963Y823432D01*
X588034Y823480D01*
X588111Y823519D01*
X588152Y823558D01*
X588199Y823590D01*
X588254Y823656D01*
X588317Y823715D01*
X588346Y823764D01*
X588382Y823808D01*
X588417Y823886D01*
X588460Y823960D01*
X588475Y824015D01*
X588498Y824067D01*
X588509Y824153D01*
X588531Y824236D01*
X588529Y824293D01*
X588537Y824349D01*
X588524Y824434D01*
X588522Y824520D01*
X588504Y824574D01*
X588496Y824630D01*
X588461Y824709D01*
X588434Y824790D01*
X588405Y824831D01*
X588379Y824889D01*
X588285Y825000D01*
X588239Y825064D01*
X587640Y825663D01*
X585977Y829677D01*
X585977Y834023D01*
X587640Y838037D01*
X590713Y841110D01*
X594727Y842773D01*
X599073Y842773D01*
X603087Y841110D01*
X606160Y838037D01*
X607823Y834023D01*
X607823Y829677D01*
X606160Y825663D01*
X605561Y825064D01*
X605509Y824995D01*
X605450Y824933D01*
X605424Y824882D01*
X605390Y824837D01*
X605359Y824756D01*
X605320Y824680D01*
X605309Y824624D01*
X605289Y824571D01*
X605282Y824485D01*
X605265Y824401D01*
X605270Y824344D01*
X605265Y824288D01*
X605282Y824203D01*
X605289Y824118D01*
X605310Y824065D01*
X605321Y824009D01*
X605361Y823932D01*
X605391Y823852D01*
X605426Y823807D01*
X605452Y823757D01*
X605511Y823694D01*
X605563Y823626D01*
X605609Y823592D01*
X605648Y823550D01*
X605722Y823507D01*
X605791Y823456D01*
X605844Y823435D01*
X605893Y823407D01*
X605976Y823386D01*
X606057Y823355D01*
X606114Y823351D01*
X606169Y823337D01*
X606254Y823339D01*
X606340Y823332D01*
X606388Y823344D01*
X606453Y823346D01*
X606591Y823390D01*
X606667Y823408D01*
X607427Y823723D01*
X611773Y823723D01*
X612533Y823408D01*
X612616Y823386D01*
X612696Y823356D01*
X612753Y823351D01*
X612808Y823337D01*
X612894Y823339D01*
X612980Y823332D01*
X613035Y823343D01*
X613092Y823345D01*
X613174Y823371D01*
X613258Y823388D01*
X613309Y823414D01*
X613363Y823432D01*
X613434Y823480D01*
X613511Y823519D01*
X613552Y823558D01*
X613599Y823590D01*
X613654Y823656D01*
X613717Y823715D01*
X613746Y823764D01*
X613782Y823808D01*
X613817Y823886D01*
X613860Y823960D01*
X613875Y824015D01*
X613898Y824067D01*
X613909Y824153D01*
X613931Y824236D01*
X613929Y824293D01*
X613937Y824349D01*
X613924Y824434D01*
X613922Y824520D01*
X613904Y824574D01*
X613896Y824630D01*
X613861Y824709D01*
X613834Y824790D01*
X613805Y824831D01*
X613779Y824889D01*
X613685Y825000D01*
X613639Y825064D01*
X613040Y825663D01*
X611377Y829677D01*
X611377Y834023D01*
X613040Y838037D01*
X616113Y841110D01*
X620127Y842773D01*
X624473Y842773D01*
X628487Y841110D01*
X629710Y839887D01*
X629734Y839869D01*
X629753Y839847D01*
X629847Y839784D01*
X629937Y839716D01*
X629965Y839706D01*
X629989Y839689D01*
X630097Y839655D01*
X630203Y839615D01*
X630232Y839612D01*
X630260Y839604D01*
X630374Y839601D01*
X630486Y839591D01*
X630515Y839597D01*
X630544Y839596D01*
X630654Y839625D01*
X630765Y839647D01*
X630791Y839661D01*
X630819Y839668D01*
X630917Y839726D01*
X631017Y839778D01*
X631039Y839798D01*
X631064Y839813D01*
X631141Y839896D01*
X631223Y839974D01*
X631238Y839999D01*
X631258Y840021D01*
X631310Y840121D01*
X631367Y840219D01*
X631374Y840248D01*
X631388Y840274D01*
X631401Y840351D01*
X631437Y840495D01*
X631435Y840557D01*
X631443Y840605D01*
X631443Y849006D01*
X631431Y849093D01*
X631428Y849180D01*
X631411Y849233D01*
X631403Y849288D01*
X631368Y849368D01*
X631341Y849451D01*
X631313Y849490D01*
X631287Y849547D01*
X631191Y849660D01*
X631146Y849724D01*
X608424Y872446D01*
X608354Y872498D01*
X608290Y872558D01*
X608241Y872584D01*
X608197Y872617D01*
X608115Y872648D01*
X608037Y872688D01*
X607990Y872696D01*
X607931Y872718D01*
X607784Y872730D01*
X607706Y872743D01*
X563747Y872743D01*
X563660Y872731D01*
X563573Y872728D01*
X563520Y872711D01*
X563466Y872703D01*
X563386Y872668D01*
X563302Y872641D01*
X563263Y872613D01*
X563206Y872587D01*
X563093Y872491D01*
X563029Y872446D01*
X562038Y871454D01*
X559937Y870584D01*
X557663Y870584D01*
X555562Y871454D01*
X553954Y873062D01*
X553084Y875163D01*
X553084Y877437D01*
X553954Y879538D01*
X555562Y881146D01*
X557663Y882016D01*
X559937Y882016D01*
X562038Y881146D01*
X563029Y880154D01*
X563099Y880102D01*
X563163Y880042D01*
X563212Y880016D01*
X563256Y879983D01*
X563338Y879952D01*
X563416Y879912D01*
X563463Y879904D01*
X563522Y879882D01*
X563670Y879870D01*
X563747Y879857D01*
X611073Y879857D01*
X638557Y852373D01*
X638557Y840605D01*
X638561Y840576D01*
X638558Y840547D01*
X638581Y840435D01*
X638597Y840323D01*
X638609Y840297D01*
X638614Y840268D01*
X638667Y840167D01*
X638713Y840064D01*
X638732Y840042D01*
X638745Y840015D01*
X638823Y839933D01*
X638896Y839847D01*
X638921Y839831D01*
X638941Y839809D01*
X639039Y839752D01*
X639133Y839689D01*
X639161Y839680D01*
X639186Y839666D01*
X639296Y839638D01*
X639404Y839604D01*
X639434Y839603D01*
X639462Y839596D01*
X639575Y839599D01*
X639688Y839596D01*
X639717Y839604D01*
X639746Y839605D01*
X639854Y839640D01*
X639963Y839668D01*
X639989Y839683D01*
X640017Y839692D01*
X640081Y839738D01*
X640208Y839813D01*
X640251Y839859D01*
X640290Y839887D01*
X641513Y841110D01*
X645527Y842773D01*
X649873Y842773D01*
X653887Y841110D01*
X656960Y838037D01*
X658623Y834023D01*
X658623Y829677D01*
X656960Y825663D01*
X656361Y825064D01*
X656309Y824995D01*
X656250Y824933D01*
X656224Y824882D01*
X656190Y824837D01*
X656159Y824756D01*
X656120Y824680D01*
X656109Y824624D01*
X656089Y824571D01*
X656082Y824485D01*
X656065Y824401D01*
X656070Y824344D01*
X656065Y824288D01*
X656082Y824203D01*
X656089Y824118D01*
X656110Y824065D01*
X656121Y824009D01*
X656161Y823932D01*
X656191Y823852D01*
X656226Y823807D01*
X656252Y823757D01*
X656311Y823694D01*
X656363Y823626D01*
X656409Y823592D01*
X656448Y823550D01*
X656522Y823507D01*
X656591Y823456D01*
X656644Y823435D01*
X656693Y823407D01*
X656776Y823386D01*
X656857Y823355D01*
X656914Y823351D01*
X656969Y823337D01*
X657054Y823339D01*
X657140Y823332D01*
X657188Y823344D01*
X657253Y823346D01*
X657391Y823390D01*
X657467Y823408D01*
X658227Y823723D01*
X662573Y823723D01*
X663333Y823408D01*
X663416Y823386D01*
X663496Y823356D01*
X663553Y823351D01*
X663608Y823337D01*
X663694Y823339D01*
X663780Y823332D01*
X663835Y823343D01*
X663892Y823345D01*
X663974Y823371D01*
X664058Y823388D01*
X664109Y823414D01*
X664163Y823432D01*
X664234Y823480D01*
X664311Y823519D01*
X664352Y823558D01*
X664399Y823590D01*
X664454Y823656D01*
X664517Y823715D01*
X664546Y823764D01*
X664582Y823808D01*
X664617Y823886D01*
X664660Y823960D01*
X664675Y824015D01*
X664698Y824067D01*
X664709Y824153D01*
X664731Y824236D01*
X664729Y824293D01*
X664737Y824349D01*
X664724Y824434D01*
X664722Y824520D01*
X664704Y824574D01*
X664696Y824630D01*
X664661Y824709D01*
X664634Y824790D01*
X664605Y824831D01*
X664579Y824889D01*
X664485Y825000D01*
X664439Y825064D01*
X663840Y825663D01*
X662177Y829677D01*
X662177Y834023D01*
X663840Y838037D01*
X666913Y841110D01*
X670927Y842773D01*
X675273Y842773D01*
X679287Y841110D01*
X682360Y838037D01*
X684023Y834023D01*
X684023Y829677D01*
X682360Y825663D01*
X681761Y825064D01*
X681709Y824995D01*
X681650Y824933D01*
X681624Y824882D01*
X681590Y824837D01*
X681559Y824756D01*
X681520Y824680D01*
X681509Y824624D01*
X681489Y824571D01*
X681482Y824485D01*
X681465Y824401D01*
X681470Y824344D01*
X681465Y824288D01*
X681482Y824203D01*
X681489Y824118D01*
X681510Y824065D01*
X681521Y824009D01*
X681561Y823932D01*
X681591Y823852D01*
X681626Y823807D01*
X681652Y823757D01*
X681711Y823694D01*
X681763Y823626D01*
X681809Y823592D01*
X681848Y823550D01*
X681922Y823507D01*
X681991Y823456D01*
X682044Y823435D01*
X682093Y823407D01*
X682176Y823386D01*
X682257Y823355D01*
X682314Y823351D01*
X682369Y823337D01*
X682454Y823339D01*
X682540Y823332D01*
X682588Y823344D01*
X682653Y823346D01*
X682791Y823390D01*
X682867Y823408D01*
X683627Y823723D01*
X687973Y823723D01*
X688733Y823408D01*
X688816Y823386D01*
X688896Y823356D01*
X688953Y823351D01*
X689008Y823337D01*
X689094Y823339D01*
X689180Y823332D01*
X689235Y823343D01*
X689292Y823345D01*
X689374Y823371D01*
X689458Y823388D01*
X689509Y823414D01*
X689563Y823432D01*
X689634Y823480D01*
X689711Y823519D01*
X689752Y823558D01*
X689799Y823590D01*
X689854Y823656D01*
X689917Y823715D01*
X689946Y823764D01*
X689982Y823808D01*
X690017Y823886D01*
X690060Y823960D01*
X690075Y824015D01*
X690098Y824067D01*
X690109Y824153D01*
X690131Y824236D01*
X690129Y824293D01*
X690137Y824349D01*
X690124Y824434D01*
X690122Y824520D01*
X690104Y824574D01*
X690096Y824630D01*
X690061Y824709D01*
X690034Y824790D01*
X690005Y824831D01*
X689979Y824889D01*
X689885Y825000D01*
X689839Y825064D01*
X689240Y825663D01*
X687577Y829677D01*
X687577Y834023D01*
X689240Y838037D01*
X692313Y841110D01*
X696327Y842773D01*
X700673Y842773D01*
X704687Y841110D01*
X707760Y838037D01*
X709423Y834023D01*
X709423Y829677D01*
X707760Y825663D01*
X707161Y825064D01*
X707109Y824995D01*
X707050Y824933D01*
X707024Y824882D01*
X706990Y824837D01*
X706959Y824756D01*
X706920Y824680D01*
X706909Y824624D01*
X706889Y824571D01*
X706882Y824485D01*
X706865Y824401D01*
X706870Y824344D01*
X706865Y824288D01*
X706882Y824203D01*
X706889Y824118D01*
X706910Y824065D01*
X706921Y824009D01*
X706961Y823932D01*
X706991Y823852D01*
X707026Y823807D01*
X707052Y823757D01*
X707111Y823694D01*
X707163Y823626D01*
X707209Y823592D01*
X707248Y823550D01*
X707322Y823507D01*
X707391Y823456D01*
X707444Y823435D01*
X707493Y823407D01*
X707576Y823386D01*
X707657Y823355D01*
X707714Y823351D01*
X707769Y823337D01*
X707854Y823339D01*
X707940Y823332D01*
X707988Y823344D01*
X708053Y823346D01*
X708191Y823390D01*
X708267Y823408D01*
X709027Y823723D01*
X713373Y823723D01*
X714133Y823408D01*
X714216Y823386D01*
X714296Y823356D01*
X714353Y823351D01*
X714408Y823337D01*
X714494Y823339D01*
X714580Y823332D01*
X714635Y823343D01*
X714692Y823345D01*
X714774Y823371D01*
X714858Y823388D01*
X714909Y823414D01*
X714963Y823432D01*
X715034Y823480D01*
X715111Y823519D01*
X715152Y823558D01*
X715199Y823590D01*
X715254Y823656D01*
X715317Y823715D01*
X715346Y823764D01*
X715382Y823808D01*
X715417Y823886D01*
X715460Y823960D01*
X715475Y824015D01*
X715498Y824067D01*
X715509Y824153D01*
X715531Y824236D01*
X715529Y824293D01*
X715537Y824349D01*
X715524Y824434D01*
X715522Y824520D01*
X715504Y824574D01*
X715496Y824630D01*
X715461Y824709D01*
X715434Y824790D01*
X715405Y824831D01*
X715379Y824889D01*
X715285Y825000D01*
X715239Y825064D01*
X714640Y825663D01*
X712977Y829677D01*
X712977Y834023D01*
X714640Y838037D01*
X717713Y841110D01*
X721727Y842773D01*
X726073Y842773D01*
X730087Y841110D01*
X733160Y838037D01*
X734823Y834023D01*
X734823Y829677D01*
X733160Y825663D01*
X732561Y825064D01*
X732509Y824995D01*
X732450Y824933D01*
X732424Y824882D01*
X732390Y824837D01*
X732359Y824756D01*
X732320Y824680D01*
X732309Y824624D01*
X732289Y824571D01*
X732282Y824485D01*
X732265Y824401D01*
X732270Y824344D01*
X732265Y824288D01*
X732282Y824203D01*
X732289Y824118D01*
X732310Y824065D01*
X732321Y824009D01*
X732361Y823932D01*
X732391Y823852D01*
X732426Y823807D01*
X732452Y823757D01*
X732511Y823694D01*
X732563Y823626D01*
X732609Y823592D01*
X732648Y823550D01*
X732722Y823507D01*
X732791Y823456D01*
X732844Y823435D01*
X732893Y823407D01*
X732976Y823386D01*
X733057Y823355D01*
X733114Y823351D01*
X733169Y823337D01*
X733254Y823339D01*
X733340Y823332D01*
X733388Y823344D01*
X733453Y823346D01*
X733591Y823390D01*
X733667Y823408D01*
X734427Y823723D01*
X738773Y823723D01*
X739533Y823408D01*
X739616Y823386D01*
X739696Y823356D01*
X739753Y823351D01*
X739808Y823337D01*
X739894Y823339D01*
X739980Y823332D01*
X740035Y823343D01*
X740092Y823345D01*
X740174Y823371D01*
X740258Y823388D01*
X740309Y823414D01*
X740363Y823432D01*
X740434Y823480D01*
X740511Y823519D01*
X740552Y823558D01*
X740599Y823590D01*
X740654Y823656D01*
X740717Y823715D01*
X740746Y823764D01*
X740782Y823808D01*
X740817Y823886D01*
X740860Y823960D01*
X740875Y824015D01*
X740898Y824067D01*
X740909Y824153D01*
X740931Y824236D01*
X740929Y824293D01*
X740937Y824349D01*
X740924Y824434D01*
X740922Y824520D01*
X740904Y824574D01*
X740896Y824630D01*
X740861Y824709D01*
X740834Y824790D01*
X740805Y824831D01*
X740779Y824889D01*
X740685Y825000D01*
X740639Y825064D01*
X740040Y825663D01*
X738377Y829677D01*
X738377Y834023D01*
X740040Y838037D01*
X743113Y841110D01*
X747127Y842773D01*
X751473Y842773D01*
X755487Y841110D01*
X758560Y838037D01*
X760223Y834023D01*
X760223Y829677D01*
X758560Y825663D01*
X757961Y825064D01*
X757909Y824995D01*
X757850Y824933D01*
X757824Y824882D01*
X757790Y824837D01*
X757759Y824756D01*
X757720Y824680D01*
X757709Y824624D01*
X757689Y824571D01*
X757682Y824485D01*
X757665Y824401D01*
X757670Y824344D01*
X757665Y824288D01*
X757682Y824203D01*
X757689Y824118D01*
X757710Y824065D01*
X757721Y824009D01*
X757761Y823932D01*
X757791Y823852D01*
X757826Y823807D01*
X757852Y823757D01*
X757911Y823694D01*
X757963Y823626D01*
X758009Y823592D01*
X758048Y823550D01*
X758122Y823507D01*
X758191Y823456D01*
X758244Y823435D01*
X758293Y823407D01*
X758376Y823386D01*
X758457Y823355D01*
X758514Y823351D01*
X758569Y823337D01*
X758654Y823339D01*
X758740Y823332D01*
X758788Y823344D01*
X758853Y823346D01*
X758991Y823390D01*
X759067Y823408D01*
X759827Y823723D01*
X764173Y823723D01*
X764933Y823408D01*
X765016Y823386D01*
X765096Y823356D01*
X765153Y823351D01*
X765208Y823337D01*
X765294Y823339D01*
X765380Y823332D01*
X765435Y823343D01*
X765492Y823345D01*
X765574Y823371D01*
X765658Y823388D01*
X765709Y823414D01*
X765763Y823432D01*
X765834Y823480D01*
X765911Y823519D01*
X765952Y823558D01*
X765999Y823590D01*
X766054Y823656D01*
X766117Y823715D01*
X766146Y823764D01*
X766182Y823808D01*
X766217Y823886D01*
X766260Y823960D01*
X766275Y824015D01*
X766298Y824067D01*
X766309Y824153D01*
X766331Y824236D01*
X766329Y824293D01*
X766337Y824349D01*
X766324Y824434D01*
X766322Y824520D01*
X766304Y824574D01*
X766296Y824630D01*
X766261Y824709D01*
X766234Y824790D01*
X766205Y824831D01*
X766179Y824889D01*
X766085Y825000D01*
X766039Y825064D01*
X765440Y825663D01*
X763777Y829677D01*
X763777Y834023D01*
X765440Y838037D01*
X768513Y841110D01*
X772527Y842773D01*
X776873Y842773D01*
X780887Y841110D01*
X783960Y838037D01*
X785623Y834023D01*
X785623Y829677D01*
X783960Y825663D01*
X783361Y825064D01*
X783309Y824995D01*
X783250Y824933D01*
X783224Y824882D01*
X783190Y824837D01*
X783159Y824756D01*
X783120Y824680D01*
X783109Y824624D01*
X783089Y824571D01*
X783082Y824485D01*
X783065Y824401D01*
X783070Y824344D01*
X783065Y824288D01*
X783082Y824203D01*
X783089Y824118D01*
X783110Y824065D01*
X783121Y824009D01*
X783161Y823932D01*
X783191Y823852D01*
X783226Y823807D01*
X783252Y823757D01*
X783311Y823694D01*
X783363Y823626D01*
X783409Y823592D01*
X783448Y823550D01*
X783522Y823507D01*
X783591Y823456D01*
X783644Y823435D01*
X783693Y823407D01*
X783776Y823386D01*
X783857Y823355D01*
X783914Y823351D01*
X783969Y823337D01*
X784054Y823339D01*
X784140Y823332D01*
X784188Y823344D01*
X784253Y823346D01*
X784391Y823390D01*
X784467Y823408D01*
X785227Y823723D01*
X789573Y823723D01*
X790333Y823408D01*
X790416Y823386D01*
X790496Y823356D01*
X790553Y823351D01*
X790608Y823337D01*
X790694Y823339D01*
X790780Y823332D01*
X790835Y823343D01*
X790892Y823345D01*
X790974Y823371D01*
X791058Y823388D01*
X791109Y823414D01*
X791163Y823432D01*
X791234Y823480D01*
X791311Y823519D01*
X791352Y823558D01*
X791399Y823590D01*
X791454Y823656D01*
X791517Y823715D01*
X791546Y823764D01*
X791582Y823808D01*
X791617Y823886D01*
X791660Y823960D01*
X791675Y824015D01*
X791698Y824067D01*
X791709Y824153D01*
X791731Y824236D01*
X791729Y824293D01*
X791737Y824349D01*
X791724Y824434D01*
X791722Y824520D01*
X791704Y824574D01*
X791696Y824630D01*
X791661Y824709D01*
X791634Y824790D01*
X791605Y824831D01*
X791579Y824889D01*
X791485Y825000D01*
X791439Y825064D01*
X790840Y825663D01*
X789177Y829677D01*
X789177Y834023D01*
X790840Y838037D01*
X793913Y841110D01*
X797927Y842773D01*
X802273Y842773D01*
X806287Y841110D01*
X809360Y838037D01*
X811023Y834023D01*
X811023Y829677D01*
X809360Y825663D01*
X808761Y825064D01*
X808709Y824995D01*
X808650Y824933D01*
X808624Y824882D01*
X808590Y824837D01*
X808559Y824756D01*
X808520Y824680D01*
X808509Y824624D01*
X808489Y824571D01*
X808482Y824485D01*
X808465Y824401D01*
X808470Y824344D01*
X808465Y824288D01*
X808482Y824203D01*
X808489Y824118D01*
X808510Y824065D01*
X808521Y824009D01*
X808561Y823932D01*
X808591Y823852D01*
X808626Y823807D01*
X808652Y823757D01*
X808711Y823694D01*
X808763Y823626D01*
X808809Y823592D01*
X808848Y823550D01*
X808922Y823507D01*
X808991Y823456D01*
X809044Y823435D01*
X809093Y823407D01*
X809176Y823386D01*
X809257Y823355D01*
X809314Y823351D01*
X809369Y823337D01*
X809454Y823339D01*
X809540Y823332D01*
X809588Y823344D01*
X809653Y823346D01*
X809791Y823390D01*
X809867Y823408D01*
X810627Y823723D01*
X814973Y823723D01*
X815733Y823408D01*
X815816Y823386D01*
X815896Y823356D01*
X815953Y823351D01*
X816008Y823337D01*
X816094Y823339D01*
X816180Y823332D01*
X816235Y823343D01*
X816292Y823345D01*
X816374Y823371D01*
X816458Y823388D01*
X816509Y823414D01*
X816563Y823432D01*
X816634Y823480D01*
X816711Y823519D01*
X816752Y823558D01*
X816799Y823590D01*
X816854Y823656D01*
X816917Y823715D01*
X816946Y823764D01*
X816982Y823808D01*
X817017Y823886D01*
X817060Y823960D01*
X817075Y824015D01*
X817098Y824067D01*
X817109Y824153D01*
X817131Y824236D01*
X817129Y824293D01*
X817137Y824349D01*
X817124Y824434D01*
X817122Y824520D01*
X817104Y824574D01*
X817096Y824630D01*
X817061Y824709D01*
X817034Y824790D01*
X817005Y824831D01*
X816979Y824889D01*
X816885Y825000D01*
X816839Y825064D01*
X816240Y825663D01*
X814577Y829677D01*
X814577Y834023D01*
X816240Y838037D01*
X819313Y841110D01*
X823327Y842773D01*
X827673Y842773D01*
X831687Y841110D01*
X834760Y838037D01*
X836423Y834023D01*
X836423Y829677D01*
X834760Y825663D01*
X834161Y825064D01*
X834109Y824995D01*
X834050Y824933D01*
X834024Y824882D01*
X833990Y824837D01*
X833959Y824756D01*
X833920Y824680D01*
X833909Y824624D01*
X833889Y824571D01*
X833882Y824485D01*
X833865Y824401D01*
X833870Y824344D01*
X833865Y824288D01*
X833882Y824203D01*
X833889Y824118D01*
X833910Y824065D01*
X833921Y824009D01*
X833961Y823932D01*
X833991Y823852D01*
X834026Y823807D01*
X834052Y823757D01*
X834111Y823694D01*
X834163Y823626D01*
X834209Y823592D01*
X834248Y823550D01*
X834322Y823507D01*
X834391Y823456D01*
X834444Y823435D01*
X834493Y823407D01*
X834576Y823386D01*
X834657Y823355D01*
X834714Y823351D01*
X834769Y823337D01*
X834854Y823339D01*
X834940Y823332D01*
X834988Y823344D01*
X835053Y823346D01*
X835191Y823390D01*
X835267Y823408D01*
X836027Y823723D01*
X840373Y823723D01*
X841133Y823408D01*
X841216Y823386D01*
X841296Y823356D01*
X841353Y823351D01*
X841408Y823337D01*
X841494Y823339D01*
X841580Y823332D01*
X841635Y823343D01*
X841692Y823345D01*
X841774Y823371D01*
X841858Y823388D01*
X841909Y823414D01*
X841963Y823432D01*
X842034Y823480D01*
X842111Y823519D01*
X842152Y823558D01*
X842199Y823590D01*
X842254Y823656D01*
X842317Y823715D01*
X842346Y823764D01*
X842382Y823808D01*
X842417Y823886D01*
X842460Y823960D01*
X842475Y824015D01*
X842498Y824067D01*
X842509Y824153D01*
X842531Y824236D01*
X842529Y824293D01*
X842537Y824349D01*
X842524Y824434D01*
X842522Y824520D01*
X842504Y824574D01*
X842496Y824630D01*
X842461Y824709D01*
X842434Y824790D01*
X842405Y824831D01*
X842379Y824889D01*
X842285Y825000D01*
X842239Y825064D01*
X841640Y825663D01*
X839977Y829677D01*
X839977Y834023D01*
X841640Y838037D01*
X844713Y841110D01*
X848727Y842773D01*
X853073Y842773D01*
X857087Y841110D01*
X860160Y838037D01*
X861823Y834023D01*
X861823Y829677D01*
X860160Y825663D01*
X859561Y825064D01*
X859509Y824995D01*
X859450Y824933D01*
X859424Y824882D01*
X859390Y824837D01*
X859359Y824756D01*
X859320Y824680D01*
X859309Y824624D01*
X859289Y824571D01*
X859282Y824485D01*
X859265Y824401D01*
X859270Y824344D01*
X859265Y824288D01*
X859282Y824203D01*
X859289Y824118D01*
X859310Y824065D01*
X859321Y824009D01*
X859361Y823932D01*
X859391Y823852D01*
X859426Y823807D01*
X859452Y823757D01*
X859511Y823694D01*
X859563Y823626D01*
X859609Y823592D01*
X859648Y823550D01*
X859722Y823507D01*
X859791Y823456D01*
X859844Y823435D01*
X859893Y823407D01*
X859976Y823386D01*
X860057Y823355D01*
X860114Y823351D01*
X860169Y823337D01*
X860254Y823339D01*
X860340Y823332D01*
X860388Y823344D01*
X860453Y823346D01*
X860591Y823390D01*
X860667Y823408D01*
X861427Y823723D01*
X865773Y823723D01*
X866533Y823408D01*
X866616Y823386D01*
X866696Y823356D01*
X866753Y823351D01*
X866808Y823337D01*
X866894Y823339D01*
X866980Y823332D01*
X867035Y823343D01*
X867092Y823345D01*
X867174Y823371D01*
X867258Y823388D01*
X867309Y823414D01*
X867363Y823432D01*
X867434Y823480D01*
X867511Y823519D01*
X867552Y823558D01*
X867599Y823590D01*
X867654Y823656D01*
X867717Y823715D01*
X867746Y823764D01*
X867782Y823808D01*
X867817Y823886D01*
X867860Y823960D01*
X867875Y824015D01*
X867898Y824067D01*
X867909Y824153D01*
X867931Y824236D01*
X867929Y824293D01*
X867937Y824349D01*
X867924Y824434D01*
X867922Y824520D01*
X867904Y824574D01*
X867896Y824630D01*
X867861Y824709D01*
X867834Y824790D01*
X867805Y824831D01*
X867779Y824889D01*
X867685Y825000D01*
X867639Y825064D01*
X867040Y825663D01*
X865377Y829677D01*
X865377Y834023D01*
X867040Y838037D01*
X870113Y841110D01*
X874127Y842773D01*
X878473Y842773D01*
X882487Y841110D01*
X885560Y838037D01*
X887223Y834023D01*
X887223Y829677D01*
X885560Y825663D01*
X884961Y825064D01*
X884909Y824995D01*
X884850Y824933D01*
X884824Y824882D01*
X884790Y824837D01*
X884759Y824756D01*
X884720Y824680D01*
X884709Y824624D01*
X884689Y824571D01*
X884682Y824485D01*
X884665Y824401D01*
X884670Y824344D01*
X884665Y824288D01*
X884682Y824203D01*
X884689Y824118D01*
X884710Y824065D01*
X884721Y824009D01*
X884761Y823932D01*
X884791Y823852D01*
X884826Y823807D01*
X884852Y823757D01*
X884911Y823694D01*
X884963Y823626D01*
X885009Y823592D01*
X885048Y823550D01*
X885122Y823507D01*
X885191Y823456D01*
X885244Y823435D01*
X885293Y823407D01*
X885376Y823386D01*
X885457Y823355D01*
X885514Y823351D01*
X885569Y823337D01*
X885654Y823339D01*
X885740Y823332D01*
X885788Y823344D01*
X885853Y823346D01*
X885991Y823390D01*
X886067Y823408D01*
X886827Y823723D01*
X891173Y823723D01*
X891933Y823408D01*
X892016Y823386D01*
X892096Y823356D01*
X892153Y823351D01*
X892208Y823337D01*
X892294Y823339D01*
X892380Y823332D01*
X892435Y823343D01*
X892492Y823345D01*
X892574Y823371D01*
X892658Y823388D01*
X892709Y823414D01*
X892763Y823432D01*
X892834Y823480D01*
X892911Y823519D01*
X892952Y823558D01*
X892999Y823590D01*
X893054Y823656D01*
X893117Y823715D01*
X893146Y823764D01*
X893182Y823808D01*
X893217Y823886D01*
X893260Y823960D01*
X893275Y824015D01*
X893298Y824067D01*
X893309Y824153D01*
X893331Y824236D01*
X893329Y824293D01*
X893337Y824349D01*
X893324Y824434D01*
X893322Y824520D01*
X893304Y824574D01*
X893296Y824630D01*
X893261Y824709D01*
X893234Y824790D01*
X893205Y824831D01*
X893179Y824889D01*
X893085Y825000D01*
X893039Y825064D01*
X892440Y825663D01*
X890777Y829677D01*
X890777Y834023D01*
X892440Y838037D01*
X895513Y841110D01*
X899527Y842773D01*
X903873Y842773D01*
X907887Y841110D01*
X910960Y838037D01*
X912623Y834023D01*
X912623Y829677D01*
X910960Y825663D01*
X910361Y825064D01*
X910309Y824995D01*
X910250Y824933D01*
X910224Y824882D01*
X910190Y824837D01*
X910159Y824756D01*
X910120Y824680D01*
X910109Y824624D01*
X910089Y824571D01*
X910082Y824485D01*
X910065Y824401D01*
X910070Y824344D01*
X910065Y824288D01*
X910082Y824203D01*
X910089Y824118D01*
X910110Y824065D01*
X910121Y824009D01*
X910161Y823932D01*
X910191Y823852D01*
X910226Y823807D01*
X910252Y823757D01*
X910311Y823694D01*
X910363Y823626D01*
X910409Y823592D01*
X910448Y823550D01*
X910522Y823507D01*
X910591Y823456D01*
X910644Y823435D01*
X910693Y823407D01*
X910776Y823386D01*
X910857Y823355D01*
X910914Y823351D01*
X910969Y823337D01*
X911054Y823339D01*
X911140Y823332D01*
X911188Y823344D01*
X911253Y823346D01*
X911391Y823390D01*
X911467Y823408D01*
X912227Y823723D01*
X916573Y823723D01*
X917333Y823408D01*
X917416Y823386D01*
X917496Y823356D01*
X917553Y823351D01*
X917608Y823337D01*
X917694Y823339D01*
X917780Y823332D01*
X917835Y823343D01*
X917892Y823345D01*
X917974Y823371D01*
X918058Y823388D01*
X918109Y823414D01*
X918163Y823432D01*
X918234Y823480D01*
X918311Y823519D01*
X918352Y823558D01*
X918399Y823590D01*
X918454Y823656D01*
X918517Y823715D01*
X918546Y823764D01*
X918582Y823808D01*
X918617Y823886D01*
X918660Y823960D01*
X918675Y824015D01*
X918698Y824067D01*
X918709Y824153D01*
X918731Y824236D01*
X918729Y824293D01*
X918737Y824349D01*
X918724Y824434D01*
X918722Y824520D01*
X918704Y824574D01*
X918696Y824630D01*
X918661Y824709D01*
X918634Y824790D01*
X918605Y824831D01*
X918579Y824889D01*
X918485Y825000D01*
X918439Y825064D01*
X917840Y825663D01*
X916177Y829677D01*
X916177Y834023D01*
X917840Y838037D01*
X920913Y841110D01*
X924927Y842773D01*
X929273Y842773D01*
X933287Y841110D01*
X934510Y839887D01*
X934534Y839869D01*
X934553Y839847D01*
X934647Y839784D01*
X934737Y839716D01*
X934765Y839706D01*
X934789Y839689D01*
X934897Y839655D01*
X935003Y839615D01*
X935032Y839612D01*
X935060Y839604D01*
X935174Y839601D01*
X935286Y839591D01*
X935315Y839597D01*
X935344Y839596D01*
X935454Y839625D01*
X935565Y839647D01*
X935591Y839661D01*
X935619Y839668D01*
X935717Y839726D01*
X935817Y839778D01*
X935839Y839798D01*
X935864Y839813D01*
X935941Y839896D01*
X936023Y839974D01*
X936038Y839999D01*
X936058Y840021D01*
X936110Y840121D01*
X936167Y840219D01*
X936174Y840248D01*
X936188Y840274D01*
X936201Y840351D01*
X936237Y840495D01*
X936235Y840557D01*
X936243Y840605D01*
X936243Y852373D01*
X951027Y867157D01*
X979373Y867157D01*
X994157Y852373D01*
X994157Y582727D01*
X969054Y557624D01*
X969002Y557554D01*
X968942Y557490D01*
X968916Y557441D01*
X968883Y557397D01*
X968852Y557315D01*
X968812Y557237D01*
X968804Y557190D01*
X968782Y557131D01*
X968770Y556984D01*
X968757Y556906D01*
X968757Y112827D01*
X953973Y98043D01*
X944747Y98043D01*
X944660Y98031D01*
X944573Y98028D01*
X944520Y98011D01*
X944466Y98003D01*
X944386Y97968D01*
X944303Y97941D01*
X944263Y97913D01*
X944206Y97887D01*
X944093Y97791D01*
X944029Y97746D01*
X943038Y96754D01*
X940937Y95884D01*
X938663Y95884D01*
G37*
%LPD*%
%LPC*%
G36*
X1018547Y332231D02*
X1018547Y332231D01*
X1016761Y334017D01*
X1016761Y506476D01*
X1016753Y506534D01*
X1016755Y506592D01*
X1016733Y506674D01*
X1016721Y506758D01*
X1016698Y506811D01*
X1016683Y506867D01*
X1016640Y506940D01*
X1016605Y507017D01*
X1016567Y507062D01*
X1016538Y507112D01*
X1016476Y507170D01*
X1016422Y507234D01*
X1016373Y507266D01*
X1016330Y507306D01*
X1016255Y507345D01*
X1016185Y507392D01*
X1016129Y507409D01*
X1016077Y507436D01*
X1016009Y507447D01*
X1015914Y507477D01*
X1015814Y507480D01*
X1015746Y507491D01*
X975367Y507491D01*
X973581Y509277D01*
X973581Y542283D01*
X975367Y544069D01*
X1179823Y544069D01*
X1181609Y542283D01*
X1181609Y505714D01*
X1181617Y505656D01*
X1181615Y505598D01*
X1181637Y505516D01*
X1181649Y505432D01*
X1181672Y505379D01*
X1181687Y505323D01*
X1181730Y505250D01*
X1181765Y505173D01*
X1181803Y505128D01*
X1181832Y505078D01*
X1181894Y505020D01*
X1181948Y504956D01*
X1181997Y504924D01*
X1182040Y504884D01*
X1182115Y504845D01*
X1182185Y504798D01*
X1182241Y504781D01*
X1182293Y504754D01*
X1182361Y504743D01*
X1182456Y504713D01*
X1182556Y504710D01*
X1182624Y504699D01*
X1207763Y504699D01*
X1209549Y502913D01*
X1209549Y462287D01*
X1207763Y460501D01*
X1182624Y460501D01*
X1182566Y460493D01*
X1182508Y460495D01*
X1182426Y460473D01*
X1182342Y460461D01*
X1182289Y460438D01*
X1182233Y460423D01*
X1182160Y460380D01*
X1182083Y460345D01*
X1182038Y460307D01*
X1181988Y460278D01*
X1181930Y460216D01*
X1181866Y460162D01*
X1181834Y460113D01*
X1181794Y460070D01*
X1181755Y459995D01*
X1181708Y459925D01*
X1181691Y459869D01*
X1181664Y459817D01*
X1181653Y459749D01*
X1181623Y459654D01*
X1181620Y459554D01*
X1181609Y459486D01*
X1181609Y334017D01*
X1179823Y332231D01*
X1018547Y332231D01*
G37*
%LPD*%
%LPC*%
G36*
X406407Y346201D02*
X406407Y346201D01*
X404621Y347987D01*
X404621Y376936D01*
X404613Y376994D01*
X404615Y377052D01*
X404593Y377134D01*
X404581Y377218D01*
X404558Y377271D01*
X404543Y377327D01*
X404500Y377400D01*
X404465Y377477D01*
X404427Y377522D01*
X404398Y377572D01*
X404336Y377630D01*
X404282Y377694D01*
X404233Y377726D01*
X404190Y377766D01*
X404115Y377805D01*
X404045Y377852D01*
X403989Y377869D01*
X403937Y377896D01*
X403869Y377907D01*
X403774Y377937D01*
X403674Y377940D01*
X403606Y377951D01*
X384817Y377951D01*
X383031Y379737D01*
X383031Y417576D01*
X383023Y417634D01*
X383025Y417692D01*
X383003Y417774D01*
X382991Y417858D01*
X382968Y417911D01*
X382953Y417967D01*
X382910Y418040D01*
X382875Y418117D01*
X382837Y418162D01*
X382808Y418212D01*
X382746Y418270D01*
X382692Y418334D01*
X382643Y418366D01*
X382600Y418406D01*
X382525Y418445D01*
X382455Y418492D01*
X382399Y418509D01*
X382347Y418536D01*
X382279Y418547D01*
X382184Y418577D01*
X382084Y418580D01*
X382016Y418591D01*
X347987Y418591D01*
X346201Y420377D01*
X346201Y468623D01*
X347987Y470409D01*
X384556Y470409D01*
X384614Y470417D01*
X384672Y470415D01*
X384754Y470437D01*
X384838Y470449D01*
X384891Y470472D01*
X384947Y470487D01*
X385020Y470530D01*
X385097Y470565D01*
X385142Y470603D01*
X385192Y470632D01*
X385250Y470694D01*
X385314Y470748D01*
X385346Y470797D01*
X385386Y470840D01*
X385425Y470915D01*
X385472Y470985D01*
X385489Y471041D01*
X385516Y471093D01*
X385527Y471161D01*
X385557Y471256D01*
X385560Y471356D01*
X385571Y471424D01*
X385571Y517530D01*
X385553Y517656D01*
X385539Y517783D01*
X385534Y517797D01*
X385531Y517812D01*
X385479Y517928D01*
X385431Y518045D01*
X385421Y518057D01*
X385415Y518071D01*
X385333Y518169D01*
X385254Y518268D01*
X385241Y518277D01*
X385232Y518288D01*
X385126Y518359D01*
X385022Y518432D01*
X385008Y518437D01*
X384995Y518446D01*
X384874Y518484D01*
X384754Y518526D01*
X384738Y518527D01*
X384724Y518532D01*
X384597Y518535D01*
X384470Y518542D01*
X384455Y518539D01*
X384440Y518539D01*
X384317Y518507D01*
X384193Y518478D01*
X384181Y518471D01*
X384165Y518467D01*
X383920Y518322D01*
X383912Y518313D01*
X383903Y518308D01*
X379262Y514413D01*
X372107Y511809D01*
X364493Y511809D01*
X357338Y514413D01*
X351505Y519308D01*
X347698Y525902D01*
X346376Y533400D01*
X347698Y540898D01*
X351505Y547492D01*
X357338Y552387D01*
X364493Y554991D01*
X372107Y554991D01*
X379262Y552387D01*
X383903Y548492D01*
X384011Y548425D01*
X384117Y548354D01*
X384132Y548349D01*
X384145Y548341D01*
X384267Y548307D01*
X384388Y548268D01*
X384403Y548268D01*
X384418Y548264D01*
X384545Y548264D01*
X384672Y548261D01*
X384687Y548265D01*
X384702Y548265D01*
X384825Y548301D01*
X384947Y548333D01*
X384961Y548341D01*
X384975Y548345D01*
X385083Y548413D01*
X385192Y548478D01*
X385202Y548489D01*
X385215Y548497D01*
X385299Y548592D01*
X385386Y548685D01*
X385393Y548699D01*
X385403Y548710D01*
X385458Y548825D01*
X385516Y548939D01*
X385518Y548952D01*
X385525Y548967D01*
X385571Y549248D01*
X385570Y549260D01*
X385571Y549270D01*
X385571Y556253D01*
X387357Y558039D01*
X483863Y558039D01*
X485649Y556253D01*
X485649Y481337D01*
X483863Y479551D01*
X434594Y479551D01*
X434536Y479543D01*
X434478Y479545D01*
X434396Y479523D01*
X434312Y479511D01*
X434259Y479488D01*
X434203Y479473D01*
X434130Y479430D01*
X434053Y479395D01*
X434008Y479357D01*
X433958Y479328D01*
X433900Y479266D01*
X433836Y479212D01*
X433804Y479163D01*
X433764Y479120D01*
X433725Y479045D01*
X433678Y478975D01*
X433661Y478919D01*
X433634Y478867D01*
X433623Y478799D01*
X433593Y478704D01*
X433590Y478604D01*
X433579Y478536D01*
X433579Y347987D01*
X431793Y346201D01*
X406407Y346201D01*
G37*
%LPD*%
%LPC*%
G36*
X552457Y408431D02*
X552457Y408431D01*
X550671Y410217D01*
X550671Y452113D01*
X552457Y453899D01*
X642613Y453899D01*
X644399Y452113D01*
X644399Y410217D01*
X642613Y408431D01*
X552457Y408431D01*
G37*
%LPD*%
%LPC*%
G36*
X252939Y627125D02*
X252939Y627125D01*
X250978Y627937D01*
X249477Y629438D01*
X248665Y631399D01*
X248665Y633521D01*
X249477Y635482D01*
X250146Y636150D01*
X250198Y636220D01*
X250258Y636284D01*
X250284Y636333D01*
X250317Y636378D01*
X250348Y636459D01*
X250388Y636537D01*
X250396Y636585D01*
X250418Y636643D01*
X250430Y636791D01*
X250443Y636868D01*
X250443Y734706D01*
X250431Y734793D01*
X250428Y734880D01*
X250411Y734933D01*
X250403Y734988D01*
X250368Y735068D01*
X250341Y735151D01*
X250313Y735190D01*
X250287Y735247D01*
X250191Y735360D01*
X250146Y735424D01*
X238694Y746876D01*
X238624Y746928D01*
X238560Y746988D01*
X238511Y747014D01*
X238467Y747047D01*
X238385Y747078D01*
X238307Y747118D01*
X238260Y747126D01*
X238201Y747148D01*
X238054Y747160D01*
X237976Y747173D01*
X162578Y747173D01*
X162576Y747173D01*
X162574Y747173D01*
X162434Y747153D01*
X162296Y747133D01*
X162295Y747133D01*
X162293Y747133D01*
X162167Y747076D01*
X162037Y747017D01*
X162035Y747016D01*
X162034Y747015D01*
X161927Y746924D01*
X161820Y746834D01*
X161819Y746832D01*
X161818Y746831D01*
X161809Y746818D01*
X161662Y746597D01*
X161653Y746568D01*
X161640Y746547D01*
X160691Y744255D01*
X157475Y741039D01*
X154490Y739803D01*
X154465Y739788D01*
X154437Y739779D01*
X154342Y739716D01*
X154245Y739658D01*
X154225Y739637D01*
X154200Y739621D01*
X154128Y739534D01*
X154050Y739452D01*
X154036Y739426D01*
X154017Y739403D01*
X153971Y739300D01*
X153920Y739199D01*
X153914Y739170D01*
X153902Y739143D01*
X153886Y739031D01*
X153865Y738920D01*
X153867Y738891D01*
X153863Y738862D01*
X153879Y738750D01*
X153889Y738637D01*
X153900Y738610D01*
X153904Y738581D01*
X153950Y738477D01*
X153991Y738372D01*
X154009Y738348D01*
X154021Y738321D01*
X154094Y738235D01*
X154163Y738145D01*
X154186Y738127D01*
X154205Y738105D01*
X154272Y738063D01*
X154390Y737975D01*
X154449Y737953D01*
X154490Y737927D01*
X157475Y736690D01*
X160690Y733475D01*
X162431Y729274D01*
X162431Y724726D01*
X160690Y720525D01*
X157475Y717310D01*
X153274Y715569D01*
X148726Y715569D01*
X144525Y717310D01*
X141310Y720525D01*
X139569Y724726D01*
X139569Y729274D01*
X141310Y733475D01*
X144525Y736690D01*
X147510Y737927D01*
X147536Y737942D01*
X147563Y737951D01*
X147658Y738014D01*
X147755Y738072D01*
X147775Y738093D01*
X147800Y738109D01*
X147873Y738196D01*
X147950Y738278D01*
X147964Y738304D01*
X147983Y738327D01*
X148029Y738430D01*
X148080Y738531D01*
X148086Y738560D01*
X148098Y738587D01*
X148114Y738699D01*
X148135Y738810D01*
X148133Y738839D01*
X148137Y738868D01*
X148121Y738980D01*
X148111Y739093D01*
X148100Y739120D01*
X148096Y739150D01*
X148050Y739253D01*
X148009Y739358D01*
X147991Y739382D01*
X147979Y739409D01*
X147906Y739495D01*
X147837Y739585D01*
X147814Y739603D01*
X147795Y739625D01*
X147728Y739667D01*
X147610Y739755D01*
X147551Y739777D01*
X147510Y739803D01*
X144525Y741039D01*
X141310Y744255D01*
X139569Y748456D01*
X139569Y753004D01*
X141310Y757205D01*
X144525Y760420D01*
X146074Y761062D01*
X146099Y761077D01*
X146127Y761086D01*
X146221Y761149D01*
X146319Y761207D01*
X146339Y761228D01*
X146363Y761244D01*
X146436Y761331D01*
X146514Y761413D01*
X146527Y761439D01*
X146546Y761462D01*
X146592Y761565D01*
X146644Y761666D01*
X146650Y761695D01*
X146662Y761722D01*
X146677Y761834D01*
X146699Y761945D01*
X146697Y761974D01*
X146701Y762003D01*
X146684Y762115D01*
X146675Y762228D01*
X146664Y762255D01*
X146660Y762285D01*
X146613Y762388D01*
X146573Y762493D01*
X146555Y762517D01*
X146543Y762544D01*
X146469Y762630D01*
X146401Y762720D01*
X146378Y762738D01*
X146358Y762760D01*
X146292Y762802D01*
X146173Y762890D01*
X146115Y762912D01*
X146074Y762938D01*
X144525Y763579D01*
X141310Y766795D01*
X139569Y770996D01*
X139569Y775544D01*
X141310Y779745D01*
X144525Y782961D01*
X146840Y783919D01*
X146899Y783955D01*
X146963Y783981D01*
X147021Y784026D01*
X147085Y784064D01*
X147132Y784114D01*
X147186Y784157D01*
X147229Y784217D01*
X147280Y784271D01*
X147312Y784332D01*
X147352Y784388D01*
X147376Y784458D01*
X147410Y784523D01*
X147424Y784591D01*
X147447Y784656D01*
X147451Y784730D01*
X147465Y784802D01*
X147459Y784871D01*
X147463Y784940D01*
X147447Y785012D01*
X147441Y785085D01*
X147416Y785150D01*
X147401Y785217D01*
X147365Y785282D01*
X147339Y785351D01*
X147297Y785406D01*
X147264Y785467D01*
X147211Y785519D01*
X147167Y785577D01*
X147112Y785619D01*
X147063Y785668D01*
X147008Y785697D01*
X146939Y785748D01*
X146831Y785788D01*
X146765Y785823D01*
X146417Y785936D01*
X144743Y786789D01*
X143222Y787894D01*
X141894Y789222D01*
X140789Y790743D01*
X139936Y792417D01*
X139355Y794204D01*
X139234Y794969D01*
X149984Y794969D01*
X150042Y794977D01*
X150100Y794975D01*
X150182Y794997D01*
X150265Y795009D01*
X150319Y795033D01*
X150375Y795047D01*
X150448Y795090D01*
X150525Y795125D01*
X150569Y795163D01*
X150620Y795193D01*
X150677Y795254D01*
X150742Y795309D01*
X150774Y795357D01*
X150814Y795400D01*
X150853Y795475D01*
X150899Y795545D01*
X150917Y795601D01*
X150944Y795653D01*
X150955Y795721D01*
X150985Y795816D01*
X150988Y795916D01*
X150999Y795984D01*
X150999Y797001D01*
X151001Y797001D01*
X151001Y795984D01*
X151009Y795926D01*
X151008Y795868D01*
X151029Y795786D01*
X151041Y795703D01*
X151065Y795649D01*
X151079Y795593D01*
X151122Y795520D01*
X151157Y795443D01*
X151195Y795398D01*
X151225Y795348D01*
X151286Y795290D01*
X151341Y795226D01*
X151389Y795194D01*
X151432Y795154D01*
X151507Y795115D01*
X151577Y795069D01*
X151633Y795051D01*
X151685Y795024D01*
X151753Y795013D01*
X151848Y794983D01*
X151948Y794980D01*
X152016Y794969D01*
X162766Y794969D01*
X162645Y794204D01*
X162064Y792417D01*
X161211Y790743D01*
X160106Y789222D01*
X158778Y787894D01*
X157257Y786789D01*
X155583Y785936D01*
X155235Y785823D01*
X155173Y785793D01*
X155107Y785771D01*
X155046Y785730D01*
X154979Y785698D01*
X154928Y785652D01*
X154871Y785613D01*
X154823Y785557D01*
X154769Y785507D01*
X154732Y785449D01*
X154688Y785396D01*
X154658Y785328D01*
X154619Y785266D01*
X154600Y785199D01*
X154572Y785136D01*
X154562Y785063D01*
X154542Y784992D01*
X154543Y784923D01*
X154533Y784854D01*
X154544Y784781D01*
X154544Y784708D01*
X154564Y784641D01*
X154574Y784573D01*
X154604Y784506D01*
X154625Y784435D01*
X154663Y784377D01*
X154691Y784314D01*
X154739Y784258D01*
X154779Y784196D01*
X154831Y784150D01*
X154875Y784097D01*
X154928Y784064D01*
X154992Y784008D01*
X155097Y783959D01*
X155160Y783919D01*
X157475Y782961D01*
X160690Y779745D01*
X162431Y775544D01*
X162431Y770996D01*
X160690Y766795D01*
X157475Y763579D01*
X155926Y762938D01*
X155901Y762923D01*
X155873Y762914D01*
X155779Y762851D01*
X155681Y762794D01*
X155661Y762772D01*
X155637Y762756D01*
X155564Y762669D01*
X155486Y762587D01*
X155473Y762561D01*
X155454Y762538D01*
X155408Y762435D01*
X155356Y762334D01*
X155350Y762305D01*
X155338Y762278D01*
X155323Y762166D01*
X155301Y762055D01*
X155303Y762026D01*
X155299Y761997D01*
X155316Y761885D01*
X155325Y761772D01*
X155336Y761744D01*
X155340Y761716D01*
X155387Y761613D01*
X155427Y761507D01*
X155445Y761483D01*
X155457Y761456D01*
X155531Y761370D01*
X155599Y761280D01*
X155623Y761262D01*
X155642Y761240D01*
X155708Y761198D01*
X155827Y761110D01*
X155885Y761088D01*
X155926Y761062D01*
X157475Y760420D01*
X160691Y757205D01*
X161640Y754913D01*
X161640Y754912D01*
X161641Y754911D01*
X161712Y754790D01*
X161784Y754669D01*
X161785Y754668D01*
X161786Y754666D01*
X161890Y754569D01*
X161991Y754473D01*
X161992Y754473D01*
X161993Y754472D01*
X162119Y754407D01*
X162244Y754343D01*
X162245Y754343D01*
X162247Y754342D01*
X162261Y754340D01*
X162522Y754288D01*
X162553Y754291D01*
X162578Y754287D01*
X241343Y754287D01*
X243724Y751906D01*
X255176Y740454D01*
X257557Y738073D01*
X257557Y636868D01*
X257569Y636782D01*
X257572Y636694D01*
X257589Y636642D01*
X257597Y636587D01*
X257632Y636507D01*
X257659Y636424D01*
X257687Y636384D01*
X257713Y636327D01*
X257809Y636214D01*
X257854Y636150D01*
X258523Y635482D01*
X259335Y633521D01*
X259335Y631399D01*
X258523Y629438D01*
X257022Y627937D01*
X255061Y627125D01*
X252939Y627125D01*
G37*
%LPD*%
%LPC*%
G36*
X735337Y459231D02*
X735337Y459231D01*
X733551Y461017D01*
X733551Y502913D01*
X735337Y504699D01*
X795013Y504699D01*
X796799Y502913D01*
X796799Y461017D01*
X795013Y459231D01*
X735337Y459231D01*
G37*
%LPD*%
%LPC*%
G36*
X474138Y333247D02*
X474138Y333247D01*
X472947Y334438D01*
X472947Y351362D01*
X474138Y352553D01*
X478028Y352553D01*
X478086Y352561D01*
X478144Y352559D01*
X478226Y352581D01*
X478310Y352593D01*
X478363Y352616D01*
X478419Y352631D01*
X478492Y352674D01*
X478569Y352709D01*
X478614Y352747D01*
X478664Y352776D01*
X478722Y352838D01*
X478786Y352892D01*
X478818Y352941D01*
X478858Y352984D01*
X478897Y353059D01*
X478944Y353129D01*
X478961Y353185D01*
X478988Y353237D01*
X478999Y353305D01*
X479029Y353400D01*
X479032Y353500D01*
X479043Y353568D01*
X479043Y445973D01*
X516846Y483776D01*
X516898Y483846D01*
X516958Y483910D01*
X516984Y483959D01*
X517017Y484003D01*
X517048Y484085D01*
X517088Y484163D01*
X517096Y484210D01*
X517118Y484269D01*
X517130Y484416D01*
X517143Y484494D01*
X517143Y604653D01*
X517131Y604740D01*
X517128Y604827D01*
X517111Y604880D01*
X517103Y604934D01*
X517068Y605014D01*
X517041Y605097D01*
X517013Y605137D01*
X516987Y605194D01*
X516891Y605307D01*
X516846Y605371D01*
X515854Y606362D01*
X514984Y608463D01*
X514984Y610737D01*
X515854Y612838D01*
X517462Y614446D01*
X519563Y615316D01*
X521837Y615316D01*
X523938Y614446D01*
X525546Y612838D01*
X526416Y610737D01*
X526416Y608463D01*
X525546Y606362D01*
X524554Y605371D01*
X524502Y605301D01*
X524442Y605237D01*
X524416Y605188D01*
X524383Y605144D01*
X524352Y605062D01*
X524312Y604984D01*
X524304Y604936D01*
X524282Y604878D01*
X524270Y604730D01*
X524257Y604653D01*
X524257Y481127D01*
X486454Y443324D01*
X486402Y443254D01*
X486342Y443190D01*
X486316Y443141D01*
X486283Y443097D01*
X486252Y443015D01*
X486212Y442937D01*
X486204Y442890D01*
X486182Y442831D01*
X486170Y442684D01*
X486157Y442606D01*
X486157Y353568D01*
X486165Y353510D01*
X486163Y353452D01*
X486185Y353370D01*
X486197Y353286D01*
X486220Y353233D01*
X486235Y353177D01*
X486278Y353104D01*
X486313Y353027D01*
X486351Y352982D01*
X486380Y352932D01*
X486442Y352874D01*
X486496Y352810D01*
X486545Y352778D01*
X486588Y352738D01*
X486663Y352699D01*
X486733Y352652D01*
X486789Y352635D01*
X486841Y352608D01*
X486909Y352597D01*
X487004Y352567D01*
X487104Y352564D01*
X487172Y352553D01*
X491062Y352553D01*
X492253Y351362D01*
X492253Y334438D01*
X491062Y333247D01*
X474138Y333247D01*
G37*
%LPD*%
%LPC*%
G36*
X575738Y536447D02*
X575738Y536447D01*
X574547Y537638D01*
X574547Y554562D01*
X575738Y555753D01*
X579247Y555753D01*
X579305Y555761D01*
X579363Y555759D01*
X579445Y555781D01*
X579529Y555793D01*
X579582Y555816D01*
X579638Y555831D01*
X579711Y555874D01*
X579788Y555909D01*
X579833Y555947D01*
X579883Y555976D01*
X579941Y556038D01*
X580005Y556092D01*
X580037Y556141D01*
X580077Y556184D01*
X580116Y556259D01*
X580163Y556329D01*
X580180Y556385D01*
X580207Y556437D01*
X580218Y556505D01*
X580248Y556600D01*
X580251Y556700D01*
X580262Y556768D01*
X580262Y658348D01*
X580250Y658435D01*
X580247Y658522D01*
X580230Y658575D01*
X580222Y658630D01*
X580187Y658710D01*
X580160Y658793D01*
X580132Y658832D01*
X580106Y658889D01*
X580010Y659003D01*
X579965Y659066D01*
X557466Y681565D01*
X557397Y681617D01*
X557333Y681677D01*
X557283Y681703D01*
X557239Y681736D01*
X557157Y681767D01*
X557079Y681807D01*
X557032Y681815D01*
X556973Y681837D01*
X556826Y681849D01*
X556748Y681862D01*
X499866Y681862D01*
X499779Y681850D01*
X499692Y681847D01*
X499639Y681830D01*
X499585Y681822D01*
X499505Y681787D01*
X499422Y681760D01*
X499382Y681732D01*
X499325Y681706D01*
X499212Y681610D01*
X499148Y681565D01*
X498538Y680954D01*
X496437Y680084D01*
X494163Y680084D01*
X492062Y680954D01*
X490454Y682562D01*
X489584Y684663D01*
X489584Y686937D01*
X490454Y689038D01*
X492062Y690646D01*
X494163Y691516D01*
X496437Y691516D01*
X498538Y690646D01*
X499148Y690035D01*
X499218Y689983D01*
X499282Y689923D01*
X499331Y689897D01*
X499375Y689864D01*
X499457Y689833D01*
X499535Y689793D01*
X499583Y689785D01*
X499641Y689763D01*
X499789Y689751D01*
X499866Y689738D01*
X560431Y689738D01*
X563035Y687134D01*
X585534Y664635D01*
X588138Y662031D01*
X588138Y556768D01*
X588146Y556710D01*
X588144Y556652D01*
X588166Y556570D01*
X588178Y556486D01*
X588201Y556433D01*
X588216Y556377D01*
X588259Y556304D01*
X588294Y556227D01*
X588332Y556182D01*
X588361Y556132D01*
X588423Y556074D01*
X588477Y556010D01*
X588526Y555978D01*
X588569Y555938D01*
X588644Y555899D01*
X588714Y555852D01*
X588770Y555835D01*
X588822Y555808D01*
X588890Y555797D01*
X588985Y555767D01*
X589085Y555764D01*
X589153Y555753D01*
X592662Y555753D01*
X593853Y554562D01*
X593853Y537638D01*
X592662Y536447D01*
X575738Y536447D01*
G37*
%LPD*%
%LPC*%
G36*
X307343Y308609D02*
X307343Y308609D01*
X300188Y311213D01*
X294355Y316108D01*
X290548Y322702D01*
X289226Y330200D01*
X290548Y337698D01*
X294355Y344292D01*
X300188Y349187D01*
X307343Y351791D01*
X314957Y351791D01*
X322112Y349187D01*
X327945Y344292D01*
X331752Y337698D01*
X333074Y330200D01*
X331752Y322702D01*
X327945Y316108D01*
X322112Y311213D01*
X314957Y308609D01*
X307343Y308609D01*
G37*
%LPD*%
%LPC*%
G36*
X1285243Y308609D02*
X1285243Y308609D01*
X1278088Y311213D01*
X1272255Y316108D01*
X1268448Y322702D01*
X1267126Y330200D01*
X1268448Y337698D01*
X1272255Y344292D01*
X1278088Y349187D01*
X1285243Y351791D01*
X1292857Y351791D01*
X1300012Y349187D01*
X1305845Y344292D01*
X1309652Y337698D01*
X1310974Y330200D01*
X1309652Y322702D01*
X1305845Y316108D01*
X1300012Y311213D01*
X1292857Y308609D01*
X1285243Y308609D01*
G37*
%LPD*%
%LPC*%
G36*
X364493Y334009D02*
X364493Y334009D01*
X357338Y336613D01*
X351505Y341508D01*
X347698Y348102D01*
X346376Y355600D01*
X347698Y363098D01*
X351505Y369692D01*
X357338Y374587D01*
X364493Y377191D01*
X372107Y377191D01*
X379262Y374587D01*
X385095Y369692D01*
X388902Y363098D01*
X390224Y355600D01*
X388902Y348102D01*
X385095Y341508D01*
X379262Y336613D01*
X372107Y334009D01*
X364493Y334009D01*
G37*
%LPD*%
%LPC*%
G36*
X1285243Y537209D02*
X1285243Y537209D01*
X1278088Y539813D01*
X1272255Y544708D01*
X1268448Y551302D01*
X1267126Y558800D01*
X1268448Y566298D01*
X1272255Y572892D01*
X1278088Y577787D01*
X1285243Y580391D01*
X1292857Y580391D01*
X1300012Y577787D01*
X1305845Y572892D01*
X1309652Y566298D01*
X1310974Y558800D01*
X1309652Y551302D01*
X1305845Y544708D01*
X1300012Y539813D01*
X1292857Y537209D01*
X1285243Y537209D01*
G37*
%LPD*%
%LPC*%
G36*
X307343Y537209D02*
X307343Y537209D01*
X300188Y539813D01*
X294355Y544708D01*
X290548Y551302D01*
X289226Y558800D01*
X290548Y566298D01*
X294355Y572892D01*
X300188Y577787D01*
X307343Y580391D01*
X314957Y580391D01*
X322112Y577787D01*
X327945Y572892D01*
X331752Y566298D01*
X333074Y558800D01*
X331752Y551302D01*
X327945Y544708D01*
X322112Y539813D01*
X314957Y537209D01*
X307343Y537209D01*
G37*
%LPD*%
%LPC*%
G36*
X1027563Y667384D02*
X1027563Y667384D01*
X1025462Y668254D01*
X1023854Y669862D01*
X1022984Y671963D01*
X1022984Y674237D01*
X1023854Y676338D01*
X1025462Y677946D01*
X1027563Y678816D01*
X1029837Y678816D01*
X1031938Y677946D01*
X1032929Y676954D01*
X1032999Y676902D01*
X1033063Y676842D01*
X1033112Y676816D01*
X1033156Y676783D01*
X1033238Y676752D01*
X1033316Y676712D01*
X1033364Y676704D01*
X1033422Y676682D01*
X1033570Y676670D01*
X1033647Y676657D01*
X1153806Y676657D01*
X1153893Y676669D01*
X1153980Y676672D01*
X1154033Y676689D01*
X1154088Y676697D01*
X1154168Y676732D01*
X1154251Y676759D01*
X1154290Y676787D01*
X1154347Y676813D01*
X1154460Y676909D01*
X1154524Y676954D01*
X1162387Y684817D01*
X1162439Y684887D01*
X1162499Y684951D01*
X1162525Y685000D01*
X1162558Y685044D01*
X1162589Y685126D01*
X1162629Y685204D01*
X1162637Y685251D01*
X1162659Y685310D01*
X1162671Y685457D01*
X1162684Y685535D01*
X1162684Y686937D01*
X1163554Y689038D01*
X1165162Y690646D01*
X1167263Y691516D01*
X1169537Y691516D01*
X1171638Y690646D01*
X1173246Y689038D01*
X1174116Y686937D01*
X1174116Y684663D01*
X1173246Y682562D01*
X1171638Y680954D01*
X1169537Y680084D01*
X1168135Y680084D01*
X1168048Y680072D01*
X1167961Y680069D01*
X1167908Y680052D01*
X1167853Y680044D01*
X1167773Y680009D01*
X1167690Y679982D01*
X1167651Y679954D01*
X1167594Y679928D01*
X1167481Y679832D01*
X1167417Y679787D01*
X1157173Y669543D01*
X1033647Y669543D01*
X1033560Y669531D01*
X1033473Y669528D01*
X1033420Y669511D01*
X1033366Y669503D01*
X1033286Y669468D01*
X1033203Y669441D01*
X1033163Y669413D01*
X1033106Y669387D01*
X1032993Y669291D01*
X1032929Y669246D01*
X1031938Y668254D01*
X1029837Y667384D01*
X1027563Y667384D01*
G37*
%LPD*%
%LPC*%
G36*
X1129163Y692784D02*
X1129163Y692784D01*
X1127062Y693654D01*
X1125454Y695262D01*
X1124584Y697363D01*
X1124584Y699637D01*
X1125454Y701738D01*
X1127062Y703346D01*
X1129163Y704216D01*
X1131437Y704216D01*
X1133538Y703346D01*
X1134529Y702354D01*
X1134599Y702302D01*
X1134663Y702242D01*
X1134712Y702216D01*
X1134756Y702183D01*
X1134838Y702152D01*
X1134916Y702112D01*
X1134963Y702104D01*
X1135022Y702082D01*
X1135170Y702070D01*
X1135247Y702057D01*
X1153806Y702057D01*
X1153893Y702069D01*
X1153980Y702072D01*
X1154033Y702089D01*
X1154088Y702097D01*
X1154168Y702132D01*
X1154251Y702159D01*
X1154290Y702187D01*
X1154347Y702213D01*
X1154460Y702309D01*
X1154524Y702354D01*
X1164546Y712376D01*
X1164598Y712446D01*
X1164658Y712510D01*
X1164684Y712559D01*
X1164717Y712603D01*
X1164748Y712685D01*
X1164788Y712763D01*
X1164796Y712810D01*
X1164818Y712869D01*
X1164830Y713016D01*
X1164843Y713094D01*
X1164843Y734706D01*
X1164831Y734793D01*
X1164828Y734880D01*
X1164811Y734933D01*
X1164803Y734988D01*
X1164768Y735068D01*
X1164741Y735151D01*
X1164713Y735190D01*
X1164687Y735247D01*
X1164591Y735360D01*
X1164546Y735424D01*
X1154524Y745446D01*
X1154454Y745498D01*
X1154390Y745558D01*
X1154341Y745584D01*
X1154297Y745617D01*
X1154215Y745648D01*
X1154137Y745688D01*
X1154090Y745696D01*
X1154031Y745718D01*
X1153884Y745730D01*
X1153806Y745743D01*
X1103497Y745743D01*
X1103410Y745731D01*
X1103323Y745728D01*
X1103270Y745711D01*
X1103216Y745703D01*
X1103136Y745668D01*
X1103053Y745641D01*
X1103013Y745613D01*
X1102956Y745587D01*
X1102843Y745491D01*
X1102779Y745446D01*
X1101788Y744454D01*
X1099687Y743584D01*
X1097413Y743584D01*
X1095312Y744454D01*
X1093704Y746062D01*
X1092834Y748163D01*
X1092834Y750437D01*
X1093704Y752538D01*
X1095312Y754146D01*
X1097413Y755016D01*
X1099687Y755016D01*
X1101788Y754146D01*
X1102779Y753154D01*
X1102849Y753102D01*
X1102913Y753042D01*
X1102962Y753016D01*
X1103006Y752983D01*
X1103088Y752952D01*
X1103166Y752912D01*
X1103214Y752904D01*
X1103272Y752882D01*
X1103420Y752870D01*
X1103497Y752857D01*
X1157173Y752857D01*
X1171957Y738073D01*
X1171957Y709727D01*
X1157173Y694943D01*
X1135247Y694943D01*
X1135160Y694931D01*
X1135073Y694928D01*
X1135020Y694911D01*
X1134966Y694903D01*
X1134886Y694868D01*
X1134802Y694841D01*
X1134763Y694813D01*
X1134706Y694787D01*
X1134593Y694691D01*
X1134529Y694646D01*
X1133538Y693654D01*
X1131437Y692784D01*
X1129163Y692784D01*
G37*
%LPD*%
%LPC*%
G36*
X115186Y618489D02*
X115186Y618489D01*
X108324Y621332D01*
X103073Y626583D01*
X100230Y633445D01*
X100230Y640873D01*
X103073Y647735D01*
X108324Y652986D01*
X115186Y655829D01*
X122614Y655829D01*
X129476Y652986D01*
X134727Y647735D01*
X137570Y640873D01*
X137570Y633445D01*
X134727Y626583D01*
X129476Y621332D01*
X122614Y618489D01*
X115186Y618489D01*
G37*
%LPD*%
%LPC*%
G36*
X115186Y487171D02*
X115186Y487171D01*
X108324Y490014D01*
X103073Y495265D01*
X100230Y502127D01*
X100230Y509555D01*
X103073Y516417D01*
X108324Y521668D01*
X115186Y524511D01*
X122614Y524511D01*
X129476Y521668D01*
X134727Y516417D01*
X137570Y509555D01*
X137570Y502127D01*
X134727Y495265D01*
X129476Y490014D01*
X122614Y487171D01*
X115186Y487171D01*
G37*
%LPD*%
%LPC*%
G36*
X123397Y801887D02*
X123397Y801887D01*
X116740Y804645D01*
X111645Y809740D01*
X108887Y816397D01*
X108887Y823603D01*
X111645Y830260D01*
X116740Y835355D01*
X123397Y838113D01*
X130603Y838113D01*
X137260Y835355D01*
X142355Y830260D01*
X145113Y823603D01*
X145113Y816397D01*
X142355Y809740D01*
X137260Y804645D01*
X130603Y801887D01*
X123397Y801887D01*
G37*
%LPD*%
%LPC*%
G36*
X123397Y685887D02*
X123397Y685887D01*
X116740Y688645D01*
X111645Y693740D01*
X108887Y700397D01*
X108887Y707603D01*
X111645Y714260D01*
X116740Y719355D01*
X123397Y722113D01*
X130603Y722113D01*
X137260Y719355D01*
X142355Y714260D01*
X145113Y707603D01*
X145113Y700397D01*
X142355Y693740D01*
X137260Y688645D01*
X130603Y685887D01*
X123397Y685887D01*
G37*
%LPD*%
%LPC*%
G36*
X1014863Y629284D02*
X1014863Y629284D01*
X1012762Y630154D01*
X1011154Y631762D01*
X1010284Y633863D01*
X1010284Y636137D01*
X1011154Y638238D01*
X1012762Y639846D01*
X1014863Y640716D01*
X1017137Y640716D01*
X1019238Y639846D01*
X1020229Y638854D01*
X1020299Y638802D01*
X1020363Y638742D01*
X1020412Y638716D01*
X1020456Y638683D01*
X1020538Y638652D01*
X1020616Y638612D01*
X1020664Y638604D01*
X1020722Y638582D01*
X1020870Y638570D01*
X1020947Y638557D01*
X1115706Y638557D01*
X1115793Y638569D01*
X1115880Y638572D01*
X1115933Y638589D01*
X1115988Y638597D01*
X1116068Y638632D01*
X1116151Y638659D01*
X1116190Y638687D01*
X1116247Y638713D01*
X1116360Y638809D01*
X1116424Y638854D01*
X1124287Y646717D01*
X1124339Y646787D01*
X1124399Y646851D01*
X1124425Y646900D01*
X1124458Y646944D01*
X1124489Y647026D01*
X1124529Y647104D01*
X1124537Y647151D01*
X1124559Y647210D01*
X1124571Y647357D01*
X1124584Y647435D01*
X1124584Y648837D01*
X1125454Y650938D01*
X1127062Y652546D01*
X1129163Y653416D01*
X1131437Y653416D01*
X1133538Y652546D01*
X1135146Y650938D01*
X1136016Y648837D01*
X1136016Y646563D01*
X1135146Y644462D01*
X1133538Y642854D01*
X1131437Y641984D01*
X1130035Y641984D01*
X1129948Y641972D01*
X1129861Y641969D01*
X1129808Y641952D01*
X1129753Y641944D01*
X1129673Y641909D01*
X1129590Y641882D01*
X1129551Y641854D01*
X1129494Y641828D01*
X1129381Y641732D01*
X1129317Y641687D01*
X1119073Y631443D01*
X1020947Y631443D01*
X1020860Y631431D01*
X1020773Y631428D01*
X1020720Y631411D01*
X1020666Y631403D01*
X1020586Y631368D01*
X1020503Y631341D01*
X1020463Y631313D01*
X1020406Y631287D01*
X1020293Y631191D01*
X1020229Y631146D01*
X1019238Y630154D01*
X1017137Y629284D01*
X1014863Y629284D01*
G37*
%LPD*%
%LPC*%
G36*
X481463Y641984D02*
X481463Y641984D01*
X479362Y642854D01*
X477754Y644462D01*
X476884Y646563D01*
X476884Y648837D01*
X477754Y650938D01*
X479362Y652546D01*
X481463Y653416D01*
X483737Y653416D01*
X485838Y652546D01*
X486448Y651935D01*
X486518Y651883D01*
X486582Y651823D01*
X486631Y651797D01*
X486675Y651764D01*
X486757Y651733D01*
X486835Y651693D01*
X486882Y651685D01*
X486941Y651663D01*
X487089Y651651D01*
X487166Y651638D01*
X566934Y651638D01*
X567021Y651650D01*
X567108Y651653D01*
X567161Y651670D01*
X567215Y651678D01*
X567295Y651713D01*
X567378Y651740D01*
X567418Y651768D01*
X567475Y651794D01*
X567588Y651890D01*
X567652Y651935D01*
X568262Y652546D01*
X570363Y653416D01*
X572637Y653416D01*
X574738Y652546D01*
X576346Y650938D01*
X577216Y648837D01*
X577216Y646563D01*
X576346Y644462D01*
X574738Y642854D01*
X572637Y641984D01*
X570363Y641984D01*
X568262Y642854D01*
X567652Y643465D01*
X567582Y643517D01*
X567518Y643577D01*
X567469Y643603D01*
X567425Y643636D01*
X567343Y643667D01*
X567265Y643707D01*
X567217Y643715D01*
X567159Y643737D01*
X567011Y643749D01*
X566934Y643762D01*
X487166Y643762D01*
X487079Y643750D01*
X486992Y643747D01*
X486939Y643730D01*
X486885Y643722D01*
X486805Y643687D01*
X486721Y643660D01*
X486682Y643632D01*
X486625Y643606D01*
X486512Y643510D01*
X486448Y643465D01*
X485838Y642854D01*
X483737Y641984D01*
X481463Y641984D01*
G37*
%LPD*%
%LPC*%
G36*
X796917Y271017D02*
X796917Y271017D01*
X791035Y273454D01*
X786534Y277955D01*
X784097Y283837D01*
X784097Y290203D01*
X786534Y296085D01*
X791035Y300586D01*
X796917Y303023D01*
X803283Y303023D01*
X809165Y300586D01*
X813666Y296085D01*
X816103Y290203D01*
X816103Y283837D01*
X813666Y277955D01*
X809165Y273454D01*
X803283Y271017D01*
X796917Y271017D01*
G37*
%LPD*%
%LPC*%
G36*
X796917Y585977D02*
X796917Y585977D01*
X791035Y588414D01*
X786534Y592915D01*
X784097Y598797D01*
X784097Y605163D01*
X786534Y611045D01*
X791035Y615546D01*
X796917Y617983D01*
X803283Y617983D01*
X809165Y615546D01*
X813666Y611045D01*
X816103Y605163D01*
X816103Y598797D01*
X813666Y592915D01*
X809165Y588414D01*
X803283Y585977D01*
X796917Y585977D01*
G37*
%LPD*%
%LPC*%
G36*
X1014863Y680084D02*
X1014863Y680084D01*
X1012762Y680954D01*
X1011154Y682562D01*
X1010284Y684663D01*
X1010284Y686937D01*
X1011154Y689038D01*
X1012762Y690646D01*
X1014863Y691516D01*
X1017137Y691516D01*
X1019238Y690646D01*
X1020229Y689654D01*
X1020299Y689602D01*
X1020363Y689542D01*
X1020412Y689516D01*
X1020456Y689483D01*
X1020538Y689452D01*
X1020616Y689412D01*
X1020664Y689404D01*
X1020722Y689382D01*
X1020870Y689370D01*
X1020947Y689357D01*
X1090306Y689357D01*
X1090393Y689369D01*
X1090480Y689372D01*
X1090533Y689389D01*
X1090588Y689397D01*
X1090668Y689432D01*
X1090751Y689459D01*
X1090790Y689487D01*
X1090847Y689513D01*
X1090960Y689609D01*
X1091024Y689654D01*
X1098887Y697517D01*
X1098939Y697587D01*
X1098999Y697651D01*
X1099025Y697700D01*
X1099058Y697744D01*
X1099089Y697826D01*
X1099129Y697904D01*
X1099137Y697951D01*
X1099159Y698010D01*
X1099167Y698111D01*
X1099170Y698120D01*
X1099171Y698157D01*
X1099184Y698235D01*
X1099184Y699637D01*
X1100054Y701738D01*
X1101662Y703346D01*
X1103763Y704216D01*
X1106037Y704216D01*
X1108138Y703346D01*
X1109746Y701738D01*
X1110616Y699637D01*
X1110616Y697363D01*
X1109746Y695262D01*
X1108138Y693654D01*
X1106037Y692784D01*
X1104635Y692784D01*
X1104548Y692772D01*
X1104461Y692769D01*
X1104408Y692752D01*
X1104353Y692744D01*
X1104273Y692709D01*
X1104190Y692682D01*
X1104151Y692654D01*
X1104094Y692628D01*
X1103981Y692532D01*
X1103917Y692487D01*
X1093673Y682243D01*
X1020947Y682243D01*
X1020860Y682231D01*
X1020773Y682228D01*
X1020720Y682211D01*
X1020666Y682203D01*
X1020586Y682168D01*
X1020503Y682141D01*
X1020463Y682113D01*
X1020406Y682087D01*
X1020293Y681991D01*
X1020229Y681946D01*
X1019238Y680954D01*
X1017137Y680084D01*
X1014863Y680084D01*
G37*
%LPD*%
%LPC*%
G36*
X608463Y845184D02*
X608463Y845184D01*
X606344Y846062D01*
X606317Y846082D01*
X606253Y846142D01*
X606204Y846168D01*
X606160Y846201D01*
X606078Y846232D01*
X606000Y846272D01*
X605952Y846280D01*
X605894Y846302D01*
X605746Y846314D01*
X605669Y846327D01*
X556906Y846327D01*
X545646Y857587D01*
X545576Y857639D01*
X545513Y857699D01*
X545463Y857725D01*
X545419Y857758D01*
X545337Y857789D01*
X545259Y857829D01*
X545212Y857837D01*
X545153Y857859D01*
X545006Y857871D01*
X544987Y857874D01*
X542862Y858754D01*
X541254Y860362D01*
X540384Y862463D01*
X540384Y864737D01*
X541254Y866838D01*
X542862Y868446D01*
X544963Y869316D01*
X547237Y869316D01*
X549338Y868446D01*
X550946Y866838D01*
X551823Y864719D01*
X551824Y864716D01*
X551822Y864673D01*
X551829Y864647D01*
X551831Y864598D01*
X551848Y864545D01*
X551856Y864490D01*
X551890Y864412D01*
X551894Y864398D01*
X551897Y864394D01*
X551918Y864327D01*
X551946Y864288D01*
X551972Y864231D01*
X552068Y864117D01*
X552113Y864054D01*
X560397Y855770D01*
X560467Y855718D01*
X560530Y855658D01*
X560580Y855632D01*
X560624Y855599D01*
X560706Y855568D01*
X560784Y855528D01*
X560831Y855520D01*
X560890Y855498D01*
X561037Y855486D01*
X561115Y855473D01*
X605669Y855473D01*
X605756Y855485D01*
X605843Y855488D01*
X605896Y855505D01*
X605950Y855513D01*
X606030Y855548D01*
X606113Y855575D01*
X606153Y855603D01*
X606210Y855629D01*
X606323Y855725D01*
X606339Y855736D01*
X608463Y856616D01*
X610737Y856616D01*
X612838Y855746D01*
X614446Y854138D01*
X615316Y852037D01*
X615316Y849763D01*
X614446Y847662D01*
X612838Y846054D01*
X610737Y845184D01*
X608463Y845184D01*
G37*
%LPD*%
%LPC*%
G36*
X575738Y333247D02*
X575738Y333247D01*
X574547Y334438D01*
X574547Y351362D01*
X575738Y352553D01*
X592662Y352553D01*
X593853Y351362D01*
X593853Y334438D01*
X592662Y333247D01*
X575738Y333247D01*
G37*
%LPD*%
%LPC*%
G36*
X499538Y333247D02*
X499538Y333247D01*
X498347Y334438D01*
X498347Y351362D01*
X499538Y352553D01*
X516462Y352553D01*
X517653Y351362D01*
X517653Y334438D01*
X516462Y333247D01*
X499538Y333247D01*
G37*
%LPD*%
%LPC*%
G36*
X524938Y333247D02*
X524938Y333247D01*
X523747Y334438D01*
X523747Y351362D01*
X524938Y352553D01*
X541862Y352553D01*
X543053Y351362D01*
X543053Y334438D01*
X541862Y333247D01*
X524938Y333247D01*
G37*
%LPD*%
%LPC*%
G36*
X829738Y333247D02*
X829738Y333247D01*
X828547Y334438D01*
X828547Y351362D01*
X829738Y352553D01*
X846662Y352553D01*
X847853Y351362D01*
X847853Y334438D01*
X846662Y333247D01*
X829738Y333247D01*
G37*
%LPD*%
%LPC*%
G36*
X804338Y333247D02*
X804338Y333247D01*
X803147Y334438D01*
X803147Y351362D01*
X804338Y352553D01*
X821262Y352553D01*
X822453Y351362D01*
X822453Y334438D01*
X821262Y333247D01*
X804338Y333247D01*
G37*
%LPD*%
%LPC*%
G36*
X753538Y333247D02*
X753538Y333247D01*
X752347Y334438D01*
X752347Y351362D01*
X753538Y352553D01*
X770462Y352553D01*
X771653Y351362D01*
X771653Y334438D01*
X770462Y333247D01*
X753538Y333247D01*
G37*
%LPD*%
%LPC*%
G36*
X728138Y333247D02*
X728138Y333247D01*
X726947Y334438D01*
X726947Y351362D01*
X728138Y352553D01*
X745062Y352553D01*
X746253Y351362D01*
X746253Y334438D01*
X745062Y333247D01*
X728138Y333247D01*
G37*
%LPD*%
%LPC*%
G36*
X651938Y333247D02*
X651938Y333247D01*
X650747Y334438D01*
X650747Y351362D01*
X651938Y352553D01*
X668862Y352553D01*
X670053Y351362D01*
X670053Y334438D01*
X668862Y333247D01*
X651938Y333247D01*
G37*
%LPD*%
%LPC*%
G36*
X626538Y333247D02*
X626538Y333247D01*
X625347Y334438D01*
X625347Y351362D01*
X626538Y352553D01*
X643462Y352553D01*
X644653Y351362D01*
X644653Y334438D01*
X643462Y333247D01*
X626538Y333247D01*
G37*
%LPD*%
%LPC*%
G36*
X199599Y556005D02*
X199599Y556005D01*
X197638Y556817D01*
X196137Y558318D01*
X195325Y560279D01*
X195325Y562401D01*
X196137Y564362D01*
X196806Y565030D01*
X196858Y565100D01*
X196918Y565164D01*
X196944Y565213D01*
X196977Y565258D01*
X197008Y565339D01*
X197048Y565417D01*
X197056Y565465D01*
X197078Y565523D01*
X197090Y565671D01*
X197103Y565748D01*
X197103Y592492D01*
X197091Y592578D01*
X197088Y592666D01*
X197071Y592718D01*
X197063Y592773D01*
X197028Y592853D01*
X197001Y592936D01*
X196973Y592976D01*
X196947Y593033D01*
X196851Y593146D01*
X196806Y593210D01*
X196137Y593878D01*
X195325Y595839D01*
X195325Y597961D01*
X196137Y599922D01*
X197638Y601423D01*
X199599Y602235D01*
X201721Y602235D01*
X203682Y601423D01*
X205183Y599922D01*
X205995Y597961D01*
X205995Y595839D01*
X205183Y593878D01*
X204514Y593210D01*
X204462Y593140D01*
X204402Y593076D01*
X204376Y593027D01*
X204343Y592982D01*
X204312Y592901D01*
X204272Y592823D01*
X204264Y592775D01*
X204242Y592717D01*
X204230Y592569D01*
X204217Y592492D01*
X204217Y565748D01*
X204229Y565662D01*
X204232Y565574D01*
X204249Y565522D01*
X204257Y565467D01*
X204292Y565387D01*
X204319Y565304D01*
X204347Y565264D01*
X204373Y565207D01*
X204469Y565094D01*
X204514Y565030D01*
X205183Y564362D01*
X205995Y562401D01*
X205995Y560279D01*
X205183Y558318D01*
X203682Y556817D01*
X201721Y556005D01*
X199599Y556005D01*
G37*
%LPD*%
%LPC*%
G36*
X227539Y843025D02*
X227539Y843025D01*
X225578Y843837D01*
X224077Y845338D01*
X223265Y847299D01*
X223265Y849421D01*
X224077Y851382D01*
X224746Y852050D01*
X224798Y852120D01*
X224858Y852184D01*
X224884Y852233D01*
X224917Y852278D01*
X224948Y852359D01*
X224988Y852437D01*
X224996Y852485D01*
X225018Y852543D01*
X225030Y852691D01*
X225043Y852768D01*
X225043Y871892D01*
X225031Y871976D01*
X225032Y872012D01*
X225030Y872023D01*
X225028Y872066D01*
X225011Y872118D01*
X225003Y872173D01*
X224972Y872243D01*
X224961Y872287D01*
X224952Y872302D01*
X224941Y872336D01*
X224913Y872376D01*
X224887Y872433D01*
X224844Y872484D01*
X224815Y872532D01*
X224773Y872571D01*
X224746Y872610D01*
X224077Y873278D01*
X223265Y875239D01*
X223265Y877361D01*
X224077Y879322D01*
X225578Y880823D01*
X227539Y881635D01*
X229661Y881635D01*
X231622Y880823D01*
X233123Y879322D01*
X233935Y877361D01*
X233935Y875239D01*
X233123Y873278D01*
X232454Y872610D01*
X232438Y872588D01*
X232418Y872571D01*
X232387Y872524D01*
X232342Y872476D01*
X232316Y872427D01*
X232283Y872382D01*
X232271Y872350D01*
X232261Y872335D01*
X232246Y872290D01*
X232212Y872223D01*
X232204Y872175D01*
X232182Y872117D01*
X232179Y872075D01*
X232175Y872064D01*
X232174Y872018D01*
X232170Y871969D01*
X232157Y871892D01*
X232157Y852768D01*
X232169Y852682D01*
X232172Y852594D01*
X232189Y852542D01*
X232197Y852487D01*
X232232Y852407D01*
X232259Y852324D01*
X232287Y852284D01*
X232313Y852227D01*
X232409Y852114D01*
X232454Y852050D01*
X233123Y851382D01*
X233935Y849421D01*
X233935Y847299D01*
X233123Y845338D01*
X231622Y843837D01*
X229661Y843025D01*
X227539Y843025D01*
G37*
%LPD*%
%LPC*%
G36*
X124502Y776967D02*
X124502Y776967D01*
X121733Y778114D01*
X119614Y780233D01*
X118467Y783002D01*
X118467Y785998D01*
X119614Y788767D01*
X121733Y790886D01*
X124502Y792033D01*
X127498Y792033D01*
X130267Y790886D01*
X132386Y788767D01*
X133533Y785998D01*
X133533Y783002D01*
X132386Y780233D01*
X130267Y778114D01*
X127498Y776967D01*
X124502Y776967D01*
G37*
%LPD*%
%LPC*%
G36*
X124502Y731967D02*
X124502Y731967D01*
X121733Y733114D01*
X119614Y735233D01*
X118467Y738002D01*
X118467Y740998D01*
X119614Y743767D01*
X121733Y745886D01*
X124502Y747033D01*
X127498Y747033D01*
X130267Y745886D01*
X132386Y743767D01*
X133533Y740998D01*
X133533Y738002D01*
X132386Y735233D01*
X130267Y733114D01*
X127498Y731967D01*
X124502Y731967D01*
G37*
%LPD*%
%LPC*%
G36*
X153031Y799031D02*
X153031Y799031D01*
X153031Y808766D01*
X153796Y808645D01*
X155583Y808064D01*
X157257Y807211D01*
X158778Y806106D01*
X160106Y804778D01*
X161211Y803257D01*
X162064Y801583D01*
X162645Y799796D01*
X162766Y799031D01*
X153031Y799031D01*
G37*
%LPD*%
%LPC*%
G36*
X139234Y799031D02*
X139234Y799031D01*
X139355Y799796D01*
X139936Y801583D01*
X140789Y803257D01*
X141894Y804778D01*
X143222Y806106D01*
X144743Y807211D01*
X146417Y808064D01*
X148204Y808645D01*
X148969Y808766D01*
X148969Y799031D01*
X139234Y799031D01*
G37*
%LPD*%
%LPC*%
G36*
X560831Y344931D02*
X560831Y344931D01*
X560831Y353061D01*
X566754Y353061D01*
X567401Y352888D01*
X567980Y352553D01*
X568453Y352080D01*
X568788Y351501D01*
X568961Y350854D01*
X568961Y344931D01*
X560831Y344931D01*
G37*
%LPD*%
%LPC*%
G36*
X548639Y344931D02*
X548639Y344931D01*
X548639Y350854D01*
X548812Y351501D01*
X549147Y352080D01*
X549620Y352553D01*
X550199Y352888D01*
X550846Y353061D01*
X556769Y353061D01*
X556769Y344931D01*
X548639Y344931D01*
G37*
%LPD*%
%LPC*%
G36*
X560831Y332739D02*
X560831Y332739D01*
X560831Y340869D01*
X568961Y340869D01*
X568961Y334946D01*
X568788Y334299D01*
X568453Y333720D01*
X567980Y333247D01*
X567401Y332912D01*
X566754Y332739D01*
X560831Y332739D01*
G37*
%LPD*%
%LPC*%
G36*
X550846Y332739D02*
X550846Y332739D01*
X550199Y332912D01*
X549620Y333247D01*
X549147Y333720D01*
X548812Y334299D01*
X548639Y334946D01*
X548639Y340869D01*
X556769Y340869D01*
X556769Y332739D01*
X550846Y332739D01*
G37*
%LPD*%
%LPC*%
G36*
X471931Y833881D02*
X471931Y833881D01*
X471931Y843102D01*
X472577Y842999D01*
X474288Y842443D01*
X475891Y841626D01*
X477347Y840569D01*
X478619Y839297D01*
X479676Y837841D01*
X480493Y836238D01*
X481049Y834527D01*
X481152Y833881D01*
X471931Y833881D01*
G37*
%LPD*%
%LPC*%
G36*
X967231Y776731D02*
X967231Y776731D01*
X967231Y785952D01*
X967877Y785849D01*
X969588Y785293D01*
X971191Y784476D01*
X972647Y783419D01*
X973919Y782147D01*
X974976Y780691D01*
X975793Y779088D01*
X976349Y777377D01*
X976452Y776731D01*
X967231Y776731D01*
G37*
%LPD*%
%LPC*%
G36*
X967231Y814831D02*
X967231Y814831D01*
X967231Y824052D01*
X967877Y823949D01*
X969588Y823393D01*
X971191Y822576D01*
X972647Y821519D01*
X973919Y820247D01*
X974976Y818791D01*
X975793Y817188D01*
X976349Y815477D01*
X976452Y814831D01*
X967231Y814831D01*
G37*
%LPD*%
%LPC*%
G36*
X967231Y810769D02*
X967231Y810769D01*
X976452Y810769D01*
X976349Y810123D01*
X975793Y808412D01*
X974976Y806809D01*
X973919Y805353D01*
X972647Y804081D01*
X971191Y803024D01*
X969588Y802207D01*
X967877Y801651D01*
X967231Y801548D01*
X967231Y810769D01*
G37*
%LPD*%
%LPC*%
G36*
X458648Y833881D02*
X458648Y833881D01*
X458751Y834527D01*
X459307Y836238D01*
X460124Y837841D01*
X461181Y839297D01*
X462453Y840569D01*
X463909Y841626D01*
X465512Y842443D01*
X467223Y842999D01*
X467869Y843102D01*
X467869Y833881D01*
X458648Y833881D01*
G37*
%LPD*%
%LPC*%
G36*
X967231Y772669D02*
X967231Y772669D01*
X976452Y772669D01*
X976349Y772023D01*
X975793Y770312D01*
X974976Y768709D01*
X973919Y767253D01*
X972647Y765981D01*
X971191Y764924D01*
X969588Y764107D01*
X967877Y763551D01*
X967231Y763448D01*
X967231Y772669D01*
G37*
%LPD*%
%LPC*%
G36*
X458648Y795781D02*
X458648Y795781D01*
X458751Y796427D01*
X459307Y798138D01*
X460124Y799741D01*
X461181Y801197D01*
X462453Y802469D01*
X463909Y803526D01*
X465512Y804343D01*
X467223Y804899D01*
X467869Y805002D01*
X467869Y795781D01*
X458648Y795781D01*
G37*
%LPD*%
%LPC*%
G36*
X467223Y782601D02*
X467223Y782601D01*
X465512Y783157D01*
X463909Y783974D01*
X462453Y785031D01*
X461181Y786303D01*
X460124Y787759D01*
X459307Y789362D01*
X458751Y791073D01*
X458648Y791719D01*
X467869Y791719D01*
X467869Y782498D01*
X467223Y782601D01*
G37*
%LPD*%
%LPC*%
G36*
X467223Y820701D02*
X467223Y820701D01*
X465512Y821257D01*
X463909Y822074D01*
X462453Y823131D01*
X461181Y824403D01*
X460124Y825859D01*
X459307Y827462D01*
X458751Y829173D01*
X458648Y829819D01*
X467869Y829819D01*
X467869Y820598D01*
X467223Y820701D01*
G37*
%LPD*%
%LPC*%
G36*
X965199Y812799D02*
X965199Y812799D01*
X965199Y812801D01*
X965201Y812801D01*
X965201Y812799D01*
X965199Y812799D01*
G37*
%LPD*%
%LPC*%
G36*
X469899Y793749D02*
X469899Y793749D01*
X469899Y793751D01*
X469901Y793751D01*
X469901Y793749D01*
X469899Y793749D01*
G37*
%LPD*%
%LPC*%
G36*
X558799Y342899D02*
X558799Y342899D01*
X558799Y342901D01*
X558801Y342901D01*
X558801Y342899D01*
X558799Y342899D01*
G37*
%LPD*%
%LPC*%
G36*
X469899Y831849D02*
X469899Y831849D01*
X469899Y831851D01*
X469901Y831851D01*
X469901Y831849D01*
X469899Y831849D01*
G37*
%LPD*%
D10*
X863600Y342900D03*
X838200Y342900D03*
X812800Y342900D03*
X787400Y342900D03*
X762000Y342900D03*
X736600Y342900D03*
X711200Y342900D03*
X685800Y342900D03*
X660400Y342900D03*
X635000Y342900D03*
X609600Y342900D03*
X584200Y342900D03*
X558800Y342900D03*
X533400Y342900D03*
X508000Y342900D03*
X482600Y342900D03*
X863600Y546100D03*
X838200Y546100D03*
X812800Y546100D03*
X787400Y546100D03*
X762000Y546100D03*
X736600Y546100D03*
X711200Y546100D03*
X685800Y546100D03*
X660400Y546100D03*
X635000Y546100D03*
X609600Y546100D03*
X584200Y546100D03*
D11*
X482600Y774700D03*
X508000Y774700D03*
X533400Y774700D03*
X558800Y774700D03*
X584200Y774700D03*
X609600Y774700D03*
X635000Y774700D03*
X660400Y774700D03*
X685800Y774700D03*
X711200Y774700D03*
X736600Y774700D03*
X762000Y774700D03*
X787400Y774700D03*
X812800Y774700D03*
X838200Y774700D03*
X863600Y774700D03*
X889000Y774700D03*
X914400Y774700D03*
X939800Y774700D03*
X965200Y774700D03*
X469900Y793750D03*
X495300Y793750D03*
X520700Y793750D03*
X546100Y793750D03*
X571500Y793750D03*
X596900Y793750D03*
X622300Y793750D03*
X647700Y793750D03*
X673100Y793750D03*
X698500Y793750D03*
X723900Y793750D03*
X749300Y793750D03*
X774700Y793750D03*
X800100Y793750D03*
X825500Y793750D03*
X850900Y793750D03*
X876300Y793750D03*
X901700Y793750D03*
X927100Y793750D03*
X952500Y793750D03*
X482600Y812800D03*
X508000Y812800D03*
X533400Y812800D03*
X558800Y812800D03*
X584200Y812800D03*
X609600Y812800D03*
X635000Y812800D03*
X660400Y812800D03*
X685800Y812800D03*
X711200Y812800D03*
X736600Y812800D03*
X762000Y812800D03*
X787400Y812800D03*
X812800Y812800D03*
X838200Y812800D03*
X863600Y812800D03*
X889000Y812800D03*
X914400Y812800D03*
X939800Y812800D03*
X965200Y812800D03*
X469900Y831850D03*
X495300Y831850D03*
X520700Y831850D03*
X546100Y831850D03*
X571500Y831850D03*
X596900Y831850D03*
X622300Y831850D03*
X647700Y831850D03*
X673100Y831850D03*
X698500Y831850D03*
X723900Y831850D03*
X749300Y831850D03*
X774700Y831850D03*
X800100Y831850D03*
X825500Y831850D03*
X850900Y831850D03*
X876300Y831850D03*
X901700Y831850D03*
X927100Y831850D03*
X952500Y831850D03*
D12*
X406400Y152400D03*
X533400Y152400D03*
D13*
X118900Y505841D03*
X118900Y637159D03*
D12*
X151000Y797000D03*
X151000Y773270D03*
X151000Y750730D03*
X151000Y727000D03*
D14*
X127000Y704000D03*
X127000Y820000D03*
D15*
X622300Y609600D03*
D16*
X635000Y622300D01*
X635000Y774700D01*
X609600Y381000D02*
X609600Y342900D01*
X609600Y381000D02*
X596900Y393700D01*
X546100Y393700D01*
X533400Y406400D01*
X533400Y457200D01*
X546100Y469900D01*
X635000Y469900D01*
X647700Y482600D01*
X647700Y793750D01*
X736600Y685800D02*
X736600Y546100D01*
X736600Y685800D02*
X749300Y698500D01*
X749300Y793750D01*
X812800Y571500D02*
X812800Y546100D01*
X812800Y571500D02*
X825500Y584200D01*
X825500Y793750D01*
X787400Y571500D02*
X787400Y546100D01*
X787400Y571500D02*
X774700Y584200D01*
X774700Y793750D01*
X762000Y774700D02*
X762000Y546100D01*
D15*
X965200Y749300D03*
X977900Y749300D03*
X965200Y736600D03*
X977900Y736600D03*
X965200Y723900D03*
X977900Y723900D03*
X977900Y711200D03*
X965200Y711200D03*
X965200Y698500D03*
X977900Y698500D03*
X889000Y876300D03*
X876300Y876300D03*
X863600Y876300D03*
X850900Y876300D03*
X838200Y876300D03*
X825500Y876300D03*
X812800Y876300D03*
X647700Y876300D03*
X660400Y876300D03*
X673100Y876300D03*
X685800Y876300D03*
X698500Y876300D03*
X711200Y876300D03*
X723900Y876300D03*
X736600Y876300D03*
X749300Y876300D03*
X762000Y876300D03*
X774700Y876300D03*
X787400Y876300D03*
X800100Y876300D03*
D16*
X685800Y495300D02*
X685800Y342900D01*
X685800Y495300D02*
X698500Y508000D01*
X698500Y723900D01*
X711200Y736600D01*
X711200Y774700D01*
X711200Y495300D02*
X711200Y342900D01*
X711200Y495300D02*
X723900Y508000D01*
X723900Y698500D01*
X736600Y711200D01*
X736600Y774700D01*
X711200Y711200D02*
X711200Y546100D01*
X711200Y711200D02*
X723900Y723900D01*
X723900Y793750D01*
X901700Y793750D02*
X901700Y647700D01*
D15*
X901700Y647700D03*
D16*
X914400Y635000D02*
X914400Y774700D01*
D15*
X914400Y635000D03*
X1016000Y635000D03*
D16*
X1117600Y635000D01*
X1130300Y647700D01*
D15*
X1130300Y647700D03*
X1016000Y685800D03*
D16*
X1092200Y685800D01*
X1104900Y698500D01*
D15*
X1104900Y698500D03*
X1028700Y673100D03*
D16*
X1155700Y673100D01*
X1168400Y685800D01*
D15*
X1168400Y685800D03*
D16*
X889000Y673100D02*
X889000Y774700D01*
D17*
X889000Y673100D03*
D16*
X533400Y812800D02*
X533400Y881380D01*
X541020Y889000D02*
X990600Y889000D01*
X1016000Y863600D01*
D15*
X1016000Y800100D03*
D16*
X541020Y889000D02*
X533400Y881380D01*
X1016000Y863600D02*
X1016000Y800100D01*
D15*
X1130300Y698500D03*
D16*
X1155700Y698500D01*
X1168400Y711200D01*
X1168400Y736600D01*
X1155700Y749300D01*
D15*
X1098550Y749300D03*
D16*
X1155700Y749300D01*
X596900Y749300D02*
X596900Y793750D01*
X596900Y749300D02*
X558800Y711200D01*
D18*
X355600Y711200D01*
X342900Y698500D01*
D15*
X342900Y685800D03*
D18*
X342900Y698500D01*
D16*
X927100Y793750D02*
X927100Y228600D01*
X914400Y215900D01*
D15*
X914400Y215900D03*
D16*
X939800Y190500D02*
X939800Y774700D01*
X939800Y190500D02*
X927100Y177800D01*
D15*
X927100Y177800D03*
D16*
X939800Y812800D02*
X939800Y850900D01*
X952500Y863600D01*
X977900Y863600D01*
X990600Y850900D01*
X990600Y584200D01*
X965200Y558800D01*
X965200Y114300D01*
X952500Y101600D01*
X939800Y101600D01*
D15*
X939800Y101600D03*
D16*
X952500Y152400D02*
X952500Y793750D01*
X952500Y152400D02*
X939800Y139700D01*
D15*
X939800Y139700D03*
X495300Y685800D03*
D19*
X558800Y685800D01*
X584200Y660400D02*
X584200Y546100D01*
X584200Y660400D02*
X558800Y685800D01*
D15*
X482600Y647700D03*
D19*
X571500Y647700D01*
D15*
X571500Y647700D03*
X546100Y863600D03*
D20*
X558800Y850900D02*
X609600Y850900D01*
X558800Y850900D02*
X546100Y863600D01*
D15*
X609600Y850900D03*
D16*
X533400Y762000D02*
X508000Y736600D01*
X533400Y762000D02*
X533400Y774700D01*
D18*
X508000Y736600D02*
X279400Y736600D01*
X266700Y723900D01*
X266700Y254000D01*
X279400Y241300D01*
X393700Y241300D01*
X406400Y228600D01*
X406400Y152400D01*
D16*
X513080Y723900D02*
X546100Y756920D01*
X546100Y793750D01*
D18*
X513080Y723900D02*
X292100Y723900D01*
X279400Y711200D01*
X279400Y279400D01*
X292100Y266700D01*
X520700Y266700D01*
X533400Y254000D01*
X533400Y152400D01*
D15*
X444500Y749300D03*
D16*
X505460Y749300D01*
D15*
X505460Y749300D03*
X538480Y728980D03*
D16*
X548640Y728980D02*
X571500Y751840D01*
X548640Y728980D02*
X538480Y728980D01*
X571500Y751840D02*
X571500Y793750D01*
X239870Y750730D02*
X151000Y750730D01*
X254000Y736600D02*
X254000Y632460D01*
D17*
X254000Y632460D03*
D16*
X254000Y736600D02*
X239870Y750730D01*
D15*
X558800Y876300D03*
D16*
X609600Y876300D01*
X635000Y850900D01*
X635000Y812800D01*
D17*
X228600Y848360D03*
D16*
X228600Y876300D01*
D17*
X228600Y876300D03*
X200660Y561340D03*
D16*
X200660Y596900D01*
D17*
X200660Y596900D03*
D16*
X609600Y546100D02*
X609600Y711200D01*
X622300Y723900D01*
X622300Y793750D01*
X482600Y444500D02*
X482600Y342900D01*
X482600Y444500D02*
X520700Y482600D01*
X520700Y609600D01*
D15*
X520700Y609600D03*
D16*
X787400Y381000D02*
X787400Y342900D01*
X787400Y381000D02*
X800100Y393700D01*
X838200Y393700D01*
X850900Y406400D01*
X850900Y723900D01*
X838200Y736600D01*
X838200Y774700D01*
X863600Y431800D02*
X863600Y342900D01*
X863600Y431800D02*
X876300Y444500D01*
X876300Y723900D01*
X863600Y736600D01*
X863600Y774700D01*
M02*
