G04 EAGLE Gerber RS-274X export*
G75*
%MOMM*%
%FSLAX34Y34*%
%LPD*%
%INSolderpaste Top*%
%IPPOS*%
%AMOC8*
5,1,8,0,0,1.08239X$1,22.5*%
G01*
%ADD10R,0.600000X1.200000*%
%ADD11R,1.200000X1.400000*%
%ADD12R,1.000000X1.100000*%
%ADD13R,0.830000X0.630000*%
%ADD14R,3.000000X0.900000*%
%ADD15R,2.000000X1.200000*%
%ADD16R,1.350000X0.600000*%


D10*
X1073150Y670500D03*
X1085850Y670500D03*
X1098550Y670500D03*
X1111250Y670500D03*
X1123950Y670500D03*
X1136650Y670500D03*
X1149350Y670500D03*
X1149350Y726500D03*
X1136650Y726500D03*
X1123950Y726500D03*
X1111250Y726500D03*
X1098550Y726500D03*
X1085850Y726500D03*
X1073150Y726500D03*
D11*
X975600Y101600D03*
X1005600Y101600D03*
X975600Y139700D03*
X1005600Y139700D03*
X975600Y177800D03*
X1005600Y177800D03*
X975600Y215900D03*
X1005600Y215900D03*
D12*
X444500Y232800D03*
X444500Y249800D03*
X444500Y194700D03*
X444500Y211700D03*
X495300Y194700D03*
X495300Y211700D03*
X495300Y232800D03*
X495300Y249800D03*
D13*
X406400Y786200D03*
X406400Y763200D03*
D12*
X406400Y804300D03*
X406400Y821300D03*
D14*
X161020Y581500D03*
X161020Y606500D03*
X161020Y561500D03*
X161020Y536500D03*
D10*
X209550Y670500D03*
X222250Y670500D03*
X234950Y670500D03*
X247650Y670500D03*
X260350Y670500D03*
X273050Y670500D03*
X285750Y670500D03*
X285750Y726500D03*
X273050Y726500D03*
X260350Y726500D03*
X247650Y726500D03*
X234950Y726500D03*
X222250Y726500D03*
X209550Y726500D03*
D15*
X102950Y269300D03*
X102950Y213300D03*
D16*
X139700Y256300D03*
X139700Y246300D03*
X139700Y236300D03*
X139700Y226300D03*
D12*
X1054100Y707000D03*
X1054100Y690000D03*
X190500Y728100D03*
X190500Y745100D03*
X177800Y258200D03*
X177800Y275200D03*
X203200Y275200D03*
X203200Y258200D03*
M02*
