G04 EAGLE Gerber RS-274X export*
G75*
%MOMM*%
%FSLAX34Y34*%
%LPD*%
%INSolderpaste Top*%
%IPPOS*%
%AMOC8*
5,1,8,0,0,1.08239X$1,22.5*%
G01*
%ADD10R,1.000000X1.100000*%
%ADD11R,1.100000X1.000000*%
%ADD12R,1.200000X2.000000*%
%ADD13R,0.600000X1.350000*%
%ADD14R,2.750000X1.200000*%
%ADD15R,1.750000X0.300000*%
%ADD16R,0.250000X0.637500*%
%ADD17R,0.500000X0.640000*%
%ADD18R,0.550000X1.200000*%
%ADD19R,1.375000X0.800000*%
%ADD20R,0.300000X0.650000*%
%ADD21C,0.300000*%
%ADD22R,1.524000X0.762000*%
%ADD23R,1.000000X0.300000*%
%ADD24R,1.000000X0.600000*%
%ADD25R,1.000000X4.600000*%
%ADD26R,1.600000X3.400000*%
%ADD27R,0.830000X0.630000*%

G36*
X1800729Y979161D02*
X1800729Y979161D01*
X1800774Y979162D01*
X1800825Y979184D01*
X1800880Y979197D01*
X1800916Y979223D01*
X1800956Y979241D01*
X1800995Y979282D01*
X1801040Y979315D01*
X1801063Y979353D01*
X1801093Y979385D01*
X1801113Y979438D01*
X1801142Y979486D01*
X1801150Y979537D01*
X1801163Y979571D01*
X1801162Y979605D01*
X1801169Y979650D01*
X1801169Y990650D01*
X1801159Y990703D01*
X1801158Y990756D01*
X1801139Y990799D01*
X1801130Y990845D01*
X1801099Y990889D01*
X1801078Y990938D01*
X1801044Y990970D01*
X1801017Y991009D01*
X1800972Y991038D01*
X1800933Y991074D01*
X1800882Y991095D01*
X1800850Y991116D01*
X1800818Y991121D01*
X1800779Y991137D01*
X1798044Y991748D01*
X1795480Y992776D01*
X1793116Y994203D01*
X1791012Y995992D01*
X1789223Y998096D01*
X1787796Y1000460D01*
X1786768Y1003024D01*
X1786157Y1005759D01*
X1786135Y1005808D01*
X1786123Y1005860D01*
X1786095Y1005898D01*
X1786076Y1005940D01*
X1786037Y1005977D01*
X1786005Y1006020D01*
X1785965Y1006044D01*
X1785931Y1006076D01*
X1785880Y1006094D01*
X1785834Y1006122D01*
X1785780Y1006131D01*
X1785744Y1006144D01*
X1785712Y1006142D01*
X1785670Y1006149D01*
X1774670Y1006149D01*
X1774615Y1006138D01*
X1774559Y1006137D01*
X1774518Y1006118D01*
X1774475Y1006110D01*
X1774429Y1006078D01*
X1774378Y1006055D01*
X1774348Y1006022D01*
X1774311Y1005997D01*
X1774281Y1005950D01*
X1774243Y1005908D01*
X1774228Y1005867D01*
X1774204Y1005830D01*
X1774195Y1005774D01*
X1774176Y1005721D01*
X1774177Y1005669D01*
X1774171Y1005633D01*
X1774179Y1005601D01*
X1774179Y1005596D01*
X1774179Y1005594D01*
X1774179Y1005593D01*
X1774180Y1005555D01*
X1775019Y1001234D01*
X1775031Y1001205D01*
X1775039Y1001163D01*
X1776508Y997013D01*
X1776524Y996986D01*
X1776538Y996946D01*
X1778604Y993059D01*
X1778624Y993035D01*
X1778643Y992997D01*
X1781261Y989458D01*
X1781285Y989437D01*
X1781310Y989402D01*
X1784422Y986290D01*
X1784437Y986280D01*
X1784445Y986269D01*
X1784460Y986260D01*
X1784478Y986241D01*
X1788017Y983623D01*
X1788045Y983610D01*
X1788079Y983584D01*
X1791966Y981518D01*
X1791996Y981509D01*
X1792033Y981488D01*
X1796183Y980019D01*
X1796214Y980014D01*
X1796254Y979999D01*
X1800575Y979160D01*
X1800631Y979160D01*
X1800687Y979151D01*
X1800729Y979161D01*
G37*
G36*
X1800729Y278121D02*
X1800729Y278121D01*
X1800774Y278122D01*
X1800825Y278144D01*
X1800880Y278157D01*
X1800916Y278183D01*
X1800956Y278201D01*
X1800995Y278242D01*
X1801040Y278275D01*
X1801063Y278313D01*
X1801093Y278345D01*
X1801113Y278398D01*
X1801142Y278446D01*
X1801150Y278497D01*
X1801163Y278531D01*
X1801162Y278565D01*
X1801169Y278610D01*
X1801169Y289610D01*
X1801159Y289663D01*
X1801158Y289716D01*
X1801139Y289759D01*
X1801130Y289805D01*
X1801099Y289849D01*
X1801078Y289898D01*
X1801044Y289930D01*
X1801017Y289969D01*
X1800972Y289998D01*
X1800933Y290034D01*
X1800882Y290055D01*
X1800850Y290076D01*
X1800818Y290081D01*
X1800779Y290097D01*
X1798044Y290708D01*
X1795480Y291736D01*
X1793116Y293163D01*
X1791012Y294952D01*
X1789223Y297056D01*
X1787796Y299420D01*
X1786768Y301984D01*
X1786157Y304719D01*
X1786135Y304768D01*
X1786123Y304820D01*
X1786095Y304858D01*
X1786076Y304900D01*
X1786037Y304937D01*
X1786005Y304980D01*
X1785965Y305004D01*
X1785931Y305036D01*
X1785880Y305054D01*
X1785834Y305082D01*
X1785780Y305091D01*
X1785744Y305104D01*
X1785712Y305102D01*
X1785670Y305109D01*
X1774670Y305109D01*
X1774615Y305098D01*
X1774559Y305097D01*
X1774518Y305078D01*
X1774475Y305070D01*
X1774429Y305038D01*
X1774378Y305015D01*
X1774348Y304982D01*
X1774311Y304957D01*
X1774281Y304910D01*
X1774243Y304868D01*
X1774228Y304827D01*
X1774204Y304790D01*
X1774195Y304734D01*
X1774176Y304681D01*
X1774177Y304629D01*
X1774171Y304593D01*
X1774179Y304561D01*
X1774179Y304556D01*
X1774179Y304554D01*
X1774179Y304553D01*
X1774180Y304515D01*
X1775019Y300194D01*
X1775031Y300165D01*
X1775039Y300123D01*
X1776508Y295973D01*
X1776524Y295946D01*
X1776538Y295906D01*
X1778604Y292019D01*
X1778624Y291995D01*
X1778643Y291957D01*
X1781261Y288418D01*
X1781285Y288397D01*
X1781310Y288362D01*
X1784422Y285250D01*
X1784437Y285240D01*
X1784445Y285229D01*
X1784460Y285220D01*
X1784478Y285201D01*
X1788017Y282583D01*
X1788045Y282570D01*
X1788079Y282544D01*
X1791966Y280478D01*
X1791996Y280469D01*
X1792033Y280448D01*
X1796183Y278979D01*
X1796214Y278974D01*
X1796254Y278959D01*
X1800575Y278120D01*
X1800631Y278120D01*
X1800687Y278111D01*
X1800729Y278121D01*
G37*
G36*
X855849Y278121D02*
X855849Y278121D01*
X855894Y278122D01*
X855945Y278144D01*
X856000Y278157D01*
X856036Y278183D01*
X856076Y278201D01*
X856115Y278242D01*
X856160Y278275D01*
X856183Y278313D01*
X856213Y278345D01*
X856233Y278398D01*
X856262Y278446D01*
X856270Y278497D01*
X856283Y278531D01*
X856282Y278565D01*
X856289Y278610D01*
X856289Y289610D01*
X856279Y289663D01*
X856278Y289716D01*
X856259Y289759D01*
X856250Y289805D01*
X856219Y289849D01*
X856198Y289898D01*
X856164Y289930D01*
X856137Y289969D01*
X856092Y289998D01*
X856053Y290034D01*
X856002Y290055D01*
X855970Y290076D01*
X855938Y290081D01*
X855899Y290097D01*
X853164Y290708D01*
X850600Y291736D01*
X848236Y293163D01*
X846132Y294952D01*
X844343Y297056D01*
X842916Y299420D01*
X841888Y301984D01*
X841277Y304719D01*
X841255Y304768D01*
X841243Y304820D01*
X841215Y304858D01*
X841196Y304900D01*
X841157Y304937D01*
X841125Y304980D01*
X841085Y305004D01*
X841051Y305036D01*
X841000Y305054D01*
X840954Y305082D01*
X840900Y305091D01*
X840864Y305104D01*
X840832Y305102D01*
X840790Y305109D01*
X829790Y305109D01*
X829735Y305098D01*
X829679Y305097D01*
X829638Y305078D01*
X829595Y305070D01*
X829549Y305038D01*
X829498Y305015D01*
X829468Y304982D01*
X829431Y304957D01*
X829401Y304910D01*
X829363Y304868D01*
X829348Y304827D01*
X829324Y304790D01*
X829315Y304734D01*
X829296Y304681D01*
X829297Y304629D01*
X829291Y304593D01*
X829299Y304561D01*
X829299Y304556D01*
X829299Y304554D01*
X829299Y304553D01*
X829300Y304515D01*
X830139Y300194D01*
X830151Y300165D01*
X830159Y300123D01*
X831628Y295973D01*
X831644Y295946D01*
X831658Y295906D01*
X833724Y292019D01*
X833744Y291995D01*
X833763Y291957D01*
X836381Y288418D01*
X836405Y288397D01*
X836430Y288362D01*
X839542Y285250D01*
X839557Y285240D01*
X839565Y285229D01*
X839580Y285220D01*
X839598Y285201D01*
X843137Y282583D01*
X843165Y282570D01*
X843199Y282544D01*
X847086Y280478D01*
X847116Y280469D01*
X847153Y280448D01*
X851303Y278979D01*
X851334Y278974D01*
X851374Y278959D01*
X855695Y278120D01*
X855751Y278120D01*
X855807Y278111D01*
X855849Y278121D01*
G37*
G36*
X855849Y745481D02*
X855849Y745481D01*
X855894Y745482D01*
X855945Y745504D01*
X856000Y745517D01*
X856036Y745543D01*
X856076Y745561D01*
X856115Y745602D01*
X856160Y745635D01*
X856183Y745673D01*
X856213Y745705D01*
X856233Y745758D01*
X856262Y745806D01*
X856270Y745857D01*
X856283Y745891D01*
X856282Y745925D01*
X856289Y745970D01*
X856289Y756970D01*
X856279Y757023D01*
X856278Y757076D01*
X856259Y757119D01*
X856250Y757165D01*
X856219Y757209D01*
X856198Y757258D01*
X856164Y757290D01*
X856137Y757329D01*
X856092Y757358D01*
X856053Y757394D01*
X856002Y757415D01*
X855970Y757436D01*
X855938Y757441D01*
X855899Y757457D01*
X853164Y758068D01*
X850600Y759096D01*
X848236Y760523D01*
X846132Y762312D01*
X844343Y764416D01*
X842916Y766780D01*
X841888Y769344D01*
X841277Y772079D01*
X841255Y772128D01*
X841243Y772180D01*
X841215Y772218D01*
X841196Y772260D01*
X841157Y772297D01*
X841125Y772340D01*
X841085Y772364D01*
X841051Y772396D01*
X841000Y772414D01*
X840954Y772442D01*
X840900Y772451D01*
X840864Y772464D01*
X840832Y772462D01*
X840790Y772469D01*
X829790Y772469D01*
X829735Y772458D01*
X829679Y772457D01*
X829638Y772438D01*
X829595Y772430D01*
X829549Y772398D01*
X829498Y772375D01*
X829468Y772342D01*
X829431Y772317D01*
X829401Y772270D01*
X829363Y772228D01*
X829348Y772187D01*
X829324Y772150D01*
X829315Y772094D01*
X829296Y772041D01*
X829297Y771989D01*
X829291Y771953D01*
X829299Y771921D01*
X829299Y771916D01*
X829299Y771914D01*
X829299Y771913D01*
X829300Y771875D01*
X830139Y767554D01*
X830151Y767525D01*
X830159Y767483D01*
X831628Y763333D01*
X831644Y763306D01*
X831658Y763266D01*
X833724Y759379D01*
X833744Y759355D01*
X833763Y759317D01*
X836381Y755778D01*
X836405Y755757D01*
X836430Y755722D01*
X839542Y752610D01*
X839557Y752600D01*
X839565Y752589D01*
X839580Y752580D01*
X839598Y752561D01*
X843137Y749943D01*
X843165Y749930D01*
X843199Y749904D01*
X847086Y747838D01*
X847116Y747829D01*
X847153Y747808D01*
X851303Y746339D01*
X851334Y746334D01*
X851374Y746319D01*
X855695Y745480D01*
X855751Y745480D01*
X855807Y745471D01*
X855849Y745481D01*
G37*
G36*
X855849Y979161D02*
X855849Y979161D01*
X855894Y979162D01*
X855945Y979184D01*
X856000Y979197D01*
X856036Y979223D01*
X856076Y979241D01*
X856115Y979282D01*
X856160Y979315D01*
X856183Y979353D01*
X856213Y979385D01*
X856233Y979438D01*
X856262Y979486D01*
X856270Y979537D01*
X856283Y979571D01*
X856282Y979605D01*
X856289Y979650D01*
X856289Y990650D01*
X856279Y990703D01*
X856278Y990756D01*
X856259Y990799D01*
X856250Y990845D01*
X856219Y990889D01*
X856198Y990938D01*
X856164Y990970D01*
X856137Y991009D01*
X856092Y991038D01*
X856053Y991074D01*
X856002Y991095D01*
X855970Y991116D01*
X855938Y991121D01*
X855899Y991137D01*
X853164Y991748D01*
X850600Y992776D01*
X848236Y994203D01*
X846132Y995992D01*
X844343Y998096D01*
X842916Y1000460D01*
X841888Y1003024D01*
X841277Y1005759D01*
X841255Y1005808D01*
X841243Y1005860D01*
X841215Y1005898D01*
X841196Y1005940D01*
X841157Y1005977D01*
X841125Y1006020D01*
X841085Y1006044D01*
X841051Y1006076D01*
X841000Y1006094D01*
X840954Y1006122D01*
X840900Y1006131D01*
X840864Y1006144D01*
X840832Y1006142D01*
X840790Y1006149D01*
X829790Y1006149D01*
X829735Y1006138D01*
X829679Y1006137D01*
X829638Y1006118D01*
X829595Y1006110D01*
X829549Y1006078D01*
X829498Y1006055D01*
X829468Y1006022D01*
X829431Y1005997D01*
X829401Y1005950D01*
X829363Y1005908D01*
X829348Y1005867D01*
X829324Y1005830D01*
X829315Y1005774D01*
X829296Y1005721D01*
X829297Y1005669D01*
X829291Y1005633D01*
X829299Y1005601D01*
X829299Y1005596D01*
X829299Y1005594D01*
X829299Y1005593D01*
X829300Y1005555D01*
X830139Y1001234D01*
X830151Y1001205D01*
X830159Y1001163D01*
X831628Y997013D01*
X831644Y996986D01*
X831658Y996946D01*
X833724Y993059D01*
X833744Y993035D01*
X833763Y992997D01*
X836381Y989458D01*
X836405Y989437D01*
X836430Y989402D01*
X839542Y986290D01*
X839557Y986280D01*
X839565Y986269D01*
X839580Y986260D01*
X839598Y986241D01*
X843137Y983623D01*
X843165Y983610D01*
X843199Y983584D01*
X847086Y981518D01*
X847116Y981509D01*
X847153Y981488D01*
X851303Y980019D01*
X851334Y980014D01*
X851374Y979999D01*
X855695Y979160D01*
X855751Y979160D01*
X855807Y979151D01*
X855849Y979161D01*
G37*
G36*
X1800729Y745481D02*
X1800729Y745481D01*
X1800774Y745482D01*
X1800825Y745504D01*
X1800880Y745517D01*
X1800916Y745543D01*
X1800956Y745561D01*
X1800995Y745602D01*
X1801040Y745635D01*
X1801063Y745673D01*
X1801093Y745705D01*
X1801113Y745758D01*
X1801142Y745806D01*
X1801150Y745857D01*
X1801163Y745891D01*
X1801162Y745925D01*
X1801169Y745970D01*
X1801169Y756970D01*
X1801159Y757023D01*
X1801158Y757076D01*
X1801139Y757119D01*
X1801130Y757165D01*
X1801099Y757209D01*
X1801078Y757258D01*
X1801044Y757290D01*
X1801017Y757329D01*
X1800972Y757358D01*
X1800933Y757394D01*
X1800882Y757415D01*
X1800850Y757436D01*
X1800818Y757441D01*
X1800779Y757457D01*
X1798044Y758068D01*
X1795480Y759096D01*
X1793116Y760523D01*
X1791012Y762312D01*
X1789223Y764416D01*
X1787796Y766780D01*
X1786768Y769344D01*
X1786157Y772079D01*
X1786135Y772128D01*
X1786123Y772180D01*
X1786095Y772218D01*
X1786076Y772260D01*
X1786037Y772297D01*
X1786005Y772340D01*
X1785965Y772364D01*
X1785931Y772396D01*
X1785880Y772414D01*
X1785834Y772442D01*
X1785780Y772451D01*
X1785744Y772464D01*
X1785712Y772462D01*
X1785670Y772469D01*
X1774670Y772469D01*
X1774615Y772458D01*
X1774559Y772457D01*
X1774518Y772438D01*
X1774475Y772430D01*
X1774429Y772398D01*
X1774378Y772375D01*
X1774348Y772342D01*
X1774311Y772317D01*
X1774281Y772270D01*
X1774243Y772228D01*
X1774228Y772187D01*
X1774204Y772150D01*
X1774195Y772094D01*
X1774176Y772041D01*
X1774177Y771989D01*
X1774171Y771953D01*
X1774179Y771921D01*
X1774179Y771916D01*
X1774179Y771914D01*
X1774179Y771913D01*
X1774180Y771875D01*
X1775019Y767554D01*
X1775031Y767525D01*
X1775039Y767483D01*
X1776508Y763333D01*
X1776524Y763306D01*
X1776538Y763266D01*
X1778604Y759379D01*
X1778624Y759355D01*
X1778643Y759317D01*
X1781261Y755778D01*
X1781285Y755757D01*
X1781310Y755722D01*
X1784422Y752610D01*
X1784437Y752600D01*
X1784445Y752589D01*
X1784460Y752580D01*
X1784478Y752561D01*
X1788017Y749943D01*
X1788045Y749930D01*
X1788079Y749904D01*
X1791966Y747838D01*
X1791996Y747829D01*
X1792033Y747808D01*
X1796183Y746339D01*
X1796214Y746334D01*
X1796254Y746319D01*
X1800575Y745480D01*
X1800631Y745480D01*
X1800687Y745471D01*
X1800729Y745481D01*
G37*
G36*
X855849Y511801D02*
X855849Y511801D01*
X855894Y511802D01*
X855945Y511824D01*
X856000Y511837D01*
X856036Y511863D01*
X856076Y511881D01*
X856115Y511922D01*
X856160Y511955D01*
X856183Y511993D01*
X856213Y512025D01*
X856233Y512078D01*
X856262Y512126D01*
X856270Y512177D01*
X856283Y512211D01*
X856282Y512245D01*
X856289Y512290D01*
X856289Y523290D01*
X856279Y523343D01*
X856278Y523396D01*
X856259Y523439D01*
X856250Y523485D01*
X856219Y523529D01*
X856198Y523578D01*
X856164Y523610D01*
X856137Y523649D01*
X856092Y523678D01*
X856053Y523714D01*
X856002Y523735D01*
X855970Y523756D01*
X855938Y523761D01*
X855899Y523777D01*
X853164Y524388D01*
X850600Y525416D01*
X848236Y526843D01*
X846132Y528632D01*
X844343Y530736D01*
X842916Y533100D01*
X841888Y535664D01*
X841277Y538399D01*
X841255Y538448D01*
X841243Y538500D01*
X841215Y538538D01*
X841196Y538580D01*
X841157Y538617D01*
X841125Y538660D01*
X841085Y538684D01*
X841051Y538716D01*
X841000Y538734D01*
X840954Y538762D01*
X840900Y538771D01*
X840864Y538784D01*
X840832Y538782D01*
X840790Y538789D01*
X829790Y538789D01*
X829735Y538778D01*
X829679Y538777D01*
X829638Y538758D01*
X829595Y538750D01*
X829549Y538718D01*
X829498Y538695D01*
X829468Y538662D01*
X829431Y538637D01*
X829401Y538590D01*
X829363Y538548D01*
X829348Y538507D01*
X829324Y538470D01*
X829315Y538414D01*
X829296Y538361D01*
X829297Y538309D01*
X829291Y538273D01*
X829299Y538241D01*
X829299Y538236D01*
X829299Y538234D01*
X829299Y538233D01*
X829300Y538195D01*
X830139Y533874D01*
X830151Y533845D01*
X830159Y533803D01*
X831628Y529653D01*
X831644Y529626D01*
X831658Y529586D01*
X833724Y525699D01*
X833744Y525675D01*
X833763Y525637D01*
X836381Y522098D01*
X836405Y522077D01*
X836430Y522042D01*
X839542Y518930D01*
X839557Y518920D01*
X839565Y518909D01*
X839580Y518900D01*
X839598Y518881D01*
X843137Y516263D01*
X843165Y516250D01*
X843199Y516224D01*
X847086Y514158D01*
X847116Y514149D01*
X847153Y514128D01*
X851303Y512659D01*
X851334Y512654D01*
X851374Y512639D01*
X855695Y511800D01*
X855751Y511800D01*
X855807Y511791D01*
X855849Y511801D01*
G37*
G36*
X1800729Y511801D02*
X1800729Y511801D01*
X1800774Y511802D01*
X1800825Y511824D01*
X1800880Y511837D01*
X1800916Y511863D01*
X1800956Y511881D01*
X1800995Y511922D01*
X1801040Y511955D01*
X1801063Y511993D01*
X1801093Y512025D01*
X1801113Y512078D01*
X1801142Y512126D01*
X1801150Y512177D01*
X1801163Y512211D01*
X1801162Y512245D01*
X1801169Y512290D01*
X1801169Y523290D01*
X1801159Y523343D01*
X1801158Y523396D01*
X1801139Y523439D01*
X1801130Y523485D01*
X1801099Y523529D01*
X1801078Y523578D01*
X1801044Y523610D01*
X1801017Y523649D01*
X1800972Y523678D01*
X1800933Y523714D01*
X1800882Y523735D01*
X1800850Y523756D01*
X1800818Y523761D01*
X1800779Y523777D01*
X1798044Y524388D01*
X1795480Y525416D01*
X1793116Y526843D01*
X1791012Y528632D01*
X1789223Y530736D01*
X1787796Y533100D01*
X1786768Y535664D01*
X1786157Y538399D01*
X1786135Y538448D01*
X1786123Y538500D01*
X1786095Y538538D01*
X1786076Y538580D01*
X1786037Y538617D01*
X1786005Y538660D01*
X1785965Y538684D01*
X1785931Y538716D01*
X1785880Y538734D01*
X1785834Y538762D01*
X1785780Y538771D01*
X1785744Y538784D01*
X1785712Y538782D01*
X1785670Y538789D01*
X1774670Y538789D01*
X1774615Y538778D01*
X1774559Y538777D01*
X1774518Y538758D01*
X1774475Y538750D01*
X1774429Y538718D01*
X1774378Y538695D01*
X1774348Y538662D01*
X1774311Y538637D01*
X1774281Y538590D01*
X1774243Y538548D01*
X1774228Y538507D01*
X1774204Y538470D01*
X1774195Y538414D01*
X1774176Y538361D01*
X1774177Y538309D01*
X1774171Y538273D01*
X1774179Y538241D01*
X1774179Y538236D01*
X1774179Y538234D01*
X1774179Y538233D01*
X1774180Y538195D01*
X1775019Y533874D01*
X1775031Y533845D01*
X1775039Y533803D01*
X1776508Y529653D01*
X1776524Y529626D01*
X1776538Y529586D01*
X1778604Y525699D01*
X1778624Y525675D01*
X1778643Y525637D01*
X1781261Y522098D01*
X1781285Y522077D01*
X1781310Y522042D01*
X1784422Y518930D01*
X1784437Y518920D01*
X1784445Y518909D01*
X1784460Y518900D01*
X1784478Y518881D01*
X1788017Y516263D01*
X1788045Y516250D01*
X1788079Y516224D01*
X1791966Y514158D01*
X1791996Y514149D01*
X1792033Y514128D01*
X1796183Y512659D01*
X1796214Y512654D01*
X1796254Y512639D01*
X1800575Y511800D01*
X1800631Y511800D01*
X1800687Y511791D01*
X1800729Y511801D01*
G37*
G36*
X1800729Y44441D02*
X1800729Y44441D01*
X1800774Y44442D01*
X1800825Y44464D01*
X1800880Y44477D01*
X1800916Y44503D01*
X1800956Y44521D01*
X1800995Y44562D01*
X1801040Y44595D01*
X1801063Y44633D01*
X1801093Y44665D01*
X1801113Y44718D01*
X1801142Y44766D01*
X1801150Y44817D01*
X1801163Y44851D01*
X1801162Y44885D01*
X1801169Y44930D01*
X1801169Y55930D01*
X1801159Y55983D01*
X1801158Y56036D01*
X1801139Y56079D01*
X1801130Y56125D01*
X1801099Y56169D01*
X1801078Y56218D01*
X1801044Y56250D01*
X1801017Y56289D01*
X1800972Y56318D01*
X1800933Y56354D01*
X1800882Y56375D01*
X1800850Y56396D01*
X1800818Y56401D01*
X1800779Y56417D01*
X1798044Y57028D01*
X1795480Y58056D01*
X1793116Y59483D01*
X1791012Y61272D01*
X1789223Y63376D01*
X1787796Y65740D01*
X1786768Y68304D01*
X1786157Y71039D01*
X1786135Y71088D01*
X1786123Y71140D01*
X1786095Y71178D01*
X1786076Y71220D01*
X1786037Y71257D01*
X1786005Y71300D01*
X1785965Y71324D01*
X1785931Y71356D01*
X1785880Y71374D01*
X1785834Y71402D01*
X1785780Y71411D01*
X1785744Y71424D01*
X1785712Y71422D01*
X1785670Y71429D01*
X1774670Y71429D01*
X1774615Y71418D01*
X1774559Y71417D01*
X1774518Y71398D01*
X1774475Y71390D01*
X1774429Y71358D01*
X1774378Y71335D01*
X1774348Y71302D01*
X1774311Y71277D01*
X1774281Y71230D01*
X1774243Y71188D01*
X1774228Y71147D01*
X1774204Y71110D01*
X1774195Y71054D01*
X1774176Y71001D01*
X1774177Y70949D01*
X1774171Y70913D01*
X1774179Y70881D01*
X1774179Y70876D01*
X1774179Y70874D01*
X1774179Y70873D01*
X1774180Y70835D01*
X1775019Y66514D01*
X1775031Y66485D01*
X1775039Y66443D01*
X1776508Y62293D01*
X1776524Y62266D01*
X1776538Y62226D01*
X1778604Y58339D01*
X1778624Y58315D01*
X1778643Y58277D01*
X1781261Y54738D01*
X1781285Y54717D01*
X1781310Y54682D01*
X1784422Y51570D01*
X1784437Y51560D01*
X1784445Y51549D01*
X1784460Y51540D01*
X1784478Y51521D01*
X1788017Y48903D01*
X1788045Y48890D01*
X1788079Y48864D01*
X1791966Y46798D01*
X1791996Y46789D01*
X1792033Y46768D01*
X1796183Y45299D01*
X1796214Y45294D01*
X1796254Y45279D01*
X1800575Y44440D01*
X1800631Y44440D01*
X1800687Y44431D01*
X1800729Y44441D01*
G37*
G36*
X855849Y44441D02*
X855849Y44441D01*
X855894Y44442D01*
X855945Y44464D01*
X856000Y44477D01*
X856036Y44503D01*
X856076Y44521D01*
X856115Y44562D01*
X856160Y44595D01*
X856183Y44633D01*
X856213Y44665D01*
X856233Y44718D01*
X856262Y44766D01*
X856270Y44817D01*
X856283Y44851D01*
X856282Y44885D01*
X856289Y44930D01*
X856289Y55930D01*
X856279Y55983D01*
X856278Y56036D01*
X856259Y56079D01*
X856250Y56125D01*
X856219Y56169D01*
X856198Y56218D01*
X856164Y56250D01*
X856137Y56289D01*
X856092Y56318D01*
X856053Y56354D01*
X856002Y56375D01*
X855970Y56396D01*
X855938Y56401D01*
X855899Y56417D01*
X853164Y57028D01*
X850600Y58056D01*
X848236Y59483D01*
X846132Y61272D01*
X844343Y63376D01*
X842916Y65740D01*
X841888Y68304D01*
X841277Y71039D01*
X841255Y71088D01*
X841243Y71140D01*
X841215Y71178D01*
X841196Y71220D01*
X841157Y71257D01*
X841125Y71300D01*
X841085Y71324D01*
X841051Y71356D01*
X841000Y71374D01*
X840954Y71402D01*
X840900Y71411D01*
X840864Y71424D01*
X840832Y71422D01*
X840790Y71429D01*
X829790Y71429D01*
X829735Y71418D01*
X829679Y71417D01*
X829638Y71398D01*
X829595Y71390D01*
X829549Y71358D01*
X829498Y71335D01*
X829468Y71302D01*
X829431Y71277D01*
X829401Y71230D01*
X829363Y71188D01*
X829348Y71147D01*
X829324Y71110D01*
X829315Y71054D01*
X829296Y71001D01*
X829297Y70949D01*
X829291Y70913D01*
X829299Y70881D01*
X829299Y70876D01*
X829299Y70874D01*
X829299Y70873D01*
X829300Y70835D01*
X830139Y66514D01*
X830151Y66485D01*
X830159Y66443D01*
X831628Y62293D01*
X831644Y62266D01*
X831658Y62226D01*
X833724Y58339D01*
X833744Y58315D01*
X833763Y58277D01*
X836381Y54738D01*
X836405Y54717D01*
X836430Y54682D01*
X839542Y51570D01*
X839557Y51560D01*
X839565Y51549D01*
X839580Y51540D01*
X839598Y51521D01*
X843137Y48903D01*
X843165Y48890D01*
X843199Y48864D01*
X847086Y46798D01*
X847116Y46789D01*
X847153Y46768D01*
X851303Y45299D01*
X851334Y45294D01*
X851374Y45279D01*
X855695Y44440D01*
X855751Y44440D01*
X855807Y44431D01*
X855849Y44441D01*
G37*
G36*
X1785723Y779481D02*
X1785723Y779481D01*
X1785776Y779482D01*
X1785819Y779501D01*
X1785865Y779510D01*
X1785909Y779541D01*
X1785958Y779562D01*
X1785990Y779596D01*
X1786029Y779623D01*
X1786058Y779668D01*
X1786094Y779707D01*
X1786115Y779758D01*
X1786136Y779790D01*
X1786141Y779822D01*
X1786157Y779861D01*
X1786768Y782596D01*
X1787796Y785160D01*
X1789223Y787524D01*
X1791012Y789628D01*
X1793116Y791417D01*
X1795480Y792844D01*
X1798044Y793872D01*
X1800779Y794483D01*
X1800828Y794505D01*
X1800880Y794517D01*
X1800918Y794545D01*
X1800960Y794564D01*
X1800997Y794603D01*
X1801040Y794635D01*
X1801064Y794675D01*
X1801096Y794709D01*
X1801114Y794760D01*
X1801142Y794806D01*
X1801151Y794860D01*
X1801164Y794896D01*
X1801162Y794928D01*
X1801169Y794970D01*
X1801169Y805970D01*
X1801158Y806025D01*
X1801157Y806081D01*
X1801138Y806122D01*
X1801130Y806165D01*
X1801098Y806211D01*
X1801075Y806263D01*
X1801042Y806292D01*
X1801017Y806329D01*
X1800970Y806359D01*
X1800928Y806397D01*
X1800887Y806412D01*
X1800850Y806436D01*
X1800794Y806445D01*
X1800741Y806464D01*
X1800689Y806463D01*
X1800653Y806469D01*
X1800621Y806461D01*
X1800575Y806460D01*
X1796254Y805621D01*
X1796225Y805609D01*
X1796183Y805601D01*
X1792033Y804132D01*
X1792006Y804116D01*
X1791966Y804102D01*
X1788079Y802036D01*
X1788055Y802016D01*
X1788017Y801997D01*
X1784478Y799379D01*
X1784457Y799355D01*
X1784422Y799330D01*
X1781310Y796218D01*
X1781292Y796192D01*
X1781261Y796162D01*
X1778643Y792624D01*
X1778630Y792595D01*
X1778604Y792561D01*
X1776538Y788674D01*
X1776531Y788651D01*
X1776522Y788637D01*
X1776521Y788629D01*
X1776508Y788607D01*
X1775039Y784457D01*
X1775034Y784426D01*
X1775019Y784386D01*
X1774180Y780065D01*
X1774180Y780009D01*
X1774171Y779953D01*
X1774181Y779911D01*
X1774182Y779866D01*
X1774204Y779815D01*
X1774217Y779760D01*
X1774243Y779725D01*
X1774261Y779684D01*
X1774302Y779645D01*
X1774335Y779600D01*
X1774373Y779577D01*
X1774405Y779547D01*
X1774458Y779527D01*
X1774506Y779498D01*
X1774557Y779490D01*
X1774591Y779477D01*
X1774625Y779478D01*
X1774670Y779471D01*
X1785670Y779471D01*
X1785723Y779481D01*
G37*
G36*
X840843Y78441D02*
X840843Y78441D01*
X840896Y78442D01*
X840939Y78461D01*
X840985Y78470D01*
X841029Y78501D01*
X841078Y78522D01*
X841110Y78556D01*
X841149Y78583D01*
X841178Y78628D01*
X841214Y78667D01*
X841235Y78718D01*
X841256Y78750D01*
X841261Y78782D01*
X841277Y78821D01*
X841888Y81556D01*
X842916Y84120D01*
X844343Y86484D01*
X846132Y88588D01*
X848236Y90377D01*
X850600Y91804D01*
X853164Y92832D01*
X855899Y93443D01*
X855948Y93465D01*
X856000Y93477D01*
X856038Y93505D01*
X856080Y93524D01*
X856117Y93563D01*
X856160Y93595D01*
X856184Y93635D01*
X856216Y93669D01*
X856234Y93720D01*
X856262Y93766D01*
X856271Y93820D01*
X856284Y93856D01*
X856282Y93888D01*
X856289Y93930D01*
X856289Y104930D01*
X856278Y104985D01*
X856277Y105041D01*
X856258Y105082D01*
X856250Y105125D01*
X856218Y105171D01*
X856195Y105223D01*
X856162Y105252D01*
X856137Y105289D01*
X856090Y105319D01*
X856048Y105357D01*
X856007Y105372D01*
X855970Y105396D01*
X855914Y105405D01*
X855861Y105424D01*
X855809Y105423D01*
X855773Y105429D01*
X855741Y105421D01*
X855695Y105420D01*
X851374Y104581D01*
X851345Y104569D01*
X851303Y104561D01*
X847153Y103092D01*
X847126Y103076D01*
X847086Y103062D01*
X843199Y100996D01*
X843175Y100976D01*
X843137Y100957D01*
X839598Y98339D01*
X839577Y98315D01*
X839542Y98290D01*
X836430Y95178D01*
X836412Y95152D01*
X836381Y95122D01*
X833763Y91584D01*
X833750Y91555D01*
X833724Y91521D01*
X831658Y87634D01*
X831651Y87611D01*
X831642Y87597D01*
X831641Y87589D01*
X831628Y87567D01*
X830159Y83417D01*
X830154Y83386D01*
X830139Y83346D01*
X829300Y79025D01*
X829300Y78969D01*
X829291Y78913D01*
X829301Y78871D01*
X829302Y78826D01*
X829324Y78775D01*
X829337Y78720D01*
X829363Y78685D01*
X829381Y78644D01*
X829422Y78605D01*
X829455Y78560D01*
X829493Y78537D01*
X829525Y78507D01*
X829578Y78487D01*
X829626Y78458D01*
X829677Y78450D01*
X829711Y78437D01*
X829745Y78438D01*
X829790Y78431D01*
X840790Y78431D01*
X840843Y78441D01*
G37*
G36*
X840843Y1013161D02*
X840843Y1013161D01*
X840896Y1013162D01*
X840939Y1013181D01*
X840985Y1013190D01*
X841029Y1013221D01*
X841078Y1013242D01*
X841110Y1013276D01*
X841149Y1013303D01*
X841178Y1013348D01*
X841214Y1013387D01*
X841235Y1013438D01*
X841256Y1013470D01*
X841261Y1013502D01*
X841277Y1013541D01*
X841888Y1016276D01*
X842916Y1018840D01*
X844343Y1021204D01*
X846132Y1023308D01*
X848236Y1025097D01*
X850600Y1026524D01*
X853164Y1027552D01*
X855899Y1028163D01*
X855948Y1028185D01*
X856000Y1028197D01*
X856038Y1028225D01*
X856080Y1028244D01*
X856117Y1028283D01*
X856160Y1028315D01*
X856184Y1028355D01*
X856216Y1028389D01*
X856234Y1028440D01*
X856262Y1028486D01*
X856271Y1028540D01*
X856284Y1028576D01*
X856282Y1028608D01*
X856289Y1028650D01*
X856289Y1039650D01*
X856278Y1039705D01*
X856277Y1039761D01*
X856258Y1039802D01*
X856250Y1039845D01*
X856218Y1039891D01*
X856195Y1039943D01*
X856162Y1039972D01*
X856137Y1040009D01*
X856090Y1040039D01*
X856048Y1040077D01*
X856007Y1040092D01*
X855970Y1040116D01*
X855914Y1040125D01*
X855861Y1040144D01*
X855809Y1040143D01*
X855773Y1040149D01*
X855741Y1040141D01*
X855695Y1040140D01*
X851374Y1039301D01*
X851345Y1039289D01*
X851303Y1039281D01*
X847153Y1037812D01*
X847126Y1037796D01*
X847086Y1037782D01*
X843199Y1035716D01*
X843175Y1035696D01*
X843137Y1035677D01*
X839598Y1033059D01*
X839577Y1033035D01*
X839542Y1033010D01*
X836430Y1029898D01*
X836412Y1029872D01*
X836381Y1029842D01*
X833763Y1026304D01*
X833750Y1026275D01*
X833724Y1026241D01*
X831658Y1022354D01*
X831651Y1022331D01*
X831642Y1022317D01*
X831641Y1022309D01*
X831628Y1022287D01*
X830159Y1018137D01*
X830154Y1018106D01*
X830139Y1018066D01*
X829300Y1013745D01*
X829300Y1013689D01*
X829291Y1013633D01*
X829301Y1013591D01*
X829302Y1013546D01*
X829324Y1013495D01*
X829337Y1013440D01*
X829363Y1013405D01*
X829381Y1013364D01*
X829422Y1013325D01*
X829455Y1013280D01*
X829493Y1013257D01*
X829525Y1013227D01*
X829578Y1013207D01*
X829626Y1013178D01*
X829677Y1013170D01*
X829711Y1013157D01*
X829745Y1013158D01*
X829790Y1013151D01*
X840790Y1013151D01*
X840843Y1013161D01*
G37*
G36*
X1785723Y1013161D02*
X1785723Y1013161D01*
X1785776Y1013162D01*
X1785819Y1013181D01*
X1785865Y1013190D01*
X1785909Y1013221D01*
X1785958Y1013242D01*
X1785990Y1013276D01*
X1786029Y1013303D01*
X1786058Y1013348D01*
X1786094Y1013387D01*
X1786115Y1013438D01*
X1786136Y1013470D01*
X1786141Y1013502D01*
X1786157Y1013541D01*
X1786768Y1016276D01*
X1787796Y1018840D01*
X1789223Y1021204D01*
X1791012Y1023308D01*
X1793116Y1025097D01*
X1795480Y1026524D01*
X1798044Y1027552D01*
X1800779Y1028163D01*
X1800828Y1028185D01*
X1800880Y1028197D01*
X1800918Y1028225D01*
X1800960Y1028244D01*
X1800997Y1028283D01*
X1801040Y1028315D01*
X1801064Y1028355D01*
X1801096Y1028389D01*
X1801114Y1028440D01*
X1801142Y1028486D01*
X1801151Y1028540D01*
X1801164Y1028576D01*
X1801162Y1028608D01*
X1801169Y1028650D01*
X1801169Y1039650D01*
X1801158Y1039705D01*
X1801157Y1039761D01*
X1801138Y1039802D01*
X1801130Y1039845D01*
X1801098Y1039891D01*
X1801075Y1039943D01*
X1801042Y1039972D01*
X1801017Y1040009D01*
X1800970Y1040039D01*
X1800928Y1040077D01*
X1800887Y1040092D01*
X1800850Y1040116D01*
X1800794Y1040125D01*
X1800741Y1040144D01*
X1800689Y1040143D01*
X1800653Y1040149D01*
X1800621Y1040141D01*
X1800575Y1040140D01*
X1796254Y1039301D01*
X1796225Y1039289D01*
X1796183Y1039281D01*
X1792033Y1037812D01*
X1792006Y1037796D01*
X1791966Y1037782D01*
X1788079Y1035716D01*
X1788055Y1035696D01*
X1788017Y1035677D01*
X1784478Y1033059D01*
X1784457Y1033035D01*
X1784422Y1033010D01*
X1781310Y1029898D01*
X1781292Y1029872D01*
X1781261Y1029842D01*
X1778643Y1026304D01*
X1778630Y1026275D01*
X1778604Y1026241D01*
X1776538Y1022354D01*
X1776531Y1022331D01*
X1776522Y1022317D01*
X1776521Y1022309D01*
X1776508Y1022287D01*
X1775039Y1018137D01*
X1775034Y1018106D01*
X1775019Y1018066D01*
X1774180Y1013745D01*
X1774180Y1013689D01*
X1774171Y1013633D01*
X1774181Y1013591D01*
X1774182Y1013546D01*
X1774204Y1013495D01*
X1774217Y1013440D01*
X1774243Y1013405D01*
X1774261Y1013364D01*
X1774302Y1013325D01*
X1774335Y1013280D01*
X1774373Y1013257D01*
X1774405Y1013227D01*
X1774458Y1013207D01*
X1774506Y1013178D01*
X1774557Y1013170D01*
X1774591Y1013157D01*
X1774625Y1013158D01*
X1774670Y1013151D01*
X1785670Y1013151D01*
X1785723Y1013161D01*
G37*
G36*
X1785723Y78441D02*
X1785723Y78441D01*
X1785776Y78442D01*
X1785819Y78461D01*
X1785865Y78470D01*
X1785909Y78501D01*
X1785958Y78522D01*
X1785990Y78556D01*
X1786029Y78583D01*
X1786058Y78628D01*
X1786094Y78667D01*
X1786115Y78718D01*
X1786136Y78750D01*
X1786141Y78782D01*
X1786157Y78821D01*
X1786768Y81556D01*
X1787796Y84120D01*
X1789223Y86484D01*
X1791012Y88588D01*
X1793116Y90377D01*
X1795480Y91804D01*
X1798044Y92832D01*
X1800779Y93443D01*
X1800828Y93465D01*
X1800880Y93477D01*
X1800918Y93505D01*
X1800960Y93524D01*
X1800997Y93563D01*
X1801040Y93595D01*
X1801064Y93635D01*
X1801096Y93669D01*
X1801114Y93720D01*
X1801142Y93766D01*
X1801151Y93820D01*
X1801164Y93856D01*
X1801162Y93888D01*
X1801169Y93930D01*
X1801169Y104930D01*
X1801158Y104985D01*
X1801157Y105041D01*
X1801138Y105082D01*
X1801130Y105125D01*
X1801098Y105171D01*
X1801075Y105223D01*
X1801042Y105252D01*
X1801017Y105289D01*
X1800970Y105319D01*
X1800928Y105357D01*
X1800887Y105372D01*
X1800850Y105396D01*
X1800794Y105405D01*
X1800741Y105424D01*
X1800689Y105423D01*
X1800653Y105429D01*
X1800621Y105421D01*
X1800575Y105420D01*
X1796254Y104581D01*
X1796225Y104569D01*
X1796183Y104561D01*
X1792033Y103092D01*
X1792006Y103076D01*
X1791966Y103062D01*
X1788079Y100996D01*
X1788055Y100976D01*
X1788017Y100957D01*
X1784478Y98339D01*
X1784457Y98315D01*
X1784422Y98290D01*
X1781310Y95178D01*
X1781292Y95152D01*
X1781261Y95122D01*
X1778643Y91584D01*
X1778630Y91555D01*
X1778604Y91521D01*
X1776538Y87634D01*
X1776531Y87611D01*
X1776522Y87597D01*
X1776521Y87589D01*
X1776508Y87567D01*
X1775039Y83417D01*
X1775034Y83386D01*
X1775019Y83346D01*
X1774180Y79025D01*
X1774180Y78969D01*
X1774171Y78913D01*
X1774181Y78871D01*
X1774182Y78826D01*
X1774204Y78775D01*
X1774217Y78720D01*
X1774243Y78685D01*
X1774261Y78644D01*
X1774302Y78605D01*
X1774335Y78560D01*
X1774373Y78537D01*
X1774405Y78507D01*
X1774458Y78487D01*
X1774506Y78458D01*
X1774557Y78450D01*
X1774591Y78437D01*
X1774625Y78438D01*
X1774670Y78431D01*
X1785670Y78431D01*
X1785723Y78441D01*
G37*
G36*
X1785723Y545801D02*
X1785723Y545801D01*
X1785776Y545802D01*
X1785819Y545821D01*
X1785865Y545830D01*
X1785909Y545861D01*
X1785958Y545882D01*
X1785990Y545916D01*
X1786029Y545943D01*
X1786058Y545988D01*
X1786094Y546027D01*
X1786115Y546078D01*
X1786136Y546110D01*
X1786141Y546142D01*
X1786157Y546181D01*
X1786768Y548916D01*
X1787796Y551480D01*
X1789223Y553844D01*
X1791012Y555948D01*
X1793116Y557737D01*
X1795480Y559164D01*
X1798044Y560192D01*
X1800779Y560803D01*
X1800828Y560825D01*
X1800880Y560837D01*
X1800918Y560865D01*
X1800960Y560884D01*
X1800997Y560923D01*
X1801040Y560955D01*
X1801064Y560995D01*
X1801096Y561029D01*
X1801114Y561080D01*
X1801142Y561126D01*
X1801151Y561180D01*
X1801164Y561216D01*
X1801162Y561248D01*
X1801169Y561290D01*
X1801169Y572290D01*
X1801158Y572345D01*
X1801157Y572401D01*
X1801138Y572442D01*
X1801130Y572485D01*
X1801098Y572531D01*
X1801075Y572583D01*
X1801042Y572612D01*
X1801017Y572649D01*
X1800970Y572679D01*
X1800928Y572717D01*
X1800887Y572732D01*
X1800850Y572756D01*
X1800794Y572765D01*
X1800741Y572784D01*
X1800689Y572783D01*
X1800653Y572789D01*
X1800621Y572781D01*
X1800575Y572780D01*
X1796254Y571941D01*
X1796225Y571929D01*
X1796183Y571921D01*
X1792033Y570452D01*
X1792006Y570436D01*
X1791966Y570422D01*
X1788079Y568356D01*
X1788055Y568336D01*
X1788017Y568317D01*
X1784478Y565699D01*
X1784457Y565675D01*
X1784422Y565650D01*
X1781310Y562538D01*
X1781292Y562512D01*
X1781261Y562482D01*
X1778643Y558944D01*
X1778630Y558915D01*
X1778604Y558881D01*
X1776538Y554994D01*
X1776531Y554971D01*
X1776522Y554957D01*
X1776521Y554949D01*
X1776508Y554927D01*
X1775039Y550777D01*
X1775034Y550746D01*
X1775019Y550706D01*
X1774180Y546385D01*
X1774180Y546329D01*
X1774171Y546273D01*
X1774181Y546231D01*
X1774182Y546186D01*
X1774204Y546135D01*
X1774217Y546080D01*
X1774243Y546045D01*
X1774261Y546004D01*
X1774302Y545965D01*
X1774335Y545920D01*
X1774373Y545897D01*
X1774405Y545867D01*
X1774458Y545847D01*
X1774506Y545818D01*
X1774557Y545810D01*
X1774591Y545797D01*
X1774625Y545798D01*
X1774670Y545791D01*
X1785670Y545791D01*
X1785723Y545801D01*
G37*
G36*
X840843Y545801D02*
X840843Y545801D01*
X840896Y545802D01*
X840939Y545821D01*
X840985Y545830D01*
X841029Y545861D01*
X841078Y545882D01*
X841110Y545916D01*
X841149Y545943D01*
X841178Y545988D01*
X841214Y546027D01*
X841235Y546078D01*
X841256Y546110D01*
X841261Y546142D01*
X841277Y546181D01*
X841888Y548916D01*
X842916Y551480D01*
X844343Y553844D01*
X846132Y555948D01*
X848236Y557737D01*
X850600Y559164D01*
X853164Y560192D01*
X855899Y560803D01*
X855948Y560825D01*
X856000Y560837D01*
X856038Y560865D01*
X856080Y560884D01*
X856117Y560923D01*
X856160Y560955D01*
X856184Y560995D01*
X856216Y561029D01*
X856234Y561080D01*
X856262Y561126D01*
X856271Y561180D01*
X856284Y561216D01*
X856282Y561248D01*
X856289Y561290D01*
X856289Y572290D01*
X856278Y572345D01*
X856277Y572401D01*
X856258Y572442D01*
X856250Y572485D01*
X856218Y572531D01*
X856195Y572583D01*
X856162Y572612D01*
X856137Y572649D01*
X856090Y572679D01*
X856048Y572717D01*
X856007Y572732D01*
X855970Y572756D01*
X855914Y572765D01*
X855861Y572784D01*
X855809Y572783D01*
X855773Y572789D01*
X855741Y572781D01*
X855695Y572780D01*
X851374Y571941D01*
X851345Y571929D01*
X851303Y571921D01*
X847153Y570452D01*
X847126Y570436D01*
X847086Y570422D01*
X843199Y568356D01*
X843175Y568336D01*
X843137Y568317D01*
X839598Y565699D01*
X839577Y565675D01*
X839542Y565650D01*
X836430Y562538D01*
X836412Y562512D01*
X836381Y562482D01*
X833763Y558944D01*
X833750Y558915D01*
X833724Y558881D01*
X831658Y554994D01*
X831651Y554971D01*
X831642Y554957D01*
X831641Y554949D01*
X831628Y554927D01*
X830159Y550777D01*
X830154Y550746D01*
X830139Y550706D01*
X829300Y546385D01*
X829300Y546329D01*
X829291Y546273D01*
X829301Y546231D01*
X829302Y546186D01*
X829324Y546135D01*
X829337Y546080D01*
X829363Y546045D01*
X829381Y546004D01*
X829422Y545965D01*
X829455Y545920D01*
X829493Y545897D01*
X829525Y545867D01*
X829578Y545847D01*
X829626Y545818D01*
X829677Y545810D01*
X829711Y545797D01*
X829745Y545798D01*
X829790Y545791D01*
X840790Y545791D01*
X840843Y545801D01*
G37*
G36*
X840843Y312121D02*
X840843Y312121D01*
X840896Y312122D01*
X840939Y312141D01*
X840985Y312150D01*
X841029Y312181D01*
X841078Y312202D01*
X841110Y312236D01*
X841149Y312263D01*
X841178Y312308D01*
X841214Y312347D01*
X841235Y312398D01*
X841256Y312430D01*
X841261Y312462D01*
X841277Y312501D01*
X841888Y315236D01*
X842916Y317800D01*
X844343Y320164D01*
X846132Y322268D01*
X848236Y324057D01*
X850600Y325484D01*
X853164Y326512D01*
X855899Y327123D01*
X855948Y327145D01*
X856000Y327157D01*
X856038Y327185D01*
X856080Y327204D01*
X856117Y327243D01*
X856160Y327275D01*
X856184Y327315D01*
X856216Y327349D01*
X856234Y327400D01*
X856262Y327446D01*
X856271Y327500D01*
X856284Y327536D01*
X856282Y327568D01*
X856289Y327610D01*
X856289Y338610D01*
X856278Y338665D01*
X856277Y338721D01*
X856258Y338762D01*
X856250Y338805D01*
X856218Y338851D01*
X856195Y338903D01*
X856162Y338932D01*
X856137Y338969D01*
X856090Y338999D01*
X856048Y339037D01*
X856007Y339052D01*
X855970Y339076D01*
X855914Y339085D01*
X855861Y339104D01*
X855809Y339103D01*
X855773Y339109D01*
X855741Y339101D01*
X855695Y339100D01*
X851374Y338261D01*
X851345Y338249D01*
X851303Y338241D01*
X847153Y336772D01*
X847126Y336756D01*
X847086Y336742D01*
X843199Y334676D01*
X843175Y334656D01*
X843137Y334637D01*
X839598Y332019D01*
X839577Y331995D01*
X839542Y331970D01*
X836430Y328858D01*
X836412Y328832D01*
X836381Y328802D01*
X833763Y325264D01*
X833750Y325235D01*
X833724Y325201D01*
X831658Y321314D01*
X831651Y321291D01*
X831642Y321277D01*
X831641Y321269D01*
X831628Y321247D01*
X830159Y317097D01*
X830154Y317066D01*
X830139Y317026D01*
X829300Y312705D01*
X829300Y312649D01*
X829291Y312593D01*
X829301Y312551D01*
X829302Y312506D01*
X829324Y312455D01*
X829337Y312400D01*
X829363Y312365D01*
X829381Y312324D01*
X829422Y312285D01*
X829455Y312240D01*
X829493Y312217D01*
X829525Y312187D01*
X829578Y312167D01*
X829626Y312138D01*
X829677Y312130D01*
X829711Y312117D01*
X829745Y312118D01*
X829790Y312111D01*
X840790Y312111D01*
X840843Y312121D01*
G37*
G36*
X1785723Y312121D02*
X1785723Y312121D01*
X1785776Y312122D01*
X1785819Y312141D01*
X1785865Y312150D01*
X1785909Y312181D01*
X1785958Y312202D01*
X1785990Y312236D01*
X1786029Y312263D01*
X1786058Y312308D01*
X1786094Y312347D01*
X1786115Y312398D01*
X1786136Y312430D01*
X1786141Y312462D01*
X1786157Y312501D01*
X1786768Y315236D01*
X1787796Y317800D01*
X1789223Y320164D01*
X1791012Y322268D01*
X1793116Y324057D01*
X1795480Y325484D01*
X1798044Y326512D01*
X1800779Y327123D01*
X1800828Y327145D01*
X1800880Y327157D01*
X1800918Y327185D01*
X1800960Y327204D01*
X1800997Y327243D01*
X1801040Y327275D01*
X1801064Y327315D01*
X1801096Y327349D01*
X1801114Y327400D01*
X1801142Y327446D01*
X1801151Y327500D01*
X1801164Y327536D01*
X1801162Y327568D01*
X1801169Y327610D01*
X1801169Y338610D01*
X1801158Y338665D01*
X1801157Y338721D01*
X1801138Y338762D01*
X1801130Y338805D01*
X1801098Y338851D01*
X1801075Y338903D01*
X1801042Y338932D01*
X1801017Y338969D01*
X1800970Y338999D01*
X1800928Y339037D01*
X1800887Y339052D01*
X1800850Y339076D01*
X1800794Y339085D01*
X1800741Y339104D01*
X1800689Y339103D01*
X1800653Y339109D01*
X1800621Y339101D01*
X1800575Y339100D01*
X1796254Y338261D01*
X1796225Y338249D01*
X1796183Y338241D01*
X1792033Y336772D01*
X1792006Y336756D01*
X1791966Y336742D01*
X1788079Y334676D01*
X1788055Y334656D01*
X1788017Y334637D01*
X1784478Y332019D01*
X1784457Y331995D01*
X1784422Y331970D01*
X1781310Y328858D01*
X1781292Y328832D01*
X1781261Y328802D01*
X1778643Y325264D01*
X1778630Y325235D01*
X1778604Y325201D01*
X1776538Y321314D01*
X1776531Y321291D01*
X1776522Y321277D01*
X1776521Y321269D01*
X1776508Y321247D01*
X1775039Y317097D01*
X1775034Y317066D01*
X1775019Y317026D01*
X1774180Y312705D01*
X1774180Y312649D01*
X1774171Y312593D01*
X1774181Y312551D01*
X1774182Y312506D01*
X1774204Y312455D01*
X1774217Y312400D01*
X1774243Y312365D01*
X1774261Y312324D01*
X1774302Y312285D01*
X1774335Y312240D01*
X1774373Y312217D01*
X1774405Y312187D01*
X1774458Y312167D01*
X1774506Y312138D01*
X1774557Y312130D01*
X1774591Y312117D01*
X1774625Y312118D01*
X1774670Y312111D01*
X1785670Y312111D01*
X1785723Y312121D01*
G37*
G36*
X840843Y779481D02*
X840843Y779481D01*
X840896Y779482D01*
X840939Y779501D01*
X840985Y779510D01*
X841029Y779541D01*
X841078Y779562D01*
X841110Y779596D01*
X841149Y779623D01*
X841178Y779668D01*
X841214Y779707D01*
X841235Y779758D01*
X841256Y779790D01*
X841261Y779822D01*
X841277Y779861D01*
X841888Y782596D01*
X842916Y785160D01*
X844343Y787524D01*
X846132Y789628D01*
X848236Y791417D01*
X850600Y792844D01*
X853164Y793872D01*
X855899Y794483D01*
X855948Y794505D01*
X856000Y794517D01*
X856038Y794545D01*
X856080Y794564D01*
X856117Y794603D01*
X856160Y794635D01*
X856184Y794675D01*
X856216Y794709D01*
X856234Y794760D01*
X856262Y794806D01*
X856271Y794860D01*
X856284Y794896D01*
X856282Y794928D01*
X856289Y794970D01*
X856289Y805970D01*
X856278Y806025D01*
X856277Y806081D01*
X856258Y806122D01*
X856250Y806165D01*
X856218Y806211D01*
X856195Y806263D01*
X856162Y806292D01*
X856137Y806329D01*
X856090Y806359D01*
X856048Y806397D01*
X856007Y806412D01*
X855970Y806436D01*
X855914Y806445D01*
X855861Y806464D01*
X855809Y806463D01*
X855773Y806469D01*
X855741Y806461D01*
X855695Y806460D01*
X851374Y805621D01*
X851345Y805609D01*
X851303Y805601D01*
X847153Y804132D01*
X847126Y804116D01*
X847086Y804102D01*
X843199Y802036D01*
X843175Y802016D01*
X843137Y801997D01*
X839598Y799379D01*
X839577Y799355D01*
X839542Y799330D01*
X836430Y796218D01*
X836412Y796192D01*
X836381Y796162D01*
X833763Y792624D01*
X833750Y792595D01*
X833724Y792561D01*
X831658Y788674D01*
X831651Y788651D01*
X831642Y788637D01*
X831641Y788629D01*
X831628Y788607D01*
X830159Y784457D01*
X830154Y784426D01*
X830139Y784386D01*
X829300Y780065D01*
X829300Y780009D01*
X829291Y779953D01*
X829301Y779911D01*
X829302Y779866D01*
X829324Y779815D01*
X829337Y779760D01*
X829363Y779725D01*
X829381Y779684D01*
X829422Y779645D01*
X829455Y779600D01*
X829493Y779577D01*
X829525Y779547D01*
X829578Y779527D01*
X829626Y779498D01*
X829677Y779490D01*
X829711Y779477D01*
X829745Y779478D01*
X829790Y779471D01*
X840790Y779471D01*
X840843Y779481D01*
G37*
G36*
X1834725Y312122D02*
X1834725Y312122D01*
X1834781Y312123D01*
X1834822Y312142D01*
X1834865Y312150D01*
X1834911Y312182D01*
X1834963Y312205D01*
X1834992Y312238D01*
X1835029Y312263D01*
X1835059Y312310D01*
X1835097Y312352D01*
X1835112Y312393D01*
X1835136Y312430D01*
X1835145Y312486D01*
X1835164Y312539D01*
X1835163Y312591D01*
X1835169Y312627D01*
X1835161Y312659D01*
X1835160Y312705D01*
X1834321Y317026D01*
X1834309Y317055D01*
X1834301Y317097D01*
X1832832Y321247D01*
X1832816Y321274D01*
X1832807Y321301D01*
X1832805Y321307D01*
X1832804Y321309D01*
X1832802Y321314D01*
X1830736Y325201D01*
X1830716Y325225D01*
X1830697Y325264D01*
X1828079Y328802D01*
X1828055Y328823D01*
X1828030Y328858D01*
X1824918Y331970D01*
X1824892Y331988D01*
X1824862Y332019D01*
X1821324Y334637D01*
X1821295Y334650D01*
X1821261Y334676D01*
X1817374Y336742D01*
X1817344Y336751D01*
X1817307Y336772D01*
X1813157Y338241D01*
X1813126Y338246D01*
X1813086Y338261D01*
X1808765Y339100D01*
X1808709Y339100D01*
X1808653Y339109D01*
X1808611Y339099D01*
X1808566Y339098D01*
X1808515Y339076D01*
X1808460Y339063D01*
X1808425Y339037D01*
X1808384Y339019D01*
X1808345Y338978D01*
X1808300Y338945D01*
X1808277Y338907D01*
X1808247Y338875D01*
X1808227Y338822D01*
X1808198Y338774D01*
X1808190Y338723D01*
X1808177Y338689D01*
X1808178Y338655D01*
X1808171Y338610D01*
X1808171Y327610D01*
X1808181Y327557D01*
X1808182Y327504D01*
X1808201Y327461D01*
X1808210Y327415D01*
X1808241Y327371D01*
X1808262Y327322D01*
X1808296Y327290D01*
X1808323Y327251D01*
X1808368Y327222D01*
X1808407Y327186D01*
X1808458Y327165D01*
X1808490Y327144D01*
X1808522Y327139D01*
X1808561Y327123D01*
X1811296Y326512D01*
X1813860Y325484D01*
X1816224Y324057D01*
X1818328Y322268D01*
X1820117Y320164D01*
X1821544Y317800D01*
X1822572Y315236D01*
X1823183Y312501D01*
X1823205Y312452D01*
X1823217Y312400D01*
X1823245Y312362D01*
X1823264Y312320D01*
X1823303Y312283D01*
X1823335Y312240D01*
X1823375Y312216D01*
X1823409Y312184D01*
X1823460Y312166D01*
X1823506Y312138D01*
X1823560Y312129D01*
X1823596Y312116D01*
X1823628Y312118D01*
X1823670Y312111D01*
X1834670Y312111D01*
X1834725Y312122D01*
G37*
G36*
X889845Y779482D02*
X889845Y779482D01*
X889901Y779483D01*
X889942Y779502D01*
X889985Y779510D01*
X890031Y779542D01*
X890083Y779565D01*
X890112Y779598D01*
X890149Y779623D01*
X890179Y779670D01*
X890217Y779712D01*
X890232Y779753D01*
X890256Y779790D01*
X890265Y779846D01*
X890284Y779899D01*
X890283Y779951D01*
X890289Y779987D01*
X890281Y780019D01*
X890280Y780065D01*
X889441Y784386D01*
X889429Y784415D01*
X889421Y784457D01*
X887952Y788607D01*
X887936Y788634D01*
X887927Y788661D01*
X887925Y788667D01*
X887924Y788669D01*
X887922Y788674D01*
X885856Y792561D01*
X885836Y792585D01*
X885817Y792624D01*
X883199Y796162D01*
X883175Y796183D01*
X883150Y796218D01*
X880038Y799330D01*
X880012Y799348D01*
X879982Y799379D01*
X876444Y801997D01*
X876415Y802010D01*
X876381Y802036D01*
X872494Y804102D01*
X872464Y804111D01*
X872427Y804132D01*
X868277Y805601D01*
X868246Y805606D01*
X868206Y805621D01*
X863885Y806460D01*
X863829Y806460D01*
X863773Y806469D01*
X863731Y806459D01*
X863686Y806458D01*
X863635Y806436D01*
X863580Y806423D01*
X863545Y806397D01*
X863504Y806379D01*
X863465Y806338D01*
X863420Y806305D01*
X863397Y806267D01*
X863367Y806235D01*
X863347Y806182D01*
X863318Y806134D01*
X863310Y806083D01*
X863297Y806049D01*
X863298Y806015D01*
X863291Y805970D01*
X863291Y794970D01*
X863301Y794917D01*
X863302Y794864D01*
X863321Y794821D01*
X863330Y794775D01*
X863361Y794731D01*
X863382Y794682D01*
X863416Y794650D01*
X863443Y794611D01*
X863488Y794582D01*
X863527Y794546D01*
X863578Y794525D01*
X863610Y794504D01*
X863642Y794499D01*
X863681Y794483D01*
X866416Y793872D01*
X868980Y792844D01*
X871344Y791417D01*
X873448Y789628D01*
X875237Y787524D01*
X876664Y785160D01*
X877692Y782596D01*
X878303Y779861D01*
X878325Y779812D01*
X878337Y779760D01*
X878365Y779722D01*
X878384Y779680D01*
X878423Y779643D01*
X878455Y779600D01*
X878495Y779576D01*
X878529Y779544D01*
X878580Y779526D01*
X878626Y779498D01*
X878680Y779489D01*
X878716Y779476D01*
X878748Y779478D01*
X878790Y779471D01*
X889790Y779471D01*
X889845Y779482D01*
G37*
G36*
X889845Y312122D02*
X889845Y312122D01*
X889901Y312123D01*
X889942Y312142D01*
X889985Y312150D01*
X890031Y312182D01*
X890083Y312205D01*
X890112Y312238D01*
X890149Y312263D01*
X890179Y312310D01*
X890217Y312352D01*
X890232Y312393D01*
X890256Y312430D01*
X890265Y312486D01*
X890284Y312539D01*
X890283Y312591D01*
X890289Y312627D01*
X890281Y312659D01*
X890280Y312705D01*
X889441Y317026D01*
X889429Y317055D01*
X889421Y317097D01*
X887952Y321247D01*
X887936Y321274D01*
X887927Y321301D01*
X887925Y321307D01*
X887924Y321309D01*
X887922Y321314D01*
X885856Y325201D01*
X885836Y325225D01*
X885817Y325264D01*
X883199Y328802D01*
X883175Y328823D01*
X883150Y328858D01*
X880038Y331970D01*
X880012Y331988D01*
X879982Y332019D01*
X876444Y334637D01*
X876415Y334650D01*
X876381Y334676D01*
X872494Y336742D01*
X872464Y336751D01*
X872427Y336772D01*
X868277Y338241D01*
X868246Y338246D01*
X868206Y338261D01*
X863885Y339100D01*
X863829Y339100D01*
X863773Y339109D01*
X863731Y339099D01*
X863686Y339098D01*
X863635Y339076D01*
X863580Y339063D01*
X863545Y339037D01*
X863504Y339019D01*
X863465Y338978D01*
X863420Y338945D01*
X863397Y338907D01*
X863367Y338875D01*
X863347Y338822D01*
X863318Y338774D01*
X863310Y338723D01*
X863297Y338689D01*
X863298Y338655D01*
X863291Y338610D01*
X863291Y327610D01*
X863301Y327557D01*
X863302Y327504D01*
X863321Y327461D01*
X863330Y327415D01*
X863361Y327371D01*
X863382Y327322D01*
X863416Y327290D01*
X863443Y327251D01*
X863488Y327222D01*
X863527Y327186D01*
X863578Y327165D01*
X863610Y327144D01*
X863642Y327139D01*
X863681Y327123D01*
X866416Y326512D01*
X868980Y325484D01*
X871344Y324057D01*
X873448Y322268D01*
X875237Y320164D01*
X876664Y317800D01*
X877692Y315236D01*
X878303Y312501D01*
X878325Y312452D01*
X878337Y312400D01*
X878365Y312362D01*
X878384Y312320D01*
X878423Y312283D01*
X878455Y312240D01*
X878495Y312216D01*
X878529Y312184D01*
X878580Y312166D01*
X878626Y312138D01*
X878680Y312129D01*
X878716Y312116D01*
X878748Y312118D01*
X878790Y312111D01*
X889790Y312111D01*
X889845Y312122D01*
G37*
G36*
X1834725Y545802D02*
X1834725Y545802D01*
X1834781Y545803D01*
X1834822Y545822D01*
X1834865Y545830D01*
X1834911Y545862D01*
X1834963Y545885D01*
X1834992Y545918D01*
X1835029Y545943D01*
X1835059Y545990D01*
X1835097Y546032D01*
X1835112Y546073D01*
X1835136Y546110D01*
X1835145Y546166D01*
X1835164Y546219D01*
X1835163Y546271D01*
X1835169Y546307D01*
X1835161Y546339D01*
X1835160Y546385D01*
X1834321Y550706D01*
X1834309Y550735D01*
X1834301Y550777D01*
X1832832Y554927D01*
X1832816Y554954D01*
X1832807Y554981D01*
X1832805Y554987D01*
X1832804Y554989D01*
X1832802Y554994D01*
X1830736Y558881D01*
X1830716Y558905D01*
X1830697Y558944D01*
X1828079Y562482D01*
X1828055Y562503D01*
X1828030Y562538D01*
X1824918Y565650D01*
X1824892Y565668D01*
X1824862Y565699D01*
X1821324Y568317D01*
X1821295Y568330D01*
X1821261Y568356D01*
X1817374Y570422D01*
X1817344Y570431D01*
X1817307Y570452D01*
X1813157Y571921D01*
X1813126Y571926D01*
X1813086Y571941D01*
X1808765Y572780D01*
X1808709Y572780D01*
X1808653Y572789D01*
X1808611Y572779D01*
X1808566Y572778D01*
X1808515Y572756D01*
X1808460Y572743D01*
X1808425Y572717D01*
X1808384Y572699D01*
X1808345Y572658D01*
X1808300Y572625D01*
X1808277Y572587D01*
X1808247Y572555D01*
X1808227Y572502D01*
X1808198Y572454D01*
X1808190Y572403D01*
X1808177Y572369D01*
X1808178Y572335D01*
X1808171Y572290D01*
X1808171Y561290D01*
X1808181Y561237D01*
X1808182Y561184D01*
X1808201Y561141D01*
X1808210Y561095D01*
X1808241Y561051D01*
X1808262Y561002D01*
X1808296Y560970D01*
X1808323Y560931D01*
X1808368Y560902D01*
X1808407Y560866D01*
X1808458Y560845D01*
X1808490Y560824D01*
X1808522Y560819D01*
X1808561Y560803D01*
X1811296Y560192D01*
X1813860Y559164D01*
X1816224Y557737D01*
X1818328Y555948D01*
X1820117Y553844D01*
X1821544Y551480D01*
X1822572Y548916D01*
X1823183Y546181D01*
X1823205Y546132D01*
X1823217Y546080D01*
X1823245Y546042D01*
X1823264Y546000D01*
X1823303Y545963D01*
X1823335Y545920D01*
X1823375Y545896D01*
X1823409Y545864D01*
X1823460Y545846D01*
X1823506Y545818D01*
X1823560Y545809D01*
X1823596Y545796D01*
X1823628Y545798D01*
X1823670Y545791D01*
X1834670Y545791D01*
X1834725Y545802D01*
G37*
G36*
X1834725Y779482D02*
X1834725Y779482D01*
X1834781Y779483D01*
X1834822Y779502D01*
X1834865Y779510D01*
X1834911Y779542D01*
X1834963Y779565D01*
X1834992Y779598D01*
X1835029Y779623D01*
X1835059Y779670D01*
X1835097Y779712D01*
X1835112Y779753D01*
X1835136Y779790D01*
X1835145Y779846D01*
X1835164Y779899D01*
X1835163Y779951D01*
X1835169Y779987D01*
X1835161Y780019D01*
X1835160Y780065D01*
X1834321Y784386D01*
X1834309Y784415D01*
X1834301Y784457D01*
X1832832Y788607D01*
X1832816Y788634D01*
X1832807Y788661D01*
X1832805Y788667D01*
X1832804Y788669D01*
X1832802Y788674D01*
X1830736Y792561D01*
X1830716Y792585D01*
X1830697Y792624D01*
X1828079Y796162D01*
X1828055Y796183D01*
X1828030Y796218D01*
X1824918Y799330D01*
X1824892Y799348D01*
X1824862Y799379D01*
X1821324Y801997D01*
X1821295Y802010D01*
X1821261Y802036D01*
X1817374Y804102D01*
X1817344Y804111D01*
X1817307Y804132D01*
X1813157Y805601D01*
X1813126Y805606D01*
X1813086Y805621D01*
X1808765Y806460D01*
X1808709Y806460D01*
X1808653Y806469D01*
X1808611Y806459D01*
X1808566Y806458D01*
X1808515Y806436D01*
X1808460Y806423D01*
X1808425Y806397D01*
X1808384Y806379D01*
X1808345Y806338D01*
X1808300Y806305D01*
X1808277Y806267D01*
X1808247Y806235D01*
X1808227Y806182D01*
X1808198Y806134D01*
X1808190Y806083D01*
X1808177Y806049D01*
X1808178Y806015D01*
X1808171Y805970D01*
X1808171Y794970D01*
X1808181Y794917D01*
X1808182Y794864D01*
X1808201Y794821D01*
X1808210Y794775D01*
X1808241Y794731D01*
X1808262Y794682D01*
X1808296Y794650D01*
X1808323Y794611D01*
X1808368Y794582D01*
X1808407Y794546D01*
X1808458Y794525D01*
X1808490Y794504D01*
X1808522Y794499D01*
X1808561Y794483D01*
X1811296Y793872D01*
X1813860Y792844D01*
X1816224Y791417D01*
X1818328Y789628D01*
X1820117Y787524D01*
X1821544Y785160D01*
X1822572Y782596D01*
X1823183Y779861D01*
X1823205Y779812D01*
X1823217Y779760D01*
X1823245Y779722D01*
X1823264Y779680D01*
X1823303Y779643D01*
X1823335Y779600D01*
X1823375Y779576D01*
X1823409Y779544D01*
X1823460Y779526D01*
X1823506Y779498D01*
X1823560Y779489D01*
X1823596Y779476D01*
X1823628Y779478D01*
X1823670Y779471D01*
X1834670Y779471D01*
X1834725Y779482D01*
G37*
G36*
X1834725Y78442D02*
X1834725Y78442D01*
X1834781Y78443D01*
X1834822Y78462D01*
X1834865Y78470D01*
X1834911Y78502D01*
X1834963Y78525D01*
X1834992Y78558D01*
X1835029Y78583D01*
X1835059Y78630D01*
X1835097Y78672D01*
X1835112Y78713D01*
X1835136Y78750D01*
X1835145Y78806D01*
X1835164Y78859D01*
X1835163Y78911D01*
X1835169Y78947D01*
X1835161Y78979D01*
X1835160Y79025D01*
X1834321Y83346D01*
X1834309Y83375D01*
X1834301Y83417D01*
X1832832Y87567D01*
X1832816Y87594D01*
X1832807Y87621D01*
X1832805Y87627D01*
X1832804Y87629D01*
X1832802Y87634D01*
X1830736Y91521D01*
X1830716Y91545D01*
X1830697Y91584D01*
X1828079Y95122D01*
X1828055Y95143D01*
X1828030Y95178D01*
X1824918Y98290D01*
X1824892Y98308D01*
X1824862Y98339D01*
X1821324Y100957D01*
X1821295Y100970D01*
X1821261Y100996D01*
X1817374Y103062D01*
X1817344Y103071D01*
X1817307Y103092D01*
X1813157Y104561D01*
X1813126Y104566D01*
X1813086Y104581D01*
X1808765Y105420D01*
X1808709Y105420D01*
X1808653Y105429D01*
X1808611Y105419D01*
X1808566Y105418D01*
X1808515Y105396D01*
X1808460Y105383D01*
X1808425Y105357D01*
X1808384Y105339D01*
X1808345Y105298D01*
X1808300Y105265D01*
X1808277Y105227D01*
X1808247Y105195D01*
X1808227Y105142D01*
X1808198Y105094D01*
X1808190Y105043D01*
X1808177Y105009D01*
X1808178Y104975D01*
X1808171Y104930D01*
X1808171Y93930D01*
X1808181Y93877D01*
X1808182Y93824D01*
X1808201Y93781D01*
X1808210Y93735D01*
X1808241Y93691D01*
X1808262Y93642D01*
X1808296Y93610D01*
X1808323Y93571D01*
X1808368Y93542D01*
X1808407Y93506D01*
X1808458Y93485D01*
X1808490Y93464D01*
X1808522Y93459D01*
X1808561Y93443D01*
X1811296Y92832D01*
X1813860Y91804D01*
X1816224Y90377D01*
X1818328Y88588D01*
X1820117Y86484D01*
X1821544Y84120D01*
X1822572Y81556D01*
X1823183Y78821D01*
X1823205Y78772D01*
X1823217Y78720D01*
X1823245Y78682D01*
X1823264Y78640D01*
X1823303Y78603D01*
X1823335Y78560D01*
X1823375Y78536D01*
X1823409Y78504D01*
X1823460Y78486D01*
X1823506Y78458D01*
X1823560Y78449D01*
X1823596Y78436D01*
X1823628Y78438D01*
X1823670Y78431D01*
X1834670Y78431D01*
X1834725Y78442D01*
G37*
G36*
X889845Y1013162D02*
X889845Y1013162D01*
X889901Y1013163D01*
X889942Y1013182D01*
X889985Y1013190D01*
X890031Y1013222D01*
X890083Y1013245D01*
X890112Y1013278D01*
X890149Y1013303D01*
X890179Y1013350D01*
X890217Y1013392D01*
X890232Y1013433D01*
X890256Y1013470D01*
X890265Y1013526D01*
X890284Y1013579D01*
X890283Y1013631D01*
X890289Y1013667D01*
X890281Y1013699D01*
X890280Y1013745D01*
X889441Y1018066D01*
X889429Y1018095D01*
X889421Y1018137D01*
X887952Y1022287D01*
X887936Y1022314D01*
X887927Y1022341D01*
X887925Y1022347D01*
X887924Y1022349D01*
X887922Y1022354D01*
X885856Y1026241D01*
X885836Y1026265D01*
X885817Y1026304D01*
X883199Y1029842D01*
X883175Y1029863D01*
X883150Y1029898D01*
X880038Y1033010D01*
X880012Y1033028D01*
X879982Y1033059D01*
X876444Y1035677D01*
X876415Y1035690D01*
X876381Y1035716D01*
X872494Y1037782D01*
X872464Y1037791D01*
X872427Y1037812D01*
X868277Y1039281D01*
X868246Y1039286D01*
X868206Y1039301D01*
X863885Y1040140D01*
X863829Y1040140D01*
X863773Y1040149D01*
X863731Y1040139D01*
X863686Y1040138D01*
X863635Y1040116D01*
X863580Y1040103D01*
X863545Y1040077D01*
X863504Y1040059D01*
X863465Y1040018D01*
X863420Y1039985D01*
X863397Y1039947D01*
X863367Y1039915D01*
X863347Y1039862D01*
X863318Y1039814D01*
X863310Y1039763D01*
X863297Y1039729D01*
X863298Y1039695D01*
X863291Y1039650D01*
X863291Y1028650D01*
X863301Y1028597D01*
X863302Y1028544D01*
X863321Y1028501D01*
X863330Y1028455D01*
X863361Y1028411D01*
X863382Y1028362D01*
X863416Y1028330D01*
X863443Y1028291D01*
X863488Y1028262D01*
X863527Y1028226D01*
X863578Y1028205D01*
X863610Y1028184D01*
X863642Y1028179D01*
X863681Y1028163D01*
X866416Y1027552D01*
X868980Y1026524D01*
X871344Y1025097D01*
X873448Y1023308D01*
X875237Y1021204D01*
X876664Y1018840D01*
X877692Y1016276D01*
X878303Y1013541D01*
X878325Y1013492D01*
X878337Y1013440D01*
X878365Y1013402D01*
X878384Y1013360D01*
X878423Y1013323D01*
X878455Y1013280D01*
X878495Y1013256D01*
X878529Y1013224D01*
X878580Y1013206D01*
X878626Y1013178D01*
X878680Y1013169D01*
X878716Y1013156D01*
X878748Y1013158D01*
X878790Y1013151D01*
X889790Y1013151D01*
X889845Y1013162D01*
G37*
G36*
X889845Y78442D02*
X889845Y78442D01*
X889901Y78443D01*
X889942Y78462D01*
X889985Y78470D01*
X890031Y78502D01*
X890083Y78525D01*
X890112Y78558D01*
X890149Y78583D01*
X890179Y78630D01*
X890217Y78672D01*
X890232Y78713D01*
X890256Y78750D01*
X890265Y78806D01*
X890284Y78859D01*
X890283Y78911D01*
X890289Y78947D01*
X890281Y78979D01*
X890280Y79025D01*
X889441Y83346D01*
X889429Y83375D01*
X889421Y83417D01*
X887952Y87567D01*
X887936Y87594D01*
X887927Y87621D01*
X887925Y87627D01*
X887924Y87629D01*
X887922Y87634D01*
X885856Y91521D01*
X885836Y91545D01*
X885817Y91584D01*
X883199Y95122D01*
X883175Y95143D01*
X883150Y95178D01*
X880038Y98290D01*
X880012Y98308D01*
X879982Y98339D01*
X876444Y100957D01*
X876415Y100970D01*
X876381Y100996D01*
X872494Y103062D01*
X872464Y103071D01*
X872427Y103092D01*
X868277Y104561D01*
X868246Y104566D01*
X868206Y104581D01*
X863885Y105420D01*
X863829Y105420D01*
X863773Y105429D01*
X863731Y105419D01*
X863686Y105418D01*
X863635Y105396D01*
X863580Y105383D01*
X863545Y105357D01*
X863504Y105339D01*
X863465Y105298D01*
X863420Y105265D01*
X863397Y105227D01*
X863367Y105195D01*
X863347Y105142D01*
X863318Y105094D01*
X863310Y105043D01*
X863297Y105009D01*
X863298Y104975D01*
X863291Y104930D01*
X863291Y93930D01*
X863301Y93877D01*
X863302Y93824D01*
X863321Y93781D01*
X863330Y93735D01*
X863361Y93691D01*
X863382Y93642D01*
X863416Y93610D01*
X863443Y93571D01*
X863488Y93542D01*
X863527Y93506D01*
X863578Y93485D01*
X863610Y93464D01*
X863642Y93459D01*
X863681Y93443D01*
X866416Y92832D01*
X868980Y91804D01*
X871344Y90377D01*
X873448Y88588D01*
X875237Y86484D01*
X876664Y84120D01*
X877692Y81556D01*
X878303Y78821D01*
X878325Y78772D01*
X878337Y78720D01*
X878365Y78682D01*
X878384Y78640D01*
X878423Y78603D01*
X878455Y78560D01*
X878495Y78536D01*
X878529Y78504D01*
X878580Y78486D01*
X878626Y78458D01*
X878680Y78449D01*
X878716Y78436D01*
X878748Y78438D01*
X878790Y78431D01*
X889790Y78431D01*
X889845Y78442D01*
G37*
G36*
X1834725Y1013162D02*
X1834725Y1013162D01*
X1834781Y1013163D01*
X1834822Y1013182D01*
X1834865Y1013190D01*
X1834911Y1013222D01*
X1834963Y1013245D01*
X1834992Y1013278D01*
X1835029Y1013303D01*
X1835059Y1013350D01*
X1835097Y1013392D01*
X1835112Y1013433D01*
X1835136Y1013470D01*
X1835145Y1013526D01*
X1835164Y1013579D01*
X1835163Y1013631D01*
X1835169Y1013667D01*
X1835161Y1013699D01*
X1835160Y1013745D01*
X1834321Y1018066D01*
X1834309Y1018095D01*
X1834301Y1018137D01*
X1832832Y1022287D01*
X1832816Y1022314D01*
X1832807Y1022341D01*
X1832805Y1022347D01*
X1832804Y1022349D01*
X1832802Y1022354D01*
X1830736Y1026241D01*
X1830716Y1026265D01*
X1830697Y1026304D01*
X1828079Y1029842D01*
X1828055Y1029863D01*
X1828030Y1029898D01*
X1824918Y1033010D01*
X1824892Y1033028D01*
X1824862Y1033059D01*
X1821324Y1035677D01*
X1821295Y1035690D01*
X1821261Y1035716D01*
X1817374Y1037782D01*
X1817344Y1037791D01*
X1817307Y1037812D01*
X1813157Y1039281D01*
X1813126Y1039286D01*
X1813086Y1039301D01*
X1808765Y1040140D01*
X1808709Y1040140D01*
X1808653Y1040149D01*
X1808611Y1040139D01*
X1808566Y1040138D01*
X1808515Y1040116D01*
X1808460Y1040103D01*
X1808425Y1040077D01*
X1808384Y1040059D01*
X1808345Y1040018D01*
X1808300Y1039985D01*
X1808277Y1039947D01*
X1808247Y1039915D01*
X1808227Y1039862D01*
X1808198Y1039814D01*
X1808190Y1039763D01*
X1808177Y1039729D01*
X1808178Y1039695D01*
X1808171Y1039650D01*
X1808171Y1028650D01*
X1808181Y1028597D01*
X1808182Y1028544D01*
X1808201Y1028501D01*
X1808210Y1028455D01*
X1808241Y1028411D01*
X1808262Y1028362D01*
X1808296Y1028330D01*
X1808323Y1028291D01*
X1808368Y1028262D01*
X1808407Y1028226D01*
X1808458Y1028205D01*
X1808490Y1028184D01*
X1808522Y1028179D01*
X1808561Y1028163D01*
X1811296Y1027552D01*
X1813860Y1026524D01*
X1816224Y1025097D01*
X1818328Y1023308D01*
X1820117Y1021204D01*
X1821544Y1018840D01*
X1822572Y1016276D01*
X1823183Y1013541D01*
X1823205Y1013492D01*
X1823217Y1013440D01*
X1823245Y1013402D01*
X1823264Y1013360D01*
X1823303Y1013323D01*
X1823335Y1013280D01*
X1823375Y1013256D01*
X1823409Y1013224D01*
X1823460Y1013206D01*
X1823506Y1013178D01*
X1823560Y1013169D01*
X1823596Y1013156D01*
X1823628Y1013158D01*
X1823670Y1013151D01*
X1834670Y1013151D01*
X1834725Y1013162D01*
G37*
G36*
X889845Y545802D02*
X889845Y545802D01*
X889901Y545803D01*
X889942Y545822D01*
X889985Y545830D01*
X890031Y545862D01*
X890083Y545885D01*
X890112Y545918D01*
X890149Y545943D01*
X890179Y545990D01*
X890217Y546032D01*
X890232Y546073D01*
X890256Y546110D01*
X890265Y546166D01*
X890284Y546219D01*
X890283Y546271D01*
X890289Y546307D01*
X890281Y546339D01*
X890280Y546385D01*
X889441Y550706D01*
X889429Y550735D01*
X889421Y550777D01*
X887952Y554927D01*
X887936Y554954D01*
X887927Y554981D01*
X887925Y554987D01*
X887924Y554989D01*
X887922Y554994D01*
X885856Y558881D01*
X885836Y558905D01*
X885817Y558944D01*
X883199Y562482D01*
X883175Y562503D01*
X883150Y562538D01*
X880038Y565650D01*
X880012Y565668D01*
X879982Y565699D01*
X876444Y568317D01*
X876415Y568330D01*
X876381Y568356D01*
X872494Y570422D01*
X872464Y570431D01*
X872427Y570452D01*
X868277Y571921D01*
X868246Y571926D01*
X868206Y571941D01*
X863885Y572780D01*
X863829Y572780D01*
X863773Y572789D01*
X863731Y572779D01*
X863686Y572778D01*
X863635Y572756D01*
X863580Y572743D01*
X863545Y572717D01*
X863504Y572699D01*
X863465Y572658D01*
X863420Y572625D01*
X863397Y572587D01*
X863367Y572555D01*
X863347Y572502D01*
X863318Y572454D01*
X863310Y572403D01*
X863297Y572369D01*
X863298Y572335D01*
X863291Y572290D01*
X863291Y561290D01*
X863301Y561237D01*
X863302Y561184D01*
X863321Y561141D01*
X863330Y561095D01*
X863361Y561051D01*
X863382Y561002D01*
X863416Y560970D01*
X863443Y560931D01*
X863488Y560902D01*
X863527Y560866D01*
X863578Y560845D01*
X863610Y560824D01*
X863642Y560819D01*
X863681Y560803D01*
X866416Y560192D01*
X868980Y559164D01*
X871344Y557737D01*
X873448Y555948D01*
X875237Y553844D01*
X876664Y551480D01*
X877692Y548916D01*
X878303Y546181D01*
X878325Y546132D01*
X878337Y546080D01*
X878365Y546042D01*
X878384Y546000D01*
X878423Y545963D01*
X878455Y545920D01*
X878495Y545896D01*
X878529Y545864D01*
X878580Y545846D01*
X878626Y545818D01*
X878680Y545809D01*
X878716Y545796D01*
X878748Y545798D01*
X878790Y545791D01*
X889790Y545791D01*
X889845Y545802D01*
G37*
G36*
X863839Y745479D02*
X863839Y745479D01*
X863885Y745480D01*
X868206Y746319D01*
X868235Y746331D01*
X868277Y746339D01*
X872427Y747808D01*
X872454Y747824D01*
X872494Y747838D01*
X876381Y749904D01*
X876405Y749924D01*
X876444Y749943D01*
X879982Y752561D01*
X880003Y752585D01*
X880038Y752610D01*
X883150Y755722D01*
X883168Y755749D01*
X883199Y755778D01*
X885817Y759317D01*
X885830Y759345D01*
X885856Y759379D01*
X887922Y763266D01*
X887931Y763296D01*
X887952Y763333D01*
X889421Y767483D01*
X889426Y767514D01*
X889441Y767554D01*
X890280Y771875D01*
X890280Y771931D01*
X890289Y771987D01*
X890279Y772029D01*
X890278Y772074D01*
X890256Y772125D01*
X890243Y772180D01*
X890217Y772216D01*
X890199Y772256D01*
X890158Y772295D01*
X890125Y772340D01*
X890087Y772363D01*
X890055Y772393D01*
X890002Y772413D01*
X889954Y772442D01*
X889903Y772450D01*
X889869Y772463D01*
X889835Y772462D01*
X889790Y772469D01*
X878790Y772469D01*
X878737Y772459D01*
X878684Y772458D01*
X878641Y772439D01*
X878595Y772430D01*
X878551Y772399D01*
X878502Y772378D01*
X878470Y772344D01*
X878431Y772317D01*
X878402Y772272D01*
X878366Y772233D01*
X878345Y772182D01*
X878324Y772150D01*
X878319Y772118D01*
X878316Y772112D01*
X878315Y772111D01*
X878315Y772110D01*
X878303Y772079D01*
X877692Y769344D01*
X876664Y766780D01*
X875237Y764416D01*
X873448Y762312D01*
X871344Y760523D01*
X868980Y759096D01*
X866416Y758068D01*
X863681Y757457D01*
X863632Y757435D01*
X863580Y757423D01*
X863542Y757395D01*
X863500Y757376D01*
X863463Y757337D01*
X863420Y757305D01*
X863396Y757265D01*
X863364Y757231D01*
X863346Y757180D01*
X863318Y757134D01*
X863309Y757080D01*
X863296Y757044D01*
X863298Y757012D01*
X863291Y756970D01*
X863291Y745970D01*
X863302Y745915D01*
X863303Y745859D01*
X863322Y745818D01*
X863330Y745775D01*
X863362Y745729D01*
X863385Y745678D01*
X863418Y745648D01*
X863443Y745611D01*
X863490Y745581D01*
X863532Y745543D01*
X863573Y745528D01*
X863610Y745504D01*
X863666Y745495D01*
X863719Y745476D01*
X863771Y745477D01*
X863807Y745471D01*
X863839Y745479D01*
G37*
G36*
X1808719Y278119D02*
X1808719Y278119D01*
X1808765Y278120D01*
X1813086Y278959D01*
X1813115Y278971D01*
X1813157Y278979D01*
X1817307Y280448D01*
X1817334Y280464D01*
X1817374Y280478D01*
X1821261Y282544D01*
X1821285Y282564D01*
X1821324Y282583D01*
X1824862Y285201D01*
X1824883Y285225D01*
X1824918Y285250D01*
X1828030Y288362D01*
X1828048Y288389D01*
X1828079Y288418D01*
X1830697Y291957D01*
X1830710Y291985D01*
X1830736Y292019D01*
X1832802Y295906D01*
X1832811Y295936D01*
X1832832Y295973D01*
X1834301Y300123D01*
X1834306Y300154D01*
X1834321Y300194D01*
X1835160Y304515D01*
X1835160Y304571D01*
X1835169Y304627D01*
X1835159Y304669D01*
X1835158Y304714D01*
X1835136Y304765D01*
X1835123Y304820D01*
X1835097Y304856D01*
X1835079Y304896D01*
X1835038Y304935D01*
X1835005Y304980D01*
X1834967Y305003D01*
X1834935Y305033D01*
X1834882Y305053D01*
X1834834Y305082D01*
X1834783Y305090D01*
X1834749Y305103D01*
X1834715Y305102D01*
X1834670Y305109D01*
X1823670Y305109D01*
X1823617Y305099D01*
X1823564Y305098D01*
X1823521Y305079D01*
X1823475Y305070D01*
X1823431Y305039D01*
X1823382Y305018D01*
X1823350Y304984D01*
X1823311Y304957D01*
X1823282Y304912D01*
X1823246Y304873D01*
X1823225Y304822D01*
X1823204Y304790D01*
X1823199Y304758D01*
X1823196Y304752D01*
X1823195Y304751D01*
X1823195Y304750D01*
X1823183Y304719D01*
X1822572Y301984D01*
X1821544Y299420D01*
X1820117Y297056D01*
X1818328Y294952D01*
X1816224Y293163D01*
X1813860Y291736D01*
X1811296Y290708D01*
X1808561Y290097D01*
X1808512Y290075D01*
X1808460Y290063D01*
X1808422Y290035D01*
X1808380Y290016D01*
X1808343Y289977D01*
X1808300Y289945D01*
X1808276Y289905D01*
X1808244Y289871D01*
X1808226Y289820D01*
X1808198Y289774D01*
X1808189Y289720D01*
X1808176Y289684D01*
X1808178Y289652D01*
X1808171Y289610D01*
X1808171Y278610D01*
X1808182Y278555D01*
X1808183Y278499D01*
X1808202Y278458D01*
X1808210Y278415D01*
X1808242Y278369D01*
X1808265Y278318D01*
X1808298Y278288D01*
X1808323Y278251D01*
X1808370Y278221D01*
X1808412Y278183D01*
X1808453Y278168D01*
X1808490Y278144D01*
X1808546Y278135D01*
X1808599Y278116D01*
X1808651Y278117D01*
X1808687Y278111D01*
X1808719Y278119D01*
G37*
G36*
X863839Y511799D02*
X863839Y511799D01*
X863885Y511800D01*
X868206Y512639D01*
X868235Y512651D01*
X868277Y512659D01*
X872427Y514128D01*
X872454Y514144D01*
X872494Y514158D01*
X876381Y516224D01*
X876405Y516244D01*
X876444Y516263D01*
X879982Y518881D01*
X880003Y518905D01*
X880038Y518930D01*
X883150Y522042D01*
X883168Y522069D01*
X883199Y522098D01*
X885817Y525637D01*
X885830Y525665D01*
X885856Y525699D01*
X887922Y529586D01*
X887931Y529616D01*
X887952Y529653D01*
X889421Y533803D01*
X889426Y533834D01*
X889441Y533874D01*
X890280Y538195D01*
X890280Y538251D01*
X890289Y538307D01*
X890279Y538349D01*
X890278Y538394D01*
X890256Y538445D01*
X890243Y538500D01*
X890217Y538536D01*
X890199Y538576D01*
X890158Y538615D01*
X890125Y538660D01*
X890087Y538683D01*
X890055Y538713D01*
X890002Y538733D01*
X889954Y538762D01*
X889903Y538770D01*
X889869Y538783D01*
X889835Y538782D01*
X889790Y538789D01*
X878790Y538789D01*
X878737Y538779D01*
X878684Y538778D01*
X878641Y538759D01*
X878595Y538750D01*
X878551Y538719D01*
X878502Y538698D01*
X878470Y538664D01*
X878431Y538637D01*
X878402Y538592D01*
X878366Y538553D01*
X878345Y538502D01*
X878324Y538470D01*
X878319Y538438D01*
X878316Y538432D01*
X878315Y538431D01*
X878315Y538430D01*
X878303Y538399D01*
X877692Y535664D01*
X876664Y533100D01*
X875237Y530736D01*
X873448Y528632D01*
X871344Y526843D01*
X868980Y525416D01*
X866416Y524388D01*
X863681Y523777D01*
X863632Y523755D01*
X863580Y523743D01*
X863542Y523715D01*
X863500Y523696D01*
X863463Y523657D01*
X863420Y523625D01*
X863396Y523585D01*
X863364Y523551D01*
X863346Y523500D01*
X863318Y523454D01*
X863309Y523400D01*
X863296Y523364D01*
X863298Y523332D01*
X863291Y523290D01*
X863291Y512290D01*
X863302Y512235D01*
X863303Y512179D01*
X863322Y512138D01*
X863330Y512095D01*
X863362Y512049D01*
X863385Y511998D01*
X863418Y511968D01*
X863443Y511931D01*
X863490Y511901D01*
X863532Y511863D01*
X863573Y511848D01*
X863610Y511824D01*
X863666Y511815D01*
X863719Y511796D01*
X863771Y511797D01*
X863807Y511791D01*
X863839Y511799D01*
G37*
G36*
X863839Y979159D02*
X863839Y979159D01*
X863885Y979160D01*
X868206Y979999D01*
X868235Y980011D01*
X868277Y980019D01*
X872427Y981488D01*
X872454Y981504D01*
X872494Y981518D01*
X876381Y983584D01*
X876405Y983604D01*
X876444Y983623D01*
X879982Y986241D01*
X880003Y986265D01*
X880038Y986290D01*
X883150Y989402D01*
X883168Y989429D01*
X883199Y989458D01*
X885817Y992997D01*
X885830Y993025D01*
X885856Y993059D01*
X887922Y996946D01*
X887931Y996976D01*
X887952Y997013D01*
X889421Y1001163D01*
X889426Y1001194D01*
X889441Y1001234D01*
X890280Y1005555D01*
X890280Y1005611D01*
X890289Y1005667D01*
X890279Y1005709D01*
X890278Y1005754D01*
X890256Y1005805D01*
X890243Y1005860D01*
X890217Y1005896D01*
X890199Y1005936D01*
X890158Y1005975D01*
X890125Y1006020D01*
X890087Y1006043D01*
X890055Y1006073D01*
X890002Y1006093D01*
X889954Y1006122D01*
X889903Y1006130D01*
X889869Y1006143D01*
X889835Y1006142D01*
X889790Y1006149D01*
X878790Y1006149D01*
X878737Y1006139D01*
X878684Y1006138D01*
X878641Y1006119D01*
X878595Y1006110D01*
X878551Y1006079D01*
X878502Y1006058D01*
X878470Y1006024D01*
X878431Y1005997D01*
X878402Y1005952D01*
X878366Y1005913D01*
X878345Y1005862D01*
X878324Y1005830D01*
X878319Y1005798D01*
X878316Y1005792D01*
X878315Y1005791D01*
X878315Y1005790D01*
X878303Y1005759D01*
X877692Y1003024D01*
X876664Y1000460D01*
X875237Y998096D01*
X873448Y995992D01*
X871344Y994203D01*
X868980Y992776D01*
X866416Y991748D01*
X863681Y991137D01*
X863632Y991115D01*
X863580Y991103D01*
X863542Y991075D01*
X863500Y991056D01*
X863463Y991017D01*
X863420Y990985D01*
X863396Y990945D01*
X863364Y990911D01*
X863346Y990860D01*
X863318Y990814D01*
X863309Y990760D01*
X863296Y990724D01*
X863298Y990692D01*
X863291Y990650D01*
X863291Y979650D01*
X863302Y979595D01*
X863303Y979539D01*
X863322Y979498D01*
X863330Y979455D01*
X863362Y979409D01*
X863385Y979358D01*
X863418Y979328D01*
X863443Y979291D01*
X863490Y979261D01*
X863532Y979223D01*
X863573Y979208D01*
X863610Y979184D01*
X863666Y979175D01*
X863719Y979156D01*
X863771Y979157D01*
X863807Y979151D01*
X863839Y979159D01*
G37*
G36*
X1808719Y979159D02*
X1808719Y979159D01*
X1808765Y979160D01*
X1813086Y979999D01*
X1813115Y980011D01*
X1813157Y980019D01*
X1817307Y981488D01*
X1817334Y981504D01*
X1817374Y981518D01*
X1821261Y983584D01*
X1821285Y983604D01*
X1821324Y983623D01*
X1824862Y986241D01*
X1824883Y986265D01*
X1824918Y986290D01*
X1828030Y989402D01*
X1828048Y989429D01*
X1828079Y989458D01*
X1830697Y992997D01*
X1830710Y993025D01*
X1830736Y993059D01*
X1832802Y996946D01*
X1832811Y996976D01*
X1832832Y997013D01*
X1834301Y1001163D01*
X1834306Y1001194D01*
X1834321Y1001234D01*
X1835160Y1005555D01*
X1835160Y1005611D01*
X1835169Y1005667D01*
X1835159Y1005709D01*
X1835158Y1005754D01*
X1835136Y1005805D01*
X1835123Y1005860D01*
X1835097Y1005896D01*
X1835079Y1005936D01*
X1835038Y1005975D01*
X1835005Y1006020D01*
X1834967Y1006043D01*
X1834935Y1006073D01*
X1834882Y1006093D01*
X1834834Y1006122D01*
X1834783Y1006130D01*
X1834749Y1006143D01*
X1834715Y1006142D01*
X1834670Y1006149D01*
X1823670Y1006149D01*
X1823617Y1006139D01*
X1823564Y1006138D01*
X1823521Y1006119D01*
X1823475Y1006110D01*
X1823431Y1006079D01*
X1823382Y1006058D01*
X1823350Y1006024D01*
X1823311Y1005997D01*
X1823282Y1005952D01*
X1823246Y1005913D01*
X1823225Y1005862D01*
X1823204Y1005830D01*
X1823199Y1005798D01*
X1823196Y1005792D01*
X1823195Y1005791D01*
X1823195Y1005790D01*
X1823183Y1005759D01*
X1822572Y1003024D01*
X1821544Y1000460D01*
X1820117Y998096D01*
X1818328Y995992D01*
X1816224Y994203D01*
X1813860Y992776D01*
X1811296Y991748D01*
X1808561Y991137D01*
X1808512Y991115D01*
X1808460Y991103D01*
X1808422Y991075D01*
X1808380Y991056D01*
X1808343Y991017D01*
X1808300Y990985D01*
X1808276Y990945D01*
X1808244Y990911D01*
X1808226Y990860D01*
X1808198Y990814D01*
X1808189Y990760D01*
X1808176Y990724D01*
X1808178Y990692D01*
X1808171Y990650D01*
X1808171Y979650D01*
X1808182Y979595D01*
X1808183Y979539D01*
X1808202Y979498D01*
X1808210Y979455D01*
X1808242Y979409D01*
X1808265Y979358D01*
X1808298Y979328D01*
X1808323Y979291D01*
X1808370Y979261D01*
X1808412Y979223D01*
X1808453Y979208D01*
X1808490Y979184D01*
X1808546Y979175D01*
X1808599Y979156D01*
X1808651Y979157D01*
X1808687Y979151D01*
X1808719Y979159D01*
G37*
G36*
X1808719Y511799D02*
X1808719Y511799D01*
X1808765Y511800D01*
X1813086Y512639D01*
X1813115Y512651D01*
X1813157Y512659D01*
X1817307Y514128D01*
X1817334Y514144D01*
X1817374Y514158D01*
X1821261Y516224D01*
X1821285Y516244D01*
X1821324Y516263D01*
X1824862Y518881D01*
X1824883Y518905D01*
X1824918Y518930D01*
X1828030Y522042D01*
X1828048Y522069D01*
X1828079Y522098D01*
X1830697Y525637D01*
X1830710Y525665D01*
X1830736Y525699D01*
X1832802Y529586D01*
X1832811Y529616D01*
X1832832Y529653D01*
X1834301Y533803D01*
X1834306Y533834D01*
X1834321Y533874D01*
X1835160Y538195D01*
X1835160Y538251D01*
X1835169Y538307D01*
X1835159Y538349D01*
X1835158Y538394D01*
X1835136Y538445D01*
X1835123Y538500D01*
X1835097Y538536D01*
X1835079Y538576D01*
X1835038Y538615D01*
X1835005Y538660D01*
X1834967Y538683D01*
X1834935Y538713D01*
X1834882Y538733D01*
X1834834Y538762D01*
X1834783Y538770D01*
X1834749Y538783D01*
X1834715Y538782D01*
X1834670Y538789D01*
X1823670Y538789D01*
X1823617Y538779D01*
X1823564Y538778D01*
X1823521Y538759D01*
X1823475Y538750D01*
X1823431Y538719D01*
X1823382Y538698D01*
X1823350Y538664D01*
X1823311Y538637D01*
X1823282Y538592D01*
X1823246Y538553D01*
X1823225Y538502D01*
X1823204Y538470D01*
X1823199Y538438D01*
X1823196Y538432D01*
X1823195Y538431D01*
X1823195Y538430D01*
X1823183Y538399D01*
X1822572Y535664D01*
X1821544Y533100D01*
X1820117Y530736D01*
X1818328Y528632D01*
X1816224Y526843D01*
X1813860Y525416D01*
X1811296Y524388D01*
X1808561Y523777D01*
X1808512Y523755D01*
X1808460Y523743D01*
X1808422Y523715D01*
X1808380Y523696D01*
X1808343Y523657D01*
X1808300Y523625D01*
X1808276Y523585D01*
X1808244Y523551D01*
X1808226Y523500D01*
X1808198Y523454D01*
X1808189Y523400D01*
X1808176Y523364D01*
X1808178Y523332D01*
X1808171Y523290D01*
X1808171Y512290D01*
X1808182Y512235D01*
X1808183Y512179D01*
X1808202Y512138D01*
X1808210Y512095D01*
X1808242Y512049D01*
X1808265Y511998D01*
X1808298Y511968D01*
X1808323Y511931D01*
X1808370Y511901D01*
X1808412Y511863D01*
X1808453Y511848D01*
X1808490Y511824D01*
X1808546Y511815D01*
X1808599Y511796D01*
X1808651Y511797D01*
X1808687Y511791D01*
X1808719Y511799D01*
G37*
G36*
X863839Y44439D02*
X863839Y44439D01*
X863885Y44440D01*
X868206Y45279D01*
X868235Y45291D01*
X868277Y45299D01*
X872427Y46768D01*
X872454Y46784D01*
X872494Y46798D01*
X876381Y48864D01*
X876405Y48884D01*
X876444Y48903D01*
X879982Y51521D01*
X880003Y51545D01*
X880038Y51570D01*
X883150Y54682D01*
X883168Y54709D01*
X883199Y54738D01*
X885817Y58277D01*
X885830Y58305D01*
X885856Y58339D01*
X887922Y62226D01*
X887931Y62256D01*
X887952Y62293D01*
X889421Y66443D01*
X889426Y66474D01*
X889441Y66514D01*
X890280Y70835D01*
X890280Y70891D01*
X890289Y70947D01*
X890279Y70989D01*
X890278Y71034D01*
X890256Y71085D01*
X890243Y71140D01*
X890217Y71176D01*
X890199Y71216D01*
X890158Y71255D01*
X890125Y71300D01*
X890087Y71323D01*
X890055Y71353D01*
X890002Y71373D01*
X889954Y71402D01*
X889903Y71410D01*
X889869Y71423D01*
X889835Y71422D01*
X889790Y71429D01*
X878790Y71429D01*
X878737Y71419D01*
X878684Y71418D01*
X878641Y71399D01*
X878595Y71390D01*
X878551Y71359D01*
X878502Y71338D01*
X878470Y71304D01*
X878431Y71277D01*
X878402Y71232D01*
X878366Y71193D01*
X878345Y71142D01*
X878324Y71110D01*
X878319Y71078D01*
X878316Y71072D01*
X878315Y71071D01*
X878315Y71070D01*
X878303Y71039D01*
X877692Y68304D01*
X876664Y65740D01*
X875237Y63376D01*
X873448Y61272D01*
X871344Y59483D01*
X868980Y58056D01*
X866416Y57028D01*
X863681Y56417D01*
X863632Y56395D01*
X863580Y56383D01*
X863542Y56355D01*
X863500Y56336D01*
X863463Y56297D01*
X863420Y56265D01*
X863396Y56225D01*
X863364Y56191D01*
X863346Y56140D01*
X863318Y56094D01*
X863309Y56040D01*
X863296Y56004D01*
X863298Y55972D01*
X863291Y55930D01*
X863291Y44930D01*
X863302Y44875D01*
X863303Y44819D01*
X863322Y44778D01*
X863330Y44735D01*
X863362Y44689D01*
X863385Y44638D01*
X863418Y44608D01*
X863443Y44571D01*
X863490Y44541D01*
X863532Y44503D01*
X863573Y44488D01*
X863610Y44464D01*
X863666Y44455D01*
X863719Y44436D01*
X863771Y44437D01*
X863807Y44431D01*
X863839Y44439D01*
G37*
G36*
X863839Y278119D02*
X863839Y278119D01*
X863885Y278120D01*
X868206Y278959D01*
X868235Y278971D01*
X868277Y278979D01*
X872427Y280448D01*
X872454Y280464D01*
X872494Y280478D01*
X876381Y282544D01*
X876405Y282564D01*
X876444Y282583D01*
X879982Y285201D01*
X880003Y285225D01*
X880038Y285250D01*
X883150Y288362D01*
X883168Y288389D01*
X883199Y288418D01*
X885817Y291957D01*
X885830Y291985D01*
X885856Y292019D01*
X887922Y295906D01*
X887931Y295936D01*
X887952Y295973D01*
X889421Y300123D01*
X889426Y300154D01*
X889441Y300194D01*
X890280Y304515D01*
X890280Y304571D01*
X890289Y304627D01*
X890279Y304669D01*
X890278Y304714D01*
X890256Y304765D01*
X890243Y304820D01*
X890217Y304856D01*
X890199Y304896D01*
X890158Y304935D01*
X890125Y304980D01*
X890087Y305003D01*
X890055Y305033D01*
X890002Y305053D01*
X889954Y305082D01*
X889903Y305090D01*
X889869Y305103D01*
X889835Y305102D01*
X889790Y305109D01*
X878790Y305109D01*
X878737Y305099D01*
X878684Y305098D01*
X878641Y305079D01*
X878595Y305070D01*
X878551Y305039D01*
X878502Y305018D01*
X878470Y304984D01*
X878431Y304957D01*
X878402Y304912D01*
X878366Y304873D01*
X878345Y304822D01*
X878324Y304790D01*
X878319Y304758D01*
X878316Y304752D01*
X878315Y304751D01*
X878315Y304750D01*
X878303Y304719D01*
X877692Y301984D01*
X876664Y299420D01*
X875237Y297056D01*
X873448Y294952D01*
X871344Y293163D01*
X868980Y291736D01*
X866416Y290708D01*
X863681Y290097D01*
X863632Y290075D01*
X863580Y290063D01*
X863542Y290035D01*
X863500Y290016D01*
X863463Y289977D01*
X863420Y289945D01*
X863396Y289905D01*
X863364Y289871D01*
X863346Y289820D01*
X863318Y289774D01*
X863309Y289720D01*
X863296Y289684D01*
X863298Y289652D01*
X863291Y289610D01*
X863291Y278610D01*
X863302Y278555D01*
X863303Y278499D01*
X863322Y278458D01*
X863330Y278415D01*
X863362Y278369D01*
X863385Y278318D01*
X863418Y278288D01*
X863443Y278251D01*
X863490Y278221D01*
X863532Y278183D01*
X863573Y278168D01*
X863610Y278144D01*
X863666Y278135D01*
X863719Y278116D01*
X863771Y278117D01*
X863807Y278111D01*
X863839Y278119D01*
G37*
G36*
X1808719Y745479D02*
X1808719Y745479D01*
X1808765Y745480D01*
X1813086Y746319D01*
X1813115Y746331D01*
X1813157Y746339D01*
X1817307Y747808D01*
X1817334Y747824D01*
X1817374Y747838D01*
X1821261Y749904D01*
X1821285Y749924D01*
X1821324Y749943D01*
X1824862Y752561D01*
X1824883Y752585D01*
X1824918Y752610D01*
X1828030Y755722D01*
X1828048Y755749D01*
X1828079Y755778D01*
X1830697Y759317D01*
X1830710Y759345D01*
X1830736Y759379D01*
X1832802Y763266D01*
X1832811Y763296D01*
X1832832Y763333D01*
X1834301Y767483D01*
X1834306Y767514D01*
X1834321Y767554D01*
X1835160Y771875D01*
X1835160Y771931D01*
X1835169Y771987D01*
X1835159Y772029D01*
X1835158Y772074D01*
X1835136Y772125D01*
X1835123Y772180D01*
X1835097Y772216D01*
X1835079Y772256D01*
X1835038Y772295D01*
X1835005Y772340D01*
X1834967Y772363D01*
X1834935Y772393D01*
X1834882Y772413D01*
X1834834Y772442D01*
X1834783Y772450D01*
X1834749Y772463D01*
X1834715Y772462D01*
X1834670Y772469D01*
X1823670Y772469D01*
X1823617Y772459D01*
X1823564Y772458D01*
X1823521Y772439D01*
X1823475Y772430D01*
X1823431Y772399D01*
X1823382Y772378D01*
X1823350Y772344D01*
X1823311Y772317D01*
X1823282Y772272D01*
X1823246Y772233D01*
X1823225Y772182D01*
X1823204Y772150D01*
X1823199Y772118D01*
X1823196Y772112D01*
X1823195Y772111D01*
X1823195Y772110D01*
X1823183Y772079D01*
X1822572Y769344D01*
X1821544Y766780D01*
X1820117Y764416D01*
X1818328Y762312D01*
X1816224Y760523D01*
X1813860Y759096D01*
X1811296Y758068D01*
X1808561Y757457D01*
X1808512Y757435D01*
X1808460Y757423D01*
X1808422Y757395D01*
X1808380Y757376D01*
X1808343Y757337D01*
X1808300Y757305D01*
X1808276Y757265D01*
X1808244Y757231D01*
X1808226Y757180D01*
X1808198Y757134D01*
X1808189Y757080D01*
X1808176Y757044D01*
X1808178Y757012D01*
X1808171Y756970D01*
X1808171Y745970D01*
X1808182Y745915D01*
X1808183Y745859D01*
X1808202Y745818D01*
X1808210Y745775D01*
X1808242Y745729D01*
X1808265Y745678D01*
X1808298Y745648D01*
X1808323Y745611D01*
X1808370Y745581D01*
X1808412Y745543D01*
X1808453Y745528D01*
X1808490Y745504D01*
X1808546Y745495D01*
X1808599Y745476D01*
X1808651Y745477D01*
X1808687Y745471D01*
X1808719Y745479D01*
G37*
G36*
X1808719Y44439D02*
X1808719Y44439D01*
X1808765Y44440D01*
X1813086Y45279D01*
X1813115Y45291D01*
X1813157Y45299D01*
X1817307Y46768D01*
X1817334Y46784D01*
X1817374Y46798D01*
X1821261Y48864D01*
X1821285Y48884D01*
X1821324Y48903D01*
X1824862Y51521D01*
X1824883Y51545D01*
X1824918Y51570D01*
X1828030Y54682D01*
X1828048Y54709D01*
X1828079Y54738D01*
X1830697Y58277D01*
X1830710Y58305D01*
X1830736Y58339D01*
X1832802Y62226D01*
X1832811Y62256D01*
X1832832Y62293D01*
X1834301Y66443D01*
X1834306Y66474D01*
X1834321Y66514D01*
X1835160Y70835D01*
X1835160Y70891D01*
X1835169Y70947D01*
X1835159Y70989D01*
X1835158Y71034D01*
X1835136Y71085D01*
X1835123Y71140D01*
X1835097Y71176D01*
X1835079Y71216D01*
X1835038Y71255D01*
X1835005Y71300D01*
X1834967Y71323D01*
X1834935Y71353D01*
X1834882Y71373D01*
X1834834Y71402D01*
X1834783Y71410D01*
X1834749Y71423D01*
X1834715Y71422D01*
X1834670Y71429D01*
X1823670Y71429D01*
X1823617Y71419D01*
X1823564Y71418D01*
X1823521Y71399D01*
X1823475Y71390D01*
X1823431Y71359D01*
X1823382Y71338D01*
X1823350Y71304D01*
X1823311Y71277D01*
X1823282Y71232D01*
X1823246Y71193D01*
X1823225Y71142D01*
X1823204Y71110D01*
X1823199Y71078D01*
X1823196Y71072D01*
X1823195Y71071D01*
X1823195Y71070D01*
X1823183Y71039D01*
X1822572Y68304D01*
X1821544Y65740D01*
X1820117Y63376D01*
X1818328Y61272D01*
X1816224Y59483D01*
X1813860Y58056D01*
X1811296Y57028D01*
X1808561Y56417D01*
X1808512Y56395D01*
X1808460Y56383D01*
X1808422Y56355D01*
X1808380Y56336D01*
X1808343Y56297D01*
X1808300Y56265D01*
X1808276Y56225D01*
X1808244Y56191D01*
X1808226Y56140D01*
X1808198Y56094D01*
X1808189Y56040D01*
X1808176Y56004D01*
X1808178Y55972D01*
X1808171Y55930D01*
X1808171Y44930D01*
X1808182Y44875D01*
X1808183Y44819D01*
X1808202Y44778D01*
X1808210Y44735D01*
X1808242Y44689D01*
X1808265Y44638D01*
X1808298Y44608D01*
X1808323Y44571D01*
X1808370Y44541D01*
X1808412Y44503D01*
X1808453Y44488D01*
X1808490Y44464D01*
X1808546Y44455D01*
X1808599Y44436D01*
X1808651Y44437D01*
X1808687Y44431D01*
X1808719Y44439D01*
G37*
G36*
X1005185Y533414D02*
X1005185Y533414D01*
X1005188Y533411D01*
X1006283Y533591D01*
X1006289Y533597D01*
X1006294Y533594D01*
X1007322Y534013D01*
X1007326Y534020D01*
X1007331Y534018D01*
X1008240Y534656D01*
X1008243Y534663D01*
X1008248Y534663D01*
X1008992Y535486D01*
X1008993Y535494D01*
X1008999Y535495D01*
X1009541Y536463D01*
X1009540Y536472D01*
X1009546Y536474D01*
X1009859Y537538D01*
X1009856Y537546D01*
X1009861Y537549D01*
X1009929Y538657D01*
X1009925Y538664D01*
X1009929Y538667D01*
X1009759Y539775D01*
X1009753Y539781D01*
X1009756Y539786D01*
X1009344Y540828D01*
X1009337Y540832D01*
X1009339Y540837D01*
X1008705Y541762D01*
X1008697Y541764D01*
X1008698Y541770D01*
X1007875Y542530D01*
X1007866Y542531D01*
X1007866Y542537D01*
X1006894Y543094D01*
X1006886Y543093D01*
X1006884Y543099D01*
X1005812Y543426D01*
X1005804Y543423D01*
X1005801Y543428D01*
X1004684Y543509D01*
X1004681Y543508D01*
X1004680Y543509D01*
X992680Y543509D01*
X992677Y543507D01*
X992670Y543507D01*
X992669Y543508D01*
X991725Y543289D01*
X991719Y543283D01*
X991714Y543285D01*
X990842Y542862D01*
X990839Y542854D01*
X990833Y542856D01*
X990077Y542249D01*
X990075Y542241D01*
X990069Y542241D01*
X989468Y541481D01*
X989468Y541472D01*
X989462Y541471D01*
X989044Y540596D01*
X989046Y540588D01*
X989041Y540586D01*
X988829Y539640D01*
X988832Y539633D01*
X988827Y539629D01*
X988831Y538660D01*
X988831Y538659D01*
X988850Y537591D01*
X988855Y537584D01*
X988851Y537580D01*
X989107Y536543D01*
X989114Y536538D01*
X989111Y536532D01*
X989592Y535578D01*
X989599Y535575D01*
X989598Y535569D01*
X990279Y534746D01*
X990287Y534744D01*
X990287Y534738D01*
X991134Y534087D01*
X991142Y534087D01*
X991143Y534081D01*
X992114Y533634D01*
X992122Y533636D01*
X992124Y533631D01*
X993170Y533412D01*
X993177Y533415D01*
X993180Y533411D01*
X1005180Y533411D01*
X1005185Y533414D01*
G37*
G36*
X60305Y533414D02*
X60305Y533414D01*
X60308Y533411D01*
X61403Y533591D01*
X61409Y533597D01*
X61414Y533594D01*
X62442Y534013D01*
X62446Y534020D01*
X62451Y534018D01*
X63360Y534656D01*
X63363Y534663D01*
X63368Y534663D01*
X64112Y535486D01*
X64113Y535494D01*
X64119Y535495D01*
X64661Y536463D01*
X64660Y536472D01*
X64666Y536474D01*
X64979Y537538D01*
X64976Y537546D01*
X64981Y537549D01*
X65049Y538657D01*
X65045Y538664D01*
X65049Y538667D01*
X64879Y539775D01*
X64873Y539781D01*
X64876Y539786D01*
X64464Y540828D01*
X64457Y540832D01*
X64459Y540837D01*
X63825Y541762D01*
X63817Y541764D01*
X63818Y541770D01*
X62995Y542530D01*
X62986Y542531D01*
X62986Y542537D01*
X62014Y543094D01*
X62006Y543093D01*
X62004Y543099D01*
X60932Y543426D01*
X60924Y543423D01*
X60921Y543428D01*
X59804Y543509D01*
X59801Y543508D01*
X59800Y543509D01*
X47800Y543509D01*
X47797Y543507D01*
X47790Y543507D01*
X47789Y543508D01*
X46845Y543289D01*
X46839Y543283D01*
X46834Y543285D01*
X45962Y542862D01*
X45959Y542854D01*
X45953Y542856D01*
X45197Y542249D01*
X45195Y542241D01*
X45189Y542241D01*
X44588Y541481D01*
X44588Y541472D01*
X44582Y541471D01*
X44164Y540596D01*
X44166Y540588D01*
X44161Y540586D01*
X43949Y539640D01*
X43952Y539633D01*
X43947Y539629D01*
X43951Y538660D01*
X43951Y538659D01*
X43970Y537591D01*
X43975Y537584D01*
X43971Y537580D01*
X44227Y536543D01*
X44234Y536538D01*
X44231Y536532D01*
X44712Y535578D01*
X44719Y535575D01*
X44718Y535569D01*
X45399Y534746D01*
X45407Y534744D01*
X45407Y534738D01*
X46254Y534087D01*
X46262Y534087D01*
X46263Y534081D01*
X47234Y533634D01*
X47242Y533636D01*
X47244Y533631D01*
X48290Y533412D01*
X48297Y533415D01*
X48300Y533411D01*
X60300Y533411D01*
X60305Y533414D01*
G37*
G36*
X1005185Y299734D02*
X1005185Y299734D01*
X1005188Y299731D01*
X1006283Y299911D01*
X1006289Y299917D01*
X1006294Y299914D01*
X1007322Y300333D01*
X1007326Y300340D01*
X1007331Y300338D01*
X1008240Y300976D01*
X1008243Y300983D01*
X1008248Y300983D01*
X1008992Y301806D01*
X1008993Y301814D01*
X1008999Y301815D01*
X1009541Y302783D01*
X1009540Y302792D01*
X1009546Y302794D01*
X1009859Y303858D01*
X1009856Y303866D01*
X1009861Y303869D01*
X1009929Y304977D01*
X1009925Y304984D01*
X1009929Y304987D01*
X1009759Y306095D01*
X1009753Y306101D01*
X1009756Y306106D01*
X1009344Y307148D01*
X1009337Y307152D01*
X1009339Y307157D01*
X1008705Y308082D01*
X1008697Y308084D01*
X1008698Y308090D01*
X1007875Y308850D01*
X1007866Y308851D01*
X1007866Y308857D01*
X1006894Y309414D01*
X1006886Y309413D01*
X1006884Y309419D01*
X1005812Y309746D01*
X1005804Y309743D01*
X1005801Y309748D01*
X1004684Y309829D01*
X1004681Y309828D01*
X1004680Y309829D01*
X992680Y309829D01*
X992677Y309827D01*
X992670Y309827D01*
X992669Y309828D01*
X991725Y309609D01*
X991719Y309603D01*
X991714Y309605D01*
X990842Y309182D01*
X990839Y309174D01*
X990833Y309176D01*
X990077Y308569D01*
X990075Y308561D01*
X990069Y308561D01*
X989468Y307801D01*
X989468Y307792D01*
X989462Y307791D01*
X989044Y306916D01*
X989046Y306908D01*
X989041Y306906D01*
X988829Y305960D01*
X988832Y305953D01*
X988827Y305949D01*
X988831Y304980D01*
X988831Y304979D01*
X988850Y303911D01*
X988855Y303904D01*
X988851Y303900D01*
X989107Y302863D01*
X989114Y302858D01*
X989111Y302852D01*
X989592Y301898D01*
X989599Y301895D01*
X989598Y301889D01*
X990279Y301066D01*
X990287Y301064D01*
X990287Y301058D01*
X991134Y300407D01*
X991142Y300407D01*
X991143Y300401D01*
X992114Y299954D01*
X992122Y299956D01*
X992124Y299951D01*
X993170Y299732D01*
X993177Y299735D01*
X993180Y299731D01*
X1005180Y299731D01*
X1005185Y299734D01*
G37*
G36*
X60305Y1000774D02*
X60305Y1000774D01*
X60308Y1000771D01*
X61403Y1000951D01*
X61409Y1000957D01*
X61414Y1000954D01*
X62442Y1001373D01*
X62446Y1001380D01*
X62451Y1001378D01*
X63360Y1002016D01*
X63363Y1002023D01*
X63368Y1002023D01*
X64112Y1002846D01*
X64113Y1002854D01*
X64119Y1002855D01*
X64661Y1003823D01*
X64660Y1003832D01*
X64666Y1003834D01*
X64979Y1004898D01*
X64976Y1004906D01*
X64981Y1004909D01*
X65049Y1006017D01*
X65045Y1006024D01*
X65049Y1006027D01*
X64879Y1007135D01*
X64873Y1007141D01*
X64876Y1007146D01*
X64464Y1008188D01*
X64457Y1008192D01*
X64459Y1008197D01*
X63825Y1009122D01*
X63817Y1009124D01*
X63818Y1009130D01*
X62995Y1009890D01*
X62986Y1009891D01*
X62986Y1009897D01*
X62014Y1010454D01*
X62006Y1010453D01*
X62004Y1010459D01*
X60932Y1010786D01*
X60924Y1010783D01*
X60921Y1010788D01*
X59804Y1010869D01*
X59801Y1010868D01*
X59800Y1010869D01*
X47800Y1010869D01*
X47797Y1010867D01*
X47790Y1010867D01*
X47789Y1010868D01*
X46845Y1010649D01*
X46839Y1010643D01*
X46834Y1010645D01*
X45962Y1010222D01*
X45959Y1010214D01*
X45953Y1010216D01*
X45197Y1009609D01*
X45195Y1009601D01*
X45189Y1009601D01*
X44588Y1008841D01*
X44588Y1008832D01*
X44582Y1008831D01*
X44164Y1007956D01*
X44166Y1007948D01*
X44161Y1007946D01*
X43949Y1007000D01*
X43952Y1006993D01*
X43947Y1006989D01*
X43951Y1006020D01*
X43951Y1006019D01*
X43970Y1004951D01*
X43975Y1004944D01*
X43971Y1004940D01*
X44227Y1003903D01*
X44234Y1003898D01*
X44231Y1003892D01*
X44712Y1002938D01*
X44719Y1002935D01*
X44718Y1002929D01*
X45399Y1002106D01*
X45407Y1002104D01*
X45407Y1002098D01*
X46254Y1001447D01*
X46262Y1001447D01*
X46263Y1001441D01*
X47234Y1000994D01*
X47242Y1000996D01*
X47244Y1000991D01*
X48290Y1000772D01*
X48297Y1000775D01*
X48300Y1000771D01*
X60300Y1000771D01*
X60305Y1000774D01*
G37*
G36*
X1005185Y66054D02*
X1005185Y66054D01*
X1005188Y66051D01*
X1006283Y66231D01*
X1006289Y66237D01*
X1006294Y66234D01*
X1007322Y66653D01*
X1007326Y66660D01*
X1007331Y66658D01*
X1008240Y67296D01*
X1008243Y67303D01*
X1008248Y67303D01*
X1008992Y68126D01*
X1008993Y68134D01*
X1008999Y68135D01*
X1009541Y69103D01*
X1009540Y69112D01*
X1009546Y69114D01*
X1009859Y70178D01*
X1009856Y70186D01*
X1009861Y70189D01*
X1009929Y71297D01*
X1009925Y71304D01*
X1009929Y71307D01*
X1009759Y72415D01*
X1009753Y72421D01*
X1009756Y72426D01*
X1009344Y73468D01*
X1009337Y73472D01*
X1009339Y73477D01*
X1008705Y74402D01*
X1008697Y74404D01*
X1008698Y74410D01*
X1007875Y75170D01*
X1007866Y75171D01*
X1007866Y75177D01*
X1006894Y75734D01*
X1006886Y75733D01*
X1006884Y75739D01*
X1005812Y76066D01*
X1005804Y76063D01*
X1005801Y76068D01*
X1004684Y76149D01*
X1004681Y76148D01*
X1004680Y76149D01*
X992680Y76149D01*
X992677Y76147D01*
X992670Y76147D01*
X992669Y76148D01*
X991725Y75929D01*
X991719Y75923D01*
X991714Y75925D01*
X990842Y75502D01*
X990839Y75494D01*
X990833Y75496D01*
X990077Y74889D01*
X990075Y74881D01*
X990069Y74881D01*
X989468Y74121D01*
X989468Y74112D01*
X989462Y74111D01*
X989044Y73236D01*
X989046Y73228D01*
X989041Y73226D01*
X988829Y72280D01*
X988832Y72273D01*
X988827Y72269D01*
X988831Y71300D01*
X988831Y71299D01*
X988850Y70231D01*
X988855Y70224D01*
X988851Y70220D01*
X989107Y69183D01*
X989114Y69178D01*
X989111Y69172D01*
X989592Y68218D01*
X989599Y68215D01*
X989598Y68209D01*
X990279Y67386D01*
X990287Y67384D01*
X990287Y67378D01*
X991134Y66727D01*
X991142Y66727D01*
X991143Y66721D01*
X992114Y66274D01*
X992122Y66276D01*
X992124Y66271D01*
X993170Y66052D01*
X993177Y66055D01*
X993180Y66051D01*
X1005180Y66051D01*
X1005185Y66054D01*
G37*
G36*
X60305Y66054D02*
X60305Y66054D01*
X60308Y66051D01*
X61403Y66231D01*
X61409Y66237D01*
X61414Y66234D01*
X62442Y66653D01*
X62446Y66660D01*
X62451Y66658D01*
X63360Y67296D01*
X63363Y67303D01*
X63368Y67303D01*
X64112Y68126D01*
X64113Y68134D01*
X64119Y68135D01*
X64661Y69103D01*
X64660Y69112D01*
X64666Y69114D01*
X64979Y70178D01*
X64976Y70186D01*
X64981Y70189D01*
X65049Y71297D01*
X65045Y71304D01*
X65049Y71307D01*
X64879Y72415D01*
X64873Y72421D01*
X64876Y72426D01*
X64464Y73468D01*
X64457Y73472D01*
X64459Y73477D01*
X63825Y74402D01*
X63817Y74404D01*
X63818Y74410D01*
X62995Y75170D01*
X62986Y75171D01*
X62986Y75177D01*
X62014Y75734D01*
X62006Y75733D01*
X62004Y75739D01*
X60932Y76066D01*
X60924Y76063D01*
X60921Y76068D01*
X59804Y76149D01*
X59801Y76148D01*
X59800Y76149D01*
X47800Y76149D01*
X47797Y76147D01*
X47790Y76147D01*
X47789Y76148D01*
X46845Y75929D01*
X46839Y75923D01*
X46834Y75925D01*
X45962Y75502D01*
X45959Y75494D01*
X45953Y75496D01*
X45197Y74889D01*
X45195Y74881D01*
X45189Y74881D01*
X44588Y74121D01*
X44588Y74112D01*
X44582Y74111D01*
X44164Y73236D01*
X44166Y73228D01*
X44161Y73226D01*
X43949Y72280D01*
X43952Y72273D01*
X43947Y72269D01*
X43951Y71300D01*
X43951Y71299D01*
X43970Y70231D01*
X43975Y70224D01*
X43971Y70220D01*
X44227Y69183D01*
X44234Y69178D01*
X44231Y69172D01*
X44712Y68218D01*
X44719Y68215D01*
X44718Y68209D01*
X45399Y67386D01*
X45407Y67384D01*
X45407Y67378D01*
X46254Y66727D01*
X46262Y66727D01*
X46263Y66721D01*
X47234Y66274D01*
X47242Y66276D01*
X47244Y66271D01*
X48290Y66052D01*
X48297Y66055D01*
X48300Y66051D01*
X60300Y66051D01*
X60305Y66054D01*
G37*
G36*
X1005185Y1000774D02*
X1005185Y1000774D01*
X1005188Y1000771D01*
X1006283Y1000951D01*
X1006289Y1000957D01*
X1006294Y1000954D01*
X1007322Y1001373D01*
X1007326Y1001380D01*
X1007331Y1001378D01*
X1008240Y1002016D01*
X1008243Y1002023D01*
X1008248Y1002023D01*
X1008992Y1002846D01*
X1008993Y1002854D01*
X1008999Y1002855D01*
X1009541Y1003823D01*
X1009540Y1003832D01*
X1009546Y1003834D01*
X1009859Y1004898D01*
X1009856Y1004906D01*
X1009861Y1004909D01*
X1009929Y1006017D01*
X1009925Y1006024D01*
X1009929Y1006027D01*
X1009759Y1007135D01*
X1009753Y1007141D01*
X1009756Y1007146D01*
X1009344Y1008188D01*
X1009337Y1008192D01*
X1009339Y1008197D01*
X1008705Y1009122D01*
X1008697Y1009124D01*
X1008698Y1009130D01*
X1007875Y1009890D01*
X1007866Y1009891D01*
X1007866Y1009897D01*
X1006894Y1010454D01*
X1006886Y1010453D01*
X1006884Y1010459D01*
X1005812Y1010786D01*
X1005804Y1010783D01*
X1005801Y1010788D01*
X1004684Y1010869D01*
X1004681Y1010868D01*
X1004680Y1010869D01*
X992680Y1010869D01*
X992677Y1010867D01*
X992670Y1010867D01*
X992669Y1010868D01*
X991725Y1010649D01*
X991719Y1010643D01*
X991714Y1010645D01*
X990842Y1010222D01*
X990839Y1010214D01*
X990833Y1010216D01*
X990077Y1009609D01*
X990075Y1009601D01*
X990069Y1009601D01*
X989468Y1008841D01*
X989468Y1008832D01*
X989462Y1008831D01*
X989044Y1007956D01*
X989046Y1007948D01*
X989041Y1007946D01*
X988829Y1007000D01*
X988832Y1006993D01*
X988827Y1006989D01*
X988831Y1006020D01*
X988831Y1006019D01*
X988850Y1004951D01*
X988855Y1004944D01*
X988851Y1004940D01*
X989107Y1003903D01*
X989114Y1003898D01*
X989111Y1003892D01*
X989592Y1002938D01*
X989599Y1002935D01*
X989598Y1002929D01*
X990279Y1002106D01*
X990287Y1002104D01*
X990287Y1002098D01*
X991134Y1001447D01*
X991142Y1001447D01*
X991143Y1001441D01*
X992114Y1000994D01*
X992122Y1000996D01*
X992124Y1000991D01*
X993170Y1000772D01*
X993177Y1000775D01*
X993180Y1000771D01*
X1005180Y1000771D01*
X1005185Y1000774D01*
G37*
G36*
X1005185Y767094D02*
X1005185Y767094D01*
X1005188Y767091D01*
X1006283Y767271D01*
X1006289Y767277D01*
X1006294Y767274D01*
X1007322Y767693D01*
X1007326Y767700D01*
X1007331Y767698D01*
X1008240Y768336D01*
X1008243Y768343D01*
X1008248Y768343D01*
X1008992Y769166D01*
X1008993Y769174D01*
X1008999Y769175D01*
X1009541Y770143D01*
X1009540Y770152D01*
X1009546Y770154D01*
X1009859Y771218D01*
X1009856Y771226D01*
X1009861Y771229D01*
X1009929Y772337D01*
X1009925Y772344D01*
X1009929Y772347D01*
X1009759Y773455D01*
X1009753Y773461D01*
X1009756Y773466D01*
X1009344Y774508D01*
X1009337Y774512D01*
X1009339Y774517D01*
X1008705Y775442D01*
X1008697Y775444D01*
X1008698Y775450D01*
X1007875Y776210D01*
X1007866Y776211D01*
X1007866Y776217D01*
X1006894Y776774D01*
X1006886Y776773D01*
X1006884Y776779D01*
X1005812Y777106D01*
X1005804Y777103D01*
X1005801Y777108D01*
X1004684Y777189D01*
X1004681Y777188D01*
X1004680Y777189D01*
X992680Y777189D01*
X992677Y777187D01*
X992670Y777187D01*
X992669Y777188D01*
X991725Y776969D01*
X991719Y776963D01*
X991714Y776965D01*
X990842Y776542D01*
X990839Y776534D01*
X990833Y776536D01*
X990077Y775929D01*
X990075Y775921D01*
X990069Y775921D01*
X989468Y775161D01*
X989468Y775152D01*
X989462Y775151D01*
X989044Y774276D01*
X989046Y774268D01*
X989041Y774266D01*
X988829Y773320D01*
X988832Y773313D01*
X988827Y773309D01*
X988831Y772340D01*
X988831Y772339D01*
X988850Y771271D01*
X988855Y771264D01*
X988851Y771260D01*
X989107Y770223D01*
X989114Y770218D01*
X989111Y770212D01*
X989592Y769258D01*
X989599Y769255D01*
X989598Y769249D01*
X990279Y768426D01*
X990287Y768424D01*
X990287Y768418D01*
X991134Y767767D01*
X991142Y767767D01*
X991143Y767761D01*
X992114Y767314D01*
X992122Y767316D01*
X992124Y767311D01*
X993170Y767092D01*
X993177Y767095D01*
X993180Y767091D01*
X1005180Y767091D01*
X1005185Y767094D01*
G37*
G36*
X60305Y767094D02*
X60305Y767094D01*
X60308Y767091D01*
X61403Y767271D01*
X61409Y767277D01*
X61414Y767274D01*
X62442Y767693D01*
X62446Y767700D01*
X62451Y767698D01*
X63360Y768336D01*
X63363Y768343D01*
X63368Y768343D01*
X64112Y769166D01*
X64113Y769174D01*
X64119Y769175D01*
X64661Y770143D01*
X64660Y770152D01*
X64666Y770154D01*
X64979Y771218D01*
X64976Y771226D01*
X64981Y771229D01*
X65049Y772337D01*
X65045Y772344D01*
X65049Y772347D01*
X64879Y773455D01*
X64873Y773461D01*
X64876Y773466D01*
X64464Y774508D01*
X64457Y774512D01*
X64459Y774517D01*
X63825Y775442D01*
X63817Y775444D01*
X63818Y775450D01*
X62995Y776210D01*
X62986Y776211D01*
X62986Y776217D01*
X62014Y776774D01*
X62006Y776773D01*
X62004Y776779D01*
X60932Y777106D01*
X60924Y777103D01*
X60921Y777108D01*
X59804Y777189D01*
X59801Y777188D01*
X59800Y777189D01*
X47800Y777189D01*
X47797Y777187D01*
X47790Y777187D01*
X47789Y777188D01*
X46845Y776969D01*
X46839Y776963D01*
X46834Y776965D01*
X45962Y776542D01*
X45959Y776534D01*
X45953Y776536D01*
X45197Y775929D01*
X45195Y775921D01*
X45189Y775921D01*
X44588Y775161D01*
X44588Y775152D01*
X44582Y775151D01*
X44164Y774276D01*
X44166Y774268D01*
X44161Y774266D01*
X43949Y773320D01*
X43952Y773313D01*
X43947Y773309D01*
X43951Y772340D01*
X43951Y772339D01*
X43970Y771271D01*
X43975Y771264D01*
X43971Y771260D01*
X44227Y770223D01*
X44234Y770218D01*
X44231Y770212D01*
X44712Y769258D01*
X44719Y769255D01*
X44718Y769249D01*
X45399Y768426D01*
X45407Y768424D01*
X45407Y768418D01*
X46254Y767767D01*
X46262Y767767D01*
X46263Y767761D01*
X47234Y767314D01*
X47242Y767316D01*
X47244Y767311D01*
X48290Y767092D01*
X48297Y767095D01*
X48300Y767091D01*
X60300Y767091D01*
X60305Y767094D01*
G37*
G36*
X60305Y299734D02*
X60305Y299734D01*
X60308Y299731D01*
X61403Y299911D01*
X61409Y299917D01*
X61414Y299914D01*
X62442Y300333D01*
X62446Y300340D01*
X62451Y300338D01*
X63360Y300976D01*
X63363Y300983D01*
X63368Y300983D01*
X64112Y301806D01*
X64113Y301814D01*
X64119Y301815D01*
X64661Y302783D01*
X64660Y302792D01*
X64666Y302794D01*
X64979Y303858D01*
X64976Y303866D01*
X64981Y303869D01*
X65049Y304977D01*
X65045Y304984D01*
X65049Y304987D01*
X64879Y306095D01*
X64873Y306101D01*
X64876Y306106D01*
X64464Y307148D01*
X64457Y307152D01*
X64459Y307157D01*
X63825Y308082D01*
X63817Y308084D01*
X63818Y308090D01*
X62995Y308850D01*
X62986Y308851D01*
X62986Y308857D01*
X62014Y309414D01*
X62006Y309413D01*
X62004Y309419D01*
X60932Y309746D01*
X60924Y309743D01*
X60921Y309748D01*
X59804Y309829D01*
X59801Y309828D01*
X59800Y309829D01*
X47800Y309829D01*
X47797Y309827D01*
X47790Y309827D01*
X47789Y309828D01*
X46845Y309609D01*
X46839Y309603D01*
X46834Y309605D01*
X45962Y309182D01*
X45959Y309174D01*
X45953Y309176D01*
X45197Y308569D01*
X45195Y308561D01*
X45189Y308561D01*
X44588Y307801D01*
X44588Y307792D01*
X44582Y307791D01*
X44164Y306916D01*
X44166Y306908D01*
X44161Y306906D01*
X43949Y305960D01*
X43952Y305953D01*
X43947Y305949D01*
X43951Y304980D01*
X43951Y304979D01*
X43970Y303911D01*
X43975Y303904D01*
X43971Y303900D01*
X44227Y302863D01*
X44234Y302858D01*
X44231Y302852D01*
X44712Y301898D01*
X44719Y301895D01*
X44718Y301889D01*
X45399Y301066D01*
X45407Y301064D01*
X45407Y301058D01*
X46254Y300407D01*
X46262Y300407D01*
X46263Y300401D01*
X47234Y299954D01*
X47242Y299956D01*
X47244Y299951D01*
X48290Y299732D01*
X48297Y299735D01*
X48300Y299731D01*
X60300Y299731D01*
X60305Y299734D01*
G37*
G36*
X1005185Y386135D02*
X1005185Y386135D01*
X1005188Y386131D01*
X1006294Y386324D01*
X1006299Y386329D01*
X1006299Y386330D01*
X1006304Y386327D01*
X1007339Y386760D01*
X1007343Y386767D01*
X1007348Y386765D01*
X1008261Y387418D01*
X1008263Y387426D01*
X1008269Y387425D01*
X1009013Y388264D01*
X1009014Y388273D01*
X1009019Y388273D01*
X1009558Y389257D01*
X1009557Y389265D01*
X1009558Y389266D01*
X1009562Y389267D01*
X1009563Y389269D01*
X1009745Y389910D01*
X1009869Y390346D01*
X1009867Y390351D01*
X1009869Y390353D01*
X1009867Y390355D01*
X1009871Y390357D01*
X1009929Y391477D01*
X1009926Y391482D01*
X1009929Y391486D01*
X1009811Y392531D01*
X1009805Y392537D01*
X1009809Y392542D01*
X1009461Y393536D01*
X1009454Y393540D01*
X1009456Y393545D01*
X1008896Y394437D01*
X1008889Y394440D01*
X1008889Y394445D01*
X1008145Y395189D01*
X1008137Y395191D01*
X1008137Y395196D01*
X1007245Y395756D01*
X1007237Y395756D01*
X1007236Y395761D01*
X1006242Y396109D01*
X1006234Y396106D01*
X1006231Y396111D01*
X1005186Y396229D01*
X1005182Y396227D01*
X1005180Y396229D01*
X993180Y396229D01*
X993177Y396227D01*
X993174Y396227D01*
X993172Y396229D01*
X992176Y396071D01*
X992170Y396065D01*
X992165Y396068D01*
X991229Y395693D01*
X991225Y395686D01*
X991219Y395688D01*
X990390Y395114D01*
X990387Y395106D01*
X990382Y395107D01*
X989701Y394363D01*
X989700Y394354D01*
X989694Y394354D01*
X989196Y393477D01*
X989197Y393469D01*
X989192Y393466D01*
X989004Y392842D01*
X988901Y392501D01*
X988902Y392498D01*
X988901Y392497D01*
X988904Y392493D01*
X988899Y392490D01*
X988831Y391483D01*
X988832Y391481D01*
X988831Y391480D01*
X988840Y390399D01*
X988845Y390392D01*
X988841Y390388D01*
X989091Y389336D01*
X989097Y389331D01*
X989094Y389326D01*
X989571Y388356D01*
X989579Y388353D01*
X989577Y388347D01*
X990258Y387508D01*
X990266Y387506D01*
X990266Y387500D01*
X991117Y386834D01*
X991125Y386833D01*
X991126Y386828D01*
X992103Y386367D01*
X992111Y386369D01*
X992114Y386364D01*
X993169Y386132D01*
X993177Y386135D01*
X993180Y386131D01*
X1005180Y386131D01*
X1005185Y386135D01*
G37*
G36*
X1005185Y853495D02*
X1005185Y853495D01*
X1005188Y853491D01*
X1006294Y853684D01*
X1006299Y853689D01*
X1006299Y853690D01*
X1006304Y853687D01*
X1007339Y854120D01*
X1007343Y854127D01*
X1007348Y854125D01*
X1008261Y854778D01*
X1008263Y854786D01*
X1008269Y854785D01*
X1009013Y855624D01*
X1009014Y855633D01*
X1009019Y855633D01*
X1009558Y856617D01*
X1009557Y856625D01*
X1009558Y856626D01*
X1009562Y856627D01*
X1009563Y856629D01*
X1009745Y857270D01*
X1009869Y857706D01*
X1009867Y857711D01*
X1009869Y857713D01*
X1009867Y857715D01*
X1009871Y857717D01*
X1009929Y858837D01*
X1009926Y858842D01*
X1009929Y858846D01*
X1009811Y859891D01*
X1009805Y859897D01*
X1009809Y859902D01*
X1009461Y860896D01*
X1009454Y860900D01*
X1009456Y860905D01*
X1008896Y861797D01*
X1008889Y861800D01*
X1008889Y861805D01*
X1008145Y862549D01*
X1008137Y862551D01*
X1008137Y862556D01*
X1007245Y863116D01*
X1007237Y863116D01*
X1007236Y863121D01*
X1006242Y863469D01*
X1006234Y863466D01*
X1006231Y863471D01*
X1005186Y863589D01*
X1005182Y863587D01*
X1005180Y863589D01*
X993180Y863589D01*
X993177Y863587D01*
X993174Y863587D01*
X993172Y863589D01*
X992176Y863431D01*
X992170Y863425D01*
X992165Y863428D01*
X991229Y863053D01*
X991225Y863046D01*
X991219Y863048D01*
X990390Y862474D01*
X990387Y862466D01*
X990382Y862467D01*
X989701Y861723D01*
X989700Y861714D01*
X989694Y861714D01*
X989196Y860837D01*
X989197Y860829D01*
X989192Y860826D01*
X989004Y860202D01*
X988901Y859861D01*
X988902Y859858D01*
X988901Y859857D01*
X988904Y859853D01*
X988899Y859850D01*
X988831Y858843D01*
X988832Y858841D01*
X988831Y858840D01*
X988840Y857759D01*
X988845Y857752D01*
X988841Y857748D01*
X989091Y856696D01*
X989097Y856691D01*
X989094Y856686D01*
X989571Y855716D01*
X989579Y855713D01*
X989577Y855707D01*
X990258Y854868D01*
X990266Y854866D01*
X990266Y854860D01*
X991117Y854194D01*
X991125Y854193D01*
X991126Y854188D01*
X992103Y853727D01*
X992111Y853729D01*
X992114Y853724D01*
X993169Y853492D01*
X993177Y853495D01*
X993180Y853491D01*
X1005180Y853491D01*
X1005185Y853495D01*
G37*
G36*
X60305Y853495D02*
X60305Y853495D01*
X60308Y853491D01*
X61414Y853684D01*
X61419Y853689D01*
X61419Y853690D01*
X61424Y853687D01*
X62459Y854120D01*
X62463Y854127D01*
X62468Y854125D01*
X63381Y854778D01*
X63383Y854786D01*
X63389Y854785D01*
X64133Y855624D01*
X64134Y855633D01*
X64139Y855633D01*
X64678Y856617D01*
X64677Y856625D01*
X64678Y856626D01*
X64682Y856627D01*
X64683Y856629D01*
X64865Y857270D01*
X64989Y857706D01*
X64987Y857711D01*
X64989Y857713D01*
X64987Y857715D01*
X64991Y857717D01*
X65049Y858837D01*
X65046Y858842D01*
X65049Y858846D01*
X64931Y859891D01*
X64925Y859897D01*
X64929Y859902D01*
X64581Y860896D01*
X64574Y860900D01*
X64576Y860905D01*
X64016Y861797D01*
X64009Y861800D01*
X64009Y861805D01*
X63265Y862549D01*
X63257Y862551D01*
X63257Y862556D01*
X62365Y863116D01*
X62357Y863116D01*
X62356Y863121D01*
X61362Y863469D01*
X61354Y863466D01*
X61351Y863471D01*
X60306Y863589D01*
X60302Y863587D01*
X60300Y863589D01*
X48300Y863589D01*
X48297Y863587D01*
X48294Y863587D01*
X48292Y863589D01*
X47296Y863431D01*
X47290Y863425D01*
X47285Y863428D01*
X46349Y863053D01*
X46345Y863046D01*
X46339Y863048D01*
X45510Y862474D01*
X45507Y862466D01*
X45502Y862467D01*
X44821Y861723D01*
X44820Y861714D01*
X44814Y861714D01*
X44316Y860837D01*
X44317Y860829D01*
X44312Y860826D01*
X44124Y860202D01*
X44021Y859861D01*
X44022Y859858D01*
X44021Y859857D01*
X44024Y859853D01*
X44019Y859850D01*
X43951Y858843D01*
X43952Y858841D01*
X43951Y858840D01*
X43960Y857759D01*
X43965Y857752D01*
X43961Y857748D01*
X44211Y856696D01*
X44217Y856691D01*
X44214Y856686D01*
X44691Y855716D01*
X44699Y855713D01*
X44697Y855707D01*
X45378Y854868D01*
X45386Y854866D01*
X45386Y854860D01*
X46237Y854194D01*
X46245Y854193D01*
X46246Y854188D01*
X47223Y853727D01*
X47231Y853729D01*
X47234Y853724D01*
X48289Y853492D01*
X48297Y853495D01*
X48300Y853491D01*
X60300Y853491D01*
X60305Y853495D01*
G37*
G36*
X60305Y152455D02*
X60305Y152455D01*
X60308Y152451D01*
X61414Y152644D01*
X61419Y152649D01*
X61419Y152650D01*
X61424Y152647D01*
X62459Y153080D01*
X62463Y153087D01*
X62468Y153085D01*
X63381Y153738D01*
X63383Y153746D01*
X63389Y153745D01*
X64133Y154584D01*
X64134Y154593D01*
X64139Y154593D01*
X64678Y155577D01*
X64677Y155585D01*
X64678Y155586D01*
X64682Y155587D01*
X64683Y155589D01*
X64865Y156230D01*
X64989Y156666D01*
X64987Y156671D01*
X64989Y156673D01*
X64987Y156675D01*
X64991Y156677D01*
X65049Y157797D01*
X65046Y157802D01*
X65049Y157806D01*
X64931Y158851D01*
X64925Y158857D01*
X64929Y158862D01*
X64581Y159856D01*
X64574Y159860D01*
X64576Y159865D01*
X64016Y160757D01*
X64009Y160760D01*
X64009Y160765D01*
X63265Y161509D01*
X63257Y161511D01*
X63257Y161516D01*
X62365Y162076D01*
X62357Y162076D01*
X62356Y162081D01*
X61362Y162429D01*
X61354Y162426D01*
X61351Y162431D01*
X60306Y162549D01*
X60302Y162547D01*
X60300Y162549D01*
X48300Y162549D01*
X48297Y162547D01*
X48294Y162547D01*
X48292Y162549D01*
X47296Y162391D01*
X47290Y162385D01*
X47285Y162388D01*
X46349Y162013D01*
X46345Y162006D01*
X46339Y162008D01*
X45510Y161434D01*
X45507Y161426D01*
X45502Y161427D01*
X44821Y160683D01*
X44820Y160674D01*
X44814Y160674D01*
X44316Y159797D01*
X44317Y159789D01*
X44312Y159786D01*
X44124Y159162D01*
X44021Y158821D01*
X44022Y158818D01*
X44021Y158817D01*
X44024Y158813D01*
X44019Y158810D01*
X43951Y157803D01*
X43952Y157801D01*
X43951Y157800D01*
X43960Y156719D01*
X43965Y156712D01*
X43961Y156708D01*
X44211Y155656D01*
X44217Y155651D01*
X44214Y155646D01*
X44691Y154676D01*
X44699Y154673D01*
X44697Y154667D01*
X45378Y153828D01*
X45386Y153826D01*
X45386Y153820D01*
X46237Y153154D01*
X46245Y153153D01*
X46246Y153148D01*
X47223Y152687D01*
X47231Y152689D01*
X47234Y152684D01*
X48289Y152452D01*
X48297Y152455D01*
X48300Y152451D01*
X60300Y152451D01*
X60305Y152455D01*
G37*
G36*
X1005185Y152455D02*
X1005185Y152455D01*
X1005188Y152451D01*
X1006294Y152644D01*
X1006299Y152649D01*
X1006299Y152650D01*
X1006304Y152647D01*
X1007339Y153080D01*
X1007343Y153087D01*
X1007348Y153085D01*
X1008261Y153738D01*
X1008263Y153746D01*
X1008269Y153745D01*
X1009013Y154584D01*
X1009014Y154593D01*
X1009019Y154593D01*
X1009558Y155577D01*
X1009557Y155585D01*
X1009558Y155586D01*
X1009562Y155587D01*
X1009563Y155589D01*
X1009745Y156230D01*
X1009869Y156666D01*
X1009867Y156671D01*
X1009869Y156673D01*
X1009867Y156675D01*
X1009871Y156677D01*
X1009929Y157797D01*
X1009926Y157802D01*
X1009929Y157806D01*
X1009811Y158851D01*
X1009805Y158857D01*
X1009809Y158862D01*
X1009461Y159856D01*
X1009454Y159860D01*
X1009456Y159865D01*
X1008896Y160757D01*
X1008889Y160760D01*
X1008889Y160765D01*
X1008145Y161509D01*
X1008137Y161511D01*
X1008137Y161516D01*
X1007245Y162076D01*
X1007237Y162076D01*
X1007236Y162081D01*
X1006242Y162429D01*
X1006234Y162426D01*
X1006231Y162431D01*
X1005186Y162549D01*
X1005182Y162547D01*
X1005180Y162549D01*
X993180Y162549D01*
X993177Y162547D01*
X993174Y162547D01*
X993172Y162549D01*
X992176Y162391D01*
X992170Y162385D01*
X992165Y162388D01*
X991229Y162013D01*
X991225Y162006D01*
X991219Y162008D01*
X990390Y161434D01*
X990387Y161426D01*
X990382Y161427D01*
X989701Y160683D01*
X989700Y160674D01*
X989694Y160674D01*
X989196Y159797D01*
X989197Y159789D01*
X989192Y159786D01*
X989004Y159162D01*
X988901Y158821D01*
X988902Y158818D01*
X988901Y158817D01*
X988904Y158813D01*
X988899Y158810D01*
X988831Y157803D01*
X988832Y157801D01*
X988831Y157800D01*
X988840Y156719D01*
X988845Y156712D01*
X988841Y156708D01*
X989091Y155656D01*
X989097Y155651D01*
X989094Y155646D01*
X989571Y154676D01*
X989579Y154673D01*
X989577Y154667D01*
X990258Y153828D01*
X990266Y153826D01*
X990266Y153820D01*
X991117Y153154D01*
X991125Y153153D01*
X991126Y153148D01*
X992103Y152687D01*
X992111Y152689D01*
X992114Y152684D01*
X993169Y152452D01*
X993177Y152455D01*
X993180Y152451D01*
X1005180Y152451D01*
X1005185Y152455D01*
G37*
G36*
X60305Y1087175D02*
X60305Y1087175D01*
X60308Y1087171D01*
X61414Y1087364D01*
X61419Y1087369D01*
X61419Y1087370D01*
X61424Y1087367D01*
X62459Y1087800D01*
X62463Y1087807D01*
X62468Y1087805D01*
X63381Y1088458D01*
X63383Y1088466D01*
X63389Y1088465D01*
X64133Y1089304D01*
X64134Y1089313D01*
X64139Y1089313D01*
X64678Y1090297D01*
X64677Y1090305D01*
X64678Y1090306D01*
X64682Y1090307D01*
X64683Y1090309D01*
X64865Y1090950D01*
X64989Y1091386D01*
X64987Y1091391D01*
X64989Y1091393D01*
X64987Y1091395D01*
X64991Y1091397D01*
X65049Y1092517D01*
X65046Y1092522D01*
X65049Y1092526D01*
X64931Y1093571D01*
X64925Y1093577D01*
X64929Y1093582D01*
X64581Y1094576D01*
X64574Y1094580D01*
X64576Y1094585D01*
X64016Y1095477D01*
X64009Y1095480D01*
X64009Y1095485D01*
X63265Y1096229D01*
X63257Y1096231D01*
X63257Y1096236D01*
X62365Y1096796D01*
X62357Y1096796D01*
X62356Y1096801D01*
X61362Y1097149D01*
X61354Y1097146D01*
X61351Y1097151D01*
X60306Y1097269D01*
X60302Y1097267D01*
X60300Y1097269D01*
X48300Y1097269D01*
X48297Y1097267D01*
X48294Y1097267D01*
X48292Y1097269D01*
X47296Y1097111D01*
X47290Y1097105D01*
X47285Y1097108D01*
X46349Y1096733D01*
X46345Y1096726D01*
X46339Y1096728D01*
X45510Y1096154D01*
X45507Y1096146D01*
X45502Y1096147D01*
X44821Y1095403D01*
X44820Y1095394D01*
X44814Y1095394D01*
X44316Y1094517D01*
X44317Y1094509D01*
X44312Y1094506D01*
X44124Y1093882D01*
X44021Y1093541D01*
X44022Y1093538D01*
X44021Y1093537D01*
X44024Y1093533D01*
X44019Y1093530D01*
X43951Y1092523D01*
X43952Y1092521D01*
X43951Y1092520D01*
X43960Y1091439D01*
X43965Y1091432D01*
X43961Y1091428D01*
X44211Y1090376D01*
X44217Y1090371D01*
X44214Y1090366D01*
X44691Y1089396D01*
X44699Y1089393D01*
X44697Y1089387D01*
X45378Y1088548D01*
X45386Y1088546D01*
X45386Y1088540D01*
X46237Y1087874D01*
X46245Y1087873D01*
X46246Y1087868D01*
X47223Y1087407D01*
X47231Y1087409D01*
X47234Y1087404D01*
X48289Y1087172D01*
X48297Y1087175D01*
X48300Y1087171D01*
X60300Y1087171D01*
X60305Y1087175D01*
G37*
G36*
X1005185Y1087175D02*
X1005185Y1087175D01*
X1005188Y1087171D01*
X1006294Y1087364D01*
X1006299Y1087369D01*
X1006299Y1087370D01*
X1006304Y1087367D01*
X1007339Y1087800D01*
X1007343Y1087807D01*
X1007348Y1087805D01*
X1008261Y1088458D01*
X1008263Y1088466D01*
X1008269Y1088465D01*
X1009013Y1089304D01*
X1009014Y1089313D01*
X1009019Y1089313D01*
X1009558Y1090297D01*
X1009557Y1090305D01*
X1009558Y1090306D01*
X1009562Y1090307D01*
X1009563Y1090309D01*
X1009745Y1090950D01*
X1009869Y1091386D01*
X1009867Y1091391D01*
X1009869Y1091393D01*
X1009867Y1091395D01*
X1009871Y1091397D01*
X1009929Y1092517D01*
X1009926Y1092522D01*
X1009929Y1092526D01*
X1009811Y1093571D01*
X1009805Y1093577D01*
X1009809Y1093582D01*
X1009461Y1094576D01*
X1009454Y1094580D01*
X1009456Y1094585D01*
X1008896Y1095477D01*
X1008889Y1095480D01*
X1008889Y1095485D01*
X1008145Y1096229D01*
X1008137Y1096231D01*
X1008137Y1096236D01*
X1007245Y1096796D01*
X1007237Y1096796D01*
X1007236Y1096801D01*
X1006242Y1097149D01*
X1006234Y1097146D01*
X1006231Y1097151D01*
X1005186Y1097269D01*
X1005182Y1097267D01*
X1005180Y1097269D01*
X993180Y1097269D01*
X993177Y1097267D01*
X993174Y1097267D01*
X993172Y1097269D01*
X992176Y1097111D01*
X992170Y1097105D01*
X992165Y1097108D01*
X991229Y1096733D01*
X991225Y1096726D01*
X991219Y1096728D01*
X990390Y1096154D01*
X990387Y1096146D01*
X990382Y1096147D01*
X989701Y1095403D01*
X989700Y1095394D01*
X989694Y1095394D01*
X989196Y1094517D01*
X989197Y1094509D01*
X989192Y1094506D01*
X989004Y1093882D01*
X988901Y1093541D01*
X988902Y1093538D01*
X988901Y1093537D01*
X988904Y1093533D01*
X988899Y1093530D01*
X988831Y1092523D01*
X988832Y1092521D01*
X988831Y1092520D01*
X988840Y1091439D01*
X988845Y1091432D01*
X988841Y1091428D01*
X989091Y1090376D01*
X989097Y1090371D01*
X989094Y1090366D01*
X989571Y1089396D01*
X989579Y1089393D01*
X989577Y1089387D01*
X990258Y1088548D01*
X990266Y1088546D01*
X990266Y1088540D01*
X991117Y1087874D01*
X991125Y1087873D01*
X991126Y1087868D01*
X992103Y1087407D01*
X992111Y1087409D01*
X992114Y1087404D01*
X993169Y1087172D01*
X993177Y1087175D01*
X993180Y1087171D01*
X1005180Y1087171D01*
X1005185Y1087175D01*
G37*
G36*
X1005185Y619815D02*
X1005185Y619815D01*
X1005188Y619811D01*
X1006294Y620004D01*
X1006299Y620009D01*
X1006299Y620010D01*
X1006304Y620007D01*
X1007339Y620440D01*
X1007343Y620447D01*
X1007348Y620445D01*
X1008261Y621098D01*
X1008263Y621106D01*
X1008269Y621105D01*
X1009013Y621944D01*
X1009014Y621953D01*
X1009019Y621953D01*
X1009558Y622937D01*
X1009557Y622945D01*
X1009558Y622946D01*
X1009562Y622947D01*
X1009563Y622949D01*
X1009745Y623590D01*
X1009869Y624026D01*
X1009867Y624031D01*
X1009869Y624033D01*
X1009867Y624035D01*
X1009871Y624037D01*
X1009929Y625157D01*
X1009926Y625162D01*
X1009929Y625166D01*
X1009811Y626211D01*
X1009805Y626217D01*
X1009809Y626222D01*
X1009461Y627216D01*
X1009454Y627220D01*
X1009456Y627225D01*
X1008896Y628117D01*
X1008889Y628120D01*
X1008889Y628125D01*
X1008145Y628869D01*
X1008137Y628871D01*
X1008137Y628876D01*
X1007245Y629436D01*
X1007237Y629436D01*
X1007236Y629441D01*
X1006242Y629789D01*
X1006234Y629786D01*
X1006231Y629791D01*
X1005186Y629909D01*
X1005182Y629907D01*
X1005180Y629909D01*
X993180Y629909D01*
X993177Y629907D01*
X993174Y629907D01*
X993172Y629909D01*
X992176Y629751D01*
X992170Y629745D01*
X992165Y629748D01*
X991229Y629373D01*
X991225Y629366D01*
X991219Y629368D01*
X990390Y628794D01*
X990387Y628786D01*
X990382Y628787D01*
X989701Y628043D01*
X989700Y628034D01*
X989694Y628034D01*
X989196Y627157D01*
X989197Y627149D01*
X989192Y627146D01*
X989004Y626522D01*
X988901Y626181D01*
X988902Y626178D01*
X988901Y626177D01*
X988904Y626173D01*
X988899Y626170D01*
X988831Y625163D01*
X988832Y625161D01*
X988831Y625160D01*
X988840Y624079D01*
X988845Y624072D01*
X988841Y624068D01*
X989091Y623016D01*
X989097Y623011D01*
X989094Y623006D01*
X989571Y622036D01*
X989579Y622033D01*
X989577Y622027D01*
X990258Y621188D01*
X990266Y621186D01*
X990266Y621180D01*
X991117Y620514D01*
X991125Y620513D01*
X991126Y620508D01*
X992103Y620047D01*
X992111Y620049D01*
X992114Y620044D01*
X993169Y619812D01*
X993177Y619815D01*
X993180Y619811D01*
X1005180Y619811D01*
X1005185Y619815D01*
G37*
G36*
X60305Y619815D02*
X60305Y619815D01*
X60308Y619811D01*
X61414Y620004D01*
X61419Y620009D01*
X61419Y620010D01*
X61424Y620007D01*
X62459Y620440D01*
X62463Y620447D01*
X62468Y620445D01*
X63381Y621098D01*
X63383Y621106D01*
X63389Y621105D01*
X64133Y621944D01*
X64134Y621953D01*
X64139Y621953D01*
X64678Y622937D01*
X64677Y622945D01*
X64678Y622946D01*
X64682Y622947D01*
X64683Y622949D01*
X64865Y623590D01*
X64989Y624026D01*
X64987Y624031D01*
X64989Y624033D01*
X64987Y624035D01*
X64991Y624037D01*
X65049Y625157D01*
X65046Y625162D01*
X65049Y625166D01*
X64931Y626211D01*
X64925Y626217D01*
X64929Y626222D01*
X64581Y627216D01*
X64574Y627220D01*
X64576Y627225D01*
X64016Y628117D01*
X64009Y628120D01*
X64009Y628125D01*
X63265Y628869D01*
X63257Y628871D01*
X63257Y628876D01*
X62365Y629436D01*
X62357Y629436D01*
X62356Y629441D01*
X61362Y629789D01*
X61354Y629786D01*
X61351Y629791D01*
X60306Y629909D01*
X60302Y629907D01*
X60300Y629909D01*
X48300Y629909D01*
X48297Y629907D01*
X48294Y629907D01*
X48292Y629909D01*
X47296Y629751D01*
X47290Y629745D01*
X47285Y629748D01*
X46349Y629373D01*
X46345Y629366D01*
X46339Y629368D01*
X45510Y628794D01*
X45507Y628786D01*
X45502Y628787D01*
X44821Y628043D01*
X44820Y628034D01*
X44814Y628034D01*
X44316Y627157D01*
X44317Y627149D01*
X44312Y627146D01*
X44124Y626522D01*
X44021Y626181D01*
X44022Y626178D01*
X44021Y626177D01*
X44024Y626173D01*
X44019Y626170D01*
X43951Y625163D01*
X43952Y625161D01*
X43951Y625160D01*
X43960Y624079D01*
X43965Y624072D01*
X43961Y624068D01*
X44211Y623016D01*
X44217Y623011D01*
X44214Y623006D01*
X44691Y622036D01*
X44699Y622033D01*
X44697Y622027D01*
X45378Y621188D01*
X45386Y621186D01*
X45386Y621180D01*
X46237Y620514D01*
X46245Y620513D01*
X46246Y620508D01*
X47223Y620047D01*
X47231Y620049D01*
X47234Y620044D01*
X48289Y619812D01*
X48297Y619815D01*
X48300Y619811D01*
X60300Y619811D01*
X60305Y619815D01*
G37*
G36*
X60305Y386135D02*
X60305Y386135D01*
X60308Y386131D01*
X61414Y386324D01*
X61419Y386329D01*
X61419Y386330D01*
X61424Y386327D01*
X62459Y386760D01*
X62463Y386767D01*
X62468Y386765D01*
X63381Y387418D01*
X63383Y387426D01*
X63389Y387425D01*
X64133Y388264D01*
X64134Y388273D01*
X64139Y388273D01*
X64678Y389257D01*
X64677Y389265D01*
X64678Y389266D01*
X64682Y389267D01*
X64683Y389269D01*
X64865Y389910D01*
X64989Y390346D01*
X64987Y390351D01*
X64989Y390353D01*
X64987Y390355D01*
X64991Y390357D01*
X65049Y391477D01*
X65046Y391482D01*
X65049Y391486D01*
X64931Y392531D01*
X64925Y392537D01*
X64929Y392542D01*
X64581Y393536D01*
X64574Y393540D01*
X64576Y393545D01*
X64016Y394437D01*
X64009Y394440D01*
X64009Y394445D01*
X63265Y395189D01*
X63257Y395191D01*
X63257Y395196D01*
X62365Y395756D01*
X62357Y395756D01*
X62356Y395761D01*
X61362Y396109D01*
X61354Y396106D01*
X61351Y396111D01*
X60306Y396229D01*
X60302Y396227D01*
X60300Y396229D01*
X48300Y396229D01*
X48297Y396227D01*
X48294Y396227D01*
X48292Y396229D01*
X47296Y396071D01*
X47290Y396065D01*
X47285Y396068D01*
X46349Y395693D01*
X46345Y395686D01*
X46339Y395688D01*
X45510Y395114D01*
X45507Y395106D01*
X45502Y395107D01*
X44821Y394363D01*
X44820Y394354D01*
X44814Y394354D01*
X44316Y393477D01*
X44317Y393469D01*
X44312Y393466D01*
X44124Y392842D01*
X44021Y392501D01*
X44022Y392498D01*
X44021Y392497D01*
X44024Y392493D01*
X44019Y392490D01*
X43951Y391483D01*
X43952Y391481D01*
X43951Y391480D01*
X43960Y390399D01*
X43965Y390392D01*
X43961Y390388D01*
X44211Y389336D01*
X44217Y389331D01*
X44214Y389326D01*
X44691Y388356D01*
X44699Y388353D01*
X44697Y388347D01*
X45378Y387508D01*
X45386Y387506D01*
X45386Y387500D01*
X46237Y386834D01*
X46245Y386833D01*
X46246Y386828D01*
X47223Y386367D01*
X47231Y386369D01*
X47234Y386364D01*
X48289Y386132D01*
X48297Y386135D01*
X48300Y386131D01*
X60300Y386131D01*
X60305Y386135D01*
G37*
G36*
X960384Y767094D02*
X960384Y767094D01*
X960386Y767091D01*
X961519Y767241D01*
X961525Y767247D01*
X961530Y767244D01*
X962600Y767642D01*
X962604Y767649D01*
X962610Y767647D01*
X963565Y768274D01*
X963568Y768282D01*
X963573Y768281D01*
X964365Y769104D01*
X964366Y769112D01*
X964372Y769113D01*
X964961Y770092D01*
X964960Y770100D01*
X964965Y770102D01*
X965321Y771187D01*
X965319Y771195D01*
X965323Y771198D01*
X965429Y772335D01*
X965424Y772344D01*
X965428Y772349D01*
X965221Y773486D01*
X965215Y773492D01*
X965218Y773497D01*
X964763Y774559D01*
X964756Y774563D01*
X964758Y774569D01*
X964078Y775504D01*
X964070Y775506D01*
X964071Y775512D01*
X963200Y776272D01*
X963192Y776272D01*
X963191Y776278D01*
X962172Y776825D01*
X962164Y776824D01*
X962162Y776829D01*
X961048Y777136D01*
X961040Y777133D01*
X961037Y777138D01*
X959882Y777189D01*
X959881Y777188D01*
X959880Y777189D01*
X953880Y777189D01*
X953877Y777187D01*
X953872Y777187D01*
X953871Y777188D01*
X952790Y776976D01*
X952785Y776970D01*
X952780Y776973D01*
X951774Y776526D01*
X951770Y776519D01*
X951764Y776521D01*
X950883Y775861D01*
X950880Y775853D01*
X950875Y775853D01*
X950162Y775014D01*
X950162Y775006D01*
X950156Y775005D01*
X949648Y774028D01*
X949649Y774020D01*
X949644Y774018D01*
X949366Y772953D01*
X949369Y772945D01*
X949365Y772942D01*
X949331Y771842D01*
X949335Y771836D01*
X949331Y771833D01*
X949486Y770758D01*
X949492Y770752D01*
X949489Y770747D01*
X949879Y769733D01*
X949886Y769729D01*
X949885Y769723D01*
X950491Y768821D01*
X950499Y768819D01*
X950498Y768813D01*
X951290Y768069D01*
X951298Y768068D01*
X951298Y768062D01*
X952236Y767513D01*
X952244Y767514D01*
X952246Y767508D01*
X953282Y767181D01*
X953290Y767184D01*
X953293Y767179D01*
X954376Y767091D01*
X954379Y767093D01*
X954380Y767091D01*
X960380Y767091D01*
X960384Y767094D01*
G37*
G36*
X15504Y767094D02*
X15504Y767094D01*
X15506Y767091D01*
X16639Y767241D01*
X16645Y767247D01*
X16650Y767244D01*
X17720Y767642D01*
X17724Y767649D01*
X17730Y767647D01*
X18685Y768274D01*
X18688Y768282D01*
X18693Y768281D01*
X19485Y769104D01*
X19486Y769112D01*
X19492Y769113D01*
X20081Y770092D01*
X20080Y770100D01*
X20085Y770102D01*
X20441Y771187D01*
X20439Y771195D01*
X20443Y771198D01*
X20549Y772335D01*
X20544Y772344D01*
X20548Y772349D01*
X20341Y773486D01*
X20335Y773492D01*
X20338Y773497D01*
X19883Y774559D01*
X19876Y774563D01*
X19878Y774569D01*
X19198Y775504D01*
X19190Y775506D01*
X19191Y775512D01*
X18320Y776272D01*
X18312Y776272D01*
X18311Y776278D01*
X17292Y776825D01*
X17284Y776824D01*
X17282Y776829D01*
X16168Y777136D01*
X16160Y777133D01*
X16157Y777138D01*
X15002Y777189D01*
X15001Y777188D01*
X15000Y777189D01*
X9000Y777189D01*
X8997Y777187D01*
X8992Y777187D01*
X8991Y777188D01*
X7910Y776976D01*
X7905Y776970D01*
X7900Y776973D01*
X6894Y776526D01*
X6890Y776519D01*
X6884Y776521D01*
X6003Y775861D01*
X6000Y775853D01*
X5995Y775853D01*
X5282Y775014D01*
X5282Y775006D01*
X5276Y775005D01*
X4768Y774028D01*
X4769Y774020D01*
X4764Y774018D01*
X4486Y772953D01*
X4489Y772945D01*
X4485Y772942D01*
X4451Y771842D01*
X4455Y771836D01*
X4451Y771833D01*
X4606Y770758D01*
X4612Y770752D01*
X4609Y770747D01*
X4999Y769733D01*
X5006Y769729D01*
X5005Y769723D01*
X5611Y768821D01*
X5619Y768819D01*
X5618Y768813D01*
X6410Y768069D01*
X6418Y768068D01*
X6418Y768062D01*
X7356Y767513D01*
X7364Y767514D01*
X7366Y767508D01*
X8402Y767181D01*
X8410Y767184D01*
X8413Y767179D01*
X9496Y767091D01*
X9499Y767093D01*
X9500Y767091D01*
X15500Y767091D01*
X15504Y767094D01*
G37*
G36*
X15504Y1000774D02*
X15504Y1000774D01*
X15506Y1000771D01*
X16639Y1000921D01*
X16645Y1000927D01*
X16650Y1000924D01*
X17720Y1001322D01*
X17724Y1001329D01*
X17730Y1001327D01*
X18685Y1001954D01*
X18688Y1001962D01*
X18693Y1001961D01*
X19485Y1002784D01*
X19486Y1002792D01*
X19492Y1002793D01*
X20081Y1003772D01*
X20080Y1003780D01*
X20085Y1003782D01*
X20441Y1004867D01*
X20439Y1004875D01*
X20443Y1004878D01*
X20549Y1006015D01*
X20544Y1006024D01*
X20548Y1006029D01*
X20341Y1007166D01*
X20335Y1007172D01*
X20338Y1007177D01*
X19883Y1008239D01*
X19876Y1008243D01*
X19878Y1008249D01*
X19198Y1009184D01*
X19190Y1009186D01*
X19191Y1009192D01*
X18320Y1009952D01*
X18312Y1009952D01*
X18311Y1009958D01*
X17292Y1010505D01*
X17284Y1010504D01*
X17282Y1010509D01*
X16168Y1010816D01*
X16160Y1010813D01*
X16157Y1010818D01*
X15002Y1010869D01*
X15001Y1010868D01*
X15000Y1010869D01*
X9000Y1010869D01*
X8997Y1010867D01*
X8992Y1010867D01*
X8991Y1010868D01*
X7910Y1010656D01*
X7905Y1010650D01*
X7900Y1010653D01*
X6894Y1010206D01*
X6890Y1010199D01*
X6884Y1010201D01*
X6003Y1009541D01*
X6000Y1009533D01*
X5995Y1009533D01*
X5282Y1008694D01*
X5282Y1008686D01*
X5276Y1008685D01*
X4768Y1007708D01*
X4769Y1007700D01*
X4764Y1007698D01*
X4486Y1006633D01*
X4489Y1006625D01*
X4485Y1006622D01*
X4451Y1005522D01*
X4455Y1005516D01*
X4451Y1005513D01*
X4606Y1004438D01*
X4612Y1004432D01*
X4609Y1004427D01*
X4999Y1003413D01*
X5006Y1003409D01*
X5005Y1003403D01*
X5611Y1002501D01*
X5619Y1002499D01*
X5618Y1002493D01*
X6410Y1001749D01*
X6418Y1001748D01*
X6418Y1001742D01*
X7356Y1001193D01*
X7364Y1001194D01*
X7366Y1001188D01*
X8402Y1000861D01*
X8410Y1000864D01*
X8413Y1000859D01*
X9496Y1000771D01*
X9499Y1000773D01*
X9500Y1000771D01*
X15500Y1000771D01*
X15504Y1000774D01*
G37*
G36*
X960384Y299734D02*
X960384Y299734D01*
X960386Y299731D01*
X961519Y299881D01*
X961525Y299887D01*
X961530Y299884D01*
X962600Y300282D01*
X962604Y300289D01*
X962610Y300287D01*
X963565Y300914D01*
X963568Y300922D01*
X963573Y300921D01*
X964365Y301744D01*
X964366Y301752D01*
X964372Y301753D01*
X964961Y302732D01*
X964960Y302740D01*
X964965Y302742D01*
X965321Y303827D01*
X965319Y303835D01*
X965323Y303838D01*
X965429Y304975D01*
X965424Y304984D01*
X965428Y304989D01*
X965221Y306126D01*
X965215Y306132D01*
X965218Y306137D01*
X964763Y307199D01*
X964756Y307203D01*
X964758Y307209D01*
X964078Y308144D01*
X964070Y308146D01*
X964071Y308152D01*
X963200Y308912D01*
X963192Y308912D01*
X963191Y308918D01*
X962172Y309465D01*
X962164Y309464D01*
X962162Y309469D01*
X961048Y309776D01*
X961040Y309773D01*
X961037Y309778D01*
X959882Y309829D01*
X959881Y309828D01*
X959880Y309829D01*
X953880Y309829D01*
X953877Y309827D01*
X953872Y309827D01*
X953871Y309828D01*
X952790Y309616D01*
X952785Y309610D01*
X952780Y309613D01*
X951774Y309166D01*
X951770Y309159D01*
X951764Y309161D01*
X950883Y308501D01*
X950880Y308493D01*
X950875Y308493D01*
X950162Y307654D01*
X950162Y307646D01*
X950156Y307645D01*
X949648Y306668D01*
X949649Y306660D01*
X949644Y306658D01*
X949366Y305593D01*
X949369Y305585D01*
X949365Y305582D01*
X949331Y304482D01*
X949335Y304476D01*
X949331Y304473D01*
X949486Y303398D01*
X949492Y303392D01*
X949489Y303387D01*
X949879Y302373D01*
X949886Y302369D01*
X949885Y302363D01*
X950491Y301461D01*
X950499Y301459D01*
X950498Y301453D01*
X951290Y300709D01*
X951298Y300708D01*
X951298Y300702D01*
X952236Y300153D01*
X952244Y300154D01*
X952246Y300148D01*
X953282Y299821D01*
X953290Y299824D01*
X953293Y299819D01*
X954376Y299731D01*
X954379Y299733D01*
X954380Y299731D01*
X960380Y299731D01*
X960384Y299734D01*
G37*
G36*
X15504Y299734D02*
X15504Y299734D01*
X15506Y299731D01*
X16639Y299881D01*
X16645Y299887D01*
X16650Y299884D01*
X17720Y300282D01*
X17724Y300289D01*
X17730Y300287D01*
X18685Y300914D01*
X18688Y300922D01*
X18693Y300921D01*
X19485Y301744D01*
X19486Y301752D01*
X19492Y301753D01*
X20081Y302732D01*
X20080Y302740D01*
X20085Y302742D01*
X20441Y303827D01*
X20439Y303835D01*
X20443Y303838D01*
X20549Y304975D01*
X20544Y304984D01*
X20548Y304989D01*
X20341Y306126D01*
X20335Y306132D01*
X20338Y306137D01*
X19883Y307199D01*
X19876Y307203D01*
X19878Y307209D01*
X19198Y308144D01*
X19190Y308146D01*
X19191Y308152D01*
X18320Y308912D01*
X18312Y308912D01*
X18311Y308918D01*
X17292Y309465D01*
X17284Y309464D01*
X17282Y309469D01*
X16168Y309776D01*
X16160Y309773D01*
X16157Y309778D01*
X15002Y309829D01*
X15001Y309828D01*
X15000Y309829D01*
X9000Y309829D01*
X8997Y309827D01*
X8992Y309827D01*
X8991Y309828D01*
X7910Y309616D01*
X7905Y309610D01*
X7900Y309613D01*
X6894Y309166D01*
X6890Y309159D01*
X6884Y309161D01*
X6003Y308501D01*
X6000Y308493D01*
X5995Y308493D01*
X5282Y307654D01*
X5282Y307646D01*
X5276Y307645D01*
X4768Y306668D01*
X4769Y306660D01*
X4764Y306658D01*
X4486Y305593D01*
X4489Y305585D01*
X4485Y305582D01*
X4451Y304482D01*
X4455Y304476D01*
X4451Y304473D01*
X4606Y303398D01*
X4612Y303392D01*
X4609Y303387D01*
X4999Y302373D01*
X5006Y302369D01*
X5005Y302363D01*
X5611Y301461D01*
X5619Y301459D01*
X5618Y301453D01*
X6410Y300709D01*
X6418Y300708D01*
X6418Y300702D01*
X7356Y300153D01*
X7364Y300154D01*
X7366Y300148D01*
X8402Y299821D01*
X8410Y299824D01*
X8413Y299819D01*
X9496Y299731D01*
X9499Y299733D01*
X9500Y299731D01*
X15500Y299731D01*
X15504Y299734D01*
G37*
G36*
X15504Y533414D02*
X15504Y533414D01*
X15506Y533411D01*
X16639Y533561D01*
X16645Y533567D01*
X16650Y533564D01*
X17720Y533962D01*
X17724Y533969D01*
X17730Y533967D01*
X18685Y534594D01*
X18688Y534602D01*
X18693Y534601D01*
X19485Y535424D01*
X19486Y535432D01*
X19492Y535433D01*
X20081Y536412D01*
X20080Y536420D01*
X20085Y536422D01*
X20441Y537507D01*
X20439Y537515D01*
X20443Y537518D01*
X20549Y538655D01*
X20544Y538664D01*
X20548Y538669D01*
X20341Y539806D01*
X20335Y539812D01*
X20338Y539817D01*
X19883Y540879D01*
X19876Y540883D01*
X19878Y540889D01*
X19198Y541824D01*
X19190Y541826D01*
X19191Y541832D01*
X18320Y542592D01*
X18312Y542592D01*
X18311Y542598D01*
X17292Y543145D01*
X17284Y543144D01*
X17282Y543149D01*
X16168Y543456D01*
X16160Y543453D01*
X16157Y543458D01*
X15002Y543509D01*
X15001Y543508D01*
X15000Y543509D01*
X9000Y543509D01*
X8997Y543507D01*
X8992Y543507D01*
X8991Y543508D01*
X7910Y543296D01*
X7905Y543290D01*
X7900Y543293D01*
X6894Y542846D01*
X6890Y542839D01*
X6884Y542841D01*
X6003Y542181D01*
X6000Y542173D01*
X5995Y542173D01*
X5282Y541334D01*
X5282Y541326D01*
X5276Y541325D01*
X4768Y540348D01*
X4769Y540340D01*
X4764Y540338D01*
X4486Y539273D01*
X4489Y539265D01*
X4485Y539262D01*
X4451Y538162D01*
X4455Y538156D01*
X4451Y538153D01*
X4606Y537078D01*
X4612Y537072D01*
X4609Y537067D01*
X4999Y536053D01*
X5006Y536049D01*
X5005Y536043D01*
X5611Y535141D01*
X5619Y535139D01*
X5618Y535133D01*
X6410Y534389D01*
X6418Y534388D01*
X6418Y534382D01*
X7356Y533833D01*
X7364Y533834D01*
X7366Y533828D01*
X8402Y533501D01*
X8410Y533504D01*
X8413Y533499D01*
X9496Y533411D01*
X9499Y533413D01*
X9500Y533411D01*
X15500Y533411D01*
X15504Y533414D01*
G37*
G36*
X960384Y1000774D02*
X960384Y1000774D01*
X960386Y1000771D01*
X961519Y1000921D01*
X961525Y1000927D01*
X961530Y1000924D01*
X962600Y1001322D01*
X962604Y1001329D01*
X962610Y1001327D01*
X963565Y1001954D01*
X963568Y1001962D01*
X963573Y1001961D01*
X964365Y1002784D01*
X964366Y1002792D01*
X964372Y1002793D01*
X964961Y1003772D01*
X964960Y1003780D01*
X964965Y1003782D01*
X965321Y1004867D01*
X965319Y1004875D01*
X965323Y1004878D01*
X965429Y1006015D01*
X965424Y1006024D01*
X965428Y1006029D01*
X965221Y1007166D01*
X965215Y1007172D01*
X965218Y1007177D01*
X964763Y1008239D01*
X964756Y1008243D01*
X964758Y1008249D01*
X964078Y1009184D01*
X964070Y1009186D01*
X964071Y1009192D01*
X963200Y1009952D01*
X963192Y1009952D01*
X963191Y1009958D01*
X962172Y1010505D01*
X962164Y1010504D01*
X962162Y1010509D01*
X961048Y1010816D01*
X961040Y1010813D01*
X961037Y1010818D01*
X959882Y1010869D01*
X959881Y1010868D01*
X959880Y1010869D01*
X953880Y1010869D01*
X953877Y1010867D01*
X953872Y1010867D01*
X953871Y1010868D01*
X952790Y1010656D01*
X952785Y1010650D01*
X952780Y1010653D01*
X951774Y1010206D01*
X951770Y1010199D01*
X951764Y1010201D01*
X950883Y1009541D01*
X950880Y1009533D01*
X950875Y1009533D01*
X950162Y1008694D01*
X950162Y1008686D01*
X950156Y1008685D01*
X949648Y1007708D01*
X949649Y1007700D01*
X949644Y1007698D01*
X949366Y1006633D01*
X949369Y1006625D01*
X949365Y1006622D01*
X949331Y1005522D01*
X949335Y1005516D01*
X949331Y1005513D01*
X949486Y1004438D01*
X949492Y1004432D01*
X949489Y1004427D01*
X949879Y1003413D01*
X949886Y1003409D01*
X949885Y1003403D01*
X950491Y1002501D01*
X950499Y1002499D01*
X950498Y1002493D01*
X951290Y1001749D01*
X951298Y1001748D01*
X951298Y1001742D01*
X952236Y1001193D01*
X952244Y1001194D01*
X952246Y1001188D01*
X953282Y1000861D01*
X953290Y1000864D01*
X953293Y1000859D01*
X954376Y1000771D01*
X954379Y1000773D01*
X954380Y1000771D01*
X960380Y1000771D01*
X960384Y1000774D01*
G37*
G36*
X960384Y533414D02*
X960384Y533414D01*
X960386Y533411D01*
X961519Y533561D01*
X961525Y533567D01*
X961530Y533564D01*
X962600Y533962D01*
X962604Y533969D01*
X962610Y533967D01*
X963565Y534594D01*
X963568Y534602D01*
X963573Y534601D01*
X964365Y535424D01*
X964366Y535432D01*
X964372Y535433D01*
X964961Y536412D01*
X964960Y536420D01*
X964965Y536422D01*
X965321Y537507D01*
X965319Y537515D01*
X965323Y537518D01*
X965429Y538655D01*
X965424Y538664D01*
X965428Y538669D01*
X965221Y539806D01*
X965215Y539812D01*
X965218Y539817D01*
X964763Y540879D01*
X964756Y540883D01*
X964758Y540889D01*
X964078Y541824D01*
X964070Y541826D01*
X964071Y541832D01*
X963200Y542592D01*
X963192Y542592D01*
X963191Y542598D01*
X962172Y543145D01*
X962164Y543144D01*
X962162Y543149D01*
X961048Y543456D01*
X961040Y543453D01*
X961037Y543458D01*
X959882Y543509D01*
X959881Y543508D01*
X959880Y543509D01*
X953880Y543509D01*
X953877Y543507D01*
X953872Y543507D01*
X953871Y543508D01*
X952790Y543296D01*
X952785Y543290D01*
X952780Y543293D01*
X951774Y542846D01*
X951770Y542839D01*
X951764Y542841D01*
X950883Y542181D01*
X950880Y542173D01*
X950875Y542173D01*
X950162Y541334D01*
X950162Y541326D01*
X950156Y541325D01*
X949648Y540348D01*
X949649Y540340D01*
X949644Y540338D01*
X949366Y539273D01*
X949369Y539265D01*
X949365Y539262D01*
X949331Y538162D01*
X949335Y538156D01*
X949331Y538153D01*
X949486Y537078D01*
X949492Y537072D01*
X949489Y537067D01*
X949879Y536053D01*
X949886Y536049D01*
X949885Y536043D01*
X950491Y535141D01*
X950499Y535139D01*
X950498Y535133D01*
X951290Y534389D01*
X951298Y534388D01*
X951298Y534382D01*
X952236Y533833D01*
X952244Y533834D01*
X952246Y533828D01*
X953282Y533501D01*
X953290Y533504D01*
X953293Y533499D01*
X954376Y533411D01*
X954379Y533413D01*
X954380Y533411D01*
X960380Y533411D01*
X960384Y533414D01*
G37*
G36*
X960384Y66054D02*
X960384Y66054D01*
X960386Y66051D01*
X961519Y66201D01*
X961525Y66207D01*
X961530Y66204D01*
X962600Y66602D01*
X962604Y66609D01*
X962610Y66607D01*
X963565Y67234D01*
X963568Y67242D01*
X963573Y67241D01*
X964365Y68064D01*
X964366Y68072D01*
X964372Y68073D01*
X964961Y69052D01*
X964960Y69060D01*
X964965Y69062D01*
X965321Y70147D01*
X965319Y70155D01*
X965323Y70158D01*
X965429Y71295D01*
X965424Y71304D01*
X965428Y71309D01*
X965221Y72446D01*
X965215Y72452D01*
X965218Y72457D01*
X964763Y73519D01*
X964756Y73523D01*
X964758Y73529D01*
X964078Y74464D01*
X964070Y74466D01*
X964071Y74472D01*
X963200Y75232D01*
X963192Y75232D01*
X963191Y75238D01*
X962172Y75785D01*
X962164Y75784D01*
X962162Y75789D01*
X961048Y76096D01*
X961040Y76093D01*
X961037Y76098D01*
X959882Y76149D01*
X959881Y76148D01*
X959880Y76149D01*
X953880Y76149D01*
X953877Y76147D01*
X953872Y76147D01*
X953871Y76148D01*
X952790Y75936D01*
X952785Y75930D01*
X952780Y75933D01*
X951774Y75486D01*
X951770Y75479D01*
X951764Y75481D01*
X950883Y74821D01*
X950880Y74813D01*
X950875Y74813D01*
X950162Y73974D01*
X950162Y73966D01*
X950156Y73965D01*
X949648Y72988D01*
X949649Y72980D01*
X949644Y72978D01*
X949366Y71913D01*
X949369Y71905D01*
X949365Y71902D01*
X949331Y70802D01*
X949335Y70796D01*
X949331Y70793D01*
X949486Y69718D01*
X949492Y69712D01*
X949489Y69707D01*
X949879Y68693D01*
X949886Y68689D01*
X949885Y68683D01*
X950491Y67781D01*
X950499Y67779D01*
X950498Y67773D01*
X951290Y67029D01*
X951298Y67028D01*
X951298Y67022D01*
X952236Y66473D01*
X952244Y66474D01*
X952246Y66468D01*
X953282Y66141D01*
X953290Y66144D01*
X953293Y66139D01*
X954376Y66051D01*
X954379Y66053D01*
X954380Y66051D01*
X960380Y66051D01*
X960384Y66054D01*
G37*
G36*
X15504Y66054D02*
X15504Y66054D01*
X15506Y66051D01*
X16639Y66201D01*
X16645Y66207D01*
X16650Y66204D01*
X17720Y66602D01*
X17724Y66609D01*
X17730Y66607D01*
X18685Y67234D01*
X18688Y67242D01*
X18693Y67241D01*
X19485Y68064D01*
X19486Y68072D01*
X19492Y68073D01*
X20081Y69052D01*
X20080Y69060D01*
X20085Y69062D01*
X20441Y70147D01*
X20439Y70155D01*
X20443Y70158D01*
X20549Y71295D01*
X20544Y71304D01*
X20548Y71309D01*
X20341Y72446D01*
X20335Y72452D01*
X20338Y72457D01*
X19883Y73519D01*
X19876Y73523D01*
X19878Y73529D01*
X19198Y74464D01*
X19190Y74466D01*
X19191Y74472D01*
X18320Y75232D01*
X18312Y75232D01*
X18311Y75238D01*
X17292Y75785D01*
X17284Y75784D01*
X17282Y75789D01*
X16168Y76096D01*
X16160Y76093D01*
X16157Y76098D01*
X15002Y76149D01*
X15001Y76148D01*
X15000Y76149D01*
X9000Y76149D01*
X8997Y76147D01*
X8992Y76147D01*
X8991Y76148D01*
X7910Y75936D01*
X7905Y75930D01*
X7900Y75933D01*
X6894Y75486D01*
X6890Y75479D01*
X6884Y75481D01*
X6003Y74821D01*
X6000Y74813D01*
X5995Y74813D01*
X5282Y73974D01*
X5282Y73966D01*
X5276Y73965D01*
X4768Y72988D01*
X4769Y72980D01*
X4764Y72978D01*
X4486Y71913D01*
X4489Y71905D01*
X4485Y71902D01*
X4451Y70802D01*
X4455Y70796D01*
X4451Y70793D01*
X4606Y69718D01*
X4612Y69712D01*
X4609Y69707D01*
X4999Y68693D01*
X5006Y68689D01*
X5005Y68683D01*
X5611Y67781D01*
X5619Y67779D01*
X5618Y67773D01*
X6410Y67029D01*
X6418Y67028D01*
X6418Y67022D01*
X7356Y66473D01*
X7364Y66474D01*
X7366Y66468D01*
X8402Y66141D01*
X8410Y66144D01*
X8413Y66139D01*
X9496Y66051D01*
X9499Y66053D01*
X9500Y66051D01*
X15500Y66051D01*
X15504Y66054D01*
G37*
G36*
X960383Y386133D02*
X960383Y386133D01*
X960385Y386131D01*
X961477Y386232D01*
X961483Y386237D01*
X961488Y386234D01*
X962531Y386575D01*
X962536Y386582D01*
X962541Y386580D01*
X963482Y387144D01*
X963485Y387152D01*
X963491Y387151D01*
X964283Y387911D01*
X964284Y387919D01*
X964290Y387920D01*
X964893Y388837D01*
X964892Y388845D01*
X964898Y388847D01*
X965281Y389875D01*
X965279Y389883D01*
X965284Y389886D01*
X965429Y390974D01*
X965425Y390981D01*
X965429Y390985D01*
X965323Y392122D01*
X965318Y392128D01*
X965321Y392133D01*
X964965Y393218D01*
X964958Y393223D01*
X964961Y393228D01*
X964372Y394207D01*
X964364Y394210D01*
X964365Y394216D01*
X963573Y395039D01*
X963565Y395040D01*
X963565Y395046D01*
X962610Y395673D01*
X962602Y395672D01*
X962600Y395678D01*
X961530Y396076D01*
X961522Y396074D01*
X961519Y396079D01*
X960386Y396229D01*
X960383Y396227D01*
X960382Y396227D01*
X960380Y396229D01*
X954380Y396229D01*
X954377Y396227D01*
X954375Y396227D01*
X954374Y396229D01*
X953241Y396079D01*
X953235Y396073D01*
X953230Y396076D01*
X952160Y395678D01*
X952156Y395671D01*
X952150Y395673D01*
X951195Y395046D01*
X951192Y395038D01*
X951187Y395039D01*
X950395Y394216D01*
X950394Y394208D01*
X950388Y394207D01*
X949799Y393228D01*
X949800Y393220D01*
X949795Y393218D01*
X949439Y392133D01*
X949442Y392125D01*
X949437Y392122D01*
X949331Y390985D01*
X949335Y390978D01*
X949331Y390974D01*
X949476Y389886D01*
X949482Y389880D01*
X949479Y389875D01*
X949863Y388847D01*
X949869Y388842D01*
X949868Y388837D01*
X950470Y387920D01*
X950478Y387917D01*
X950477Y387911D01*
X951269Y387151D01*
X951277Y387150D01*
X951278Y387144D01*
X952219Y386580D01*
X952227Y386581D01*
X952229Y386575D01*
X953272Y386234D01*
X953280Y386236D01*
X953283Y386232D01*
X954376Y386131D01*
X954378Y386133D01*
X954380Y386131D01*
X960380Y386131D01*
X960383Y386133D01*
G37*
G36*
X960383Y853493D02*
X960383Y853493D01*
X960385Y853491D01*
X961477Y853592D01*
X961483Y853597D01*
X961488Y853594D01*
X962531Y853935D01*
X962536Y853942D01*
X962541Y853940D01*
X963482Y854504D01*
X963485Y854512D01*
X963491Y854511D01*
X964283Y855271D01*
X964284Y855279D01*
X964290Y855280D01*
X964893Y856197D01*
X964892Y856205D01*
X964898Y856207D01*
X965281Y857235D01*
X965279Y857243D01*
X965284Y857246D01*
X965429Y858334D01*
X965425Y858341D01*
X965429Y858345D01*
X965323Y859482D01*
X965318Y859488D01*
X965321Y859493D01*
X964965Y860578D01*
X964958Y860583D01*
X964961Y860588D01*
X964372Y861567D01*
X964364Y861570D01*
X964365Y861576D01*
X963573Y862399D01*
X963565Y862400D01*
X963565Y862406D01*
X962610Y863033D01*
X962602Y863032D01*
X962600Y863038D01*
X961530Y863436D01*
X961522Y863434D01*
X961519Y863439D01*
X960386Y863589D01*
X960383Y863587D01*
X960382Y863587D01*
X960380Y863589D01*
X954380Y863589D01*
X954377Y863587D01*
X954375Y863587D01*
X954374Y863589D01*
X953241Y863439D01*
X953235Y863433D01*
X953230Y863436D01*
X952160Y863038D01*
X952156Y863031D01*
X952150Y863033D01*
X951195Y862406D01*
X951192Y862398D01*
X951187Y862399D01*
X950395Y861576D01*
X950394Y861568D01*
X950388Y861567D01*
X949799Y860588D01*
X949800Y860580D01*
X949795Y860578D01*
X949439Y859493D01*
X949442Y859485D01*
X949437Y859482D01*
X949331Y858345D01*
X949335Y858338D01*
X949331Y858334D01*
X949476Y857246D01*
X949482Y857240D01*
X949479Y857235D01*
X949863Y856207D01*
X949869Y856202D01*
X949868Y856197D01*
X950470Y855280D01*
X950478Y855277D01*
X950477Y855271D01*
X951269Y854511D01*
X951277Y854510D01*
X951278Y854504D01*
X952219Y853940D01*
X952227Y853941D01*
X952229Y853935D01*
X953272Y853594D01*
X953280Y853596D01*
X953283Y853592D01*
X954376Y853491D01*
X954378Y853493D01*
X954380Y853491D01*
X960380Y853491D01*
X960383Y853493D01*
G37*
G36*
X15503Y853493D02*
X15503Y853493D01*
X15505Y853491D01*
X16597Y853592D01*
X16603Y853597D01*
X16608Y853594D01*
X17651Y853935D01*
X17656Y853942D01*
X17661Y853940D01*
X18602Y854504D01*
X18605Y854512D01*
X18611Y854511D01*
X19403Y855271D01*
X19404Y855279D01*
X19410Y855280D01*
X20013Y856197D01*
X20012Y856205D01*
X20018Y856207D01*
X20401Y857235D01*
X20399Y857243D01*
X20404Y857246D01*
X20549Y858334D01*
X20545Y858341D01*
X20549Y858345D01*
X20443Y859482D01*
X20438Y859488D01*
X20441Y859493D01*
X20085Y860578D01*
X20078Y860583D01*
X20081Y860588D01*
X19492Y861567D01*
X19484Y861570D01*
X19485Y861576D01*
X18693Y862399D01*
X18685Y862400D01*
X18685Y862406D01*
X17730Y863033D01*
X17722Y863032D01*
X17720Y863038D01*
X16650Y863436D01*
X16642Y863434D01*
X16639Y863439D01*
X15506Y863589D01*
X15503Y863587D01*
X15502Y863587D01*
X15500Y863589D01*
X9500Y863589D01*
X9497Y863587D01*
X9495Y863587D01*
X9494Y863589D01*
X8361Y863439D01*
X8355Y863433D01*
X8350Y863436D01*
X7280Y863038D01*
X7276Y863031D01*
X7270Y863033D01*
X6315Y862406D01*
X6312Y862398D01*
X6307Y862399D01*
X5515Y861576D01*
X5514Y861568D01*
X5508Y861567D01*
X4919Y860588D01*
X4920Y860580D01*
X4915Y860578D01*
X4559Y859493D01*
X4562Y859485D01*
X4557Y859482D01*
X4451Y858345D01*
X4455Y858338D01*
X4451Y858334D01*
X4596Y857246D01*
X4602Y857240D01*
X4599Y857235D01*
X4983Y856207D01*
X4989Y856202D01*
X4988Y856197D01*
X5590Y855280D01*
X5598Y855277D01*
X5597Y855271D01*
X6389Y854511D01*
X6397Y854510D01*
X6398Y854504D01*
X7339Y853940D01*
X7347Y853941D01*
X7349Y853935D01*
X8392Y853594D01*
X8400Y853596D01*
X8403Y853592D01*
X9496Y853491D01*
X9498Y853493D01*
X9500Y853491D01*
X15500Y853491D01*
X15503Y853493D01*
G37*
G36*
X960383Y1087173D02*
X960383Y1087173D01*
X960385Y1087171D01*
X961477Y1087272D01*
X961483Y1087277D01*
X961488Y1087274D01*
X962531Y1087615D01*
X962536Y1087622D01*
X962541Y1087620D01*
X963482Y1088184D01*
X963485Y1088192D01*
X963491Y1088191D01*
X964283Y1088951D01*
X964284Y1088959D01*
X964290Y1088960D01*
X964893Y1089877D01*
X964892Y1089885D01*
X964898Y1089887D01*
X965281Y1090915D01*
X965279Y1090923D01*
X965284Y1090926D01*
X965429Y1092014D01*
X965425Y1092021D01*
X965429Y1092025D01*
X965323Y1093162D01*
X965318Y1093168D01*
X965321Y1093173D01*
X964965Y1094258D01*
X964958Y1094263D01*
X964961Y1094268D01*
X964372Y1095247D01*
X964364Y1095250D01*
X964365Y1095256D01*
X963573Y1096079D01*
X963565Y1096080D01*
X963565Y1096086D01*
X962610Y1096713D01*
X962602Y1096712D01*
X962600Y1096718D01*
X961530Y1097116D01*
X961522Y1097114D01*
X961519Y1097119D01*
X960386Y1097269D01*
X960383Y1097267D01*
X960382Y1097267D01*
X960380Y1097269D01*
X954380Y1097269D01*
X954377Y1097267D01*
X954375Y1097267D01*
X954374Y1097269D01*
X953241Y1097119D01*
X953235Y1097113D01*
X953230Y1097116D01*
X952160Y1096718D01*
X952156Y1096711D01*
X952150Y1096713D01*
X951195Y1096086D01*
X951192Y1096078D01*
X951187Y1096079D01*
X950395Y1095256D01*
X950394Y1095248D01*
X950388Y1095247D01*
X949799Y1094268D01*
X949800Y1094260D01*
X949795Y1094258D01*
X949439Y1093173D01*
X949442Y1093165D01*
X949437Y1093162D01*
X949331Y1092025D01*
X949335Y1092018D01*
X949331Y1092014D01*
X949476Y1090926D01*
X949482Y1090920D01*
X949479Y1090915D01*
X949863Y1089887D01*
X949869Y1089882D01*
X949868Y1089877D01*
X950470Y1088960D01*
X950478Y1088957D01*
X950477Y1088951D01*
X951269Y1088191D01*
X951277Y1088190D01*
X951278Y1088184D01*
X952219Y1087620D01*
X952227Y1087621D01*
X952229Y1087615D01*
X953272Y1087274D01*
X953280Y1087276D01*
X953283Y1087272D01*
X954376Y1087171D01*
X954378Y1087173D01*
X954380Y1087171D01*
X960380Y1087171D01*
X960383Y1087173D01*
G37*
G36*
X15503Y152453D02*
X15503Y152453D01*
X15505Y152451D01*
X16597Y152552D01*
X16603Y152557D01*
X16608Y152554D01*
X17651Y152895D01*
X17656Y152902D01*
X17661Y152900D01*
X18602Y153464D01*
X18605Y153472D01*
X18611Y153471D01*
X19403Y154231D01*
X19404Y154239D01*
X19410Y154240D01*
X20013Y155157D01*
X20012Y155165D01*
X20018Y155167D01*
X20401Y156195D01*
X20399Y156203D01*
X20404Y156206D01*
X20549Y157294D01*
X20545Y157301D01*
X20549Y157305D01*
X20443Y158442D01*
X20438Y158448D01*
X20441Y158453D01*
X20085Y159538D01*
X20078Y159543D01*
X20081Y159548D01*
X19492Y160527D01*
X19484Y160530D01*
X19485Y160536D01*
X18693Y161359D01*
X18685Y161360D01*
X18685Y161366D01*
X17730Y161993D01*
X17722Y161992D01*
X17720Y161998D01*
X16650Y162396D01*
X16642Y162394D01*
X16639Y162399D01*
X15506Y162549D01*
X15503Y162547D01*
X15502Y162547D01*
X15500Y162549D01*
X9500Y162549D01*
X9497Y162547D01*
X9495Y162547D01*
X9494Y162549D01*
X8361Y162399D01*
X8355Y162393D01*
X8350Y162396D01*
X7280Y161998D01*
X7276Y161991D01*
X7270Y161993D01*
X6315Y161366D01*
X6312Y161358D01*
X6307Y161359D01*
X5515Y160536D01*
X5514Y160528D01*
X5508Y160527D01*
X4919Y159548D01*
X4920Y159540D01*
X4915Y159538D01*
X4559Y158453D01*
X4562Y158445D01*
X4557Y158442D01*
X4451Y157305D01*
X4455Y157298D01*
X4451Y157294D01*
X4596Y156206D01*
X4602Y156200D01*
X4599Y156195D01*
X4983Y155167D01*
X4989Y155162D01*
X4988Y155157D01*
X5590Y154240D01*
X5598Y154237D01*
X5597Y154231D01*
X6389Y153471D01*
X6397Y153470D01*
X6398Y153464D01*
X7339Y152900D01*
X7347Y152901D01*
X7349Y152895D01*
X8392Y152554D01*
X8400Y152556D01*
X8403Y152552D01*
X9496Y152451D01*
X9498Y152453D01*
X9500Y152451D01*
X15500Y152451D01*
X15503Y152453D01*
G37*
G36*
X960383Y152453D02*
X960383Y152453D01*
X960385Y152451D01*
X961477Y152552D01*
X961483Y152557D01*
X961488Y152554D01*
X962531Y152895D01*
X962536Y152902D01*
X962541Y152900D01*
X963482Y153464D01*
X963485Y153472D01*
X963491Y153471D01*
X964283Y154231D01*
X964284Y154239D01*
X964290Y154240D01*
X964893Y155157D01*
X964892Y155165D01*
X964898Y155167D01*
X965281Y156195D01*
X965279Y156203D01*
X965284Y156206D01*
X965429Y157294D01*
X965425Y157301D01*
X965429Y157305D01*
X965323Y158442D01*
X965318Y158448D01*
X965321Y158453D01*
X964965Y159538D01*
X964958Y159543D01*
X964961Y159548D01*
X964372Y160527D01*
X964364Y160530D01*
X964365Y160536D01*
X963573Y161359D01*
X963565Y161360D01*
X963565Y161366D01*
X962610Y161993D01*
X962602Y161992D01*
X962600Y161998D01*
X961530Y162396D01*
X961522Y162394D01*
X961519Y162399D01*
X960386Y162549D01*
X960383Y162547D01*
X960382Y162547D01*
X960380Y162549D01*
X954380Y162549D01*
X954377Y162547D01*
X954375Y162547D01*
X954374Y162549D01*
X953241Y162399D01*
X953235Y162393D01*
X953230Y162396D01*
X952160Y161998D01*
X952156Y161991D01*
X952150Y161993D01*
X951195Y161366D01*
X951192Y161358D01*
X951187Y161359D01*
X950395Y160536D01*
X950394Y160528D01*
X950388Y160527D01*
X949799Y159548D01*
X949800Y159540D01*
X949795Y159538D01*
X949439Y158453D01*
X949442Y158445D01*
X949437Y158442D01*
X949331Y157305D01*
X949335Y157298D01*
X949331Y157294D01*
X949476Y156206D01*
X949482Y156200D01*
X949479Y156195D01*
X949863Y155167D01*
X949869Y155162D01*
X949868Y155157D01*
X950470Y154240D01*
X950478Y154237D01*
X950477Y154231D01*
X951269Y153471D01*
X951277Y153470D01*
X951278Y153464D01*
X952219Y152900D01*
X952227Y152901D01*
X952229Y152895D01*
X953272Y152554D01*
X953280Y152556D01*
X953283Y152552D01*
X954376Y152451D01*
X954378Y152453D01*
X954380Y152451D01*
X960380Y152451D01*
X960383Y152453D01*
G37*
G36*
X15503Y1087173D02*
X15503Y1087173D01*
X15505Y1087171D01*
X16597Y1087272D01*
X16603Y1087277D01*
X16608Y1087274D01*
X17651Y1087615D01*
X17656Y1087622D01*
X17661Y1087620D01*
X18602Y1088184D01*
X18605Y1088192D01*
X18611Y1088191D01*
X19403Y1088951D01*
X19404Y1088959D01*
X19410Y1088960D01*
X20013Y1089877D01*
X20012Y1089885D01*
X20018Y1089887D01*
X20401Y1090915D01*
X20399Y1090923D01*
X20404Y1090926D01*
X20549Y1092014D01*
X20545Y1092021D01*
X20549Y1092025D01*
X20443Y1093162D01*
X20438Y1093168D01*
X20441Y1093173D01*
X20085Y1094258D01*
X20078Y1094263D01*
X20081Y1094268D01*
X19492Y1095247D01*
X19484Y1095250D01*
X19485Y1095256D01*
X18693Y1096079D01*
X18685Y1096080D01*
X18685Y1096086D01*
X17730Y1096713D01*
X17722Y1096712D01*
X17720Y1096718D01*
X16650Y1097116D01*
X16642Y1097114D01*
X16639Y1097119D01*
X15506Y1097269D01*
X15503Y1097267D01*
X15502Y1097267D01*
X15500Y1097269D01*
X9500Y1097269D01*
X9497Y1097267D01*
X9495Y1097267D01*
X9494Y1097269D01*
X8361Y1097119D01*
X8355Y1097113D01*
X8350Y1097116D01*
X7280Y1096718D01*
X7276Y1096711D01*
X7270Y1096713D01*
X6315Y1096086D01*
X6312Y1096078D01*
X6307Y1096079D01*
X5515Y1095256D01*
X5514Y1095248D01*
X5508Y1095247D01*
X4919Y1094268D01*
X4920Y1094260D01*
X4915Y1094258D01*
X4559Y1093173D01*
X4562Y1093165D01*
X4557Y1093162D01*
X4451Y1092025D01*
X4455Y1092018D01*
X4451Y1092014D01*
X4596Y1090926D01*
X4602Y1090920D01*
X4599Y1090915D01*
X4983Y1089887D01*
X4989Y1089882D01*
X4988Y1089877D01*
X5590Y1088960D01*
X5598Y1088957D01*
X5597Y1088951D01*
X6389Y1088191D01*
X6397Y1088190D01*
X6398Y1088184D01*
X7339Y1087620D01*
X7347Y1087621D01*
X7349Y1087615D01*
X8392Y1087274D01*
X8400Y1087276D01*
X8403Y1087272D01*
X9496Y1087171D01*
X9498Y1087173D01*
X9500Y1087171D01*
X15500Y1087171D01*
X15503Y1087173D01*
G37*
G36*
X15503Y619813D02*
X15503Y619813D01*
X15505Y619811D01*
X16597Y619912D01*
X16603Y619917D01*
X16608Y619914D01*
X17651Y620255D01*
X17656Y620262D01*
X17661Y620260D01*
X18602Y620824D01*
X18605Y620832D01*
X18611Y620831D01*
X19403Y621591D01*
X19404Y621599D01*
X19410Y621600D01*
X20013Y622517D01*
X20012Y622525D01*
X20018Y622527D01*
X20401Y623555D01*
X20399Y623563D01*
X20404Y623566D01*
X20549Y624654D01*
X20545Y624661D01*
X20549Y624665D01*
X20443Y625802D01*
X20438Y625808D01*
X20441Y625813D01*
X20085Y626898D01*
X20078Y626903D01*
X20081Y626908D01*
X19492Y627887D01*
X19484Y627890D01*
X19485Y627896D01*
X18693Y628719D01*
X18685Y628720D01*
X18685Y628726D01*
X17730Y629353D01*
X17722Y629352D01*
X17720Y629358D01*
X16650Y629756D01*
X16642Y629754D01*
X16639Y629759D01*
X15506Y629909D01*
X15503Y629907D01*
X15502Y629907D01*
X15500Y629909D01*
X9500Y629909D01*
X9497Y629907D01*
X9495Y629907D01*
X9494Y629909D01*
X8361Y629759D01*
X8355Y629753D01*
X8350Y629756D01*
X7280Y629358D01*
X7276Y629351D01*
X7270Y629353D01*
X6315Y628726D01*
X6312Y628718D01*
X6307Y628719D01*
X5515Y627896D01*
X5514Y627888D01*
X5508Y627887D01*
X4919Y626908D01*
X4920Y626900D01*
X4915Y626898D01*
X4559Y625813D01*
X4562Y625805D01*
X4557Y625802D01*
X4451Y624665D01*
X4455Y624658D01*
X4451Y624654D01*
X4596Y623566D01*
X4602Y623560D01*
X4599Y623555D01*
X4983Y622527D01*
X4989Y622522D01*
X4988Y622517D01*
X5590Y621600D01*
X5598Y621597D01*
X5597Y621591D01*
X6389Y620831D01*
X6397Y620830D01*
X6398Y620824D01*
X7339Y620260D01*
X7347Y620261D01*
X7349Y620255D01*
X8392Y619914D01*
X8400Y619916D01*
X8403Y619912D01*
X9496Y619811D01*
X9498Y619813D01*
X9500Y619811D01*
X15500Y619811D01*
X15503Y619813D01*
G37*
G36*
X960383Y619813D02*
X960383Y619813D01*
X960385Y619811D01*
X961477Y619912D01*
X961483Y619917D01*
X961488Y619914D01*
X962531Y620255D01*
X962536Y620262D01*
X962541Y620260D01*
X963482Y620824D01*
X963485Y620832D01*
X963491Y620831D01*
X964283Y621591D01*
X964284Y621599D01*
X964290Y621600D01*
X964893Y622517D01*
X964892Y622525D01*
X964898Y622527D01*
X965281Y623555D01*
X965279Y623563D01*
X965284Y623566D01*
X965429Y624654D01*
X965425Y624661D01*
X965429Y624665D01*
X965323Y625802D01*
X965318Y625808D01*
X965321Y625813D01*
X964965Y626898D01*
X964958Y626903D01*
X964961Y626908D01*
X964372Y627887D01*
X964364Y627890D01*
X964365Y627896D01*
X963573Y628719D01*
X963565Y628720D01*
X963565Y628726D01*
X962610Y629353D01*
X962602Y629352D01*
X962600Y629358D01*
X961530Y629756D01*
X961522Y629754D01*
X961519Y629759D01*
X960386Y629909D01*
X960383Y629907D01*
X960382Y629907D01*
X960380Y629909D01*
X954380Y629909D01*
X954377Y629907D01*
X954375Y629907D01*
X954374Y629909D01*
X953241Y629759D01*
X953235Y629753D01*
X953230Y629756D01*
X952160Y629358D01*
X952156Y629351D01*
X952150Y629353D01*
X951195Y628726D01*
X951192Y628718D01*
X951187Y628719D01*
X950395Y627896D01*
X950394Y627888D01*
X950388Y627887D01*
X949799Y626908D01*
X949800Y626900D01*
X949795Y626898D01*
X949439Y625813D01*
X949442Y625805D01*
X949437Y625802D01*
X949331Y624665D01*
X949335Y624658D01*
X949331Y624654D01*
X949476Y623566D01*
X949482Y623560D01*
X949479Y623555D01*
X949863Y622527D01*
X949869Y622522D01*
X949868Y622517D01*
X950470Y621600D01*
X950478Y621597D01*
X950477Y621591D01*
X951269Y620831D01*
X951277Y620830D01*
X951278Y620824D01*
X952219Y620260D01*
X952227Y620261D01*
X952229Y620255D01*
X953272Y619914D01*
X953280Y619916D01*
X953283Y619912D01*
X954376Y619811D01*
X954378Y619813D01*
X954380Y619811D01*
X960380Y619811D01*
X960383Y619813D01*
G37*
G36*
X15503Y386133D02*
X15503Y386133D01*
X15505Y386131D01*
X16597Y386232D01*
X16603Y386237D01*
X16608Y386234D01*
X17651Y386575D01*
X17656Y386582D01*
X17661Y386580D01*
X18602Y387144D01*
X18605Y387152D01*
X18611Y387151D01*
X19403Y387911D01*
X19404Y387919D01*
X19410Y387920D01*
X20013Y388837D01*
X20012Y388845D01*
X20018Y388847D01*
X20401Y389875D01*
X20399Y389883D01*
X20404Y389886D01*
X20549Y390974D01*
X20545Y390981D01*
X20549Y390985D01*
X20443Y392122D01*
X20438Y392128D01*
X20441Y392133D01*
X20085Y393218D01*
X20078Y393223D01*
X20081Y393228D01*
X19492Y394207D01*
X19484Y394210D01*
X19485Y394216D01*
X18693Y395039D01*
X18685Y395040D01*
X18685Y395046D01*
X17730Y395673D01*
X17722Y395672D01*
X17720Y395678D01*
X16650Y396076D01*
X16642Y396074D01*
X16639Y396079D01*
X15506Y396229D01*
X15503Y396227D01*
X15502Y396227D01*
X15500Y396229D01*
X9500Y396229D01*
X9497Y396227D01*
X9495Y396227D01*
X9494Y396229D01*
X8361Y396079D01*
X8355Y396073D01*
X8350Y396076D01*
X7280Y395678D01*
X7276Y395671D01*
X7270Y395673D01*
X6315Y395046D01*
X6312Y395038D01*
X6307Y395039D01*
X5515Y394216D01*
X5514Y394208D01*
X5508Y394207D01*
X4919Y393228D01*
X4920Y393220D01*
X4915Y393218D01*
X4559Y392133D01*
X4562Y392125D01*
X4557Y392122D01*
X4451Y390985D01*
X4455Y390978D01*
X4451Y390974D01*
X4596Y389886D01*
X4602Y389880D01*
X4599Y389875D01*
X4983Y388847D01*
X4989Y388842D01*
X4988Y388837D01*
X5590Y387920D01*
X5598Y387917D01*
X5597Y387911D01*
X6389Y387151D01*
X6397Y387150D01*
X6398Y387144D01*
X7339Y386580D01*
X7347Y386581D01*
X7349Y386575D01*
X8392Y386234D01*
X8400Y386236D01*
X8403Y386232D01*
X9496Y386131D01*
X9498Y386133D01*
X9500Y386131D01*
X15500Y386131D01*
X15503Y386133D01*
G37*
D10*
X243840Y160900D03*
X243840Y143900D03*
D11*
X110100Y88900D03*
X93100Y88900D03*
D12*
X60900Y14050D03*
X116900Y14050D03*
D13*
X73900Y50800D03*
X83900Y50800D03*
X93900Y50800D03*
X103900Y50800D03*
D14*
X615400Y10800D03*
X615400Y217800D03*
D15*
X683150Y204300D03*
X683150Y194300D03*
X683150Y189300D03*
X683150Y199300D03*
X683150Y184300D03*
X683150Y174300D03*
X683150Y169300D03*
X683150Y179300D03*
X683150Y164300D03*
X683150Y154300D03*
X683150Y149300D03*
X683150Y159300D03*
X683150Y144300D03*
X683150Y134300D03*
X683150Y129300D03*
X683150Y139300D03*
X683150Y124300D03*
X683150Y114300D03*
X683150Y109300D03*
X683150Y119300D03*
X683150Y104300D03*
X683150Y99300D03*
X683150Y74300D03*
X683150Y69300D03*
X683150Y64300D03*
X683150Y54300D03*
X683150Y49300D03*
X683150Y59300D03*
X683150Y44300D03*
X683150Y34300D03*
X683150Y29300D03*
X683150Y39300D03*
X683150Y24300D03*
X607650Y206800D03*
X607650Y196800D03*
X607650Y191800D03*
X607650Y201800D03*
X607650Y186800D03*
X607650Y176800D03*
X607650Y171800D03*
X607650Y181800D03*
X607650Y166800D03*
X607650Y156800D03*
X607650Y151800D03*
X607650Y161800D03*
X607650Y146800D03*
X607650Y136800D03*
X607650Y131800D03*
X607650Y141800D03*
X607650Y126800D03*
X607650Y116800D03*
X607650Y111800D03*
X607650Y121800D03*
X607650Y106800D03*
X607650Y101800D03*
X607650Y76800D03*
X607650Y71800D03*
X607650Y66800D03*
X607650Y56800D03*
X607650Y51800D03*
X607650Y61800D03*
X607650Y46800D03*
X607650Y36800D03*
X607650Y31800D03*
X607650Y41800D03*
X607650Y26800D03*
X607650Y21800D03*
D10*
X289560Y160900D03*
X289560Y143900D03*
X393700Y93100D03*
X393700Y110100D03*
X368300Y93100D03*
X368300Y110100D03*
X444500Y110100D03*
X444500Y93100D03*
D16*
X411600Y91413D03*
X416600Y111788D03*
X411600Y111788D03*
X421600Y111788D03*
X426600Y111788D03*
X416600Y91413D03*
X421600Y91413D03*
X426600Y91413D03*
D17*
X422500Y101600D03*
X415700Y101600D03*
D18*
X123800Y152701D03*
X114300Y152701D03*
X104800Y152701D03*
X104800Y126699D03*
X123800Y126699D03*
D10*
X304800Y160900D03*
X304800Y143900D03*
X274320Y160900D03*
X274320Y143900D03*
X259080Y143900D03*
X259080Y160900D03*
D19*
X330200Y101600D03*
D20*
X320450Y87850D03*
X326950Y87850D03*
X333450Y87850D03*
X339950Y87850D03*
X339950Y115350D03*
X333450Y115350D03*
X326950Y115350D03*
X320450Y115350D03*
D10*
X292100Y93100D03*
X292100Y110100D03*
X335280Y143900D03*
X335280Y160900D03*
X320040Y143900D03*
X320040Y160900D03*
D21*
X386270Y155900D02*
X386270Y148900D01*
X386270Y155900D02*
X393270Y155900D01*
X393270Y148900D01*
X386270Y148900D01*
X386270Y151750D02*
X393270Y151750D01*
X393270Y154600D02*
X386270Y154600D01*
X368730Y155900D02*
X368730Y148900D01*
X368730Y155900D02*
X375730Y155900D01*
X375730Y148900D01*
X368730Y148900D01*
X368730Y151750D02*
X375730Y151750D01*
X375730Y154600D02*
X368730Y154600D01*
X437070Y155900D02*
X437070Y148900D01*
X437070Y155900D02*
X444070Y155900D01*
X444070Y148900D01*
X437070Y148900D01*
X437070Y151750D02*
X444070Y151750D01*
X444070Y154600D02*
X437070Y154600D01*
X419530Y155900D02*
X419530Y148900D01*
X419530Y155900D02*
X426530Y155900D01*
X426530Y148900D01*
X419530Y148900D01*
X419530Y151750D02*
X426530Y151750D01*
X426530Y154600D02*
X419530Y154600D01*
D22*
X480060Y158750D03*
X535940Y158750D03*
X480060Y120650D03*
X535940Y120650D03*
D23*
X60100Y106800D03*
X60100Y111800D03*
D24*
X60100Y82050D03*
X60100Y89800D03*
D23*
X60100Y96800D03*
X60100Y101800D03*
X60100Y121800D03*
X60100Y116800D03*
D24*
X60100Y146550D03*
X60100Y138800D03*
D23*
X60100Y131800D03*
X60100Y126800D03*
D18*
X225400Y114601D03*
X215900Y114601D03*
X206400Y114601D03*
X206400Y88599D03*
X225400Y88599D03*
D10*
X228600Y160900D03*
X228600Y143900D03*
X271780Y110100D03*
X271780Y93100D03*
D21*
X260040Y96330D02*
X253040Y96330D01*
X260040Y96330D02*
X260040Y89330D01*
X253040Y89330D01*
X253040Y96330D01*
X253040Y92180D02*
X260040Y92180D01*
X260040Y95030D02*
X253040Y95030D01*
X253040Y113870D02*
X260040Y113870D01*
X260040Y106870D01*
X253040Y106870D01*
X253040Y113870D01*
X253040Y109720D02*
X260040Y109720D01*
X260040Y112570D02*
X253040Y112570D01*
D10*
X241300Y110100D03*
X241300Y93100D03*
D25*
X167800Y153500D03*
X187800Y153500D03*
D26*
X143800Y205500D03*
X211800Y205500D03*
D22*
X480060Y102870D03*
X535940Y102870D03*
X480060Y64770D03*
X535940Y64770D03*
D27*
X104140Y217240D03*
X104140Y194240D03*
X121920Y217240D03*
X121920Y194240D03*
D10*
X1188720Y160900D03*
X1188720Y143900D03*
D11*
X1054980Y88900D03*
X1037980Y88900D03*
D12*
X1005780Y14050D03*
X1061780Y14050D03*
D13*
X1018780Y50800D03*
X1028780Y50800D03*
X1038780Y50800D03*
X1048780Y50800D03*
D14*
X1560280Y10800D03*
X1560280Y217800D03*
D15*
X1628030Y204300D03*
X1628030Y194300D03*
X1628030Y189300D03*
X1628030Y199300D03*
X1628030Y184300D03*
X1628030Y174300D03*
X1628030Y169300D03*
X1628030Y179300D03*
X1628030Y164300D03*
X1628030Y154300D03*
X1628030Y149300D03*
X1628030Y159300D03*
X1628030Y144300D03*
X1628030Y134300D03*
X1628030Y129300D03*
X1628030Y139300D03*
X1628030Y124300D03*
X1628030Y114300D03*
X1628030Y109300D03*
X1628030Y119300D03*
X1628030Y104300D03*
X1628030Y99300D03*
X1628030Y74300D03*
X1628030Y69300D03*
X1628030Y64300D03*
X1628030Y54300D03*
X1628030Y49300D03*
X1628030Y59300D03*
X1628030Y44300D03*
X1628030Y34300D03*
X1628030Y29300D03*
X1628030Y39300D03*
X1628030Y24300D03*
X1552530Y206800D03*
X1552530Y196800D03*
X1552530Y191800D03*
X1552530Y201800D03*
X1552530Y186800D03*
X1552530Y176800D03*
X1552530Y171800D03*
X1552530Y181800D03*
X1552530Y166800D03*
X1552530Y156800D03*
X1552530Y151800D03*
X1552530Y161800D03*
X1552530Y146800D03*
X1552530Y136800D03*
X1552530Y131800D03*
X1552530Y141800D03*
X1552530Y126800D03*
X1552530Y116800D03*
X1552530Y111800D03*
X1552530Y121800D03*
X1552530Y106800D03*
X1552530Y101800D03*
X1552530Y76800D03*
X1552530Y71800D03*
X1552530Y66800D03*
X1552530Y56800D03*
X1552530Y51800D03*
X1552530Y61800D03*
X1552530Y46800D03*
X1552530Y36800D03*
X1552530Y31800D03*
X1552530Y41800D03*
X1552530Y26800D03*
X1552530Y21800D03*
D10*
X1234440Y160900D03*
X1234440Y143900D03*
X1338580Y93100D03*
X1338580Y110100D03*
X1313180Y93100D03*
X1313180Y110100D03*
X1389380Y110100D03*
X1389380Y93100D03*
D16*
X1356480Y91413D03*
X1361480Y111788D03*
X1356480Y111788D03*
X1366480Y111788D03*
X1371480Y111788D03*
X1361480Y91413D03*
X1366480Y91413D03*
X1371480Y91413D03*
D17*
X1367380Y101600D03*
X1360580Y101600D03*
D18*
X1068680Y152701D03*
X1059180Y152701D03*
X1049680Y152701D03*
X1049680Y126699D03*
X1068680Y126699D03*
D10*
X1249680Y160900D03*
X1249680Y143900D03*
X1219200Y160900D03*
X1219200Y143900D03*
X1203960Y143900D03*
X1203960Y160900D03*
D19*
X1275080Y101600D03*
D20*
X1265330Y87850D03*
X1271830Y87850D03*
X1278330Y87850D03*
X1284830Y87850D03*
X1284830Y115350D03*
X1278330Y115350D03*
X1271830Y115350D03*
X1265330Y115350D03*
D10*
X1236980Y93100D03*
X1236980Y110100D03*
X1280160Y143900D03*
X1280160Y160900D03*
X1264920Y143900D03*
X1264920Y160900D03*
D21*
X1331150Y155900D02*
X1331150Y148900D01*
X1331150Y155900D02*
X1338150Y155900D01*
X1338150Y148900D01*
X1331150Y148900D01*
X1331150Y151750D02*
X1338150Y151750D01*
X1338150Y154600D02*
X1331150Y154600D01*
X1313610Y155900D02*
X1313610Y148900D01*
X1313610Y155900D02*
X1320610Y155900D01*
X1320610Y148900D01*
X1313610Y148900D01*
X1313610Y151750D02*
X1320610Y151750D01*
X1320610Y154600D02*
X1313610Y154600D01*
X1381950Y155900D02*
X1381950Y148900D01*
X1381950Y155900D02*
X1388950Y155900D01*
X1388950Y148900D01*
X1381950Y148900D01*
X1381950Y151750D02*
X1388950Y151750D01*
X1388950Y154600D02*
X1381950Y154600D01*
X1364410Y155900D02*
X1364410Y148900D01*
X1364410Y155900D02*
X1371410Y155900D01*
X1371410Y148900D01*
X1364410Y148900D01*
X1364410Y151750D02*
X1371410Y151750D01*
X1371410Y154600D02*
X1364410Y154600D01*
D22*
X1424940Y158750D03*
X1480820Y158750D03*
X1424940Y120650D03*
X1480820Y120650D03*
D23*
X1004980Y106800D03*
X1004980Y111800D03*
D24*
X1004980Y82050D03*
X1004980Y89800D03*
D23*
X1004980Y96800D03*
X1004980Y101800D03*
X1004980Y121800D03*
X1004980Y116800D03*
D24*
X1004980Y146550D03*
X1004980Y138800D03*
D23*
X1004980Y131800D03*
X1004980Y126800D03*
D18*
X1170280Y114601D03*
X1160780Y114601D03*
X1151280Y114601D03*
X1151280Y88599D03*
X1170280Y88599D03*
D10*
X1173480Y160900D03*
X1173480Y143900D03*
X1216660Y110100D03*
X1216660Y93100D03*
D21*
X1204920Y96330D02*
X1197920Y96330D01*
X1204920Y96330D02*
X1204920Y89330D01*
X1197920Y89330D01*
X1197920Y96330D01*
X1197920Y92180D02*
X1204920Y92180D01*
X1204920Y95030D02*
X1197920Y95030D01*
X1197920Y113870D02*
X1204920Y113870D01*
X1204920Y106870D01*
X1197920Y106870D01*
X1197920Y113870D01*
X1197920Y109720D02*
X1204920Y109720D01*
X1204920Y112570D02*
X1197920Y112570D01*
D10*
X1186180Y110100D03*
X1186180Y93100D03*
D25*
X1112680Y153500D03*
X1132680Y153500D03*
D26*
X1088680Y205500D03*
X1156680Y205500D03*
D22*
X1424940Y102870D03*
X1480820Y102870D03*
X1424940Y64770D03*
X1480820Y64770D03*
D27*
X1049020Y217240D03*
X1049020Y194240D03*
X1066800Y217240D03*
X1066800Y194240D03*
D10*
X243840Y394580D03*
X243840Y377580D03*
D11*
X110100Y322580D03*
X93100Y322580D03*
D12*
X60900Y247730D03*
X116900Y247730D03*
D13*
X73900Y284480D03*
X83900Y284480D03*
X93900Y284480D03*
X103900Y284480D03*
D14*
X615400Y244480D03*
X615400Y451480D03*
D15*
X683150Y437980D03*
X683150Y427980D03*
X683150Y422980D03*
X683150Y432980D03*
X683150Y417980D03*
X683150Y407980D03*
X683150Y402980D03*
X683150Y412980D03*
X683150Y397980D03*
X683150Y387980D03*
X683150Y382980D03*
X683150Y392980D03*
X683150Y377980D03*
X683150Y367980D03*
X683150Y362980D03*
X683150Y372980D03*
X683150Y357980D03*
X683150Y347980D03*
X683150Y342980D03*
X683150Y352980D03*
X683150Y337980D03*
X683150Y332980D03*
X683150Y307980D03*
X683150Y302980D03*
X683150Y297980D03*
X683150Y287980D03*
X683150Y282980D03*
X683150Y292980D03*
X683150Y277980D03*
X683150Y267980D03*
X683150Y262980D03*
X683150Y272980D03*
X683150Y257980D03*
X607650Y440480D03*
X607650Y430480D03*
X607650Y425480D03*
X607650Y435480D03*
X607650Y420480D03*
X607650Y410480D03*
X607650Y405480D03*
X607650Y415480D03*
X607650Y400480D03*
X607650Y390480D03*
X607650Y385480D03*
X607650Y395480D03*
X607650Y380480D03*
X607650Y370480D03*
X607650Y365480D03*
X607650Y375480D03*
X607650Y360480D03*
X607650Y350480D03*
X607650Y345480D03*
X607650Y355480D03*
X607650Y340480D03*
X607650Y335480D03*
X607650Y310480D03*
X607650Y305480D03*
X607650Y300480D03*
X607650Y290480D03*
X607650Y285480D03*
X607650Y295480D03*
X607650Y280480D03*
X607650Y270480D03*
X607650Y265480D03*
X607650Y275480D03*
X607650Y260480D03*
X607650Y255480D03*
D10*
X289560Y394580D03*
X289560Y377580D03*
X393700Y326780D03*
X393700Y343780D03*
X368300Y326780D03*
X368300Y343780D03*
X444500Y343780D03*
X444500Y326780D03*
D16*
X411600Y325093D03*
X416600Y345468D03*
X411600Y345468D03*
X421600Y345468D03*
X426600Y345468D03*
X416600Y325093D03*
X421600Y325093D03*
X426600Y325093D03*
D17*
X422500Y335280D03*
X415700Y335280D03*
D18*
X123800Y386381D03*
X114300Y386381D03*
X104800Y386381D03*
X104800Y360379D03*
X123800Y360379D03*
D10*
X304800Y394580D03*
X304800Y377580D03*
X274320Y394580D03*
X274320Y377580D03*
X259080Y377580D03*
X259080Y394580D03*
D19*
X330200Y335280D03*
D20*
X320450Y321530D03*
X326950Y321530D03*
X333450Y321530D03*
X339950Y321530D03*
X339950Y349030D03*
X333450Y349030D03*
X326950Y349030D03*
X320450Y349030D03*
D10*
X292100Y326780D03*
X292100Y343780D03*
X335280Y377580D03*
X335280Y394580D03*
X320040Y377580D03*
X320040Y394580D03*
D21*
X386270Y389580D02*
X386270Y382580D01*
X386270Y389580D02*
X393270Y389580D01*
X393270Y382580D01*
X386270Y382580D01*
X386270Y385430D02*
X393270Y385430D01*
X393270Y388280D02*
X386270Y388280D01*
X368730Y389580D02*
X368730Y382580D01*
X368730Y389580D02*
X375730Y389580D01*
X375730Y382580D01*
X368730Y382580D01*
X368730Y385430D02*
X375730Y385430D01*
X375730Y388280D02*
X368730Y388280D01*
X437070Y389580D02*
X437070Y382580D01*
X437070Y389580D02*
X444070Y389580D01*
X444070Y382580D01*
X437070Y382580D01*
X437070Y385430D02*
X444070Y385430D01*
X444070Y388280D02*
X437070Y388280D01*
X419530Y389580D02*
X419530Y382580D01*
X419530Y389580D02*
X426530Y389580D01*
X426530Y382580D01*
X419530Y382580D01*
X419530Y385430D02*
X426530Y385430D01*
X426530Y388280D02*
X419530Y388280D01*
D22*
X480060Y392430D03*
X535940Y392430D03*
X480060Y354330D03*
X535940Y354330D03*
D23*
X60100Y340480D03*
X60100Y345480D03*
D24*
X60100Y315730D03*
X60100Y323480D03*
D23*
X60100Y330480D03*
X60100Y335480D03*
X60100Y355480D03*
X60100Y350480D03*
D24*
X60100Y380230D03*
X60100Y372480D03*
D23*
X60100Y365480D03*
X60100Y360480D03*
D18*
X225400Y348281D03*
X215900Y348281D03*
X206400Y348281D03*
X206400Y322279D03*
X225400Y322279D03*
D10*
X228600Y394580D03*
X228600Y377580D03*
X271780Y343780D03*
X271780Y326780D03*
D21*
X260040Y330010D02*
X253040Y330010D01*
X260040Y330010D02*
X260040Y323010D01*
X253040Y323010D01*
X253040Y330010D01*
X253040Y325860D02*
X260040Y325860D01*
X260040Y328710D02*
X253040Y328710D01*
X253040Y347550D02*
X260040Y347550D01*
X260040Y340550D01*
X253040Y340550D01*
X253040Y347550D01*
X253040Y343400D02*
X260040Y343400D01*
X260040Y346250D02*
X253040Y346250D01*
D10*
X241300Y343780D03*
X241300Y326780D03*
D25*
X167800Y387180D03*
X187800Y387180D03*
D26*
X143800Y439180D03*
X211800Y439180D03*
D22*
X480060Y336550D03*
X535940Y336550D03*
X480060Y298450D03*
X535940Y298450D03*
D27*
X104140Y450920D03*
X104140Y427920D03*
X121920Y450920D03*
X121920Y427920D03*
D10*
X1188720Y394580D03*
X1188720Y377580D03*
D11*
X1054980Y322580D03*
X1037980Y322580D03*
D12*
X1005780Y247730D03*
X1061780Y247730D03*
D13*
X1018780Y284480D03*
X1028780Y284480D03*
X1038780Y284480D03*
X1048780Y284480D03*
D14*
X1560280Y244480D03*
X1560280Y451480D03*
D15*
X1628030Y437980D03*
X1628030Y427980D03*
X1628030Y422980D03*
X1628030Y432980D03*
X1628030Y417980D03*
X1628030Y407980D03*
X1628030Y402980D03*
X1628030Y412980D03*
X1628030Y397980D03*
X1628030Y387980D03*
X1628030Y382980D03*
X1628030Y392980D03*
X1628030Y377980D03*
X1628030Y367980D03*
X1628030Y362980D03*
X1628030Y372980D03*
X1628030Y357980D03*
X1628030Y347980D03*
X1628030Y342980D03*
X1628030Y352980D03*
X1628030Y337980D03*
X1628030Y332980D03*
X1628030Y307980D03*
X1628030Y302980D03*
X1628030Y297980D03*
X1628030Y287980D03*
X1628030Y282980D03*
X1628030Y292980D03*
X1628030Y277980D03*
X1628030Y267980D03*
X1628030Y262980D03*
X1628030Y272980D03*
X1628030Y257980D03*
X1552530Y440480D03*
X1552530Y430480D03*
X1552530Y425480D03*
X1552530Y435480D03*
X1552530Y420480D03*
X1552530Y410480D03*
X1552530Y405480D03*
X1552530Y415480D03*
X1552530Y400480D03*
X1552530Y390480D03*
X1552530Y385480D03*
X1552530Y395480D03*
X1552530Y380480D03*
X1552530Y370480D03*
X1552530Y365480D03*
X1552530Y375480D03*
X1552530Y360480D03*
X1552530Y350480D03*
X1552530Y345480D03*
X1552530Y355480D03*
X1552530Y340480D03*
X1552530Y335480D03*
X1552530Y310480D03*
X1552530Y305480D03*
X1552530Y300480D03*
X1552530Y290480D03*
X1552530Y285480D03*
X1552530Y295480D03*
X1552530Y280480D03*
X1552530Y270480D03*
X1552530Y265480D03*
X1552530Y275480D03*
X1552530Y260480D03*
X1552530Y255480D03*
D10*
X1234440Y394580D03*
X1234440Y377580D03*
X1338580Y326780D03*
X1338580Y343780D03*
X1313180Y326780D03*
X1313180Y343780D03*
X1389380Y343780D03*
X1389380Y326780D03*
D16*
X1356480Y325093D03*
X1361480Y345468D03*
X1356480Y345468D03*
X1366480Y345468D03*
X1371480Y345468D03*
X1361480Y325093D03*
X1366480Y325093D03*
X1371480Y325093D03*
D17*
X1367380Y335280D03*
X1360580Y335280D03*
D18*
X1068680Y386381D03*
X1059180Y386381D03*
X1049680Y386381D03*
X1049680Y360379D03*
X1068680Y360379D03*
D10*
X1249680Y394580D03*
X1249680Y377580D03*
X1219200Y394580D03*
X1219200Y377580D03*
X1203960Y377580D03*
X1203960Y394580D03*
D19*
X1275080Y335280D03*
D20*
X1265330Y321530D03*
X1271830Y321530D03*
X1278330Y321530D03*
X1284830Y321530D03*
X1284830Y349030D03*
X1278330Y349030D03*
X1271830Y349030D03*
X1265330Y349030D03*
D10*
X1236980Y326780D03*
X1236980Y343780D03*
X1280160Y377580D03*
X1280160Y394580D03*
X1264920Y377580D03*
X1264920Y394580D03*
D21*
X1331150Y389580D02*
X1331150Y382580D01*
X1331150Y389580D02*
X1338150Y389580D01*
X1338150Y382580D01*
X1331150Y382580D01*
X1331150Y385430D02*
X1338150Y385430D01*
X1338150Y388280D02*
X1331150Y388280D01*
X1313610Y389580D02*
X1313610Y382580D01*
X1313610Y389580D02*
X1320610Y389580D01*
X1320610Y382580D01*
X1313610Y382580D01*
X1313610Y385430D02*
X1320610Y385430D01*
X1320610Y388280D02*
X1313610Y388280D01*
X1381950Y389580D02*
X1381950Y382580D01*
X1381950Y389580D02*
X1388950Y389580D01*
X1388950Y382580D01*
X1381950Y382580D01*
X1381950Y385430D02*
X1388950Y385430D01*
X1388950Y388280D02*
X1381950Y388280D01*
X1364410Y389580D02*
X1364410Y382580D01*
X1364410Y389580D02*
X1371410Y389580D01*
X1371410Y382580D01*
X1364410Y382580D01*
X1364410Y385430D02*
X1371410Y385430D01*
X1371410Y388280D02*
X1364410Y388280D01*
D22*
X1424940Y392430D03*
X1480820Y392430D03*
X1424940Y354330D03*
X1480820Y354330D03*
D23*
X1004980Y340480D03*
X1004980Y345480D03*
D24*
X1004980Y315730D03*
X1004980Y323480D03*
D23*
X1004980Y330480D03*
X1004980Y335480D03*
X1004980Y355480D03*
X1004980Y350480D03*
D24*
X1004980Y380230D03*
X1004980Y372480D03*
D23*
X1004980Y365480D03*
X1004980Y360480D03*
D18*
X1170280Y348281D03*
X1160780Y348281D03*
X1151280Y348281D03*
X1151280Y322279D03*
X1170280Y322279D03*
D10*
X1173480Y394580D03*
X1173480Y377580D03*
X1216660Y343780D03*
X1216660Y326780D03*
D21*
X1204920Y330010D02*
X1197920Y330010D01*
X1204920Y330010D02*
X1204920Y323010D01*
X1197920Y323010D01*
X1197920Y330010D01*
X1197920Y325860D02*
X1204920Y325860D01*
X1204920Y328710D02*
X1197920Y328710D01*
X1197920Y347550D02*
X1204920Y347550D01*
X1204920Y340550D01*
X1197920Y340550D01*
X1197920Y347550D01*
X1197920Y343400D02*
X1204920Y343400D01*
X1204920Y346250D02*
X1197920Y346250D01*
D10*
X1186180Y343780D03*
X1186180Y326780D03*
D25*
X1112680Y387180D03*
X1132680Y387180D03*
D26*
X1088680Y439180D03*
X1156680Y439180D03*
D22*
X1424940Y336550D03*
X1480820Y336550D03*
X1424940Y298450D03*
X1480820Y298450D03*
D27*
X1049020Y450920D03*
X1049020Y427920D03*
X1066800Y450920D03*
X1066800Y427920D03*
D10*
X243840Y628260D03*
X243840Y611260D03*
D11*
X110100Y556260D03*
X93100Y556260D03*
D12*
X60900Y481410D03*
X116900Y481410D03*
D13*
X73900Y518160D03*
X83900Y518160D03*
X93900Y518160D03*
X103900Y518160D03*
D14*
X615400Y478160D03*
X615400Y685160D03*
D15*
X683150Y671660D03*
X683150Y661660D03*
X683150Y656660D03*
X683150Y666660D03*
X683150Y651660D03*
X683150Y641660D03*
X683150Y636660D03*
X683150Y646660D03*
X683150Y631660D03*
X683150Y621660D03*
X683150Y616660D03*
X683150Y626660D03*
X683150Y611660D03*
X683150Y601660D03*
X683150Y596660D03*
X683150Y606660D03*
X683150Y591660D03*
X683150Y581660D03*
X683150Y576660D03*
X683150Y586660D03*
X683150Y571660D03*
X683150Y566660D03*
X683150Y541660D03*
X683150Y536660D03*
X683150Y531660D03*
X683150Y521660D03*
X683150Y516660D03*
X683150Y526660D03*
X683150Y511660D03*
X683150Y501660D03*
X683150Y496660D03*
X683150Y506660D03*
X683150Y491660D03*
X607650Y674160D03*
X607650Y664160D03*
X607650Y659160D03*
X607650Y669160D03*
X607650Y654160D03*
X607650Y644160D03*
X607650Y639160D03*
X607650Y649160D03*
X607650Y634160D03*
X607650Y624160D03*
X607650Y619160D03*
X607650Y629160D03*
X607650Y614160D03*
X607650Y604160D03*
X607650Y599160D03*
X607650Y609160D03*
X607650Y594160D03*
X607650Y584160D03*
X607650Y579160D03*
X607650Y589160D03*
X607650Y574160D03*
X607650Y569160D03*
X607650Y544160D03*
X607650Y539160D03*
X607650Y534160D03*
X607650Y524160D03*
X607650Y519160D03*
X607650Y529160D03*
X607650Y514160D03*
X607650Y504160D03*
X607650Y499160D03*
X607650Y509160D03*
X607650Y494160D03*
X607650Y489160D03*
D10*
X289560Y628260D03*
X289560Y611260D03*
X393700Y560460D03*
X393700Y577460D03*
X368300Y560460D03*
X368300Y577460D03*
X444500Y577460D03*
X444500Y560460D03*
D16*
X411600Y558773D03*
X416600Y579148D03*
X411600Y579148D03*
X421600Y579148D03*
X426600Y579148D03*
X416600Y558773D03*
X421600Y558773D03*
X426600Y558773D03*
D17*
X422500Y568960D03*
X415700Y568960D03*
D18*
X123800Y620061D03*
X114300Y620061D03*
X104800Y620061D03*
X104800Y594059D03*
X123800Y594059D03*
D10*
X304800Y628260D03*
X304800Y611260D03*
X274320Y628260D03*
X274320Y611260D03*
X259080Y611260D03*
X259080Y628260D03*
D19*
X330200Y568960D03*
D20*
X320450Y555210D03*
X326950Y555210D03*
X333450Y555210D03*
X339950Y555210D03*
X339950Y582710D03*
X333450Y582710D03*
X326950Y582710D03*
X320450Y582710D03*
D10*
X292100Y560460D03*
X292100Y577460D03*
X335280Y611260D03*
X335280Y628260D03*
X320040Y611260D03*
X320040Y628260D03*
D21*
X386270Y623260D02*
X386270Y616260D01*
X386270Y623260D02*
X393270Y623260D01*
X393270Y616260D01*
X386270Y616260D01*
X386270Y619110D02*
X393270Y619110D01*
X393270Y621960D02*
X386270Y621960D01*
X368730Y623260D02*
X368730Y616260D01*
X368730Y623260D02*
X375730Y623260D01*
X375730Y616260D01*
X368730Y616260D01*
X368730Y619110D02*
X375730Y619110D01*
X375730Y621960D02*
X368730Y621960D01*
X437070Y623260D02*
X437070Y616260D01*
X437070Y623260D02*
X444070Y623260D01*
X444070Y616260D01*
X437070Y616260D01*
X437070Y619110D02*
X444070Y619110D01*
X444070Y621960D02*
X437070Y621960D01*
X419530Y623260D02*
X419530Y616260D01*
X419530Y623260D02*
X426530Y623260D01*
X426530Y616260D01*
X419530Y616260D01*
X419530Y619110D02*
X426530Y619110D01*
X426530Y621960D02*
X419530Y621960D01*
D22*
X480060Y626110D03*
X535940Y626110D03*
X480060Y588010D03*
X535940Y588010D03*
D23*
X60100Y574160D03*
X60100Y579160D03*
D24*
X60100Y549410D03*
X60100Y557160D03*
D23*
X60100Y564160D03*
X60100Y569160D03*
X60100Y589160D03*
X60100Y584160D03*
D24*
X60100Y613910D03*
X60100Y606160D03*
D23*
X60100Y599160D03*
X60100Y594160D03*
D18*
X225400Y581961D03*
X215900Y581961D03*
X206400Y581961D03*
X206400Y555959D03*
X225400Y555959D03*
D10*
X228600Y628260D03*
X228600Y611260D03*
X271780Y577460D03*
X271780Y560460D03*
D21*
X260040Y563690D02*
X253040Y563690D01*
X260040Y563690D02*
X260040Y556690D01*
X253040Y556690D01*
X253040Y563690D01*
X253040Y559540D02*
X260040Y559540D01*
X260040Y562390D02*
X253040Y562390D01*
X253040Y581230D02*
X260040Y581230D01*
X260040Y574230D01*
X253040Y574230D01*
X253040Y581230D01*
X253040Y577080D02*
X260040Y577080D01*
X260040Y579930D02*
X253040Y579930D01*
D10*
X241300Y577460D03*
X241300Y560460D03*
D25*
X167800Y620860D03*
X187800Y620860D03*
D26*
X143800Y672860D03*
X211800Y672860D03*
D22*
X480060Y570230D03*
X535940Y570230D03*
X480060Y532130D03*
X535940Y532130D03*
D27*
X104140Y684600D03*
X104140Y661600D03*
X121920Y684600D03*
X121920Y661600D03*
D10*
X1188720Y628260D03*
X1188720Y611260D03*
D11*
X1054980Y556260D03*
X1037980Y556260D03*
D12*
X1005780Y481410D03*
X1061780Y481410D03*
D13*
X1018780Y518160D03*
X1028780Y518160D03*
X1038780Y518160D03*
X1048780Y518160D03*
D14*
X1560280Y478160D03*
X1560280Y685160D03*
D15*
X1628030Y671660D03*
X1628030Y661660D03*
X1628030Y656660D03*
X1628030Y666660D03*
X1628030Y651660D03*
X1628030Y641660D03*
X1628030Y636660D03*
X1628030Y646660D03*
X1628030Y631660D03*
X1628030Y621660D03*
X1628030Y616660D03*
X1628030Y626660D03*
X1628030Y611660D03*
X1628030Y601660D03*
X1628030Y596660D03*
X1628030Y606660D03*
X1628030Y591660D03*
X1628030Y581660D03*
X1628030Y576660D03*
X1628030Y586660D03*
X1628030Y571660D03*
X1628030Y566660D03*
X1628030Y541660D03*
X1628030Y536660D03*
X1628030Y531660D03*
X1628030Y521660D03*
X1628030Y516660D03*
X1628030Y526660D03*
X1628030Y511660D03*
X1628030Y501660D03*
X1628030Y496660D03*
X1628030Y506660D03*
X1628030Y491660D03*
X1552530Y674160D03*
X1552530Y664160D03*
X1552530Y659160D03*
X1552530Y669160D03*
X1552530Y654160D03*
X1552530Y644160D03*
X1552530Y639160D03*
X1552530Y649160D03*
X1552530Y634160D03*
X1552530Y624160D03*
X1552530Y619160D03*
X1552530Y629160D03*
X1552530Y614160D03*
X1552530Y604160D03*
X1552530Y599160D03*
X1552530Y609160D03*
X1552530Y594160D03*
X1552530Y584160D03*
X1552530Y579160D03*
X1552530Y589160D03*
X1552530Y574160D03*
X1552530Y569160D03*
X1552530Y544160D03*
X1552530Y539160D03*
X1552530Y534160D03*
X1552530Y524160D03*
X1552530Y519160D03*
X1552530Y529160D03*
X1552530Y514160D03*
X1552530Y504160D03*
X1552530Y499160D03*
X1552530Y509160D03*
X1552530Y494160D03*
X1552530Y489160D03*
D10*
X1234440Y628260D03*
X1234440Y611260D03*
X1338580Y560460D03*
X1338580Y577460D03*
X1313180Y560460D03*
X1313180Y577460D03*
X1389380Y577460D03*
X1389380Y560460D03*
D16*
X1356480Y558773D03*
X1361480Y579148D03*
X1356480Y579148D03*
X1366480Y579148D03*
X1371480Y579148D03*
X1361480Y558773D03*
X1366480Y558773D03*
X1371480Y558773D03*
D17*
X1367380Y568960D03*
X1360580Y568960D03*
D18*
X1068680Y620061D03*
X1059180Y620061D03*
X1049680Y620061D03*
X1049680Y594059D03*
X1068680Y594059D03*
D10*
X1249680Y628260D03*
X1249680Y611260D03*
X1219200Y628260D03*
X1219200Y611260D03*
X1203960Y611260D03*
X1203960Y628260D03*
D19*
X1275080Y568960D03*
D20*
X1265330Y555210D03*
X1271830Y555210D03*
X1278330Y555210D03*
X1284830Y555210D03*
X1284830Y582710D03*
X1278330Y582710D03*
X1271830Y582710D03*
X1265330Y582710D03*
D10*
X1236980Y560460D03*
X1236980Y577460D03*
X1280160Y611260D03*
X1280160Y628260D03*
X1264920Y611260D03*
X1264920Y628260D03*
D21*
X1331150Y623260D02*
X1331150Y616260D01*
X1331150Y623260D02*
X1338150Y623260D01*
X1338150Y616260D01*
X1331150Y616260D01*
X1331150Y619110D02*
X1338150Y619110D01*
X1338150Y621960D02*
X1331150Y621960D01*
X1313610Y623260D02*
X1313610Y616260D01*
X1313610Y623260D02*
X1320610Y623260D01*
X1320610Y616260D01*
X1313610Y616260D01*
X1313610Y619110D02*
X1320610Y619110D01*
X1320610Y621960D02*
X1313610Y621960D01*
X1381950Y623260D02*
X1381950Y616260D01*
X1381950Y623260D02*
X1388950Y623260D01*
X1388950Y616260D01*
X1381950Y616260D01*
X1381950Y619110D02*
X1388950Y619110D01*
X1388950Y621960D02*
X1381950Y621960D01*
X1364410Y623260D02*
X1364410Y616260D01*
X1364410Y623260D02*
X1371410Y623260D01*
X1371410Y616260D01*
X1364410Y616260D01*
X1364410Y619110D02*
X1371410Y619110D01*
X1371410Y621960D02*
X1364410Y621960D01*
D22*
X1424940Y626110D03*
X1480820Y626110D03*
X1424940Y588010D03*
X1480820Y588010D03*
D23*
X1004980Y574160D03*
X1004980Y579160D03*
D24*
X1004980Y549410D03*
X1004980Y557160D03*
D23*
X1004980Y564160D03*
X1004980Y569160D03*
X1004980Y589160D03*
X1004980Y584160D03*
D24*
X1004980Y613910D03*
X1004980Y606160D03*
D23*
X1004980Y599160D03*
X1004980Y594160D03*
D18*
X1170280Y581961D03*
X1160780Y581961D03*
X1151280Y581961D03*
X1151280Y555959D03*
X1170280Y555959D03*
D10*
X1173480Y628260D03*
X1173480Y611260D03*
X1216660Y577460D03*
X1216660Y560460D03*
D21*
X1204920Y563690D02*
X1197920Y563690D01*
X1204920Y563690D02*
X1204920Y556690D01*
X1197920Y556690D01*
X1197920Y563690D01*
X1197920Y559540D02*
X1204920Y559540D01*
X1204920Y562390D02*
X1197920Y562390D01*
X1197920Y581230D02*
X1204920Y581230D01*
X1204920Y574230D01*
X1197920Y574230D01*
X1197920Y581230D01*
X1197920Y577080D02*
X1204920Y577080D01*
X1204920Y579930D02*
X1197920Y579930D01*
D10*
X1186180Y577460D03*
X1186180Y560460D03*
D25*
X1112680Y620860D03*
X1132680Y620860D03*
D26*
X1088680Y672860D03*
X1156680Y672860D03*
D22*
X1424940Y570230D03*
X1480820Y570230D03*
X1424940Y532130D03*
X1480820Y532130D03*
D27*
X1049020Y684600D03*
X1049020Y661600D03*
X1066800Y684600D03*
X1066800Y661600D03*
D10*
X243840Y861940D03*
X243840Y844940D03*
D11*
X110100Y789940D03*
X93100Y789940D03*
D12*
X60900Y715090D03*
X116900Y715090D03*
D13*
X73900Y751840D03*
X83900Y751840D03*
X93900Y751840D03*
X103900Y751840D03*
D14*
X615400Y711840D03*
X615400Y918840D03*
D15*
X683150Y905340D03*
X683150Y895340D03*
X683150Y890340D03*
X683150Y900340D03*
X683150Y885340D03*
X683150Y875340D03*
X683150Y870340D03*
X683150Y880340D03*
X683150Y865340D03*
X683150Y855340D03*
X683150Y850340D03*
X683150Y860340D03*
X683150Y845340D03*
X683150Y835340D03*
X683150Y830340D03*
X683150Y840340D03*
X683150Y825340D03*
X683150Y815340D03*
X683150Y810340D03*
X683150Y820340D03*
X683150Y805340D03*
X683150Y800340D03*
X683150Y775340D03*
X683150Y770340D03*
X683150Y765340D03*
X683150Y755340D03*
X683150Y750340D03*
X683150Y760340D03*
X683150Y745340D03*
X683150Y735340D03*
X683150Y730340D03*
X683150Y740340D03*
X683150Y725340D03*
X607650Y907840D03*
X607650Y897840D03*
X607650Y892840D03*
X607650Y902840D03*
X607650Y887840D03*
X607650Y877840D03*
X607650Y872840D03*
X607650Y882840D03*
X607650Y867840D03*
X607650Y857840D03*
X607650Y852840D03*
X607650Y862840D03*
X607650Y847840D03*
X607650Y837840D03*
X607650Y832840D03*
X607650Y842840D03*
X607650Y827840D03*
X607650Y817840D03*
X607650Y812840D03*
X607650Y822840D03*
X607650Y807840D03*
X607650Y802840D03*
X607650Y777840D03*
X607650Y772840D03*
X607650Y767840D03*
X607650Y757840D03*
X607650Y752840D03*
X607650Y762840D03*
X607650Y747840D03*
X607650Y737840D03*
X607650Y732840D03*
X607650Y742840D03*
X607650Y727840D03*
X607650Y722840D03*
D10*
X289560Y861940D03*
X289560Y844940D03*
X393700Y794140D03*
X393700Y811140D03*
X368300Y794140D03*
X368300Y811140D03*
X444500Y811140D03*
X444500Y794140D03*
D16*
X411600Y792453D03*
X416600Y812828D03*
X411600Y812828D03*
X421600Y812828D03*
X426600Y812828D03*
X416600Y792453D03*
X421600Y792453D03*
X426600Y792453D03*
D17*
X422500Y802640D03*
X415700Y802640D03*
D18*
X123800Y853741D03*
X114300Y853741D03*
X104800Y853741D03*
X104800Y827739D03*
X123800Y827739D03*
D10*
X304800Y861940D03*
X304800Y844940D03*
X274320Y861940D03*
X274320Y844940D03*
X259080Y844940D03*
X259080Y861940D03*
D19*
X330200Y802640D03*
D20*
X320450Y788890D03*
X326950Y788890D03*
X333450Y788890D03*
X339950Y788890D03*
X339950Y816390D03*
X333450Y816390D03*
X326950Y816390D03*
X320450Y816390D03*
D10*
X292100Y794140D03*
X292100Y811140D03*
X335280Y844940D03*
X335280Y861940D03*
X320040Y844940D03*
X320040Y861940D03*
D21*
X386270Y856940D02*
X386270Y849940D01*
X386270Y856940D02*
X393270Y856940D01*
X393270Y849940D01*
X386270Y849940D01*
X386270Y852790D02*
X393270Y852790D01*
X393270Y855640D02*
X386270Y855640D01*
X368730Y856940D02*
X368730Y849940D01*
X368730Y856940D02*
X375730Y856940D01*
X375730Y849940D01*
X368730Y849940D01*
X368730Y852790D02*
X375730Y852790D01*
X375730Y855640D02*
X368730Y855640D01*
X437070Y856940D02*
X437070Y849940D01*
X437070Y856940D02*
X444070Y856940D01*
X444070Y849940D01*
X437070Y849940D01*
X437070Y852790D02*
X444070Y852790D01*
X444070Y855640D02*
X437070Y855640D01*
X419530Y856940D02*
X419530Y849940D01*
X419530Y856940D02*
X426530Y856940D01*
X426530Y849940D01*
X419530Y849940D01*
X419530Y852790D02*
X426530Y852790D01*
X426530Y855640D02*
X419530Y855640D01*
D22*
X480060Y859790D03*
X535940Y859790D03*
X480060Y821690D03*
X535940Y821690D03*
D23*
X60100Y807840D03*
X60100Y812840D03*
D24*
X60100Y783090D03*
X60100Y790840D03*
D23*
X60100Y797840D03*
X60100Y802840D03*
X60100Y822840D03*
X60100Y817840D03*
D24*
X60100Y847590D03*
X60100Y839840D03*
D23*
X60100Y832840D03*
X60100Y827840D03*
D18*
X225400Y815641D03*
X215900Y815641D03*
X206400Y815641D03*
X206400Y789639D03*
X225400Y789639D03*
D10*
X228600Y861940D03*
X228600Y844940D03*
X271780Y811140D03*
X271780Y794140D03*
D21*
X260040Y797370D02*
X253040Y797370D01*
X260040Y797370D02*
X260040Y790370D01*
X253040Y790370D01*
X253040Y797370D01*
X253040Y793220D02*
X260040Y793220D01*
X260040Y796070D02*
X253040Y796070D01*
X253040Y814910D02*
X260040Y814910D01*
X260040Y807910D01*
X253040Y807910D01*
X253040Y814910D01*
X253040Y810760D02*
X260040Y810760D01*
X260040Y813610D02*
X253040Y813610D01*
D10*
X241300Y811140D03*
X241300Y794140D03*
D25*
X167800Y854540D03*
X187800Y854540D03*
D26*
X143800Y906540D03*
X211800Y906540D03*
D22*
X480060Y803910D03*
X535940Y803910D03*
X480060Y765810D03*
X535940Y765810D03*
D27*
X104140Y918280D03*
X104140Y895280D03*
X121920Y918280D03*
X121920Y895280D03*
D10*
X1188720Y861940D03*
X1188720Y844940D03*
D11*
X1054980Y789940D03*
X1037980Y789940D03*
D12*
X1005780Y715090D03*
X1061780Y715090D03*
D13*
X1018780Y751840D03*
X1028780Y751840D03*
X1038780Y751840D03*
X1048780Y751840D03*
D14*
X1560280Y711840D03*
X1560280Y918840D03*
D15*
X1628030Y905340D03*
X1628030Y895340D03*
X1628030Y890340D03*
X1628030Y900340D03*
X1628030Y885340D03*
X1628030Y875340D03*
X1628030Y870340D03*
X1628030Y880340D03*
X1628030Y865340D03*
X1628030Y855340D03*
X1628030Y850340D03*
X1628030Y860340D03*
X1628030Y845340D03*
X1628030Y835340D03*
X1628030Y830340D03*
X1628030Y840340D03*
X1628030Y825340D03*
X1628030Y815340D03*
X1628030Y810340D03*
X1628030Y820340D03*
X1628030Y805340D03*
X1628030Y800340D03*
X1628030Y775340D03*
X1628030Y770340D03*
X1628030Y765340D03*
X1628030Y755340D03*
X1628030Y750340D03*
X1628030Y760340D03*
X1628030Y745340D03*
X1628030Y735340D03*
X1628030Y730340D03*
X1628030Y740340D03*
X1628030Y725340D03*
X1552530Y907840D03*
X1552530Y897840D03*
X1552530Y892840D03*
X1552530Y902840D03*
X1552530Y887840D03*
X1552530Y877840D03*
X1552530Y872840D03*
X1552530Y882840D03*
X1552530Y867840D03*
X1552530Y857840D03*
X1552530Y852840D03*
X1552530Y862840D03*
X1552530Y847840D03*
X1552530Y837840D03*
X1552530Y832840D03*
X1552530Y842840D03*
X1552530Y827840D03*
X1552530Y817840D03*
X1552530Y812840D03*
X1552530Y822840D03*
X1552530Y807840D03*
X1552530Y802840D03*
X1552530Y777840D03*
X1552530Y772840D03*
X1552530Y767840D03*
X1552530Y757840D03*
X1552530Y752840D03*
X1552530Y762840D03*
X1552530Y747840D03*
X1552530Y737840D03*
X1552530Y732840D03*
X1552530Y742840D03*
X1552530Y727840D03*
X1552530Y722840D03*
D10*
X1234440Y861940D03*
X1234440Y844940D03*
X1338580Y794140D03*
X1338580Y811140D03*
X1313180Y794140D03*
X1313180Y811140D03*
X1389380Y811140D03*
X1389380Y794140D03*
D16*
X1356480Y792453D03*
X1361480Y812828D03*
X1356480Y812828D03*
X1366480Y812828D03*
X1371480Y812828D03*
X1361480Y792453D03*
X1366480Y792453D03*
X1371480Y792453D03*
D17*
X1367380Y802640D03*
X1360580Y802640D03*
D18*
X1068680Y853741D03*
X1059180Y853741D03*
X1049680Y853741D03*
X1049680Y827739D03*
X1068680Y827739D03*
D10*
X1249680Y861940D03*
X1249680Y844940D03*
X1219200Y861940D03*
X1219200Y844940D03*
X1203960Y844940D03*
X1203960Y861940D03*
D19*
X1275080Y802640D03*
D20*
X1265330Y788890D03*
X1271830Y788890D03*
X1278330Y788890D03*
X1284830Y788890D03*
X1284830Y816390D03*
X1278330Y816390D03*
X1271830Y816390D03*
X1265330Y816390D03*
D10*
X1236980Y794140D03*
X1236980Y811140D03*
X1280160Y844940D03*
X1280160Y861940D03*
X1264920Y844940D03*
X1264920Y861940D03*
D21*
X1331150Y856940D02*
X1331150Y849940D01*
X1331150Y856940D02*
X1338150Y856940D01*
X1338150Y849940D01*
X1331150Y849940D01*
X1331150Y852790D02*
X1338150Y852790D01*
X1338150Y855640D02*
X1331150Y855640D01*
X1313610Y856940D02*
X1313610Y849940D01*
X1313610Y856940D02*
X1320610Y856940D01*
X1320610Y849940D01*
X1313610Y849940D01*
X1313610Y852790D02*
X1320610Y852790D01*
X1320610Y855640D02*
X1313610Y855640D01*
X1381950Y856940D02*
X1381950Y849940D01*
X1381950Y856940D02*
X1388950Y856940D01*
X1388950Y849940D01*
X1381950Y849940D01*
X1381950Y852790D02*
X1388950Y852790D01*
X1388950Y855640D02*
X1381950Y855640D01*
X1364410Y856940D02*
X1364410Y849940D01*
X1364410Y856940D02*
X1371410Y856940D01*
X1371410Y849940D01*
X1364410Y849940D01*
X1364410Y852790D02*
X1371410Y852790D01*
X1371410Y855640D02*
X1364410Y855640D01*
D22*
X1424940Y859790D03*
X1480820Y859790D03*
X1424940Y821690D03*
X1480820Y821690D03*
D23*
X1004980Y807840D03*
X1004980Y812840D03*
D24*
X1004980Y783090D03*
X1004980Y790840D03*
D23*
X1004980Y797840D03*
X1004980Y802840D03*
X1004980Y822840D03*
X1004980Y817840D03*
D24*
X1004980Y847590D03*
X1004980Y839840D03*
D23*
X1004980Y832840D03*
X1004980Y827840D03*
D18*
X1170280Y815641D03*
X1160780Y815641D03*
X1151280Y815641D03*
X1151280Y789639D03*
X1170280Y789639D03*
D10*
X1173480Y861940D03*
X1173480Y844940D03*
X1216660Y811140D03*
X1216660Y794140D03*
D21*
X1204920Y797370D02*
X1197920Y797370D01*
X1204920Y797370D02*
X1204920Y790370D01*
X1197920Y790370D01*
X1197920Y797370D01*
X1197920Y793220D02*
X1204920Y793220D01*
X1204920Y796070D02*
X1197920Y796070D01*
X1197920Y814910D02*
X1204920Y814910D01*
X1204920Y807910D01*
X1197920Y807910D01*
X1197920Y814910D01*
X1197920Y810760D02*
X1204920Y810760D01*
X1204920Y813610D02*
X1197920Y813610D01*
D10*
X1186180Y811140D03*
X1186180Y794140D03*
D25*
X1112680Y854540D03*
X1132680Y854540D03*
D26*
X1088680Y906540D03*
X1156680Y906540D03*
D22*
X1424940Y803910D03*
X1480820Y803910D03*
X1424940Y765810D03*
X1480820Y765810D03*
D27*
X1049020Y918280D03*
X1049020Y895280D03*
X1066800Y918280D03*
X1066800Y895280D03*
D10*
X243840Y1095620D03*
X243840Y1078620D03*
D11*
X110100Y1023620D03*
X93100Y1023620D03*
D12*
X60900Y948770D03*
X116900Y948770D03*
D13*
X73900Y985520D03*
X83900Y985520D03*
X93900Y985520D03*
X103900Y985520D03*
D14*
X615400Y945520D03*
X615400Y1152520D03*
D15*
X683150Y1139020D03*
X683150Y1129020D03*
X683150Y1124020D03*
X683150Y1134020D03*
X683150Y1119020D03*
X683150Y1109020D03*
X683150Y1104020D03*
X683150Y1114020D03*
X683150Y1099020D03*
X683150Y1089020D03*
X683150Y1084020D03*
X683150Y1094020D03*
X683150Y1079020D03*
X683150Y1069020D03*
X683150Y1064020D03*
X683150Y1074020D03*
X683150Y1059020D03*
X683150Y1049020D03*
X683150Y1044020D03*
X683150Y1054020D03*
X683150Y1039020D03*
X683150Y1034020D03*
X683150Y1009020D03*
X683150Y1004020D03*
X683150Y999020D03*
X683150Y989020D03*
X683150Y984020D03*
X683150Y994020D03*
X683150Y979020D03*
X683150Y969020D03*
X683150Y964020D03*
X683150Y974020D03*
X683150Y959020D03*
X607650Y1141520D03*
X607650Y1131520D03*
X607650Y1126520D03*
X607650Y1136520D03*
X607650Y1121520D03*
X607650Y1111520D03*
X607650Y1106520D03*
X607650Y1116520D03*
X607650Y1101520D03*
X607650Y1091520D03*
X607650Y1086520D03*
X607650Y1096520D03*
X607650Y1081520D03*
X607650Y1071520D03*
X607650Y1066520D03*
X607650Y1076520D03*
X607650Y1061520D03*
X607650Y1051520D03*
X607650Y1046520D03*
X607650Y1056520D03*
X607650Y1041520D03*
X607650Y1036520D03*
X607650Y1011520D03*
X607650Y1006520D03*
X607650Y1001520D03*
X607650Y991520D03*
X607650Y986520D03*
X607650Y996520D03*
X607650Y981520D03*
X607650Y971520D03*
X607650Y966520D03*
X607650Y976520D03*
X607650Y961520D03*
X607650Y956520D03*
D10*
X289560Y1095620D03*
X289560Y1078620D03*
X393700Y1027820D03*
X393700Y1044820D03*
X368300Y1027820D03*
X368300Y1044820D03*
X444500Y1044820D03*
X444500Y1027820D03*
D16*
X411600Y1026133D03*
X416600Y1046508D03*
X411600Y1046508D03*
X421600Y1046508D03*
X426600Y1046508D03*
X416600Y1026133D03*
X421600Y1026133D03*
X426600Y1026133D03*
D17*
X422500Y1036320D03*
X415700Y1036320D03*
D18*
X123800Y1087421D03*
X114300Y1087421D03*
X104800Y1087421D03*
X104800Y1061419D03*
X123800Y1061419D03*
D10*
X304800Y1095620D03*
X304800Y1078620D03*
X274320Y1095620D03*
X274320Y1078620D03*
X259080Y1078620D03*
X259080Y1095620D03*
D19*
X330200Y1036320D03*
D20*
X320450Y1022570D03*
X326950Y1022570D03*
X333450Y1022570D03*
X339950Y1022570D03*
X339950Y1050070D03*
X333450Y1050070D03*
X326950Y1050070D03*
X320450Y1050070D03*
D10*
X292100Y1027820D03*
X292100Y1044820D03*
X335280Y1078620D03*
X335280Y1095620D03*
X320040Y1078620D03*
X320040Y1095620D03*
D21*
X386270Y1090620D02*
X386270Y1083620D01*
X386270Y1090620D02*
X393270Y1090620D01*
X393270Y1083620D01*
X386270Y1083620D01*
X386270Y1086470D02*
X393270Y1086470D01*
X393270Y1089320D02*
X386270Y1089320D01*
X368730Y1090620D02*
X368730Y1083620D01*
X368730Y1090620D02*
X375730Y1090620D01*
X375730Y1083620D01*
X368730Y1083620D01*
X368730Y1086470D02*
X375730Y1086470D01*
X375730Y1089320D02*
X368730Y1089320D01*
X437070Y1090620D02*
X437070Y1083620D01*
X437070Y1090620D02*
X444070Y1090620D01*
X444070Y1083620D01*
X437070Y1083620D01*
X437070Y1086470D02*
X444070Y1086470D01*
X444070Y1089320D02*
X437070Y1089320D01*
X419530Y1090620D02*
X419530Y1083620D01*
X419530Y1090620D02*
X426530Y1090620D01*
X426530Y1083620D01*
X419530Y1083620D01*
X419530Y1086470D02*
X426530Y1086470D01*
X426530Y1089320D02*
X419530Y1089320D01*
D22*
X480060Y1093470D03*
X535940Y1093470D03*
X480060Y1055370D03*
X535940Y1055370D03*
D23*
X60100Y1041520D03*
X60100Y1046520D03*
D24*
X60100Y1016770D03*
X60100Y1024520D03*
D23*
X60100Y1031520D03*
X60100Y1036520D03*
X60100Y1056520D03*
X60100Y1051520D03*
D24*
X60100Y1081270D03*
X60100Y1073520D03*
D23*
X60100Y1066520D03*
X60100Y1061520D03*
D18*
X225400Y1049321D03*
X215900Y1049321D03*
X206400Y1049321D03*
X206400Y1023319D03*
X225400Y1023319D03*
D10*
X228600Y1095620D03*
X228600Y1078620D03*
X271780Y1044820D03*
X271780Y1027820D03*
D21*
X260040Y1031050D02*
X253040Y1031050D01*
X260040Y1031050D02*
X260040Y1024050D01*
X253040Y1024050D01*
X253040Y1031050D01*
X253040Y1026900D02*
X260040Y1026900D01*
X260040Y1029750D02*
X253040Y1029750D01*
X253040Y1048590D02*
X260040Y1048590D01*
X260040Y1041590D01*
X253040Y1041590D01*
X253040Y1048590D01*
X253040Y1044440D02*
X260040Y1044440D01*
X260040Y1047290D02*
X253040Y1047290D01*
D10*
X241300Y1044820D03*
X241300Y1027820D03*
D25*
X167800Y1088220D03*
X187800Y1088220D03*
D26*
X143800Y1140220D03*
X211800Y1140220D03*
D22*
X480060Y1037590D03*
X535940Y1037590D03*
X480060Y999490D03*
X535940Y999490D03*
D27*
X104140Y1151960D03*
X104140Y1128960D03*
X121920Y1151960D03*
X121920Y1128960D03*
D10*
X1188720Y1095620D03*
X1188720Y1078620D03*
D11*
X1054980Y1023620D03*
X1037980Y1023620D03*
D12*
X1005780Y948770D03*
X1061780Y948770D03*
D13*
X1018780Y985520D03*
X1028780Y985520D03*
X1038780Y985520D03*
X1048780Y985520D03*
D14*
X1560280Y945520D03*
X1560280Y1152520D03*
D15*
X1628030Y1139020D03*
X1628030Y1129020D03*
X1628030Y1124020D03*
X1628030Y1134020D03*
X1628030Y1119020D03*
X1628030Y1109020D03*
X1628030Y1104020D03*
X1628030Y1114020D03*
X1628030Y1099020D03*
X1628030Y1089020D03*
X1628030Y1084020D03*
X1628030Y1094020D03*
X1628030Y1079020D03*
X1628030Y1069020D03*
X1628030Y1064020D03*
X1628030Y1074020D03*
X1628030Y1059020D03*
X1628030Y1049020D03*
X1628030Y1044020D03*
X1628030Y1054020D03*
X1628030Y1039020D03*
X1628030Y1034020D03*
X1628030Y1009020D03*
X1628030Y1004020D03*
X1628030Y999020D03*
X1628030Y989020D03*
X1628030Y984020D03*
X1628030Y994020D03*
X1628030Y979020D03*
X1628030Y969020D03*
X1628030Y964020D03*
X1628030Y974020D03*
X1628030Y959020D03*
X1552530Y1141520D03*
X1552530Y1131520D03*
X1552530Y1126520D03*
X1552530Y1136520D03*
X1552530Y1121520D03*
X1552530Y1111520D03*
X1552530Y1106520D03*
X1552530Y1116520D03*
X1552530Y1101520D03*
X1552530Y1091520D03*
X1552530Y1086520D03*
X1552530Y1096520D03*
X1552530Y1081520D03*
X1552530Y1071520D03*
X1552530Y1066520D03*
X1552530Y1076520D03*
X1552530Y1061520D03*
X1552530Y1051520D03*
X1552530Y1046520D03*
X1552530Y1056520D03*
X1552530Y1041520D03*
X1552530Y1036520D03*
X1552530Y1011520D03*
X1552530Y1006520D03*
X1552530Y1001520D03*
X1552530Y991520D03*
X1552530Y986520D03*
X1552530Y996520D03*
X1552530Y981520D03*
X1552530Y971520D03*
X1552530Y966520D03*
X1552530Y976520D03*
X1552530Y961520D03*
X1552530Y956520D03*
D10*
X1234440Y1095620D03*
X1234440Y1078620D03*
X1338580Y1027820D03*
X1338580Y1044820D03*
X1313180Y1027820D03*
X1313180Y1044820D03*
X1389380Y1044820D03*
X1389380Y1027820D03*
D16*
X1356480Y1026133D03*
X1361480Y1046508D03*
X1356480Y1046508D03*
X1366480Y1046508D03*
X1371480Y1046508D03*
X1361480Y1026133D03*
X1366480Y1026133D03*
X1371480Y1026133D03*
D17*
X1367380Y1036320D03*
X1360580Y1036320D03*
D18*
X1068680Y1087421D03*
X1059180Y1087421D03*
X1049680Y1087421D03*
X1049680Y1061419D03*
X1068680Y1061419D03*
D10*
X1249680Y1095620D03*
X1249680Y1078620D03*
X1219200Y1095620D03*
X1219200Y1078620D03*
X1203960Y1078620D03*
X1203960Y1095620D03*
D19*
X1275080Y1036320D03*
D20*
X1265330Y1022570D03*
X1271830Y1022570D03*
X1278330Y1022570D03*
X1284830Y1022570D03*
X1284830Y1050070D03*
X1278330Y1050070D03*
X1271830Y1050070D03*
X1265330Y1050070D03*
D10*
X1236980Y1027820D03*
X1236980Y1044820D03*
X1280160Y1078620D03*
X1280160Y1095620D03*
X1264920Y1078620D03*
X1264920Y1095620D03*
D21*
X1331150Y1090620D02*
X1331150Y1083620D01*
X1331150Y1090620D02*
X1338150Y1090620D01*
X1338150Y1083620D01*
X1331150Y1083620D01*
X1331150Y1086470D02*
X1338150Y1086470D01*
X1338150Y1089320D02*
X1331150Y1089320D01*
X1313610Y1090620D02*
X1313610Y1083620D01*
X1313610Y1090620D02*
X1320610Y1090620D01*
X1320610Y1083620D01*
X1313610Y1083620D01*
X1313610Y1086470D02*
X1320610Y1086470D01*
X1320610Y1089320D02*
X1313610Y1089320D01*
X1381950Y1090620D02*
X1381950Y1083620D01*
X1381950Y1090620D02*
X1388950Y1090620D01*
X1388950Y1083620D01*
X1381950Y1083620D01*
X1381950Y1086470D02*
X1388950Y1086470D01*
X1388950Y1089320D02*
X1381950Y1089320D01*
X1364410Y1090620D02*
X1364410Y1083620D01*
X1364410Y1090620D02*
X1371410Y1090620D01*
X1371410Y1083620D01*
X1364410Y1083620D01*
X1364410Y1086470D02*
X1371410Y1086470D01*
X1371410Y1089320D02*
X1364410Y1089320D01*
D22*
X1424940Y1093470D03*
X1480820Y1093470D03*
X1424940Y1055370D03*
X1480820Y1055370D03*
D23*
X1004980Y1041520D03*
X1004980Y1046520D03*
D24*
X1004980Y1016770D03*
X1004980Y1024520D03*
D23*
X1004980Y1031520D03*
X1004980Y1036520D03*
X1004980Y1056520D03*
X1004980Y1051520D03*
D24*
X1004980Y1081270D03*
X1004980Y1073520D03*
D23*
X1004980Y1066520D03*
X1004980Y1061520D03*
D18*
X1170280Y1049321D03*
X1160780Y1049321D03*
X1151280Y1049321D03*
X1151280Y1023319D03*
X1170280Y1023319D03*
D10*
X1173480Y1095620D03*
X1173480Y1078620D03*
X1216660Y1044820D03*
X1216660Y1027820D03*
D21*
X1204920Y1031050D02*
X1197920Y1031050D01*
X1204920Y1031050D02*
X1204920Y1024050D01*
X1197920Y1024050D01*
X1197920Y1031050D01*
X1197920Y1026900D02*
X1204920Y1026900D01*
X1204920Y1029750D02*
X1197920Y1029750D01*
X1197920Y1048590D02*
X1204920Y1048590D01*
X1204920Y1041590D01*
X1197920Y1041590D01*
X1197920Y1048590D01*
X1197920Y1044440D02*
X1204920Y1044440D01*
X1204920Y1047290D02*
X1197920Y1047290D01*
D10*
X1186180Y1044820D03*
X1186180Y1027820D03*
D25*
X1112680Y1088220D03*
X1132680Y1088220D03*
D26*
X1088680Y1140220D03*
X1156680Y1140220D03*
D22*
X1424940Y1037590D03*
X1480820Y1037590D03*
X1424940Y999490D03*
X1480820Y999490D03*
D27*
X1049020Y1151960D03*
X1049020Y1128960D03*
X1066800Y1151960D03*
X1066800Y1128960D03*
M02*
