G04 EAGLE Gerber RS-274X export*
G75*
%MOMM*%
%FSLAX34Y34*%
%LPD*%
%INSoldermask Bottom*%
%IPPOS*%
%AMOC8*
5,1,8,0,0,1.08239X$1,22.5*%
G01*
%ADD10R,1.303200X1.203200*%
%ADD11R,1.727200X1.727200*%
%ADD12R,2.003200X1.603200*%
%ADD13R,1.603200X2.103200*%
%ADD14R,1.003200X1.703200*%
%ADD15C,1.303200*%
%ADD16C,1.803200*%
%ADD17R,0.863600X1.473200*%
%ADD18R,1.203200X1.303200*%
%ADD19C,3.505200*%
%ADD20C,6.203200*%
%ADD21R,1.033200X0.833200*%
%ADD22R,0.838200X1.473200*%
%ADD23C,0.853200*%
%ADD24C,1.203200*%
%ADD25C,0.838200*%
%ADD26R,1.203200X3.003200*%
%ADD27R,1.403200X1.003200*%
%ADD28C,2.082800*%
%ADD29C,1.270000*%
%ADD30C,1.703200*%

G36*
X1322770Y1034427D02*
X1322770Y1034427D01*
X1322836Y1034429D01*
X1322879Y1034447D01*
X1322926Y1034455D01*
X1322983Y1034489D01*
X1323043Y1034514D01*
X1323078Y1034545D01*
X1323119Y1034570D01*
X1323161Y1034621D01*
X1323209Y1034665D01*
X1323231Y1034707D01*
X1323260Y1034744D01*
X1323281Y1034806D01*
X1323312Y1034865D01*
X1323320Y1034919D01*
X1323332Y1034956D01*
X1323331Y1034996D01*
X1323339Y1035050D01*
X1323339Y1037590D01*
X1323328Y1037655D01*
X1323326Y1037721D01*
X1323308Y1037764D01*
X1323300Y1037811D01*
X1323266Y1037868D01*
X1323241Y1037928D01*
X1323210Y1037963D01*
X1323185Y1038004D01*
X1323134Y1038046D01*
X1323090Y1038094D01*
X1323048Y1038116D01*
X1323011Y1038145D01*
X1322949Y1038166D01*
X1322890Y1038197D01*
X1322836Y1038205D01*
X1322799Y1038217D01*
X1322759Y1038216D01*
X1322705Y1038224D01*
X1318895Y1038224D01*
X1318830Y1038213D01*
X1318764Y1038211D01*
X1318721Y1038193D01*
X1318674Y1038185D01*
X1318617Y1038151D01*
X1318557Y1038126D01*
X1318522Y1038095D01*
X1318481Y1038070D01*
X1318440Y1038019D01*
X1318391Y1037975D01*
X1318369Y1037933D01*
X1318340Y1037896D01*
X1318319Y1037834D01*
X1318288Y1037775D01*
X1318280Y1037721D01*
X1318268Y1037684D01*
X1318268Y1037681D01*
X1318269Y1037644D01*
X1318261Y1037590D01*
X1318261Y1035050D01*
X1318272Y1034985D01*
X1318274Y1034919D01*
X1318292Y1034876D01*
X1318300Y1034829D01*
X1318334Y1034772D01*
X1318359Y1034712D01*
X1318390Y1034677D01*
X1318415Y1034636D01*
X1318466Y1034595D01*
X1318510Y1034546D01*
X1318552Y1034524D01*
X1318589Y1034495D01*
X1318651Y1034474D01*
X1318710Y1034443D01*
X1318764Y1034435D01*
X1318801Y1034423D01*
X1318841Y1034424D01*
X1318895Y1034416D01*
X1322705Y1034416D01*
X1322770Y1034427D01*
G37*
G36*
X1322770Y800747D02*
X1322770Y800747D01*
X1322836Y800749D01*
X1322879Y800767D01*
X1322926Y800775D01*
X1322983Y800809D01*
X1323043Y800834D01*
X1323078Y800865D01*
X1323119Y800890D01*
X1323161Y800941D01*
X1323209Y800985D01*
X1323231Y801027D01*
X1323260Y801064D01*
X1323281Y801126D01*
X1323312Y801185D01*
X1323320Y801239D01*
X1323332Y801276D01*
X1323331Y801316D01*
X1323339Y801370D01*
X1323339Y803910D01*
X1323328Y803975D01*
X1323326Y804041D01*
X1323308Y804084D01*
X1323300Y804131D01*
X1323266Y804188D01*
X1323241Y804248D01*
X1323210Y804283D01*
X1323185Y804324D01*
X1323134Y804366D01*
X1323090Y804414D01*
X1323048Y804436D01*
X1323011Y804465D01*
X1322949Y804486D01*
X1322890Y804517D01*
X1322836Y804525D01*
X1322799Y804537D01*
X1322759Y804536D01*
X1322705Y804544D01*
X1318895Y804544D01*
X1318830Y804533D01*
X1318764Y804531D01*
X1318721Y804513D01*
X1318674Y804505D01*
X1318617Y804471D01*
X1318557Y804446D01*
X1318522Y804415D01*
X1318481Y804390D01*
X1318440Y804339D01*
X1318391Y804295D01*
X1318369Y804253D01*
X1318340Y804216D01*
X1318319Y804154D01*
X1318288Y804095D01*
X1318280Y804041D01*
X1318268Y804004D01*
X1318268Y804001D01*
X1318269Y803964D01*
X1318261Y803910D01*
X1318261Y801370D01*
X1318272Y801305D01*
X1318274Y801239D01*
X1318292Y801196D01*
X1318300Y801149D01*
X1318334Y801092D01*
X1318359Y801032D01*
X1318390Y800997D01*
X1318415Y800956D01*
X1318466Y800915D01*
X1318510Y800866D01*
X1318552Y800844D01*
X1318589Y800815D01*
X1318651Y800794D01*
X1318710Y800763D01*
X1318764Y800755D01*
X1318801Y800743D01*
X1318841Y800744D01*
X1318895Y800736D01*
X1322705Y800736D01*
X1322770Y800747D01*
G37*
G36*
X377890Y800747D02*
X377890Y800747D01*
X377956Y800749D01*
X377999Y800767D01*
X378046Y800775D01*
X378103Y800809D01*
X378163Y800834D01*
X378198Y800865D01*
X378239Y800890D01*
X378281Y800941D01*
X378329Y800985D01*
X378351Y801027D01*
X378380Y801064D01*
X378401Y801126D01*
X378432Y801185D01*
X378440Y801239D01*
X378452Y801276D01*
X378451Y801316D01*
X378459Y801370D01*
X378459Y803910D01*
X378448Y803975D01*
X378446Y804041D01*
X378428Y804084D01*
X378420Y804131D01*
X378386Y804188D01*
X378361Y804248D01*
X378330Y804283D01*
X378305Y804324D01*
X378254Y804366D01*
X378210Y804414D01*
X378168Y804436D01*
X378131Y804465D01*
X378069Y804486D01*
X378010Y804517D01*
X377956Y804525D01*
X377919Y804537D01*
X377879Y804536D01*
X377825Y804544D01*
X374015Y804544D01*
X373950Y804533D01*
X373884Y804531D01*
X373841Y804513D01*
X373794Y804505D01*
X373737Y804471D01*
X373677Y804446D01*
X373642Y804415D01*
X373601Y804390D01*
X373560Y804339D01*
X373511Y804295D01*
X373489Y804253D01*
X373460Y804216D01*
X373439Y804154D01*
X373408Y804095D01*
X373400Y804041D01*
X373388Y804004D01*
X373388Y804001D01*
X373389Y803964D01*
X373381Y803910D01*
X373381Y801370D01*
X373392Y801305D01*
X373394Y801239D01*
X373412Y801196D01*
X373420Y801149D01*
X373454Y801092D01*
X373479Y801032D01*
X373510Y800997D01*
X373535Y800956D01*
X373586Y800915D01*
X373630Y800866D01*
X373672Y800844D01*
X373709Y800815D01*
X373771Y800794D01*
X373830Y800763D01*
X373884Y800755D01*
X373921Y800743D01*
X373961Y800744D01*
X374015Y800736D01*
X377825Y800736D01*
X377890Y800747D01*
G37*
G36*
X388050Y800747D02*
X388050Y800747D01*
X388116Y800749D01*
X388159Y800767D01*
X388206Y800775D01*
X388263Y800809D01*
X388323Y800834D01*
X388358Y800865D01*
X388399Y800890D01*
X388441Y800941D01*
X388489Y800985D01*
X388511Y801027D01*
X388540Y801064D01*
X388561Y801126D01*
X388592Y801185D01*
X388600Y801239D01*
X388612Y801276D01*
X388611Y801316D01*
X388619Y801370D01*
X388619Y803910D01*
X388608Y803975D01*
X388606Y804041D01*
X388588Y804084D01*
X388580Y804131D01*
X388546Y804188D01*
X388521Y804248D01*
X388490Y804283D01*
X388465Y804324D01*
X388414Y804366D01*
X388370Y804414D01*
X388328Y804436D01*
X388291Y804465D01*
X388229Y804486D01*
X388170Y804517D01*
X388116Y804525D01*
X388079Y804537D01*
X388039Y804536D01*
X387985Y804544D01*
X384175Y804544D01*
X384110Y804533D01*
X384044Y804531D01*
X384001Y804513D01*
X383954Y804505D01*
X383897Y804471D01*
X383837Y804446D01*
X383802Y804415D01*
X383761Y804390D01*
X383720Y804339D01*
X383671Y804295D01*
X383649Y804253D01*
X383620Y804216D01*
X383599Y804154D01*
X383568Y804095D01*
X383560Y804041D01*
X383548Y804004D01*
X383548Y804001D01*
X383549Y803964D01*
X383541Y803910D01*
X383541Y801370D01*
X383552Y801305D01*
X383554Y801239D01*
X383572Y801196D01*
X383580Y801149D01*
X383614Y801092D01*
X383639Y801032D01*
X383670Y800997D01*
X383695Y800956D01*
X383746Y800915D01*
X383790Y800866D01*
X383832Y800844D01*
X383869Y800815D01*
X383931Y800794D01*
X383990Y800763D01*
X384044Y800755D01*
X384081Y800743D01*
X384121Y800744D01*
X384175Y800736D01*
X387985Y800736D01*
X388050Y800747D01*
G37*
G36*
X1332930Y800747D02*
X1332930Y800747D01*
X1332996Y800749D01*
X1333039Y800767D01*
X1333086Y800775D01*
X1333143Y800809D01*
X1333203Y800834D01*
X1333238Y800865D01*
X1333279Y800890D01*
X1333321Y800941D01*
X1333369Y800985D01*
X1333391Y801027D01*
X1333420Y801064D01*
X1333441Y801126D01*
X1333472Y801185D01*
X1333480Y801239D01*
X1333492Y801276D01*
X1333491Y801316D01*
X1333499Y801370D01*
X1333499Y803910D01*
X1333488Y803975D01*
X1333486Y804041D01*
X1333468Y804084D01*
X1333460Y804131D01*
X1333426Y804188D01*
X1333401Y804248D01*
X1333370Y804283D01*
X1333345Y804324D01*
X1333294Y804366D01*
X1333250Y804414D01*
X1333208Y804436D01*
X1333171Y804465D01*
X1333109Y804486D01*
X1333050Y804517D01*
X1332996Y804525D01*
X1332959Y804537D01*
X1332919Y804536D01*
X1332865Y804544D01*
X1329055Y804544D01*
X1328990Y804533D01*
X1328924Y804531D01*
X1328881Y804513D01*
X1328834Y804505D01*
X1328777Y804471D01*
X1328717Y804446D01*
X1328682Y804415D01*
X1328641Y804390D01*
X1328600Y804339D01*
X1328551Y804295D01*
X1328529Y804253D01*
X1328500Y804216D01*
X1328479Y804154D01*
X1328448Y804095D01*
X1328440Y804041D01*
X1328428Y804004D01*
X1328428Y804001D01*
X1328429Y803964D01*
X1328421Y803910D01*
X1328421Y801370D01*
X1328432Y801305D01*
X1328434Y801239D01*
X1328452Y801196D01*
X1328460Y801149D01*
X1328494Y801092D01*
X1328519Y801032D01*
X1328550Y800997D01*
X1328575Y800956D01*
X1328626Y800915D01*
X1328670Y800866D01*
X1328712Y800844D01*
X1328749Y800815D01*
X1328811Y800794D01*
X1328870Y800763D01*
X1328924Y800755D01*
X1328961Y800743D01*
X1329001Y800744D01*
X1329055Y800736D01*
X1332865Y800736D01*
X1332930Y800747D01*
G37*
G36*
X504890Y826147D02*
X504890Y826147D01*
X504956Y826149D01*
X504999Y826167D01*
X505046Y826175D01*
X505103Y826209D01*
X505163Y826234D01*
X505198Y826265D01*
X505239Y826290D01*
X505281Y826341D01*
X505329Y826385D01*
X505351Y826427D01*
X505380Y826464D01*
X505401Y826526D01*
X505432Y826585D01*
X505440Y826639D01*
X505452Y826676D01*
X505451Y826716D01*
X505459Y826770D01*
X505459Y829310D01*
X505448Y829375D01*
X505446Y829441D01*
X505428Y829484D01*
X505420Y829531D01*
X505386Y829588D01*
X505361Y829648D01*
X505330Y829683D01*
X505305Y829724D01*
X505254Y829766D01*
X505210Y829814D01*
X505168Y829836D01*
X505131Y829865D01*
X505069Y829886D01*
X505010Y829917D01*
X504956Y829925D01*
X504919Y829937D01*
X504879Y829936D01*
X504825Y829944D01*
X501015Y829944D01*
X500950Y829933D01*
X500884Y829931D01*
X500841Y829913D01*
X500794Y829905D01*
X500737Y829871D01*
X500677Y829846D01*
X500642Y829815D01*
X500601Y829790D01*
X500560Y829739D01*
X500511Y829695D01*
X500489Y829653D01*
X500460Y829616D01*
X500439Y829554D01*
X500408Y829495D01*
X500400Y829441D01*
X500388Y829404D01*
X500388Y829401D01*
X500389Y829364D01*
X500381Y829310D01*
X500381Y826770D01*
X500392Y826705D01*
X500394Y826639D01*
X500412Y826596D01*
X500420Y826549D01*
X500454Y826492D01*
X500479Y826432D01*
X500510Y826397D01*
X500535Y826356D01*
X500586Y826315D01*
X500630Y826266D01*
X500672Y826244D01*
X500709Y826215D01*
X500771Y826194D01*
X500830Y826163D01*
X500884Y826155D01*
X500921Y826143D01*
X500961Y826144D01*
X501015Y826136D01*
X504825Y826136D01*
X504890Y826147D01*
G37*
G36*
X1449770Y826147D02*
X1449770Y826147D01*
X1449836Y826149D01*
X1449879Y826167D01*
X1449926Y826175D01*
X1449983Y826209D01*
X1450043Y826234D01*
X1450078Y826265D01*
X1450119Y826290D01*
X1450161Y826341D01*
X1450209Y826385D01*
X1450231Y826427D01*
X1450260Y826464D01*
X1450281Y826526D01*
X1450312Y826585D01*
X1450320Y826639D01*
X1450332Y826676D01*
X1450331Y826716D01*
X1450339Y826770D01*
X1450339Y829310D01*
X1450328Y829375D01*
X1450326Y829441D01*
X1450308Y829484D01*
X1450300Y829531D01*
X1450266Y829588D01*
X1450241Y829648D01*
X1450210Y829683D01*
X1450185Y829724D01*
X1450134Y829766D01*
X1450090Y829814D01*
X1450048Y829836D01*
X1450011Y829865D01*
X1449949Y829886D01*
X1449890Y829917D01*
X1449836Y829925D01*
X1449799Y829937D01*
X1449759Y829936D01*
X1449705Y829944D01*
X1445895Y829944D01*
X1445830Y829933D01*
X1445764Y829931D01*
X1445721Y829913D01*
X1445674Y829905D01*
X1445617Y829871D01*
X1445557Y829846D01*
X1445522Y829815D01*
X1445481Y829790D01*
X1445440Y829739D01*
X1445391Y829695D01*
X1445369Y829653D01*
X1445340Y829616D01*
X1445319Y829554D01*
X1445288Y829495D01*
X1445280Y829441D01*
X1445268Y829404D01*
X1445268Y829401D01*
X1445269Y829364D01*
X1445261Y829310D01*
X1445261Y826770D01*
X1445272Y826705D01*
X1445274Y826639D01*
X1445292Y826596D01*
X1445300Y826549D01*
X1445334Y826492D01*
X1445359Y826432D01*
X1445390Y826397D01*
X1445415Y826356D01*
X1445466Y826315D01*
X1445510Y826266D01*
X1445552Y826244D01*
X1445589Y826215D01*
X1445651Y826194D01*
X1445710Y826163D01*
X1445764Y826155D01*
X1445801Y826143D01*
X1445841Y826144D01*
X1445895Y826136D01*
X1449705Y826136D01*
X1449770Y826147D01*
G37*
G36*
X377890Y1034427D02*
X377890Y1034427D01*
X377956Y1034429D01*
X377999Y1034447D01*
X378046Y1034455D01*
X378103Y1034489D01*
X378163Y1034514D01*
X378198Y1034545D01*
X378239Y1034570D01*
X378281Y1034621D01*
X378329Y1034665D01*
X378351Y1034707D01*
X378380Y1034744D01*
X378401Y1034806D01*
X378432Y1034865D01*
X378440Y1034919D01*
X378452Y1034956D01*
X378451Y1034996D01*
X378459Y1035050D01*
X378459Y1037590D01*
X378448Y1037655D01*
X378446Y1037721D01*
X378428Y1037764D01*
X378420Y1037811D01*
X378386Y1037868D01*
X378361Y1037928D01*
X378330Y1037963D01*
X378305Y1038004D01*
X378254Y1038046D01*
X378210Y1038094D01*
X378168Y1038116D01*
X378131Y1038145D01*
X378069Y1038166D01*
X378010Y1038197D01*
X377956Y1038205D01*
X377919Y1038217D01*
X377879Y1038216D01*
X377825Y1038224D01*
X374015Y1038224D01*
X373950Y1038213D01*
X373884Y1038211D01*
X373841Y1038193D01*
X373794Y1038185D01*
X373737Y1038151D01*
X373677Y1038126D01*
X373642Y1038095D01*
X373601Y1038070D01*
X373560Y1038019D01*
X373511Y1037975D01*
X373489Y1037933D01*
X373460Y1037896D01*
X373439Y1037834D01*
X373408Y1037775D01*
X373400Y1037721D01*
X373388Y1037684D01*
X373388Y1037681D01*
X373389Y1037644D01*
X373381Y1037590D01*
X373381Y1035050D01*
X373392Y1034985D01*
X373394Y1034919D01*
X373412Y1034876D01*
X373420Y1034829D01*
X373454Y1034772D01*
X373479Y1034712D01*
X373510Y1034677D01*
X373535Y1034636D01*
X373586Y1034595D01*
X373630Y1034546D01*
X373672Y1034524D01*
X373709Y1034495D01*
X373771Y1034474D01*
X373830Y1034443D01*
X373884Y1034435D01*
X373921Y1034423D01*
X373961Y1034424D01*
X374015Y1034416D01*
X377825Y1034416D01*
X377890Y1034427D01*
G37*
G36*
X1332930Y1034427D02*
X1332930Y1034427D01*
X1332996Y1034429D01*
X1333039Y1034447D01*
X1333086Y1034455D01*
X1333143Y1034489D01*
X1333203Y1034514D01*
X1333238Y1034545D01*
X1333279Y1034570D01*
X1333321Y1034621D01*
X1333369Y1034665D01*
X1333391Y1034707D01*
X1333420Y1034744D01*
X1333441Y1034806D01*
X1333472Y1034865D01*
X1333480Y1034919D01*
X1333492Y1034956D01*
X1333491Y1034996D01*
X1333499Y1035050D01*
X1333499Y1037590D01*
X1333488Y1037655D01*
X1333486Y1037721D01*
X1333468Y1037764D01*
X1333460Y1037811D01*
X1333426Y1037868D01*
X1333401Y1037928D01*
X1333370Y1037963D01*
X1333345Y1038004D01*
X1333294Y1038046D01*
X1333250Y1038094D01*
X1333208Y1038116D01*
X1333171Y1038145D01*
X1333109Y1038166D01*
X1333050Y1038197D01*
X1332996Y1038205D01*
X1332959Y1038217D01*
X1332919Y1038216D01*
X1332865Y1038224D01*
X1329055Y1038224D01*
X1328990Y1038213D01*
X1328924Y1038211D01*
X1328881Y1038193D01*
X1328834Y1038185D01*
X1328777Y1038151D01*
X1328717Y1038126D01*
X1328682Y1038095D01*
X1328641Y1038070D01*
X1328600Y1038019D01*
X1328551Y1037975D01*
X1328529Y1037933D01*
X1328500Y1037896D01*
X1328479Y1037834D01*
X1328448Y1037775D01*
X1328440Y1037721D01*
X1328428Y1037684D01*
X1328428Y1037681D01*
X1328429Y1037644D01*
X1328421Y1037590D01*
X1328421Y1035050D01*
X1328432Y1034985D01*
X1328434Y1034919D01*
X1328452Y1034876D01*
X1328460Y1034829D01*
X1328494Y1034772D01*
X1328519Y1034712D01*
X1328550Y1034677D01*
X1328575Y1034636D01*
X1328626Y1034595D01*
X1328670Y1034546D01*
X1328712Y1034524D01*
X1328749Y1034495D01*
X1328811Y1034474D01*
X1328870Y1034443D01*
X1328924Y1034435D01*
X1328961Y1034423D01*
X1329001Y1034424D01*
X1329055Y1034416D01*
X1332865Y1034416D01*
X1332930Y1034427D01*
G37*
G36*
X388050Y1034427D02*
X388050Y1034427D01*
X388116Y1034429D01*
X388159Y1034447D01*
X388206Y1034455D01*
X388263Y1034489D01*
X388323Y1034514D01*
X388358Y1034545D01*
X388399Y1034570D01*
X388441Y1034621D01*
X388489Y1034665D01*
X388511Y1034707D01*
X388540Y1034744D01*
X388561Y1034806D01*
X388592Y1034865D01*
X388600Y1034919D01*
X388612Y1034956D01*
X388611Y1034996D01*
X388619Y1035050D01*
X388619Y1037590D01*
X388608Y1037655D01*
X388606Y1037721D01*
X388588Y1037764D01*
X388580Y1037811D01*
X388546Y1037868D01*
X388521Y1037928D01*
X388490Y1037963D01*
X388465Y1038004D01*
X388414Y1038046D01*
X388370Y1038094D01*
X388328Y1038116D01*
X388291Y1038145D01*
X388229Y1038166D01*
X388170Y1038197D01*
X388116Y1038205D01*
X388079Y1038217D01*
X388039Y1038216D01*
X387985Y1038224D01*
X384175Y1038224D01*
X384110Y1038213D01*
X384044Y1038211D01*
X384001Y1038193D01*
X383954Y1038185D01*
X383897Y1038151D01*
X383837Y1038126D01*
X383802Y1038095D01*
X383761Y1038070D01*
X383720Y1038019D01*
X383671Y1037975D01*
X383649Y1037933D01*
X383620Y1037896D01*
X383599Y1037834D01*
X383568Y1037775D01*
X383560Y1037721D01*
X383548Y1037684D01*
X383548Y1037681D01*
X383549Y1037644D01*
X383541Y1037590D01*
X383541Y1035050D01*
X383552Y1034985D01*
X383554Y1034919D01*
X383572Y1034876D01*
X383580Y1034829D01*
X383614Y1034772D01*
X383639Y1034712D01*
X383670Y1034677D01*
X383695Y1034636D01*
X383746Y1034595D01*
X383790Y1034546D01*
X383832Y1034524D01*
X383869Y1034495D01*
X383931Y1034474D01*
X383990Y1034443D01*
X384044Y1034435D01*
X384081Y1034423D01*
X384121Y1034424D01*
X384175Y1034416D01*
X387985Y1034416D01*
X388050Y1034427D01*
G37*
G36*
X1322770Y333387D02*
X1322770Y333387D01*
X1322836Y333389D01*
X1322879Y333407D01*
X1322926Y333415D01*
X1322983Y333449D01*
X1323043Y333474D01*
X1323078Y333505D01*
X1323119Y333530D01*
X1323161Y333581D01*
X1323209Y333625D01*
X1323231Y333667D01*
X1323260Y333704D01*
X1323281Y333766D01*
X1323312Y333825D01*
X1323320Y333879D01*
X1323332Y333916D01*
X1323331Y333956D01*
X1323339Y334010D01*
X1323339Y336550D01*
X1323328Y336615D01*
X1323326Y336681D01*
X1323308Y336724D01*
X1323300Y336771D01*
X1323266Y336828D01*
X1323241Y336888D01*
X1323210Y336923D01*
X1323185Y336964D01*
X1323134Y337006D01*
X1323090Y337054D01*
X1323048Y337076D01*
X1323011Y337105D01*
X1322949Y337126D01*
X1322890Y337157D01*
X1322836Y337165D01*
X1322799Y337177D01*
X1322759Y337176D01*
X1322705Y337184D01*
X1318895Y337184D01*
X1318830Y337173D01*
X1318764Y337171D01*
X1318721Y337153D01*
X1318674Y337145D01*
X1318617Y337111D01*
X1318557Y337086D01*
X1318522Y337055D01*
X1318481Y337030D01*
X1318440Y336979D01*
X1318391Y336935D01*
X1318369Y336893D01*
X1318340Y336856D01*
X1318319Y336794D01*
X1318288Y336735D01*
X1318280Y336681D01*
X1318268Y336644D01*
X1318268Y336641D01*
X1318269Y336604D01*
X1318261Y336550D01*
X1318261Y334010D01*
X1318272Y333945D01*
X1318274Y333879D01*
X1318292Y333836D01*
X1318300Y333789D01*
X1318334Y333732D01*
X1318359Y333672D01*
X1318390Y333637D01*
X1318415Y333596D01*
X1318466Y333555D01*
X1318510Y333506D01*
X1318552Y333484D01*
X1318589Y333455D01*
X1318651Y333434D01*
X1318710Y333403D01*
X1318764Y333395D01*
X1318801Y333383D01*
X1318841Y333384D01*
X1318895Y333376D01*
X1322705Y333376D01*
X1322770Y333387D01*
G37*
G36*
X388050Y333387D02*
X388050Y333387D01*
X388116Y333389D01*
X388159Y333407D01*
X388206Y333415D01*
X388263Y333449D01*
X388323Y333474D01*
X388358Y333505D01*
X388399Y333530D01*
X388441Y333581D01*
X388489Y333625D01*
X388511Y333667D01*
X388540Y333704D01*
X388561Y333766D01*
X388592Y333825D01*
X388600Y333879D01*
X388612Y333916D01*
X388611Y333956D01*
X388619Y334010D01*
X388619Y336550D01*
X388608Y336615D01*
X388606Y336681D01*
X388588Y336724D01*
X388580Y336771D01*
X388546Y336828D01*
X388521Y336888D01*
X388490Y336923D01*
X388465Y336964D01*
X388414Y337006D01*
X388370Y337054D01*
X388328Y337076D01*
X388291Y337105D01*
X388229Y337126D01*
X388170Y337157D01*
X388116Y337165D01*
X388079Y337177D01*
X388039Y337176D01*
X387985Y337184D01*
X384175Y337184D01*
X384110Y337173D01*
X384044Y337171D01*
X384001Y337153D01*
X383954Y337145D01*
X383897Y337111D01*
X383837Y337086D01*
X383802Y337055D01*
X383761Y337030D01*
X383720Y336979D01*
X383671Y336935D01*
X383649Y336893D01*
X383620Y336856D01*
X383599Y336794D01*
X383568Y336735D01*
X383560Y336681D01*
X383548Y336644D01*
X383548Y336641D01*
X383549Y336604D01*
X383541Y336550D01*
X383541Y334010D01*
X383552Y333945D01*
X383554Y333879D01*
X383572Y333836D01*
X383580Y333789D01*
X383614Y333732D01*
X383639Y333672D01*
X383670Y333637D01*
X383695Y333596D01*
X383746Y333555D01*
X383790Y333506D01*
X383832Y333484D01*
X383869Y333455D01*
X383931Y333434D01*
X383990Y333403D01*
X384044Y333395D01*
X384081Y333383D01*
X384121Y333384D01*
X384175Y333376D01*
X387985Y333376D01*
X388050Y333387D01*
G37*
G36*
X377890Y333387D02*
X377890Y333387D01*
X377956Y333389D01*
X377999Y333407D01*
X378046Y333415D01*
X378103Y333449D01*
X378163Y333474D01*
X378198Y333505D01*
X378239Y333530D01*
X378281Y333581D01*
X378329Y333625D01*
X378351Y333667D01*
X378380Y333704D01*
X378401Y333766D01*
X378432Y333825D01*
X378440Y333879D01*
X378452Y333916D01*
X378451Y333956D01*
X378459Y334010D01*
X378459Y336550D01*
X378448Y336615D01*
X378446Y336681D01*
X378428Y336724D01*
X378420Y336771D01*
X378386Y336828D01*
X378361Y336888D01*
X378330Y336923D01*
X378305Y336964D01*
X378254Y337006D01*
X378210Y337054D01*
X378168Y337076D01*
X378131Y337105D01*
X378069Y337126D01*
X378010Y337157D01*
X377956Y337165D01*
X377919Y337177D01*
X377879Y337176D01*
X377825Y337184D01*
X374015Y337184D01*
X373950Y337173D01*
X373884Y337171D01*
X373841Y337153D01*
X373794Y337145D01*
X373737Y337111D01*
X373677Y337086D01*
X373642Y337055D01*
X373601Y337030D01*
X373560Y336979D01*
X373511Y336935D01*
X373489Y336893D01*
X373460Y336856D01*
X373439Y336794D01*
X373408Y336735D01*
X373400Y336681D01*
X373388Y336644D01*
X373388Y336641D01*
X373389Y336604D01*
X373381Y336550D01*
X373381Y334010D01*
X373392Y333945D01*
X373394Y333879D01*
X373412Y333836D01*
X373420Y333789D01*
X373454Y333732D01*
X373479Y333672D01*
X373510Y333637D01*
X373535Y333596D01*
X373586Y333555D01*
X373630Y333506D01*
X373672Y333484D01*
X373709Y333455D01*
X373771Y333434D01*
X373830Y333403D01*
X373884Y333395D01*
X373921Y333383D01*
X373961Y333384D01*
X374015Y333376D01*
X377825Y333376D01*
X377890Y333387D01*
G37*
G36*
X1332930Y333387D02*
X1332930Y333387D01*
X1332996Y333389D01*
X1333039Y333407D01*
X1333086Y333415D01*
X1333143Y333449D01*
X1333203Y333474D01*
X1333238Y333505D01*
X1333279Y333530D01*
X1333321Y333581D01*
X1333369Y333625D01*
X1333391Y333667D01*
X1333420Y333704D01*
X1333441Y333766D01*
X1333472Y333825D01*
X1333480Y333879D01*
X1333492Y333916D01*
X1333491Y333956D01*
X1333499Y334010D01*
X1333499Y336550D01*
X1333488Y336615D01*
X1333486Y336681D01*
X1333468Y336724D01*
X1333460Y336771D01*
X1333426Y336828D01*
X1333401Y336888D01*
X1333370Y336923D01*
X1333345Y336964D01*
X1333294Y337006D01*
X1333250Y337054D01*
X1333208Y337076D01*
X1333171Y337105D01*
X1333109Y337126D01*
X1333050Y337157D01*
X1332996Y337165D01*
X1332959Y337177D01*
X1332919Y337176D01*
X1332865Y337184D01*
X1329055Y337184D01*
X1328990Y337173D01*
X1328924Y337171D01*
X1328881Y337153D01*
X1328834Y337145D01*
X1328777Y337111D01*
X1328717Y337086D01*
X1328682Y337055D01*
X1328641Y337030D01*
X1328600Y336979D01*
X1328551Y336935D01*
X1328529Y336893D01*
X1328500Y336856D01*
X1328479Y336794D01*
X1328448Y336735D01*
X1328440Y336681D01*
X1328428Y336644D01*
X1328428Y336641D01*
X1328429Y336604D01*
X1328421Y336550D01*
X1328421Y334010D01*
X1328432Y333945D01*
X1328434Y333879D01*
X1328452Y333836D01*
X1328460Y333789D01*
X1328494Y333732D01*
X1328519Y333672D01*
X1328550Y333637D01*
X1328575Y333596D01*
X1328626Y333555D01*
X1328670Y333506D01*
X1328712Y333484D01*
X1328749Y333455D01*
X1328811Y333434D01*
X1328870Y333403D01*
X1328924Y333395D01*
X1328961Y333383D01*
X1329001Y333384D01*
X1329055Y333376D01*
X1332865Y333376D01*
X1332930Y333387D01*
G37*
G36*
X1449770Y1059827D02*
X1449770Y1059827D01*
X1449836Y1059829D01*
X1449879Y1059847D01*
X1449926Y1059855D01*
X1449983Y1059889D01*
X1450043Y1059914D01*
X1450078Y1059945D01*
X1450119Y1059970D01*
X1450161Y1060021D01*
X1450209Y1060065D01*
X1450231Y1060107D01*
X1450260Y1060144D01*
X1450281Y1060206D01*
X1450312Y1060265D01*
X1450320Y1060319D01*
X1450332Y1060356D01*
X1450331Y1060396D01*
X1450339Y1060450D01*
X1450339Y1062990D01*
X1450328Y1063055D01*
X1450326Y1063121D01*
X1450308Y1063164D01*
X1450300Y1063211D01*
X1450266Y1063268D01*
X1450241Y1063328D01*
X1450210Y1063363D01*
X1450185Y1063404D01*
X1450134Y1063446D01*
X1450090Y1063494D01*
X1450048Y1063516D01*
X1450011Y1063545D01*
X1449949Y1063566D01*
X1449890Y1063597D01*
X1449836Y1063605D01*
X1449799Y1063617D01*
X1449759Y1063616D01*
X1449705Y1063624D01*
X1445895Y1063624D01*
X1445830Y1063613D01*
X1445764Y1063611D01*
X1445721Y1063593D01*
X1445674Y1063585D01*
X1445617Y1063551D01*
X1445557Y1063526D01*
X1445522Y1063495D01*
X1445481Y1063470D01*
X1445440Y1063419D01*
X1445391Y1063375D01*
X1445369Y1063333D01*
X1445340Y1063296D01*
X1445319Y1063234D01*
X1445288Y1063175D01*
X1445280Y1063121D01*
X1445268Y1063084D01*
X1445268Y1063081D01*
X1445269Y1063044D01*
X1445261Y1062990D01*
X1445261Y1060450D01*
X1445272Y1060385D01*
X1445274Y1060319D01*
X1445292Y1060276D01*
X1445300Y1060229D01*
X1445334Y1060172D01*
X1445359Y1060112D01*
X1445390Y1060077D01*
X1445415Y1060036D01*
X1445466Y1059995D01*
X1445510Y1059946D01*
X1445552Y1059924D01*
X1445589Y1059895D01*
X1445651Y1059874D01*
X1445710Y1059843D01*
X1445764Y1059835D01*
X1445801Y1059823D01*
X1445841Y1059824D01*
X1445895Y1059816D01*
X1449705Y1059816D01*
X1449770Y1059827D01*
G37*
G36*
X1327850Y1097927D02*
X1327850Y1097927D01*
X1327916Y1097929D01*
X1327959Y1097947D01*
X1328006Y1097955D01*
X1328063Y1097989D01*
X1328123Y1098014D01*
X1328158Y1098045D01*
X1328199Y1098070D01*
X1328241Y1098121D01*
X1328289Y1098165D01*
X1328311Y1098207D01*
X1328340Y1098244D01*
X1328361Y1098306D01*
X1328392Y1098365D01*
X1328400Y1098419D01*
X1328412Y1098456D01*
X1328411Y1098496D01*
X1328419Y1098550D01*
X1328419Y1101090D01*
X1328408Y1101155D01*
X1328406Y1101221D01*
X1328388Y1101264D01*
X1328380Y1101311D01*
X1328346Y1101368D01*
X1328321Y1101428D01*
X1328290Y1101463D01*
X1328265Y1101504D01*
X1328214Y1101546D01*
X1328170Y1101594D01*
X1328128Y1101616D01*
X1328091Y1101645D01*
X1328029Y1101666D01*
X1327970Y1101697D01*
X1327916Y1101705D01*
X1327879Y1101717D01*
X1327839Y1101716D01*
X1327785Y1101724D01*
X1323975Y1101724D01*
X1323910Y1101713D01*
X1323844Y1101711D01*
X1323801Y1101693D01*
X1323754Y1101685D01*
X1323697Y1101651D01*
X1323637Y1101626D01*
X1323602Y1101595D01*
X1323561Y1101570D01*
X1323520Y1101519D01*
X1323471Y1101475D01*
X1323449Y1101433D01*
X1323420Y1101396D01*
X1323399Y1101334D01*
X1323368Y1101275D01*
X1323360Y1101221D01*
X1323348Y1101184D01*
X1323348Y1101181D01*
X1323349Y1101144D01*
X1323341Y1101090D01*
X1323341Y1098550D01*
X1323352Y1098485D01*
X1323354Y1098419D01*
X1323372Y1098376D01*
X1323380Y1098329D01*
X1323414Y1098272D01*
X1323439Y1098212D01*
X1323470Y1098177D01*
X1323495Y1098136D01*
X1323546Y1098095D01*
X1323590Y1098046D01*
X1323632Y1098024D01*
X1323669Y1097995D01*
X1323731Y1097974D01*
X1323790Y1097943D01*
X1323844Y1097935D01*
X1323881Y1097923D01*
X1323921Y1097924D01*
X1323975Y1097916D01*
X1327785Y1097916D01*
X1327850Y1097927D01*
G37*
G36*
X382970Y864247D02*
X382970Y864247D01*
X383036Y864249D01*
X383079Y864267D01*
X383126Y864275D01*
X383183Y864309D01*
X383243Y864334D01*
X383278Y864365D01*
X383319Y864390D01*
X383361Y864441D01*
X383409Y864485D01*
X383431Y864527D01*
X383460Y864564D01*
X383481Y864626D01*
X383512Y864685D01*
X383520Y864739D01*
X383532Y864776D01*
X383531Y864816D01*
X383539Y864870D01*
X383539Y867410D01*
X383528Y867475D01*
X383526Y867541D01*
X383508Y867584D01*
X383500Y867631D01*
X383466Y867688D01*
X383441Y867748D01*
X383410Y867783D01*
X383385Y867824D01*
X383334Y867866D01*
X383290Y867914D01*
X383248Y867936D01*
X383211Y867965D01*
X383149Y867986D01*
X383090Y868017D01*
X383036Y868025D01*
X382999Y868037D01*
X382959Y868036D01*
X382905Y868044D01*
X379095Y868044D01*
X379030Y868033D01*
X378964Y868031D01*
X378921Y868013D01*
X378874Y868005D01*
X378817Y867971D01*
X378757Y867946D01*
X378722Y867915D01*
X378681Y867890D01*
X378640Y867839D01*
X378591Y867795D01*
X378569Y867753D01*
X378540Y867716D01*
X378519Y867654D01*
X378488Y867595D01*
X378480Y867541D01*
X378468Y867504D01*
X378468Y867501D01*
X378469Y867464D01*
X378461Y867410D01*
X378461Y864870D01*
X378472Y864805D01*
X378474Y864739D01*
X378492Y864696D01*
X378500Y864649D01*
X378534Y864592D01*
X378559Y864532D01*
X378590Y864497D01*
X378615Y864456D01*
X378666Y864415D01*
X378710Y864366D01*
X378752Y864344D01*
X378789Y864315D01*
X378851Y864294D01*
X378910Y864263D01*
X378964Y864255D01*
X379001Y864243D01*
X379041Y864244D01*
X379095Y864236D01*
X382905Y864236D01*
X382970Y864247D01*
G37*
G36*
X1327850Y864247D02*
X1327850Y864247D01*
X1327916Y864249D01*
X1327959Y864267D01*
X1328006Y864275D01*
X1328063Y864309D01*
X1328123Y864334D01*
X1328158Y864365D01*
X1328199Y864390D01*
X1328241Y864441D01*
X1328289Y864485D01*
X1328311Y864527D01*
X1328340Y864564D01*
X1328361Y864626D01*
X1328392Y864685D01*
X1328400Y864739D01*
X1328412Y864776D01*
X1328411Y864816D01*
X1328419Y864870D01*
X1328419Y867410D01*
X1328408Y867475D01*
X1328406Y867541D01*
X1328388Y867584D01*
X1328380Y867631D01*
X1328346Y867688D01*
X1328321Y867748D01*
X1328290Y867783D01*
X1328265Y867824D01*
X1328214Y867866D01*
X1328170Y867914D01*
X1328128Y867936D01*
X1328091Y867965D01*
X1328029Y867986D01*
X1327970Y868017D01*
X1327916Y868025D01*
X1327879Y868037D01*
X1327839Y868036D01*
X1327785Y868044D01*
X1323975Y868044D01*
X1323910Y868033D01*
X1323844Y868031D01*
X1323801Y868013D01*
X1323754Y868005D01*
X1323697Y867971D01*
X1323637Y867946D01*
X1323602Y867915D01*
X1323561Y867890D01*
X1323520Y867839D01*
X1323471Y867795D01*
X1323449Y867753D01*
X1323420Y867716D01*
X1323399Y867654D01*
X1323368Y867595D01*
X1323360Y867541D01*
X1323348Y867504D01*
X1323348Y867501D01*
X1323349Y867464D01*
X1323341Y867410D01*
X1323341Y864870D01*
X1323352Y864805D01*
X1323354Y864739D01*
X1323372Y864696D01*
X1323380Y864649D01*
X1323414Y864592D01*
X1323439Y864532D01*
X1323470Y864497D01*
X1323495Y864456D01*
X1323546Y864415D01*
X1323590Y864366D01*
X1323632Y864344D01*
X1323669Y864315D01*
X1323731Y864294D01*
X1323790Y864263D01*
X1323844Y864255D01*
X1323881Y864243D01*
X1323921Y864244D01*
X1323975Y864236D01*
X1327785Y864236D01*
X1327850Y864247D01*
G37*
G36*
X382970Y838847D02*
X382970Y838847D01*
X383036Y838849D01*
X383079Y838867D01*
X383126Y838875D01*
X383183Y838909D01*
X383243Y838934D01*
X383278Y838965D01*
X383319Y838990D01*
X383361Y839041D01*
X383409Y839085D01*
X383431Y839127D01*
X383460Y839164D01*
X383481Y839226D01*
X383512Y839285D01*
X383520Y839339D01*
X383532Y839376D01*
X383531Y839416D01*
X383539Y839470D01*
X383539Y842010D01*
X383528Y842075D01*
X383526Y842141D01*
X383508Y842184D01*
X383500Y842231D01*
X383466Y842288D01*
X383441Y842348D01*
X383410Y842383D01*
X383385Y842424D01*
X383334Y842466D01*
X383290Y842514D01*
X383248Y842536D01*
X383211Y842565D01*
X383149Y842586D01*
X383090Y842617D01*
X383036Y842625D01*
X382999Y842637D01*
X382959Y842636D01*
X382905Y842644D01*
X379095Y842644D01*
X379030Y842633D01*
X378964Y842631D01*
X378921Y842613D01*
X378874Y842605D01*
X378817Y842571D01*
X378757Y842546D01*
X378722Y842515D01*
X378681Y842490D01*
X378640Y842439D01*
X378591Y842395D01*
X378569Y842353D01*
X378540Y842316D01*
X378519Y842254D01*
X378488Y842195D01*
X378480Y842141D01*
X378468Y842104D01*
X378468Y842101D01*
X378469Y842064D01*
X378461Y842010D01*
X378461Y839470D01*
X378472Y839405D01*
X378474Y839339D01*
X378492Y839296D01*
X378500Y839249D01*
X378534Y839192D01*
X378559Y839132D01*
X378590Y839097D01*
X378615Y839056D01*
X378666Y839015D01*
X378710Y838966D01*
X378752Y838944D01*
X378789Y838915D01*
X378851Y838894D01*
X378910Y838863D01*
X378964Y838855D01*
X379001Y838843D01*
X379041Y838844D01*
X379095Y838836D01*
X382905Y838836D01*
X382970Y838847D01*
G37*
G36*
X1327850Y838847D02*
X1327850Y838847D01*
X1327916Y838849D01*
X1327959Y838867D01*
X1328006Y838875D01*
X1328063Y838909D01*
X1328123Y838934D01*
X1328158Y838965D01*
X1328199Y838990D01*
X1328241Y839041D01*
X1328289Y839085D01*
X1328311Y839127D01*
X1328340Y839164D01*
X1328361Y839226D01*
X1328392Y839285D01*
X1328400Y839339D01*
X1328412Y839376D01*
X1328411Y839416D01*
X1328419Y839470D01*
X1328419Y842010D01*
X1328408Y842075D01*
X1328406Y842141D01*
X1328388Y842184D01*
X1328380Y842231D01*
X1328346Y842288D01*
X1328321Y842348D01*
X1328290Y842383D01*
X1328265Y842424D01*
X1328214Y842466D01*
X1328170Y842514D01*
X1328128Y842536D01*
X1328091Y842565D01*
X1328029Y842586D01*
X1327970Y842617D01*
X1327916Y842625D01*
X1327879Y842637D01*
X1327839Y842636D01*
X1327785Y842644D01*
X1323975Y842644D01*
X1323910Y842633D01*
X1323844Y842631D01*
X1323801Y842613D01*
X1323754Y842605D01*
X1323697Y842571D01*
X1323637Y842546D01*
X1323602Y842515D01*
X1323561Y842490D01*
X1323520Y842439D01*
X1323471Y842395D01*
X1323449Y842353D01*
X1323420Y842316D01*
X1323399Y842254D01*
X1323368Y842195D01*
X1323360Y842141D01*
X1323348Y842104D01*
X1323348Y842101D01*
X1323349Y842064D01*
X1323341Y842010D01*
X1323341Y839470D01*
X1323352Y839405D01*
X1323354Y839339D01*
X1323372Y839296D01*
X1323380Y839249D01*
X1323414Y839192D01*
X1323439Y839132D01*
X1323470Y839097D01*
X1323495Y839056D01*
X1323546Y839015D01*
X1323590Y838966D01*
X1323632Y838944D01*
X1323669Y838915D01*
X1323731Y838894D01*
X1323790Y838863D01*
X1323844Y838855D01*
X1323881Y838843D01*
X1323921Y838844D01*
X1323975Y838836D01*
X1327785Y838836D01*
X1327850Y838847D01*
G37*
G36*
X382970Y630567D02*
X382970Y630567D01*
X383036Y630569D01*
X383079Y630587D01*
X383126Y630595D01*
X383183Y630629D01*
X383243Y630654D01*
X383278Y630685D01*
X383319Y630710D01*
X383361Y630761D01*
X383409Y630805D01*
X383431Y630847D01*
X383460Y630884D01*
X383481Y630946D01*
X383512Y631005D01*
X383520Y631059D01*
X383532Y631096D01*
X383531Y631136D01*
X383539Y631190D01*
X383539Y633730D01*
X383528Y633795D01*
X383526Y633861D01*
X383508Y633904D01*
X383500Y633951D01*
X383466Y634008D01*
X383441Y634068D01*
X383410Y634103D01*
X383385Y634144D01*
X383334Y634186D01*
X383290Y634234D01*
X383248Y634256D01*
X383211Y634285D01*
X383149Y634306D01*
X383090Y634337D01*
X383036Y634345D01*
X382999Y634357D01*
X382959Y634356D01*
X382905Y634364D01*
X379095Y634364D01*
X379030Y634353D01*
X378964Y634351D01*
X378921Y634333D01*
X378874Y634325D01*
X378817Y634291D01*
X378757Y634266D01*
X378722Y634235D01*
X378681Y634210D01*
X378640Y634159D01*
X378591Y634115D01*
X378569Y634073D01*
X378540Y634036D01*
X378519Y633974D01*
X378488Y633915D01*
X378480Y633861D01*
X378468Y633824D01*
X378468Y633821D01*
X378469Y633784D01*
X378461Y633730D01*
X378461Y631190D01*
X378472Y631125D01*
X378474Y631059D01*
X378492Y631016D01*
X378500Y630969D01*
X378534Y630912D01*
X378559Y630852D01*
X378590Y630817D01*
X378615Y630776D01*
X378666Y630735D01*
X378710Y630686D01*
X378752Y630664D01*
X378789Y630635D01*
X378851Y630614D01*
X378910Y630583D01*
X378964Y630575D01*
X379001Y630563D01*
X379041Y630564D01*
X379095Y630556D01*
X382905Y630556D01*
X382970Y630567D01*
G37*
G36*
X1327850Y630567D02*
X1327850Y630567D01*
X1327916Y630569D01*
X1327959Y630587D01*
X1328006Y630595D01*
X1328063Y630629D01*
X1328123Y630654D01*
X1328158Y630685D01*
X1328199Y630710D01*
X1328241Y630761D01*
X1328289Y630805D01*
X1328311Y630847D01*
X1328340Y630884D01*
X1328361Y630946D01*
X1328392Y631005D01*
X1328400Y631059D01*
X1328412Y631096D01*
X1328411Y631136D01*
X1328419Y631190D01*
X1328419Y633730D01*
X1328408Y633795D01*
X1328406Y633861D01*
X1328388Y633904D01*
X1328380Y633951D01*
X1328346Y634008D01*
X1328321Y634068D01*
X1328290Y634103D01*
X1328265Y634144D01*
X1328214Y634186D01*
X1328170Y634234D01*
X1328128Y634256D01*
X1328091Y634285D01*
X1328029Y634306D01*
X1327970Y634337D01*
X1327916Y634345D01*
X1327879Y634357D01*
X1327839Y634356D01*
X1327785Y634364D01*
X1323975Y634364D01*
X1323910Y634353D01*
X1323844Y634351D01*
X1323801Y634333D01*
X1323754Y634325D01*
X1323697Y634291D01*
X1323637Y634266D01*
X1323602Y634235D01*
X1323561Y634210D01*
X1323520Y634159D01*
X1323471Y634115D01*
X1323449Y634073D01*
X1323420Y634036D01*
X1323399Y633974D01*
X1323368Y633915D01*
X1323360Y633861D01*
X1323348Y633824D01*
X1323348Y633821D01*
X1323349Y633784D01*
X1323341Y633730D01*
X1323341Y631190D01*
X1323352Y631125D01*
X1323354Y631059D01*
X1323372Y631016D01*
X1323380Y630969D01*
X1323414Y630912D01*
X1323439Y630852D01*
X1323470Y630817D01*
X1323495Y630776D01*
X1323546Y630735D01*
X1323590Y630686D01*
X1323632Y630664D01*
X1323669Y630635D01*
X1323731Y630614D01*
X1323790Y630583D01*
X1323844Y630575D01*
X1323881Y630563D01*
X1323921Y630564D01*
X1323975Y630556D01*
X1327785Y630556D01*
X1327850Y630567D01*
G37*
G36*
X382970Y605167D02*
X382970Y605167D01*
X383036Y605169D01*
X383079Y605187D01*
X383126Y605195D01*
X383183Y605229D01*
X383243Y605254D01*
X383278Y605285D01*
X383319Y605310D01*
X383361Y605361D01*
X383409Y605405D01*
X383431Y605447D01*
X383460Y605484D01*
X383481Y605546D01*
X383512Y605605D01*
X383520Y605659D01*
X383532Y605696D01*
X383531Y605736D01*
X383539Y605790D01*
X383539Y608330D01*
X383528Y608395D01*
X383526Y608461D01*
X383508Y608504D01*
X383500Y608551D01*
X383466Y608608D01*
X383441Y608668D01*
X383410Y608703D01*
X383385Y608744D01*
X383334Y608786D01*
X383290Y608834D01*
X383248Y608856D01*
X383211Y608885D01*
X383149Y608906D01*
X383090Y608937D01*
X383036Y608945D01*
X382999Y608957D01*
X382959Y608956D01*
X382905Y608964D01*
X379095Y608964D01*
X379030Y608953D01*
X378964Y608951D01*
X378921Y608933D01*
X378874Y608925D01*
X378817Y608891D01*
X378757Y608866D01*
X378722Y608835D01*
X378681Y608810D01*
X378640Y608759D01*
X378591Y608715D01*
X378569Y608673D01*
X378540Y608636D01*
X378519Y608574D01*
X378488Y608515D01*
X378480Y608461D01*
X378468Y608424D01*
X378468Y608421D01*
X378469Y608384D01*
X378461Y608330D01*
X378461Y605790D01*
X378472Y605725D01*
X378474Y605659D01*
X378492Y605616D01*
X378500Y605569D01*
X378534Y605512D01*
X378559Y605452D01*
X378590Y605417D01*
X378615Y605376D01*
X378666Y605335D01*
X378710Y605286D01*
X378752Y605264D01*
X378789Y605235D01*
X378851Y605214D01*
X378910Y605183D01*
X378964Y605175D01*
X379001Y605163D01*
X379041Y605164D01*
X379095Y605156D01*
X382905Y605156D01*
X382970Y605167D01*
G37*
G36*
X1327850Y605167D02*
X1327850Y605167D01*
X1327916Y605169D01*
X1327959Y605187D01*
X1328006Y605195D01*
X1328063Y605229D01*
X1328123Y605254D01*
X1328158Y605285D01*
X1328199Y605310D01*
X1328241Y605361D01*
X1328289Y605405D01*
X1328311Y605447D01*
X1328340Y605484D01*
X1328361Y605546D01*
X1328392Y605605D01*
X1328400Y605659D01*
X1328412Y605696D01*
X1328411Y605736D01*
X1328419Y605790D01*
X1328419Y608330D01*
X1328408Y608395D01*
X1328406Y608461D01*
X1328388Y608504D01*
X1328380Y608551D01*
X1328346Y608608D01*
X1328321Y608668D01*
X1328290Y608703D01*
X1328265Y608744D01*
X1328214Y608786D01*
X1328170Y608834D01*
X1328128Y608856D01*
X1328091Y608885D01*
X1328029Y608906D01*
X1327970Y608937D01*
X1327916Y608945D01*
X1327879Y608957D01*
X1327839Y608956D01*
X1327785Y608964D01*
X1323975Y608964D01*
X1323910Y608953D01*
X1323844Y608951D01*
X1323801Y608933D01*
X1323754Y608925D01*
X1323697Y608891D01*
X1323637Y608866D01*
X1323602Y608835D01*
X1323561Y608810D01*
X1323520Y608759D01*
X1323471Y608715D01*
X1323449Y608673D01*
X1323420Y608636D01*
X1323399Y608574D01*
X1323368Y608515D01*
X1323360Y608461D01*
X1323348Y608424D01*
X1323348Y608421D01*
X1323349Y608384D01*
X1323341Y608330D01*
X1323341Y605790D01*
X1323352Y605725D01*
X1323354Y605659D01*
X1323372Y605616D01*
X1323380Y605569D01*
X1323414Y605512D01*
X1323439Y605452D01*
X1323470Y605417D01*
X1323495Y605376D01*
X1323546Y605335D01*
X1323590Y605286D01*
X1323632Y605264D01*
X1323669Y605235D01*
X1323731Y605214D01*
X1323790Y605183D01*
X1323844Y605175D01*
X1323881Y605163D01*
X1323921Y605164D01*
X1323975Y605156D01*
X1327785Y605156D01*
X1327850Y605167D01*
G37*
G36*
X1449770Y592467D02*
X1449770Y592467D01*
X1449836Y592469D01*
X1449879Y592487D01*
X1449926Y592495D01*
X1449983Y592529D01*
X1450043Y592554D01*
X1450078Y592585D01*
X1450119Y592610D01*
X1450161Y592661D01*
X1450209Y592705D01*
X1450231Y592747D01*
X1450260Y592784D01*
X1450281Y592846D01*
X1450312Y592905D01*
X1450320Y592959D01*
X1450332Y592996D01*
X1450331Y593036D01*
X1450339Y593090D01*
X1450339Y595630D01*
X1450328Y595695D01*
X1450326Y595761D01*
X1450308Y595804D01*
X1450300Y595851D01*
X1450266Y595908D01*
X1450241Y595968D01*
X1450210Y596003D01*
X1450185Y596044D01*
X1450134Y596086D01*
X1450090Y596134D01*
X1450048Y596156D01*
X1450011Y596185D01*
X1449949Y596206D01*
X1449890Y596237D01*
X1449836Y596245D01*
X1449799Y596257D01*
X1449759Y596256D01*
X1449705Y596264D01*
X1445895Y596264D01*
X1445830Y596253D01*
X1445764Y596251D01*
X1445721Y596233D01*
X1445674Y596225D01*
X1445617Y596191D01*
X1445557Y596166D01*
X1445522Y596135D01*
X1445481Y596110D01*
X1445440Y596059D01*
X1445391Y596015D01*
X1445369Y595973D01*
X1445340Y595936D01*
X1445319Y595874D01*
X1445288Y595815D01*
X1445280Y595761D01*
X1445268Y595724D01*
X1445268Y595721D01*
X1445269Y595684D01*
X1445261Y595630D01*
X1445261Y593090D01*
X1445272Y593025D01*
X1445274Y592959D01*
X1445292Y592916D01*
X1445300Y592869D01*
X1445334Y592812D01*
X1445359Y592752D01*
X1445390Y592717D01*
X1445415Y592676D01*
X1445466Y592635D01*
X1445510Y592586D01*
X1445552Y592564D01*
X1445589Y592535D01*
X1445651Y592514D01*
X1445710Y592483D01*
X1445764Y592475D01*
X1445801Y592463D01*
X1445841Y592464D01*
X1445895Y592456D01*
X1449705Y592456D01*
X1449770Y592467D01*
G37*
G36*
X504890Y592467D02*
X504890Y592467D01*
X504956Y592469D01*
X504999Y592487D01*
X505046Y592495D01*
X505103Y592529D01*
X505163Y592554D01*
X505198Y592585D01*
X505239Y592610D01*
X505281Y592661D01*
X505329Y592705D01*
X505351Y592747D01*
X505380Y592784D01*
X505401Y592846D01*
X505432Y592905D01*
X505440Y592959D01*
X505452Y592996D01*
X505451Y593036D01*
X505459Y593090D01*
X505459Y595630D01*
X505448Y595695D01*
X505446Y595761D01*
X505428Y595804D01*
X505420Y595851D01*
X505386Y595908D01*
X505361Y595968D01*
X505330Y596003D01*
X505305Y596044D01*
X505254Y596086D01*
X505210Y596134D01*
X505168Y596156D01*
X505131Y596185D01*
X505069Y596206D01*
X505010Y596237D01*
X504956Y596245D01*
X504919Y596257D01*
X504879Y596256D01*
X504825Y596264D01*
X501015Y596264D01*
X500950Y596253D01*
X500884Y596251D01*
X500841Y596233D01*
X500794Y596225D01*
X500737Y596191D01*
X500677Y596166D01*
X500642Y596135D01*
X500601Y596110D01*
X500560Y596059D01*
X500511Y596015D01*
X500489Y595973D01*
X500460Y595936D01*
X500439Y595874D01*
X500408Y595815D01*
X500400Y595761D01*
X500388Y595724D01*
X500388Y595721D01*
X500389Y595684D01*
X500381Y595630D01*
X500381Y593090D01*
X500392Y593025D01*
X500394Y592959D01*
X500412Y592916D01*
X500420Y592869D01*
X500454Y592812D01*
X500479Y592752D01*
X500510Y592717D01*
X500535Y592676D01*
X500586Y592635D01*
X500630Y592586D01*
X500672Y592564D01*
X500709Y592535D01*
X500771Y592514D01*
X500830Y592483D01*
X500884Y592475D01*
X500921Y592463D01*
X500961Y592464D01*
X501015Y592456D01*
X504825Y592456D01*
X504890Y592467D01*
G37*
G36*
X388050Y567067D02*
X388050Y567067D01*
X388116Y567069D01*
X388159Y567087D01*
X388206Y567095D01*
X388263Y567129D01*
X388323Y567154D01*
X388358Y567185D01*
X388399Y567210D01*
X388441Y567261D01*
X388489Y567305D01*
X388511Y567347D01*
X388540Y567384D01*
X388561Y567446D01*
X388592Y567505D01*
X388600Y567559D01*
X388612Y567596D01*
X388611Y567636D01*
X388619Y567690D01*
X388619Y570230D01*
X388608Y570295D01*
X388606Y570361D01*
X388588Y570404D01*
X388580Y570451D01*
X388546Y570508D01*
X388521Y570568D01*
X388490Y570603D01*
X388465Y570644D01*
X388414Y570686D01*
X388370Y570734D01*
X388328Y570756D01*
X388291Y570785D01*
X388229Y570806D01*
X388170Y570837D01*
X388116Y570845D01*
X388079Y570857D01*
X388039Y570856D01*
X387985Y570864D01*
X384175Y570864D01*
X384110Y570853D01*
X384044Y570851D01*
X384001Y570833D01*
X383954Y570825D01*
X383897Y570791D01*
X383837Y570766D01*
X383802Y570735D01*
X383761Y570710D01*
X383720Y570659D01*
X383671Y570615D01*
X383649Y570573D01*
X383620Y570536D01*
X383599Y570474D01*
X383568Y570415D01*
X383560Y570361D01*
X383548Y570324D01*
X383548Y570321D01*
X383549Y570284D01*
X383541Y570230D01*
X383541Y567690D01*
X383552Y567625D01*
X383554Y567559D01*
X383572Y567516D01*
X383580Y567469D01*
X383614Y567412D01*
X383639Y567352D01*
X383670Y567317D01*
X383695Y567276D01*
X383746Y567235D01*
X383790Y567186D01*
X383832Y567164D01*
X383869Y567135D01*
X383931Y567114D01*
X383990Y567083D01*
X384044Y567075D01*
X384081Y567063D01*
X384121Y567064D01*
X384175Y567056D01*
X387985Y567056D01*
X388050Y567067D01*
G37*
G36*
X1332930Y567067D02*
X1332930Y567067D01*
X1332996Y567069D01*
X1333039Y567087D01*
X1333086Y567095D01*
X1333143Y567129D01*
X1333203Y567154D01*
X1333238Y567185D01*
X1333279Y567210D01*
X1333321Y567261D01*
X1333369Y567305D01*
X1333391Y567347D01*
X1333420Y567384D01*
X1333441Y567446D01*
X1333472Y567505D01*
X1333480Y567559D01*
X1333492Y567596D01*
X1333491Y567636D01*
X1333499Y567690D01*
X1333499Y570230D01*
X1333488Y570295D01*
X1333486Y570361D01*
X1333468Y570404D01*
X1333460Y570451D01*
X1333426Y570508D01*
X1333401Y570568D01*
X1333370Y570603D01*
X1333345Y570644D01*
X1333294Y570686D01*
X1333250Y570734D01*
X1333208Y570756D01*
X1333171Y570785D01*
X1333109Y570806D01*
X1333050Y570837D01*
X1332996Y570845D01*
X1332959Y570857D01*
X1332919Y570856D01*
X1332865Y570864D01*
X1329055Y570864D01*
X1328990Y570853D01*
X1328924Y570851D01*
X1328881Y570833D01*
X1328834Y570825D01*
X1328777Y570791D01*
X1328717Y570766D01*
X1328682Y570735D01*
X1328641Y570710D01*
X1328600Y570659D01*
X1328551Y570615D01*
X1328529Y570573D01*
X1328500Y570536D01*
X1328479Y570474D01*
X1328448Y570415D01*
X1328440Y570361D01*
X1328428Y570324D01*
X1328428Y570321D01*
X1328429Y570284D01*
X1328421Y570230D01*
X1328421Y567690D01*
X1328432Y567625D01*
X1328434Y567559D01*
X1328452Y567516D01*
X1328460Y567469D01*
X1328494Y567412D01*
X1328519Y567352D01*
X1328550Y567317D01*
X1328575Y567276D01*
X1328626Y567235D01*
X1328670Y567186D01*
X1328712Y567164D01*
X1328749Y567135D01*
X1328811Y567114D01*
X1328870Y567083D01*
X1328924Y567075D01*
X1328961Y567063D01*
X1329001Y567064D01*
X1329055Y567056D01*
X1332865Y567056D01*
X1332930Y567067D01*
G37*
G36*
X377890Y567067D02*
X377890Y567067D01*
X377956Y567069D01*
X377999Y567087D01*
X378046Y567095D01*
X378103Y567129D01*
X378163Y567154D01*
X378198Y567185D01*
X378239Y567210D01*
X378281Y567261D01*
X378329Y567305D01*
X378351Y567347D01*
X378380Y567384D01*
X378401Y567446D01*
X378432Y567505D01*
X378440Y567559D01*
X378452Y567596D01*
X378451Y567636D01*
X378459Y567690D01*
X378459Y570230D01*
X378448Y570295D01*
X378446Y570361D01*
X378428Y570404D01*
X378420Y570451D01*
X378386Y570508D01*
X378361Y570568D01*
X378330Y570603D01*
X378305Y570644D01*
X378254Y570686D01*
X378210Y570734D01*
X378168Y570756D01*
X378131Y570785D01*
X378069Y570806D01*
X378010Y570837D01*
X377956Y570845D01*
X377919Y570857D01*
X377879Y570856D01*
X377825Y570864D01*
X374015Y570864D01*
X373950Y570853D01*
X373884Y570851D01*
X373841Y570833D01*
X373794Y570825D01*
X373737Y570791D01*
X373677Y570766D01*
X373642Y570735D01*
X373601Y570710D01*
X373560Y570659D01*
X373511Y570615D01*
X373489Y570573D01*
X373460Y570536D01*
X373439Y570474D01*
X373408Y570415D01*
X373400Y570361D01*
X373388Y570324D01*
X373388Y570321D01*
X373389Y570284D01*
X373381Y570230D01*
X373381Y567690D01*
X373392Y567625D01*
X373394Y567559D01*
X373412Y567516D01*
X373420Y567469D01*
X373454Y567412D01*
X373479Y567352D01*
X373510Y567317D01*
X373535Y567276D01*
X373586Y567235D01*
X373630Y567186D01*
X373672Y567164D01*
X373709Y567135D01*
X373771Y567114D01*
X373830Y567083D01*
X373884Y567075D01*
X373921Y567063D01*
X373961Y567064D01*
X374015Y567056D01*
X377825Y567056D01*
X377890Y567067D01*
G37*
G36*
X1322770Y567067D02*
X1322770Y567067D01*
X1322836Y567069D01*
X1322879Y567087D01*
X1322926Y567095D01*
X1322983Y567129D01*
X1323043Y567154D01*
X1323078Y567185D01*
X1323119Y567210D01*
X1323161Y567261D01*
X1323209Y567305D01*
X1323231Y567347D01*
X1323260Y567384D01*
X1323281Y567446D01*
X1323312Y567505D01*
X1323320Y567559D01*
X1323332Y567596D01*
X1323331Y567636D01*
X1323339Y567690D01*
X1323339Y570230D01*
X1323328Y570295D01*
X1323326Y570361D01*
X1323308Y570404D01*
X1323300Y570451D01*
X1323266Y570508D01*
X1323241Y570568D01*
X1323210Y570603D01*
X1323185Y570644D01*
X1323134Y570686D01*
X1323090Y570734D01*
X1323048Y570756D01*
X1323011Y570785D01*
X1322949Y570806D01*
X1322890Y570837D01*
X1322836Y570845D01*
X1322799Y570857D01*
X1322759Y570856D01*
X1322705Y570864D01*
X1318895Y570864D01*
X1318830Y570853D01*
X1318764Y570851D01*
X1318721Y570833D01*
X1318674Y570825D01*
X1318617Y570791D01*
X1318557Y570766D01*
X1318522Y570735D01*
X1318481Y570710D01*
X1318440Y570659D01*
X1318391Y570615D01*
X1318369Y570573D01*
X1318340Y570536D01*
X1318319Y570474D01*
X1318288Y570415D01*
X1318280Y570361D01*
X1318268Y570324D01*
X1318268Y570321D01*
X1318269Y570284D01*
X1318261Y570230D01*
X1318261Y567690D01*
X1318272Y567625D01*
X1318274Y567559D01*
X1318292Y567516D01*
X1318300Y567469D01*
X1318334Y567412D01*
X1318359Y567352D01*
X1318390Y567317D01*
X1318415Y567276D01*
X1318466Y567235D01*
X1318510Y567186D01*
X1318552Y567164D01*
X1318589Y567135D01*
X1318651Y567114D01*
X1318710Y567083D01*
X1318764Y567075D01*
X1318801Y567063D01*
X1318841Y567064D01*
X1318895Y567056D01*
X1322705Y567056D01*
X1322770Y567067D01*
G37*
G36*
X1327850Y396887D02*
X1327850Y396887D01*
X1327916Y396889D01*
X1327959Y396907D01*
X1328006Y396915D01*
X1328063Y396949D01*
X1328123Y396974D01*
X1328158Y397005D01*
X1328199Y397030D01*
X1328241Y397081D01*
X1328289Y397125D01*
X1328311Y397167D01*
X1328340Y397204D01*
X1328361Y397266D01*
X1328392Y397325D01*
X1328400Y397379D01*
X1328412Y397416D01*
X1328411Y397456D01*
X1328419Y397510D01*
X1328419Y400050D01*
X1328408Y400115D01*
X1328406Y400181D01*
X1328388Y400224D01*
X1328380Y400271D01*
X1328346Y400328D01*
X1328321Y400388D01*
X1328290Y400423D01*
X1328265Y400464D01*
X1328214Y400506D01*
X1328170Y400554D01*
X1328128Y400576D01*
X1328091Y400605D01*
X1328029Y400626D01*
X1327970Y400657D01*
X1327916Y400665D01*
X1327879Y400677D01*
X1327839Y400676D01*
X1327785Y400684D01*
X1323975Y400684D01*
X1323910Y400673D01*
X1323844Y400671D01*
X1323801Y400653D01*
X1323754Y400645D01*
X1323697Y400611D01*
X1323637Y400586D01*
X1323602Y400555D01*
X1323561Y400530D01*
X1323520Y400479D01*
X1323471Y400435D01*
X1323449Y400393D01*
X1323420Y400356D01*
X1323399Y400294D01*
X1323368Y400235D01*
X1323360Y400181D01*
X1323348Y400144D01*
X1323348Y400141D01*
X1323349Y400104D01*
X1323341Y400050D01*
X1323341Y397510D01*
X1323352Y397445D01*
X1323354Y397379D01*
X1323372Y397336D01*
X1323380Y397289D01*
X1323414Y397232D01*
X1323439Y397172D01*
X1323470Y397137D01*
X1323495Y397096D01*
X1323546Y397055D01*
X1323590Y397006D01*
X1323632Y396984D01*
X1323669Y396955D01*
X1323731Y396934D01*
X1323790Y396903D01*
X1323844Y396895D01*
X1323881Y396883D01*
X1323921Y396884D01*
X1323975Y396876D01*
X1327785Y396876D01*
X1327850Y396887D01*
G37*
G36*
X382970Y396887D02*
X382970Y396887D01*
X383036Y396889D01*
X383079Y396907D01*
X383126Y396915D01*
X383183Y396949D01*
X383243Y396974D01*
X383278Y397005D01*
X383319Y397030D01*
X383361Y397081D01*
X383409Y397125D01*
X383431Y397167D01*
X383460Y397204D01*
X383481Y397266D01*
X383512Y397325D01*
X383520Y397379D01*
X383532Y397416D01*
X383531Y397456D01*
X383539Y397510D01*
X383539Y400050D01*
X383528Y400115D01*
X383526Y400181D01*
X383508Y400224D01*
X383500Y400271D01*
X383466Y400328D01*
X383441Y400388D01*
X383410Y400423D01*
X383385Y400464D01*
X383334Y400506D01*
X383290Y400554D01*
X383248Y400576D01*
X383211Y400605D01*
X383149Y400626D01*
X383090Y400657D01*
X383036Y400665D01*
X382999Y400677D01*
X382959Y400676D01*
X382905Y400684D01*
X379095Y400684D01*
X379030Y400673D01*
X378964Y400671D01*
X378921Y400653D01*
X378874Y400645D01*
X378817Y400611D01*
X378757Y400586D01*
X378722Y400555D01*
X378681Y400530D01*
X378640Y400479D01*
X378591Y400435D01*
X378569Y400393D01*
X378540Y400356D01*
X378519Y400294D01*
X378488Y400235D01*
X378480Y400181D01*
X378468Y400144D01*
X378468Y400141D01*
X378469Y400104D01*
X378461Y400050D01*
X378461Y397510D01*
X378472Y397445D01*
X378474Y397379D01*
X378492Y397336D01*
X378500Y397289D01*
X378534Y397232D01*
X378559Y397172D01*
X378590Y397137D01*
X378615Y397096D01*
X378666Y397055D01*
X378710Y397006D01*
X378752Y396984D01*
X378789Y396955D01*
X378851Y396934D01*
X378910Y396903D01*
X378964Y396895D01*
X379001Y396883D01*
X379041Y396884D01*
X379095Y396876D01*
X382905Y396876D01*
X382970Y396887D01*
G37*
G36*
X1327850Y371487D02*
X1327850Y371487D01*
X1327916Y371489D01*
X1327959Y371507D01*
X1328006Y371515D01*
X1328063Y371549D01*
X1328123Y371574D01*
X1328158Y371605D01*
X1328199Y371630D01*
X1328241Y371681D01*
X1328289Y371725D01*
X1328311Y371767D01*
X1328340Y371804D01*
X1328361Y371866D01*
X1328392Y371925D01*
X1328400Y371979D01*
X1328412Y372016D01*
X1328411Y372056D01*
X1328419Y372110D01*
X1328419Y374650D01*
X1328408Y374715D01*
X1328406Y374781D01*
X1328388Y374824D01*
X1328380Y374871D01*
X1328346Y374928D01*
X1328321Y374988D01*
X1328290Y375023D01*
X1328265Y375064D01*
X1328214Y375106D01*
X1328170Y375154D01*
X1328128Y375176D01*
X1328091Y375205D01*
X1328029Y375226D01*
X1327970Y375257D01*
X1327916Y375265D01*
X1327879Y375277D01*
X1327839Y375276D01*
X1327785Y375284D01*
X1323975Y375284D01*
X1323910Y375273D01*
X1323844Y375271D01*
X1323801Y375253D01*
X1323754Y375245D01*
X1323697Y375211D01*
X1323637Y375186D01*
X1323602Y375155D01*
X1323561Y375130D01*
X1323520Y375079D01*
X1323471Y375035D01*
X1323449Y374993D01*
X1323420Y374956D01*
X1323399Y374894D01*
X1323368Y374835D01*
X1323360Y374781D01*
X1323348Y374744D01*
X1323348Y374741D01*
X1323349Y374704D01*
X1323341Y374650D01*
X1323341Y372110D01*
X1323352Y372045D01*
X1323354Y371979D01*
X1323372Y371936D01*
X1323380Y371889D01*
X1323414Y371832D01*
X1323439Y371772D01*
X1323470Y371737D01*
X1323495Y371696D01*
X1323546Y371655D01*
X1323590Y371606D01*
X1323632Y371584D01*
X1323669Y371555D01*
X1323731Y371534D01*
X1323790Y371503D01*
X1323844Y371495D01*
X1323881Y371483D01*
X1323921Y371484D01*
X1323975Y371476D01*
X1327785Y371476D01*
X1327850Y371487D01*
G37*
G36*
X382970Y371487D02*
X382970Y371487D01*
X383036Y371489D01*
X383079Y371507D01*
X383126Y371515D01*
X383183Y371549D01*
X383243Y371574D01*
X383278Y371605D01*
X383319Y371630D01*
X383361Y371681D01*
X383409Y371725D01*
X383431Y371767D01*
X383460Y371804D01*
X383481Y371866D01*
X383512Y371925D01*
X383520Y371979D01*
X383532Y372016D01*
X383531Y372056D01*
X383539Y372110D01*
X383539Y374650D01*
X383528Y374715D01*
X383526Y374781D01*
X383508Y374824D01*
X383500Y374871D01*
X383466Y374928D01*
X383441Y374988D01*
X383410Y375023D01*
X383385Y375064D01*
X383334Y375106D01*
X383290Y375154D01*
X383248Y375176D01*
X383211Y375205D01*
X383149Y375226D01*
X383090Y375257D01*
X383036Y375265D01*
X382999Y375277D01*
X382959Y375276D01*
X382905Y375284D01*
X379095Y375284D01*
X379030Y375273D01*
X378964Y375271D01*
X378921Y375253D01*
X378874Y375245D01*
X378817Y375211D01*
X378757Y375186D01*
X378722Y375155D01*
X378681Y375130D01*
X378640Y375079D01*
X378591Y375035D01*
X378569Y374993D01*
X378540Y374956D01*
X378519Y374894D01*
X378488Y374835D01*
X378480Y374781D01*
X378468Y374744D01*
X378468Y374741D01*
X378469Y374704D01*
X378461Y374650D01*
X378461Y372110D01*
X378472Y372045D01*
X378474Y371979D01*
X378492Y371936D01*
X378500Y371889D01*
X378534Y371832D01*
X378559Y371772D01*
X378590Y371737D01*
X378615Y371696D01*
X378666Y371655D01*
X378710Y371606D01*
X378752Y371584D01*
X378789Y371555D01*
X378851Y371534D01*
X378910Y371503D01*
X378964Y371495D01*
X379001Y371483D01*
X379041Y371484D01*
X379095Y371476D01*
X382905Y371476D01*
X382970Y371487D01*
G37*
G36*
X1449770Y358787D02*
X1449770Y358787D01*
X1449836Y358789D01*
X1449879Y358807D01*
X1449926Y358815D01*
X1449983Y358849D01*
X1450043Y358874D01*
X1450078Y358905D01*
X1450119Y358930D01*
X1450161Y358981D01*
X1450209Y359025D01*
X1450231Y359067D01*
X1450260Y359104D01*
X1450281Y359166D01*
X1450312Y359225D01*
X1450320Y359279D01*
X1450332Y359316D01*
X1450331Y359356D01*
X1450339Y359410D01*
X1450339Y361950D01*
X1450328Y362015D01*
X1450326Y362081D01*
X1450308Y362124D01*
X1450300Y362171D01*
X1450266Y362228D01*
X1450241Y362288D01*
X1450210Y362323D01*
X1450185Y362364D01*
X1450134Y362406D01*
X1450090Y362454D01*
X1450048Y362476D01*
X1450011Y362505D01*
X1449949Y362526D01*
X1449890Y362557D01*
X1449836Y362565D01*
X1449799Y362577D01*
X1449759Y362576D01*
X1449705Y362584D01*
X1445895Y362584D01*
X1445830Y362573D01*
X1445764Y362571D01*
X1445721Y362553D01*
X1445674Y362545D01*
X1445617Y362511D01*
X1445557Y362486D01*
X1445522Y362455D01*
X1445481Y362430D01*
X1445440Y362379D01*
X1445391Y362335D01*
X1445369Y362293D01*
X1445340Y362256D01*
X1445319Y362194D01*
X1445288Y362135D01*
X1445280Y362081D01*
X1445268Y362044D01*
X1445268Y362041D01*
X1445269Y362004D01*
X1445261Y361950D01*
X1445261Y359410D01*
X1445272Y359345D01*
X1445274Y359279D01*
X1445292Y359236D01*
X1445300Y359189D01*
X1445334Y359132D01*
X1445359Y359072D01*
X1445390Y359037D01*
X1445415Y358996D01*
X1445466Y358955D01*
X1445510Y358906D01*
X1445552Y358884D01*
X1445589Y358855D01*
X1445651Y358834D01*
X1445710Y358803D01*
X1445764Y358795D01*
X1445801Y358783D01*
X1445841Y358784D01*
X1445895Y358776D01*
X1449705Y358776D01*
X1449770Y358787D01*
G37*
G36*
X504890Y358787D02*
X504890Y358787D01*
X504956Y358789D01*
X504999Y358807D01*
X505046Y358815D01*
X505103Y358849D01*
X505163Y358874D01*
X505198Y358905D01*
X505239Y358930D01*
X505281Y358981D01*
X505329Y359025D01*
X505351Y359067D01*
X505380Y359104D01*
X505401Y359166D01*
X505432Y359225D01*
X505440Y359279D01*
X505452Y359316D01*
X505451Y359356D01*
X505459Y359410D01*
X505459Y361950D01*
X505448Y362015D01*
X505446Y362081D01*
X505428Y362124D01*
X505420Y362171D01*
X505386Y362228D01*
X505361Y362288D01*
X505330Y362323D01*
X505305Y362364D01*
X505254Y362406D01*
X505210Y362454D01*
X505168Y362476D01*
X505131Y362505D01*
X505069Y362526D01*
X505010Y362557D01*
X504956Y362565D01*
X504919Y362577D01*
X504879Y362576D01*
X504825Y362584D01*
X501015Y362584D01*
X500950Y362573D01*
X500884Y362571D01*
X500841Y362553D01*
X500794Y362545D01*
X500737Y362511D01*
X500677Y362486D01*
X500642Y362455D01*
X500601Y362430D01*
X500560Y362379D01*
X500511Y362335D01*
X500489Y362293D01*
X500460Y362256D01*
X500439Y362194D01*
X500408Y362135D01*
X500400Y362081D01*
X500388Y362044D01*
X500388Y362041D01*
X500389Y362004D01*
X500381Y361950D01*
X500381Y359410D01*
X500392Y359345D01*
X500394Y359279D01*
X500412Y359236D01*
X500420Y359189D01*
X500454Y359132D01*
X500479Y359072D01*
X500510Y359037D01*
X500535Y358996D01*
X500586Y358955D01*
X500630Y358906D01*
X500672Y358884D01*
X500709Y358855D01*
X500771Y358834D01*
X500830Y358803D01*
X500884Y358795D01*
X500921Y358783D01*
X500961Y358784D01*
X501015Y358776D01*
X504825Y358776D01*
X504890Y358787D01*
G37*
G36*
X382970Y1097927D02*
X382970Y1097927D01*
X383036Y1097929D01*
X383079Y1097947D01*
X383126Y1097955D01*
X383183Y1097989D01*
X383243Y1098014D01*
X383278Y1098045D01*
X383319Y1098070D01*
X383361Y1098121D01*
X383409Y1098165D01*
X383431Y1098207D01*
X383460Y1098244D01*
X383481Y1098306D01*
X383512Y1098365D01*
X383520Y1098419D01*
X383532Y1098456D01*
X383531Y1098496D01*
X383539Y1098550D01*
X383539Y1101090D01*
X383528Y1101155D01*
X383526Y1101221D01*
X383508Y1101264D01*
X383500Y1101311D01*
X383466Y1101368D01*
X383441Y1101428D01*
X383410Y1101463D01*
X383385Y1101504D01*
X383334Y1101546D01*
X383290Y1101594D01*
X383248Y1101616D01*
X383211Y1101645D01*
X383149Y1101666D01*
X383090Y1101697D01*
X383036Y1101705D01*
X382999Y1101717D01*
X382959Y1101716D01*
X382905Y1101724D01*
X379095Y1101724D01*
X379030Y1101713D01*
X378964Y1101711D01*
X378921Y1101693D01*
X378874Y1101685D01*
X378817Y1101651D01*
X378757Y1101626D01*
X378722Y1101595D01*
X378681Y1101570D01*
X378640Y1101519D01*
X378591Y1101475D01*
X378569Y1101433D01*
X378540Y1101396D01*
X378519Y1101334D01*
X378488Y1101275D01*
X378480Y1101221D01*
X378468Y1101184D01*
X378468Y1101181D01*
X378469Y1101144D01*
X378461Y1101090D01*
X378461Y1098550D01*
X378472Y1098485D01*
X378474Y1098419D01*
X378492Y1098376D01*
X378500Y1098329D01*
X378534Y1098272D01*
X378559Y1098212D01*
X378590Y1098177D01*
X378615Y1098136D01*
X378666Y1098095D01*
X378710Y1098046D01*
X378752Y1098024D01*
X378789Y1097995D01*
X378851Y1097974D01*
X378910Y1097943D01*
X378964Y1097935D01*
X379001Y1097923D01*
X379041Y1097924D01*
X379095Y1097916D01*
X382905Y1097916D01*
X382970Y1097927D01*
G37*
G36*
X1327850Y1072527D02*
X1327850Y1072527D01*
X1327916Y1072529D01*
X1327959Y1072547D01*
X1328006Y1072555D01*
X1328063Y1072589D01*
X1328123Y1072614D01*
X1328158Y1072645D01*
X1328199Y1072670D01*
X1328241Y1072721D01*
X1328289Y1072765D01*
X1328311Y1072807D01*
X1328340Y1072844D01*
X1328361Y1072906D01*
X1328392Y1072965D01*
X1328400Y1073019D01*
X1328412Y1073056D01*
X1328411Y1073096D01*
X1328419Y1073150D01*
X1328419Y1075690D01*
X1328408Y1075755D01*
X1328406Y1075821D01*
X1328388Y1075864D01*
X1328380Y1075911D01*
X1328346Y1075968D01*
X1328321Y1076028D01*
X1328290Y1076063D01*
X1328265Y1076104D01*
X1328214Y1076146D01*
X1328170Y1076194D01*
X1328128Y1076216D01*
X1328091Y1076245D01*
X1328029Y1076266D01*
X1327970Y1076297D01*
X1327916Y1076305D01*
X1327879Y1076317D01*
X1327839Y1076316D01*
X1327785Y1076324D01*
X1323975Y1076324D01*
X1323910Y1076313D01*
X1323844Y1076311D01*
X1323801Y1076293D01*
X1323754Y1076285D01*
X1323697Y1076251D01*
X1323637Y1076226D01*
X1323602Y1076195D01*
X1323561Y1076170D01*
X1323520Y1076119D01*
X1323471Y1076075D01*
X1323449Y1076033D01*
X1323420Y1075996D01*
X1323399Y1075934D01*
X1323368Y1075875D01*
X1323360Y1075821D01*
X1323348Y1075784D01*
X1323348Y1075781D01*
X1323349Y1075744D01*
X1323341Y1075690D01*
X1323341Y1073150D01*
X1323352Y1073085D01*
X1323354Y1073019D01*
X1323372Y1072976D01*
X1323380Y1072929D01*
X1323414Y1072872D01*
X1323439Y1072812D01*
X1323470Y1072777D01*
X1323495Y1072736D01*
X1323546Y1072695D01*
X1323590Y1072646D01*
X1323632Y1072624D01*
X1323669Y1072595D01*
X1323731Y1072574D01*
X1323790Y1072543D01*
X1323844Y1072535D01*
X1323881Y1072523D01*
X1323921Y1072524D01*
X1323975Y1072516D01*
X1327785Y1072516D01*
X1327850Y1072527D01*
G37*
G36*
X382970Y1072527D02*
X382970Y1072527D01*
X383036Y1072529D01*
X383079Y1072547D01*
X383126Y1072555D01*
X383183Y1072589D01*
X383243Y1072614D01*
X383278Y1072645D01*
X383319Y1072670D01*
X383361Y1072721D01*
X383409Y1072765D01*
X383431Y1072807D01*
X383460Y1072844D01*
X383481Y1072906D01*
X383512Y1072965D01*
X383520Y1073019D01*
X383532Y1073056D01*
X383531Y1073096D01*
X383539Y1073150D01*
X383539Y1075690D01*
X383528Y1075755D01*
X383526Y1075821D01*
X383508Y1075864D01*
X383500Y1075911D01*
X383466Y1075968D01*
X383441Y1076028D01*
X383410Y1076063D01*
X383385Y1076104D01*
X383334Y1076146D01*
X383290Y1076194D01*
X383248Y1076216D01*
X383211Y1076245D01*
X383149Y1076266D01*
X383090Y1076297D01*
X383036Y1076305D01*
X382999Y1076317D01*
X382959Y1076316D01*
X382905Y1076324D01*
X379095Y1076324D01*
X379030Y1076313D01*
X378964Y1076311D01*
X378921Y1076293D01*
X378874Y1076285D01*
X378817Y1076251D01*
X378757Y1076226D01*
X378722Y1076195D01*
X378681Y1076170D01*
X378640Y1076119D01*
X378591Y1076075D01*
X378569Y1076033D01*
X378540Y1075996D01*
X378519Y1075934D01*
X378488Y1075875D01*
X378480Y1075821D01*
X378468Y1075784D01*
X378468Y1075781D01*
X378469Y1075744D01*
X378461Y1075690D01*
X378461Y1073150D01*
X378472Y1073085D01*
X378474Y1073019D01*
X378492Y1072976D01*
X378500Y1072929D01*
X378534Y1072872D01*
X378559Y1072812D01*
X378590Y1072777D01*
X378615Y1072736D01*
X378666Y1072695D01*
X378710Y1072646D01*
X378752Y1072624D01*
X378789Y1072595D01*
X378851Y1072574D01*
X378910Y1072543D01*
X378964Y1072535D01*
X379001Y1072523D01*
X379041Y1072524D01*
X379095Y1072516D01*
X382905Y1072516D01*
X382970Y1072527D01*
G37*
G36*
X504890Y1059827D02*
X504890Y1059827D01*
X504956Y1059829D01*
X504999Y1059847D01*
X505046Y1059855D01*
X505103Y1059889D01*
X505163Y1059914D01*
X505198Y1059945D01*
X505239Y1059970D01*
X505281Y1060021D01*
X505329Y1060065D01*
X505351Y1060107D01*
X505380Y1060144D01*
X505401Y1060206D01*
X505432Y1060265D01*
X505440Y1060319D01*
X505452Y1060356D01*
X505451Y1060396D01*
X505459Y1060450D01*
X505459Y1062990D01*
X505448Y1063055D01*
X505446Y1063121D01*
X505428Y1063164D01*
X505420Y1063211D01*
X505386Y1063268D01*
X505361Y1063328D01*
X505330Y1063363D01*
X505305Y1063404D01*
X505254Y1063446D01*
X505210Y1063494D01*
X505168Y1063516D01*
X505131Y1063545D01*
X505069Y1063566D01*
X505010Y1063597D01*
X504956Y1063605D01*
X504919Y1063617D01*
X504879Y1063616D01*
X504825Y1063624D01*
X501015Y1063624D01*
X500950Y1063613D01*
X500884Y1063611D01*
X500841Y1063593D01*
X500794Y1063585D01*
X500737Y1063551D01*
X500677Y1063526D01*
X500642Y1063495D01*
X500601Y1063470D01*
X500560Y1063419D01*
X500511Y1063375D01*
X500489Y1063333D01*
X500460Y1063296D01*
X500439Y1063234D01*
X500408Y1063175D01*
X500400Y1063121D01*
X500388Y1063084D01*
X500388Y1063081D01*
X500389Y1063044D01*
X500381Y1062990D01*
X500381Y1060450D01*
X500392Y1060385D01*
X500394Y1060319D01*
X500412Y1060276D01*
X500420Y1060229D01*
X500454Y1060172D01*
X500479Y1060112D01*
X500510Y1060077D01*
X500535Y1060036D01*
X500586Y1059995D01*
X500630Y1059946D01*
X500672Y1059924D01*
X500709Y1059895D01*
X500771Y1059874D01*
X500830Y1059843D01*
X500884Y1059835D01*
X500921Y1059823D01*
X500961Y1059824D01*
X501015Y1059816D01*
X504825Y1059816D01*
X504890Y1059827D01*
G37*
G36*
X382970Y163207D02*
X382970Y163207D01*
X383036Y163209D01*
X383079Y163227D01*
X383126Y163235D01*
X383183Y163269D01*
X383243Y163294D01*
X383278Y163325D01*
X383319Y163350D01*
X383361Y163401D01*
X383409Y163445D01*
X383431Y163487D01*
X383460Y163524D01*
X383481Y163586D01*
X383512Y163645D01*
X383520Y163699D01*
X383532Y163736D01*
X383531Y163776D01*
X383539Y163830D01*
X383539Y166370D01*
X383528Y166435D01*
X383526Y166501D01*
X383508Y166544D01*
X383500Y166591D01*
X383466Y166648D01*
X383441Y166708D01*
X383410Y166743D01*
X383385Y166784D01*
X383334Y166826D01*
X383290Y166874D01*
X383248Y166896D01*
X383211Y166925D01*
X383149Y166946D01*
X383090Y166977D01*
X383036Y166985D01*
X382999Y166997D01*
X382959Y166996D01*
X382905Y167004D01*
X379095Y167004D01*
X379030Y166993D01*
X378964Y166991D01*
X378921Y166973D01*
X378874Y166965D01*
X378817Y166931D01*
X378757Y166906D01*
X378722Y166875D01*
X378681Y166850D01*
X378640Y166799D01*
X378591Y166755D01*
X378569Y166713D01*
X378540Y166676D01*
X378519Y166614D01*
X378488Y166555D01*
X378480Y166501D01*
X378468Y166464D01*
X378468Y166461D01*
X378469Y166424D01*
X378461Y166370D01*
X378461Y163830D01*
X378472Y163765D01*
X378474Y163699D01*
X378492Y163656D01*
X378500Y163609D01*
X378534Y163552D01*
X378559Y163492D01*
X378590Y163457D01*
X378615Y163416D01*
X378666Y163375D01*
X378710Y163326D01*
X378752Y163304D01*
X378789Y163275D01*
X378851Y163254D01*
X378910Y163223D01*
X378964Y163215D01*
X379001Y163203D01*
X379041Y163204D01*
X379095Y163196D01*
X382905Y163196D01*
X382970Y163207D01*
G37*
G36*
X1327850Y163207D02*
X1327850Y163207D01*
X1327916Y163209D01*
X1327959Y163227D01*
X1328006Y163235D01*
X1328063Y163269D01*
X1328123Y163294D01*
X1328158Y163325D01*
X1328199Y163350D01*
X1328241Y163401D01*
X1328289Y163445D01*
X1328311Y163487D01*
X1328340Y163524D01*
X1328361Y163586D01*
X1328392Y163645D01*
X1328400Y163699D01*
X1328412Y163736D01*
X1328411Y163776D01*
X1328419Y163830D01*
X1328419Y166370D01*
X1328408Y166435D01*
X1328406Y166501D01*
X1328388Y166544D01*
X1328380Y166591D01*
X1328346Y166648D01*
X1328321Y166708D01*
X1328290Y166743D01*
X1328265Y166784D01*
X1328214Y166826D01*
X1328170Y166874D01*
X1328128Y166896D01*
X1328091Y166925D01*
X1328029Y166946D01*
X1327970Y166977D01*
X1327916Y166985D01*
X1327879Y166997D01*
X1327839Y166996D01*
X1327785Y167004D01*
X1323975Y167004D01*
X1323910Y166993D01*
X1323844Y166991D01*
X1323801Y166973D01*
X1323754Y166965D01*
X1323697Y166931D01*
X1323637Y166906D01*
X1323602Y166875D01*
X1323561Y166850D01*
X1323520Y166799D01*
X1323471Y166755D01*
X1323449Y166713D01*
X1323420Y166676D01*
X1323399Y166614D01*
X1323368Y166555D01*
X1323360Y166501D01*
X1323348Y166464D01*
X1323348Y166461D01*
X1323349Y166424D01*
X1323341Y166370D01*
X1323341Y163830D01*
X1323352Y163765D01*
X1323354Y163699D01*
X1323372Y163656D01*
X1323380Y163609D01*
X1323414Y163552D01*
X1323439Y163492D01*
X1323470Y163457D01*
X1323495Y163416D01*
X1323546Y163375D01*
X1323590Y163326D01*
X1323632Y163304D01*
X1323669Y163275D01*
X1323731Y163254D01*
X1323790Y163223D01*
X1323844Y163215D01*
X1323881Y163203D01*
X1323921Y163204D01*
X1323975Y163196D01*
X1327785Y163196D01*
X1327850Y163207D01*
G37*
G36*
X1327850Y137807D02*
X1327850Y137807D01*
X1327916Y137809D01*
X1327959Y137827D01*
X1328006Y137835D01*
X1328063Y137869D01*
X1328123Y137894D01*
X1328158Y137925D01*
X1328199Y137950D01*
X1328241Y138001D01*
X1328289Y138045D01*
X1328311Y138087D01*
X1328340Y138124D01*
X1328361Y138186D01*
X1328392Y138245D01*
X1328400Y138299D01*
X1328412Y138336D01*
X1328411Y138376D01*
X1328419Y138430D01*
X1328419Y140970D01*
X1328408Y141035D01*
X1328406Y141101D01*
X1328388Y141144D01*
X1328380Y141191D01*
X1328346Y141248D01*
X1328321Y141308D01*
X1328290Y141343D01*
X1328265Y141384D01*
X1328214Y141426D01*
X1328170Y141474D01*
X1328128Y141496D01*
X1328091Y141525D01*
X1328029Y141546D01*
X1327970Y141577D01*
X1327916Y141585D01*
X1327879Y141597D01*
X1327839Y141596D01*
X1327785Y141604D01*
X1323975Y141604D01*
X1323910Y141593D01*
X1323844Y141591D01*
X1323801Y141573D01*
X1323754Y141565D01*
X1323697Y141531D01*
X1323637Y141506D01*
X1323602Y141475D01*
X1323561Y141450D01*
X1323520Y141399D01*
X1323471Y141355D01*
X1323449Y141313D01*
X1323420Y141276D01*
X1323399Y141214D01*
X1323368Y141155D01*
X1323360Y141101D01*
X1323348Y141064D01*
X1323348Y141061D01*
X1323349Y141024D01*
X1323341Y140970D01*
X1323341Y138430D01*
X1323352Y138365D01*
X1323354Y138299D01*
X1323372Y138256D01*
X1323380Y138209D01*
X1323414Y138152D01*
X1323439Y138092D01*
X1323470Y138057D01*
X1323495Y138016D01*
X1323546Y137975D01*
X1323590Y137926D01*
X1323632Y137904D01*
X1323669Y137875D01*
X1323731Y137854D01*
X1323790Y137823D01*
X1323844Y137815D01*
X1323881Y137803D01*
X1323921Y137804D01*
X1323975Y137796D01*
X1327785Y137796D01*
X1327850Y137807D01*
G37*
G36*
X382970Y137807D02*
X382970Y137807D01*
X383036Y137809D01*
X383079Y137827D01*
X383126Y137835D01*
X383183Y137869D01*
X383243Y137894D01*
X383278Y137925D01*
X383319Y137950D01*
X383361Y138001D01*
X383409Y138045D01*
X383431Y138087D01*
X383460Y138124D01*
X383481Y138186D01*
X383512Y138245D01*
X383520Y138299D01*
X383532Y138336D01*
X383531Y138376D01*
X383539Y138430D01*
X383539Y140970D01*
X383528Y141035D01*
X383526Y141101D01*
X383508Y141144D01*
X383500Y141191D01*
X383466Y141248D01*
X383441Y141308D01*
X383410Y141343D01*
X383385Y141384D01*
X383334Y141426D01*
X383290Y141474D01*
X383248Y141496D01*
X383211Y141525D01*
X383149Y141546D01*
X383090Y141577D01*
X383036Y141585D01*
X382999Y141597D01*
X382959Y141596D01*
X382905Y141604D01*
X379095Y141604D01*
X379030Y141593D01*
X378964Y141591D01*
X378921Y141573D01*
X378874Y141565D01*
X378817Y141531D01*
X378757Y141506D01*
X378722Y141475D01*
X378681Y141450D01*
X378640Y141399D01*
X378591Y141355D01*
X378569Y141313D01*
X378540Y141276D01*
X378519Y141214D01*
X378488Y141155D01*
X378480Y141101D01*
X378468Y141064D01*
X378468Y141061D01*
X378469Y141024D01*
X378461Y140970D01*
X378461Y138430D01*
X378472Y138365D01*
X378474Y138299D01*
X378492Y138256D01*
X378500Y138209D01*
X378534Y138152D01*
X378559Y138092D01*
X378590Y138057D01*
X378615Y138016D01*
X378666Y137975D01*
X378710Y137926D01*
X378752Y137904D01*
X378789Y137875D01*
X378851Y137854D01*
X378910Y137823D01*
X378964Y137815D01*
X379001Y137803D01*
X379041Y137804D01*
X379095Y137796D01*
X382905Y137796D01*
X382970Y137807D01*
G37*
G36*
X1449770Y125107D02*
X1449770Y125107D01*
X1449836Y125109D01*
X1449879Y125127D01*
X1449926Y125135D01*
X1449983Y125169D01*
X1450043Y125194D01*
X1450078Y125225D01*
X1450119Y125250D01*
X1450161Y125301D01*
X1450209Y125345D01*
X1450231Y125387D01*
X1450260Y125424D01*
X1450281Y125486D01*
X1450312Y125545D01*
X1450320Y125599D01*
X1450332Y125636D01*
X1450331Y125676D01*
X1450339Y125730D01*
X1450339Y128270D01*
X1450328Y128335D01*
X1450326Y128401D01*
X1450308Y128444D01*
X1450300Y128491D01*
X1450266Y128548D01*
X1450241Y128608D01*
X1450210Y128643D01*
X1450185Y128684D01*
X1450134Y128726D01*
X1450090Y128774D01*
X1450048Y128796D01*
X1450011Y128825D01*
X1449949Y128846D01*
X1449890Y128877D01*
X1449836Y128885D01*
X1449799Y128897D01*
X1449759Y128896D01*
X1449705Y128904D01*
X1445895Y128904D01*
X1445830Y128893D01*
X1445764Y128891D01*
X1445721Y128873D01*
X1445674Y128865D01*
X1445617Y128831D01*
X1445557Y128806D01*
X1445522Y128775D01*
X1445481Y128750D01*
X1445440Y128699D01*
X1445391Y128655D01*
X1445369Y128613D01*
X1445340Y128576D01*
X1445319Y128514D01*
X1445288Y128455D01*
X1445280Y128401D01*
X1445268Y128364D01*
X1445268Y128361D01*
X1445269Y128324D01*
X1445261Y128270D01*
X1445261Y125730D01*
X1445272Y125665D01*
X1445274Y125599D01*
X1445292Y125556D01*
X1445300Y125509D01*
X1445334Y125452D01*
X1445359Y125392D01*
X1445390Y125357D01*
X1445415Y125316D01*
X1445466Y125275D01*
X1445510Y125226D01*
X1445552Y125204D01*
X1445589Y125175D01*
X1445651Y125154D01*
X1445710Y125123D01*
X1445764Y125115D01*
X1445801Y125103D01*
X1445841Y125104D01*
X1445895Y125096D01*
X1449705Y125096D01*
X1449770Y125107D01*
G37*
G36*
X504890Y125107D02*
X504890Y125107D01*
X504956Y125109D01*
X504999Y125127D01*
X505046Y125135D01*
X505103Y125169D01*
X505163Y125194D01*
X505198Y125225D01*
X505239Y125250D01*
X505281Y125301D01*
X505329Y125345D01*
X505351Y125387D01*
X505380Y125424D01*
X505401Y125486D01*
X505432Y125545D01*
X505440Y125599D01*
X505452Y125636D01*
X505451Y125676D01*
X505459Y125730D01*
X505459Y128270D01*
X505448Y128335D01*
X505446Y128401D01*
X505428Y128444D01*
X505420Y128491D01*
X505386Y128548D01*
X505361Y128608D01*
X505330Y128643D01*
X505305Y128684D01*
X505254Y128726D01*
X505210Y128774D01*
X505168Y128796D01*
X505131Y128825D01*
X505069Y128846D01*
X505010Y128877D01*
X504956Y128885D01*
X504919Y128897D01*
X504879Y128896D01*
X504825Y128904D01*
X501015Y128904D01*
X500950Y128893D01*
X500884Y128891D01*
X500841Y128873D01*
X500794Y128865D01*
X500737Y128831D01*
X500677Y128806D01*
X500642Y128775D01*
X500601Y128750D01*
X500560Y128699D01*
X500511Y128655D01*
X500489Y128613D01*
X500460Y128576D01*
X500439Y128514D01*
X500408Y128455D01*
X500400Y128401D01*
X500388Y128364D01*
X500388Y128361D01*
X500389Y128324D01*
X500381Y128270D01*
X500381Y125730D01*
X500392Y125665D01*
X500394Y125599D01*
X500412Y125556D01*
X500420Y125509D01*
X500454Y125452D01*
X500479Y125392D01*
X500510Y125357D01*
X500535Y125316D01*
X500586Y125275D01*
X500630Y125226D01*
X500672Y125204D01*
X500709Y125175D01*
X500771Y125154D01*
X500830Y125123D01*
X500884Y125115D01*
X500921Y125103D01*
X500961Y125104D01*
X501015Y125096D01*
X504825Y125096D01*
X504890Y125107D01*
G37*
G36*
X1322770Y99707D02*
X1322770Y99707D01*
X1322836Y99709D01*
X1322879Y99727D01*
X1322926Y99735D01*
X1322983Y99769D01*
X1323043Y99794D01*
X1323078Y99825D01*
X1323119Y99850D01*
X1323161Y99901D01*
X1323209Y99945D01*
X1323231Y99987D01*
X1323260Y100024D01*
X1323281Y100086D01*
X1323312Y100145D01*
X1323320Y100199D01*
X1323332Y100236D01*
X1323331Y100276D01*
X1323339Y100330D01*
X1323339Y102870D01*
X1323328Y102935D01*
X1323326Y103001D01*
X1323308Y103044D01*
X1323300Y103091D01*
X1323266Y103148D01*
X1323241Y103208D01*
X1323210Y103243D01*
X1323185Y103284D01*
X1323134Y103326D01*
X1323090Y103374D01*
X1323048Y103396D01*
X1323011Y103425D01*
X1322949Y103446D01*
X1322890Y103477D01*
X1322836Y103485D01*
X1322799Y103497D01*
X1322759Y103496D01*
X1322705Y103504D01*
X1318895Y103504D01*
X1318830Y103493D01*
X1318764Y103491D01*
X1318721Y103473D01*
X1318674Y103465D01*
X1318617Y103431D01*
X1318557Y103406D01*
X1318522Y103375D01*
X1318481Y103350D01*
X1318440Y103299D01*
X1318391Y103255D01*
X1318369Y103213D01*
X1318340Y103176D01*
X1318319Y103114D01*
X1318288Y103055D01*
X1318280Y103001D01*
X1318268Y102964D01*
X1318268Y102961D01*
X1318269Y102924D01*
X1318261Y102870D01*
X1318261Y100330D01*
X1318272Y100265D01*
X1318274Y100199D01*
X1318292Y100156D01*
X1318300Y100109D01*
X1318334Y100052D01*
X1318359Y99992D01*
X1318390Y99957D01*
X1318415Y99916D01*
X1318466Y99875D01*
X1318510Y99826D01*
X1318552Y99804D01*
X1318589Y99775D01*
X1318651Y99754D01*
X1318710Y99723D01*
X1318764Y99715D01*
X1318801Y99703D01*
X1318841Y99704D01*
X1318895Y99696D01*
X1322705Y99696D01*
X1322770Y99707D01*
G37*
G36*
X1332930Y99707D02*
X1332930Y99707D01*
X1332996Y99709D01*
X1333039Y99727D01*
X1333086Y99735D01*
X1333143Y99769D01*
X1333203Y99794D01*
X1333238Y99825D01*
X1333279Y99850D01*
X1333321Y99901D01*
X1333369Y99945D01*
X1333391Y99987D01*
X1333420Y100024D01*
X1333441Y100086D01*
X1333472Y100145D01*
X1333480Y100199D01*
X1333492Y100236D01*
X1333491Y100276D01*
X1333499Y100330D01*
X1333499Y102870D01*
X1333488Y102935D01*
X1333486Y103001D01*
X1333468Y103044D01*
X1333460Y103091D01*
X1333426Y103148D01*
X1333401Y103208D01*
X1333370Y103243D01*
X1333345Y103284D01*
X1333294Y103326D01*
X1333250Y103374D01*
X1333208Y103396D01*
X1333171Y103425D01*
X1333109Y103446D01*
X1333050Y103477D01*
X1332996Y103485D01*
X1332959Y103497D01*
X1332919Y103496D01*
X1332865Y103504D01*
X1329055Y103504D01*
X1328990Y103493D01*
X1328924Y103491D01*
X1328881Y103473D01*
X1328834Y103465D01*
X1328777Y103431D01*
X1328717Y103406D01*
X1328682Y103375D01*
X1328641Y103350D01*
X1328600Y103299D01*
X1328551Y103255D01*
X1328529Y103213D01*
X1328500Y103176D01*
X1328479Y103114D01*
X1328448Y103055D01*
X1328440Y103001D01*
X1328428Y102964D01*
X1328428Y102961D01*
X1328429Y102924D01*
X1328421Y102870D01*
X1328421Y100330D01*
X1328432Y100265D01*
X1328434Y100199D01*
X1328452Y100156D01*
X1328460Y100109D01*
X1328494Y100052D01*
X1328519Y99992D01*
X1328550Y99957D01*
X1328575Y99916D01*
X1328626Y99875D01*
X1328670Y99826D01*
X1328712Y99804D01*
X1328749Y99775D01*
X1328811Y99754D01*
X1328870Y99723D01*
X1328924Y99715D01*
X1328961Y99703D01*
X1329001Y99704D01*
X1329055Y99696D01*
X1332865Y99696D01*
X1332930Y99707D01*
G37*
G36*
X377890Y99707D02*
X377890Y99707D01*
X377956Y99709D01*
X377999Y99727D01*
X378046Y99735D01*
X378103Y99769D01*
X378163Y99794D01*
X378198Y99825D01*
X378239Y99850D01*
X378281Y99901D01*
X378329Y99945D01*
X378351Y99987D01*
X378380Y100024D01*
X378401Y100086D01*
X378432Y100145D01*
X378440Y100199D01*
X378452Y100236D01*
X378451Y100276D01*
X378459Y100330D01*
X378459Y102870D01*
X378448Y102935D01*
X378446Y103001D01*
X378428Y103044D01*
X378420Y103091D01*
X378386Y103148D01*
X378361Y103208D01*
X378330Y103243D01*
X378305Y103284D01*
X378254Y103326D01*
X378210Y103374D01*
X378168Y103396D01*
X378131Y103425D01*
X378069Y103446D01*
X378010Y103477D01*
X377956Y103485D01*
X377919Y103497D01*
X377879Y103496D01*
X377825Y103504D01*
X374015Y103504D01*
X373950Y103493D01*
X373884Y103491D01*
X373841Y103473D01*
X373794Y103465D01*
X373737Y103431D01*
X373677Y103406D01*
X373642Y103375D01*
X373601Y103350D01*
X373560Y103299D01*
X373511Y103255D01*
X373489Y103213D01*
X373460Y103176D01*
X373439Y103114D01*
X373408Y103055D01*
X373400Y103001D01*
X373388Y102964D01*
X373388Y102961D01*
X373389Y102924D01*
X373381Y102870D01*
X373381Y100330D01*
X373392Y100265D01*
X373394Y100199D01*
X373412Y100156D01*
X373420Y100109D01*
X373454Y100052D01*
X373479Y99992D01*
X373510Y99957D01*
X373535Y99916D01*
X373586Y99875D01*
X373630Y99826D01*
X373672Y99804D01*
X373709Y99775D01*
X373771Y99754D01*
X373830Y99723D01*
X373884Y99715D01*
X373921Y99703D01*
X373961Y99704D01*
X374015Y99696D01*
X377825Y99696D01*
X377890Y99707D01*
G37*
G36*
X388050Y99707D02*
X388050Y99707D01*
X388116Y99709D01*
X388159Y99727D01*
X388206Y99735D01*
X388263Y99769D01*
X388323Y99794D01*
X388358Y99825D01*
X388399Y99850D01*
X388441Y99901D01*
X388489Y99945D01*
X388511Y99987D01*
X388540Y100024D01*
X388561Y100086D01*
X388592Y100145D01*
X388600Y100199D01*
X388612Y100236D01*
X388611Y100276D01*
X388619Y100330D01*
X388619Y102870D01*
X388608Y102935D01*
X388606Y103001D01*
X388588Y103044D01*
X388580Y103091D01*
X388546Y103148D01*
X388521Y103208D01*
X388490Y103243D01*
X388465Y103284D01*
X388414Y103326D01*
X388370Y103374D01*
X388328Y103396D01*
X388291Y103425D01*
X388229Y103446D01*
X388170Y103477D01*
X388116Y103485D01*
X388079Y103497D01*
X388039Y103496D01*
X387985Y103504D01*
X384175Y103504D01*
X384110Y103493D01*
X384044Y103491D01*
X384001Y103473D01*
X383954Y103465D01*
X383897Y103431D01*
X383837Y103406D01*
X383802Y103375D01*
X383761Y103350D01*
X383720Y103299D01*
X383671Y103255D01*
X383649Y103213D01*
X383620Y103176D01*
X383599Y103114D01*
X383568Y103055D01*
X383560Y103001D01*
X383548Y102964D01*
X383548Y102961D01*
X383549Y102924D01*
X383541Y102870D01*
X383541Y100330D01*
X383552Y100265D01*
X383554Y100199D01*
X383572Y100156D01*
X383580Y100109D01*
X383614Y100052D01*
X383639Y99992D01*
X383670Y99957D01*
X383695Y99916D01*
X383746Y99875D01*
X383790Y99826D01*
X383832Y99804D01*
X383869Y99775D01*
X383931Y99754D01*
X383990Y99723D01*
X384044Y99715D01*
X384081Y99703D01*
X384121Y99704D01*
X384175Y99696D01*
X387985Y99696D01*
X388050Y99707D01*
G37*
D10*
X122800Y152400D03*
X105800Y152400D03*
D11*
X520700Y12700D03*
X495300Y12700D03*
X469900Y12700D03*
X444500Y12700D03*
X419100Y12700D03*
X393700Y12700D03*
X368300Y12700D03*
X342900Y12700D03*
X317500Y12700D03*
X292100Y12700D03*
X266700Y12700D03*
X241300Y12700D03*
X215900Y12700D03*
X190500Y12700D03*
X165100Y12700D03*
X139700Y12700D03*
X520700Y215900D03*
X495300Y215900D03*
X469900Y215900D03*
X444500Y215900D03*
X419100Y215900D03*
X393700Y215900D03*
X368300Y215900D03*
X342900Y215900D03*
X317500Y215900D03*
X292100Y215900D03*
X266700Y215900D03*
X241300Y215900D03*
D12*
X762030Y54800D03*
X705030Y54800D03*
D13*
X689030Y186300D03*
X820530Y196300D03*
D14*
X773930Y157800D03*
X762930Y153800D03*
X751930Y157800D03*
X740930Y159800D03*
X729930Y157800D03*
X718930Y159800D03*
X707930Y157800D03*
X696930Y157800D03*
D15*
X660400Y14300D03*
D16*
X660400Y214300D03*
D17*
X370586Y101600D03*
X381000Y101600D03*
X391414Y101600D03*
D18*
X838200Y143900D03*
X838200Y160900D03*
D10*
X644280Y190500D03*
X661280Y190500D03*
D18*
X76200Y29600D03*
X76200Y46600D03*
D10*
X712860Y15240D03*
X729860Y15240D03*
D19*
X25400Y203200D03*
X558800Y203200D03*
X558800Y25400D03*
X25400Y25400D03*
D17*
X518414Y127000D03*
X508000Y127000D03*
X497586Y127000D03*
D20*
X859790Y74930D03*
D10*
X115960Y198120D03*
X132960Y198120D03*
X115960Y215900D03*
X132960Y215900D03*
D21*
X292100Y113100D03*
X292100Y90100D03*
D10*
X712860Y33020D03*
X729860Y33020D03*
D17*
X386207Y139700D03*
X375793Y139700D03*
D18*
X406400Y143900D03*
X406400Y160900D03*
D17*
X386207Y165100D03*
X375793Y165100D03*
D10*
X440300Y152400D03*
X423300Y152400D03*
D22*
X219964Y71120D03*
X211836Y71120D03*
D23*
X49050Y143200D03*
X49050Y85400D03*
D10*
X16900Y127000D03*
X33900Y127000D03*
X16900Y101600D03*
X33900Y101600D03*
D18*
X228600Y110100D03*
X228600Y93100D03*
D24*
X774700Y31750D03*
X787400Y31750D03*
X800100Y31750D03*
X812800Y31750D03*
X762000Y31750D03*
X774700Y19050D03*
X787400Y19050D03*
X800100Y19050D03*
X812800Y19050D03*
X762000Y19050D03*
D25*
X12700Y177800D03*
X901700Y50800D03*
D26*
X61200Y205740D03*
X91200Y205740D03*
D27*
X266700Y110600D03*
X266700Y92600D03*
D28*
X162560Y104140D03*
X137160Y104140D03*
D10*
X1067680Y152400D03*
X1050680Y152400D03*
D11*
X1465580Y12700D03*
X1440180Y12700D03*
X1414780Y12700D03*
X1389380Y12700D03*
X1363980Y12700D03*
X1338580Y12700D03*
X1313180Y12700D03*
X1287780Y12700D03*
X1262380Y12700D03*
X1236980Y12700D03*
X1211580Y12700D03*
X1186180Y12700D03*
X1160780Y12700D03*
X1135380Y12700D03*
X1109980Y12700D03*
X1084580Y12700D03*
X1465580Y215900D03*
X1440180Y215900D03*
X1414780Y215900D03*
X1389380Y215900D03*
X1363980Y215900D03*
X1338580Y215900D03*
X1313180Y215900D03*
X1287780Y215900D03*
X1262380Y215900D03*
X1236980Y215900D03*
X1211580Y215900D03*
X1186180Y215900D03*
D12*
X1706910Y54800D03*
X1649910Y54800D03*
D13*
X1633910Y186300D03*
X1765410Y196300D03*
D14*
X1718810Y157800D03*
X1707810Y153800D03*
X1696810Y157800D03*
X1685810Y159800D03*
X1674810Y157800D03*
X1663810Y159800D03*
X1652810Y157800D03*
X1641810Y157800D03*
D15*
X1605280Y14300D03*
D16*
X1605280Y214300D03*
D17*
X1315466Y101600D03*
X1325880Y101600D03*
X1336294Y101600D03*
D18*
X1783080Y143900D03*
X1783080Y160900D03*
D10*
X1589160Y190500D03*
X1606160Y190500D03*
D18*
X1021080Y29600D03*
X1021080Y46600D03*
D10*
X1657740Y15240D03*
X1674740Y15240D03*
D19*
X970280Y203200D03*
X1503680Y203200D03*
X1503680Y25400D03*
X970280Y25400D03*
D17*
X1463294Y127000D03*
X1452880Y127000D03*
X1442466Y127000D03*
D20*
X1804670Y74930D03*
D10*
X1060840Y198120D03*
X1077840Y198120D03*
X1060840Y215900D03*
X1077840Y215900D03*
D21*
X1236980Y113100D03*
X1236980Y90100D03*
D10*
X1657740Y33020D03*
X1674740Y33020D03*
D17*
X1331087Y139700D03*
X1320673Y139700D03*
D18*
X1351280Y143900D03*
X1351280Y160900D03*
D17*
X1331087Y165100D03*
X1320673Y165100D03*
D10*
X1385180Y152400D03*
X1368180Y152400D03*
D22*
X1164844Y71120D03*
X1156716Y71120D03*
D23*
X993930Y143200D03*
X993930Y85400D03*
D10*
X961780Y127000D03*
X978780Y127000D03*
X961780Y101600D03*
X978780Y101600D03*
D18*
X1173480Y110100D03*
X1173480Y93100D03*
D24*
X1719580Y31750D03*
X1732280Y31750D03*
X1744980Y31750D03*
X1757680Y31750D03*
X1706880Y31750D03*
X1719580Y19050D03*
X1732280Y19050D03*
X1744980Y19050D03*
X1757680Y19050D03*
X1706880Y19050D03*
D25*
X957580Y177800D03*
X1846580Y50800D03*
D26*
X1006080Y205740D03*
X1036080Y205740D03*
D27*
X1211580Y110600D03*
X1211580Y92600D03*
D28*
X1107440Y104140D03*
X1082040Y104140D03*
D10*
X122800Y386080D03*
X105800Y386080D03*
D11*
X520700Y246380D03*
X495300Y246380D03*
X469900Y246380D03*
X444500Y246380D03*
X419100Y246380D03*
X393700Y246380D03*
X368300Y246380D03*
X342900Y246380D03*
X317500Y246380D03*
X292100Y246380D03*
X266700Y246380D03*
X241300Y246380D03*
X215900Y246380D03*
X190500Y246380D03*
X165100Y246380D03*
X139700Y246380D03*
X520700Y449580D03*
X495300Y449580D03*
X469900Y449580D03*
X444500Y449580D03*
X419100Y449580D03*
X393700Y449580D03*
X368300Y449580D03*
X342900Y449580D03*
X317500Y449580D03*
X292100Y449580D03*
X266700Y449580D03*
X241300Y449580D03*
D12*
X762030Y288480D03*
X705030Y288480D03*
D13*
X689030Y419980D03*
X820530Y429980D03*
D14*
X773930Y391480D03*
X762930Y387480D03*
X751930Y391480D03*
X740930Y393480D03*
X729930Y391480D03*
X718930Y393480D03*
X707930Y391480D03*
X696930Y391480D03*
D15*
X660400Y247980D03*
D16*
X660400Y447980D03*
D17*
X370586Y335280D03*
X381000Y335280D03*
X391414Y335280D03*
D18*
X838200Y377580D03*
X838200Y394580D03*
D10*
X644280Y424180D03*
X661280Y424180D03*
D18*
X76200Y263280D03*
X76200Y280280D03*
D10*
X712860Y248920D03*
X729860Y248920D03*
D19*
X25400Y436880D03*
X558800Y436880D03*
X558800Y259080D03*
X25400Y259080D03*
D17*
X518414Y360680D03*
X508000Y360680D03*
X497586Y360680D03*
D20*
X859790Y308610D03*
D10*
X115960Y431800D03*
X132960Y431800D03*
X115960Y449580D03*
X132960Y449580D03*
D21*
X292100Y346780D03*
X292100Y323780D03*
D10*
X712860Y266700D03*
X729860Y266700D03*
D17*
X386207Y373380D03*
X375793Y373380D03*
D18*
X406400Y377580D03*
X406400Y394580D03*
D17*
X386207Y398780D03*
X375793Y398780D03*
D10*
X440300Y386080D03*
X423300Y386080D03*
D22*
X219964Y304800D03*
X211836Y304800D03*
D23*
X49050Y376880D03*
X49050Y319080D03*
D10*
X16900Y360680D03*
X33900Y360680D03*
X16900Y335280D03*
X33900Y335280D03*
D18*
X228600Y343780D03*
X228600Y326780D03*
D24*
X774700Y265430D03*
X787400Y265430D03*
X800100Y265430D03*
X812800Y265430D03*
X762000Y265430D03*
X774700Y252730D03*
X787400Y252730D03*
X800100Y252730D03*
X812800Y252730D03*
X762000Y252730D03*
D25*
X12700Y411480D03*
X901700Y284480D03*
D26*
X61200Y439420D03*
X91200Y439420D03*
D27*
X266700Y344280D03*
X266700Y326280D03*
D28*
X162560Y337820D03*
X137160Y337820D03*
D10*
X1067680Y386080D03*
X1050680Y386080D03*
D11*
X1465580Y246380D03*
X1440180Y246380D03*
X1414780Y246380D03*
X1389380Y246380D03*
X1363980Y246380D03*
X1338580Y246380D03*
X1313180Y246380D03*
X1287780Y246380D03*
X1262380Y246380D03*
X1236980Y246380D03*
X1211580Y246380D03*
X1186180Y246380D03*
X1160780Y246380D03*
X1135380Y246380D03*
X1109980Y246380D03*
X1084580Y246380D03*
X1465580Y449580D03*
X1440180Y449580D03*
X1414780Y449580D03*
X1389380Y449580D03*
X1363980Y449580D03*
X1338580Y449580D03*
X1313180Y449580D03*
X1287780Y449580D03*
X1262380Y449580D03*
X1236980Y449580D03*
X1211580Y449580D03*
X1186180Y449580D03*
D12*
X1706910Y288480D03*
X1649910Y288480D03*
D13*
X1633910Y419980D03*
X1765410Y429980D03*
D14*
X1718810Y391480D03*
X1707810Y387480D03*
X1696810Y391480D03*
X1685810Y393480D03*
X1674810Y391480D03*
X1663810Y393480D03*
X1652810Y391480D03*
X1641810Y391480D03*
D15*
X1605280Y247980D03*
D16*
X1605280Y447980D03*
D17*
X1315466Y335280D03*
X1325880Y335280D03*
X1336294Y335280D03*
D18*
X1783080Y377580D03*
X1783080Y394580D03*
D10*
X1589160Y424180D03*
X1606160Y424180D03*
D18*
X1021080Y263280D03*
X1021080Y280280D03*
D10*
X1657740Y248920D03*
X1674740Y248920D03*
D19*
X970280Y436880D03*
X1503680Y436880D03*
X1503680Y259080D03*
X970280Y259080D03*
D17*
X1463294Y360680D03*
X1452880Y360680D03*
X1442466Y360680D03*
D20*
X1804670Y308610D03*
D10*
X1060840Y431800D03*
X1077840Y431800D03*
X1060840Y449580D03*
X1077840Y449580D03*
D21*
X1236980Y346780D03*
X1236980Y323780D03*
D10*
X1657740Y266700D03*
X1674740Y266700D03*
D17*
X1331087Y373380D03*
X1320673Y373380D03*
D18*
X1351280Y377580D03*
X1351280Y394580D03*
D17*
X1331087Y398780D03*
X1320673Y398780D03*
D10*
X1385180Y386080D03*
X1368180Y386080D03*
D22*
X1164844Y304800D03*
X1156716Y304800D03*
D23*
X993930Y376880D03*
X993930Y319080D03*
D10*
X961780Y360680D03*
X978780Y360680D03*
X961780Y335280D03*
X978780Y335280D03*
D18*
X1173480Y343780D03*
X1173480Y326780D03*
D24*
X1719580Y265430D03*
X1732280Y265430D03*
X1744980Y265430D03*
X1757680Y265430D03*
X1706880Y265430D03*
X1719580Y252730D03*
X1732280Y252730D03*
X1744980Y252730D03*
X1757680Y252730D03*
X1706880Y252730D03*
D25*
X957580Y411480D03*
X1846580Y284480D03*
D26*
X1006080Y439420D03*
X1036080Y439420D03*
D27*
X1211580Y344280D03*
X1211580Y326280D03*
D28*
X1107440Y337820D03*
X1082040Y337820D03*
D10*
X122800Y619760D03*
X105800Y619760D03*
D11*
X520700Y480060D03*
X495300Y480060D03*
X469900Y480060D03*
X444500Y480060D03*
X419100Y480060D03*
X393700Y480060D03*
X368300Y480060D03*
X342900Y480060D03*
X317500Y480060D03*
X292100Y480060D03*
X266700Y480060D03*
X241300Y480060D03*
X215900Y480060D03*
X190500Y480060D03*
X165100Y480060D03*
X139700Y480060D03*
X520700Y683260D03*
X495300Y683260D03*
X469900Y683260D03*
X444500Y683260D03*
X419100Y683260D03*
X393700Y683260D03*
X368300Y683260D03*
X342900Y683260D03*
X317500Y683260D03*
X292100Y683260D03*
X266700Y683260D03*
X241300Y683260D03*
D12*
X762030Y522160D03*
X705030Y522160D03*
D13*
X689030Y653660D03*
X820530Y663660D03*
D14*
X773930Y625160D03*
X762930Y621160D03*
X751930Y625160D03*
X740930Y627160D03*
X729930Y625160D03*
X718930Y627160D03*
X707930Y625160D03*
X696930Y625160D03*
D15*
X660400Y481660D03*
D16*
X660400Y681660D03*
D17*
X370586Y568960D03*
X381000Y568960D03*
X391414Y568960D03*
D18*
X838200Y611260D03*
X838200Y628260D03*
D10*
X644280Y657860D03*
X661280Y657860D03*
D18*
X76200Y496960D03*
X76200Y513960D03*
D10*
X712860Y482600D03*
X729860Y482600D03*
D19*
X25400Y670560D03*
X558800Y670560D03*
X558800Y492760D03*
X25400Y492760D03*
D17*
X518414Y594360D03*
X508000Y594360D03*
X497586Y594360D03*
D20*
X859790Y542290D03*
D10*
X115960Y665480D03*
X132960Y665480D03*
X115960Y683260D03*
X132960Y683260D03*
D21*
X292100Y580460D03*
X292100Y557460D03*
D10*
X712860Y500380D03*
X729860Y500380D03*
D17*
X386207Y607060D03*
X375793Y607060D03*
D18*
X406400Y611260D03*
X406400Y628260D03*
D17*
X386207Y632460D03*
X375793Y632460D03*
D10*
X440300Y619760D03*
X423300Y619760D03*
D22*
X219964Y538480D03*
X211836Y538480D03*
D23*
X49050Y610560D03*
X49050Y552760D03*
D10*
X16900Y594360D03*
X33900Y594360D03*
X16900Y568960D03*
X33900Y568960D03*
D18*
X228600Y577460D03*
X228600Y560460D03*
D24*
X774700Y499110D03*
X787400Y499110D03*
X800100Y499110D03*
X812800Y499110D03*
X762000Y499110D03*
X774700Y486410D03*
X787400Y486410D03*
X800100Y486410D03*
X812800Y486410D03*
X762000Y486410D03*
D25*
X12700Y645160D03*
X901700Y518160D03*
D26*
X61200Y673100D03*
X91200Y673100D03*
D27*
X266700Y577960D03*
X266700Y559960D03*
D28*
X162560Y571500D03*
X137160Y571500D03*
D10*
X1067680Y619760D03*
X1050680Y619760D03*
D11*
X1465580Y480060D03*
X1440180Y480060D03*
X1414780Y480060D03*
X1389380Y480060D03*
X1363980Y480060D03*
X1338580Y480060D03*
X1313180Y480060D03*
X1287780Y480060D03*
X1262380Y480060D03*
X1236980Y480060D03*
X1211580Y480060D03*
X1186180Y480060D03*
X1160780Y480060D03*
X1135380Y480060D03*
X1109980Y480060D03*
X1084580Y480060D03*
X1465580Y683260D03*
X1440180Y683260D03*
X1414780Y683260D03*
X1389380Y683260D03*
X1363980Y683260D03*
X1338580Y683260D03*
X1313180Y683260D03*
X1287780Y683260D03*
X1262380Y683260D03*
X1236980Y683260D03*
X1211580Y683260D03*
X1186180Y683260D03*
D12*
X1706910Y522160D03*
X1649910Y522160D03*
D13*
X1633910Y653660D03*
X1765410Y663660D03*
D14*
X1718810Y625160D03*
X1707810Y621160D03*
X1696810Y625160D03*
X1685810Y627160D03*
X1674810Y625160D03*
X1663810Y627160D03*
X1652810Y625160D03*
X1641810Y625160D03*
D15*
X1605280Y481660D03*
D16*
X1605280Y681660D03*
D17*
X1315466Y568960D03*
X1325880Y568960D03*
X1336294Y568960D03*
D18*
X1783080Y611260D03*
X1783080Y628260D03*
D10*
X1589160Y657860D03*
X1606160Y657860D03*
D18*
X1021080Y496960D03*
X1021080Y513960D03*
D10*
X1657740Y482600D03*
X1674740Y482600D03*
D19*
X970280Y670560D03*
X1503680Y670560D03*
X1503680Y492760D03*
X970280Y492760D03*
D17*
X1463294Y594360D03*
X1452880Y594360D03*
X1442466Y594360D03*
D20*
X1804670Y542290D03*
D10*
X1060840Y665480D03*
X1077840Y665480D03*
X1060840Y683260D03*
X1077840Y683260D03*
D21*
X1236980Y580460D03*
X1236980Y557460D03*
D10*
X1657740Y500380D03*
X1674740Y500380D03*
D17*
X1331087Y607060D03*
X1320673Y607060D03*
D18*
X1351280Y611260D03*
X1351280Y628260D03*
D17*
X1331087Y632460D03*
X1320673Y632460D03*
D10*
X1385180Y619760D03*
X1368180Y619760D03*
D22*
X1164844Y538480D03*
X1156716Y538480D03*
D23*
X993930Y610560D03*
X993930Y552760D03*
D10*
X961780Y594360D03*
X978780Y594360D03*
X961780Y568960D03*
X978780Y568960D03*
D18*
X1173480Y577460D03*
X1173480Y560460D03*
D24*
X1719580Y499110D03*
X1732280Y499110D03*
X1744980Y499110D03*
X1757680Y499110D03*
X1706880Y499110D03*
X1719580Y486410D03*
X1732280Y486410D03*
X1744980Y486410D03*
X1757680Y486410D03*
X1706880Y486410D03*
D25*
X957580Y645160D03*
X1846580Y518160D03*
D26*
X1006080Y673100D03*
X1036080Y673100D03*
D27*
X1211580Y577960D03*
X1211580Y559960D03*
D28*
X1107440Y571500D03*
X1082040Y571500D03*
D10*
X122800Y853440D03*
X105800Y853440D03*
D11*
X520700Y713740D03*
X495300Y713740D03*
X469900Y713740D03*
X444500Y713740D03*
X419100Y713740D03*
X393700Y713740D03*
X368300Y713740D03*
X342900Y713740D03*
X317500Y713740D03*
X292100Y713740D03*
X266700Y713740D03*
X241300Y713740D03*
X215900Y713740D03*
X190500Y713740D03*
X165100Y713740D03*
X139700Y713740D03*
X520700Y916940D03*
X495300Y916940D03*
X469900Y916940D03*
X444500Y916940D03*
X419100Y916940D03*
X393700Y916940D03*
X368300Y916940D03*
X342900Y916940D03*
X317500Y916940D03*
X292100Y916940D03*
X266700Y916940D03*
X241300Y916940D03*
D12*
X762030Y755840D03*
X705030Y755840D03*
D13*
X689030Y887340D03*
X820530Y897340D03*
D14*
X773930Y858840D03*
X762930Y854840D03*
X751930Y858840D03*
X740930Y860840D03*
X729930Y858840D03*
X718930Y860840D03*
X707930Y858840D03*
X696930Y858840D03*
D15*
X660400Y715340D03*
D16*
X660400Y915340D03*
D17*
X370586Y802640D03*
X381000Y802640D03*
X391414Y802640D03*
D18*
X838200Y844940D03*
X838200Y861940D03*
D10*
X644280Y891540D03*
X661280Y891540D03*
D18*
X76200Y730640D03*
X76200Y747640D03*
D10*
X712860Y716280D03*
X729860Y716280D03*
D19*
X25400Y904240D03*
X558800Y904240D03*
X558800Y726440D03*
X25400Y726440D03*
D17*
X518414Y828040D03*
X508000Y828040D03*
X497586Y828040D03*
D20*
X859790Y775970D03*
D10*
X115960Y899160D03*
X132960Y899160D03*
X115960Y916940D03*
X132960Y916940D03*
D21*
X292100Y814140D03*
X292100Y791140D03*
D10*
X712860Y734060D03*
X729860Y734060D03*
D17*
X386207Y840740D03*
X375793Y840740D03*
D18*
X406400Y844940D03*
X406400Y861940D03*
D17*
X386207Y866140D03*
X375793Y866140D03*
D10*
X440300Y853440D03*
X423300Y853440D03*
D22*
X219964Y772160D03*
X211836Y772160D03*
D23*
X49050Y844240D03*
X49050Y786440D03*
D10*
X16900Y828040D03*
X33900Y828040D03*
X16900Y802640D03*
X33900Y802640D03*
D18*
X228600Y811140D03*
X228600Y794140D03*
D24*
X774700Y732790D03*
X787400Y732790D03*
X800100Y732790D03*
X812800Y732790D03*
X762000Y732790D03*
X774700Y720090D03*
X787400Y720090D03*
X800100Y720090D03*
X812800Y720090D03*
X762000Y720090D03*
D25*
X12700Y878840D03*
X901700Y751840D03*
D26*
X61200Y906780D03*
X91200Y906780D03*
D27*
X266700Y811640D03*
X266700Y793640D03*
D28*
X162560Y805180D03*
X137160Y805180D03*
D10*
X1067680Y853440D03*
X1050680Y853440D03*
D11*
X1465580Y713740D03*
X1440180Y713740D03*
X1414780Y713740D03*
X1389380Y713740D03*
X1363980Y713740D03*
X1338580Y713740D03*
X1313180Y713740D03*
X1287780Y713740D03*
X1262380Y713740D03*
X1236980Y713740D03*
X1211580Y713740D03*
X1186180Y713740D03*
X1160780Y713740D03*
X1135380Y713740D03*
X1109980Y713740D03*
X1084580Y713740D03*
X1465580Y916940D03*
X1440180Y916940D03*
X1414780Y916940D03*
X1389380Y916940D03*
X1363980Y916940D03*
X1338580Y916940D03*
X1313180Y916940D03*
X1287780Y916940D03*
X1262380Y916940D03*
X1236980Y916940D03*
X1211580Y916940D03*
X1186180Y916940D03*
D12*
X1706910Y755840D03*
X1649910Y755840D03*
D13*
X1633910Y887340D03*
X1765410Y897340D03*
D14*
X1718810Y858840D03*
X1707810Y854840D03*
X1696810Y858840D03*
X1685810Y860840D03*
X1674810Y858840D03*
X1663810Y860840D03*
X1652810Y858840D03*
X1641810Y858840D03*
D15*
X1605280Y715340D03*
D16*
X1605280Y915340D03*
D17*
X1315466Y802640D03*
X1325880Y802640D03*
X1336294Y802640D03*
D18*
X1783080Y844940D03*
X1783080Y861940D03*
D10*
X1589160Y891540D03*
X1606160Y891540D03*
D18*
X1021080Y730640D03*
X1021080Y747640D03*
D10*
X1657740Y716280D03*
X1674740Y716280D03*
D19*
X970280Y904240D03*
X1503680Y904240D03*
X1503680Y726440D03*
X970280Y726440D03*
D17*
X1463294Y828040D03*
X1452880Y828040D03*
X1442466Y828040D03*
D20*
X1804670Y775970D03*
D10*
X1060840Y899160D03*
X1077840Y899160D03*
X1060840Y916940D03*
X1077840Y916940D03*
D21*
X1236980Y814140D03*
X1236980Y791140D03*
D10*
X1657740Y734060D03*
X1674740Y734060D03*
D17*
X1331087Y840740D03*
X1320673Y840740D03*
D18*
X1351280Y844940D03*
X1351280Y861940D03*
D17*
X1331087Y866140D03*
X1320673Y866140D03*
D10*
X1385180Y853440D03*
X1368180Y853440D03*
D22*
X1164844Y772160D03*
X1156716Y772160D03*
D23*
X993930Y844240D03*
X993930Y786440D03*
D10*
X961780Y828040D03*
X978780Y828040D03*
X961780Y802640D03*
X978780Y802640D03*
D18*
X1173480Y811140D03*
X1173480Y794140D03*
D24*
X1719580Y732790D03*
X1732280Y732790D03*
X1744980Y732790D03*
X1757680Y732790D03*
X1706880Y732790D03*
X1719580Y720090D03*
X1732280Y720090D03*
X1744980Y720090D03*
X1757680Y720090D03*
X1706880Y720090D03*
D25*
X957580Y878840D03*
X1846580Y751840D03*
D26*
X1006080Y906780D03*
X1036080Y906780D03*
D27*
X1211580Y811640D03*
X1211580Y793640D03*
D28*
X1107440Y805180D03*
X1082040Y805180D03*
D10*
X122800Y1087120D03*
X105800Y1087120D03*
D11*
X520700Y947420D03*
X495300Y947420D03*
X469900Y947420D03*
X444500Y947420D03*
X419100Y947420D03*
X393700Y947420D03*
X368300Y947420D03*
X342900Y947420D03*
X317500Y947420D03*
X292100Y947420D03*
X266700Y947420D03*
X241300Y947420D03*
X215900Y947420D03*
X190500Y947420D03*
X165100Y947420D03*
X139700Y947420D03*
X520700Y1150620D03*
X495300Y1150620D03*
X469900Y1150620D03*
X444500Y1150620D03*
X419100Y1150620D03*
X393700Y1150620D03*
X368300Y1150620D03*
X342900Y1150620D03*
X317500Y1150620D03*
X292100Y1150620D03*
X266700Y1150620D03*
X241300Y1150620D03*
D12*
X762030Y989520D03*
X705030Y989520D03*
D13*
X689030Y1121020D03*
X820530Y1131020D03*
D14*
X773930Y1092520D03*
X762930Y1088520D03*
X751930Y1092520D03*
X740930Y1094520D03*
X729930Y1092520D03*
X718930Y1094520D03*
X707930Y1092520D03*
X696930Y1092520D03*
D15*
X660400Y949020D03*
D16*
X660400Y1149020D03*
D17*
X370586Y1036320D03*
X381000Y1036320D03*
X391414Y1036320D03*
D18*
X838200Y1078620D03*
X838200Y1095620D03*
D10*
X644280Y1125220D03*
X661280Y1125220D03*
D18*
X76200Y964320D03*
X76200Y981320D03*
D10*
X712860Y949960D03*
X729860Y949960D03*
D19*
X25400Y1137920D03*
X558800Y1137920D03*
X558800Y960120D03*
X25400Y960120D03*
D17*
X518414Y1061720D03*
X508000Y1061720D03*
X497586Y1061720D03*
D20*
X859790Y1009650D03*
D10*
X115960Y1132840D03*
X132960Y1132840D03*
X115960Y1150620D03*
X132960Y1150620D03*
D21*
X292100Y1047820D03*
X292100Y1024820D03*
D10*
X712860Y967740D03*
X729860Y967740D03*
D17*
X386207Y1074420D03*
X375793Y1074420D03*
D18*
X406400Y1078620D03*
X406400Y1095620D03*
D17*
X386207Y1099820D03*
X375793Y1099820D03*
D10*
X440300Y1087120D03*
X423300Y1087120D03*
D22*
X219964Y1005840D03*
X211836Y1005840D03*
D23*
X49050Y1077920D03*
X49050Y1020120D03*
D10*
X16900Y1061720D03*
X33900Y1061720D03*
X16900Y1036320D03*
X33900Y1036320D03*
D18*
X228600Y1044820D03*
X228600Y1027820D03*
D24*
X774700Y966470D03*
X787400Y966470D03*
X800100Y966470D03*
X812800Y966470D03*
X762000Y966470D03*
X774700Y953770D03*
X787400Y953770D03*
X800100Y953770D03*
X812800Y953770D03*
X762000Y953770D03*
D25*
X12700Y1112520D03*
X901700Y985520D03*
D26*
X61200Y1140460D03*
X91200Y1140460D03*
D27*
X266700Y1045320D03*
X266700Y1027320D03*
D28*
X162560Y1038860D03*
X137160Y1038860D03*
D10*
X1067680Y1087120D03*
X1050680Y1087120D03*
D11*
X1465580Y947420D03*
X1440180Y947420D03*
X1414780Y947420D03*
X1389380Y947420D03*
X1363980Y947420D03*
X1338580Y947420D03*
X1313180Y947420D03*
X1287780Y947420D03*
X1262380Y947420D03*
X1236980Y947420D03*
X1211580Y947420D03*
X1186180Y947420D03*
X1160780Y947420D03*
X1135380Y947420D03*
X1109980Y947420D03*
X1084580Y947420D03*
X1465580Y1150620D03*
X1440180Y1150620D03*
X1414780Y1150620D03*
X1389380Y1150620D03*
X1363980Y1150620D03*
X1338580Y1150620D03*
X1313180Y1150620D03*
X1287780Y1150620D03*
X1262380Y1150620D03*
X1236980Y1150620D03*
X1211580Y1150620D03*
X1186180Y1150620D03*
D12*
X1706910Y989520D03*
X1649910Y989520D03*
D13*
X1633910Y1121020D03*
X1765410Y1131020D03*
D14*
X1718810Y1092520D03*
X1707810Y1088520D03*
X1696810Y1092520D03*
X1685810Y1094520D03*
X1674810Y1092520D03*
X1663810Y1094520D03*
X1652810Y1092520D03*
X1641810Y1092520D03*
D15*
X1605280Y949020D03*
D16*
X1605280Y1149020D03*
D17*
X1315466Y1036320D03*
X1325880Y1036320D03*
X1336294Y1036320D03*
D18*
X1783080Y1078620D03*
X1783080Y1095620D03*
D10*
X1589160Y1125220D03*
X1606160Y1125220D03*
D18*
X1021080Y964320D03*
X1021080Y981320D03*
D10*
X1657740Y949960D03*
X1674740Y949960D03*
D19*
X970280Y1137920D03*
X1503680Y1137920D03*
X1503680Y960120D03*
X970280Y960120D03*
D17*
X1463294Y1061720D03*
X1452880Y1061720D03*
X1442466Y1061720D03*
D20*
X1804670Y1009650D03*
D10*
X1060840Y1132840D03*
X1077840Y1132840D03*
X1060840Y1150620D03*
X1077840Y1150620D03*
D21*
X1236980Y1047820D03*
X1236980Y1024820D03*
D10*
X1657740Y967740D03*
X1674740Y967740D03*
D17*
X1331087Y1074420D03*
X1320673Y1074420D03*
D18*
X1351280Y1078620D03*
X1351280Y1095620D03*
D17*
X1331087Y1099820D03*
X1320673Y1099820D03*
D10*
X1385180Y1087120D03*
X1368180Y1087120D03*
D22*
X1164844Y1005840D03*
X1156716Y1005840D03*
D23*
X993930Y1077920D03*
X993930Y1020120D03*
D10*
X961780Y1061720D03*
X978780Y1061720D03*
X961780Y1036320D03*
X978780Y1036320D03*
D18*
X1173480Y1044820D03*
X1173480Y1027820D03*
D24*
X1719580Y966470D03*
X1732280Y966470D03*
X1744980Y966470D03*
X1757680Y966470D03*
X1706880Y966470D03*
X1719580Y953770D03*
X1732280Y953770D03*
X1744980Y953770D03*
X1757680Y953770D03*
X1706880Y953770D03*
D25*
X957580Y1112520D03*
X1846580Y985520D03*
D26*
X1006080Y1140460D03*
X1036080Y1140460D03*
D27*
X1211580Y1045320D03*
X1211580Y1027320D03*
D28*
X1107440Y1038860D03*
X1082040Y1038860D03*
D24*
X93980Y1184275D03*
X1840865Y1184275D03*
D29*
X84925Y-20955D02*
X84928Y-20733D01*
X84936Y-20511D01*
X84950Y-20289D01*
X84969Y-20067D01*
X84993Y-19847D01*
X85023Y-19626D01*
X85058Y-19407D01*
X85099Y-19188D01*
X85145Y-18971D01*
X85196Y-18755D01*
X85253Y-18540D01*
X85315Y-18326D01*
X85382Y-18115D01*
X85454Y-17904D01*
X85532Y-17696D01*
X85614Y-17490D01*
X85702Y-17286D01*
X85794Y-17083D01*
X85892Y-16884D01*
X85994Y-16687D01*
X86101Y-16492D01*
X86213Y-16300D01*
X86330Y-16111D01*
X86451Y-15924D01*
X86577Y-15741D01*
X86707Y-15561D01*
X86842Y-15384D01*
X86980Y-15211D01*
X87123Y-15041D01*
X87271Y-14874D01*
X87422Y-14711D01*
X87577Y-14552D01*
X87736Y-14397D01*
X87899Y-14246D01*
X88066Y-14098D01*
X88236Y-13955D01*
X88409Y-13817D01*
X88586Y-13682D01*
X88766Y-13552D01*
X88949Y-13426D01*
X89136Y-13305D01*
X89325Y-13188D01*
X89517Y-13076D01*
X89712Y-12969D01*
X89909Y-12867D01*
X90108Y-12769D01*
X90311Y-12677D01*
X90515Y-12589D01*
X90721Y-12507D01*
X90929Y-12429D01*
X91140Y-12357D01*
X91351Y-12290D01*
X91565Y-12228D01*
X91780Y-12171D01*
X91996Y-12120D01*
X92213Y-12074D01*
X92432Y-12033D01*
X92651Y-11998D01*
X92872Y-11968D01*
X93092Y-11944D01*
X93314Y-11925D01*
X93536Y-11911D01*
X93758Y-11903D01*
X93980Y-11900D01*
X94202Y-11903D01*
X94424Y-11911D01*
X94646Y-11925D01*
X94868Y-11944D01*
X95088Y-11968D01*
X95309Y-11998D01*
X95528Y-12033D01*
X95747Y-12074D01*
X95964Y-12120D01*
X96180Y-12171D01*
X96395Y-12228D01*
X96609Y-12290D01*
X96820Y-12357D01*
X97031Y-12429D01*
X97239Y-12507D01*
X97445Y-12589D01*
X97649Y-12677D01*
X97852Y-12769D01*
X98051Y-12867D01*
X98248Y-12969D01*
X98443Y-13076D01*
X98635Y-13188D01*
X98824Y-13305D01*
X99011Y-13426D01*
X99194Y-13552D01*
X99374Y-13682D01*
X99551Y-13817D01*
X99724Y-13955D01*
X99894Y-14098D01*
X100061Y-14246D01*
X100224Y-14397D01*
X100383Y-14552D01*
X100538Y-14711D01*
X100689Y-14874D01*
X100837Y-15041D01*
X100980Y-15211D01*
X101118Y-15384D01*
X101253Y-15561D01*
X101383Y-15741D01*
X101509Y-15924D01*
X101630Y-16111D01*
X101747Y-16300D01*
X101859Y-16492D01*
X101966Y-16687D01*
X102068Y-16884D01*
X102166Y-17083D01*
X102258Y-17286D01*
X102346Y-17490D01*
X102428Y-17696D01*
X102506Y-17904D01*
X102578Y-18115D01*
X102645Y-18326D01*
X102707Y-18540D01*
X102764Y-18755D01*
X102815Y-18971D01*
X102861Y-19188D01*
X102902Y-19407D01*
X102937Y-19626D01*
X102967Y-19847D01*
X102991Y-20067D01*
X103010Y-20289D01*
X103024Y-20511D01*
X103032Y-20733D01*
X103035Y-20955D01*
X103032Y-21177D01*
X103024Y-21399D01*
X103010Y-21621D01*
X102991Y-21843D01*
X102967Y-22063D01*
X102937Y-22284D01*
X102902Y-22503D01*
X102861Y-22722D01*
X102815Y-22939D01*
X102764Y-23155D01*
X102707Y-23370D01*
X102645Y-23584D01*
X102578Y-23795D01*
X102506Y-24006D01*
X102428Y-24214D01*
X102346Y-24420D01*
X102258Y-24624D01*
X102166Y-24827D01*
X102068Y-25026D01*
X101966Y-25223D01*
X101859Y-25418D01*
X101747Y-25610D01*
X101630Y-25799D01*
X101509Y-25986D01*
X101383Y-26169D01*
X101253Y-26349D01*
X101118Y-26526D01*
X100980Y-26699D01*
X100837Y-26869D01*
X100689Y-27036D01*
X100538Y-27199D01*
X100383Y-27358D01*
X100224Y-27513D01*
X100061Y-27664D01*
X99894Y-27812D01*
X99724Y-27955D01*
X99551Y-28093D01*
X99374Y-28228D01*
X99194Y-28358D01*
X99011Y-28484D01*
X98824Y-28605D01*
X98635Y-28722D01*
X98443Y-28834D01*
X98248Y-28941D01*
X98051Y-29043D01*
X97852Y-29141D01*
X97649Y-29233D01*
X97445Y-29321D01*
X97239Y-29403D01*
X97031Y-29481D01*
X96820Y-29553D01*
X96609Y-29620D01*
X96395Y-29682D01*
X96180Y-29739D01*
X95964Y-29790D01*
X95747Y-29836D01*
X95528Y-29877D01*
X95309Y-29912D01*
X95088Y-29942D01*
X94868Y-29966D01*
X94646Y-29985D01*
X94424Y-29999D01*
X94202Y-30007D01*
X93980Y-30010D01*
X93758Y-30007D01*
X93536Y-29999D01*
X93314Y-29985D01*
X93092Y-29966D01*
X92872Y-29942D01*
X92651Y-29912D01*
X92432Y-29877D01*
X92213Y-29836D01*
X91996Y-29790D01*
X91780Y-29739D01*
X91565Y-29682D01*
X91351Y-29620D01*
X91140Y-29553D01*
X90929Y-29481D01*
X90721Y-29403D01*
X90515Y-29321D01*
X90311Y-29233D01*
X90108Y-29141D01*
X89909Y-29043D01*
X89712Y-28941D01*
X89517Y-28834D01*
X89325Y-28722D01*
X89136Y-28605D01*
X88949Y-28484D01*
X88766Y-28358D01*
X88586Y-28228D01*
X88409Y-28093D01*
X88236Y-27955D01*
X88066Y-27812D01*
X87899Y-27664D01*
X87736Y-27513D01*
X87577Y-27358D01*
X87422Y-27199D01*
X87271Y-27036D01*
X87123Y-26869D01*
X86980Y-26699D01*
X86842Y-26526D01*
X86707Y-26349D01*
X86577Y-26169D01*
X86451Y-25986D01*
X86330Y-25799D01*
X86213Y-25610D01*
X86101Y-25418D01*
X85994Y-25223D01*
X85892Y-25026D01*
X85794Y-24827D01*
X85702Y-24624D01*
X85614Y-24420D01*
X85532Y-24214D01*
X85454Y-24006D01*
X85382Y-23795D01*
X85315Y-23584D01*
X85253Y-23370D01*
X85196Y-23155D01*
X85145Y-22939D01*
X85099Y-22722D01*
X85058Y-22503D01*
X85023Y-22284D01*
X84993Y-22063D01*
X84969Y-21843D01*
X84950Y-21621D01*
X84936Y-21399D01*
X84928Y-21177D01*
X84925Y-20955D01*
D30*
X93980Y-20955D03*
M02*
