M48
;GenerationSoftware,Autodesk,EAGLE,9.6.2*%
;CreationDate,2021-02-11T22:17:08Z*%
FMAT,2
ICI,OFF
METRIC,TZ,000.000
T9C0.305
T8C0.400
T7C0.508
T6C0.650
T5C1.016
T4C1.100
T3C1.600
T2C3.302
T1C3.800
%
G90
M71
T1
X180467Y7493
X85979Y30861
X180467Y77597
X85979Y100965
X85979Y7493
X180467Y100965
X85979Y54229
X180467Y54229
X85979Y77597
X180467Y30861
T2
X55880Y96012
X150368Y72644
X97028Y72644
X2540Y20320
X55880Y20320
X55880Y2540
X2540Y2540
X2540Y96012
X2540Y113792
X55880Y113792
X97028Y20320
X150368Y20320
X150368Y2540
X97028Y2540
X2540Y43688
X55880Y43688
X55880Y25908
X2540Y25908
X97028Y113792
X97028Y43688
X150368Y43688
X150368Y25908
X97028Y25908
X150368Y113792
X150368Y96012
X150368Y90424
X2540Y67056
X55880Y67056
X55880Y49276
X2540Y49276
X97028Y96012
X97028Y67056
X150368Y67056
X150368Y49276
X97028Y49276
X2540Y90424
X55880Y90424
X55880Y72644
X2540Y72644
X97028Y90424
T3
X66040Y21430
X160528Y21430
X160528Y44798
X160528Y114902
X66040Y44798
X160528Y91534
X66040Y68166
X66040Y91534
X66040Y114902
X160528Y68166
T4
X66040Y1430
X160528Y1430
X66040Y48166
X160528Y71534
X160528Y24798
X66040Y71534
X66040Y24798
X160528Y94902
X66040Y94902
X160528Y48166
T5
X108204Y103886
X138938Y91694
X136398Y91694
X133858Y91694
X131318Y91694
X128778Y91694
X126238Y91694
X123698Y91694
X121158Y91694
X118618Y91694
X110744Y80518
X108204Y80518
X52070Y94742
X49530Y94742
X46990Y94742
X44450Y94742
X41910Y94742
X133858Y1270
X39370Y94742
X36830Y94742
X34290Y94742
X31750Y94742
X52070Y1270
X49530Y1270
X46990Y1270
X44450Y1270
X41910Y1270
X39370Y1270
X36830Y1270
X34290Y1270
X31750Y1270
X29210Y1270
X26670Y1270
X24130Y1270
X21590Y1270
X19050Y1270
X16510Y1270
X13970Y1270
X52070Y21590
X49530Y21590
X46990Y21590
X44450Y21590
X41910Y21590
X39370Y21590
X36830Y21590
X34290Y21590
X31750Y21590
X29210Y21590
X26670Y21590
X24130Y21590
X29210Y94742
X26670Y94742
X24130Y94742
X21590Y94742
X19050Y94742
X16510Y94742
X13970Y94742
X52070Y115062
X49530Y115062
X46990Y115062
X44450Y115062
X41910Y115062
X39370Y115062
X36830Y115062
X16256Y10414
X13716Y10414
X146558Y1270
X144018Y1270
X141478Y1270
X138938Y1270
X136398Y1270
X34290Y115062
X131318Y1270
X128778Y1270
X126238Y1270
X123698Y1270
X121158Y1270
X118618Y1270
X116078Y1270
X113538Y1270
X110998Y1270
X108458Y1270
X146558Y21590
X144018Y21590
X141478Y21590
X138938Y21590
X136398Y21590
X133858Y21590
X131318Y21590
X128778Y21590
X126238Y21590
X123698Y21590
X121158Y21590
X118618Y21590
X31750Y115062
X29210Y115062
X26670Y115062
X24130Y115062
X16256Y103886
X13716Y103886
X146558Y94742
X144018Y94742
X141478Y94742
X138938Y94742
X136398Y94742
X133858Y94742
X131318Y94742
X128778Y94742
X110744Y10414
X108204Y10414
X52070Y24638
X49530Y24638
X46990Y24638
X44450Y24638
X41910Y24638
X39370Y24638
X36830Y24638
X34290Y24638
X31750Y24638
X29210Y24638
X26670Y24638
X24130Y24638
X21590Y24638
X19050Y24638
X16510Y24638
X13970Y24638
X52070Y44958
X49530Y44958
X46990Y44958
X44450Y44958
X41910Y44958
X39370Y44958
X36830Y44958
X34290Y44958
X31750Y44958
X29210Y44958
X26670Y44958
X24130Y44958
X126238Y94742
X123698Y94742
X121158Y94742
X118618Y94742
X116078Y94742
X113538Y94742
X110998Y94742
X108458Y94742
X146558Y115062
X144018Y115062
X141478Y115062
X138938Y115062
X136398Y115062
X133858Y115062
X16256Y33782
X13716Y33782
X146558Y24638
X144018Y24638
X141478Y24638
X138938Y24638
X136398Y24638
X133858Y24638
X131318Y24638
X128778Y24638
X126238Y24638
X123698Y24638
X121158Y24638
X118618Y24638
X116078Y24638
X113538Y24638
X110998Y24638
X108458Y24638
X146558Y44958
X144018Y44958
X141478Y44958
X138938Y44958
X136398Y44958
X133858Y44958
X131318Y44958
X128778Y44958
X126238Y44958
X123698Y44958
X121158Y44958
X118618Y44958
X131318Y115062
X128778Y115062
X126238Y115062
X123698Y115062
X121158Y115062
X118618Y115062
X110744Y103886
X110744Y33782
X108204Y33782
X52070Y48006
X49530Y48006
X46990Y48006
X44450Y48006
X41910Y48006
X39370Y48006
X36830Y48006
X34290Y48006
X31750Y48006
X29210Y48006
X26670Y48006
X24130Y48006
X21590Y48006
X19050Y48006
X16510Y48006
X13970Y48006
X52070Y68326
X49530Y68326
X46990Y68326
X44450Y68326
X41910Y68326
X39370Y68326
X36830Y68326
X34290Y68326
X31750Y68326
X29210Y68326
X26670Y68326
X24130Y68326
X16256Y57150
X13716Y57150
X146558Y48006
X144018Y48006
X141478Y48006
X138938Y48006
X136398Y48006
X133858Y48006
X131318Y48006
X128778Y48006
X126238Y48006
X123698Y48006
X121158Y48006
X118618Y48006
X116078Y48006
X113538Y48006
X110998Y48006
X108458Y48006
X146558Y68326
X144018Y68326
X141478Y68326
X138938Y68326
X136398Y68326
X133858Y68326
X131318Y68326
X128778Y68326
X126238Y68326
X123698Y68326
X121158Y68326
X118618Y68326
X110744Y57150
X108204Y57150
X52070Y71374
X49530Y71374
X46990Y71374
X44450Y71374
X41910Y71374
X39370Y71374
X36830Y71374
X34290Y71374
X31750Y71374
X29210Y71374
X26670Y71374
X24130Y71374
X21590Y71374
X19050Y71374
X16510Y71374
X13970Y71374
X52070Y91694
X49530Y91694
X46990Y91694
X44450Y91694
X41910Y91694
X39370Y91694
X36830Y91694
X34290Y91694
X31750Y91694
X29210Y91694
X26670Y91694
X24130Y91694
X16256Y80518
X13716Y80518
X146558Y71374
X144018Y71374
X141478Y71374
X138938Y71374
X136398Y71374
X133858Y71374
X131318Y71374
X128778Y71374
X126238Y71374
X123698Y71374
X121158Y71374
X118618Y71374
X116078Y71374
X113538Y71374
X110998Y71374
X108458Y71374
X146558Y91694
X144018Y91694
X141478Y91694
T6
X4905Y14320
X4905Y8540
X99393Y14320
X99393Y8540
X4905Y37688
X4905Y31908
X99393Y37688
X99393Y31908
X4905Y61056
X4905Y55276
X99393Y61056
X99393Y55276
X4905Y84424
X4905Y78644
X99393Y84424
X99393Y78644
X4905Y107792
X4905Y102012
X99393Y107792
X99393Y102012
T7
X173228Y3175
X174498Y73279
X175768Y73279
X170688Y73279
X77470Y3175
X78740Y3175
X80010Y3175
X81280Y3175
X76200Y3175
X77470Y1905
X78740Y1905
X80010Y1905
X81280Y1905
X76200Y1905
X175768Y26543
X171958Y72009
X173228Y72009
X174498Y72009
X175768Y72009
X171958Y3175
X170688Y72009
X174498Y3175
X175768Y3175
X170688Y3175
X171958Y1905
X173228Y1905
X174498Y1905
X175768Y1905
X170688Y1905
X170688Y26543
X171958Y96647
X173228Y96647
X174498Y96647
X77470Y26543
X78740Y26543
X80010Y26543
X81280Y26543
X76200Y26543
X77470Y25273
X78740Y25273
X80010Y25273
X81280Y25273
X76200Y25273
X175768Y96647
X170688Y96647
X171958Y95377
X173228Y95377
X171958Y26543
X173228Y26543
X174498Y26543
X174498Y95377
X175768Y95377
X170688Y95377
X174498Y25273
X77470Y73279
X78740Y73279
X80010Y73279
X81280Y73279
X76200Y73279
X77470Y72009
X78740Y72009
X80010Y72009
X81280Y72009
X76200Y72009
X170688Y25273
X77470Y49911
X78740Y49911
X80010Y49911
X81280Y49911
X76200Y49911
X77470Y48641
X78740Y48641
X80010Y48641
X81280Y48641
X76200Y48641
X171958Y25273
X77470Y96647
X78740Y96647
X80010Y96647
X81280Y96647
X76200Y96647
X77470Y95377
X78740Y95377
X80010Y95377
X81280Y95377
X76200Y95377
X175768Y25273
X171958Y49911
X173228Y49911
X174498Y49911
X175768Y49911
X170688Y49911
X171958Y48641
X173228Y48641
X174498Y48641
X175768Y48641
X170688Y48641
X173228Y25273
X171958Y73279
X173228Y73279
T8
X1255Y7112
X5435Y7112
X5435Y15748
X95743Y15748
X95743Y7112
X99923Y7112
X99923Y15748
X1255Y15748
X1255Y39116
X1255Y30480
X5435Y30480
X5435Y39116
X95743Y39116
X95743Y30480
X99923Y30480
X99923Y39116
X1255Y85852
X1255Y77216
X5435Y77216
X5435Y85852
X5435Y62484
X1255Y62484
X1255Y53848
X95743Y62484
X95743Y53848
X95743Y109220
X95743Y100584
X99923Y100584
X99923Y109220
X99923Y53848
X95743Y85852
X95743Y77216
X99923Y77216
X99923Y85852
X99923Y62484
X5435Y53848
X1255Y109220
X1255Y100584
X5435Y100584
X5435Y109220
T9
X167386Y35814
X127762Y41656
X131318Y31496
X104648Y25146
X146812Y43434
X153924Y43388
X157226Y43180
X146304Y42418
X157988Y44958
X110236Y37084
X121158Y41910
X130048Y43180
X153416Y42418
X138938Y31496
X164338Y24892
X164084Y44196
X168656Y40894
X178308Y40640
X129032Y36576
X123444Y36576
X125222Y32258
X117348Y36576
X121158Y40640
X101854Y29972
X124968Y36449
X129286Y33528
X125730Y33528
X137668Y33528
X135128Y33528
X153924Y44450
X138430Y37084
X116078Y36068
X103378Y25146
X151638Y34544
X144018Y34036
X117348Y26416
X120142Y26416
X122428Y31242
X124968Y42926
X127508Y42926
X132588Y31496
X153924Y24638
X158496Y24638
X165608Y44196
X112268Y43688
X112268Y44958
X113538Y44958
X113538Y43688
X108458Y29718
X109728Y29718
X110998Y29718
X113538Y26416
X114808Y26416
X116078Y26416
X160782Y28702
X166370Y33528
X166370Y34544
X166370Y42926
X166370Y40894
X125984Y40640
X132588Y43180
X105156Y39878
X153670Y34544
X152654Y34544
X169164Y25654
X169164Y24638
X170688Y33528
X170688Y34798
X170688Y36068
X145288Y34036
X146558Y34036
X152908Y38608
X121158Y29210
X122428Y29210
X100584Y26670
X100584Y27940
X99314Y27940
X140462Y40386
X109982Y40640
X109982Y39624
X111252Y35560
X110998Y43688
X110998Y44958
X112268Y29718
X118618Y40640
X136398Y31242
X99314Y36576
X99314Y33020
X156718Y27686
X101854Y45466
X102108Y25146
X159512Y38608
X165354Y34290
X148590Y32512
X150876Y33020
X150876Y29718
X125476Y29210
X132588Y26670
X137668Y27178
X144780Y27178
X160782Y26924
X160782Y30988
X143764Y32766
X166370Y30226
X159512Y29464
X102870Y34544
X158242Y29464
X102870Y35560
X157226Y29210
X107442Y40132
X137414Y36830
X126492Y35814
X115062Y33528
X121666Y35560
X151638Y38354
X149352Y37846
X141478Y36830
X120396Y36449
X127889Y36576
X134833Y35519
X158750Y39624
X146050Y27267
X159512Y28448
X168910Y28448
X160528Y39624
X170688Y40640
X159512Y35814
X142113Y38100
X165100Y30226
X107188Y26924
X133858Y31496
X110490Y30988
X137668Y31242
X157226Y42164
X159004Y26162
X119888Y29210
X117094Y44196
X114554Y40386
X136398Y37084
X137922Y40132
X130048Y35306
X114427Y29972
X97536Y37592
X102870Y33528
X116332Y33274
X133858Y35560
X131318Y35560
X104902Y41656
X101600Y41656
X104648Y34544
X53594Y60706
X74168Y53594
X70104Y56896
X32512Y50800
X50711Y56134
X65024Y56896
X35560Y50038
X58420Y56134
X44450Y63754
X70866Y58674
X41148Y65786
X46736Y62992
X66040Y58420
X70358Y65786
X65024Y64008
X53594Y49784
X55372Y53848
X57658Y52578
X72898Y53594
X72644Y68834
X72898Y59182
X33274Y65024
X36830Y54864
X10160Y48514
X52324Y66802
X59436Y66756
X62738Y66548
X51816Y65786
X63500Y68326
X15748Y60452
X26670Y65278
X35560Y66548
X58928Y65786
X44450Y54864
X69850Y48260
X69596Y67564
X74168Y64262
X83820Y64008
X34544Y59944
X28956Y59944
X30734Y55626
X22860Y59944
X26670Y64008
X7366Y53340
X30480Y59817
X34798Y56896
X31242Y56896
X43180Y56896
X40640Y56896
X59436Y67818
X43942Y60452
X21590Y59436
X8890Y48514
X57150Y57912
X49530Y57404
X22860Y49784
X25654Y49784
X27940Y54610
X30480Y66294
X33020Y66294
X38100Y54864
X59436Y48006
X64008Y48006
X71120Y67564
X17780Y67056
X17780Y68326
X19050Y68326
X19050Y67056
X13970Y53086
X15240Y53086
X16510Y53086
X19050Y49784
X20320Y49784
X21590Y49784
X66294Y52070
X71882Y56896
X71882Y57912
X71882Y66294
X71882Y64262
X31496Y64008
X38100Y66548
X10668Y63246
X59182Y57912
X58166Y57912
X74676Y49022
X74676Y48006
X76200Y56896
X76200Y58166
X76200Y59436
X50800Y57404
X52070Y57404
X58420Y61976
X26670Y52578
X27940Y52578
X6096Y50038
X6096Y51308
X4826Y51308
X45974Y63754
X15494Y64008
X15494Y62992
X16764Y58928
X16510Y67056
X16510Y68326
X17780Y53086
X24130Y64008
X41910Y54610
X4826Y59944
X4826Y56388
X62230Y51054
X7366Y68834
X7620Y48514
X65024Y61976
X70866Y57658
X54102Y55880
X56388Y56388
X56388Y53086
X30988Y52578
X38100Y50038
X43180Y50546
X50292Y50546
X66294Y50292
X66294Y54356
X49276Y56134
X71882Y53594
X65024Y52832
X8382Y57912
X63754Y52832
X8382Y58928
X62738Y52578
X12954Y63500
X42926Y60198
X32004Y59182
X20574Y56896
X27178Y58928
X57150Y61722
X54864Y61214
X46990Y60198
X25908Y59817
X33401Y59944
X40345Y58887
X64262Y62992
X51562Y50635
X65024Y51816
X74422Y51816
X66040Y62992
X76200Y64008
X65024Y59182
X47625Y61468
X70612Y53594
X12700Y50292
X39370Y54864
X16002Y54356
X43180Y54610
X62738Y65532
X64516Y49530
X25400Y52578
X22606Y67564
X20066Y63754
X41910Y60452
X43434Y63500
X35560Y58674
X19939Y53340
X3048Y60960
X8382Y56896
X21844Y56642
X39370Y58928
X36830Y58928
X10414Y65024
X7112Y65024
X10160Y57912
X148082Y60706
X168656Y53594
X164592Y56896
X127000Y50800
X145199Y56134
X159512Y56896
X130048Y50038
X152908Y56134
X138938Y63754
X165354Y58674
X135636Y65786
X141224Y62992
X160528Y58420
X164846Y65786
X159512Y64008
X148082Y49784
X149860Y53848
X152146Y52578
X167386Y53594
X167132Y68834
X167386Y59182
X127762Y65024
X131318Y54864
X104648Y48514
X146812Y66802
X153924Y66756
X157226Y66548
X146304Y65786
X157988Y68326
X110236Y60452
X121158Y65278
X130048Y66548
X153416Y65786
X138938Y54864
X164338Y48260
X164084Y67564
X168656Y64262
X178308Y64008
X129032Y59944
X123444Y59944
X125222Y55626
X117348Y59944
X121158Y64008
X101854Y53340
X124968Y59817
X129286Y56896
X125730Y56896
X137668Y56896
X135128Y56896
X153924Y67818
X138430Y60452
X116078Y59436
X103378Y48514
X151638Y57912
X144018Y57404
X117348Y49784
X120142Y49784
X122428Y54610
X124968Y66294
X127508Y66294
X132588Y54864
X153924Y48006
X158496Y48006
X165608Y67564
X112268Y67056
X112268Y68326
X113538Y68326
X113538Y67056
X108458Y53086
X109728Y53086
X110998Y53086
X113538Y49784
X114808Y49784
X116078Y49784
X160782Y52070
X166370Y56896
X166370Y57912
X166370Y66294
X166370Y64262
X125984Y64008
X132588Y66548
X105156Y63246
X153670Y57912
X152654Y57912
X169164Y49022
X169164Y48006
X170688Y56896
X170688Y58166
X170688Y59436
X145288Y57404
X146558Y57404
X152908Y61976
X121158Y52578
X122428Y52578
X100584Y50038
X100584Y51308
X99314Y51308
X140462Y63754
X109982Y64008
X109982Y62992
X111252Y58928
X110998Y67056
X110998Y68326
X112268Y53086
X118618Y64008
X136398Y54610
X99314Y59944
X99314Y56388
X156718Y51054
X101854Y68834
X102108Y48514
X159512Y61976
X165354Y57658
X148590Y55880
X150876Y56388
X150876Y53086
X125476Y52578
X132588Y50038
X137668Y50546
X144780Y50546
X160782Y50292
X160782Y54356
X143764Y56134
X166370Y53594
X159512Y52832
X102870Y57912
X158242Y52832
X102870Y58928
X157226Y52578
X107442Y63500
X137414Y60198
X126492Y59182
X115062Y56896
X121666Y58928
X151638Y61722
X149352Y61214
X141478Y60198
X120396Y59817
X127889Y59944
X134833Y58887
X158750Y62992
X146050Y50635
X159512Y51816
X168910Y51816
X160528Y62992
X170688Y64008
X159512Y59182
X142113Y61468
X165100Y53594
X107188Y50292
X133858Y54864
X110490Y54356
X137668Y54610
X157226Y65532
X159004Y49530
X119888Y52578
X117094Y67564
X114554Y63754
X136398Y60452
X137922Y63500
X130048Y58674
X114427Y53340
X97536Y60960
X102870Y56896
X116332Y56642
X133858Y58928
X131318Y58928
X104902Y65024
X101600Y65024
X104648Y57912
X53594Y84074
X74168Y76962
X70104Y80264
X32512Y74168
X50711Y79502
X65024Y80264
X35560Y73406
X58420Y79502
X44450Y87122
X70866Y82042
X41148Y89154
X46736Y86360
X66040Y81788
X70358Y89154
X65024Y87376
X53594Y73152
X55372Y77216
X57658Y75946
X72898Y76962
X72644Y92202
X72898Y82550
X33274Y88392
X36830Y78232
X10160Y71882
X52324Y90170
X59436Y90124
X62738Y89916
X51816Y89154
X63500Y91694
X15748Y83820
X26670Y88646
X35560Y89916
X58928Y89154
X44450Y78232
X69850Y71628
X69596Y90932
X74168Y87630
X83820Y87376
X34544Y83312
X28956Y83312
X30734Y78994
X22860Y83312
X26670Y87376
X7366Y76708
X30480Y83185
X34798Y80264
X31242Y80264
X43180Y80264
X40640Y80264
X59436Y91186
X43942Y83820
X21590Y82804
X8890Y71882
X57150Y81280
X49530Y80772
X22860Y73152
X25654Y73152
X27940Y77978
X30480Y89662
X33020Y89662
X38100Y78232
X59436Y71374
X64008Y71374
X71120Y90932
X17780Y90424
X17780Y91694
X19050Y91694
X19050Y90424
X13970Y76454
X15240Y76454
X16510Y76454
X19050Y73152
X20320Y73152
X21590Y73152
X66294Y75438
X71882Y80264
X71882Y81280
X71882Y89662
X71882Y87630
X31496Y87376
X38100Y89916
X10668Y86614
X59182Y81280
X58166Y81280
X74676Y72390
X74676Y71374
X76200Y80264
X76200Y81534
X76200Y82804
X50800Y80772
X52070Y80772
X58420Y85344
X26670Y75946
X27940Y75946
X6096Y73406
X156718Y4318
X4826Y74676
X45974Y87122
X15494Y87376
X15494Y86360
X16764Y82296
X16510Y90424
X16510Y91694
X17780Y76454
X24130Y87376
X41910Y77978
X4826Y83312
X4826Y79756
X62230Y74422
X7366Y92202
X7620Y71882
X65024Y85344
X70866Y81026
X54102Y79248
X56388Y79756
X56388Y76454
X30988Y75946
X38100Y73406
X43180Y73914
X50292Y73914
X66294Y73660
X66294Y77724
X49276Y79502
X71882Y76962
X65024Y76200
X8382Y81280
X63754Y76200
X8382Y82296
X62738Y75946
X12954Y86868
X42926Y83566
X32004Y82550
X20574Y80264
X27178Y82296
X57150Y85090
X54864Y84582
X46990Y83566
X25908Y83185
X33401Y83312
X40345Y82255
X64262Y86360
X51562Y74003
X65024Y75184
X74422Y75184
X66040Y86360
X76200Y87376
X65024Y82550
X47625Y84836
X70612Y76962
X12700Y73660
X39370Y78232
X16002Y77724
X43180Y77978
X62738Y88900
X64516Y72898
X25400Y75946
X22606Y90932
X20066Y87122
X41910Y83820
X43434Y86868
X35560Y82042
X19939Y76708
X3048Y84328
X8382Y80264
X21844Y80010
X39370Y82296
X36830Y82296
X10414Y88392
X7112Y88392
X10160Y81280
X148082Y84074
X168656Y76962
X164592Y80264
X127000Y74168
X145199Y79502
X159512Y80264
X130048Y73406
X152908Y79502
X138938Y87122
X165354Y82042
X135636Y89154
X141224Y86360
X160528Y81788
X164846Y89154
X159512Y87376
X148082Y73152
X149860Y77216
X152146Y75946
X167386Y76962
X167132Y92202
X167386Y82550
X127762Y88392
X131318Y78232
X104648Y71882
X146812Y90170
X153924Y90124
X157226Y89916
X146304Y89154
X157988Y91694
X110236Y83820
X121158Y88646
X130048Y89916
X153416Y89154
X138938Y78232
X164338Y71628
X164084Y90932
X168656Y87630
X178308Y87376
X129032Y83312
X123444Y83312
X125222Y78994
X117348Y83312
X121158Y87376
X101854Y76708
X124968Y83185
X129286Y80264
X125730Y80264
X137668Y80264
X135128Y80264
X153924Y91186
X138430Y83820
X116078Y82804
X103378Y71882
X151638Y81280
X144018Y80772
X117348Y73152
X120142Y73152
X122428Y77978
X124968Y89662
X127508Y89662
X132588Y78232
X153924Y71374
X158496Y71374
X165608Y90932
X112268Y90424
X112268Y91694
X113538Y91694
X113538Y90424
X108458Y76454
X109728Y76454
X110998Y76454
X113538Y73152
X114808Y73152
X116078Y73152
X160782Y75438
X166370Y80264
X166370Y81280
X166370Y89662
X166370Y87630
X125984Y87376
X132588Y89916
X105156Y86614
X153670Y81280
X152654Y81280
X169164Y72390
X169164Y71374
X170688Y80264
X170688Y81534
X170688Y82804
X145288Y80772
X146558Y80772
X152908Y85344
X121158Y75946
X122428Y75946
X100584Y73406
X100584Y74676
X99314Y74676
X140462Y87122
X109982Y87376
X109982Y86360
X111252Y82296
X110998Y90424
X110998Y91694
X112268Y76454
X118618Y87376
X136398Y77978
X99314Y83312
X99314Y79756
X156718Y74422
X101854Y92202
X102108Y71882
X159512Y85344
X165354Y81026
X148590Y79248
X150876Y79756
X150876Y76454
X125476Y75946
X132588Y73406
X137668Y73914
X144780Y73914
X160782Y73660
X160782Y77724
X143764Y79502
X166370Y76962
X159512Y76200
X102870Y81280
X158242Y76200
X102870Y82296
X157226Y75946
X107442Y86868
X137414Y83566
X126492Y82550
X115062Y80264
X121666Y82296
X151638Y85090
X149352Y84582
X141478Y83566
X120396Y83185
X127889Y83312
X134833Y82255
X158750Y86360
X146050Y74003
X159512Y75184
X168910Y75184
X160528Y86360
X170688Y87376
X159512Y82550
X142113Y84836
X165100Y76962
X107188Y73660
X133858Y78232
X110490Y77724
X137668Y77978
X157226Y88900
X159004Y72898
X119888Y75946
X117094Y90932
X114554Y87122
X136398Y83820
X137922Y86868
X130048Y82042
X114427Y76708
X97536Y84328
X102870Y80264
X116332Y80010
X133858Y82296
X131318Y82296
X104902Y88392
X101600Y88392
X104648Y81280
X53594Y107442
X74168Y100330
X70104Y103632
X32512Y97536
X50711Y102870
X65024Y103632
X35560Y96774
X58420Y102870
X44450Y110490
X70866Y105410
X41148Y112522
X46736Y109728
X66040Y105156
X70358Y112522
X65024Y110744
X53594Y96520
X55372Y100584
X57658Y99314
X72898Y100330
X72644Y115570
X72898Y105918
X33274Y111760
X36830Y101600
X10160Y95250
X52324Y113538
X59436Y113492
X62738Y113284
X51816Y112522
X63500Y115062
X15748Y107188
X26670Y112014
X35560Y113284
X58928Y112522
X44450Y101600
X69850Y94996
X69596Y114300
X74168Y110998
X83820Y110744
X34544Y106680
X28956Y106680
X30734Y102362
X22860Y106680
X26670Y110744
X7366Y100076
X30480Y106553
X34798Y103632
X31242Y103632
X43180Y103632
X40640Y103632
X59436Y114554
X43942Y107188
X21590Y106172
X8890Y95250
X57150Y104648
X49530Y104140
X22860Y96520
X25654Y96520
X27940Y101346
X30480Y113030
X33020Y113030
X38100Y101600
X59436Y94742
X64008Y94742
X71120Y114300
X17780Y113792
X17780Y115062
X19050Y115062
X19050Y113792
X13970Y99822
X15240Y99822
X16510Y99822
X19050Y96520
X20320Y96520
X21590Y96520
X66294Y98806
X71882Y103632
X71882Y104648
X71882Y113030
X71882Y110998
X31496Y110744
X38100Y113284
X10668Y109982
X59182Y104648
X58166Y104648
X74676Y95758
X74676Y94742
X76200Y103632
X76200Y104902
X76200Y106172
X50800Y104140
X52070Y104140
X58420Y108712
X26670Y99314
X27940Y99314
X6096Y96774
X6096Y98044
X4826Y98044
X45974Y110490
X15494Y110744
X15494Y109728
X16764Y105664
X16510Y113792
X16510Y115062
X17780Y99822
X24130Y110744
X41910Y101346
X4826Y106680
X4826Y103124
X62230Y97790
X7366Y115570
X7620Y95250
X65024Y108712
X70866Y104394
X54102Y102616
X56388Y103124
X56388Y99822
X30988Y99314
X38100Y96774
X43180Y97282
X50292Y97282
X66294Y97028
X66294Y101092
X49276Y102870
X71882Y100330
X65024Y99568
X8382Y104648
X63754Y99568
X8382Y105664
X62738Y99314
X12954Y110236
X42926Y106934
X32004Y105918
X20574Y103632
X27178Y105664
X57150Y108458
X54864Y107950
X46990Y106934
X25908Y106553
X33401Y106680
X40345Y105623
X64262Y109728
X51562Y97371
X65024Y98552
X74422Y98552
X66040Y109728
X76200Y110744
X65024Y105918
X47625Y108204
X70612Y100330
X12700Y97028
X39370Y101600
X16002Y101092
X43180Y101346
X62738Y112268
X64516Y96266
X25400Y99314
X22606Y114300
X20066Y110490
X41910Y107188
X43434Y110236
X35560Y105410
X19939Y100076
X3048Y107696
X8382Y103632
X21844Y103378
X39370Y105664
X36830Y105664
X10414Y111760
X7112Y111760
X10160Y104648
X148082Y107442
X168656Y100330
X164592Y103632
X127000Y97536
X145199Y102870
X159512Y103632
X130048Y96774
X152908Y102870
X138938Y110490
X165354Y105410
X135636Y112522
X141224Y109728
X160528Y105156
X164846Y112522
X159512Y110744
X148082Y96520
X149860Y100584
X152146Y99314
X167386Y100330
X167132Y115570
X167386Y105918
X127762Y111760
X131318Y101600
X104648Y95250
X146812Y113538
X153924Y113492
X157226Y113284
X146304Y112522
X157988Y115062
X110236Y107188
X121158Y112014
X130048Y113284
X153416Y112522
X138938Y101600
X164338Y94996
X164084Y114300
X168656Y110998
X178308Y110744
X129032Y106680
X123444Y106680
X125222Y102362
X117348Y106680
X121158Y110744
X101854Y100076
X124968Y106553
X129286Y103632
X125730Y103632
X137668Y103632
X135128Y103632
X153924Y114554
X138430Y107188
X116078Y106172
X103378Y95250
X151638Y104648
X144018Y104140
X117348Y96520
X120142Y96520
X122428Y101346
X124968Y113030
X127508Y113030
X132588Y101600
X153924Y94742
X158496Y94742
X165608Y114300
X112268Y113792
X112268Y115062
X113538Y115062
X113538Y113792
X108458Y99822
X109728Y99822
X110998Y99822
X113538Y96520
X114808Y96520
X116078Y96520
X160782Y98806
X166370Y103632
X166370Y104648
X166370Y113030
X166370Y110998
X125984Y110744
X132588Y113284
X105156Y109982
X153670Y104648
X152654Y104648
X169164Y95758
X169164Y94742
X170688Y103632
X170688Y104902
X170688Y106172
X145288Y104140
X146558Y104140
X152908Y108712
X121158Y99314
X122428Y99314
X100584Y96774
X100584Y98044
X99314Y98044
X140462Y110490
X109982Y110744
X109982Y109728
X111252Y105664
X110998Y113792
X110998Y115062
X112268Y99822
X118618Y110744
X136398Y101346
X99314Y106680
X99314Y103124
X156718Y97790
X101854Y115570
X102108Y95250
X159512Y108712
X165354Y104394
X148590Y102616
X150876Y103124
X150876Y99822
X125476Y99314
X132588Y96774
X137668Y97282
X144780Y97282
X160782Y97028
X160782Y101092
X143764Y102870
X166370Y100330
X159512Y99568
X102870Y104648
X158242Y99568
X102870Y105664
X157226Y99314
X107442Y110236
X137414Y106934
X126492Y105918
X115062Y103632
X121666Y105664
X151638Y108458
X149352Y107950
X141478Y106934
X120396Y106553
X127889Y106680
X134833Y105623
X158750Y109728
X146050Y97371
X159512Y98552
X53594Y13970
X160528Y109728
X170688Y110744
X159512Y105918
X142113Y108204
X165100Y100330
X107188Y97028
X133858Y101600
X110490Y101092
X137668Y101346
X157226Y112268
X159004Y96266
X119888Y99314
X117094Y114300
X114554Y110490
X136398Y107188
X137922Y110236
X130048Y105410
X114427Y100076
X97536Y107696
X102870Y103632
X116332Y103378
X133858Y105664
X131318Y105664
X104902Y111760
X101600Y111760
X104648Y104648
X74168Y6858
X70104Y10160
X32512Y4064
X50711Y9398
X65024Y10160
X35560Y3302
X58420Y9398
X44450Y17018
X70866Y11938
X41148Y19050
X46736Y16256
X66040Y11684
X70358Y19050
X65024Y17272
X53594Y3048
X55372Y7112
X57658Y5842
X72898Y6858
X72644Y22098
X72898Y12446
X33274Y18288
X36830Y8128
X10160Y1778
X52324Y20066
X59436Y20020
X62738Y19812
X51816Y19050
X63500Y21590
X15748Y13716
X26670Y18542
X35560Y19812
X58928Y19050
X44450Y8128
X69850Y1524
X69596Y20828
X74168Y17526
X83820Y17272
X34544Y13208
X28956Y13208
X30734Y8890
X22860Y13208
X26670Y17272
X7366Y6604
X30480Y13081
X34798Y10160
X31242Y10160
X43180Y10160
X40640Y10160
X59436Y21082
X43942Y13716
X21590Y12700
X8890Y1778
X57150Y11176
X49530Y10668
X22860Y3048
X25654Y3048
X27940Y7874
X30480Y19558
X33020Y19558
X38100Y8128
X59436Y1270
X64008Y1270
X71120Y20828
X17780Y20320
X17780Y21590
X19050Y21590
X19050Y20320
X13970Y6350
X15240Y6350
X16510Y6350
X19050Y3048
X20320Y3048
X21590Y3048
X66294Y5334
X71882Y10160
X71882Y11176
X71882Y19558
X71882Y17526
X31496Y17272
X38100Y19812
X10668Y16510
X59182Y11176
X58166Y11176
X74676Y2286
X74676Y1270
X76200Y10160
X76200Y11430
X76200Y12700
X50800Y10668
X52070Y10668
X58420Y15240
X26670Y5842
X27940Y5842
X6096Y3302
X6096Y4572
X4826Y4572
X45974Y17018
X15494Y17272
X15494Y16256
X16764Y12192
X16510Y20320
X16510Y21590
X17780Y6350
X24130Y17272
X41910Y7874
X4826Y13208
X4826Y9652
X62230Y4318
X7366Y22098
X7620Y1778
X65024Y15240
X70866Y10922
X54102Y9144
X56388Y9652
X56388Y6350
X30988Y5842
X38100Y3302
X43180Y3810
X50292Y3810
X66294Y3556
X66294Y7620
X49276Y9398
X71882Y6858
X65024Y6096
X8382Y11176
X63754Y6096
X8382Y12192
X62738Y5842
X12954Y16764
X42926Y13462
X32004Y12446
X20574Y10160
X27178Y12192
X57150Y14986
X54864Y14478
X46990Y13462
X25908Y13081
X33401Y13208
X40345Y12151
X64262Y16256
X51562Y3899
X65024Y5080
X74422Y5080
X66040Y16256
X76200Y17272
X65024Y12446
X47625Y14732
X70612Y6858
X12700Y3556
X39370Y8128
X16002Y7620
X43180Y7874
X62738Y18796
X64516Y2794
X25400Y5842
X22606Y20828
X20066Y17018
X41910Y13716
X43434Y16764
X35560Y11938
X19939Y6604
X3048Y14224
X8382Y10160
X21844Y9906
X39370Y12192
X36830Y12192
X10414Y18288
X7112Y18288
X10160Y11176
X148082Y13970
X168656Y6858
X164592Y10160
X127000Y4064
X145199Y9398
X159512Y10160
X130048Y3302
X152908Y9398
X138938Y17018
X165354Y11938
X135636Y19050
X141224Y16256
X160528Y11684
X164846Y19050
X159512Y17272
X148082Y3048
X149860Y7112
X152146Y5842
X167386Y6858
X167132Y22098
X167386Y12446
X127762Y18288
X131318Y8128
X104648Y1778
X146812Y20066
X153924Y20020
X157226Y19812
X146304Y19050
X157988Y21590
X110236Y13716
X121158Y18542
X130048Y19812
X153416Y19050
X138938Y8128
X164338Y1524
X164084Y20828
X168656Y17526
X178308Y17272
X129032Y13208
X123444Y13208
X125222Y8890
X117348Y13208
X121158Y17272
X101854Y6604
X124968Y13081
X129286Y10160
X125730Y10160
X137668Y10160
X135128Y10160
X153924Y21082
X138430Y13716
X116078Y12700
X103378Y1778
X151638Y11176
X144018Y10668
X117348Y3048
X120142Y3048
X122428Y7874
X124968Y19558
X127508Y19558
X132588Y8128
X153924Y1270
X158496Y1270
X165608Y20828
X112268Y20320
X112268Y21590
X113538Y21590
X113538Y20320
X108458Y6350
X109728Y6350
X110998Y6350
X113538Y3048
X114808Y3048
X116078Y3048
X160782Y5334
X166370Y10160
X166370Y11176
X166370Y19558
X166370Y17526
X125984Y17272
X132588Y19812
X105156Y16510
X6096Y74676
X153670Y11176
X152654Y11176
X169164Y2286
X169164Y1270
X170688Y10160
X170688Y11430
X170688Y12700
X145288Y10668
X146558Y10668
X152908Y15240
X121158Y5842
X122428Y5842
X100584Y3302
X100584Y4572
X99314Y4572
X140462Y17018
X109982Y17272
X109982Y16256
X111252Y12192
X110998Y20320
X110998Y21590
X112268Y6350
X118618Y17272
X136398Y7874
X99314Y13208
X99314Y9652
X101854Y22098
X102108Y1778
X159512Y15240
X165354Y10922
X148590Y9144
X150876Y9652
X150876Y6350
X125476Y5842
X132588Y3302
X137668Y3810
X144780Y3810
X160782Y3556
X160782Y7620
X143764Y9398
X166370Y6858
X159512Y6096
X102870Y11176
X158242Y6096
X102870Y12192
X157226Y5842
X107442Y16764
X137414Y13462
X126492Y12446
X115062Y10160
X121666Y12192
X151638Y14986
X149352Y14478
X141478Y13462
X120396Y13081
X127889Y13208
X134833Y12151
X158750Y16256
X146050Y3899
X159512Y5080
X168910Y5080
X160528Y16256
X170688Y17272
X159512Y12446
X142113Y14732
X165100Y6858
X107188Y3556
X133858Y8128
X110490Y7620
X137668Y7874
X157226Y18796
X159004Y2794
X119888Y5842
X117094Y20828
X114554Y17018
X136398Y13716
X137922Y16764
X130048Y11938
X114427Y6604
X97536Y14224
X102870Y10160
X116332Y9906
X133858Y12192
X131318Y12192
X104902Y18288
X101600Y18288
X104648Y11176
X53594Y37338
X74168Y30226
X70104Y33528
X32512Y27432
X50711Y32766
X65024Y33528
X35560Y26670
X58420Y32766
X44450Y40386
X70866Y35306
X41148Y42418
X46736Y39624
X66040Y35052
X70358Y42418
X65024Y40640
X53594Y26416
X55372Y30480
X57658Y29210
X72898Y30226
X72644Y45466
X72898Y35814
X33274Y41656
X36830Y31496
X10160Y25146
X52324Y43434
X59436Y43388
X62738Y43180
X51816Y42418
X63500Y44958
X15748Y37084
X26670Y41910
X35560Y43180
X58928Y42418
X44450Y31496
X69850Y24892
X69596Y44196
X74168Y40894
X83820Y40640
X34544Y36576
X28956Y36576
X30734Y32258
X22860Y36576
X26670Y40640
X7366Y29972
X30480Y36449
X34798Y33528
X31242Y33528
X43180Y33528
X40640Y33528
X59436Y44450
X43942Y37084
X21590Y36068
X8890Y25146
X57150Y34544
X49530Y34036
X22860Y26416
X25654Y26416
X27940Y31242
X30480Y42926
X33020Y42926
X38100Y31496
X59436Y24638
X64008Y24638
X71120Y44196
X17780Y43688
X17780Y44958
X19050Y44958
X19050Y43688
X13970Y29718
X15240Y29718
X16510Y29718
X19050Y26416
X20320Y26416
X21590Y26416
X66294Y28702
X71882Y33528
X71882Y34544
X71882Y42926
X71882Y40894
X31496Y40640
X38100Y43180
X10668Y39878
X59182Y34544
X58166Y34544
X74676Y25654
X74676Y24638
X76200Y33528
X76200Y34798
X76200Y36068
X50800Y34036
X52070Y34036
X58420Y38608
X26670Y29210
X27940Y29210
X6096Y26670
X6096Y27940
X4826Y27940
X45974Y40386
X15494Y40640
X15494Y39624
X16764Y35560
X16510Y43688
X16510Y44958
X17780Y29718
X24130Y40640
X41910Y31242
X4826Y36576
X4826Y33020
X62230Y27686
X7366Y45466
X7620Y25146
X65024Y38608
X70866Y34290
X54102Y32512
X56388Y33020
X56388Y29718
X30988Y29210
X38100Y26670
X43180Y27178
X50292Y27178
X66294Y26924
X66294Y30988
X49276Y32766
X71882Y30226
X65024Y29464
X8382Y34544
X63754Y29464
X8382Y35560
X62738Y29210
X12954Y40132
X42926Y36830
X32004Y35814
X20574Y33528
X27178Y35560
X57150Y38354
X54864Y37846
X46990Y36830
X25908Y36449
X33401Y36576
X40345Y35519
X64262Y39624
X51562Y27267
X65024Y28448
X74422Y28448
X66040Y39624
X76200Y40640
X65024Y35814
X47625Y38100
X70612Y30226
X12700Y26924
X39370Y31496
X16002Y30988
X43180Y31242
X62738Y42164
X64516Y26162
X25400Y29210
X22606Y44196
X20066Y40386
X41910Y37084
X43434Y40132
X35560Y35306
X19939Y29972
X3048Y37592
X8382Y33528
X21844Y33274
X39370Y35560
X36830Y35560
X10414Y41656
X7112Y41656
X10160Y34544
X148082Y37338
X168656Y30226
X164592Y33528
X127000Y27432
X145199Y32766
X159512Y33528
X130048Y26670
X152908Y32766
X138938Y40386
X165354Y35306
X135636Y42418
X141224Y39624
X160528Y35052
X164846Y42418
X159512Y40640
X148082Y26416
X149860Y30480
X152146Y29210
X167386Y30226
X167132Y45466
X168910Y98552
M30