G04 EAGLE Gerber RS-274X export*
G75*
%MOMM*%
%FSLAX34Y34*%
%LPD*%
%INSolderpaste Bottom*%
%IPPOS*%
%AMOC8*
5,1,8,0,0,1.08239X$1,22.5*%
G01*
%ADD10R,1.100000X1.000000*%
%ADD11R,1.800000X1.400000*%
%ADD12R,1.400000X1.900000*%
%ADD13R,0.800000X1.500000*%
%ADD14R,1.000000X1.100000*%
%ADD15R,0.830000X0.630000*%
%ADD16R,1.000000X2.800000*%
%ADD17R,1.200000X0.800000*%


D10*
X122800Y152400D03*
X105800Y152400D03*
D11*
X762030Y54800D03*
X705030Y54800D03*
D12*
X689030Y186300D03*
X820530Y196300D03*
D13*
X773930Y157800D03*
X762930Y153800D03*
X751930Y157800D03*
X740930Y159800D03*
X729930Y157800D03*
X718930Y159800D03*
X707930Y157800D03*
X696930Y157800D03*
D14*
X838200Y143900D03*
X838200Y160900D03*
D10*
X644280Y190500D03*
X661280Y190500D03*
D14*
X76200Y29600D03*
X76200Y46600D03*
D10*
X712860Y15240D03*
X729860Y15240D03*
X115960Y198120D03*
X132960Y198120D03*
X115960Y215900D03*
X132960Y215900D03*
D15*
X292100Y113100D03*
X292100Y90100D03*
D10*
X712860Y33020D03*
X729860Y33020D03*
D14*
X406400Y143900D03*
X406400Y160900D03*
D10*
X440300Y152400D03*
X423300Y152400D03*
X16900Y127000D03*
X33900Y127000D03*
X16900Y101600D03*
X33900Y101600D03*
D14*
X228600Y110100D03*
X228600Y93100D03*
D16*
X61200Y205740D03*
X91200Y205740D03*
D17*
X266700Y110600D03*
X266700Y92600D03*
D10*
X1067680Y152400D03*
X1050680Y152400D03*
D11*
X1706910Y54800D03*
X1649910Y54800D03*
D12*
X1633910Y186300D03*
X1765410Y196300D03*
D13*
X1718810Y157800D03*
X1707810Y153800D03*
X1696810Y157800D03*
X1685810Y159800D03*
X1674810Y157800D03*
X1663810Y159800D03*
X1652810Y157800D03*
X1641810Y157800D03*
D14*
X1783080Y143900D03*
X1783080Y160900D03*
D10*
X1589160Y190500D03*
X1606160Y190500D03*
D14*
X1021080Y29600D03*
X1021080Y46600D03*
D10*
X1657740Y15240D03*
X1674740Y15240D03*
X1060840Y198120D03*
X1077840Y198120D03*
X1060840Y215900D03*
X1077840Y215900D03*
D15*
X1236980Y113100D03*
X1236980Y90100D03*
D10*
X1657740Y33020D03*
X1674740Y33020D03*
D14*
X1351280Y143900D03*
X1351280Y160900D03*
D10*
X1385180Y152400D03*
X1368180Y152400D03*
X961780Y127000D03*
X978780Y127000D03*
X961780Y101600D03*
X978780Y101600D03*
D14*
X1173480Y110100D03*
X1173480Y93100D03*
D16*
X1006080Y205740D03*
X1036080Y205740D03*
D17*
X1211580Y110600D03*
X1211580Y92600D03*
D10*
X122800Y386080D03*
X105800Y386080D03*
D11*
X762030Y288480D03*
X705030Y288480D03*
D12*
X689030Y419980D03*
X820530Y429980D03*
D13*
X773930Y391480D03*
X762930Y387480D03*
X751930Y391480D03*
X740930Y393480D03*
X729930Y391480D03*
X718930Y393480D03*
X707930Y391480D03*
X696930Y391480D03*
D14*
X838200Y377580D03*
X838200Y394580D03*
D10*
X644280Y424180D03*
X661280Y424180D03*
D14*
X76200Y263280D03*
X76200Y280280D03*
D10*
X712860Y248920D03*
X729860Y248920D03*
X115960Y431800D03*
X132960Y431800D03*
X115960Y449580D03*
X132960Y449580D03*
D15*
X292100Y346780D03*
X292100Y323780D03*
D10*
X712860Y266700D03*
X729860Y266700D03*
D14*
X406400Y377580D03*
X406400Y394580D03*
D10*
X440300Y386080D03*
X423300Y386080D03*
X16900Y360680D03*
X33900Y360680D03*
X16900Y335280D03*
X33900Y335280D03*
D14*
X228600Y343780D03*
X228600Y326780D03*
D16*
X61200Y439420D03*
X91200Y439420D03*
D17*
X266700Y344280D03*
X266700Y326280D03*
D10*
X1067680Y386080D03*
X1050680Y386080D03*
D11*
X1706910Y288480D03*
X1649910Y288480D03*
D12*
X1633910Y419980D03*
X1765410Y429980D03*
D13*
X1718810Y391480D03*
X1707810Y387480D03*
X1696810Y391480D03*
X1685810Y393480D03*
X1674810Y391480D03*
X1663810Y393480D03*
X1652810Y391480D03*
X1641810Y391480D03*
D14*
X1783080Y377580D03*
X1783080Y394580D03*
D10*
X1589160Y424180D03*
X1606160Y424180D03*
D14*
X1021080Y263280D03*
X1021080Y280280D03*
D10*
X1657740Y248920D03*
X1674740Y248920D03*
X1060840Y431800D03*
X1077840Y431800D03*
X1060840Y449580D03*
X1077840Y449580D03*
D15*
X1236980Y346780D03*
X1236980Y323780D03*
D10*
X1657740Y266700D03*
X1674740Y266700D03*
D14*
X1351280Y377580D03*
X1351280Y394580D03*
D10*
X1385180Y386080D03*
X1368180Y386080D03*
X961780Y360680D03*
X978780Y360680D03*
X961780Y335280D03*
X978780Y335280D03*
D14*
X1173480Y343780D03*
X1173480Y326780D03*
D16*
X1006080Y439420D03*
X1036080Y439420D03*
D17*
X1211580Y344280D03*
X1211580Y326280D03*
D10*
X122800Y619760D03*
X105800Y619760D03*
D11*
X762030Y522160D03*
X705030Y522160D03*
D12*
X689030Y653660D03*
X820530Y663660D03*
D13*
X773930Y625160D03*
X762930Y621160D03*
X751930Y625160D03*
X740930Y627160D03*
X729930Y625160D03*
X718930Y627160D03*
X707930Y625160D03*
X696930Y625160D03*
D14*
X838200Y611260D03*
X838200Y628260D03*
D10*
X644280Y657860D03*
X661280Y657860D03*
D14*
X76200Y496960D03*
X76200Y513960D03*
D10*
X712860Y482600D03*
X729860Y482600D03*
X115960Y665480D03*
X132960Y665480D03*
X115960Y683260D03*
X132960Y683260D03*
D15*
X292100Y580460D03*
X292100Y557460D03*
D10*
X712860Y500380D03*
X729860Y500380D03*
D14*
X406400Y611260D03*
X406400Y628260D03*
D10*
X440300Y619760D03*
X423300Y619760D03*
X16900Y594360D03*
X33900Y594360D03*
X16900Y568960D03*
X33900Y568960D03*
D14*
X228600Y577460D03*
X228600Y560460D03*
D16*
X61200Y673100D03*
X91200Y673100D03*
D17*
X266700Y577960D03*
X266700Y559960D03*
D10*
X1067680Y619760D03*
X1050680Y619760D03*
D11*
X1706910Y522160D03*
X1649910Y522160D03*
D12*
X1633910Y653660D03*
X1765410Y663660D03*
D13*
X1718810Y625160D03*
X1707810Y621160D03*
X1696810Y625160D03*
X1685810Y627160D03*
X1674810Y625160D03*
X1663810Y627160D03*
X1652810Y625160D03*
X1641810Y625160D03*
D14*
X1783080Y611260D03*
X1783080Y628260D03*
D10*
X1589160Y657860D03*
X1606160Y657860D03*
D14*
X1021080Y496960D03*
X1021080Y513960D03*
D10*
X1657740Y482600D03*
X1674740Y482600D03*
X1060840Y665480D03*
X1077840Y665480D03*
X1060840Y683260D03*
X1077840Y683260D03*
D15*
X1236980Y580460D03*
X1236980Y557460D03*
D10*
X1657740Y500380D03*
X1674740Y500380D03*
D14*
X1351280Y611260D03*
X1351280Y628260D03*
D10*
X1385180Y619760D03*
X1368180Y619760D03*
X961780Y594360D03*
X978780Y594360D03*
X961780Y568960D03*
X978780Y568960D03*
D14*
X1173480Y577460D03*
X1173480Y560460D03*
D16*
X1006080Y673100D03*
X1036080Y673100D03*
D17*
X1211580Y577960D03*
X1211580Y559960D03*
D10*
X122800Y853440D03*
X105800Y853440D03*
D11*
X762030Y755840D03*
X705030Y755840D03*
D12*
X689030Y887340D03*
X820530Y897340D03*
D13*
X773930Y858840D03*
X762930Y854840D03*
X751930Y858840D03*
X740930Y860840D03*
X729930Y858840D03*
X718930Y860840D03*
X707930Y858840D03*
X696930Y858840D03*
D14*
X838200Y844940D03*
X838200Y861940D03*
D10*
X644280Y891540D03*
X661280Y891540D03*
D14*
X76200Y730640D03*
X76200Y747640D03*
D10*
X712860Y716280D03*
X729860Y716280D03*
X115960Y899160D03*
X132960Y899160D03*
X115960Y916940D03*
X132960Y916940D03*
D15*
X292100Y814140D03*
X292100Y791140D03*
D10*
X712860Y734060D03*
X729860Y734060D03*
D14*
X406400Y844940D03*
X406400Y861940D03*
D10*
X440300Y853440D03*
X423300Y853440D03*
X16900Y828040D03*
X33900Y828040D03*
X16900Y802640D03*
X33900Y802640D03*
D14*
X228600Y811140D03*
X228600Y794140D03*
D16*
X61200Y906780D03*
X91200Y906780D03*
D17*
X266700Y811640D03*
X266700Y793640D03*
D10*
X1067680Y853440D03*
X1050680Y853440D03*
D11*
X1706910Y755840D03*
X1649910Y755840D03*
D12*
X1633910Y887340D03*
X1765410Y897340D03*
D13*
X1718810Y858840D03*
X1707810Y854840D03*
X1696810Y858840D03*
X1685810Y860840D03*
X1674810Y858840D03*
X1663810Y860840D03*
X1652810Y858840D03*
X1641810Y858840D03*
D14*
X1783080Y844940D03*
X1783080Y861940D03*
D10*
X1589160Y891540D03*
X1606160Y891540D03*
D14*
X1021080Y730640D03*
X1021080Y747640D03*
D10*
X1657740Y716280D03*
X1674740Y716280D03*
X1060840Y899160D03*
X1077840Y899160D03*
X1060840Y916940D03*
X1077840Y916940D03*
D15*
X1236980Y814140D03*
X1236980Y791140D03*
D10*
X1657740Y734060D03*
X1674740Y734060D03*
D14*
X1351280Y844940D03*
X1351280Y861940D03*
D10*
X1385180Y853440D03*
X1368180Y853440D03*
X961780Y828040D03*
X978780Y828040D03*
X961780Y802640D03*
X978780Y802640D03*
D14*
X1173480Y811140D03*
X1173480Y794140D03*
D16*
X1006080Y906780D03*
X1036080Y906780D03*
D17*
X1211580Y811640D03*
X1211580Y793640D03*
D10*
X122800Y1087120D03*
X105800Y1087120D03*
D11*
X762030Y989520D03*
X705030Y989520D03*
D12*
X689030Y1121020D03*
X820530Y1131020D03*
D13*
X773930Y1092520D03*
X762930Y1088520D03*
X751930Y1092520D03*
X740930Y1094520D03*
X729930Y1092520D03*
X718930Y1094520D03*
X707930Y1092520D03*
X696930Y1092520D03*
D14*
X838200Y1078620D03*
X838200Y1095620D03*
D10*
X644280Y1125220D03*
X661280Y1125220D03*
D14*
X76200Y964320D03*
X76200Y981320D03*
D10*
X712860Y949960D03*
X729860Y949960D03*
X115960Y1132840D03*
X132960Y1132840D03*
X115960Y1150620D03*
X132960Y1150620D03*
D15*
X292100Y1047820D03*
X292100Y1024820D03*
D10*
X712860Y967740D03*
X729860Y967740D03*
D14*
X406400Y1078620D03*
X406400Y1095620D03*
D10*
X440300Y1087120D03*
X423300Y1087120D03*
X16900Y1061720D03*
X33900Y1061720D03*
X16900Y1036320D03*
X33900Y1036320D03*
D14*
X228600Y1044820D03*
X228600Y1027820D03*
D16*
X61200Y1140460D03*
X91200Y1140460D03*
D17*
X266700Y1045320D03*
X266700Y1027320D03*
D10*
X1067680Y1087120D03*
X1050680Y1087120D03*
D11*
X1706910Y989520D03*
X1649910Y989520D03*
D12*
X1633910Y1121020D03*
X1765410Y1131020D03*
D13*
X1718810Y1092520D03*
X1707810Y1088520D03*
X1696810Y1092520D03*
X1685810Y1094520D03*
X1674810Y1092520D03*
X1663810Y1094520D03*
X1652810Y1092520D03*
X1641810Y1092520D03*
D14*
X1783080Y1078620D03*
X1783080Y1095620D03*
D10*
X1589160Y1125220D03*
X1606160Y1125220D03*
D14*
X1021080Y964320D03*
X1021080Y981320D03*
D10*
X1657740Y949960D03*
X1674740Y949960D03*
X1060840Y1132840D03*
X1077840Y1132840D03*
X1060840Y1150620D03*
X1077840Y1150620D03*
D15*
X1236980Y1047820D03*
X1236980Y1024820D03*
D10*
X1657740Y967740D03*
X1674740Y967740D03*
D14*
X1351280Y1078620D03*
X1351280Y1095620D03*
D10*
X1385180Y1087120D03*
X1368180Y1087120D03*
X961780Y1061720D03*
X978780Y1061720D03*
X961780Y1036320D03*
X978780Y1036320D03*
D14*
X1173480Y1044820D03*
X1173480Y1027820D03*
D16*
X1006080Y1140460D03*
X1036080Y1140460D03*
D17*
X1211580Y1045320D03*
X1211580Y1027320D03*
M02*
