M48
;GenerationSoftware,Autodesk,EAGLE,9.6.2*%
;CreationDate,2021-02-11T21:24:27Z*%
FMAT,2
ICI,OFF
METRIC,TZ,000.000
T9C0.305
T8C0.400
T7C0.508
T6C0.650
T5C1.016
T4C1.100
T3C1.600
T2C3.302
T1C3.800
%
G90
M71
T1
X177927Y7493
X85979Y30861
X177927Y77597
X85979Y100965
X85979Y7493
X177927Y100965
X85979Y54229
X177927Y54229
X85979Y77597
X177927Y30861
T2
X55880Y96012
X147828Y72644
X94488Y72644
X2540Y20320
X55880Y20320
X55880Y2540
X2540Y2540
X2540Y96012
X2540Y113792
X55880Y113792
X94488Y20320
X147828Y20320
X147828Y2540
X94488Y2540
X2540Y43688
X55880Y43688
X55880Y25908
X2540Y25908
X94488Y113792
X94488Y43688
X147828Y43688
X147828Y25908
X94488Y25908
X147828Y113792
X147828Y96012
X147828Y90424
X2540Y67056
X55880Y67056
X55880Y49276
X2540Y49276
X94488Y96012
X94488Y67056
X147828Y67056
X147828Y49276
X94488Y49276
X2540Y90424
X55880Y90424
X55880Y72644
X2540Y72644
X94488Y90424
T3
X66040Y21430
X157988Y21430
X157988Y44798
X157988Y114902
X66040Y44798
X157988Y91534
X66040Y68166
X66040Y91534
X66040Y114902
X157988Y68166
T4
X66040Y1430
X157988Y1430
X66040Y48166
X157988Y71534
X157988Y24798
X66040Y71534
X66040Y24798
X157988Y94902
X66040Y94902
X157988Y48166
T5
X105664Y103886
X136398Y91694
X133858Y91694
X131318Y91694
X128778Y91694
X126238Y91694
X123698Y91694
X121158Y91694
X118618Y91694
X116078Y91694
X108204Y80518
X105664Y80518
X52070Y94742
X49530Y94742
X46990Y94742
X44450Y94742
X41910Y94742
X131318Y1270
X39370Y94742
X36830Y94742
X34290Y94742
X31750Y94742
X52070Y1270
X49530Y1270
X46990Y1270
X44450Y1270
X41910Y1270
X39370Y1270
X36830Y1270
X34290Y1270
X31750Y1270
X29210Y1270
X26670Y1270
X24130Y1270
X21590Y1270
X19050Y1270
X16510Y1270
X13970Y1270
X52070Y21590
X49530Y21590
X46990Y21590
X44450Y21590
X41910Y21590
X39370Y21590
X36830Y21590
X34290Y21590
X31750Y21590
X29210Y21590
X26670Y21590
X24130Y21590
X29210Y94742
X26670Y94742
X24130Y94742
X21590Y94742
X19050Y94742
X16510Y94742
X13970Y94742
X52070Y115062
X49530Y115062
X46990Y115062
X44450Y115062
X41910Y115062
X39370Y115062
X36830Y115062
X16256Y10414
X13716Y10414
X144018Y1270
X141478Y1270
X138938Y1270
X136398Y1270
X133858Y1270
X34290Y115062
X128778Y1270
X126238Y1270
X123698Y1270
X121158Y1270
X118618Y1270
X116078Y1270
X113538Y1270
X110998Y1270
X108458Y1270
X105918Y1270
X144018Y21590
X141478Y21590
X138938Y21590
X136398Y21590
X133858Y21590
X131318Y21590
X128778Y21590
X126238Y21590
X123698Y21590
X121158Y21590
X118618Y21590
X116078Y21590
X31750Y115062
X29210Y115062
X26670Y115062
X24130Y115062
X16256Y103886
X13716Y103886
X144018Y94742
X141478Y94742
X138938Y94742
X136398Y94742
X133858Y94742
X131318Y94742
X128778Y94742
X126238Y94742
X108204Y10414
X105664Y10414
X52070Y24638
X49530Y24638
X46990Y24638
X44450Y24638
X41910Y24638
X39370Y24638
X36830Y24638
X34290Y24638
X31750Y24638
X29210Y24638
X26670Y24638
X24130Y24638
X21590Y24638
X19050Y24638
X16510Y24638
X13970Y24638
X52070Y44958
X49530Y44958
X46990Y44958
X44450Y44958
X41910Y44958
X39370Y44958
X36830Y44958
X34290Y44958
X31750Y44958
X29210Y44958
X26670Y44958
X24130Y44958
X123698Y94742
X121158Y94742
X118618Y94742
X116078Y94742
X113538Y94742
X110998Y94742
X108458Y94742
X105918Y94742
X144018Y115062
X141478Y115062
X138938Y115062
X136398Y115062
X133858Y115062
X131318Y115062
X16256Y33782
X13716Y33782
X144018Y24638
X141478Y24638
X138938Y24638
X136398Y24638
X133858Y24638
X131318Y24638
X128778Y24638
X126238Y24638
X123698Y24638
X121158Y24638
X118618Y24638
X116078Y24638
X113538Y24638
X110998Y24638
X108458Y24638
X105918Y24638
X144018Y44958
X141478Y44958
X138938Y44958
X136398Y44958
X133858Y44958
X131318Y44958
X128778Y44958
X126238Y44958
X123698Y44958
X121158Y44958
X118618Y44958
X116078Y44958
X128778Y115062
X126238Y115062
X123698Y115062
X121158Y115062
X118618Y115062
X116078Y115062
X108204Y103886
X108204Y33782
X105664Y33782
X52070Y48006
X49530Y48006
X46990Y48006
X44450Y48006
X41910Y48006
X39370Y48006
X36830Y48006
X34290Y48006
X31750Y48006
X29210Y48006
X26670Y48006
X24130Y48006
X21590Y48006
X19050Y48006
X16510Y48006
X13970Y48006
X52070Y68326
X49530Y68326
X46990Y68326
X44450Y68326
X41910Y68326
X39370Y68326
X36830Y68326
X34290Y68326
X31750Y68326
X29210Y68326
X26670Y68326
X24130Y68326
X16256Y57150
X13716Y57150
X144018Y48006
X141478Y48006
X138938Y48006
X136398Y48006
X133858Y48006
X131318Y48006
X128778Y48006
X126238Y48006
X123698Y48006
X121158Y48006
X118618Y48006
X116078Y48006
X113538Y48006
X110998Y48006
X108458Y48006
X105918Y48006
X144018Y68326
X141478Y68326
X138938Y68326
X136398Y68326
X133858Y68326
X131318Y68326
X128778Y68326
X126238Y68326
X123698Y68326
X121158Y68326
X118618Y68326
X116078Y68326
X108204Y57150
X105664Y57150
X52070Y71374
X49530Y71374
X46990Y71374
X44450Y71374
X41910Y71374
X39370Y71374
X36830Y71374
X34290Y71374
X31750Y71374
X29210Y71374
X26670Y71374
X24130Y71374
X21590Y71374
X19050Y71374
X16510Y71374
X13970Y71374
X52070Y91694
X49530Y91694
X46990Y91694
X44450Y91694
X41910Y91694
X39370Y91694
X36830Y91694
X34290Y91694
X31750Y91694
X29210Y91694
X26670Y91694
X24130Y91694
X16256Y80518
X13716Y80518
X144018Y71374
X141478Y71374
X138938Y71374
X136398Y71374
X133858Y71374
X131318Y71374
X128778Y71374
X126238Y71374
X123698Y71374
X121158Y71374
X118618Y71374
X116078Y71374
X113538Y71374
X110998Y71374
X108458Y71374
X105918Y71374
X144018Y91694
X141478Y91694
X138938Y91694
T6
X4905Y14320
X4905Y8540
X96853Y14320
X96853Y8540
X4905Y37688
X4905Y31908
X96853Y37688
X96853Y31908
X4905Y61056
X4905Y55276
X96853Y61056
X96853Y55276
X4905Y84424
X4905Y78644
X96853Y84424
X96853Y78644
X4905Y107792
X4905Y102012
X96853Y107792
X96853Y102012
T7
X170688Y3175
X171958Y73279
X173228Y73279
X168148Y73279
X77470Y3175
X78740Y3175
X80010Y3175
X81280Y3175
X76200Y3175
X77470Y1905
X78740Y1905
X80010Y1905
X81280Y1905
X76200Y1905
X173228Y26543
X169418Y72009
X170688Y72009
X171958Y72009
X173228Y72009
X169418Y3175
X168148Y72009
X171958Y3175
X173228Y3175
X168148Y3175
X169418Y1905
X170688Y1905
X171958Y1905
X173228Y1905
X168148Y1905
X168148Y26543
X169418Y96647
X170688Y96647
X171958Y96647
X77470Y26543
X78740Y26543
X80010Y26543
X81280Y26543
X76200Y26543
X77470Y25273
X78740Y25273
X80010Y25273
X81280Y25273
X76200Y25273
X173228Y96647
X168148Y96647
X169418Y95377
X170688Y95377
X169418Y26543
X170688Y26543
X171958Y26543
X171958Y95377
X173228Y95377
X168148Y95377
X171958Y25273
X77470Y73279
X78740Y73279
X80010Y73279
X81280Y73279
X76200Y73279
X77470Y72009
X78740Y72009
X80010Y72009
X81280Y72009
X76200Y72009
X168148Y25273
X77470Y49911
X78740Y49911
X80010Y49911
X81280Y49911
X76200Y49911
X77470Y48641
X78740Y48641
X80010Y48641
X81280Y48641
X76200Y48641
X169418Y25273
X77470Y96647
X78740Y96647
X80010Y96647
X81280Y96647
X76200Y96647
X77470Y95377
X78740Y95377
X80010Y95377
X81280Y95377
X76200Y95377
X173228Y25273
X169418Y49911
X170688Y49911
X171958Y49911
X173228Y49911
X168148Y49911
X169418Y48641
X170688Y48641
X171958Y48641
X173228Y48641
X168148Y48641
X170688Y25273
X169418Y73279
X170688Y73279
T8
X1255Y7112
X5435Y7112
X5435Y15748
X93203Y15748
X93203Y7112
X97383Y7112
X97383Y15748
X1255Y15748
X1255Y39116
X1255Y30480
X5435Y30480
X5435Y39116
X93203Y39116
X93203Y30480
X97383Y30480
X97383Y39116
X1255Y85852
X1255Y77216
X5435Y77216
X5435Y85852
X5435Y62484
X1255Y62484
X1255Y53848
X93203Y62484
X93203Y53848
X93203Y109220
X93203Y100584
X97383Y100584
X97383Y109220
X97383Y53848
X93203Y85852
X93203Y77216
X97383Y77216
X97383Y85852
X97383Y62484
X5435Y53848
X1255Y109220
X1255Y100584
X5435Y100584
X5435Y109220
T9
X164846Y35814
X125222Y41656
X128778Y31496
X102108Y25146
X144272Y43434
X151384Y43388
X154686Y43180
X143764Y42418
X155448Y44958
X107696Y37084
X118618Y41910
X127508Y43180
X150876Y42418
X136398Y31496
X161798Y24892
X161544Y44196
X166116Y40894
X175768Y40640
X126492Y36576
X120904Y36576
X122682Y32258
X114808Y36576
X118618Y40640
X99314Y29972
X122428Y36449
X126746Y33528
X123190Y33528
X135128Y33528
X132588Y33528
X151384Y44450
X135890Y37084
X113538Y36068
X100838Y25146
X149098Y34544
X141478Y34036
X114808Y26416
X117602Y26416
X119888Y31242
X122428Y42926
X124968Y42926
X130048Y31496
X151384Y24638
X155956Y24638
X163068Y44196
X109728Y43688
X109728Y44958
X110998Y44958
X110998Y43688
X105918Y29718
X107188Y29718
X108458Y29718
X110998Y26416
X112268Y26416
X113538Y26416
X158242Y28702
X163830Y33528
X163830Y34544
X163830Y42926
X163830Y40894
X123444Y40640
X130048Y43180
X102616Y39878
X151130Y34544
X150114Y34544
X166624Y25654
X166624Y24638
X168148Y33528
X168148Y34798
X168148Y36068
X142748Y34036
X144018Y34036
X150368Y38608
X118618Y29210
X119888Y29210
X98044Y26670
X98044Y27940
X96774Y27940
X137922Y40386
X107442Y40640
X107442Y39624
X108712Y35560
X108458Y43688
X108458Y44958
X109728Y29718
X116078Y40640
X133858Y31242
X96774Y36576
X96774Y33020
X154178Y27686
X99314Y45466
X99568Y25146
X156972Y38608
X162814Y34290
X146050Y32512
X148336Y33020
X148336Y29718
X122936Y29210
X130048Y26670
X135128Y27178
X142240Y27178
X158242Y26924
X158242Y30988
X141224Y32766
X163830Y30226
X156972Y29464
X100330Y34544
X155702Y29464
X100330Y35560
X154686Y29210
X104902Y40132
X134874Y36830
X123952Y35814
X112522Y33528
X119126Y35560
X149098Y38354
X146812Y37846
X138938Y36830
X117856Y36449
X125349Y36576
X132293Y35519
X156210Y39624
X143510Y27267
X156972Y28448
X166370Y28448
X157988Y39624
X168148Y40640
X156972Y35814
X139573Y38100
X162560Y30226
X104648Y26924
X131318Y31496
X107950Y30988
X135128Y31242
X154686Y42164
X156464Y26162
X117348Y29210
X114554Y44196
X112014Y40386
X133858Y37084
X135382Y40132
X127508Y35306
X111887Y29972
X94996Y37592
X100330Y33528
X113792Y33274
X131318Y35560
X128778Y35560
X102362Y41656
X99060Y41656
X102108Y34544
X53594Y60706
X74168Y53594
X70104Y56896
X32512Y50800
X50711Y56134
X65024Y56896
X35560Y50038
X58420Y56134
X44450Y63754
X70866Y58674
X41148Y65786
X46736Y62992
X66040Y58420
X70358Y65786
X65024Y64008
X53594Y49784
X55372Y53848
X57658Y52578
X72898Y53594
X72644Y68834
X72898Y59182
X33274Y65024
X36830Y54864
X10160Y48514
X52324Y66802
X59436Y66756
X62738Y66548
X51816Y65786
X63500Y68326
X15748Y60452
X26670Y65278
X35560Y66548
X58928Y65786
X44450Y54864
X69850Y48260
X69596Y67564
X74168Y64262
X83820Y64008
X34544Y59944
X28956Y59944
X30734Y55626
X22860Y59944
X26670Y64008
X7366Y53340
X30480Y59817
X34798Y56896
X31242Y56896
X43180Y56896
X40640Y56896
X59436Y67818
X43942Y60452
X21590Y59436
X8890Y48514
X57150Y57912
X49530Y57404
X22860Y49784
X25654Y49784
X27940Y54610
X30480Y66294
X33020Y66294
X38100Y54864
X59436Y48006
X64008Y48006
X71120Y67564
X17780Y67056
X17780Y68326
X19050Y68326
X19050Y67056
X13970Y53086
X15240Y53086
X16510Y53086
X19050Y49784
X20320Y49784
X21590Y49784
X66294Y52070
X71882Y56896
X71882Y57912
X71882Y66294
X71882Y64262
X31496Y64008
X38100Y66548
X10668Y63246
X59182Y57912
X58166Y57912
X74676Y49022
X74676Y48006
X76200Y56896
X76200Y58166
X76200Y59436
X50800Y57404
X52070Y57404
X58420Y61976
X26670Y52578
X27940Y52578
X6096Y50038
X6096Y51308
X4826Y51308
X45974Y63754
X15494Y64008
X15494Y62992
X16764Y58928
X16510Y67056
X16510Y68326
X17780Y53086
X24130Y64008
X41910Y54610
X4826Y59944
X4826Y56388
X62230Y51054
X7366Y68834
X7620Y48514
X65024Y61976
X70866Y57658
X54102Y55880
X56388Y56388
X56388Y53086
X30988Y52578
X38100Y50038
X43180Y50546
X50292Y50546
X66294Y50292
X66294Y54356
X49276Y56134
X71882Y53594
X65024Y52832
X8382Y57912
X63754Y52832
X8382Y58928
X62738Y52578
X12954Y63500
X42926Y60198
X32004Y59182
X20574Y56896
X27178Y58928
X57150Y61722
X54864Y61214
X46990Y60198
X25908Y59817
X33401Y59944
X40345Y58887
X64262Y62992
X51562Y50635
X65024Y51816
X74422Y51816
X66040Y62992
X76200Y64008
X65024Y59182
X47625Y61468
X70612Y53594
X12700Y50292
X39370Y54864
X16002Y54356
X43180Y54610
X62738Y65532
X64516Y49530
X25400Y52578
X22606Y67564
X20066Y63754
X41910Y60452
X43434Y63500
X35560Y58674
X19939Y53340
X3048Y60960
X8382Y56896
X21844Y56642
X39370Y58928
X36830Y58928
X10414Y65024
X7112Y65024
X10160Y57912
X145542Y60706
X166116Y53594
X162052Y56896
X124460Y50800
X142659Y56134
X156972Y56896
X127508Y50038
X150368Y56134
X136398Y63754
X162814Y58674
X133096Y65786
X138684Y62992
X157988Y58420
X162306Y65786
X156972Y64008
X145542Y49784
X147320Y53848
X149606Y52578
X164846Y53594
X164592Y68834
X164846Y59182
X125222Y65024
X128778Y54864
X102108Y48514
X144272Y66802
X151384Y66756
X154686Y66548
X143764Y65786
X155448Y68326
X107696Y60452
X118618Y65278
X127508Y66548
X150876Y65786
X136398Y54864
X161798Y48260
X161544Y67564
X166116Y64262
X175768Y64008
X126492Y59944
X120904Y59944
X122682Y55626
X114808Y59944
X118618Y64008
X99314Y53340
X122428Y59817
X126746Y56896
X123190Y56896
X135128Y56896
X132588Y56896
X151384Y67818
X135890Y60452
X113538Y59436
X100838Y48514
X149098Y57912
X141478Y57404
X114808Y49784
X117602Y49784
X119888Y54610
X122428Y66294
X124968Y66294
X130048Y54864
X151384Y48006
X155956Y48006
X163068Y67564
X109728Y67056
X109728Y68326
X110998Y68326
X110998Y67056
X105918Y53086
X107188Y53086
X108458Y53086
X110998Y49784
X112268Y49784
X113538Y49784
X158242Y52070
X163830Y56896
X163830Y57912
X163830Y66294
X163830Y64262
X123444Y64008
X130048Y66548
X102616Y63246
X151130Y57912
X150114Y57912
X166624Y49022
X166624Y48006
X168148Y56896
X168148Y58166
X168148Y59436
X142748Y57404
X144018Y57404
X150368Y61976
X118618Y52578
X119888Y52578
X98044Y50038
X98044Y51308
X96774Y51308
X137922Y63754
X107442Y64008
X107442Y62992
X108712Y58928
X108458Y67056
X108458Y68326
X109728Y53086
X116078Y64008
X133858Y54610
X96774Y59944
X96774Y56388
X154178Y51054
X99314Y68834
X99568Y48514
X156972Y61976
X162814Y57658
X146050Y55880
X148336Y56388
X148336Y53086
X122936Y52578
X130048Y50038
X135128Y50546
X142240Y50546
X158242Y50292
X158242Y54356
X141224Y56134
X163830Y53594
X156972Y52832
X100330Y57912
X155702Y52832
X100330Y58928
X154686Y52578
X104902Y63500
X134874Y60198
X123952Y59182
X112522Y56896
X119126Y58928
X149098Y61722
X146812Y61214
X138938Y60198
X117856Y59817
X125349Y59944
X132293Y58887
X156210Y62992
X143510Y50635
X156972Y51816
X166370Y51816
X157988Y62992
X168148Y64008
X156972Y59182
X139573Y61468
X162560Y53594
X104648Y50292
X131318Y54864
X107950Y54356
X135128Y54610
X154686Y65532
X156464Y49530
X117348Y52578
X114554Y67564
X112014Y63754
X133858Y60452
X135382Y63500
X127508Y58674
X111887Y53340
X94996Y60960
X100330Y56896
X113792Y56642
X131318Y58928
X128778Y58928
X102362Y65024
X99060Y65024
X102108Y57912
X53594Y84074
X74168Y76962
X70104Y80264
X32512Y74168
X50711Y79502
X65024Y80264
X35560Y73406
X58420Y79502
X44450Y87122
X70866Y82042
X41148Y89154
X46736Y86360
X66040Y81788
X70358Y89154
X65024Y87376
X53594Y73152
X55372Y77216
X57658Y75946
X72898Y76962
X72644Y92202
X72898Y82550
X33274Y88392
X36830Y78232
X10160Y71882
X52324Y90170
X59436Y90124
X62738Y89916
X51816Y89154
X63500Y91694
X15748Y83820
X26670Y88646
X35560Y89916
X58928Y89154
X44450Y78232
X69850Y71628
X69596Y90932
X74168Y87630
X83820Y87376
X34544Y83312
X28956Y83312
X30734Y78994
X22860Y83312
X26670Y87376
X7366Y76708
X30480Y83185
X34798Y80264
X31242Y80264
X43180Y80264
X40640Y80264
X59436Y91186
X43942Y83820
X21590Y82804
X8890Y71882
X57150Y81280
X49530Y80772
X22860Y73152
X25654Y73152
X27940Y77978
X30480Y89662
X33020Y89662
X38100Y78232
X59436Y71374
X64008Y71374
X71120Y90932
X17780Y90424
X17780Y91694
X19050Y91694
X19050Y90424
X13970Y76454
X15240Y76454
X16510Y76454
X19050Y73152
X20320Y73152
X21590Y73152
X66294Y75438
X71882Y80264
X71882Y81280
X71882Y89662
X71882Y87630
X31496Y87376
X38100Y89916
X10668Y86614
X59182Y81280
X58166Y81280
X74676Y72390
X74676Y71374
X76200Y80264
X76200Y81534
X76200Y82804
X50800Y80772
X52070Y80772
X58420Y85344
X26670Y75946
X27940Y75946
X6096Y73406
X154178Y4318
X4826Y74676
X45974Y87122
X15494Y87376
X15494Y86360
X16764Y82296
X16510Y90424
X16510Y91694
X17780Y76454
X24130Y87376
X41910Y77978
X4826Y83312
X4826Y79756
X62230Y74422
X7366Y92202
X7620Y71882
X65024Y85344
X70866Y81026
X54102Y79248
X56388Y79756
X56388Y76454
X30988Y75946
X38100Y73406
X43180Y73914
X50292Y73914
X66294Y73660
X66294Y77724
X49276Y79502
X71882Y76962
X65024Y76200
X8382Y81280
X63754Y76200
X8382Y82296
X62738Y75946
X12954Y86868
X42926Y83566
X32004Y82550
X20574Y80264
X27178Y82296
X57150Y85090
X54864Y84582
X46990Y83566
X25908Y83185
X33401Y83312
X40345Y82255
X64262Y86360
X51562Y74003
X65024Y75184
X74422Y75184
X66040Y86360
X76200Y87376
X65024Y82550
X47625Y84836
X70612Y76962
X12700Y73660
X39370Y78232
X16002Y77724
X43180Y77978
X62738Y88900
X64516Y72898
X25400Y75946
X22606Y90932
X20066Y87122
X41910Y83820
X43434Y86868
X35560Y82042
X19939Y76708
X3048Y84328
X8382Y80264
X21844Y80010
X39370Y82296
X36830Y82296
X10414Y88392
X7112Y88392
X10160Y81280
X145542Y84074
X166116Y76962
X162052Y80264
X124460Y74168
X142659Y79502
X156972Y80264
X127508Y73406
X150368Y79502
X136398Y87122
X162814Y82042
X133096Y89154
X138684Y86360
X157988Y81788
X162306Y89154
X156972Y87376
X145542Y73152
X147320Y77216
X149606Y75946
X164846Y76962
X164592Y92202
X164846Y82550
X125222Y88392
X128778Y78232
X102108Y71882
X144272Y90170
X151384Y90124
X154686Y89916
X143764Y89154
X155448Y91694
X107696Y83820
X118618Y88646
X127508Y89916
X150876Y89154
X136398Y78232
X161798Y71628
X161544Y90932
X166116Y87630
X175768Y87376
X126492Y83312
X120904Y83312
X122682Y78994
X114808Y83312
X118618Y87376
X99314Y76708
X122428Y83185
X126746Y80264
X123190Y80264
X135128Y80264
X132588Y80264
X151384Y91186
X135890Y83820
X113538Y82804
X100838Y71882
X149098Y81280
X141478Y80772
X114808Y73152
X117602Y73152
X119888Y77978
X122428Y89662
X124968Y89662
X130048Y78232
X151384Y71374
X155956Y71374
X163068Y90932
X109728Y90424
X109728Y91694
X110998Y91694
X110998Y90424
X105918Y76454
X107188Y76454
X108458Y76454
X110998Y73152
X112268Y73152
X113538Y73152
X158242Y75438
X163830Y80264
X163830Y81280
X163830Y89662
X163830Y87630
X123444Y87376
X130048Y89916
X102616Y86614
X151130Y81280
X150114Y81280
X166624Y72390
X166624Y71374
X168148Y80264
X168148Y81534
X168148Y82804
X142748Y80772
X144018Y80772
X150368Y85344
X118618Y75946
X119888Y75946
X98044Y73406
X98044Y74676
X96774Y74676
X137922Y87122
X107442Y87376
X107442Y86360
X108712Y82296
X108458Y90424
X108458Y91694
X109728Y76454
X116078Y87376
X133858Y77978
X96774Y83312
X96774Y79756
X154178Y74422
X99314Y92202
X99568Y71882
X156972Y85344
X162814Y81026
X146050Y79248
X148336Y79756
X148336Y76454
X122936Y75946
X130048Y73406
X135128Y73914
X142240Y73914
X158242Y73660
X158242Y77724
X141224Y79502
X163830Y76962
X156972Y76200
X100330Y81280
X155702Y76200
X100330Y82296
X154686Y75946
X104902Y86868
X134874Y83566
X123952Y82550
X112522Y80264
X119126Y82296
X149098Y85090
X146812Y84582
X138938Y83566
X117856Y83185
X125349Y83312
X132293Y82255
X156210Y86360
X143510Y74003
X156972Y75184
X166370Y75184
X157988Y86360
X168148Y87376
X156972Y82550
X139573Y84836
X162560Y76962
X104648Y73660
X131318Y78232
X107950Y77724
X135128Y77978
X154686Y88900
X156464Y72898
X117348Y75946
X114554Y90932
X112014Y87122
X133858Y83820
X135382Y86868
X127508Y82042
X111887Y76708
X94996Y84328
X100330Y80264
X113792Y80010
X131318Y82296
X128778Y82296
X102362Y88392
X99060Y88392
X102108Y81280
X53594Y107442
X74168Y100330
X70104Y103632
X32512Y97536
X50711Y102870
X65024Y103632
X35560Y96774
X58420Y102870
X44450Y110490
X70866Y105410
X41148Y112522
X46736Y109728
X66040Y105156
X70358Y112522
X65024Y110744
X53594Y96520
X55372Y100584
X57658Y99314
X72898Y100330
X72644Y115570
X72898Y105918
X33274Y111760
X36830Y101600
X10160Y95250
X52324Y113538
X59436Y113492
X62738Y113284
X51816Y112522
X63500Y115062
X15748Y107188
X26670Y112014
X35560Y113284
X58928Y112522
X44450Y101600
X69850Y94996
X69596Y114300
X74168Y110998
X83820Y110744
X34544Y106680
X28956Y106680
X30734Y102362
X22860Y106680
X26670Y110744
X7366Y100076
X30480Y106553
X34798Y103632
X31242Y103632
X43180Y103632
X40640Y103632
X59436Y114554
X43942Y107188
X21590Y106172
X8890Y95250
X57150Y104648
X49530Y104140
X22860Y96520
X25654Y96520
X27940Y101346
X30480Y113030
X33020Y113030
X38100Y101600
X59436Y94742
X64008Y94742
X71120Y114300
X17780Y113792
X17780Y115062
X19050Y115062
X19050Y113792
X13970Y99822
X15240Y99822
X16510Y99822
X19050Y96520
X20320Y96520
X21590Y96520
X66294Y98806
X71882Y103632
X71882Y104648
X71882Y113030
X71882Y110998
X31496Y110744
X38100Y113284
X10668Y109982
X59182Y104648
X58166Y104648
X74676Y95758
X74676Y94742
X76200Y103632
X76200Y104902
X76200Y106172
X50800Y104140
X52070Y104140
X58420Y108712
X26670Y99314
X27940Y99314
X6096Y96774
X6096Y98044
X4826Y98044
X45974Y110490
X15494Y110744
X15494Y109728
X16764Y105664
X16510Y113792
X16510Y115062
X17780Y99822
X24130Y110744
X41910Y101346
X4826Y106680
X4826Y103124
X62230Y97790
X7366Y115570
X7620Y95250
X65024Y108712
X70866Y104394
X54102Y102616
X56388Y103124
X56388Y99822
X30988Y99314
X38100Y96774
X43180Y97282
X50292Y97282
X66294Y97028
X66294Y101092
X49276Y102870
X71882Y100330
X65024Y99568
X8382Y104648
X63754Y99568
X8382Y105664
X62738Y99314
X12954Y110236
X42926Y106934
X32004Y105918
X20574Y103632
X27178Y105664
X57150Y108458
X54864Y107950
X46990Y106934
X25908Y106553
X33401Y106680
X40345Y105623
X64262Y109728
X51562Y97371
X65024Y98552
X74422Y98552
X66040Y109728
X76200Y110744
X65024Y105918
X47625Y108204
X70612Y100330
X12700Y97028
X39370Y101600
X16002Y101092
X43180Y101346
X62738Y112268
X64516Y96266
X25400Y99314
X22606Y114300
X20066Y110490
X41910Y107188
X43434Y110236
X35560Y105410
X19939Y100076
X3048Y107696
X8382Y103632
X21844Y103378
X39370Y105664
X36830Y105664
X10414Y111760
X7112Y111760
X10160Y104648
X145542Y107442
X166116Y100330
X162052Y103632
X124460Y97536
X142659Y102870
X156972Y103632
X127508Y96774
X150368Y102870
X136398Y110490
X162814Y105410
X133096Y112522
X138684Y109728
X157988Y105156
X162306Y112522
X156972Y110744
X145542Y96520
X147320Y100584
X149606Y99314
X164846Y100330
X164592Y115570
X164846Y105918
X125222Y111760
X128778Y101600
X102108Y95250
X144272Y113538
X151384Y113492
X154686Y113284
X143764Y112522
X155448Y115062
X107696Y107188
X118618Y112014
X127508Y113284
X150876Y112522
X136398Y101600
X161798Y94996
X161544Y114300
X166116Y110998
X175768Y110744
X126492Y106680
X120904Y106680
X122682Y102362
X114808Y106680
X118618Y110744
X99314Y100076
X122428Y106553
X126746Y103632
X123190Y103632
X135128Y103632
X132588Y103632
X151384Y114554
X135890Y107188
X113538Y106172
X100838Y95250
X149098Y104648
X141478Y104140
X114808Y96520
X117602Y96520
X119888Y101346
X122428Y113030
X124968Y113030
X130048Y101600
X151384Y94742
X155956Y94742
X163068Y114300
X109728Y113792
X109728Y115062
X110998Y115062
X110998Y113792
X105918Y99822
X107188Y99822
X108458Y99822
X110998Y96520
X112268Y96520
X113538Y96520
X158242Y98806
X163830Y103632
X163830Y104648
X163830Y113030
X163830Y110998
X123444Y110744
X130048Y113284
X102616Y109982
X151130Y104648
X150114Y104648
X166624Y95758
X166624Y94742
X168148Y103632
X168148Y104902
X168148Y106172
X142748Y104140
X144018Y104140
X150368Y108712
X118618Y99314
X119888Y99314
X98044Y96774
X98044Y98044
X96774Y98044
X137922Y110490
X107442Y110744
X107442Y109728
X108712Y105664
X108458Y113792
X108458Y115062
X109728Y99822
X116078Y110744
X133858Y101346
X96774Y106680
X96774Y103124
X154178Y97790
X99314Y115570
X99568Y95250
X156972Y108712
X162814Y104394
X146050Y102616
X148336Y103124
X148336Y99822
X122936Y99314
X130048Y96774
X135128Y97282
X142240Y97282
X158242Y97028
X158242Y101092
X141224Y102870
X163830Y100330
X156972Y99568
X100330Y104648
X155702Y99568
X100330Y105664
X154686Y99314
X104902Y110236
X134874Y106934
X123952Y105918
X112522Y103632
X119126Y105664
X149098Y108458
X146812Y107950
X138938Y106934
X117856Y106553
X125349Y106680
X132293Y105623
X156210Y109728
X143510Y97371
X156972Y98552
X53594Y13970
X157988Y109728
X168148Y110744
X156972Y105918
X139573Y108204
X162560Y100330
X104648Y97028
X131318Y101600
X107950Y101092
X135128Y101346
X154686Y112268
X156464Y96266
X117348Y99314
X114554Y114300
X112014Y110490
X133858Y107188
X135382Y110236
X127508Y105410
X111887Y100076
X94996Y107696
X100330Y103632
X113792Y103378
X131318Y105664
X128778Y105664
X102362Y111760
X99060Y111760
X102108Y104648
X74168Y6858
X70104Y10160
X32512Y4064
X50711Y9398
X65024Y10160
X35560Y3302
X58420Y9398
X44450Y17018
X70866Y11938
X41148Y19050
X46736Y16256
X66040Y11684
X70358Y19050
X65024Y17272
X53594Y3048
X55372Y7112
X57658Y5842
X72898Y6858
X72644Y22098
X72898Y12446
X33274Y18288
X36830Y8128
X10160Y1778
X52324Y20066
X59436Y20020
X62738Y19812
X51816Y19050
X63500Y21590
X15748Y13716
X26670Y18542
X35560Y19812
X58928Y19050
X44450Y8128
X69850Y1524
X69596Y20828
X74168Y17526
X83820Y17272
X34544Y13208
X28956Y13208
X30734Y8890
X22860Y13208
X26670Y17272
X7366Y6604
X30480Y13081
X34798Y10160
X31242Y10160
X43180Y10160
X40640Y10160
X59436Y21082
X43942Y13716
X21590Y12700
X8890Y1778
X57150Y11176
X49530Y10668
X22860Y3048
X25654Y3048
X27940Y7874
X30480Y19558
X33020Y19558
X38100Y8128
X59436Y1270
X64008Y1270
X71120Y20828
X17780Y20320
X17780Y21590
X19050Y21590
X19050Y20320
X13970Y6350
X15240Y6350
X16510Y6350
X19050Y3048
X20320Y3048
X21590Y3048
X66294Y5334
X71882Y10160
X71882Y11176
X71882Y19558
X71882Y17526
X31496Y17272
X38100Y19812
X10668Y16510
X59182Y11176
X58166Y11176
X74676Y2286
X74676Y1270
X76200Y10160
X76200Y11430
X76200Y12700
X50800Y10668
X52070Y10668
X58420Y15240
X26670Y5842
X27940Y5842
X6096Y3302
X6096Y4572
X4826Y4572
X45974Y17018
X15494Y17272
X15494Y16256
X16764Y12192
X16510Y20320
X16510Y21590
X17780Y6350
X24130Y17272
X41910Y7874
X4826Y13208
X4826Y9652
X62230Y4318
X7366Y22098
X7620Y1778
X65024Y15240
X70866Y10922
X54102Y9144
X56388Y9652
X56388Y6350
X30988Y5842
X38100Y3302
X43180Y3810
X50292Y3810
X66294Y3556
X66294Y7620
X49276Y9398
X71882Y6858
X65024Y6096
X8382Y11176
X63754Y6096
X8382Y12192
X62738Y5842
X12954Y16764
X42926Y13462
X32004Y12446
X20574Y10160
X27178Y12192
X57150Y14986
X54864Y14478
X46990Y13462
X25908Y13081
X33401Y13208
X40345Y12151
X64262Y16256
X51562Y3899
X65024Y5080
X74422Y5080
X66040Y16256
X76200Y17272
X65024Y12446
X47625Y14732
X70612Y6858
X12700Y3556
X39370Y8128
X16002Y7620
X43180Y7874
X62738Y18796
X64516Y2794
X25400Y5842
X22606Y20828
X20066Y17018
X41910Y13716
X43434Y16764
X35560Y11938
X19939Y6604
X3048Y14224
X8382Y10160
X21844Y9906
X39370Y12192
X36830Y12192
X10414Y18288
X7112Y18288
X10160Y11176
X145542Y13970
X166116Y6858
X162052Y10160
X124460Y4064
X142659Y9398
X156972Y10160
X127508Y3302
X150368Y9398
X136398Y17018
X162814Y11938
X133096Y19050
X138684Y16256
X157988Y11684
X162306Y19050
X156972Y17272
X145542Y3048
X147320Y7112
X149606Y5842
X164846Y6858
X164592Y22098
X164846Y12446
X125222Y18288
X128778Y8128
X102108Y1778
X144272Y20066
X151384Y20020
X154686Y19812
X143764Y19050
X155448Y21590
X107696Y13716
X118618Y18542
X127508Y19812
X150876Y19050
X136398Y8128
X161798Y1524
X161544Y20828
X166116Y17526
X175768Y17272
X126492Y13208
X120904Y13208
X122682Y8890
X114808Y13208
X118618Y17272
X99314Y6604
X122428Y13081
X126746Y10160
X123190Y10160
X135128Y10160
X132588Y10160
X151384Y21082
X135890Y13716
X113538Y12700
X100838Y1778
X149098Y11176
X141478Y10668
X114808Y3048
X117602Y3048
X119888Y7874
X122428Y19558
X124968Y19558
X130048Y8128
X151384Y1270
X155956Y1270
X163068Y20828
X109728Y20320
X109728Y21590
X110998Y21590
X110998Y20320
X105918Y6350
X107188Y6350
X108458Y6350
X110998Y3048
X112268Y3048
X113538Y3048
X158242Y5334
X163830Y10160
X163830Y11176
X163830Y19558
X163830Y17526
X123444Y17272
X130048Y19812
X102616Y16510
X6096Y74676
X151130Y11176
X150114Y11176
X166624Y2286
X166624Y1270
X168148Y10160
X168148Y11430
X168148Y12700
X142748Y10668
X144018Y10668
X150368Y15240
X118618Y5842
X119888Y5842
X98044Y3302
X98044Y4572
X96774Y4572
X137922Y17018
X107442Y17272
X107442Y16256
X108712Y12192
X108458Y20320
X108458Y21590
X109728Y6350
X116078Y17272
X133858Y7874
X96774Y13208
X96774Y9652
X99314Y22098
X99568Y1778
X156972Y15240
X162814Y10922
X146050Y9144
X148336Y9652
X148336Y6350
X122936Y5842
X130048Y3302
X135128Y3810
X142240Y3810
X158242Y3556
X158242Y7620
X141224Y9398
X163830Y6858
X156972Y6096
X100330Y11176
X155702Y6096
X100330Y12192
X154686Y5842
X104902Y16764
X134874Y13462
X123952Y12446
X112522Y10160
X119126Y12192
X149098Y14986
X146812Y14478
X138938Y13462
X117856Y13081
X125349Y13208
X132293Y12151
X156210Y16256
X143510Y3899
X156972Y5080
X166370Y5080
X157988Y16256
X168148Y17272
X156972Y12446
X139573Y14732
X162560Y6858
X104648Y3556
X131318Y8128
X107950Y7620
X135128Y7874
X154686Y18796
X156464Y2794
X117348Y5842
X114554Y20828
X112014Y17018
X133858Y13716
X135382Y16764
X127508Y11938
X111887Y6604
X94996Y14224
X100330Y10160
X113792Y9906
X131318Y12192
X128778Y12192
X102362Y18288
X99060Y18288
X102108Y11176
X53594Y37338
X74168Y30226
X70104Y33528
X32512Y27432
X50711Y32766
X65024Y33528
X35560Y26670
X58420Y32766
X44450Y40386
X70866Y35306
X41148Y42418
X46736Y39624
X66040Y35052
X70358Y42418
X65024Y40640
X53594Y26416
X55372Y30480
X57658Y29210
X72898Y30226
X72644Y45466
X72898Y35814
X33274Y41656
X36830Y31496
X10160Y25146
X52324Y43434
X59436Y43388
X62738Y43180
X51816Y42418
X63500Y44958
X15748Y37084
X26670Y41910
X35560Y43180
X58928Y42418
X44450Y31496
X69850Y24892
X69596Y44196
X74168Y40894
X83820Y40640
X34544Y36576
X28956Y36576
X30734Y32258
X22860Y36576
X26670Y40640
X7366Y29972
X30480Y36449
X34798Y33528
X31242Y33528
X43180Y33528
X40640Y33528
X59436Y44450
X43942Y37084
X21590Y36068
X8890Y25146
X57150Y34544
X49530Y34036
X22860Y26416
X25654Y26416
X27940Y31242
X30480Y42926
X33020Y42926
X38100Y31496
X59436Y24638
X64008Y24638
X71120Y44196
X17780Y43688
X17780Y44958
X19050Y44958
X19050Y43688
X13970Y29718
X15240Y29718
X16510Y29718
X19050Y26416
X20320Y26416
X21590Y26416
X66294Y28702
X71882Y33528
X71882Y34544
X71882Y42926
X71882Y40894
X31496Y40640
X38100Y43180
X10668Y39878
X59182Y34544
X58166Y34544
X74676Y25654
X74676Y24638
X76200Y33528
X76200Y34798
X76200Y36068
X50800Y34036
X52070Y34036
X58420Y38608
X26670Y29210
X27940Y29210
X6096Y26670
X6096Y27940
X4826Y27940
X45974Y40386
X15494Y40640
X15494Y39624
X16764Y35560
X16510Y43688
X16510Y44958
X17780Y29718
X24130Y40640
X41910Y31242
X4826Y36576
X4826Y33020
X62230Y27686
X7366Y45466
X7620Y25146
X65024Y38608
X70866Y34290
X54102Y32512
X56388Y33020
X56388Y29718
X30988Y29210
X38100Y26670
X43180Y27178
X50292Y27178
X66294Y26924
X66294Y30988
X49276Y32766
X71882Y30226
X65024Y29464
X8382Y34544
X63754Y29464
X8382Y35560
X62738Y29210
X12954Y40132
X42926Y36830
X32004Y35814
X20574Y33528
X27178Y35560
X57150Y38354
X54864Y37846
X46990Y36830
X25908Y36449
X33401Y36576
X40345Y35519
X64262Y39624
X51562Y27267
X65024Y28448
X74422Y28448
X66040Y39624
X76200Y40640
X65024Y35814
X47625Y38100
X70612Y30226
X12700Y26924
X39370Y31496
X16002Y30988
X43180Y31242
X62738Y42164
X64516Y26162
X25400Y29210
X22606Y44196
X20066Y40386
X41910Y37084
X43434Y40132
X35560Y35306
X19939Y29972
X3048Y37592
X8382Y33528
X21844Y33274
X39370Y35560
X36830Y35560
X10414Y41656
X7112Y41656
X10160Y34544
X145542Y37338
X166116Y30226
X162052Y33528
X124460Y27432
X142659Y32766
X156972Y33528
X127508Y26670
X150368Y32766
X136398Y40386
X162814Y35306
X133096Y42418
X138684Y39624
X157988Y35052
X162306Y42418
X156972Y40640
X145542Y26416
X147320Y30480
X149606Y29210
X164846Y30226
X164592Y45466
X166370Y98552
M30