G04 EAGLE Gerber RS-274X export*
G75*
%MOMM*%
%FSLAX34Y34*%
%LPD*%
%INSoldermask Top*%
%IPPOS*%
%AMOC8*
5,1,8,0,0,1.08239X$1,22.5*%
G01*
%ADD10R,1.203200X1.303200*%
%ADD11R,1.303200X1.203200*%
%ADD12R,1.727200X1.727200*%
%ADD13R,1.403200X2.203200*%
%ADD14R,0.803200X1.553200*%
%ADD15C,1.303200*%
%ADD16C,1.803200*%
%ADD17R,1.753200X0.503200*%
%ADD18R,2.953200X1.403200*%
%ADD19R,0.440000X0.840000*%
%ADD20R,1.520000X0.940000*%
%ADD21R,0.753200X1.403200*%
%ADD22C,0.838200*%
%ADD23C,3.505200*%
%ADD24C,6.203200*%
%ADD25R,0.503200X0.853200*%
%ADD26R,2.553200X1.803200*%
%ADD27C,0.505344*%
%ADD28R,1.727200X0.965200*%
%ADD29R,1.203200X0.503200*%
%ADD30R,1.203200X0.803200*%
%ADD31C,0.853200*%
%ADD32R,1.203200X4.803200*%
%ADD33R,1.803200X3.603200*%
%ADD34C,1.203200*%
%ADD35R,1.473200X0.838200*%
%ADD36R,1.033200X0.833200*%
%ADD37R,0.838200X1.473200*%
%ADD38C,2.082800*%
%ADD39C,1.270000*%
%ADD40C,1.703200*%

G36*
X979784Y1086174D02*
X979784Y1086174D01*
X979787Y1086171D01*
X980909Y1086326D01*
X980914Y1086331D01*
X980918Y1086328D01*
X981989Y1086699D01*
X981993Y1086705D01*
X981998Y1086703D01*
X982975Y1087276D01*
X982978Y1087282D01*
X982983Y1087281D01*
X983830Y1088034D01*
X983832Y1088041D01*
X983837Y1088041D01*
X984521Y1088944D01*
X984521Y1088951D01*
X984526Y1088952D01*
X985021Y1089971D01*
X985019Y1089978D01*
X985024Y1089980D01*
X985311Y1091077D01*
X985309Y1091081D01*
X985311Y1091082D01*
X985309Y1091084D01*
X985312Y1091086D01*
X985379Y1092217D01*
X985377Y1092221D01*
X985379Y1092223D01*
X985312Y1093354D01*
X985307Y1093359D01*
X985311Y1093363D01*
X985024Y1094460D01*
X985018Y1094464D01*
X985021Y1094469D01*
X984526Y1095488D01*
X984520Y1095491D01*
X984521Y1095496D01*
X983837Y1096399D01*
X983830Y1096401D01*
X983830Y1096406D01*
X982983Y1097159D01*
X982976Y1097159D01*
X982975Y1097164D01*
X981998Y1097737D01*
X981991Y1097736D01*
X981989Y1097741D01*
X980918Y1098112D01*
X980912Y1098109D01*
X980909Y1098114D01*
X979787Y1098269D01*
X979782Y1098266D01*
X979780Y1098269D01*
X967780Y1098269D01*
X967775Y1098266D01*
X967772Y1098269D01*
X966505Y1098064D01*
X966499Y1098058D01*
X966495Y1098061D01*
X965305Y1097579D01*
X965301Y1097572D01*
X965295Y1097574D01*
X964242Y1096840D01*
X964240Y1096832D01*
X964234Y1096833D01*
X963371Y1095883D01*
X963370Y1095874D01*
X963365Y1095874D01*
X962735Y1094755D01*
X962736Y1094747D01*
X962730Y1094745D01*
X962365Y1093515D01*
X962368Y1093507D01*
X962363Y1093504D01*
X962281Y1092223D01*
X962284Y1092219D01*
X962281Y1092217D01*
X962363Y1090936D01*
X962369Y1090930D01*
X962365Y1090925D01*
X962730Y1089695D01*
X962737Y1089690D01*
X962735Y1089685D01*
X963365Y1088566D01*
X963372Y1088563D01*
X963371Y1088557D01*
X964234Y1087607D01*
X964242Y1087606D01*
X964242Y1087600D01*
X965295Y1086866D01*
X965303Y1086866D01*
X965305Y1086861D01*
X966495Y1086379D01*
X966502Y1086381D01*
X966505Y1086376D01*
X967772Y1086171D01*
X967777Y1086174D01*
X967780Y1086171D01*
X979780Y1086171D01*
X979784Y1086174D01*
G37*
G36*
X979784Y532414D02*
X979784Y532414D01*
X979787Y532411D01*
X980909Y532566D01*
X980914Y532571D01*
X980918Y532568D01*
X981989Y532939D01*
X981993Y532945D01*
X981998Y532943D01*
X982975Y533516D01*
X982978Y533522D01*
X982983Y533521D01*
X983830Y534274D01*
X983832Y534281D01*
X983837Y534281D01*
X984521Y535184D01*
X984521Y535191D01*
X984526Y535192D01*
X985021Y536211D01*
X985019Y536218D01*
X985024Y536220D01*
X985311Y537317D01*
X985309Y537321D01*
X985311Y537322D01*
X985309Y537324D01*
X985312Y537326D01*
X985379Y538457D01*
X985377Y538461D01*
X985379Y538463D01*
X985312Y539594D01*
X985307Y539599D01*
X985311Y539603D01*
X985024Y540700D01*
X985018Y540704D01*
X985021Y540709D01*
X984526Y541728D01*
X984520Y541731D01*
X984521Y541736D01*
X983837Y542639D01*
X983830Y542641D01*
X983830Y542646D01*
X982983Y543399D01*
X982976Y543399D01*
X982975Y543404D01*
X981998Y543977D01*
X981991Y543976D01*
X981989Y543981D01*
X980918Y544352D01*
X980912Y544349D01*
X980909Y544354D01*
X979787Y544509D01*
X979782Y544506D01*
X979780Y544509D01*
X967780Y544509D01*
X967775Y544506D01*
X967772Y544509D01*
X966505Y544304D01*
X966499Y544298D01*
X966495Y544301D01*
X965305Y543819D01*
X965301Y543812D01*
X965295Y543814D01*
X964242Y543080D01*
X964240Y543072D01*
X964234Y543073D01*
X963371Y542123D01*
X963370Y542114D01*
X963365Y542114D01*
X962735Y540995D01*
X962736Y540987D01*
X962730Y540985D01*
X962365Y539755D01*
X962368Y539747D01*
X962363Y539744D01*
X962281Y538463D01*
X962284Y538459D01*
X962281Y538457D01*
X962363Y537176D01*
X962369Y537170D01*
X962365Y537165D01*
X962730Y535935D01*
X962737Y535930D01*
X962735Y535925D01*
X963365Y534806D01*
X963372Y534803D01*
X963371Y534797D01*
X964234Y533847D01*
X964242Y533846D01*
X964242Y533840D01*
X965295Y533106D01*
X965303Y533106D01*
X965305Y533101D01*
X966495Y532619D01*
X966502Y532621D01*
X966505Y532616D01*
X967772Y532411D01*
X967777Y532414D01*
X967780Y532411D01*
X979780Y532411D01*
X979784Y532414D01*
G37*
G36*
X60304Y1086174D02*
X60304Y1086174D01*
X60307Y1086171D01*
X61429Y1086326D01*
X61434Y1086331D01*
X61438Y1086328D01*
X62509Y1086699D01*
X62513Y1086705D01*
X62518Y1086703D01*
X63495Y1087276D01*
X63498Y1087282D01*
X63503Y1087281D01*
X64350Y1088034D01*
X64352Y1088041D01*
X64357Y1088041D01*
X65041Y1088944D01*
X65041Y1088951D01*
X65046Y1088952D01*
X65541Y1089971D01*
X65539Y1089978D01*
X65544Y1089980D01*
X65831Y1091077D01*
X65829Y1091081D01*
X65831Y1091082D01*
X65829Y1091084D01*
X65832Y1091086D01*
X65899Y1092217D01*
X65897Y1092221D01*
X65899Y1092223D01*
X65832Y1093354D01*
X65827Y1093359D01*
X65831Y1093363D01*
X65544Y1094460D01*
X65538Y1094464D01*
X65541Y1094469D01*
X65046Y1095488D01*
X65040Y1095491D01*
X65041Y1095496D01*
X64357Y1096399D01*
X64350Y1096401D01*
X64350Y1096406D01*
X63503Y1097159D01*
X63496Y1097159D01*
X63495Y1097164D01*
X62518Y1097737D01*
X62511Y1097736D01*
X62509Y1097741D01*
X61438Y1098112D01*
X61432Y1098109D01*
X61429Y1098114D01*
X60307Y1098269D01*
X60302Y1098266D01*
X60300Y1098269D01*
X48300Y1098269D01*
X48295Y1098266D01*
X48292Y1098269D01*
X47025Y1098064D01*
X47019Y1098058D01*
X47015Y1098061D01*
X45825Y1097579D01*
X45821Y1097572D01*
X45815Y1097574D01*
X44762Y1096840D01*
X44760Y1096832D01*
X44754Y1096833D01*
X43891Y1095883D01*
X43890Y1095874D01*
X43885Y1095874D01*
X43255Y1094755D01*
X43256Y1094747D01*
X43250Y1094745D01*
X42885Y1093515D01*
X42888Y1093507D01*
X42883Y1093504D01*
X42801Y1092223D01*
X42804Y1092219D01*
X42801Y1092217D01*
X42883Y1090936D01*
X42889Y1090930D01*
X42885Y1090925D01*
X43250Y1089695D01*
X43257Y1089690D01*
X43255Y1089685D01*
X43885Y1088566D01*
X43892Y1088563D01*
X43891Y1088557D01*
X44754Y1087607D01*
X44762Y1087606D01*
X44762Y1087600D01*
X45815Y1086866D01*
X45823Y1086866D01*
X45825Y1086861D01*
X47015Y1086379D01*
X47022Y1086381D01*
X47025Y1086376D01*
X48292Y1086171D01*
X48297Y1086174D01*
X48300Y1086171D01*
X60300Y1086171D01*
X60304Y1086174D01*
G37*
G36*
X60304Y532414D02*
X60304Y532414D01*
X60307Y532411D01*
X61429Y532566D01*
X61434Y532571D01*
X61438Y532568D01*
X62509Y532939D01*
X62513Y532945D01*
X62518Y532943D01*
X63495Y533516D01*
X63498Y533522D01*
X63503Y533521D01*
X64350Y534274D01*
X64352Y534281D01*
X64357Y534281D01*
X65041Y535184D01*
X65041Y535191D01*
X65046Y535192D01*
X65541Y536211D01*
X65539Y536218D01*
X65544Y536220D01*
X65831Y537317D01*
X65829Y537321D01*
X65831Y537322D01*
X65829Y537324D01*
X65832Y537326D01*
X65899Y538457D01*
X65897Y538461D01*
X65899Y538463D01*
X65832Y539594D01*
X65827Y539599D01*
X65831Y539603D01*
X65544Y540700D01*
X65538Y540704D01*
X65541Y540709D01*
X65046Y541728D01*
X65040Y541731D01*
X65041Y541736D01*
X64357Y542639D01*
X64350Y542641D01*
X64350Y542646D01*
X63503Y543399D01*
X63496Y543399D01*
X63495Y543404D01*
X62518Y543977D01*
X62511Y543976D01*
X62509Y543981D01*
X61438Y544352D01*
X61432Y544349D01*
X61429Y544354D01*
X60307Y544509D01*
X60302Y544506D01*
X60300Y544509D01*
X48300Y544509D01*
X48295Y544506D01*
X48292Y544509D01*
X47025Y544304D01*
X47019Y544298D01*
X47015Y544301D01*
X45825Y543819D01*
X45821Y543812D01*
X45815Y543814D01*
X44762Y543080D01*
X44760Y543072D01*
X44754Y543073D01*
X43891Y542123D01*
X43890Y542114D01*
X43885Y542114D01*
X43255Y540995D01*
X43256Y540987D01*
X43250Y540985D01*
X42885Y539755D01*
X42888Y539747D01*
X42883Y539744D01*
X42801Y538463D01*
X42804Y538459D01*
X42801Y538457D01*
X42883Y537176D01*
X42889Y537170D01*
X42885Y537165D01*
X43250Y535935D01*
X43257Y535930D01*
X43255Y535925D01*
X43885Y534806D01*
X43892Y534803D01*
X43891Y534797D01*
X44754Y533847D01*
X44762Y533846D01*
X44762Y533840D01*
X45815Y533106D01*
X45823Y533106D01*
X45825Y533101D01*
X47015Y532619D01*
X47022Y532621D01*
X47025Y532616D01*
X48292Y532411D01*
X48297Y532414D01*
X48300Y532411D01*
X60300Y532411D01*
X60304Y532414D01*
G37*
G36*
X979784Y298734D02*
X979784Y298734D01*
X979787Y298731D01*
X980909Y298886D01*
X980914Y298891D01*
X980918Y298888D01*
X981989Y299259D01*
X981993Y299265D01*
X981998Y299263D01*
X982975Y299836D01*
X982978Y299842D01*
X982983Y299841D01*
X983830Y300594D01*
X983832Y300601D01*
X983837Y300601D01*
X984521Y301504D01*
X984521Y301511D01*
X984526Y301512D01*
X985021Y302531D01*
X985019Y302538D01*
X985024Y302540D01*
X985311Y303637D01*
X985309Y303641D01*
X985311Y303642D01*
X985309Y303644D01*
X985312Y303646D01*
X985379Y304777D01*
X985377Y304781D01*
X985379Y304783D01*
X985312Y305914D01*
X985307Y305919D01*
X985311Y305923D01*
X985024Y307020D01*
X985018Y307024D01*
X985021Y307029D01*
X984526Y308048D01*
X984520Y308051D01*
X984521Y308056D01*
X983837Y308959D01*
X983830Y308961D01*
X983830Y308966D01*
X982983Y309719D01*
X982976Y309719D01*
X982975Y309724D01*
X981998Y310297D01*
X981991Y310296D01*
X981989Y310301D01*
X980918Y310672D01*
X980912Y310669D01*
X980909Y310674D01*
X979787Y310829D01*
X979782Y310826D01*
X979780Y310829D01*
X967780Y310829D01*
X967775Y310826D01*
X967772Y310829D01*
X966505Y310624D01*
X966499Y310618D01*
X966495Y310621D01*
X965305Y310139D01*
X965301Y310132D01*
X965295Y310134D01*
X964242Y309400D01*
X964240Y309392D01*
X964234Y309393D01*
X963371Y308443D01*
X963370Y308434D01*
X963365Y308434D01*
X962735Y307315D01*
X962736Y307307D01*
X962730Y307305D01*
X962365Y306075D01*
X962368Y306067D01*
X962363Y306064D01*
X962281Y304783D01*
X962284Y304779D01*
X962281Y304777D01*
X962363Y303496D01*
X962369Y303490D01*
X962365Y303485D01*
X962730Y302255D01*
X962737Y302250D01*
X962735Y302245D01*
X963365Y301126D01*
X963372Y301123D01*
X963371Y301117D01*
X964234Y300167D01*
X964242Y300166D01*
X964242Y300160D01*
X965295Y299426D01*
X965303Y299426D01*
X965305Y299421D01*
X966495Y298939D01*
X966502Y298941D01*
X966505Y298936D01*
X967772Y298731D01*
X967777Y298734D01*
X967780Y298731D01*
X979780Y298731D01*
X979784Y298734D01*
G37*
G36*
X60304Y385134D02*
X60304Y385134D01*
X60307Y385131D01*
X61429Y385286D01*
X61434Y385291D01*
X61438Y385288D01*
X62509Y385659D01*
X62513Y385665D01*
X62518Y385663D01*
X63495Y386236D01*
X63498Y386242D01*
X63503Y386241D01*
X64350Y386994D01*
X64352Y387001D01*
X64357Y387001D01*
X65041Y387904D01*
X65041Y387911D01*
X65046Y387912D01*
X65541Y388931D01*
X65539Y388938D01*
X65544Y388940D01*
X65831Y390037D01*
X65829Y390041D01*
X65831Y390042D01*
X65829Y390044D01*
X65832Y390046D01*
X65899Y391177D01*
X65897Y391181D01*
X65899Y391183D01*
X65832Y392314D01*
X65827Y392319D01*
X65831Y392323D01*
X65544Y393420D01*
X65538Y393424D01*
X65541Y393429D01*
X65046Y394448D01*
X65040Y394451D01*
X65041Y394456D01*
X64357Y395359D01*
X64350Y395361D01*
X64350Y395366D01*
X63503Y396119D01*
X63496Y396119D01*
X63495Y396124D01*
X62518Y396697D01*
X62511Y396696D01*
X62509Y396701D01*
X61438Y397072D01*
X61432Y397069D01*
X61429Y397074D01*
X60307Y397229D01*
X60302Y397226D01*
X60300Y397229D01*
X48300Y397229D01*
X48295Y397226D01*
X48292Y397229D01*
X47025Y397024D01*
X47019Y397018D01*
X47015Y397021D01*
X45825Y396539D01*
X45821Y396532D01*
X45815Y396534D01*
X44762Y395800D01*
X44760Y395792D01*
X44754Y395793D01*
X43891Y394843D01*
X43890Y394834D01*
X43885Y394834D01*
X43255Y393715D01*
X43256Y393707D01*
X43250Y393705D01*
X42885Y392475D01*
X42888Y392467D01*
X42883Y392464D01*
X42801Y391183D01*
X42804Y391179D01*
X42801Y391177D01*
X42883Y389896D01*
X42889Y389890D01*
X42885Y389885D01*
X43250Y388655D01*
X43257Y388650D01*
X43255Y388645D01*
X43885Y387526D01*
X43892Y387523D01*
X43891Y387517D01*
X44754Y386567D01*
X44762Y386566D01*
X44762Y386560D01*
X45815Y385826D01*
X45823Y385826D01*
X45825Y385821D01*
X47015Y385339D01*
X47022Y385341D01*
X47025Y385336D01*
X48292Y385131D01*
X48297Y385134D01*
X48300Y385131D01*
X60300Y385131D01*
X60304Y385134D01*
G37*
G36*
X979784Y766094D02*
X979784Y766094D01*
X979787Y766091D01*
X980909Y766246D01*
X980914Y766251D01*
X980918Y766248D01*
X981989Y766619D01*
X981993Y766625D01*
X981998Y766623D01*
X982975Y767196D01*
X982978Y767202D01*
X982983Y767201D01*
X983830Y767954D01*
X983832Y767961D01*
X983837Y767961D01*
X984521Y768864D01*
X984521Y768871D01*
X984526Y768872D01*
X985021Y769891D01*
X985019Y769898D01*
X985024Y769900D01*
X985311Y770997D01*
X985309Y771001D01*
X985311Y771002D01*
X985309Y771004D01*
X985312Y771006D01*
X985379Y772137D01*
X985377Y772141D01*
X985379Y772143D01*
X985312Y773274D01*
X985307Y773279D01*
X985311Y773283D01*
X985024Y774380D01*
X985018Y774384D01*
X985021Y774389D01*
X984526Y775408D01*
X984520Y775411D01*
X984521Y775416D01*
X983837Y776319D01*
X983830Y776321D01*
X983830Y776326D01*
X982983Y777079D01*
X982976Y777079D01*
X982975Y777084D01*
X981998Y777657D01*
X981991Y777656D01*
X981989Y777661D01*
X980918Y778032D01*
X980912Y778029D01*
X980909Y778034D01*
X979787Y778189D01*
X979782Y778186D01*
X979780Y778189D01*
X967780Y778189D01*
X967775Y778186D01*
X967772Y778189D01*
X966505Y777984D01*
X966499Y777978D01*
X966495Y777981D01*
X965305Y777499D01*
X965301Y777492D01*
X965295Y777494D01*
X964242Y776760D01*
X964240Y776752D01*
X964234Y776753D01*
X963371Y775803D01*
X963370Y775794D01*
X963365Y775794D01*
X962735Y774675D01*
X962736Y774667D01*
X962730Y774665D01*
X962365Y773435D01*
X962368Y773427D01*
X962363Y773424D01*
X962281Y772143D01*
X962284Y772139D01*
X962281Y772137D01*
X962363Y770856D01*
X962369Y770850D01*
X962365Y770845D01*
X962730Y769615D01*
X962737Y769610D01*
X962735Y769605D01*
X963365Y768486D01*
X963372Y768483D01*
X963371Y768477D01*
X964234Y767527D01*
X964242Y767526D01*
X964242Y767520D01*
X965295Y766786D01*
X965303Y766786D01*
X965305Y766781D01*
X966495Y766299D01*
X966502Y766301D01*
X966505Y766296D01*
X967772Y766091D01*
X967777Y766094D01*
X967780Y766091D01*
X979780Y766091D01*
X979784Y766094D01*
G37*
G36*
X60304Y766094D02*
X60304Y766094D01*
X60307Y766091D01*
X61429Y766246D01*
X61434Y766251D01*
X61438Y766248D01*
X62509Y766619D01*
X62513Y766625D01*
X62518Y766623D01*
X63495Y767196D01*
X63498Y767202D01*
X63503Y767201D01*
X64350Y767954D01*
X64352Y767961D01*
X64357Y767961D01*
X65041Y768864D01*
X65041Y768871D01*
X65046Y768872D01*
X65541Y769891D01*
X65539Y769898D01*
X65544Y769900D01*
X65831Y770997D01*
X65829Y771001D01*
X65831Y771002D01*
X65829Y771004D01*
X65832Y771006D01*
X65899Y772137D01*
X65897Y772141D01*
X65899Y772143D01*
X65832Y773274D01*
X65827Y773279D01*
X65831Y773283D01*
X65544Y774380D01*
X65538Y774384D01*
X65541Y774389D01*
X65046Y775408D01*
X65040Y775411D01*
X65041Y775416D01*
X64357Y776319D01*
X64350Y776321D01*
X64350Y776326D01*
X63503Y777079D01*
X63496Y777079D01*
X63495Y777084D01*
X62518Y777657D01*
X62511Y777656D01*
X62509Y777661D01*
X61438Y778032D01*
X61432Y778029D01*
X61429Y778034D01*
X60307Y778189D01*
X60302Y778186D01*
X60300Y778189D01*
X48300Y778189D01*
X48295Y778186D01*
X48292Y778189D01*
X47025Y777984D01*
X47019Y777978D01*
X47015Y777981D01*
X45825Y777499D01*
X45821Y777492D01*
X45815Y777494D01*
X44762Y776760D01*
X44760Y776752D01*
X44754Y776753D01*
X43891Y775803D01*
X43890Y775794D01*
X43885Y775794D01*
X43255Y774675D01*
X43256Y774667D01*
X43250Y774665D01*
X42885Y773435D01*
X42888Y773427D01*
X42883Y773424D01*
X42801Y772143D01*
X42804Y772139D01*
X42801Y772137D01*
X42883Y770856D01*
X42889Y770850D01*
X42885Y770845D01*
X43250Y769615D01*
X43257Y769610D01*
X43255Y769605D01*
X43885Y768486D01*
X43892Y768483D01*
X43891Y768477D01*
X44754Y767527D01*
X44762Y767526D01*
X44762Y767520D01*
X45815Y766786D01*
X45823Y766786D01*
X45825Y766781D01*
X47015Y766299D01*
X47022Y766301D01*
X47025Y766296D01*
X48292Y766091D01*
X48297Y766094D01*
X48300Y766091D01*
X60300Y766091D01*
X60304Y766094D01*
G37*
G36*
X979784Y999774D02*
X979784Y999774D01*
X979787Y999771D01*
X980909Y999926D01*
X980914Y999931D01*
X980918Y999928D01*
X981989Y1000299D01*
X981993Y1000305D01*
X981998Y1000303D01*
X982975Y1000876D01*
X982978Y1000882D01*
X982983Y1000881D01*
X983830Y1001634D01*
X983832Y1001641D01*
X983837Y1001641D01*
X984521Y1002544D01*
X984521Y1002551D01*
X984526Y1002552D01*
X985021Y1003571D01*
X985019Y1003578D01*
X985024Y1003580D01*
X985311Y1004677D01*
X985309Y1004681D01*
X985311Y1004682D01*
X985309Y1004684D01*
X985312Y1004686D01*
X985379Y1005817D01*
X985377Y1005821D01*
X985379Y1005823D01*
X985312Y1006954D01*
X985307Y1006959D01*
X985311Y1006963D01*
X985024Y1008060D01*
X985018Y1008064D01*
X985021Y1008069D01*
X984526Y1009088D01*
X984520Y1009091D01*
X984521Y1009096D01*
X983837Y1009999D01*
X983830Y1010001D01*
X983830Y1010006D01*
X982983Y1010759D01*
X982976Y1010759D01*
X982975Y1010764D01*
X981998Y1011337D01*
X981991Y1011336D01*
X981989Y1011341D01*
X980918Y1011712D01*
X980912Y1011709D01*
X980909Y1011714D01*
X979787Y1011869D01*
X979782Y1011866D01*
X979780Y1011869D01*
X967780Y1011869D01*
X967775Y1011866D01*
X967772Y1011869D01*
X966505Y1011664D01*
X966499Y1011658D01*
X966495Y1011661D01*
X965305Y1011179D01*
X965301Y1011172D01*
X965295Y1011174D01*
X964242Y1010440D01*
X964240Y1010432D01*
X964234Y1010433D01*
X963371Y1009483D01*
X963370Y1009474D01*
X963365Y1009474D01*
X962735Y1008355D01*
X962736Y1008347D01*
X962730Y1008345D01*
X962365Y1007115D01*
X962368Y1007107D01*
X962363Y1007104D01*
X962281Y1005823D01*
X962284Y1005819D01*
X962281Y1005817D01*
X962363Y1004536D01*
X962369Y1004530D01*
X962365Y1004525D01*
X962730Y1003295D01*
X962737Y1003290D01*
X962735Y1003285D01*
X963365Y1002166D01*
X963372Y1002163D01*
X963371Y1002157D01*
X964234Y1001207D01*
X964242Y1001206D01*
X964242Y1001200D01*
X965295Y1000466D01*
X965303Y1000466D01*
X965305Y1000461D01*
X966495Y999979D01*
X966502Y999981D01*
X966505Y999976D01*
X967772Y999771D01*
X967777Y999774D01*
X967780Y999771D01*
X979780Y999771D01*
X979784Y999774D01*
G37*
G36*
X60304Y999774D02*
X60304Y999774D01*
X60307Y999771D01*
X61429Y999926D01*
X61434Y999931D01*
X61438Y999928D01*
X62509Y1000299D01*
X62513Y1000305D01*
X62518Y1000303D01*
X63495Y1000876D01*
X63498Y1000882D01*
X63503Y1000881D01*
X64350Y1001634D01*
X64352Y1001641D01*
X64357Y1001641D01*
X65041Y1002544D01*
X65041Y1002551D01*
X65046Y1002552D01*
X65541Y1003571D01*
X65539Y1003578D01*
X65544Y1003580D01*
X65831Y1004677D01*
X65829Y1004681D01*
X65831Y1004682D01*
X65829Y1004684D01*
X65832Y1004686D01*
X65899Y1005817D01*
X65897Y1005821D01*
X65899Y1005823D01*
X65832Y1006954D01*
X65827Y1006959D01*
X65831Y1006963D01*
X65544Y1008060D01*
X65538Y1008064D01*
X65541Y1008069D01*
X65046Y1009088D01*
X65040Y1009091D01*
X65041Y1009096D01*
X64357Y1009999D01*
X64350Y1010001D01*
X64350Y1010006D01*
X63503Y1010759D01*
X63496Y1010759D01*
X63495Y1010764D01*
X62518Y1011337D01*
X62511Y1011336D01*
X62509Y1011341D01*
X61438Y1011712D01*
X61432Y1011709D01*
X61429Y1011714D01*
X60307Y1011869D01*
X60302Y1011866D01*
X60300Y1011869D01*
X48300Y1011869D01*
X48295Y1011866D01*
X48292Y1011869D01*
X47025Y1011664D01*
X47019Y1011658D01*
X47015Y1011661D01*
X45825Y1011179D01*
X45821Y1011172D01*
X45815Y1011174D01*
X44762Y1010440D01*
X44760Y1010432D01*
X44754Y1010433D01*
X43891Y1009483D01*
X43890Y1009474D01*
X43885Y1009474D01*
X43255Y1008355D01*
X43256Y1008347D01*
X43250Y1008345D01*
X42885Y1007115D01*
X42888Y1007107D01*
X42883Y1007104D01*
X42801Y1005823D01*
X42804Y1005819D01*
X42801Y1005817D01*
X42883Y1004536D01*
X42889Y1004530D01*
X42885Y1004525D01*
X43250Y1003295D01*
X43257Y1003290D01*
X43255Y1003285D01*
X43885Y1002166D01*
X43892Y1002163D01*
X43891Y1002157D01*
X44754Y1001207D01*
X44762Y1001206D01*
X44762Y1001200D01*
X45815Y1000466D01*
X45823Y1000466D01*
X45825Y1000461D01*
X47015Y999979D01*
X47022Y999981D01*
X47025Y999976D01*
X48292Y999771D01*
X48297Y999774D01*
X48300Y999771D01*
X60300Y999771D01*
X60304Y999774D01*
G37*
G36*
X979784Y852494D02*
X979784Y852494D01*
X979787Y852491D01*
X980909Y852646D01*
X980914Y852651D01*
X980918Y852648D01*
X981989Y853019D01*
X981993Y853025D01*
X981998Y853023D01*
X982975Y853596D01*
X982978Y853602D01*
X982983Y853601D01*
X983830Y854354D01*
X983832Y854361D01*
X983837Y854361D01*
X984521Y855264D01*
X984521Y855271D01*
X984526Y855272D01*
X985021Y856291D01*
X985019Y856298D01*
X985024Y856300D01*
X985311Y857397D01*
X985309Y857401D01*
X985311Y857402D01*
X985309Y857404D01*
X985312Y857406D01*
X985379Y858537D01*
X985377Y858541D01*
X985379Y858543D01*
X985312Y859674D01*
X985307Y859679D01*
X985311Y859683D01*
X985024Y860780D01*
X985018Y860784D01*
X985021Y860789D01*
X984526Y861808D01*
X984520Y861811D01*
X984521Y861816D01*
X983837Y862719D01*
X983830Y862721D01*
X983830Y862726D01*
X982983Y863479D01*
X982976Y863479D01*
X982975Y863484D01*
X981998Y864057D01*
X981991Y864056D01*
X981989Y864061D01*
X980918Y864432D01*
X980912Y864429D01*
X980909Y864434D01*
X979787Y864589D01*
X979782Y864586D01*
X979780Y864589D01*
X967780Y864589D01*
X967775Y864586D01*
X967772Y864589D01*
X966505Y864384D01*
X966499Y864378D01*
X966495Y864381D01*
X965305Y863899D01*
X965301Y863892D01*
X965295Y863894D01*
X964242Y863160D01*
X964240Y863152D01*
X964234Y863153D01*
X963371Y862203D01*
X963370Y862194D01*
X963365Y862194D01*
X962735Y861075D01*
X962736Y861067D01*
X962730Y861065D01*
X962365Y859835D01*
X962368Y859827D01*
X962363Y859824D01*
X962281Y858543D01*
X962284Y858539D01*
X962281Y858537D01*
X962363Y857256D01*
X962369Y857250D01*
X962365Y857245D01*
X962730Y856015D01*
X962737Y856010D01*
X962735Y856005D01*
X963365Y854886D01*
X963372Y854883D01*
X963371Y854877D01*
X964234Y853927D01*
X964242Y853926D01*
X964242Y853920D01*
X965295Y853186D01*
X965303Y853186D01*
X965305Y853181D01*
X966495Y852699D01*
X966502Y852701D01*
X966505Y852696D01*
X967772Y852491D01*
X967777Y852494D01*
X967780Y852491D01*
X979780Y852491D01*
X979784Y852494D01*
G37*
G36*
X60304Y618814D02*
X60304Y618814D01*
X60307Y618811D01*
X61429Y618966D01*
X61434Y618971D01*
X61438Y618968D01*
X62509Y619339D01*
X62513Y619345D01*
X62518Y619343D01*
X63495Y619916D01*
X63498Y619922D01*
X63503Y619921D01*
X64350Y620674D01*
X64352Y620681D01*
X64357Y620681D01*
X65041Y621584D01*
X65041Y621591D01*
X65046Y621592D01*
X65541Y622611D01*
X65539Y622618D01*
X65544Y622620D01*
X65831Y623717D01*
X65829Y623721D01*
X65831Y623722D01*
X65829Y623724D01*
X65832Y623726D01*
X65899Y624857D01*
X65897Y624861D01*
X65899Y624863D01*
X65832Y625994D01*
X65827Y625999D01*
X65831Y626003D01*
X65544Y627100D01*
X65538Y627104D01*
X65541Y627109D01*
X65046Y628128D01*
X65040Y628131D01*
X65041Y628136D01*
X64357Y629039D01*
X64350Y629041D01*
X64350Y629046D01*
X63503Y629799D01*
X63496Y629799D01*
X63495Y629804D01*
X62518Y630377D01*
X62511Y630376D01*
X62509Y630381D01*
X61438Y630752D01*
X61432Y630749D01*
X61429Y630754D01*
X60307Y630909D01*
X60302Y630906D01*
X60300Y630909D01*
X48300Y630909D01*
X48295Y630906D01*
X48292Y630909D01*
X47025Y630704D01*
X47019Y630698D01*
X47015Y630701D01*
X45825Y630219D01*
X45821Y630212D01*
X45815Y630214D01*
X44762Y629480D01*
X44760Y629472D01*
X44754Y629473D01*
X43891Y628523D01*
X43890Y628514D01*
X43885Y628514D01*
X43255Y627395D01*
X43256Y627387D01*
X43250Y627385D01*
X42885Y626155D01*
X42888Y626147D01*
X42883Y626144D01*
X42801Y624863D01*
X42804Y624859D01*
X42801Y624857D01*
X42883Y623576D01*
X42889Y623570D01*
X42885Y623565D01*
X43250Y622335D01*
X43257Y622330D01*
X43255Y622325D01*
X43885Y621206D01*
X43892Y621203D01*
X43891Y621197D01*
X44754Y620247D01*
X44762Y620246D01*
X44762Y620240D01*
X45815Y619506D01*
X45823Y619506D01*
X45825Y619501D01*
X47015Y619019D01*
X47022Y619021D01*
X47025Y619016D01*
X48292Y618811D01*
X48297Y618814D01*
X48300Y618811D01*
X60300Y618811D01*
X60304Y618814D01*
G37*
G36*
X979784Y618814D02*
X979784Y618814D01*
X979787Y618811D01*
X980909Y618966D01*
X980914Y618971D01*
X980918Y618968D01*
X981989Y619339D01*
X981993Y619345D01*
X981998Y619343D01*
X982975Y619916D01*
X982978Y619922D01*
X982983Y619921D01*
X983830Y620674D01*
X983832Y620681D01*
X983837Y620681D01*
X984521Y621584D01*
X984521Y621591D01*
X984526Y621592D01*
X985021Y622611D01*
X985019Y622618D01*
X985024Y622620D01*
X985311Y623717D01*
X985309Y623721D01*
X985311Y623722D01*
X985309Y623724D01*
X985312Y623726D01*
X985379Y624857D01*
X985377Y624861D01*
X985379Y624863D01*
X985312Y625994D01*
X985307Y625999D01*
X985311Y626003D01*
X985024Y627100D01*
X985018Y627104D01*
X985021Y627109D01*
X984526Y628128D01*
X984520Y628131D01*
X984521Y628136D01*
X983837Y629039D01*
X983830Y629041D01*
X983830Y629046D01*
X982983Y629799D01*
X982976Y629799D01*
X982975Y629804D01*
X981998Y630377D01*
X981991Y630376D01*
X981989Y630381D01*
X980918Y630752D01*
X980912Y630749D01*
X980909Y630754D01*
X979787Y630909D01*
X979782Y630906D01*
X979780Y630909D01*
X967780Y630909D01*
X967775Y630906D01*
X967772Y630909D01*
X966505Y630704D01*
X966499Y630698D01*
X966495Y630701D01*
X965305Y630219D01*
X965301Y630212D01*
X965295Y630214D01*
X964242Y629480D01*
X964240Y629472D01*
X964234Y629473D01*
X963371Y628523D01*
X963370Y628514D01*
X963365Y628514D01*
X962735Y627395D01*
X962736Y627387D01*
X962730Y627385D01*
X962365Y626155D01*
X962368Y626147D01*
X962363Y626144D01*
X962281Y624863D01*
X962284Y624859D01*
X962281Y624857D01*
X962363Y623576D01*
X962369Y623570D01*
X962365Y623565D01*
X962730Y622335D01*
X962737Y622330D01*
X962735Y622325D01*
X963365Y621206D01*
X963372Y621203D01*
X963371Y621197D01*
X964234Y620247D01*
X964242Y620246D01*
X964242Y620240D01*
X965295Y619506D01*
X965303Y619506D01*
X965305Y619501D01*
X966495Y619019D01*
X966502Y619021D01*
X966505Y619016D01*
X967772Y618811D01*
X967777Y618814D01*
X967780Y618811D01*
X979780Y618811D01*
X979784Y618814D01*
G37*
G36*
X60304Y852494D02*
X60304Y852494D01*
X60307Y852491D01*
X61429Y852646D01*
X61434Y852651D01*
X61438Y852648D01*
X62509Y853019D01*
X62513Y853025D01*
X62518Y853023D01*
X63495Y853596D01*
X63498Y853602D01*
X63503Y853601D01*
X64350Y854354D01*
X64352Y854361D01*
X64357Y854361D01*
X65041Y855264D01*
X65041Y855271D01*
X65046Y855272D01*
X65541Y856291D01*
X65539Y856298D01*
X65544Y856300D01*
X65831Y857397D01*
X65829Y857401D01*
X65831Y857402D01*
X65829Y857404D01*
X65832Y857406D01*
X65899Y858537D01*
X65897Y858541D01*
X65899Y858543D01*
X65832Y859674D01*
X65827Y859679D01*
X65831Y859683D01*
X65544Y860780D01*
X65538Y860784D01*
X65541Y860789D01*
X65046Y861808D01*
X65040Y861811D01*
X65041Y861816D01*
X64357Y862719D01*
X64350Y862721D01*
X64350Y862726D01*
X63503Y863479D01*
X63496Y863479D01*
X63495Y863484D01*
X62518Y864057D01*
X62511Y864056D01*
X62509Y864061D01*
X61438Y864432D01*
X61432Y864429D01*
X61429Y864434D01*
X60307Y864589D01*
X60302Y864586D01*
X60300Y864589D01*
X48300Y864589D01*
X48295Y864586D01*
X48292Y864589D01*
X47025Y864384D01*
X47019Y864378D01*
X47015Y864381D01*
X45825Y863899D01*
X45821Y863892D01*
X45815Y863894D01*
X44762Y863160D01*
X44760Y863152D01*
X44754Y863153D01*
X43891Y862203D01*
X43890Y862194D01*
X43885Y862194D01*
X43255Y861075D01*
X43256Y861067D01*
X43250Y861065D01*
X42885Y859835D01*
X42888Y859827D01*
X42883Y859824D01*
X42801Y858543D01*
X42804Y858539D01*
X42801Y858537D01*
X42883Y857256D01*
X42889Y857250D01*
X42885Y857245D01*
X43250Y856015D01*
X43257Y856010D01*
X43255Y856005D01*
X43885Y854886D01*
X43892Y854883D01*
X43891Y854877D01*
X44754Y853927D01*
X44762Y853926D01*
X44762Y853920D01*
X45815Y853186D01*
X45823Y853186D01*
X45825Y853181D01*
X47015Y852699D01*
X47022Y852701D01*
X47025Y852696D01*
X48292Y852491D01*
X48297Y852494D01*
X48300Y852491D01*
X60300Y852491D01*
X60304Y852494D01*
G37*
G36*
X979784Y385134D02*
X979784Y385134D01*
X979787Y385131D01*
X980909Y385286D01*
X980914Y385291D01*
X980918Y385288D01*
X981989Y385659D01*
X981993Y385665D01*
X981998Y385663D01*
X982975Y386236D01*
X982978Y386242D01*
X982983Y386241D01*
X983830Y386994D01*
X983832Y387001D01*
X983837Y387001D01*
X984521Y387904D01*
X984521Y387911D01*
X984526Y387912D01*
X985021Y388931D01*
X985019Y388938D01*
X985024Y388940D01*
X985311Y390037D01*
X985309Y390041D01*
X985311Y390042D01*
X985309Y390044D01*
X985312Y390046D01*
X985379Y391177D01*
X985377Y391181D01*
X985379Y391183D01*
X985312Y392314D01*
X985307Y392319D01*
X985311Y392323D01*
X985024Y393420D01*
X985018Y393424D01*
X985021Y393429D01*
X984526Y394448D01*
X984520Y394451D01*
X984521Y394456D01*
X983837Y395359D01*
X983830Y395361D01*
X983830Y395366D01*
X982983Y396119D01*
X982976Y396119D01*
X982975Y396124D01*
X981998Y396697D01*
X981991Y396696D01*
X981989Y396701D01*
X980918Y397072D01*
X980912Y397069D01*
X980909Y397074D01*
X979787Y397229D01*
X979782Y397226D01*
X979780Y397229D01*
X967780Y397229D01*
X967775Y397226D01*
X967772Y397229D01*
X966505Y397024D01*
X966499Y397018D01*
X966495Y397021D01*
X965305Y396539D01*
X965301Y396532D01*
X965295Y396534D01*
X964242Y395800D01*
X964240Y395792D01*
X964234Y395793D01*
X963371Y394843D01*
X963370Y394834D01*
X963365Y394834D01*
X962735Y393715D01*
X962736Y393707D01*
X962730Y393705D01*
X962365Y392475D01*
X962368Y392467D01*
X962363Y392464D01*
X962281Y391183D01*
X962284Y391179D01*
X962281Y391177D01*
X962363Y389896D01*
X962369Y389890D01*
X962365Y389885D01*
X962730Y388655D01*
X962737Y388650D01*
X962735Y388645D01*
X963365Y387526D01*
X963372Y387523D01*
X963371Y387517D01*
X964234Y386567D01*
X964242Y386566D01*
X964242Y386560D01*
X965295Y385826D01*
X965303Y385826D01*
X965305Y385821D01*
X966495Y385339D01*
X966502Y385341D01*
X966505Y385336D01*
X967772Y385131D01*
X967777Y385134D01*
X967780Y385131D01*
X979780Y385131D01*
X979784Y385134D01*
G37*
G36*
X60304Y151454D02*
X60304Y151454D01*
X60307Y151451D01*
X61429Y151606D01*
X61434Y151611D01*
X61438Y151608D01*
X62509Y151979D01*
X62513Y151985D01*
X62518Y151983D01*
X63495Y152556D01*
X63498Y152562D01*
X63503Y152561D01*
X64350Y153314D01*
X64352Y153321D01*
X64357Y153321D01*
X65041Y154224D01*
X65041Y154231D01*
X65046Y154232D01*
X65541Y155251D01*
X65539Y155258D01*
X65544Y155260D01*
X65831Y156357D01*
X65829Y156361D01*
X65831Y156362D01*
X65829Y156364D01*
X65832Y156366D01*
X65899Y157497D01*
X65897Y157501D01*
X65899Y157503D01*
X65832Y158634D01*
X65827Y158639D01*
X65831Y158643D01*
X65544Y159740D01*
X65538Y159744D01*
X65541Y159749D01*
X65046Y160768D01*
X65040Y160771D01*
X65041Y160776D01*
X64357Y161679D01*
X64350Y161681D01*
X64350Y161686D01*
X63503Y162439D01*
X63496Y162439D01*
X63495Y162444D01*
X62518Y163017D01*
X62511Y163016D01*
X62509Y163021D01*
X61438Y163392D01*
X61432Y163389D01*
X61429Y163394D01*
X60307Y163549D01*
X60302Y163546D01*
X60300Y163549D01*
X48300Y163549D01*
X48295Y163546D01*
X48292Y163549D01*
X47025Y163344D01*
X47019Y163338D01*
X47015Y163341D01*
X45825Y162859D01*
X45821Y162852D01*
X45815Y162854D01*
X44762Y162120D01*
X44760Y162112D01*
X44754Y162113D01*
X43891Y161163D01*
X43890Y161154D01*
X43885Y161154D01*
X43255Y160035D01*
X43256Y160027D01*
X43250Y160025D01*
X42885Y158795D01*
X42888Y158787D01*
X42883Y158784D01*
X42801Y157503D01*
X42804Y157499D01*
X42801Y157497D01*
X42883Y156216D01*
X42889Y156210D01*
X42885Y156205D01*
X43250Y154975D01*
X43257Y154970D01*
X43255Y154965D01*
X43885Y153846D01*
X43892Y153843D01*
X43891Y153837D01*
X44754Y152887D01*
X44762Y152886D01*
X44762Y152880D01*
X45815Y152146D01*
X45823Y152146D01*
X45825Y152141D01*
X47015Y151659D01*
X47022Y151661D01*
X47025Y151656D01*
X48292Y151451D01*
X48297Y151454D01*
X48300Y151451D01*
X60300Y151451D01*
X60304Y151454D01*
G37*
G36*
X60304Y298734D02*
X60304Y298734D01*
X60307Y298731D01*
X61429Y298886D01*
X61434Y298891D01*
X61438Y298888D01*
X62509Y299259D01*
X62513Y299265D01*
X62518Y299263D01*
X63495Y299836D01*
X63498Y299842D01*
X63503Y299841D01*
X64350Y300594D01*
X64352Y300601D01*
X64357Y300601D01*
X65041Y301504D01*
X65041Y301511D01*
X65046Y301512D01*
X65541Y302531D01*
X65539Y302538D01*
X65544Y302540D01*
X65831Y303637D01*
X65829Y303641D01*
X65831Y303642D01*
X65829Y303644D01*
X65832Y303646D01*
X65899Y304777D01*
X65897Y304781D01*
X65899Y304783D01*
X65832Y305914D01*
X65827Y305919D01*
X65831Y305923D01*
X65544Y307020D01*
X65538Y307024D01*
X65541Y307029D01*
X65046Y308048D01*
X65040Y308051D01*
X65041Y308056D01*
X64357Y308959D01*
X64350Y308961D01*
X64350Y308966D01*
X63503Y309719D01*
X63496Y309719D01*
X63495Y309724D01*
X62518Y310297D01*
X62511Y310296D01*
X62509Y310301D01*
X61438Y310672D01*
X61432Y310669D01*
X61429Y310674D01*
X60307Y310829D01*
X60302Y310826D01*
X60300Y310829D01*
X48300Y310829D01*
X48295Y310826D01*
X48292Y310829D01*
X47025Y310624D01*
X47019Y310618D01*
X47015Y310621D01*
X45825Y310139D01*
X45821Y310132D01*
X45815Y310134D01*
X44762Y309400D01*
X44760Y309392D01*
X44754Y309393D01*
X43891Y308443D01*
X43890Y308434D01*
X43885Y308434D01*
X43255Y307315D01*
X43256Y307307D01*
X43250Y307305D01*
X42885Y306075D01*
X42888Y306067D01*
X42883Y306064D01*
X42801Y304783D01*
X42804Y304779D01*
X42801Y304777D01*
X42883Y303496D01*
X42889Y303490D01*
X42885Y303485D01*
X43250Y302255D01*
X43257Y302250D01*
X43255Y302245D01*
X43885Y301126D01*
X43892Y301123D01*
X43891Y301117D01*
X44754Y300167D01*
X44762Y300166D01*
X44762Y300160D01*
X45815Y299426D01*
X45823Y299426D01*
X45825Y299421D01*
X47015Y298939D01*
X47022Y298941D01*
X47025Y298936D01*
X48292Y298731D01*
X48297Y298734D01*
X48300Y298731D01*
X60300Y298731D01*
X60304Y298734D01*
G37*
G36*
X979784Y151454D02*
X979784Y151454D01*
X979787Y151451D01*
X980909Y151606D01*
X980914Y151611D01*
X980918Y151608D01*
X981989Y151979D01*
X981993Y151985D01*
X981998Y151983D01*
X982975Y152556D01*
X982978Y152562D01*
X982983Y152561D01*
X983830Y153314D01*
X983832Y153321D01*
X983837Y153321D01*
X984521Y154224D01*
X984521Y154231D01*
X984526Y154232D01*
X985021Y155251D01*
X985019Y155258D01*
X985024Y155260D01*
X985311Y156357D01*
X985309Y156361D01*
X985311Y156362D01*
X985309Y156364D01*
X985312Y156366D01*
X985379Y157497D01*
X985377Y157501D01*
X985379Y157503D01*
X985312Y158634D01*
X985307Y158639D01*
X985311Y158643D01*
X985024Y159740D01*
X985018Y159744D01*
X985021Y159749D01*
X984526Y160768D01*
X984520Y160771D01*
X984521Y160776D01*
X983837Y161679D01*
X983830Y161681D01*
X983830Y161686D01*
X982983Y162439D01*
X982976Y162439D01*
X982975Y162444D01*
X981998Y163017D01*
X981991Y163016D01*
X981989Y163021D01*
X980918Y163392D01*
X980912Y163389D01*
X980909Y163394D01*
X979787Y163549D01*
X979782Y163546D01*
X979780Y163549D01*
X967780Y163549D01*
X967775Y163546D01*
X967772Y163549D01*
X966505Y163344D01*
X966499Y163338D01*
X966495Y163341D01*
X965305Y162859D01*
X965301Y162852D01*
X965295Y162854D01*
X964242Y162120D01*
X964240Y162112D01*
X964234Y162113D01*
X963371Y161163D01*
X963370Y161154D01*
X963365Y161154D01*
X962735Y160035D01*
X962736Y160027D01*
X962730Y160025D01*
X962365Y158795D01*
X962368Y158787D01*
X962363Y158784D01*
X962281Y157503D01*
X962284Y157499D01*
X962281Y157497D01*
X962363Y156216D01*
X962369Y156210D01*
X962365Y156205D01*
X962730Y154975D01*
X962737Y154970D01*
X962735Y154965D01*
X963365Y153846D01*
X963372Y153843D01*
X963371Y153837D01*
X964234Y152887D01*
X964242Y152886D01*
X964242Y152880D01*
X965295Y152146D01*
X965303Y152146D01*
X965305Y152141D01*
X966495Y151659D01*
X966502Y151661D01*
X966505Y151656D01*
X967772Y151451D01*
X967777Y151454D01*
X967780Y151451D01*
X979780Y151451D01*
X979784Y151454D01*
G37*
G36*
X60304Y65054D02*
X60304Y65054D01*
X60307Y65051D01*
X61429Y65206D01*
X61434Y65211D01*
X61438Y65208D01*
X62509Y65579D01*
X62513Y65585D01*
X62518Y65583D01*
X63495Y66156D01*
X63498Y66162D01*
X63503Y66161D01*
X64350Y66914D01*
X64352Y66921D01*
X64357Y66921D01*
X65041Y67824D01*
X65041Y67831D01*
X65046Y67832D01*
X65541Y68851D01*
X65539Y68858D01*
X65544Y68860D01*
X65831Y69957D01*
X65829Y69961D01*
X65831Y69962D01*
X65829Y69964D01*
X65832Y69966D01*
X65899Y71097D01*
X65897Y71101D01*
X65899Y71103D01*
X65832Y72234D01*
X65827Y72239D01*
X65831Y72243D01*
X65544Y73340D01*
X65538Y73344D01*
X65541Y73349D01*
X65046Y74368D01*
X65040Y74371D01*
X65041Y74376D01*
X64357Y75279D01*
X64350Y75281D01*
X64350Y75286D01*
X63503Y76039D01*
X63496Y76039D01*
X63495Y76044D01*
X62518Y76617D01*
X62511Y76616D01*
X62509Y76621D01*
X61438Y76992D01*
X61432Y76989D01*
X61429Y76994D01*
X60307Y77149D01*
X60302Y77146D01*
X60300Y77149D01*
X48300Y77149D01*
X48295Y77146D01*
X48292Y77149D01*
X47025Y76944D01*
X47019Y76938D01*
X47015Y76941D01*
X45825Y76459D01*
X45821Y76452D01*
X45815Y76454D01*
X44762Y75720D01*
X44760Y75712D01*
X44754Y75713D01*
X43891Y74763D01*
X43890Y74754D01*
X43885Y74754D01*
X43255Y73635D01*
X43256Y73627D01*
X43250Y73625D01*
X42885Y72395D01*
X42888Y72387D01*
X42883Y72384D01*
X42801Y71103D01*
X42804Y71099D01*
X42801Y71097D01*
X42883Y69816D01*
X42889Y69810D01*
X42885Y69805D01*
X43250Y68575D01*
X43257Y68570D01*
X43255Y68565D01*
X43885Y67446D01*
X43892Y67443D01*
X43891Y67437D01*
X44754Y66487D01*
X44762Y66486D01*
X44762Y66480D01*
X45815Y65746D01*
X45823Y65746D01*
X45825Y65741D01*
X47015Y65259D01*
X47022Y65261D01*
X47025Y65256D01*
X48292Y65051D01*
X48297Y65054D01*
X48300Y65051D01*
X60300Y65051D01*
X60304Y65054D01*
G37*
G36*
X979784Y65054D02*
X979784Y65054D01*
X979787Y65051D01*
X980909Y65206D01*
X980914Y65211D01*
X980918Y65208D01*
X981989Y65579D01*
X981993Y65585D01*
X981998Y65583D01*
X982975Y66156D01*
X982978Y66162D01*
X982983Y66161D01*
X983830Y66914D01*
X983832Y66921D01*
X983837Y66921D01*
X984521Y67824D01*
X984521Y67831D01*
X984526Y67832D01*
X985021Y68851D01*
X985019Y68858D01*
X985024Y68860D01*
X985311Y69957D01*
X985309Y69961D01*
X985311Y69962D01*
X985309Y69964D01*
X985312Y69966D01*
X985379Y71097D01*
X985377Y71101D01*
X985379Y71103D01*
X985312Y72234D01*
X985307Y72239D01*
X985311Y72243D01*
X985024Y73340D01*
X985018Y73344D01*
X985021Y73349D01*
X984526Y74368D01*
X984520Y74371D01*
X984521Y74376D01*
X983837Y75279D01*
X983830Y75281D01*
X983830Y75286D01*
X982983Y76039D01*
X982976Y76039D01*
X982975Y76044D01*
X981998Y76617D01*
X981991Y76616D01*
X981989Y76621D01*
X980918Y76992D01*
X980912Y76989D01*
X980909Y76994D01*
X979787Y77149D01*
X979782Y77146D01*
X979780Y77149D01*
X967780Y77149D01*
X967775Y77146D01*
X967772Y77149D01*
X966505Y76944D01*
X966499Y76938D01*
X966495Y76941D01*
X965305Y76459D01*
X965301Y76452D01*
X965295Y76454D01*
X964242Y75720D01*
X964240Y75712D01*
X964234Y75713D01*
X963371Y74763D01*
X963370Y74754D01*
X963365Y74754D01*
X962735Y73635D01*
X962736Y73627D01*
X962730Y73625D01*
X962365Y72395D01*
X962368Y72387D01*
X962363Y72384D01*
X962281Y71103D01*
X962284Y71099D01*
X962281Y71097D01*
X962363Y69816D01*
X962369Y69810D01*
X962365Y69805D01*
X962730Y68575D01*
X962737Y68570D01*
X962735Y68565D01*
X963365Y67446D01*
X963372Y67443D01*
X963371Y67437D01*
X964234Y66487D01*
X964242Y66486D01*
X964242Y66480D01*
X965295Y65746D01*
X965303Y65746D01*
X965305Y65741D01*
X966495Y65259D01*
X966502Y65261D01*
X966505Y65256D01*
X967772Y65051D01*
X967777Y65054D01*
X967780Y65051D01*
X979780Y65051D01*
X979784Y65054D01*
G37*
G36*
X934983Y852493D02*
X934983Y852493D01*
X934985Y852491D01*
X936161Y852602D01*
X936166Y852607D01*
X936170Y852604D01*
X937302Y852942D01*
X937306Y852948D01*
X937311Y852946D01*
X938355Y853498D01*
X938358Y853505D01*
X938363Y853503D01*
X939279Y854249D01*
X939280Y854256D01*
X939286Y854256D01*
X940039Y855166D01*
X940039Y855173D01*
X940044Y855174D01*
X940605Y856213D01*
X940604Y856218D01*
X940608Y856220D01*
X940607Y856221D01*
X940609Y856222D01*
X940956Y857351D01*
X940956Y857352D01*
X940957Y857353D01*
X940954Y857357D01*
X940958Y857360D01*
X941079Y858535D01*
X941075Y858542D01*
X941079Y858546D01*
X940922Y859886D01*
X940917Y859892D01*
X940920Y859897D01*
X940469Y861168D01*
X940462Y861173D01*
X940464Y861178D01*
X939742Y862317D01*
X939734Y862320D01*
X939735Y862326D01*
X938777Y863276D01*
X938769Y863277D01*
X938768Y863283D01*
X937623Y863996D01*
X937615Y863995D01*
X937613Y864001D01*
X936337Y864441D01*
X936330Y864439D01*
X936327Y864443D01*
X934985Y864589D01*
X934982Y864587D01*
X934980Y864589D01*
X928980Y864589D01*
X928977Y864587D01*
X928974Y864589D01*
X927645Y864434D01*
X927639Y864428D01*
X927635Y864431D01*
X926374Y863984D01*
X926369Y863977D01*
X926364Y863979D01*
X925234Y863262D01*
X925231Y863255D01*
X925225Y863256D01*
X924283Y862306D01*
X924282Y862297D01*
X924276Y862297D01*
X923569Y861161D01*
X923570Y861153D01*
X923564Y861151D01*
X923128Y859886D01*
X923130Y859878D01*
X923125Y859876D01*
X922981Y858545D01*
X922985Y858539D01*
X922981Y858535D01*
X923091Y857369D01*
X923096Y857364D01*
X923093Y857360D01*
X923428Y856237D01*
X923434Y856233D01*
X923432Y856229D01*
X923980Y855193D01*
X923986Y855190D01*
X923985Y855185D01*
X924724Y854277D01*
X924731Y854275D01*
X924731Y854270D01*
X925633Y853523D01*
X925641Y853523D01*
X925641Y853518D01*
X926672Y852961D01*
X926679Y852962D01*
X926681Y852957D01*
X927800Y852613D01*
X927807Y852615D01*
X927810Y852611D01*
X928975Y852491D01*
X928978Y852493D01*
X928980Y852491D01*
X934980Y852491D01*
X934983Y852493D01*
G37*
G36*
X934983Y766093D02*
X934983Y766093D01*
X934985Y766091D01*
X936161Y766202D01*
X936166Y766207D01*
X936170Y766204D01*
X937302Y766542D01*
X937306Y766548D01*
X937311Y766546D01*
X938355Y767098D01*
X938358Y767105D01*
X938363Y767103D01*
X939279Y767849D01*
X939280Y767856D01*
X939286Y767856D01*
X940039Y768766D01*
X940039Y768773D01*
X940044Y768774D01*
X940605Y769813D01*
X940604Y769818D01*
X940608Y769820D01*
X940607Y769821D01*
X940609Y769822D01*
X940956Y770951D01*
X940956Y770952D01*
X940957Y770953D01*
X940954Y770957D01*
X940958Y770960D01*
X941079Y772135D01*
X941075Y772142D01*
X941079Y772146D01*
X940922Y773486D01*
X940917Y773492D01*
X940920Y773497D01*
X940469Y774768D01*
X940462Y774773D01*
X940464Y774778D01*
X939742Y775917D01*
X939734Y775920D01*
X939735Y775926D01*
X938777Y776876D01*
X938769Y776877D01*
X938768Y776883D01*
X937623Y777596D01*
X937615Y777595D01*
X937613Y777601D01*
X936337Y778041D01*
X936330Y778039D01*
X936327Y778043D01*
X934985Y778189D01*
X934982Y778187D01*
X934980Y778189D01*
X928980Y778189D01*
X928977Y778187D01*
X928974Y778189D01*
X927645Y778034D01*
X927639Y778028D01*
X927635Y778031D01*
X926374Y777584D01*
X926369Y777577D01*
X926364Y777579D01*
X925234Y776862D01*
X925231Y776855D01*
X925225Y776856D01*
X924283Y775906D01*
X924282Y775897D01*
X924276Y775897D01*
X923569Y774761D01*
X923570Y774753D01*
X923564Y774751D01*
X923128Y773486D01*
X923130Y773478D01*
X923125Y773476D01*
X922981Y772145D01*
X922985Y772139D01*
X922981Y772135D01*
X923091Y770969D01*
X923096Y770964D01*
X923093Y770960D01*
X923428Y769837D01*
X923434Y769833D01*
X923432Y769829D01*
X923980Y768793D01*
X923986Y768790D01*
X923985Y768785D01*
X924724Y767877D01*
X924731Y767875D01*
X924731Y767870D01*
X925633Y767123D01*
X925641Y767123D01*
X925641Y767118D01*
X926672Y766561D01*
X926679Y766562D01*
X926681Y766557D01*
X927800Y766213D01*
X927807Y766215D01*
X927810Y766211D01*
X928975Y766091D01*
X928978Y766093D01*
X928980Y766091D01*
X934980Y766091D01*
X934983Y766093D01*
G37*
G36*
X15503Y766093D02*
X15503Y766093D01*
X15505Y766091D01*
X16681Y766202D01*
X16686Y766207D01*
X16690Y766204D01*
X17822Y766542D01*
X17826Y766548D01*
X17831Y766546D01*
X18875Y767098D01*
X18878Y767105D01*
X18883Y767103D01*
X19799Y767849D01*
X19800Y767856D01*
X19806Y767856D01*
X20559Y768766D01*
X20559Y768773D01*
X20564Y768774D01*
X21125Y769813D01*
X21124Y769818D01*
X21128Y769820D01*
X21127Y769821D01*
X21129Y769822D01*
X21476Y770951D01*
X21476Y770952D01*
X21477Y770953D01*
X21474Y770957D01*
X21478Y770960D01*
X21599Y772135D01*
X21595Y772142D01*
X21599Y772146D01*
X21442Y773486D01*
X21437Y773492D01*
X21440Y773497D01*
X20989Y774768D01*
X20982Y774773D01*
X20984Y774778D01*
X20262Y775917D01*
X20254Y775920D01*
X20255Y775926D01*
X19297Y776876D01*
X19289Y776877D01*
X19288Y776883D01*
X18143Y777596D01*
X18135Y777595D01*
X18133Y777601D01*
X16857Y778041D01*
X16850Y778039D01*
X16847Y778043D01*
X15505Y778189D01*
X15502Y778187D01*
X15500Y778189D01*
X9500Y778189D01*
X9497Y778187D01*
X9494Y778189D01*
X8165Y778034D01*
X8159Y778028D01*
X8155Y778031D01*
X6894Y777584D01*
X6889Y777577D01*
X6884Y777579D01*
X5754Y776862D01*
X5751Y776855D01*
X5745Y776856D01*
X4803Y775906D01*
X4802Y775897D01*
X4796Y775897D01*
X4089Y774761D01*
X4090Y774753D01*
X4084Y774751D01*
X3648Y773486D01*
X3650Y773478D01*
X3645Y773476D01*
X3501Y772145D01*
X3505Y772139D01*
X3501Y772135D01*
X3611Y770969D01*
X3616Y770964D01*
X3613Y770960D01*
X3948Y769837D01*
X3954Y769833D01*
X3952Y769829D01*
X4500Y768793D01*
X4506Y768790D01*
X4505Y768785D01*
X5244Y767877D01*
X5251Y767875D01*
X5251Y767870D01*
X6153Y767123D01*
X6161Y767123D01*
X6161Y767118D01*
X7192Y766561D01*
X7199Y766562D01*
X7201Y766557D01*
X8320Y766213D01*
X8327Y766215D01*
X8330Y766211D01*
X9495Y766091D01*
X9498Y766093D01*
X9500Y766091D01*
X15500Y766091D01*
X15503Y766093D01*
G37*
G36*
X15503Y618813D02*
X15503Y618813D01*
X15505Y618811D01*
X16681Y618922D01*
X16686Y618927D01*
X16690Y618924D01*
X17822Y619262D01*
X17826Y619268D01*
X17831Y619266D01*
X18875Y619818D01*
X18878Y619825D01*
X18883Y619823D01*
X19799Y620569D01*
X19800Y620576D01*
X19806Y620576D01*
X20559Y621486D01*
X20559Y621493D01*
X20564Y621494D01*
X21125Y622533D01*
X21124Y622538D01*
X21128Y622540D01*
X21127Y622541D01*
X21129Y622542D01*
X21476Y623671D01*
X21476Y623672D01*
X21477Y623673D01*
X21474Y623677D01*
X21478Y623680D01*
X21599Y624855D01*
X21595Y624862D01*
X21599Y624866D01*
X21442Y626206D01*
X21437Y626212D01*
X21440Y626217D01*
X20989Y627488D01*
X20982Y627493D01*
X20984Y627498D01*
X20262Y628637D01*
X20254Y628640D01*
X20255Y628646D01*
X19297Y629596D01*
X19289Y629597D01*
X19288Y629603D01*
X18143Y630316D01*
X18135Y630315D01*
X18133Y630321D01*
X16857Y630761D01*
X16850Y630759D01*
X16847Y630763D01*
X15505Y630909D01*
X15502Y630907D01*
X15500Y630909D01*
X9500Y630909D01*
X9497Y630907D01*
X9494Y630909D01*
X8165Y630754D01*
X8159Y630748D01*
X8155Y630751D01*
X6894Y630304D01*
X6889Y630297D01*
X6884Y630299D01*
X5754Y629582D01*
X5751Y629575D01*
X5745Y629576D01*
X4803Y628626D01*
X4802Y628617D01*
X4796Y628617D01*
X4089Y627481D01*
X4090Y627473D01*
X4084Y627471D01*
X3648Y626206D01*
X3650Y626198D01*
X3645Y626196D01*
X3501Y624865D01*
X3505Y624859D01*
X3501Y624855D01*
X3611Y623689D01*
X3616Y623684D01*
X3613Y623680D01*
X3948Y622557D01*
X3954Y622553D01*
X3952Y622549D01*
X4500Y621513D01*
X4506Y621510D01*
X4505Y621505D01*
X5244Y620597D01*
X5251Y620595D01*
X5251Y620590D01*
X6153Y619843D01*
X6161Y619843D01*
X6161Y619838D01*
X7192Y619281D01*
X7199Y619282D01*
X7201Y619277D01*
X8320Y618933D01*
X8327Y618935D01*
X8330Y618931D01*
X9495Y618811D01*
X9498Y618813D01*
X9500Y618811D01*
X15500Y618811D01*
X15503Y618813D01*
G37*
G36*
X934983Y618813D02*
X934983Y618813D01*
X934985Y618811D01*
X936161Y618922D01*
X936166Y618927D01*
X936170Y618924D01*
X937302Y619262D01*
X937306Y619268D01*
X937311Y619266D01*
X938355Y619818D01*
X938358Y619825D01*
X938363Y619823D01*
X939279Y620569D01*
X939280Y620576D01*
X939286Y620576D01*
X940039Y621486D01*
X940039Y621493D01*
X940044Y621494D01*
X940605Y622533D01*
X940604Y622538D01*
X940608Y622540D01*
X940607Y622541D01*
X940609Y622542D01*
X940956Y623671D01*
X940956Y623672D01*
X940957Y623673D01*
X940954Y623677D01*
X940958Y623680D01*
X941079Y624855D01*
X941075Y624862D01*
X941079Y624866D01*
X940922Y626206D01*
X940917Y626212D01*
X940920Y626217D01*
X940469Y627488D01*
X940462Y627493D01*
X940464Y627498D01*
X939742Y628637D01*
X939734Y628640D01*
X939735Y628646D01*
X938777Y629596D01*
X938769Y629597D01*
X938768Y629603D01*
X937623Y630316D01*
X937615Y630315D01*
X937613Y630321D01*
X936337Y630761D01*
X936330Y630759D01*
X936327Y630763D01*
X934985Y630909D01*
X934982Y630907D01*
X934980Y630909D01*
X928980Y630909D01*
X928977Y630907D01*
X928974Y630909D01*
X927645Y630754D01*
X927639Y630748D01*
X927635Y630751D01*
X926374Y630304D01*
X926369Y630297D01*
X926364Y630299D01*
X925234Y629582D01*
X925231Y629575D01*
X925225Y629576D01*
X924283Y628626D01*
X924282Y628617D01*
X924276Y628617D01*
X923569Y627481D01*
X923570Y627473D01*
X923564Y627471D01*
X923128Y626206D01*
X923130Y626198D01*
X923125Y626196D01*
X922981Y624865D01*
X922985Y624859D01*
X922981Y624855D01*
X923091Y623689D01*
X923096Y623684D01*
X923093Y623680D01*
X923428Y622557D01*
X923434Y622553D01*
X923432Y622549D01*
X923980Y621513D01*
X923986Y621510D01*
X923985Y621505D01*
X924724Y620597D01*
X924731Y620595D01*
X924731Y620590D01*
X925633Y619843D01*
X925641Y619843D01*
X925641Y619838D01*
X926672Y619281D01*
X926679Y619282D01*
X926681Y619277D01*
X927800Y618933D01*
X927807Y618935D01*
X927810Y618931D01*
X928975Y618811D01*
X928978Y618813D01*
X928980Y618811D01*
X934980Y618811D01*
X934983Y618813D01*
G37*
G36*
X15503Y385133D02*
X15503Y385133D01*
X15505Y385131D01*
X16681Y385242D01*
X16686Y385247D01*
X16690Y385244D01*
X17822Y385582D01*
X17826Y385588D01*
X17831Y385586D01*
X18875Y386138D01*
X18878Y386145D01*
X18883Y386143D01*
X19799Y386889D01*
X19800Y386896D01*
X19806Y386896D01*
X20559Y387806D01*
X20559Y387813D01*
X20564Y387814D01*
X21125Y388853D01*
X21124Y388858D01*
X21128Y388860D01*
X21127Y388861D01*
X21129Y388862D01*
X21476Y389991D01*
X21476Y389992D01*
X21477Y389993D01*
X21474Y389997D01*
X21478Y390000D01*
X21599Y391175D01*
X21595Y391182D01*
X21599Y391186D01*
X21442Y392526D01*
X21437Y392532D01*
X21440Y392537D01*
X20989Y393808D01*
X20982Y393813D01*
X20984Y393818D01*
X20262Y394957D01*
X20254Y394960D01*
X20255Y394966D01*
X19297Y395916D01*
X19289Y395917D01*
X19288Y395923D01*
X18143Y396636D01*
X18135Y396635D01*
X18133Y396641D01*
X16857Y397081D01*
X16850Y397079D01*
X16847Y397083D01*
X15505Y397229D01*
X15502Y397227D01*
X15500Y397229D01*
X9500Y397229D01*
X9497Y397227D01*
X9494Y397229D01*
X8165Y397074D01*
X8159Y397068D01*
X8155Y397071D01*
X6894Y396624D01*
X6889Y396617D01*
X6884Y396619D01*
X5754Y395902D01*
X5751Y395895D01*
X5745Y395896D01*
X4803Y394946D01*
X4802Y394937D01*
X4796Y394937D01*
X4089Y393801D01*
X4090Y393793D01*
X4084Y393791D01*
X3648Y392526D01*
X3650Y392518D01*
X3645Y392516D01*
X3501Y391185D01*
X3505Y391179D01*
X3501Y391175D01*
X3611Y390009D01*
X3616Y390004D01*
X3613Y390000D01*
X3948Y388877D01*
X3954Y388873D01*
X3952Y388869D01*
X4500Y387833D01*
X4506Y387830D01*
X4505Y387825D01*
X5244Y386917D01*
X5251Y386915D01*
X5251Y386910D01*
X6153Y386163D01*
X6161Y386163D01*
X6161Y386158D01*
X7192Y385601D01*
X7199Y385602D01*
X7201Y385597D01*
X8320Y385253D01*
X8327Y385255D01*
X8330Y385251D01*
X9495Y385131D01*
X9498Y385133D01*
X9500Y385131D01*
X15500Y385131D01*
X15503Y385133D01*
G37*
G36*
X15503Y532413D02*
X15503Y532413D01*
X15505Y532411D01*
X16681Y532522D01*
X16686Y532527D01*
X16690Y532524D01*
X17822Y532862D01*
X17826Y532868D01*
X17831Y532866D01*
X18875Y533418D01*
X18878Y533425D01*
X18883Y533423D01*
X19799Y534169D01*
X19800Y534176D01*
X19806Y534176D01*
X20559Y535086D01*
X20559Y535093D01*
X20564Y535094D01*
X21125Y536133D01*
X21124Y536138D01*
X21128Y536140D01*
X21127Y536141D01*
X21129Y536142D01*
X21476Y537271D01*
X21476Y537272D01*
X21477Y537273D01*
X21474Y537277D01*
X21478Y537280D01*
X21599Y538455D01*
X21595Y538462D01*
X21599Y538466D01*
X21442Y539806D01*
X21437Y539812D01*
X21440Y539817D01*
X20989Y541088D01*
X20982Y541093D01*
X20984Y541098D01*
X20262Y542237D01*
X20254Y542240D01*
X20255Y542246D01*
X19297Y543196D01*
X19289Y543197D01*
X19288Y543203D01*
X18143Y543916D01*
X18135Y543915D01*
X18133Y543921D01*
X16857Y544361D01*
X16850Y544359D01*
X16847Y544363D01*
X15505Y544509D01*
X15502Y544507D01*
X15500Y544509D01*
X9500Y544509D01*
X9497Y544507D01*
X9494Y544509D01*
X8165Y544354D01*
X8159Y544348D01*
X8155Y544351D01*
X6894Y543904D01*
X6889Y543897D01*
X6884Y543899D01*
X5754Y543182D01*
X5751Y543175D01*
X5745Y543176D01*
X4803Y542226D01*
X4802Y542217D01*
X4796Y542217D01*
X4089Y541081D01*
X4090Y541073D01*
X4084Y541071D01*
X3648Y539806D01*
X3650Y539798D01*
X3645Y539796D01*
X3501Y538465D01*
X3505Y538459D01*
X3501Y538455D01*
X3611Y537289D01*
X3616Y537284D01*
X3613Y537280D01*
X3948Y536157D01*
X3954Y536153D01*
X3952Y536149D01*
X4500Y535113D01*
X4506Y535110D01*
X4505Y535105D01*
X5244Y534197D01*
X5251Y534195D01*
X5251Y534190D01*
X6153Y533443D01*
X6161Y533443D01*
X6161Y533438D01*
X7192Y532881D01*
X7199Y532882D01*
X7201Y532877D01*
X8320Y532533D01*
X8327Y532535D01*
X8330Y532531D01*
X9495Y532411D01*
X9498Y532413D01*
X9500Y532411D01*
X15500Y532411D01*
X15503Y532413D01*
G37*
G36*
X934983Y532413D02*
X934983Y532413D01*
X934985Y532411D01*
X936161Y532522D01*
X936166Y532527D01*
X936170Y532524D01*
X937302Y532862D01*
X937306Y532868D01*
X937311Y532866D01*
X938355Y533418D01*
X938358Y533425D01*
X938363Y533423D01*
X939279Y534169D01*
X939280Y534176D01*
X939286Y534176D01*
X940039Y535086D01*
X940039Y535093D01*
X940044Y535094D01*
X940605Y536133D01*
X940604Y536138D01*
X940608Y536140D01*
X940607Y536141D01*
X940609Y536142D01*
X940956Y537271D01*
X940956Y537272D01*
X940957Y537273D01*
X940954Y537277D01*
X940958Y537280D01*
X941079Y538455D01*
X941075Y538462D01*
X941079Y538466D01*
X940922Y539806D01*
X940917Y539812D01*
X940920Y539817D01*
X940469Y541088D01*
X940462Y541093D01*
X940464Y541098D01*
X939742Y542237D01*
X939734Y542240D01*
X939735Y542246D01*
X938777Y543196D01*
X938769Y543197D01*
X938768Y543203D01*
X937623Y543916D01*
X937615Y543915D01*
X937613Y543921D01*
X936337Y544361D01*
X936330Y544359D01*
X936327Y544363D01*
X934985Y544509D01*
X934982Y544507D01*
X934980Y544509D01*
X928980Y544509D01*
X928977Y544507D01*
X928974Y544509D01*
X927645Y544354D01*
X927639Y544348D01*
X927635Y544351D01*
X926374Y543904D01*
X926369Y543897D01*
X926364Y543899D01*
X925234Y543182D01*
X925231Y543175D01*
X925225Y543176D01*
X924283Y542226D01*
X924282Y542217D01*
X924276Y542217D01*
X923569Y541081D01*
X923570Y541073D01*
X923564Y541071D01*
X923128Y539806D01*
X923130Y539798D01*
X923125Y539796D01*
X922981Y538465D01*
X922985Y538459D01*
X922981Y538455D01*
X923091Y537289D01*
X923096Y537284D01*
X923093Y537280D01*
X923428Y536157D01*
X923434Y536153D01*
X923432Y536149D01*
X923980Y535113D01*
X923986Y535110D01*
X923985Y535105D01*
X924724Y534197D01*
X924731Y534195D01*
X924731Y534190D01*
X925633Y533443D01*
X925641Y533443D01*
X925641Y533438D01*
X926672Y532881D01*
X926679Y532882D01*
X926681Y532877D01*
X927800Y532533D01*
X927807Y532535D01*
X927810Y532531D01*
X928975Y532411D01*
X928978Y532413D01*
X928980Y532411D01*
X934980Y532411D01*
X934983Y532413D01*
G37*
G36*
X934983Y385133D02*
X934983Y385133D01*
X934985Y385131D01*
X936161Y385242D01*
X936166Y385247D01*
X936170Y385244D01*
X937302Y385582D01*
X937306Y385588D01*
X937311Y385586D01*
X938355Y386138D01*
X938358Y386145D01*
X938363Y386143D01*
X939279Y386889D01*
X939280Y386896D01*
X939286Y386896D01*
X940039Y387806D01*
X940039Y387813D01*
X940044Y387814D01*
X940605Y388853D01*
X940604Y388858D01*
X940608Y388860D01*
X940607Y388861D01*
X940609Y388862D01*
X940956Y389991D01*
X940956Y389992D01*
X940957Y389993D01*
X940954Y389997D01*
X940958Y390000D01*
X941079Y391175D01*
X941075Y391182D01*
X941079Y391186D01*
X940922Y392526D01*
X940917Y392532D01*
X940920Y392537D01*
X940469Y393808D01*
X940462Y393813D01*
X940464Y393818D01*
X939742Y394957D01*
X939734Y394960D01*
X939735Y394966D01*
X938777Y395916D01*
X938769Y395917D01*
X938768Y395923D01*
X937623Y396636D01*
X937615Y396635D01*
X937613Y396641D01*
X936337Y397081D01*
X936330Y397079D01*
X936327Y397083D01*
X934985Y397229D01*
X934982Y397227D01*
X934980Y397229D01*
X928980Y397229D01*
X928977Y397227D01*
X928974Y397229D01*
X927645Y397074D01*
X927639Y397068D01*
X927635Y397071D01*
X926374Y396624D01*
X926369Y396617D01*
X926364Y396619D01*
X925234Y395902D01*
X925231Y395895D01*
X925225Y395896D01*
X924283Y394946D01*
X924282Y394937D01*
X924276Y394937D01*
X923569Y393801D01*
X923570Y393793D01*
X923564Y393791D01*
X923128Y392526D01*
X923130Y392518D01*
X923125Y392516D01*
X922981Y391185D01*
X922985Y391179D01*
X922981Y391175D01*
X923091Y390009D01*
X923096Y390004D01*
X923093Y390000D01*
X923428Y388877D01*
X923434Y388873D01*
X923432Y388869D01*
X923980Y387833D01*
X923986Y387830D01*
X923985Y387825D01*
X924724Y386917D01*
X924731Y386915D01*
X924731Y386910D01*
X925633Y386163D01*
X925641Y386163D01*
X925641Y386158D01*
X926672Y385601D01*
X926679Y385602D01*
X926681Y385597D01*
X927800Y385253D01*
X927807Y385255D01*
X927810Y385251D01*
X928975Y385131D01*
X928978Y385133D01*
X928980Y385131D01*
X934980Y385131D01*
X934983Y385133D01*
G37*
G36*
X15503Y1086173D02*
X15503Y1086173D01*
X15505Y1086171D01*
X16681Y1086282D01*
X16686Y1086287D01*
X16690Y1086284D01*
X17822Y1086622D01*
X17826Y1086628D01*
X17831Y1086626D01*
X18875Y1087178D01*
X18878Y1087185D01*
X18883Y1087183D01*
X19799Y1087929D01*
X19800Y1087936D01*
X19806Y1087936D01*
X20559Y1088846D01*
X20559Y1088853D01*
X20564Y1088854D01*
X21125Y1089893D01*
X21124Y1089898D01*
X21128Y1089900D01*
X21127Y1089901D01*
X21129Y1089902D01*
X21476Y1091031D01*
X21476Y1091032D01*
X21477Y1091033D01*
X21474Y1091037D01*
X21478Y1091040D01*
X21599Y1092215D01*
X21595Y1092222D01*
X21599Y1092226D01*
X21442Y1093566D01*
X21437Y1093572D01*
X21440Y1093577D01*
X20989Y1094848D01*
X20982Y1094853D01*
X20984Y1094858D01*
X20262Y1095997D01*
X20254Y1096000D01*
X20255Y1096006D01*
X19297Y1096956D01*
X19289Y1096957D01*
X19288Y1096963D01*
X18143Y1097676D01*
X18135Y1097675D01*
X18133Y1097681D01*
X16857Y1098121D01*
X16850Y1098119D01*
X16847Y1098123D01*
X15505Y1098269D01*
X15502Y1098267D01*
X15500Y1098269D01*
X9500Y1098269D01*
X9497Y1098267D01*
X9494Y1098269D01*
X8165Y1098114D01*
X8159Y1098108D01*
X8155Y1098111D01*
X6894Y1097664D01*
X6889Y1097657D01*
X6884Y1097659D01*
X5754Y1096942D01*
X5751Y1096935D01*
X5745Y1096936D01*
X4803Y1095986D01*
X4802Y1095977D01*
X4796Y1095977D01*
X4089Y1094841D01*
X4090Y1094833D01*
X4084Y1094831D01*
X3648Y1093566D01*
X3650Y1093558D01*
X3645Y1093556D01*
X3501Y1092225D01*
X3505Y1092219D01*
X3501Y1092215D01*
X3611Y1091049D01*
X3616Y1091044D01*
X3613Y1091040D01*
X3948Y1089917D01*
X3954Y1089913D01*
X3952Y1089909D01*
X4500Y1088873D01*
X4506Y1088870D01*
X4505Y1088865D01*
X5244Y1087957D01*
X5251Y1087955D01*
X5251Y1087950D01*
X6153Y1087203D01*
X6161Y1087203D01*
X6161Y1087198D01*
X7192Y1086641D01*
X7199Y1086642D01*
X7201Y1086637D01*
X8320Y1086293D01*
X8327Y1086295D01*
X8330Y1086291D01*
X9495Y1086171D01*
X9498Y1086173D01*
X9500Y1086171D01*
X15500Y1086171D01*
X15503Y1086173D01*
G37*
G36*
X934983Y298733D02*
X934983Y298733D01*
X934985Y298731D01*
X936161Y298842D01*
X936166Y298847D01*
X936170Y298844D01*
X937302Y299182D01*
X937306Y299188D01*
X937311Y299186D01*
X938355Y299738D01*
X938358Y299745D01*
X938363Y299743D01*
X939279Y300489D01*
X939280Y300496D01*
X939286Y300496D01*
X940039Y301406D01*
X940039Y301413D01*
X940044Y301414D01*
X940605Y302453D01*
X940604Y302458D01*
X940608Y302460D01*
X940607Y302461D01*
X940609Y302462D01*
X940956Y303591D01*
X940956Y303592D01*
X940957Y303593D01*
X940954Y303597D01*
X940958Y303600D01*
X941079Y304775D01*
X941075Y304782D01*
X941079Y304786D01*
X940922Y306126D01*
X940917Y306132D01*
X940920Y306137D01*
X940469Y307408D01*
X940462Y307413D01*
X940464Y307418D01*
X939742Y308557D01*
X939734Y308560D01*
X939735Y308566D01*
X938777Y309516D01*
X938769Y309517D01*
X938768Y309523D01*
X937623Y310236D01*
X937615Y310235D01*
X937613Y310241D01*
X936337Y310681D01*
X936330Y310679D01*
X936327Y310683D01*
X934985Y310829D01*
X934982Y310827D01*
X934980Y310829D01*
X928980Y310829D01*
X928977Y310827D01*
X928974Y310829D01*
X927645Y310674D01*
X927639Y310668D01*
X927635Y310671D01*
X926374Y310224D01*
X926369Y310217D01*
X926364Y310219D01*
X925234Y309502D01*
X925231Y309495D01*
X925225Y309496D01*
X924283Y308546D01*
X924282Y308537D01*
X924276Y308537D01*
X923569Y307401D01*
X923570Y307393D01*
X923564Y307391D01*
X923128Y306126D01*
X923130Y306118D01*
X923125Y306116D01*
X922981Y304785D01*
X922985Y304779D01*
X922981Y304775D01*
X923091Y303609D01*
X923096Y303604D01*
X923093Y303600D01*
X923428Y302477D01*
X923434Y302473D01*
X923432Y302469D01*
X923980Y301433D01*
X923986Y301430D01*
X923985Y301425D01*
X924724Y300517D01*
X924731Y300515D01*
X924731Y300510D01*
X925633Y299763D01*
X925641Y299763D01*
X925641Y299758D01*
X926672Y299201D01*
X926679Y299202D01*
X926681Y299197D01*
X927800Y298853D01*
X927807Y298855D01*
X927810Y298851D01*
X928975Y298731D01*
X928978Y298733D01*
X928980Y298731D01*
X934980Y298731D01*
X934983Y298733D01*
G37*
G36*
X934983Y1086173D02*
X934983Y1086173D01*
X934985Y1086171D01*
X936161Y1086282D01*
X936166Y1086287D01*
X936170Y1086284D01*
X937302Y1086622D01*
X937306Y1086628D01*
X937311Y1086626D01*
X938355Y1087178D01*
X938358Y1087185D01*
X938363Y1087183D01*
X939279Y1087929D01*
X939280Y1087936D01*
X939286Y1087936D01*
X940039Y1088846D01*
X940039Y1088853D01*
X940044Y1088854D01*
X940605Y1089893D01*
X940604Y1089898D01*
X940608Y1089900D01*
X940607Y1089901D01*
X940609Y1089902D01*
X940956Y1091031D01*
X940956Y1091032D01*
X940957Y1091033D01*
X940954Y1091037D01*
X940958Y1091040D01*
X941079Y1092215D01*
X941075Y1092222D01*
X941079Y1092226D01*
X940922Y1093566D01*
X940917Y1093572D01*
X940920Y1093577D01*
X940469Y1094848D01*
X940462Y1094853D01*
X940464Y1094858D01*
X939742Y1095997D01*
X939734Y1096000D01*
X939735Y1096006D01*
X938777Y1096956D01*
X938769Y1096957D01*
X938768Y1096963D01*
X937623Y1097676D01*
X937615Y1097675D01*
X937613Y1097681D01*
X936337Y1098121D01*
X936330Y1098119D01*
X936327Y1098123D01*
X934985Y1098269D01*
X934982Y1098267D01*
X934980Y1098269D01*
X928980Y1098269D01*
X928977Y1098267D01*
X928974Y1098269D01*
X927645Y1098114D01*
X927639Y1098108D01*
X927635Y1098111D01*
X926374Y1097664D01*
X926369Y1097657D01*
X926364Y1097659D01*
X925234Y1096942D01*
X925231Y1096935D01*
X925225Y1096936D01*
X924283Y1095986D01*
X924282Y1095977D01*
X924276Y1095977D01*
X923569Y1094841D01*
X923570Y1094833D01*
X923564Y1094831D01*
X923128Y1093566D01*
X923130Y1093558D01*
X923125Y1093556D01*
X922981Y1092225D01*
X922985Y1092219D01*
X922981Y1092215D01*
X923091Y1091049D01*
X923096Y1091044D01*
X923093Y1091040D01*
X923428Y1089917D01*
X923434Y1089913D01*
X923432Y1089909D01*
X923980Y1088873D01*
X923986Y1088870D01*
X923985Y1088865D01*
X924724Y1087957D01*
X924731Y1087955D01*
X924731Y1087950D01*
X925633Y1087203D01*
X925641Y1087203D01*
X925641Y1087198D01*
X926672Y1086641D01*
X926679Y1086642D01*
X926681Y1086637D01*
X927800Y1086293D01*
X927807Y1086295D01*
X927810Y1086291D01*
X928975Y1086171D01*
X928978Y1086173D01*
X928980Y1086171D01*
X934980Y1086171D01*
X934983Y1086173D01*
G37*
G36*
X934983Y999773D02*
X934983Y999773D01*
X934985Y999771D01*
X936161Y999882D01*
X936166Y999887D01*
X936170Y999884D01*
X937302Y1000222D01*
X937306Y1000228D01*
X937311Y1000226D01*
X938355Y1000778D01*
X938358Y1000785D01*
X938363Y1000783D01*
X939279Y1001529D01*
X939280Y1001536D01*
X939286Y1001536D01*
X940039Y1002446D01*
X940039Y1002453D01*
X940044Y1002454D01*
X940605Y1003493D01*
X940604Y1003498D01*
X940608Y1003500D01*
X940607Y1003501D01*
X940609Y1003502D01*
X940956Y1004631D01*
X940956Y1004632D01*
X940957Y1004633D01*
X940954Y1004637D01*
X940958Y1004640D01*
X941079Y1005815D01*
X941075Y1005822D01*
X941079Y1005826D01*
X940922Y1007166D01*
X940917Y1007172D01*
X940920Y1007177D01*
X940469Y1008448D01*
X940462Y1008453D01*
X940464Y1008458D01*
X939742Y1009597D01*
X939734Y1009600D01*
X939735Y1009606D01*
X938777Y1010556D01*
X938769Y1010557D01*
X938768Y1010563D01*
X937623Y1011276D01*
X937615Y1011275D01*
X937613Y1011281D01*
X936337Y1011721D01*
X936330Y1011719D01*
X936327Y1011723D01*
X934985Y1011869D01*
X934982Y1011867D01*
X934980Y1011869D01*
X928980Y1011869D01*
X928977Y1011867D01*
X928974Y1011869D01*
X927645Y1011714D01*
X927639Y1011708D01*
X927635Y1011711D01*
X926374Y1011264D01*
X926369Y1011257D01*
X926364Y1011259D01*
X925234Y1010542D01*
X925231Y1010535D01*
X925225Y1010536D01*
X924283Y1009586D01*
X924282Y1009577D01*
X924276Y1009577D01*
X923569Y1008441D01*
X923570Y1008433D01*
X923564Y1008431D01*
X923128Y1007166D01*
X923130Y1007158D01*
X923125Y1007156D01*
X922981Y1005825D01*
X922985Y1005819D01*
X922981Y1005815D01*
X923091Y1004649D01*
X923096Y1004644D01*
X923093Y1004640D01*
X923428Y1003517D01*
X923434Y1003513D01*
X923432Y1003509D01*
X923980Y1002473D01*
X923986Y1002470D01*
X923985Y1002465D01*
X924724Y1001557D01*
X924731Y1001555D01*
X924731Y1001550D01*
X925633Y1000803D01*
X925641Y1000803D01*
X925641Y1000798D01*
X926672Y1000241D01*
X926679Y1000242D01*
X926681Y1000237D01*
X927800Y999893D01*
X927807Y999895D01*
X927810Y999891D01*
X928975Y999771D01*
X928978Y999773D01*
X928980Y999771D01*
X934980Y999771D01*
X934983Y999773D01*
G37*
G36*
X934983Y151453D02*
X934983Y151453D01*
X934985Y151451D01*
X936161Y151562D01*
X936166Y151567D01*
X936170Y151564D01*
X937302Y151902D01*
X937306Y151908D01*
X937311Y151906D01*
X938355Y152458D01*
X938358Y152465D01*
X938363Y152463D01*
X939279Y153209D01*
X939280Y153216D01*
X939286Y153216D01*
X940039Y154126D01*
X940039Y154133D01*
X940044Y154134D01*
X940605Y155173D01*
X940604Y155178D01*
X940608Y155180D01*
X940607Y155181D01*
X940609Y155182D01*
X940956Y156311D01*
X940956Y156312D01*
X940957Y156313D01*
X940954Y156317D01*
X940958Y156320D01*
X941079Y157495D01*
X941075Y157502D01*
X941079Y157506D01*
X940922Y158846D01*
X940917Y158852D01*
X940920Y158857D01*
X940469Y160128D01*
X940462Y160133D01*
X940464Y160138D01*
X939742Y161277D01*
X939734Y161280D01*
X939735Y161286D01*
X938777Y162236D01*
X938769Y162237D01*
X938768Y162243D01*
X937623Y162956D01*
X937615Y162955D01*
X937613Y162961D01*
X936337Y163401D01*
X936330Y163399D01*
X936327Y163403D01*
X934985Y163549D01*
X934982Y163547D01*
X934980Y163549D01*
X928980Y163549D01*
X928977Y163547D01*
X928974Y163549D01*
X927645Y163394D01*
X927639Y163388D01*
X927635Y163391D01*
X926374Y162944D01*
X926369Y162937D01*
X926364Y162939D01*
X925234Y162222D01*
X925231Y162215D01*
X925225Y162216D01*
X924283Y161266D01*
X924282Y161257D01*
X924276Y161257D01*
X923569Y160121D01*
X923570Y160113D01*
X923564Y160111D01*
X923128Y158846D01*
X923130Y158838D01*
X923125Y158836D01*
X922981Y157505D01*
X922985Y157499D01*
X922981Y157495D01*
X923091Y156329D01*
X923096Y156324D01*
X923093Y156320D01*
X923428Y155197D01*
X923434Y155193D01*
X923432Y155189D01*
X923980Y154153D01*
X923986Y154150D01*
X923985Y154145D01*
X924724Y153237D01*
X924731Y153235D01*
X924731Y153230D01*
X925633Y152483D01*
X925641Y152483D01*
X925641Y152478D01*
X926672Y151921D01*
X926679Y151922D01*
X926681Y151917D01*
X927800Y151573D01*
X927807Y151575D01*
X927810Y151571D01*
X928975Y151451D01*
X928978Y151453D01*
X928980Y151451D01*
X934980Y151451D01*
X934983Y151453D01*
G37*
G36*
X15503Y151453D02*
X15503Y151453D01*
X15505Y151451D01*
X16681Y151562D01*
X16686Y151567D01*
X16690Y151564D01*
X17822Y151902D01*
X17826Y151908D01*
X17831Y151906D01*
X18875Y152458D01*
X18878Y152465D01*
X18883Y152463D01*
X19799Y153209D01*
X19800Y153216D01*
X19806Y153216D01*
X20559Y154126D01*
X20559Y154133D01*
X20564Y154134D01*
X21125Y155173D01*
X21124Y155178D01*
X21128Y155180D01*
X21127Y155181D01*
X21129Y155182D01*
X21476Y156311D01*
X21476Y156312D01*
X21477Y156313D01*
X21474Y156317D01*
X21478Y156320D01*
X21599Y157495D01*
X21595Y157502D01*
X21599Y157506D01*
X21442Y158846D01*
X21437Y158852D01*
X21440Y158857D01*
X20989Y160128D01*
X20982Y160133D01*
X20984Y160138D01*
X20262Y161277D01*
X20254Y161280D01*
X20255Y161286D01*
X19297Y162236D01*
X19289Y162237D01*
X19288Y162243D01*
X18143Y162956D01*
X18135Y162955D01*
X18133Y162961D01*
X16857Y163401D01*
X16850Y163399D01*
X16847Y163403D01*
X15505Y163549D01*
X15502Y163547D01*
X15500Y163549D01*
X9500Y163549D01*
X9497Y163547D01*
X9494Y163549D01*
X8165Y163394D01*
X8159Y163388D01*
X8155Y163391D01*
X6894Y162944D01*
X6889Y162937D01*
X6884Y162939D01*
X5754Y162222D01*
X5751Y162215D01*
X5745Y162216D01*
X4803Y161266D01*
X4802Y161257D01*
X4796Y161257D01*
X4089Y160121D01*
X4090Y160113D01*
X4084Y160111D01*
X3648Y158846D01*
X3650Y158838D01*
X3645Y158836D01*
X3501Y157505D01*
X3505Y157499D01*
X3501Y157495D01*
X3611Y156329D01*
X3616Y156324D01*
X3613Y156320D01*
X3948Y155197D01*
X3954Y155193D01*
X3952Y155189D01*
X4500Y154153D01*
X4506Y154150D01*
X4505Y154145D01*
X5244Y153237D01*
X5251Y153235D01*
X5251Y153230D01*
X6153Y152483D01*
X6161Y152483D01*
X6161Y152478D01*
X7192Y151921D01*
X7199Y151922D01*
X7201Y151917D01*
X8320Y151573D01*
X8327Y151575D01*
X8330Y151571D01*
X9495Y151451D01*
X9498Y151453D01*
X9500Y151451D01*
X15500Y151451D01*
X15503Y151453D01*
G37*
G36*
X15503Y298733D02*
X15503Y298733D01*
X15505Y298731D01*
X16681Y298842D01*
X16686Y298847D01*
X16690Y298844D01*
X17822Y299182D01*
X17826Y299188D01*
X17831Y299186D01*
X18875Y299738D01*
X18878Y299745D01*
X18883Y299743D01*
X19799Y300489D01*
X19800Y300496D01*
X19806Y300496D01*
X20559Y301406D01*
X20559Y301413D01*
X20564Y301414D01*
X21125Y302453D01*
X21124Y302458D01*
X21128Y302460D01*
X21127Y302461D01*
X21129Y302462D01*
X21476Y303591D01*
X21476Y303592D01*
X21477Y303593D01*
X21474Y303597D01*
X21478Y303600D01*
X21599Y304775D01*
X21595Y304782D01*
X21599Y304786D01*
X21442Y306126D01*
X21437Y306132D01*
X21440Y306137D01*
X20989Y307408D01*
X20982Y307413D01*
X20984Y307418D01*
X20262Y308557D01*
X20254Y308560D01*
X20255Y308566D01*
X19297Y309516D01*
X19289Y309517D01*
X19288Y309523D01*
X18143Y310236D01*
X18135Y310235D01*
X18133Y310241D01*
X16857Y310681D01*
X16850Y310679D01*
X16847Y310683D01*
X15505Y310829D01*
X15502Y310827D01*
X15500Y310829D01*
X9500Y310829D01*
X9497Y310827D01*
X9494Y310829D01*
X8165Y310674D01*
X8159Y310668D01*
X8155Y310671D01*
X6894Y310224D01*
X6889Y310217D01*
X6884Y310219D01*
X5754Y309502D01*
X5751Y309495D01*
X5745Y309496D01*
X4803Y308546D01*
X4802Y308537D01*
X4796Y308537D01*
X4089Y307401D01*
X4090Y307393D01*
X4084Y307391D01*
X3648Y306126D01*
X3650Y306118D01*
X3645Y306116D01*
X3501Y304785D01*
X3505Y304779D01*
X3501Y304775D01*
X3611Y303609D01*
X3616Y303604D01*
X3613Y303600D01*
X3948Y302477D01*
X3954Y302473D01*
X3952Y302469D01*
X4500Y301433D01*
X4506Y301430D01*
X4505Y301425D01*
X5244Y300517D01*
X5251Y300515D01*
X5251Y300510D01*
X6153Y299763D01*
X6161Y299763D01*
X6161Y299758D01*
X7192Y299201D01*
X7199Y299202D01*
X7201Y299197D01*
X8320Y298853D01*
X8327Y298855D01*
X8330Y298851D01*
X9495Y298731D01*
X9498Y298733D01*
X9500Y298731D01*
X15500Y298731D01*
X15503Y298733D01*
G37*
G36*
X15503Y999773D02*
X15503Y999773D01*
X15505Y999771D01*
X16681Y999882D01*
X16686Y999887D01*
X16690Y999884D01*
X17822Y1000222D01*
X17826Y1000228D01*
X17831Y1000226D01*
X18875Y1000778D01*
X18878Y1000785D01*
X18883Y1000783D01*
X19799Y1001529D01*
X19800Y1001536D01*
X19806Y1001536D01*
X20559Y1002446D01*
X20559Y1002453D01*
X20564Y1002454D01*
X21125Y1003493D01*
X21124Y1003498D01*
X21128Y1003500D01*
X21127Y1003501D01*
X21129Y1003502D01*
X21476Y1004631D01*
X21476Y1004632D01*
X21477Y1004633D01*
X21474Y1004637D01*
X21478Y1004640D01*
X21599Y1005815D01*
X21595Y1005822D01*
X21599Y1005826D01*
X21442Y1007166D01*
X21437Y1007172D01*
X21440Y1007177D01*
X20989Y1008448D01*
X20982Y1008453D01*
X20984Y1008458D01*
X20262Y1009597D01*
X20254Y1009600D01*
X20255Y1009606D01*
X19297Y1010556D01*
X19289Y1010557D01*
X19288Y1010563D01*
X18143Y1011276D01*
X18135Y1011275D01*
X18133Y1011281D01*
X16857Y1011721D01*
X16850Y1011719D01*
X16847Y1011723D01*
X15505Y1011869D01*
X15502Y1011867D01*
X15500Y1011869D01*
X9500Y1011869D01*
X9497Y1011867D01*
X9494Y1011869D01*
X8165Y1011714D01*
X8159Y1011708D01*
X8155Y1011711D01*
X6894Y1011264D01*
X6889Y1011257D01*
X6884Y1011259D01*
X5754Y1010542D01*
X5751Y1010535D01*
X5745Y1010536D01*
X4803Y1009586D01*
X4802Y1009577D01*
X4796Y1009577D01*
X4089Y1008441D01*
X4090Y1008433D01*
X4084Y1008431D01*
X3648Y1007166D01*
X3650Y1007158D01*
X3645Y1007156D01*
X3501Y1005825D01*
X3505Y1005819D01*
X3501Y1005815D01*
X3611Y1004649D01*
X3616Y1004644D01*
X3613Y1004640D01*
X3948Y1003517D01*
X3954Y1003513D01*
X3952Y1003509D01*
X4500Y1002473D01*
X4506Y1002470D01*
X4505Y1002465D01*
X5244Y1001557D01*
X5251Y1001555D01*
X5251Y1001550D01*
X6153Y1000803D01*
X6161Y1000803D01*
X6161Y1000798D01*
X7192Y1000241D01*
X7199Y1000242D01*
X7201Y1000237D01*
X8320Y999893D01*
X8327Y999895D01*
X8330Y999891D01*
X9495Y999771D01*
X9498Y999773D01*
X9500Y999771D01*
X15500Y999771D01*
X15503Y999773D01*
G37*
G36*
X15503Y852493D02*
X15503Y852493D01*
X15505Y852491D01*
X16681Y852602D01*
X16686Y852607D01*
X16690Y852604D01*
X17822Y852942D01*
X17826Y852948D01*
X17831Y852946D01*
X18875Y853498D01*
X18878Y853505D01*
X18883Y853503D01*
X19799Y854249D01*
X19800Y854256D01*
X19806Y854256D01*
X20559Y855166D01*
X20559Y855173D01*
X20564Y855174D01*
X21125Y856213D01*
X21124Y856218D01*
X21128Y856220D01*
X21127Y856221D01*
X21129Y856222D01*
X21476Y857351D01*
X21476Y857352D01*
X21477Y857353D01*
X21474Y857357D01*
X21478Y857360D01*
X21599Y858535D01*
X21595Y858542D01*
X21599Y858546D01*
X21442Y859886D01*
X21437Y859892D01*
X21440Y859897D01*
X20989Y861168D01*
X20982Y861173D01*
X20984Y861178D01*
X20262Y862317D01*
X20254Y862320D01*
X20255Y862326D01*
X19297Y863276D01*
X19289Y863277D01*
X19288Y863283D01*
X18143Y863996D01*
X18135Y863995D01*
X18133Y864001D01*
X16857Y864441D01*
X16850Y864439D01*
X16847Y864443D01*
X15505Y864589D01*
X15502Y864587D01*
X15500Y864589D01*
X9500Y864589D01*
X9497Y864587D01*
X9494Y864589D01*
X8165Y864434D01*
X8159Y864428D01*
X8155Y864431D01*
X6894Y863984D01*
X6889Y863977D01*
X6884Y863979D01*
X5754Y863262D01*
X5751Y863255D01*
X5745Y863256D01*
X4803Y862306D01*
X4802Y862297D01*
X4796Y862297D01*
X4089Y861161D01*
X4090Y861153D01*
X4084Y861151D01*
X3648Y859886D01*
X3650Y859878D01*
X3645Y859876D01*
X3501Y858545D01*
X3505Y858539D01*
X3501Y858535D01*
X3611Y857369D01*
X3616Y857364D01*
X3613Y857360D01*
X3948Y856237D01*
X3954Y856233D01*
X3952Y856229D01*
X4500Y855193D01*
X4506Y855190D01*
X4505Y855185D01*
X5244Y854277D01*
X5251Y854275D01*
X5251Y854270D01*
X6153Y853523D01*
X6161Y853523D01*
X6161Y853518D01*
X7192Y852961D01*
X7199Y852962D01*
X7201Y852957D01*
X8320Y852613D01*
X8327Y852615D01*
X8330Y852611D01*
X9495Y852491D01*
X9498Y852493D01*
X9500Y852491D01*
X15500Y852491D01*
X15503Y852493D01*
G37*
G36*
X934983Y65053D02*
X934983Y65053D01*
X934985Y65051D01*
X936161Y65162D01*
X936166Y65167D01*
X936170Y65164D01*
X937302Y65502D01*
X937306Y65508D01*
X937311Y65506D01*
X938355Y66058D01*
X938358Y66065D01*
X938363Y66063D01*
X939279Y66809D01*
X939280Y66816D01*
X939286Y66816D01*
X940039Y67726D01*
X940039Y67733D01*
X940044Y67734D01*
X940605Y68773D01*
X940604Y68778D01*
X940608Y68780D01*
X940607Y68781D01*
X940609Y68782D01*
X940956Y69911D01*
X940956Y69912D01*
X940957Y69913D01*
X940954Y69917D01*
X940958Y69920D01*
X941079Y71095D01*
X941075Y71102D01*
X941079Y71106D01*
X940922Y72446D01*
X940917Y72452D01*
X940920Y72457D01*
X940469Y73728D01*
X940462Y73733D01*
X940464Y73738D01*
X939742Y74877D01*
X939734Y74880D01*
X939735Y74886D01*
X938777Y75836D01*
X938769Y75837D01*
X938768Y75843D01*
X937623Y76556D01*
X937615Y76555D01*
X937613Y76561D01*
X936337Y77001D01*
X936330Y76999D01*
X936327Y77003D01*
X934985Y77149D01*
X934982Y77147D01*
X934980Y77149D01*
X928980Y77149D01*
X928977Y77147D01*
X928974Y77149D01*
X927645Y76994D01*
X927639Y76988D01*
X927635Y76991D01*
X926374Y76544D01*
X926369Y76537D01*
X926364Y76539D01*
X925234Y75822D01*
X925231Y75815D01*
X925225Y75816D01*
X924283Y74866D01*
X924282Y74857D01*
X924276Y74857D01*
X923569Y73721D01*
X923570Y73713D01*
X923564Y73711D01*
X923128Y72446D01*
X923130Y72438D01*
X923125Y72436D01*
X922981Y71105D01*
X922985Y71099D01*
X922981Y71095D01*
X923091Y69929D01*
X923096Y69924D01*
X923093Y69920D01*
X923428Y68797D01*
X923434Y68793D01*
X923432Y68789D01*
X923980Y67753D01*
X923986Y67750D01*
X923985Y67745D01*
X924724Y66837D01*
X924731Y66835D01*
X924731Y66830D01*
X925633Y66083D01*
X925641Y66083D01*
X925641Y66078D01*
X926672Y65521D01*
X926679Y65522D01*
X926681Y65517D01*
X927800Y65173D01*
X927807Y65175D01*
X927810Y65171D01*
X928975Y65051D01*
X928978Y65053D01*
X928980Y65051D01*
X934980Y65051D01*
X934983Y65053D01*
G37*
G36*
X15503Y65053D02*
X15503Y65053D01*
X15505Y65051D01*
X16681Y65162D01*
X16686Y65167D01*
X16690Y65164D01*
X17822Y65502D01*
X17826Y65508D01*
X17831Y65506D01*
X18875Y66058D01*
X18878Y66065D01*
X18883Y66063D01*
X19799Y66809D01*
X19800Y66816D01*
X19806Y66816D01*
X20559Y67726D01*
X20559Y67733D01*
X20564Y67734D01*
X21125Y68773D01*
X21124Y68778D01*
X21128Y68780D01*
X21127Y68781D01*
X21129Y68782D01*
X21476Y69911D01*
X21476Y69912D01*
X21477Y69913D01*
X21474Y69917D01*
X21478Y69920D01*
X21599Y71095D01*
X21595Y71102D01*
X21599Y71106D01*
X21442Y72446D01*
X21437Y72452D01*
X21440Y72457D01*
X20989Y73728D01*
X20982Y73733D01*
X20984Y73738D01*
X20262Y74877D01*
X20254Y74880D01*
X20255Y74886D01*
X19297Y75836D01*
X19289Y75837D01*
X19288Y75843D01*
X18143Y76556D01*
X18135Y76555D01*
X18133Y76561D01*
X16857Y77001D01*
X16850Y76999D01*
X16847Y77003D01*
X15505Y77149D01*
X15502Y77147D01*
X15500Y77149D01*
X9500Y77149D01*
X9497Y77147D01*
X9494Y77149D01*
X8165Y76994D01*
X8159Y76988D01*
X8155Y76991D01*
X6894Y76544D01*
X6889Y76537D01*
X6884Y76539D01*
X5754Y75822D01*
X5751Y75815D01*
X5745Y75816D01*
X4803Y74866D01*
X4802Y74857D01*
X4796Y74857D01*
X4089Y73721D01*
X4090Y73713D01*
X4084Y73711D01*
X3648Y72446D01*
X3650Y72438D01*
X3645Y72436D01*
X3501Y71105D01*
X3505Y71099D01*
X3501Y71095D01*
X3611Y69929D01*
X3616Y69924D01*
X3613Y69920D01*
X3948Y68797D01*
X3954Y68793D01*
X3952Y68789D01*
X4500Y67753D01*
X4506Y67750D01*
X4505Y67745D01*
X5244Y66837D01*
X5251Y66835D01*
X5251Y66830D01*
X6153Y66083D01*
X6161Y66083D01*
X6161Y66078D01*
X7192Y65521D01*
X7199Y65522D01*
X7201Y65517D01*
X8320Y65173D01*
X8327Y65175D01*
X8330Y65171D01*
X9495Y65051D01*
X9498Y65053D01*
X9500Y65051D01*
X15500Y65051D01*
X15503Y65053D01*
G37*
G36*
X151830Y568083D02*
X151830Y568083D01*
X151896Y568085D01*
X151939Y568103D01*
X151986Y568111D01*
X152043Y568145D01*
X152103Y568170D01*
X152138Y568201D01*
X152179Y568226D01*
X152221Y568277D01*
X152269Y568321D01*
X152291Y568363D01*
X152320Y568400D01*
X152341Y568462D01*
X152372Y568521D01*
X152380Y568575D01*
X152392Y568612D01*
X152391Y568652D01*
X152399Y568706D01*
X152399Y574294D01*
X152388Y574359D01*
X152386Y574425D01*
X152368Y574468D01*
X152360Y574515D01*
X152326Y574572D01*
X152301Y574632D01*
X152270Y574667D01*
X152245Y574708D01*
X152194Y574750D01*
X152150Y574798D01*
X152108Y574820D01*
X152071Y574849D01*
X152009Y574870D01*
X151950Y574901D01*
X151896Y574909D01*
X151859Y574921D01*
X151819Y574920D01*
X151765Y574928D01*
X147955Y574928D01*
X147890Y574917D01*
X147824Y574915D01*
X147781Y574897D01*
X147734Y574889D01*
X147677Y574855D01*
X147617Y574830D01*
X147582Y574799D01*
X147541Y574774D01*
X147500Y574723D01*
X147451Y574679D01*
X147429Y574637D01*
X147400Y574600D01*
X147379Y574538D01*
X147348Y574479D01*
X147340Y574425D01*
X147328Y574388D01*
X147329Y574348D01*
X147321Y574294D01*
X147321Y568706D01*
X147332Y568641D01*
X147334Y568575D01*
X147352Y568532D01*
X147360Y568485D01*
X147394Y568428D01*
X147419Y568368D01*
X147450Y568333D01*
X147475Y568292D01*
X147526Y568251D01*
X147570Y568202D01*
X147612Y568180D01*
X147649Y568151D01*
X147711Y568130D01*
X147770Y568099D01*
X147824Y568091D01*
X147861Y568079D01*
X147901Y568080D01*
X147955Y568072D01*
X151765Y568072D01*
X151830Y568083D01*
G37*
G36*
X151830Y1035443D02*
X151830Y1035443D01*
X151896Y1035445D01*
X151939Y1035463D01*
X151986Y1035471D01*
X152043Y1035505D01*
X152103Y1035530D01*
X152138Y1035561D01*
X152179Y1035586D01*
X152221Y1035637D01*
X152269Y1035681D01*
X152291Y1035723D01*
X152320Y1035760D01*
X152341Y1035822D01*
X152372Y1035881D01*
X152380Y1035935D01*
X152392Y1035972D01*
X152391Y1036012D01*
X152399Y1036066D01*
X152399Y1041654D01*
X152388Y1041719D01*
X152386Y1041785D01*
X152368Y1041828D01*
X152360Y1041875D01*
X152326Y1041932D01*
X152301Y1041992D01*
X152270Y1042027D01*
X152245Y1042068D01*
X152194Y1042110D01*
X152150Y1042158D01*
X152108Y1042180D01*
X152071Y1042209D01*
X152009Y1042230D01*
X151950Y1042261D01*
X151896Y1042269D01*
X151859Y1042281D01*
X151819Y1042280D01*
X151765Y1042288D01*
X147955Y1042288D01*
X147890Y1042277D01*
X147824Y1042275D01*
X147781Y1042257D01*
X147734Y1042249D01*
X147677Y1042215D01*
X147617Y1042190D01*
X147582Y1042159D01*
X147541Y1042134D01*
X147500Y1042083D01*
X147451Y1042039D01*
X147429Y1041997D01*
X147400Y1041960D01*
X147379Y1041898D01*
X147348Y1041839D01*
X147340Y1041785D01*
X147328Y1041748D01*
X147329Y1041708D01*
X147321Y1041654D01*
X147321Y1036066D01*
X147332Y1036001D01*
X147334Y1035935D01*
X147352Y1035892D01*
X147360Y1035845D01*
X147394Y1035788D01*
X147419Y1035728D01*
X147450Y1035693D01*
X147475Y1035652D01*
X147526Y1035611D01*
X147570Y1035562D01*
X147612Y1035540D01*
X147649Y1035511D01*
X147711Y1035490D01*
X147770Y1035459D01*
X147824Y1035451D01*
X147861Y1035439D01*
X147901Y1035440D01*
X147955Y1035432D01*
X151765Y1035432D01*
X151830Y1035443D01*
G37*
G36*
X151830Y334403D02*
X151830Y334403D01*
X151896Y334405D01*
X151939Y334423D01*
X151986Y334431D01*
X152043Y334465D01*
X152103Y334490D01*
X152138Y334521D01*
X152179Y334546D01*
X152221Y334597D01*
X152269Y334641D01*
X152291Y334683D01*
X152320Y334720D01*
X152341Y334782D01*
X152372Y334841D01*
X152380Y334895D01*
X152392Y334932D01*
X152391Y334972D01*
X152399Y335026D01*
X152399Y340614D01*
X152388Y340679D01*
X152386Y340745D01*
X152368Y340788D01*
X152360Y340835D01*
X152326Y340892D01*
X152301Y340952D01*
X152270Y340987D01*
X152245Y341028D01*
X152194Y341070D01*
X152150Y341118D01*
X152108Y341140D01*
X152071Y341169D01*
X152009Y341190D01*
X151950Y341221D01*
X151896Y341229D01*
X151859Y341241D01*
X151819Y341240D01*
X151765Y341248D01*
X147955Y341248D01*
X147890Y341237D01*
X147824Y341235D01*
X147781Y341217D01*
X147734Y341209D01*
X147677Y341175D01*
X147617Y341150D01*
X147582Y341119D01*
X147541Y341094D01*
X147500Y341043D01*
X147451Y340999D01*
X147429Y340957D01*
X147400Y340920D01*
X147379Y340858D01*
X147348Y340799D01*
X147340Y340745D01*
X147328Y340708D01*
X147329Y340668D01*
X147321Y340614D01*
X147321Y335026D01*
X147332Y334961D01*
X147334Y334895D01*
X147352Y334852D01*
X147360Y334805D01*
X147394Y334748D01*
X147419Y334688D01*
X147450Y334653D01*
X147475Y334612D01*
X147526Y334571D01*
X147570Y334522D01*
X147612Y334500D01*
X147649Y334471D01*
X147711Y334450D01*
X147770Y334419D01*
X147824Y334411D01*
X147861Y334399D01*
X147901Y334400D01*
X147955Y334392D01*
X151765Y334392D01*
X151830Y334403D01*
G37*
G36*
X1071310Y334403D02*
X1071310Y334403D01*
X1071376Y334405D01*
X1071419Y334423D01*
X1071466Y334431D01*
X1071523Y334465D01*
X1071583Y334490D01*
X1071618Y334521D01*
X1071659Y334546D01*
X1071701Y334597D01*
X1071749Y334641D01*
X1071771Y334683D01*
X1071800Y334720D01*
X1071821Y334782D01*
X1071852Y334841D01*
X1071860Y334895D01*
X1071872Y334932D01*
X1071871Y334972D01*
X1071879Y335026D01*
X1071879Y340614D01*
X1071868Y340679D01*
X1071866Y340745D01*
X1071848Y340788D01*
X1071840Y340835D01*
X1071806Y340892D01*
X1071781Y340952D01*
X1071750Y340987D01*
X1071725Y341028D01*
X1071674Y341070D01*
X1071630Y341118D01*
X1071588Y341140D01*
X1071551Y341169D01*
X1071489Y341190D01*
X1071430Y341221D01*
X1071376Y341229D01*
X1071339Y341241D01*
X1071299Y341240D01*
X1071245Y341248D01*
X1067435Y341248D01*
X1067370Y341237D01*
X1067304Y341235D01*
X1067261Y341217D01*
X1067214Y341209D01*
X1067157Y341175D01*
X1067097Y341150D01*
X1067062Y341119D01*
X1067021Y341094D01*
X1066980Y341043D01*
X1066931Y340999D01*
X1066909Y340957D01*
X1066880Y340920D01*
X1066859Y340858D01*
X1066828Y340799D01*
X1066820Y340745D01*
X1066808Y340708D01*
X1066809Y340668D01*
X1066801Y340614D01*
X1066801Y335026D01*
X1066812Y334961D01*
X1066814Y334895D01*
X1066832Y334852D01*
X1066840Y334805D01*
X1066874Y334748D01*
X1066899Y334688D01*
X1066930Y334653D01*
X1066955Y334612D01*
X1067006Y334571D01*
X1067050Y334522D01*
X1067092Y334500D01*
X1067129Y334471D01*
X1067191Y334450D01*
X1067250Y334419D01*
X1067304Y334411D01*
X1067341Y334399D01*
X1067381Y334400D01*
X1067435Y334392D01*
X1071245Y334392D01*
X1071310Y334403D01*
G37*
G36*
X151830Y100723D02*
X151830Y100723D01*
X151896Y100725D01*
X151939Y100743D01*
X151986Y100751D01*
X152043Y100785D01*
X152103Y100810D01*
X152138Y100841D01*
X152179Y100866D01*
X152221Y100917D01*
X152269Y100961D01*
X152291Y101003D01*
X152320Y101040D01*
X152341Y101102D01*
X152372Y101161D01*
X152380Y101215D01*
X152392Y101252D01*
X152391Y101292D01*
X152399Y101346D01*
X152399Y106934D01*
X152388Y106999D01*
X152386Y107065D01*
X152368Y107108D01*
X152360Y107155D01*
X152326Y107212D01*
X152301Y107272D01*
X152270Y107307D01*
X152245Y107348D01*
X152194Y107390D01*
X152150Y107438D01*
X152108Y107460D01*
X152071Y107489D01*
X152009Y107510D01*
X151950Y107541D01*
X151896Y107549D01*
X151859Y107561D01*
X151819Y107560D01*
X151765Y107568D01*
X147955Y107568D01*
X147890Y107557D01*
X147824Y107555D01*
X147781Y107537D01*
X147734Y107529D01*
X147677Y107495D01*
X147617Y107470D01*
X147582Y107439D01*
X147541Y107414D01*
X147500Y107363D01*
X147451Y107319D01*
X147429Y107277D01*
X147400Y107240D01*
X147379Y107178D01*
X147348Y107119D01*
X147340Y107065D01*
X147328Y107028D01*
X147329Y106988D01*
X147321Y106934D01*
X147321Y101346D01*
X147332Y101281D01*
X147334Y101215D01*
X147352Y101172D01*
X147360Y101125D01*
X147394Y101068D01*
X147419Y101008D01*
X147450Y100973D01*
X147475Y100932D01*
X147526Y100891D01*
X147570Y100842D01*
X147612Y100820D01*
X147649Y100791D01*
X147711Y100770D01*
X147770Y100739D01*
X147824Y100731D01*
X147861Y100719D01*
X147901Y100720D01*
X147955Y100712D01*
X151765Y100712D01*
X151830Y100723D01*
G37*
G36*
X1071310Y100723D02*
X1071310Y100723D01*
X1071376Y100725D01*
X1071419Y100743D01*
X1071466Y100751D01*
X1071523Y100785D01*
X1071583Y100810D01*
X1071618Y100841D01*
X1071659Y100866D01*
X1071701Y100917D01*
X1071749Y100961D01*
X1071771Y101003D01*
X1071800Y101040D01*
X1071821Y101102D01*
X1071852Y101161D01*
X1071860Y101215D01*
X1071872Y101252D01*
X1071871Y101292D01*
X1071879Y101346D01*
X1071879Y106934D01*
X1071868Y106999D01*
X1071866Y107065D01*
X1071848Y107108D01*
X1071840Y107155D01*
X1071806Y107212D01*
X1071781Y107272D01*
X1071750Y107307D01*
X1071725Y107348D01*
X1071674Y107390D01*
X1071630Y107438D01*
X1071588Y107460D01*
X1071551Y107489D01*
X1071489Y107510D01*
X1071430Y107541D01*
X1071376Y107549D01*
X1071339Y107561D01*
X1071299Y107560D01*
X1071245Y107568D01*
X1067435Y107568D01*
X1067370Y107557D01*
X1067304Y107555D01*
X1067261Y107537D01*
X1067214Y107529D01*
X1067157Y107495D01*
X1067097Y107470D01*
X1067062Y107439D01*
X1067021Y107414D01*
X1066980Y107363D01*
X1066931Y107319D01*
X1066909Y107277D01*
X1066880Y107240D01*
X1066859Y107178D01*
X1066828Y107119D01*
X1066820Y107065D01*
X1066808Y107028D01*
X1066809Y106988D01*
X1066801Y106934D01*
X1066801Y101346D01*
X1066812Y101281D01*
X1066814Y101215D01*
X1066832Y101172D01*
X1066840Y101125D01*
X1066874Y101068D01*
X1066899Y101008D01*
X1066930Y100973D01*
X1066955Y100932D01*
X1067006Y100891D01*
X1067050Y100842D01*
X1067092Y100820D01*
X1067129Y100791D01*
X1067191Y100770D01*
X1067250Y100739D01*
X1067304Y100731D01*
X1067341Y100719D01*
X1067381Y100720D01*
X1067435Y100712D01*
X1071245Y100712D01*
X1071310Y100723D01*
G37*
G36*
X1071310Y1035443D02*
X1071310Y1035443D01*
X1071376Y1035445D01*
X1071419Y1035463D01*
X1071466Y1035471D01*
X1071523Y1035505D01*
X1071583Y1035530D01*
X1071618Y1035561D01*
X1071659Y1035586D01*
X1071701Y1035637D01*
X1071749Y1035681D01*
X1071771Y1035723D01*
X1071800Y1035760D01*
X1071821Y1035822D01*
X1071852Y1035881D01*
X1071860Y1035935D01*
X1071872Y1035972D01*
X1071871Y1036012D01*
X1071879Y1036066D01*
X1071879Y1041654D01*
X1071868Y1041719D01*
X1071866Y1041785D01*
X1071848Y1041828D01*
X1071840Y1041875D01*
X1071806Y1041932D01*
X1071781Y1041992D01*
X1071750Y1042027D01*
X1071725Y1042068D01*
X1071674Y1042110D01*
X1071630Y1042158D01*
X1071588Y1042180D01*
X1071551Y1042209D01*
X1071489Y1042230D01*
X1071430Y1042261D01*
X1071376Y1042269D01*
X1071339Y1042281D01*
X1071299Y1042280D01*
X1071245Y1042288D01*
X1067435Y1042288D01*
X1067370Y1042277D01*
X1067304Y1042275D01*
X1067261Y1042257D01*
X1067214Y1042249D01*
X1067157Y1042215D01*
X1067097Y1042190D01*
X1067062Y1042159D01*
X1067021Y1042134D01*
X1066980Y1042083D01*
X1066931Y1042039D01*
X1066909Y1041997D01*
X1066880Y1041960D01*
X1066859Y1041898D01*
X1066828Y1041839D01*
X1066820Y1041785D01*
X1066808Y1041748D01*
X1066809Y1041708D01*
X1066801Y1041654D01*
X1066801Y1036066D01*
X1066812Y1036001D01*
X1066814Y1035935D01*
X1066832Y1035892D01*
X1066840Y1035845D01*
X1066874Y1035788D01*
X1066899Y1035728D01*
X1066930Y1035693D01*
X1066955Y1035652D01*
X1067006Y1035611D01*
X1067050Y1035562D01*
X1067092Y1035540D01*
X1067129Y1035511D01*
X1067191Y1035490D01*
X1067250Y1035459D01*
X1067304Y1035451D01*
X1067341Y1035439D01*
X1067381Y1035440D01*
X1067435Y1035432D01*
X1071245Y1035432D01*
X1071310Y1035443D01*
G37*
G36*
X151830Y801763D02*
X151830Y801763D01*
X151896Y801765D01*
X151939Y801783D01*
X151986Y801791D01*
X152043Y801825D01*
X152103Y801850D01*
X152138Y801881D01*
X152179Y801906D01*
X152221Y801957D01*
X152269Y802001D01*
X152291Y802043D01*
X152320Y802080D01*
X152341Y802142D01*
X152372Y802201D01*
X152380Y802255D01*
X152392Y802292D01*
X152391Y802332D01*
X152399Y802386D01*
X152399Y807974D01*
X152388Y808039D01*
X152386Y808105D01*
X152368Y808148D01*
X152360Y808195D01*
X152326Y808252D01*
X152301Y808312D01*
X152270Y808347D01*
X152245Y808388D01*
X152194Y808430D01*
X152150Y808478D01*
X152108Y808500D01*
X152071Y808529D01*
X152009Y808550D01*
X151950Y808581D01*
X151896Y808589D01*
X151859Y808601D01*
X151819Y808600D01*
X151765Y808608D01*
X147955Y808608D01*
X147890Y808597D01*
X147824Y808595D01*
X147781Y808577D01*
X147734Y808569D01*
X147677Y808535D01*
X147617Y808510D01*
X147582Y808479D01*
X147541Y808454D01*
X147500Y808403D01*
X147451Y808359D01*
X147429Y808317D01*
X147400Y808280D01*
X147379Y808218D01*
X147348Y808159D01*
X147340Y808105D01*
X147328Y808068D01*
X147329Y808028D01*
X147321Y807974D01*
X147321Y802386D01*
X147332Y802321D01*
X147334Y802255D01*
X147352Y802212D01*
X147360Y802165D01*
X147394Y802108D01*
X147419Y802048D01*
X147450Y802013D01*
X147475Y801972D01*
X147526Y801931D01*
X147570Y801882D01*
X147612Y801860D01*
X147649Y801831D01*
X147711Y801810D01*
X147770Y801779D01*
X147824Y801771D01*
X147861Y801759D01*
X147901Y801760D01*
X147955Y801752D01*
X151765Y801752D01*
X151830Y801763D01*
G37*
G36*
X1071310Y801763D02*
X1071310Y801763D01*
X1071376Y801765D01*
X1071419Y801783D01*
X1071466Y801791D01*
X1071523Y801825D01*
X1071583Y801850D01*
X1071618Y801881D01*
X1071659Y801906D01*
X1071701Y801957D01*
X1071749Y802001D01*
X1071771Y802043D01*
X1071800Y802080D01*
X1071821Y802142D01*
X1071852Y802201D01*
X1071860Y802255D01*
X1071872Y802292D01*
X1071871Y802332D01*
X1071879Y802386D01*
X1071879Y807974D01*
X1071868Y808039D01*
X1071866Y808105D01*
X1071848Y808148D01*
X1071840Y808195D01*
X1071806Y808252D01*
X1071781Y808312D01*
X1071750Y808347D01*
X1071725Y808388D01*
X1071674Y808430D01*
X1071630Y808478D01*
X1071588Y808500D01*
X1071551Y808529D01*
X1071489Y808550D01*
X1071430Y808581D01*
X1071376Y808589D01*
X1071339Y808601D01*
X1071299Y808600D01*
X1071245Y808608D01*
X1067435Y808608D01*
X1067370Y808597D01*
X1067304Y808595D01*
X1067261Y808577D01*
X1067214Y808569D01*
X1067157Y808535D01*
X1067097Y808510D01*
X1067062Y808479D01*
X1067021Y808454D01*
X1066980Y808403D01*
X1066931Y808359D01*
X1066909Y808317D01*
X1066880Y808280D01*
X1066859Y808218D01*
X1066828Y808159D01*
X1066820Y808105D01*
X1066808Y808068D01*
X1066809Y808028D01*
X1066801Y807974D01*
X1066801Y802386D01*
X1066812Y802321D01*
X1066814Y802255D01*
X1066832Y802212D01*
X1066840Y802165D01*
X1066874Y802108D01*
X1066899Y802048D01*
X1066930Y802013D01*
X1066955Y801972D01*
X1067006Y801931D01*
X1067050Y801882D01*
X1067092Y801860D01*
X1067129Y801831D01*
X1067191Y801810D01*
X1067250Y801779D01*
X1067304Y801771D01*
X1067341Y801759D01*
X1067381Y801760D01*
X1067435Y801752D01*
X1071245Y801752D01*
X1071310Y801763D01*
G37*
G36*
X1071310Y568083D02*
X1071310Y568083D01*
X1071376Y568085D01*
X1071419Y568103D01*
X1071466Y568111D01*
X1071523Y568145D01*
X1071583Y568170D01*
X1071618Y568201D01*
X1071659Y568226D01*
X1071701Y568277D01*
X1071749Y568321D01*
X1071771Y568363D01*
X1071800Y568400D01*
X1071821Y568462D01*
X1071852Y568521D01*
X1071860Y568575D01*
X1071872Y568612D01*
X1071871Y568652D01*
X1071879Y568706D01*
X1071879Y574294D01*
X1071868Y574359D01*
X1071866Y574425D01*
X1071848Y574468D01*
X1071840Y574515D01*
X1071806Y574572D01*
X1071781Y574632D01*
X1071750Y574667D01*
X1071725Y574708D01*
X1071674Y574750D01*
X1071630Y574798D01*
X1071588Y574820D01*
X1071551Y574849D01*
X1071489Y574870D01*
X1071430Y574901D01*
X1071376Y574909D01*
X1071339Y574921D01*
X1071299Y574920D01*
X1071245Y574928D01*
X1067435Y574928D01*
X1067370Y574917D01*
X1067304Y574915D01*
X1067261Y574897D01*
X1067214Y574889D01*
X1067157Y574855D01*
X1067097Y574830D01*
X1067062Y574799D01*
X1067021Y574774D01*
X1066980Y574723D01*
X1066931Y574679D01*
X1066909Y574637D01*
X1066880Y574600D01*
X1066859Y574538D01*
X1066828Y574479D01*
X1066820Y574425D01*
X1066808Y574388D01*
X1066809Y574348D01*
X1066801Y574294D01*
X1066801Y568706D01*
X1066812Y568641D01*
X1066814Y568575D01*
X1066832Y568532D01*
X1066840Y568485D01*
X1066874Y568428D01*
X1066899Y568368D01*
X1066930Y568333D01*
X1066955Y568292D01*
X1067006Y568251D01*
X1067050Y568202D01*
X1067092Y568180D01*
X1067129Y568151D01*
X1067191Y568130D01*
X1067250Y568099D01*
X1067304Y568091D01*
X1067341Y568079D01*
X1067381Y568080D01*
X1067435Y568072D01*
X1071245Y568072D01*
X1071310Y568083D01*
G37*
D10*
X243840Y160900D03*
X243840Y143900D03*
D11*
X110100Y88900D03*
X93100Y88900D03*
D12*
X520700Y12700D03*
X495300Y12700D03*
X469900Y12700D03*
X444500Y12700D03*
X419100Y12700D03*
X393700Y12700D03*
X368300Y12700D03*
X342900Y12700D03*
X317500Y12700D03*
X292100Y12700D03*
X266700Y12700D03*
X241300Y12700D03*
X215900Y12700D03*
X190500Y12700D03*
X165100Y12700D03*
X139700Y12700D03*
X520700Y215900D03*
X495300Y215900D03*
X469900Y215900D03*
X444500Y215900D03*
X419100Y215900D03*
X393700Y215900D03*
X368300Y215900D03*
X342900Y215900D03*
X317500Y215900D03*
X292100Y215900D03*
X266700Y215900D03*
X241300Y215900D03*
D13*
X60900Y14050D03*
X116900Y14050D03*
D14*
X73900Y50800D03*
X83900Y50800D03*
X93900Y50800D03*
X103900Y50800D03*
D15*
X660400Y14300D03*
D16*
X660400Y214300D03*
D17*
X607650Y21800D03*
D18*
X615400Y10800D03*
X615400Y217800D03*
D17*
X683150Y24300D03*
X607650Y26800D03*
X683150Y29300D03*
X607650Y31800D03*
X683150Y34300D03*
X607650Y36800D03*
X683150Y39300D03*
X607650Y41800D03*
X683150Y44300D03*
X607650Y46800D03*
X683150Y49300D03*
X607650Y51800D03*
X683150Y54300D03*
X607650Y56800D03*
X683150Y59300D03*
X607650Y61800D03*
X683150Y64300D03*
X607650Y66800D03*
X683150Y69300D03*
X607650Y71800D03*
X683150Y74300D03*
X607650Y76800D03*
X683150Y99300D03*
X607650Y101800D03*
X683150Y104300D03*
X607650Y106800D03*
X683150Y109300D03*
X607650Y111800D03*
X683150Y114300D03*
X607650Y116800D03*
X683150Y119300D03*
X607650Y121800D03*
X683150Y124300D03*
X607650Y126800D03*
X683150Y129300D03*
X607650Y131800D03*
X683150Y134300D03*
X607650Y136800D03*
X683150Y139300D03*
X607650Y141800D03*
X683150Y144300D03*
X607650Y146800D03*
X683150Y149300D03*
X607650Y151800D03*
X683150Y154300D03*
X607650Y156800D03*
X683150Y159300D03*
X607650Y161800D03*
X683150Y164300D03*
X607650Y166800D03*
X683150Y169300D03*
X607650Y171800D03*
X683150Y174300D03*
X607650Y176800D03*
X683150Y179300D03*
X607650Y181800D03*
X683150Y184300D03*
X607650Y186800D03*
X683150Y189300D03*
X607650Y191800D03*
X683150Y194300D03*
X607650Y196800D03*
X683150Y199300D03*
X607650Y201800D03*
X683150Y204300D03*
X607650Y206800D03*
D10*
X289560Y160900D03*
X289560Y143900D03*
X393700Y93100D03*
X393700Y110100D03*
X368300Y93100D03*
X368300Y110100D03*
X444500Y110100D03*
X444500Y93100D03*
D19*
X411600Y111500D03*
X416600Y111500D03*
X421600Y111500D03*
X426600Y111500D03*
X426600Y91500D03*
X421600Y91500D03*
X416600Y91500D03*
X411600Y91500D03*
D20*
X419100Y101600D03*
D21*
X123800Y152701D03*
X114300Y152701D03*
X104800Y152701D03*
X104800Y126699D03*
X123800Y126699D03*
D10*
X304800Y160900D03*
X304800Y143900D03*
X274320Y160900D03*
X274320Y143900D03*
X259080Y143900D03*
X259080Y160900D03*
D22*
X901700Y50800D03*
D23*
X25400Y203200D03*
X558800Y203200D03*
X558800Y25400D03*
X25400Y25400D03*
D24*
X859790Y74930D03*
D25*
X320450Y87850D03*
X326950Y87850D03*
X333450Y87850D03*
X339950Y87850D03*
X339950Y115350D03*
X333450Y115350D03*
X326950Y115350D03*
X320450Y115350D03*
D26*
X330200Y101600D03*
D10*
X292100Y93100D03*
X292100Y110100D03*
X335280Y143900D03*
X335280Y160900D03*
X320040Y143900D03*
X320040Y160900D03*
D27*
X386280Y155890D02*
X386280Y148910D01*
X386280Y155890D02*
X393260Y155890D01*
X393260Y148910D01*
X386280Y148910D01*
X386280Y153710D02*
X393260Y153710D01*
X368740Y155890D02*
X368740Y148910D01*
X368740Y155890D02*
X375720Y155890D01*
X375720Y148910D01*
X368740Y148910D01*
X368740Y153710D02*
X375720Y153710D01*
X437080Y155890D02*
X437080Y148910D01*
X437080Y155890D02*
X444060Y155890D01*
X444060Y148910D01*
X437080Y148910D01*
X437080Y153710D02*
X444060Y153710D01*
X419540Y155890D02*
X419540Y148910D01*
X419540Y155890D02*
X426520Y155890D01*
X426520Y148910D01*
X419540Y148910D01*
X419540Y153710D02*
X426520Y153710D01*
D28*
X480060Y158750D03*
X535940Y158750D03*
X480060Y120650D03*
X535940Y120650D03*
D29*
X60100Y106800D03*
X60100Y111800D03*
D30*
X60100Y82050D03*
X60100Y89800D03*
D29*
X60100Y96800D03*
X60100Y101800D03*
X60100Y121800D03*
X60100Y116800D03*
D30*
X60100Y146550D03*
X60100Y138800D03*
D29*
X60100Y131800D03*
X60100Y126800D03*
D31*
X49050Y143200D03*
X49050Y85400D03*
D21*
X225400Y114601D03*
X215900Y114601D03*
X206400Y114601D03*
X206400Y88599D03*
X225400Y88599D03*
D10*
X228600Y160900D03*
X228600Y143900D03*
X271780Y110100D03*
X271780Y93100D03*
D27*
X260030Y96320D02*
X253050Y96320D01*
X260030Y96320D02*
X260030Y89340D01*
X253050Y89340D01*
X253050Y96320D01*
X253050Y94140D02*
X260030Y94140D01*
X260030Y113860D02*
X253050Y113860D01*
X260030Y113860D02*
X260030Y106880D01*
X253050Y106880D01*
X253050Y113860D01*
X253050Y111680D02*
X260030Y111680D01*
D10*
X241300Y110100D03*
X241300Y93100D03*
D32*
X167800Y153500D03*
X187800Y153500D03*
D33*
X143800Y205500D03*
X211800Y205500D03*
D34*
X774700Y31750D03*
X787400Y31750D03*
X800100Y31750D03*
X812800Y31750D03*
X762000Y31750D03*
X774700Y19050D03*
X787400Y19050D03*
X800100Y19050D03*
X812800Y19050D03*
X762000Y19050D03*
D28*
X480060Y102870D03*
X535940Y102870D03*
X480060Y64770D03*
X535940Y64770D03*
D22*
X12700Y177800D03*
D35*
X71120Y207264D03*
X71120Y199136D03*
D36*
X104140Y217240D03*
X104140Y194240D03*
X121920Y217240D03*
X121920Y194240D03*
D37*
X154940Y104140D03*
X144780Y104140D03*
D38*
X162560Y104140D03*
X137160Y104140D03*
D10*
X1163320Y160900D03*
X1163320Y143900D03*
D11*
X1029580Y88900D03*
X1012580Y88900D03*
D12*
X1440180Y12700D03*
X1414780Y12700D03*
X1389380Y12700D03*
X1363980Y12700D03*
X1338580Y12700D03*
X1313180Y12700D03*
X1287780Y12700D03*
X1262380Y12700D03*
X1236980Y12700D03*
X1211580Y12700D03*
X1186180Y12700D03*
X1160780Y12700D03*
X1135380Y12700D03*
X1109980Y12700D03*
X1084580Y12700D03*
X1059180Y12700D03*
X1440180Y215900D03*
X1414780Y215900D03*
X1389380Y215900D03*
X1363980Y215900D03*
X1338580Y215900D03*
X1313180Y215900D03*
X1287780Y215900D03*
X1262380Y215900D03*
X1236980Y215900D03*
X1211580Y215900D03*
X1186180Y215900D03*
X1160780Y215900D03*
D13*
X980380Y14050D03*
X1036380Y14050D03*
D14*
X993380Y50800D03*
X1003380Y50800D03*
X1013380Y50800D03*
X1023380Y50800D03*
D15*
X1579880Y14300D03*
D16*
X1579880Y214300D03*
D17*
X1527130Y21800D03*
D18*
X1534880Y10800D03*
X1534880Y217800D03*
D17*
X1602630Y24300D03*
X1527130Y26800D03*
X1602630Y29300D03*
X1527130Y31800D03*
X1602630Y34300D03*
X1527130Y36800D03*
X1602630Y39300D03*
X1527130Y41800D03*
X1602630Y44300D03*
X1527130Y46800D03*
X1602630Y49300D03*
X1527130Y51800D03*
X1602630Y54300D03*
X1527130Y56800D03*
X1602630Y59300D03*
X1527130Y61800D03*
X1602630Y64300D03*
X1527130Y66800D03*
X1602630Y69300D03*
X1527130Y71800D03*
X1602630Y74300D03*
X1527130Y76800D03*
X1602630Y99300D03*
X1527130Y101800D03*
X1602630Y104300D03*
X1527130Y106800D03*
X1602630Y109300D03*
X1527130Y111800D03*
X1602630Y114300D03*
X1527130Y116800D03*
X1602630Y119300D03*
X1527130Y121800D03*
X1602630Y124300D03*
X1527130Y126800D03*
X1602630Y129300D03*
X1527130Y131800D03*
X1602630Y134300D03*
X1527130Y136800D03*
X1602630Y139300D03*
X1527130Y141800D03*
X1602630Y144300D03*
X1527130Y146800D03*
X1602630Y149300D03*
X1527130Y151800D03*
X1602630Y154300D03*
X1527130Y156800D03*
X1602630Y159300D03*
X1527130Y161800D03*
X1602630Y164300D03*
X1527130Y166800D03*
X1602630Y169300D03*
X1527130Y171800D03*
X1602630Y174300D03*
X1527130Y176800D03*
X1602630Y179300D03*
X1527130Y181800D03*
X1602630Y184300D03*
X1527130Y186800D03*
X1602630Y189300D03*
X1527130Y191800D03*
X1602630Y194300D03*
X1527130Y196800D03*
X1602630Y199300D03*
X1527130Y201800D03*
X1602630Y204300D03*
X1527130Y206800D03*
D10*
X1209040Y160900D03*
X1209040Y143900D03*
X1313180Y93100D03*
X1313180Y110100D03*
X1287780Y93100D03*
X1287780Y110100D03*
X1363980Y110100D03*
X1363980Y93100D03*
D19*
X1331080Y111500D03*
X1336080Y111500D03*
X1341080Y111500D03*
X1346080Y111500D03*
X1346080Y91500D03*
X1341080Y91500D03*
X1336080Y91500D03*
X1331080Y91500D03*
D20*
X1338580Y101600D03*
D21*
X1043280Y152701D03*
X1033780Y152701D03*
X1024280Y152701D03*
X1024280Y126699D03*
X1043280Y126699D03*
D10*
X1224280Y160900D03*
X1224280Y143900D03*
X1193800Y160900D03*
X1193800Y143900D03*
X1178560Y143900D03*
X1178560Y160900D03*
D22*
X1821180Y50800D03*
D23*
X944880Y203200D03*
X1478280Y203200D03*
X1478280Y25400D03*
X944880Y25400D03*
D24*
X1779270Y74930D03*
D25*
X1239930Y87850D03*
X1246430Y87850D03*
X1252930Y87850D03*
X1259430Y87850D03*
X1259430Y115350D03*
X1252930Y115350D03*
X1246430Y115350D03*
X1239930Y115350D03*
D26*
X1249680Y101600D03*
D10*
X1211580Y93100D03*
X1211580Y110100D03*
X1254760Y143900D03*
X1254760Y160900D03*
X1239520Y143900D03*
X1239520Y160900D03*
D27*
X1305760Y155890D02*
X1305760Y148910D01*
X1305760Y155890D02*
X1312740Y155890D01*
X1312740Y148910D01*
X1305760Y148910D01*
X1305760Y153710D02*
X1312740Y153710D01*
X1288220Y155890D02*
X1288220Y148910D01*
X1288220Y155890D02*
X1295200Y155890D01*
X1295200Y148910D01*
X1288220Y148910D01*
X1288220Y153710D02*
X1295200Y153710D01*
X1356560Y155890D02*
X1356560Y148910D01*
X1356560Y155890D02*
X1363540Y155890D01*
X1363540Y148910D01*
X1356560Y148910D01*
X1356560Y153710D02*
X1363540Y153710D01*
X1339020Y155890D02*
X1339020Y148910D01*
X1339020Y155890D02*
X1346000Y155890D01*
X1346000Y148910D01*
X1339020Y148910D01*
X1339020Y153710D02*
X1346000Y153710D01*
D28*
X1399540Y158750D03*
X1455420Y158750D03*
X1399540Y120650D03*
X1455420Y120650D03*
D29*
X979580Y106800D03*
X979580Y111800D03*
D30*
X979580Y82050D03*
X979580Y89800D03*
D29*
X979580Y96800D03*
X979580Y101800D03*
X979580Y121800D03*
X979580Y116800D03*
D30*
X979580Y146550D03*
X979580Y138800D03*
D29*
X979580Y131800D03*
X979580Y126800D03*
D31*
X968530Y143200D03*
X968530Y85400D03*
D21*
X1144880Y114601D03*
X1135380Y114601D03*
X1125880Y114601D03*
X1125880Y88599D03*
X1144880Y88599D03*
D10*
X1148080Y160900D03*
X1148080Y143900D03*
X1191260Y110100D03*
X1191260Y93100D03*
D27*
X1179510Y96320D02*
X1172530Y96320D01*
X1179510Y96320D02*
X1179510Y89340D01*
X1172530Y89340D01*
X1172530Y96320D01*
X1172530Y94140D02*
X1179510Y94140D01*
X1179510Y113860D02*
X1172530Y113860D01*
X1179510Y113860D02*
X1179510Y106880D01*
X1172530Y106880D01*
X1172530Y113860D01*
X1172530Y111680D02*
X1179510Y111680D01*
D10*
X1160780Y110100D03*
X1160780Y93100D03*
D32*
X1087280Y153500D03*
X1107280Y153500D03*
D33*
X1063280Y205500D03*
X1131280Y205500D03*
D34*
X1694180Y31750D03*
X1706880Y31750D03*
X1719580Y31750D03*
X1732280Y31750D03*
X1681480Y31750D03*
X1694180Y19050D03*
X1706880Y19050D03*
X1719580Y19050D03*
X1732280Y19050D03*
X1681480Y19050D03*
D28*
X1399540Y102870D03*
X1455420Y102870D03*
X1399540Y64770D03*
X1455420Y64770D03*
D22*
X932180Y177800D03*
D35*
X990600Y207264D03*
X990600Y199136D03*
D36*
X1023620Y217240D03*
X1023620Y194240D03*
X1041400Y217240D03*
X1041400Y194240D03*
D37*
X1074420Y104140D03*
X1064260Y104140D03*
D38*
X1082040Y104140D03*
X1056640Y104140D03*
D10*
X243840Y394580D03*
X243840Y377580D03*
D11*
X110100Y322580D03*
X93100Y322580D03*
D12*
X520700Y246380D03*
X495300Y246380D03*
X469900Y246380D03*
X444500Y246380D03*
X419100Y246380D03*
X393700Y246380D03*
X368300Y246380D03*
X342900Y246380D03*
X317500Y246380D03*
X292100Y246380D03*
X266700Y246380D03*
X241300Y246380D03*
X215900Y246380D03*
X190500Y246380D03*
X165100Y246380D03*
X139700Y246380D03*
X520700Y449580D03*
X495300Y449580D03*
X469900Y449580D03*
X444500Y449580D03*
X419100Y449580D03*
X393700Y449580D03*
X368300Y449580D03*
X342900Y449580D03*
X317500Y449580D03*
X292100Y449580D03*
X266700Y449580D03*
X241300Y449580D03*
D13*
X60900Y247730D03*
X116900Y247730D03*
D14*
X73900Y284480D03*
X83900Y284480D03*
X93900Y284480D03*
X103900Y284480D03*
D15*
X660400Y247980D03*
D16*
X660400Y447980D03*
D17*
X607650Y255480D03*
D18*
X615400Y244480D03*
X615400Y451480D03*
D17*
X683150Y257980D03*
X607650Y260480D03*
X683150Y262980D03*
X607650Y265480D03*
X683150Y267980D03*
X607650Y270480D03*
X683150Y272980D03*
X607650Y275480D03*
X683150Y277980D03*
X607650Y280480D03*
X683150Y282980D03*
X607650Y285480D03*
X683150Y287980D03*
X607650Y290480D03*
X683150Y292980D03*
X607650Y295480D03*
X683150Y297980D03*
X607650Y300480D03*
X683150Y302980D03*
X607650Y305480D03*
X683150Y307980D03*
X607650Y310480D03*
X683150Y332980D03*
X607650Y335480D03*
X683150Y337980D03*
X607650Y340480D03*
X683150Y342980D03*
X607650Y345480D03*
X683150Y347980D03*
X607650Y350480D03*
X683150Y352980D03*
X607650Y355480D03*
X683150Y357980D03*
X607650Y360480D03*
X683150Y362980D03*
X607650Y365480D03*
X683150Y367980D03*
X607650Y370480D03*
X683150Y372980D03*
X607650Y375480D03*
X683150Y377980D03*
X607650Y380480D03*
X683150Y382980D03*
X607650Y385480D03*
X683150Y387980D03*
X607650Y390480D03*
X683150Y392980D03*
X607650Y395480D03*
X683150Y397980D03*
X607650Y400480D03*
X683150Y402980D03*
X607650Y405480D03*
X683150Y407980D03*
X607650Y410480D03*
X683150Y412980D03*
X607650Y415480D03*
X683150Y417980D03*
X607650Y420480D03*
X683150Y422980D03*
X607650Y425480D03*
X683150Y427980D03*
X607650Y430480D03*
X683150Y432980D03*
X607650Y435480D03*
X683150Y437980D03*
X607650Y440480D03*
D10*
X289560Y394580D03*
X289560Y377580D03*
X393700Y326780D03*
X393700Y343780D03*
X368300Y326780D03*
X368300Y343780D03*
X444500Y343780D03*
X444500Y326780D03*
D19*
X411600Y345180D03*
X416600Y345180D03*
X421600Y345180D03*
X426600Y345180D03*
X426600Y325180D03*
X421600Y325180D03*
X416600Y325180D03*
X411600Y325180D03*
D20*
X419100Y335280D03*
D21*
X123800Y386381D03*
X114300Y386381D03*
X104800Y386381D03*
X104800Y360379D03*
X123800Y360379D03*
D10*
X304800Y394580D03*
X304800Y377580D03*
X274320Y394580D03*
X274320Y377580D03*
X259080Y377580D03*
X259080Y394580D03*
D22*
X901700Y284480D03*
D23*
X25400Y436880D03*
X558800Y436880D03*
X558800Y259080D03*
X25400Y259080D03*
D24*
X859790Y308610D03*
D25*
X320450Y321530D03*
X326950Y321530D03*
X333450Y321530D03*
X339950Y321530D03*
X339950Y349030D03*
X333450Y349030D03*
X326950Y349030D03*
X320450Y349030D03*
D26*
X330200Y335280D03*
D10*
X292100Y326780D03*
X292100Y343780D03*
X335280Y377580D03*
X335280Y394580D03*
X320040Y377580D03*
X320040Y394580D03*
D27*
X386280Y389570D02*
X386280Y382590D01*
X386280Y389570D02*
X393260Y389570D01*
X393260Y382590D01*
X386280Y382590D01*
X386280Y387390D02*
X393260Y387390D01*
X368740Y389570D02*
X368740Y382590D01*
X368740Y389570D02*
X375720Y389570D01*
X375720Y382590D01*
X368740Y382590D01*
X368740Y387390D02*
X375720Y387390D01*
X437080Y389570D02*
X437080Y382590D01*
X437080Y389570D02*
X444060Y389570D01*
X444060Y382590D01*
X437080Y382590D01*
X437080Y387390D02*
X444060Y387390D01*
X419540Y389570D02*
X419540Y382590D01*
X419540Y389570D02*
X426520Y389570D01*
X426520Y382590D01*
X419540Y382590D01*
X419540Y387390D02*
X426520Y387390D01*
D28*
X480060Y392430D03*
X535940Y392430D03*
X480060Y354330D03*
X535940Y354330D03*
D29*
X60100Y340480D03*
X60100Y345480D03*
D30*
X60100Y315730D03*
X60100Y323480D03*
D29*
X60100Y330480D03*
X60100Y335480D03*
X60100Y355480D03*
X60100Y350480D03*
D30*
X60100Y380230D03*
X60100Y372480D03*
D29*
X60100Y365480D03*
X60100Y360480D03*
D31*
X49050Y376880D03*
X49050Y319080D03*
D21*
X225400Y348281D03*
X215900Y348281D03*
X206400Y348281D03*
X206400Y322279D03*
X225400Y322279D03*
D10*
X228600Y394580D03*
X228600Y377580D03*
X271780Y343780D03*
X271780Y326780D03*
D27*
X260030Y330000D02*
X253050Y330000D01*
X260030Y330000D02*
X260030Y323020D01*
X253050Y323020D01*
X253050Y330000D01*
X253050Y327820D02*
X260030Y327820D01*
X260030Y347540D02*
X253050Y347540D01*
X260030Y347540D02*
X260030Y340560D01*
X253050Y340560D01*
X253050Y347540D01*
X253050Y345360D02*
X260030Y345360D01*
D10*
X241300Y343780D03*
X241300Y326780D03*
D32*
X167800Y387180D03*
X187800Y387180D03*
D33*
X143800Y439180D03*
X211800Y439180D03*
D34*
X774700Y265430D03*
X787400Y265430D03*
X800100Y265430D03*
X812800Y265430D03*
X762000Y265430D03*
X774700Y252730D03*
X787400Y252730D03*
X800100Y252730D03*
X812800Y252730D03*
X762000Y252730D03*
D28*
X480060Y336550D03*
X535940Y336550D03*
X480060Y298450D03*
X535940Y298450D03*
D22*
X12700Y411480D03*
D35*
X71120Y440944D03*
X71120Y432816D03*
D36*
X104140Y450920D03*
X104140Y427920D03*
X121920Y450920D03*
X121920Y427920D03*
D37*
X154940Y337820D03*
X144780Y337820D03*
D38*
X162560Y337820D03*
X137160Y337820D03*
D10*
X1163320Y394580D03*
X1163320Y377580D03*
D11*
X1029580Y322580D03*
X1012580Y322580D03*
D12*
X1440180Y246380D03*
X1414780Y246380D03*
X1389380Y246380D03*
X1363980Y246380D03*
X1338580Y246380D03*
X1313180Y246380D03*
X1287780Y246380D03*
X1262380Y246380D03*
X1236980Y246380D03*
X1211580Y246380D03*
X1186180Y246380D03*
X1160780Y246380D03*
X1135380Y246380D03*
X1109980Y246380D03*
X1084580Y246380D03*
X1059180Y246380D03*
X1440180Y449580D03*
X1414780Y449580D03*
X1389380Y449580D03*
X1363980Y449580D03*
X1338580Y449580D03*
X1313180Y449580D03*
X1287780Y449580D03*
X1262380Y449580D03*
X1236980Y449580D03*
X1211580Y449580D03*
X1186180Y449580D03*
X1160780Y449580D03*
D13*
X980380Y247730D03*
X1036380Y247730D03*
D14*
X993380Y284480D03*
X1003380Y284480D03*
X1013380Y284480D03*
X1023380Y284480D03*
D15*
X1579880Y247980D03*
D16*
X1579880Y447980D03*
D17*
X1527130Y255480D03*
D18*
X1534880Y244480D03*
X1534880Y451480D03*
D17*
X1602630Y257980D03*
X1527130Y260480D03*
X1602630Y262980D03*
X1527130Y265480D03*
X1602630Y267980D03*
X1527130Y270480D03*
X1602630Y272980D03*
X1527130Y275480D03*
X1602630Y277980D03*
X1527130Y280480D03*
X1602630Y282980D03*
X1527130Y285480D03*
X1602630Y287980D03*
X1527130Y290480D03*
X1602630Y292980D03*
X1527130Y295480D03*
X1602630Y297980D03*
X1527130Y300480D03*
X1602630Y302980D03*
X1527130Y305480D03*
X1602630Y307980D03*
X1527130Y310480D03*
X1602630Y332980D03*
X1527130Y335480D03*
X1602630Y337980D03*
X1527130Y340480D03*
X1602630Y342980D03*
X1527130Y345480D03*
X1602630Y347980D03*
X1527130Y350480D03*
X1602630Y352980D03*
X1527130Y355480D03*
X1602630Y357980D03*
X1527130Y360480D03*
X1602630Y362980D03*
X1527130Y365480D03*
X1602630Y367980D03*
X1527130Y370480D03*
X1602630Y372980D03*
X1527130Y375480D03*
X1602630Y377980D03*
X1527130Y380480D03*
X1602630Y382980D03*
X1527130Y385480D03*
X1602630Y387980D03*
X1527130Y390480D03*
X1602630Y392980D03*
X1527130Y395480D03*
X1602630Y397980D03*
X1527130Y400480D03*
X1602630Y402980D03*
X1527130Y405480D03*
X1602630Y407980D03*
X1527130Y410480D03*
X1602630Y412980D03*
X1527130Y415480D03*
X1602630Y417980D03*
X1527130Y420480D03*
X1602630Y422980D03*
X1527130Y425480D03*
X1602630Y427980D03*
X1527130Y430480D03*
X1602630Y432980D03*
X1527130Y435480D03*
X1602630Y437980D03*
X1527130Y440480D03*
D10*
X1209040Y394580D03*
X1209040Y377580D03*
X1313180Y326780D03*
X1313180Y343780D03*
X1287780Y326780D03*
X1287780Y343780D03*
X1363980Y343780D03*
X1363980Y326780D03*
D19*
X1331080Y345180D03*
X1336080Y345180D03*
X1341080Y345180D03*
X1346080Y345180D03*
X1346080Y325180D03*
X1341080Y325180D03*
X1336080Y325180D03*
X1331080Y325180D03*
D20*
X1338580Y335280D03*
D21*
X1043280Y386381D03*
X1033780Y386381D03*
X1024280Y386381D03*
X1024280Y360379D03*
X1043280Y360379D03*
D10*
X1224280Y394580D03*
X1224280Y377580D03*
X1193800Y394580D03*
X1193800Y377580D03*
X1178560Y377580D03*
X1178560Y394580D03*
D22*
X1821180Y284480D03*
D23*
X944880Y436880D03*
X1478280Y436880D03*
X1478280Y259080D03*
X944880Y259080D03*
D24*
X1779270Y308610D03*
D25*
X1239930Y321530D03*
X1246430Y321530D03*
X1252930Y321530D03*
X1259430Y321530D03*
X1259430Y349030D03*
X1252930Y349030D03*
X1246430Y349030D03*
X1239930Y349030D03*
D26*
X1249680Y335280D03*
D10*
X1211580Y326780D03*
X1211580Y343780D03*
X1254760Y377580D03*
X1254760Y394580D03*
X1239520Y377580D03*
X1239520Y394580D03*
D27*
X1305760Y389570D02*
X1305760Y382590D01*
X1305760Y389570D02*
X1312740Y389570D01*
X1312740Y382590D01*
X1305760Y382590D01*
X1305760Y387390D02*
X1312740Y387390D01*
X1288220Y389570D02*
X1288220Y382590D01*
X1288220Y389570D02*
X1295200Y389570D01*
X1295200Y382590D01*
X1288220Y382590D01*
X1288220Y387390D02*
X1295200Y387390D01*
X1356560Y389570D02*
X1356560Y382590D01*
X1356560Y389570D02*
X1363540Y389570D01*
X1363540Y382590D01*
X1356560Y382590D01*
X1356560Y387390D02*
X1363540Y387390D01*
X1339020Y389570D02*
X1339020Y382590D01*
X1339020Y389570D02*
X1346000Y389570D01*
X1346000Y382590D01*
X1339020Y382590D01*
X1339020Y387390D02*
X1346000Y387390D01*
D28*
X1399540Y392430D03*
X1455420Y392430D03*
X1399540Y354330D03*
X1455420Y354330D03*
D29*
X979580Y340480D03*
X979580Y345480D03*
D30*
X979580Y315730D03*
X979580Y323480D03*
D29*
X979580Y330480D03*
X979580Y335480D03*
X979580Y355480D03*
X979580Y350480D03*
D30*
X979580Y380230D03*
X979580Y372480D03*
D29*
X979580Y365480D03*
X979580Y360480D03*
D31*
X968530Y376880D03*
X968530Y319080D03*
D21*
X1144880Y348281D03*
X1135380Y348281D03*
X1125880Y348281D03*
X1125880Y322279D03*
X1144880Y322279D03*
D10*
X1148080Y394580D03*
X1148080Y377580D03*
X1191260Y343780D03*
X1191260Y326780D03*
D27*
X1179510Y330000D02*
X1172530Y330000D01*
X1179510Y330000D02*
X1179510Y323020D01*
X1172530Y323020D01*
X1172530Y330000D01*
X1172530Y327820D02*
X1179510Y327820D01*
X1179510Y347540D02*
X1172530Y347540D01*
X1179510Y347540D02*
X1179510Y340560D01*
X1172530Y340560D01*
X1172530Y347540D01*
X1172530Y345360D02*
X1179510Y345360D01*
D10*
X1160780Y343780D03*
X1160780Y326780D03*
D32*
X1087280Y387180D03*
X1107280Y387180D03*
D33*
X1063280Y439180D03*
X1131280Y439180D03*
D34*
X1694180Y265430D03*
X1706880Y265430D03*
X1719580Y265430D03*
X1732280Y265430D03*
X1681480Y265430D03*
X1694180Y252730D03*
X1706880Y252730D03*
X1719580Y252730D03*
X1732280Y252730D03*
X1681480Y252730D03*
D28*
X1399540Y336550D03*
X1455420Y336550D03*
X1399540Y298450D03*
X1455420Y298450D03*
D22*
X932180Y411480D03*
D35*
X990600Y440944D03*
X990600Y432816D03*
D36*
X1023620Y450920D03*
X1023620Y427920D03*
X1041400Y450920D03*
X1041400Y427920D03*
D37*
X1074420Y337820D03*
X1064260Y337820D03*
D38*
X1082040Y337820D03*
X1056640Y337820D03*
D10*
X243840Y628260D03*
X243840Y611260D03*
D11*
X110100Y556260D03*
X93100Y556260D03*
D12*
X520700Y480060D03*
X495300Y480060D03*
X469900Y480060D03*
X444500Y480060D03*
X419100Y480060D03*
X393700Y480060D03*
X368300Y480060D03*
X342900Y480060D03*
X317500Y480060D03*
X292100Y480060D03*
X266700Y480060D03*
X241300Y480060D03*
X215900Y480060D03*
X190500Y480060D03*
X165100Y480060D03*
X139700Y480060D03*
X520700Y683260D03*
X495300Y683260D03*
X469900Y683260D03*
X444500Y683260D03*
X419100Y683260D03*
X393700Y683260D03*
X368300Y683260D03*
X342900Y683260D03*
X317500Y683260D03*
X292100Y683260D03*
X266700Y683260D03*
X241300Y683260D03*
D13*
X60900Y481410D03*
X116900Y481410D03*
D14*
X73900Y518160D03*
X83900Y518160D03*
X93900Y518160D03*
X103900Y518160D03*
D15*
X660400Y481660D03*
D16*
X660400Y681660D03*
D17*
X607650Y489160D03*
D18*
X615400Y478160D03*
X615400Y685160D03*
D17*
X683150Y491660D03*
X607650Y494160D03*
X683150Y496660D03*
X607650Y499160D03*
X683150Y501660D03*
X607650Y504160D03*
X683150Y506660D03*
X607650Y509160D03*
X683150Y511660D03*
X607650Y514160D03*
X683150Y516660D03*
X607650Y519160D03*
X683150Y521660D03*
X607650Y524160D03*
X683150Y526660D03*
X607650Y529160D03*
X683150Y531660D03*
X607650Y534160D03*
X683150Y536660D03*
X607650Y539160D03*
X683150Y541660D03*
X607650Y544160D03*
X683150Y566660D03*
X607650Y569160D03*
X683150Y571660D03*
X607650Y574160D03*
X683150Y576660D03*
X607650Y579160D03*
X683150Y581660D03*
X607650Y584160D03*
X683150Y586660D03*
X607650Y589160D03*
X683150Y591660D03*
X607650Y594160D03*
X683150Y596660D03*
X607650Y599160D03*
X683150Y601660D03*
X607650Y604160D03*
X683150Y606660D03*
X607650Y609160D03*
X683150Y611660D03*
X607650Y614160D03*
X683150Y616660D03*
X607650Y619160D03*
X683150Y621660D03*
X607650Y624160D03*
X683150Y626660D03*
X607650Y629160D03*
X683150Y631660D03*
X607650Y634160D03*
X683150Y636660D03*
X607650Y639160D03*
X683150Y641660D03*
X607650Y644160D03*
X683150Y646660D03*
X607650Y649160D03*
X683150Y651660D03*
X607650Y654160D03*
X683150Y656660D03*
X607650Y659160D03*
X683150Y661660D03*
X607650Y664160D03*
X683150Y666660D03*
X607650Y669160D03*
X683150Y671660D03*
X607650Y674160D03*
D10*
X289560Y628260D03*
X289560Y611260D03*
X393700Y560460D03*
X393700Y577460D03*
X368300Y560460D03*
X368300Y577460D03*
X444500Y577460D03*
X444500Y560460D03*
D19*
X411600Y578860D03*
X416600Y578860D03*
X421600Y578860D03*
X426600Y578860D03*
X426600Y558860D03*
X421600Y558860D03*
X416600Y558860D03*
X411600Y558860D03*
D20*
X419100Y568960D03*
D21*
X123800Y620061D03*
X114300Y620061D03*
X104800Y620061D03*
X104800Y594059D03*
X123800Y594059D03*
D10*
X304800Y628260D03*
X304800Y611260D03*
X274320Y628260D03*
X274320Y611260D03*
X259080Y611260D03*
X259080Y628260D03*
D22*
X901700Y518160D03*
D23*
X25400Y670560D03*
X558800Y670560D03*
X558800Y492760D03*
X25400Y492760D03*
D24*
X859790Y542290D03*
D25*
X320450Y555210D03*
X326950Y555210D03*
X333450Y555210D03*
X339950Y555210D03*
X339950Y582710D03*
X333450Y582710D03*
X326950Y582710D03*
X320450Y582710D03*
D26*
X330200Y568960D03*
D10*
X292100Y560460D03*
X292100Y577460D03*
X335280Y611260D03*
X335280Y628260D03*
X320040Y611260D03*
X320040Y628260D03*
D27*
X386280Y623250D02*
X386280Y616270D01*
X386280Y623250D02*
X393260Y623250D01*
X393260Y616270D01*
X386280Y616270D01*
X386280Y621070D02*
X393260Y621070D01*
X368740Y623250D02*
X368740Y616270D01*
X368740Y623250D02*
X375720Y623250D01*
X375720Y616270D01*
X368740Y616270D01*
X368740Y621070D02*
X375720Y621070D01*
X437080Y623250D02*
X437080Y616270D01*
X437080Y623250D02*
X444060Y623250D01*
X444060Y616270D01*
X437080Y616270D01*
X437080Y621070D02*
X444060Y621070D01*
X419540Y623250D02*
X419540Y616270D01*
X419540Y623250D02*
X426520Y623250D01*
X426520Y616270D01*
X419540Y616270D01*
X419540Y621070D02*
X426520Y621070D01*
D28*
X480060Y626110D03*
X535940Y626110D03*
X480060Y588010D03*
X535940Y588010D03*
D29*
X60100Y574160D03*
X60100Y579160D03*
D30*
X60100Y549410D03*
X60100Y557160D03*
D29*
X60100Y564160D03*
X60100Y569160D03*
X60100Y589160D03*
X60100Y584160D03*
D30*
X60100Y613910D03*
X60100Y606160D03*
D29*
X60100Y599160D03*
X60100Y594160D03*
D31*
X49050Y610560D03*
X49050Y552760D03*
D21*
X225400Y581961D03*
X215900Y581961D03*
X206400Y581961D03*
X206400Y555959D03*
X225400Y555959D03*
D10*
X228600Y628260D03*
X228600Y611260D03*
X271780Y577460D03*
X271780Y560460D03*
D27*
X260030Y563680D02*
X253050Y563680D01*
X260030Y563680D02*
X260030Y556700D01*
X253050Y556700D01*
X253050Y563680D01*
X253050Y561500D02*
X260030Y561500D01*
X260030Y581220D02*
X253050Y581220D01*
X260030Y581220D02*
X260030Y574240D01*
X253050Y574240D01*
X253050Y581220D01*
X253050Y579040D02*
X260030Y579040D01*
D10*
X241300Y577460D03*
X241300Y560460D03*
D32*
X167800Y620860D03*
X187800Y620860D03*
D33*
X143800Y672860D03*
X211800Y672860D03*
D34*
X774700Y499110D03*
X787400Y499110D03*
X800100Y499110D03*
X812800Y499110D03*
X762000Y499110D03*
X774700Y486410D03*
X787400Y486410D03*
X800100Y486410D03*
X812800Y486410D03*
X762000Y486410D03*
D28*
X480060Y570230D03*
X535940Y570230D03*
X480060Y532130D03*
X535940Y532130D03*
D22*
X12700Y645160D03*
D35*
X71120Y674624D03*
X71120Y666496D03*
D36*
X104140Y684600D03*
X104140Y661600D03*
X121920Y684600D03*
X121920Y661600D03*
D37*
X154940Y571500D03*
X144780Y571500D03*
D38*
X162560Y571500D03*
X137160Y571500D03*
D10*
X1163320Y628260D03*
X1163320Y611260D03*
D11*
X1029580Y556260D03*
X1012580Y556260D03*
D12*
X1440180Y480060D03*
X1414780Y480060D03*
X1389380Y480060D03*
X1363980Y480060D03*
X1338580Y480060D03*
X1313180Y480060D03*
X1287780Y480060D03*
X1262380Y480060D03*
X1236980Y480060D03*
X1211580Y480060D03*
X1186180Y480060D03*
X1160780Y480060D03*
X1135380Y480060D03*
X1109980Y480060D03*
X1084580Y480060D03*
X1059180Y480060D03*
X1440180Y683260D03*
X1414780Y683260D03*
X1389380Y683260D03*
X1363980Y683260D03*
X1338580Y683260D03*
X1313180Y683260D03*
X1287780Y683260D03*
X1262380Y683260D03*
X1236980Y683260D03*
X1211580Y683260D03*
X1186180Y683260D03*
X1160780Y683260D03*
D13*
X980380Y481410D03*
X1036380Y481410D03*
D14*
X993380Y518160D03*
X1003380Y518160D03*
X1013380Y518160D03*
X1023380Y518160D03*
D15*
X1579880Y481660D03*
D16*
X1579880Y681660D03*
D17*
X1527130Y489160D03*
D18*
X1534880Y478160D03*
X1534880Y685160D03*
D17*
X1602630Y491660D03*
X1527130Y494160D03*
X1602630Y496660D03*
X1527130Y499160D03*
X1602630Y501660D03*
X1527130Y504160D03*
X1602630Y506660D03*
X1527130Y509160D03*
X1602630Y511660D03*
X1527130Y514160D03*
X1602630Y516660D03*
X1527130Y519160D03*
X1602630Y521660D03*
X1527130Y524160D03*
X1602630Y526660D03*
X1527130Y529160D03*
X1602630Y531660D03*
X1527130Y534160D03*
X1602630Y536660D03*
X1527130Y539160D03*
X1602630Y541660D03*
X1527130Y544160D03*
X1602630Y566660D03*
X1527130Y569160D03*
X1602630Y571660D03*
X1527130Y574160D03*
X1602630Y576660D03*
X1527130Y579160D03*
X1602630Y581660D03*
X1527130Y584160D03*
X1602630Y586660D03*
X1527130Y589160D03*
X1602630Y591660D03*
X1527130Y594160D03*
X1602630Y596660D03*
X1527130Y599160D03*
X1602630Y601660D03*
X1527130Y604160D03*
X1602630Y606660D03*
X1527130Y609160D03*
X1602630Y611660D03*
X1527130Y614160D03*
X1602630Y616660D03*
X1527130Y619160D03*
X1602630Y621660D03*
X1527130Y624160D03*
X1602630Y626660D03*
X1527130Y629160D03*
X1602630Y631660D03*
X1527130Y634160D03*
X1602630Y636660D03*
X1527130Y639160D03*
X1602630Y641660D03*
X1527130Y644160D03*
X1602630Y646660D03*
X1527130Y649160D03*
X1602630Y651660D03*
X1527130Y654160D03*
X1602630Y656660D03*
X1527130Y659160D03*
X1602630Y661660D03*
X1527130Y664160D03*
X1602630Y666660D03*
X1527130Y669160D03*
X1602630Y671660D03*
X1527130Y674160D03*
D10*
X1209040Y628260D03*
X1209040Y611260D03*
X1313180Y560460D03*
X1313180Y577460D03*
X1287780Y560460D03*
X1287780Y577460D03*
X1363980Y577460D03*
X1363980Y560460D03*
D19*
X1331080Y578860D03*
X1336080Y578860D03*
X1341080Y578860D03*
X1346080Y578860D03*
X1346080Y558860D03*
X1341080Y558860D03*
X1336080Y558860D03*
X1331080Y558860D03*
D20*
X1338580Y568960D03*
D21*
X1043280Y620061D03*
X1033780Y620061D03*
X1024280Y620061D03*
X1024280Y594059D03*
X1043280Y594059D03*
D10*
X1224280Y628260D03*
X1224280Y611260D03*
X1193800Y628260D03*
X1193800Y611260D03*
X1178560Y611260D03*
X1178560Y628260D03*
D22*
X1821180Y518160D03*
D23*
X944880Y670560D03*
X1478280Y670560D03*
X1478280Y492760D03*
X944880Y492760D03*
D24*
X1779270Y542290D03*
D25*
X1239930Y555210D03*
X1246430Y555210D03*
X1252930Y555210D03*
X1259430Y555210D03*
X1259430Y582710D03*
X1252930Y582710D03*
X1246430Y582710D03*
X1239930Y582710D03*
D26*
X1249680Y568960D03*
D10*
X1211580Y560460D03*
X1211580Y577460D03*
X1254760Y611260D03*
X1254760Y628260D03*
X1239520Y611260D03*
X1239520Y628260D03*
D27*
X1305760Y623250D02*
X1305760Y616270D01*
X1305760Y623250D02*
X1312740Y623250D01*
X1312740Y616270D01*
X1305760Y616270D01*
X1305760Y621070D02*
X1312740Y621070D01*
X1288220Y623250D02*
X1288220Y616270D01*
X1288220Y623250D02*
X1295200Y623250D01*
X1295200Y616270D01*
X1288220Y616270D01*
X1288220Y621070D02*
X1295200Y621070D01*
X1356560Y623250D02*
X1356560Y616270D01*
X1356560Y623250D02*
X1363540Y623250D01*
X1363540Y616270D01*
X1356560Y616270D01*
X1356560Y621070D02*
X1363540Y621070D01*
X1339020Y623250D02*
X1339020Y616270D01*
X1339020Y623250D02*
X1346000Y623250D01*
X1346000Y616270D01*
X1339020Y616270D01*
X1339020Y621070D02*
X1346000Y621070D01*
D28*
X1399540Y626110D03*
X1455420Y626110D03*
X1399540Y588010D03*
X1455420Y588010D03*
D29*
X979580Y574160D03*
X979580Y579160D03*
D30*
X979580Y549410D03*
X979580Y557160D03*
D29*
X979580Y564160D03*
X979580Y569160D03*
X979580Y589160D03*
X979580Y584160D03*
D30*
X979580Y613910D03*
X979580Y606160D03*
D29*
X979580Y599160D03*
X979580Y594160D03*
D31*
X968530Y610560D03*
X968530Y552760D03*
D21*
X1144880Y581961D03*
X1135380Y581961D03*
X1125880Y581961D03*
X1125880Y555959D03*
X1144880Y555959D03*
D10*
X1148080Y628260D03*
X1148080Y611260D03*
X1191260Y577460D03*
X1191260Y560460D03*
D27*
X1179510Y563680D02*
X1172530Y563680D01*
X1179510Y563680D02*
X1179510Y556700D01*
X1172530Y556700D01*
X1172530Y563680D01*
X1172530Y561500D02*
X1179510Y561500D01*
X1179510Y581220D02*
X1172530Y581220D01*
X1179510Y581220D02*
X1179510Y574240D01*
X1172530Y574240D01*
X1172530Y581220D01*
X1172530Y579040D02*
X1179510Y579040D01*
D10*
X1160780Y577460D03*
X1160780Y560460D03*
D32*
X1087280Y620860D03*
X1107280Y620860D03*
D33*
X1063280Y672860D03*
X1131280Y672860D03*
D34*
X1694180Y499110D03*
X1706880Y499110D03*
X1719580Y499110D03*
X1732280Y499110D03*
X1681480Y499110D03*
X1694180Y486410D03*
X1706880Y486410D03*
X1719580Y486410D03*
X1732280Y486410D03*
X1681480Y486410D03*
D28*
X1399540Y570230D03*
X1455420Y570230D03*
X1399540Y532130D03*
X1455420Y532130D03*
D22*
X932180Y645160D03*
D35*
X990600Y674624D03*
X990600Y666496D03*
D36*
X1023620Y684600D03*
X1023620Y661600D03*
X1041400Y684600D03*
X1041400Y661600D03*
D37*
X1074420Y571500D03*
X1064260Y571500D03*
D38*
X1082040Y571500D03*
X1056640Y571500D03*
D10*
X243840Y861940D03*
X243840Y844940D03*
D11*
X110100Y789940D03*
X93100Y789940D03*
D12*
X520700Y713740D03*
X495300Y713740D03*
X469900Y713740D03*
X444500Y713740D03*
X419100Y713740D03*
X393700Y713740D03*
X368300Y713740D03*
X342900Y713740D03*
X317500Y713740D03*
X292100Y713740D03*
X266700Y713740D03*
X241300Y713740D03*
X215900Y713740D03*
X190500Y713740D03*
X165100Y713740D03*
X139700Y713740D03*
X520700Y916940D03*
X495300Y916940D03*
X469900Y916940D03*
X444500Y916940D03*
X419100Y916940D03*
X393700Y916940D03*
X368300Y916940D03*
X342900Y916940D03*
X317500Y916940D03*
X292100Y916940D03*
X266700Y916940D03*
X241300Y916940D03*
D13*
X60900Y715090D03*
X116900Y715090D03*
D14*
X73900Y751840D03*
X83900Y751840D03*
X93900Y751840D03*
X103900Y751840D03*
D15*
X660400Y715340D03*
D16*
X660400Y915340D03*
D17*
X607650Y722840D03*
D18*
X615400Y711840D03*
X615400Y918840D03*
D17*
X683150Y725340D03*
X607650Y727840D03*
X683150Y730340D03*
X607650Y732840D03*
X683150Y735340D03*
X607650Y737840D03*
X683150Y740340D03*
X607650Y742840D03*
X683150Y745340D03*
X607650Y747840D03*
X683150Y750340D03*
X607650Y752840D03*
X683150Y755340D03*
X607650Y757840D03*
X683150Y760340D03*
X607650Y762840D03*
X683150Y765340D03*
X607650Y767840D03*
X683150Y770340D03*
X607650Y772840D03*
X683150Y775340D03*
X607650Y777840D03*
X683150Y800340D03*
X607650Y802840D03*
X683150Y805340D03*
X607650Y807840D03*
X683150Y810340D03*
X607650Y812840D03*
X683150Y815340D03*
X607650Y817840D03*
X683150Y820340D03*
X607650Y822840D03*
X683150Y825340D03*
X607650Y827840D03*
X683150Y830340D03*
X607650Y832840D03*
X683150Y835340D03*
X607650Y837840D03*
X683150Y840340D03*
X607650Y842840D03*
X683150Y845340D03*
X607650Y847840D03*
X683150Y850340D03*
X607650Y852840D03*
X683150Y855340D03*
X607650Y857840D03*
X683150Y860340D03*
X607650Y862840D03*
X683150Y865340D03*
X607650Y867840D03*
X683150Y870340D03*
X607650Y872840D03*
X683150Y875340D03*
X607650Y877840D03*
X683150Y880340D03*
X607650Y882840D03*
X683150Y885340D03*
X607650Y887840D03*
X683150Y890340D03*
X607650Y892840D03*
X683150Y895340D03*
X607650Y897840D03*
X683150Y900340D03*
X607650Y902840D03*
X683150Y905340D03*
X607650Y907840D03*
D10*
X289560Y861940D03*
X289560Y844940D03*
X393700Y794140D03*
X393700Y811140D03*
X368300Y794140D03*
X368300Y811140D03*
X444500Y811140D03*
X444500Y794140D03*
D19*
X411600Y812540D03*
X416600Y812540D03*
X421600Y812540D03*
X426600Y812540D03*
X426600Y792540D03*
X421600Y792540D03*
X416600Y792540D03*
X411600Y792540D03*
D20*
X419100Y802640D03*
D21*
X123800Y853741D03*
X114300Y853741D03*
X104800Y853741D03*
X104800Y827739D03*
X123800Y827739D03*
D10*
X304800Y861940D03*
X304800Y844940D03*
X274320Y861940D03*
X274320Y844940D03*
X259080Y844940D03*
X259080Y861940D03*
D22*
X901700Y751840D03*
D23*
X25400Y904240D03*
X558800Y904240D03*
X558800Y726440D03*
X25400Y726440D03*
D24*
X859790Y775970D03*
D25*
X320450Y788890D03*
X326950Y788890D03*
X333450Y788890D03*
X339950Y788890D03*
X339950Y816390D03*
X333450Y816390D03*
X326950Y816390D03*
X320450Y816390D03*
D26*
X330200Y802640D03*
D10*
X292100Y794140D03*
X292100Y811140D03*
X335280Y844940D03*
X335280Y861940D03*
X320040Y844940D03*
X320040Y861940D03*
D27*
X386280Y856930D02*
X386280Y849950D01*
X386280Y856930D02*
X393260Y856930D01*
X393260Y849950D01*
X386280Y849950D01*
X386280Y854750D02*
X393260Y854750D01*
X368740Y856930D02*
X368740Y849950D01*
X368740Y856930D02*
X375720Y856930D01*
X375720Y849950D01*
X368740Y849950D01*
X368740Y854750D02*
X375720Y854750D01*
X437080Y856930D02*
X437080Y849950D01*
X437080Y856930D02*
X444060Y856930D01*
X444060Y849950D01*
X437080Y849950D01*
X437080Y854750D02*
X444060Y854750D01*
X419540Y856930D02*
X419540Y849950D01*
X419540Y856930D02*
X426520Y856930D01*
X426520Y849950D01*
X419540Y849950D01*
X419540Y854750D02*
X426520Y854750D01*
D28*
X480060Y859790D03*
X535940Y859790D03*
X480060Y821690D03*
X535940Y821690D03*
D29*
X60100Y807840D03*
X60100Y812840D03*
D30*
X60100Y783090D03*
X60100Y790840D03*
D29*
X60100Y797840D03*
X60100Y802840D03*
X60100Y822840D03*
X60100Y817840D03*
D30*
X60100Y847590D03*
X60100Y839840D03*
D29*
X60100Y832840D03*
X60100Y827840D03*
D31*
X49050Y844240D03*
X49050Y786440D03*
D21*
X225400Y815641D03*
X215900Y815641D03*
X206400Y815641D03*
X206400Y789639D03*
X225400Y789639D03*
D10*
X228600Y861940D03*
X228600Y844940D03*
X271780Y811140D03*
X271780Y794140D03*
D27*
X260030Y797360D02*
X253050Y797360D01*
X260030Y797360D02*
X260030Y790380D01*
X253050Y790380D01*
X253050Y797360D01*
X253050Y795180D02*
X260030Y795180D01*
X260030Y814900D02*
X253050Y814900D01*
X260030Y814900D02*
X260030Y807920D01*
X253050Y807920D01*
X253050Y814900D01*
X253050Y812720D02*
X260030Y812720D01*
D10*
X241300Y811140D03*
X241300Y794140D03*
D32*
X167800Y854540D03*
X187800Y854540D03*
D33*
X143800Y906540D03*
X211800Y906540D03*
D34*
X774700Y732790D03*
X787400Y732790D03*
X800100Y732790D03*
X812800Y732790D03*
X762000Y732790D03*
X774700Y720090D03*
X787400Y720090D03*
X800100Y720090D03*
X812800Y720090D03*
X762000Y720090D03*
D28*
X480060Y803910D03*
X535940Y803910D03*
X480060Y765810D03*
X535940Y765810D03*
D22*
X12700Y878840D03*
D35*
X71120Y908304D03*
X71120Y900176D03*
D36*
X104140Y918280D03*
X104140Y895280D03*
X121920Y918280D03*
X121920Y895280D03*
D37*
X154940Y805180D03*
X144780Y805180D03*
D38*
X162560Y805180D03*
X137160Y805180D03*
D10*
X1163320Y861940D03*
X1163320Y844940D03*
D11*
X1029580Y789940D03*
X1012580Y789940D03*
D12*
X1440180Y713740D03*
X1414780Y713740D03*
X1389380Y713740D03*
X1363980Y713740D03*
X1338580Y713740D03*
X1313180Y713740D03*
X1287780Y713740D03*
X1262380Y713740D03*
X1236980Y713740D03*
X1211580Y713740D03*
X1186180Y713740D03*
X1160780Y713740D03*
X1135380Y713740D03*
X1109980Y713740D03*
X1084580Y713740D03*
X1059180Y713740D03*
X1440180Y916940D03*
X1414780Y916940D03*
X1389380Y916940D03*
X1363980Y916940D03*
X1338580Y916940D03*
X1313180Y916940D03*
X1287780Y916940D03*
X1262380Y916940D03*
X1236980Y916940D03*
X1211580Y916940D03*
X1186180Y916940D03*
X1160780Y916940D03*
D13*
X980380Y715090D03*
X1036380Y715090D03*
D14*
X993380Y751840D03*
X1003380Y751840D03*
X1013380Y751840D03*
X1023380Y751840D03*
D15*
X1579880Y715340D03*
D16*
X1579880Y915340D03*
D17*
X1527130Y722840D03*
D18*
X1534880Y711840D03*
X1534880Y918840D03*
D17*
X1602630Y725340D03*
X1527130Y727840D03*
X1602630Y730340D03*
X1527130Y732840D03*
X1602630Y735340D03*
X1527130Y737840D03*
X1602630Y740340D03*
X1527130Y742840D03*
X1602630Y745340D03*
X1527130Y747840D03*
X1602630Y750340D03*
X1527130Y752840D03*
X1602630Y755340D03*
X1527130Y757840D03*
X1602630Y760340D03*
X1527130Y762840D03*
X1602630Y765340D03*
X1527130Y767840D03*
X1602630Y770340D03*
X1527130Y772840D03*
X1602630Y775340D03*
X1527130Y777840D03*
X1602630Y800340D03*
X1527130Y802840D03*
X1602630Y805340D03*
X1527130Y807840D03*
X1602630Y810340D03*
X1527130Y812840D03*
X1602630Y815340D03*
X1527130Y817840D03*
X1602630Y820340D03*
X1527130Y822840D03*
X1602630Y825340D03*
X1527130Y827840D03*
X1602630Y830340D03*
X1527130Y832840D03*
X1602630Y835340D03*
X1527130Y837840D03*
X1602630Y840340D03*
X1527130Y842840D03*
X1602630Y845340D03*
X1527130Y847840D03*
X1602630Y850340D03*
X1527130Y852840D03*
X1602630Y855340D03*
X1527130Y857840D03*
X1602630Y860340D03*
X1527130Y862840D03*
X1602630Y865340D03*
X1527130Y867840D03*
X1602630Y870340D03*
X1527130Y872840D03*
X1602630Y875340D03*
X1527130Y877840D03*
X1602630Y880340D03*
X1527130Y882840D03*
X1602630Y885340D03*
X1527130Y887840D03*
X1602630Y890340D03*
X1527130Y892840D03*
X1602630Y895340D03*
X1527130Y897840D03*
X1602630Y900340D03*
X1527130Y902840D03*
X1602630Y905340D03*
X1527130Y907840D03*
D10*
X1209040Y861940D03*
X1209040Y844940D03*
X1313180Y794140D03*
X1313180Y811140D03*
X1287780Y794140D03*
X1287780Y811140D03*
X1363980Y811140D03*
X1363980Y794140D03*
D19*
X1331080Y812540D03*
X1336080Y812540D03*
X1341080Y812540D03*
X1346080Y812540D03*
X1346080Y792540D03*
X1341080Y792540D03*
X1336080Y792540D03*
X1331080Y792540D03*
D20*
X1338580Y802640D03*
D21*
X1043280Y853741D03*
X1033780Y853741D03*
X1024280Y853741D03*
X1024280Y827739D03*
X1043280Y827739D03*
D10*
X1224280Y861940D03*
X1224280Y844940D03*
X1193800Y861940D03*
X1193800Y844940D03*
X1178560Y844940D03*
X1178560Y861940D03*
D22*
X1821180Y751840D03*
D23*
X944880Y904240D03*
X1478280Y904240D03*
X1478280Y726440D03*
X944880Y726440D03*
D24*
X1779270Y775970D03*
D25*
X1239930Y788890D03*
X1246430Y788890D03*
X1252930Y788890D03*
X1259430Y788890D03*
X1259430Y816390D03*
X1252930Y816390D03*
X1246430Y816390D03*
X1239930Y816390D03*
D26*
X1249680Y802640D03*
D10*
X1211580Y794140D03*
X1211580Y811140D03*
X1254760Y844940D03*
X1254760Y861940D03*
X1239520Y844940D03*
X1239520Y861940D03*
D27*
X1305760Y856930D02*
X1305760Y849950D01*
X1305760Y856930D02*
X1312740Y856930D01*
X1312740Y849950D01*
X1305760Y849950D01*
X1305760Y854750D02*
X1312740Y854750D01*
X1288220Y856930D02*
X1288220Y849950D01*
X1288220Y856930D02*
X1295200Y856930D01*
X1295200Y849950D01*
X1288220Y849950D01*
X1288220Y854750D02*
X1295200Y854750D01*
X1356560Y856930D02*
X1356560Y849950D01*
X1356560Y856930D02*
X1363540Y856930D01*
X1363540Y849950D01*
X1356560Y849950D01*
X1356560Y854750D02*
X1363540Y854750D01*
X1339020Y856930D02*
X1339020Y849950D01*
X1339020Y856930D02*
X1346000Y856930D01*
X1346000Y849950D01*
X1339020Y849950D01*
X1339020Y854750D02*
X1346000Y854750D01*
D28*
X1399540Y859790D03*
X1455420Y859790D03*
X1399540Y821690D03*
X1455420Y821690D03*
D29*
X979580Y807840D03*
X979580Y812840D03*
D30*
X979580Y783090D03*
X979580Y790840D03*
D29*
X979580Y797840D03*
X979580Y802840D03*
X979580Y822840D03*
X979580Y817840D03*
D30*
X979580Y847590D03*
X979580Y839840D03*
D29*
X979580Y832840D03*
X979580Y827840D03*
D31*
X968530Y844240D03*
X968530Y786440D03*
D21*
X1144880Y815641D03*
X1135380Y815641D03*
X1125880Y815641D03*
X1125880Y789639D03*
X1144880Y789639D03*
D10*
X1148080Y861940D03*
X1148080Y844940D03*
X1191260Y811140D03*
X1191260Y794140D03*
D27*
X1179510Y797360D02*
X1172530Y797360D01*
X1179510Y797360D02*
X1179510Y790380D01*
X1172530Y790380D01*
X1172530Y797360D01*
X1172530Y795180D02*
X1179510Y795180D01*
X1179510Y814900D02*
X1172530Y814900D01*
X1179510Y814900D02*
X1179510Y807920D01*
X1172530Y807920D01*
X1172530Y814900D01*
X1172530Y812720D02*
X1179510Y812720D01*
D10*
X1160780Y811140D03*
X1160780Y794140D03*
D32*
X1087280Y854540D03*
X1107280Y854540D03*
D33*
X1063280Y906540D03*
X1131280Y906540D03*
D34*
X1694180Y732790D03*
X1706880Y732790D03*
X1719580Y732790D03*
X1732280Y732790D03*
X1681480Y732790D03*
X1694180Y720090D03*
X1706880Y720090D03*
X1719580Y720090D03*
X1732280Y720090D03*
X1681480Y720090D03*
D28*
X1399540Y803910D03*
X1455420Y803910D03*
X1399540Y765810D03*
X1455420Y765810D03*
D22*
X932180Y878840D03*
D35*
X990600Y908304D03*
X990600Y900176D03*
D36*
X1023620Y918280D03*
X1023620Y895280D03*
X1041400Y918280D03*
X1041400Y895280D03*
D37*
X1074420Y805180D03*
X1064260Y805180D03*
D38*
X1082040Y805180D03*
X1056640Y805180D03*
D10*
X243840Y1095620D03*
X243840Y1078620D03*
D11*
X110100Y1023620D03*
X93100Y1023620D03*
D12*
X520700Y947420D03*
X495300Y947420D03*
X469900Y947420D03*
X444500Y947420D03*
X419100Y947420D03*
X393700Y947420D03*
X368300Y947420D03*
X342900Y947420D03*
X317500Y947420D03*
X292100Y947420D03*
X266700Y947420D03*
X241300Y947420D03*
X215900Y947420D03*
X190500Y947420D03*
X165100Y947420D03*
X139700Y947420D03*
X520700Y1150620D03*
X495300Y1150620D03*
X469900Y1150620D03*
X444500Y1150620D03*
X419100Y1150620D03*
X393700Y1150620D03*
X368300Y1150620D03*
X342900Y1150620D03*
X317500Y1150620D03*
X292100Y1150620D03*
X266700Y1150620D03*
X241300Y1150620D03*
D13*
X60900Y948770D03*
X116900Y948770D03*
D14*
X73900Y985520D03*
X83900Y985520D03*
X93900Y985520D03*
X103900Y985520D03*
D15*
X660400Y949020D03*
D16*
X660400Y1149020D03*
D17*
X607650Y956520D03*
D18*
X615400Y945520D03*
X615400Y1152520D03*
D17*
X683150Y959020D03*
X607650Y961520D03*
X683150Y964020D03*
X607650Y966520D03*
X683150Y969020D03*
X607650Y971520D03*
X683150Y974020D03*
X607650Y976520D03*
X683150Y979020D03*
X607650Y981520D03*
X683150Y984020D03*
X607650Y986520D03*
X683150Y989020D03*
X607650Y991520D03*
X683150Y994020D03*
X607650Y996520D03*
X683150Y999020D03*
X607650Y1001520D03*
X683150Y1004020D03*
X607650Y1006520D03*
X683150Y1009020D03*
X607650Y1011520D03*
X683150Y1034020D03*
X607650Y1036520D03*
X683150Y1039020D03*
X607650Y1041520D03*
X683150Y1044020D03*
X607650Y1046520D03*
X683150Y1049020D03*
X607650Y1051520D03*
X683150Y1054020D03*
X607650Y1056520D03*
X683150Y1059020D03*
X607650Y1061520D03*
X683150Y1064020D03*
X607650Y1066520D03*
X683150Y1069020D03*
X607650Y1071520D03*
X683150Y1074020D03*
X607650Y1076520D03*
X683150Y1079020D03*
X607650Y1081520D03*
X683150Y1084020D03*
X607650Y1086520D03*
X683150Y1089020D03*
X607650Y1091520D03*
X683150Y1094020D03*
X607650Y1096520D03*
X683150Y1099020D03*
X607650Y1101520D03*
X683150Y1104020D03*
X607650Y1106520D03*
X683150Y1109020D03*
X607650Y1111520D03*
X683150Y1114020D03*
X607650Y1116520D03*
X683150Y1119020D03*
X607650Y1121520D03*
X683150Y1124020D03*
X607650Y1126520D03*
X683150Y1129020D03*
X607650Y1131520D03*
X683150Y1134020D03*
X607650Y1136520D03*
X683150Y1139020D03*
X607650Y1141520D03*
D10*
X289560Y1095620D03*
X289560Y1078620D03*
X393700Y1027820D03*
X393700Y1044820D03*
X368300Y1027820D03*
X368300Y1044820D03*
X444500Y1044820D03*
X444500Y1027820D03*
D19*
X411600Y1046220D03*
X416600Y1046220D03*
X421600Y1046220D03*
X426600Y1046220D03*
X426600Y1026220D03*
X421600Y1026220D03*
X416600Y1026220D03*
X411600Y1026220D03*
D20*
X419100Y1036320D03*
D21*
X123800Y1087421D03*
X114300Y1087421D03*
X104800Y1087421D03*
X104800Y1061419D03*
X123800Y1061419D03*
D10*
X304800Y1095620D03*
X304800Y1078620D03*
X274320Y1095620D03*
X274320Y1078620D03*
X259080Y1078620D03*
X259080Y1095620D03*
D22*
X901700Y985520D03*
D23*
X25400Y1137920D03*
X558800Y1137920D03*
X558800Y960120D03*
X25400Y960120D03*
D24*
X859790Y1009650D03*
D25*
X320450Y1022570D03*
X326950Y1022570D03*
X333450Y1022570D03*
X339950Y1022570D03*
X339950Y1050070D03*
X333450Y1050070D03*
X326950Y1050070D03*
X320450Y1050070D03*
D26*
X330200Y1036320D03*
D10*
X292100Y1027820D03*
X292100Y1044820D03*
X335280Y1078620D03*
X335280Y1095620D03*
X320040Y1078620D03*
X320040Y1095620D03*
D27*
X386280Y1090610D02*
X386280Y1083630D01*
X386280Y1090610D02*
X393260Y1090610D01*
X393260Y1083630D01*
X386280Y1083630D01*
X386280Y1088430D02*
X393260Y1088430D01*
X368740Y1090610D02*
X368740Y1083630D01*
X368740Y1090610D02*
X375720Y1090610D01*
X375720Y1083630D01*
X368740Y1083630D01*
X368740Y1088430D02*
X375720Y1088430D01*
X437080Y1090610D02*
X437080Y1083630D01*
X437080Y1090610D02*
X444060Y1090610D01*
X444060Y1083630D01*
X437080Y1083630D01*
X437080Y1088430D02*
X444060Y1088430D01*
X419540Y1090610D02*
X419540Y1083630D01*
X419540Y1090610D02*
X426520Y1090610D01*
X426520Y1083630D01*
X419540Y1083630D01*
X419540Y1088430D02*
X426520Y1088430D01*
D28*
X480060Y1093470D03*
X535940Y1093470D03*
X480060Y1055370D03*
X535940Y1055370D03*
D29*
X60100Y1041520D03*
X60100Y1046520D03*
D30*
X60100Y1016770D03*
X60100Y1024520D03*
D29*
X60100Y1031520D03*
X60100Y1036520D03*
X60100Y1056520D03*
X60100Y1051520D03*
D30*
X60100Y1081270D03*
X60100Y1073520D03*
D29*
X60100Y1066520D03*
X60100Y1061520D03*
D31*
X49050Y1077920D03*
X49050Y1020120D03*
D21*
X225400Y1049321D03*
X215900Y1049321D03*
X206400Y1049321D03*
X206400Y1023319D03*
X225400Y1023319D03*
D10*
X228600Y1095620D03*
X228600Y1078620D03*
X271780Y1044820D03*
X271780Y1027820D03*
D27*
X260030Y1031040D02*
X253050Y1031040D01*
X260030Y1031040D02*
X260030Y1024060D01*
X253050Y1024060D01*
X253050Y1031040D01*
X253050Y1028860D02*
X260030Y1028860D01*
X260030Y1048580D02*
X253050Y1048580D01*
X260030Y1048580D02*
X260030Y1041600D01*
X253050Y1041600D01*
X253050Y1048580D01*
X253050Y1046400D02*
X260030Y1046400D01*
D10*
X241300Y1044820D03*
X241300Y1027820D03*
D32*
X167800Y1088220D03*
X187800Y1088220D03*
D33*
X143800Y1140220D03*
X211800Y1140220D03*
D34*
X774700Y966470D03*
X787400Y966470D03*
X800100Y966470D03*
X812800Y966470D03*
X762000Y966470D03*
X774700Y953770D03*
X787400Y953770D03*
X800100Y953770D03*
X812800Y953770D03*
X762000Y953770D03*
D28*
X480060Y1037590D03*
X535940Y1037590D03*
X480060Y999490D03*
X535940Y999490D03*
D22*
X12700Y1112520D03*
D35*
X71120Y1141984D03*
X71120Y1133856D03*
D36*
X104140Y1151960D03*
X104140Y1128960D03*
X121920Y1151960D03*
X121920Y1128960D03*
D37*
X154940Y1038860D03*
X144780Y1038860D03*
D38*
X162560Y1038860D03*
X137160Y1038860D03*
D10*
X1163320Y1095620D03*
X1163320Y1078620D03*
D11*
X1029580Y1023620D03*
X1012580Y1023620D03*
D12*
X1440180Y947420D03*
X1414780Y947420D03*
X1389380Y947420D03*
X1363980Y947420D03*
X1338580Y947420D03*
X1313180Y947420D03*
X1287780Y947420D03*
X1262380Y947420D03*
X1236980Y947420D03*
X1211580Y947420D03*
X1186180Y947420D03*
X1160780Y947420D03*
X1135380Y947420D03*
X1109980Y947420D03*
X1084580Y947420D03*
X1059180Y947420D03*
X1440180Y1150620D03*
X1414780Y1150620D03*
X1389380Y1150620D03*
X1363980Y1150620D03*
X1338580Y1150620D03*
X1313180Y1150620D03*
X1287780Y1150620D03*
X1262380Y1150620D03*
X1236980Y1150620D03*
X1211580Y1150620D03*
X1186180Y1150620D03*
X1160780Y1150620D03*
D13*
X980380Y948770D03*
X1036380Y948770D03*
D14*
X993380Y985520D03*
X1003380Y985520D03*
X1013380Y985520D03*
X1023380Y985520D03*
D15*
X1579880Y949020D03*
D16*
X1579880Y1149020D03*
D17*
X1527130Y956520D03*
D18*
X1534880Y945520D03*
X1534880Y1152520D03*
D17*
X1602630Y959020D03*
X1527130Y961520D03*
X1602630Y964020D03*
X1527130Y966520D03*
X1602630Y969020D03*
X1527130Y971520D03*
X1602630Y974020D03*
X1527130Y976520D03*
X1602630Y979020D03*
X1527130Y981520D03*
X1602630Y984020D03*
X1527130Y986520D03*
X1602630Y989020D03*
X1527130Y991520D03*
X1602630Y994020D03*
X1527130Y996520D03*
X1602630Y999020D03*
X1527130Y1001520D03*
X1602630Y1004020D03*
X1527130Y1006520D03*
X1602630Y1009020D03*
X1527130Y1011520D03*
X1602630Y1034020D03*
X1527130Y1036520D03*
X1602630Y1039020D03*
X1527130Y1041520D03*
X1602630Y1044020D03*
X1527130Y1046520D03*
X1602630Y1049020D03*
X1527130Y1051520D03*
X1602630Y1054020D03*
X1527130Y1056520D03*
X1602630Y1059020D03*
X1527130Y1061520D03*
X1602630Y1064020D03*
X1527130Y1066520D03*
X1602630Y1069020D03*
X1527130Y1071520D03*
X1602630Y1074020D03*
X1527130Y1076520D03*
X1602630Y1079020D03*
X1527130Y1081520D03*
X1602630Y1084020D03*
X1527130Y1086520D03*
X1602630Y1089020D03*
X1527130Y1091520D03*
X1602630Y1094020D03*
X1527130Y1096520D03*
X1602630Y1099020D03*
X1527130Y1101520D03*
X1602630Y1104020D03*
X1527130Y1106520D03*
X1602630Y1109020D03*
X1527130Y1111520D03*
X1602630Y1114020D03*
X1527130Y1116520D03*
X1602630Y1119020D03*
X1527130Y1121520D03*
X1602630Y1124020D03*
X1527130Y1126520D03*
X1602630Y1129020D03*
X1527130Y1131520D03*
X1602630Y1134020D03*
X1527130Y1136520D03*
X1602630Y1139020D03*
X1527130Y1141520D03*
D10*
X1209040Y1095620D03*
X1209040Y1078620D03*
X1313180Y1027820D03*
X1313180Y1044820D03*
X1287780Y1027820D03*
X1287780Y1044820D03*
X1363980Y1044820D03*
X1363980Y1027820D03*
D19*
X1331080Y1046220D03*
X1336080Y1046220D03*
X1341080Y1046220D03*
X1346080Y1046220D03*
X1346080Y1026220D03*
X1341080Y1026220D03*
X1336080Y1026220D03*
X1331080Y1026220D03*
D20*
X1338580Y1036320D03*
D21*
X1043280Y1087421D03*
X1033780Y1087421D03*
X1024280Y1087421D03*
X1024280Y1061419D03*
X1043280Y1061419D03*
D10*
X1224280Y1095620D03*
X1224280Y1078620D03*
X1193800Y1095620D03*
X1193800Y1078620D03*
X1178560Y1078620D03*
X1178560Y1095620D03*
D22*
X1821180Y985520D03*
D23*
X944880Y1137920D03*
X1478280Y1137920D03*
X1478280Y960120D03*
X944880Y960120D03*
D24*
X1779270Y1009650D03*
D25*
X1239930Y1022570D03*
X1246430Y1022570D03*
X1252930Y1022570D03*
X1259430Y1022570D03*
X1259430Y1050070D03*
X1252930Y1050070D03*
X1246430Y1050070D03*
X1239930Y1050070D03*
D26*
X1249680Y1036320D03*
D10*
X1211580Y1027820D03*
X1211580Y1044820D03*
X1254760Y1078620D03*
X1254760Y1095620D03*
X1239520Y1078620D03*
X1239520Y1095620D03*
D27*
X1305760Y1090610D02*
X1305760Y1083630D01*
X1305760Y1090610D02*
X1312740Y1090610D01*
X1312740Y1083630D01*
X1305760Y1083630D01*
X1305760Y1088430D02*
X1312740Y1088430D01*
X1288220Y1090610D02*
X1288220Y1083630D01*
X1288220Y1090610D02*
X1295200Y1090610D01*
X1295200Y1083630D01*
X1288220Y1083630D01*
X1288220Y1088430D02*
X1295200Y1088430D01*
X1356560Y1090610D02*
X1356560Y1083630D01*
X1356560Y1090610D02*
X1363540Y1090610D01*
X1363540Y1083630D01*
X1356560Y1083630D01*
X1356560Y1088430D02*
X1363540Y1088430D01*
X1339020Y1090610D02*
X1339020Y1083630D01*
X1339020Y1090610D02*
X1346000Y1090610D01*
X1346000Y1083630D01*
X1339020Y1083630D01*
X1339020Y1088430D02*
X1346000Y1088430D01*
D28*
X1399540Y1093470D03*
X1455420Y1093470D03*
X1399540Y1055370D03*
X1455420Y1055370D03*
D29*
X979580Y1041520D03*
X979580Y1046520D03*
D30*
X979580Y1016770D03*
X979580Y1024520D03*
D29*
X979580Y1031520D03*
X979580Y1036520D03*
X979580Y1056520D03*
X979580Y1051520D03*
D30*
X979580Y1081270D03*
X979580Y1073520D03*
D29*
X979580Y1066520D03*
X979580Y1061520D03*
D31*
X968530Y1077920D03*
X968530Y1020120D03*
D21*
X1144880Y1049321D03*
X1135380Y1049321D03*
X1125880Y1049321D03*
X1125880Y1023319D03*
X1144880Y1023319D03*
D10*
X1148080Y1095620D03*
X1148080Y1078620D03*
X1191260Y1044820D03*
X1191260Y1027820D03*
D27*
X1179510Y1031040D02*
X1172530Y1031040D01*
X1179510Y1031040D02*
X1179510Y1024060D01*
X1172530Y1024060D01*
X1172530Y1031040D01*
X1172530Y1028860D02*
X1179510Y1028860D01*
X1179510Y1048580D02*
X1172530Y1048580D01*
X1179510Y1048580D02*
X1179510Y1041600D01*
X1172530Y1041600D01*
X1172530Y1048580D01*
X1172530Y1046400D02*
X1179510Y1046400D01*
D10*
X1160780Y1044820D03*
X1160780Y1027820D03*
D32*
X1087280Y1088220D03*
X1107280Y1088220D03*
D33*
X1063280Y1140220D03*
X1131280Y1140220D03*
D34*
X1694180Y966470D03*
X1706880Y966470D03*
X1719580Y966470D03*
X1732280Y966470D03*
X1681480Y966470D03*
X1694180Y953770D03*
X1706880Y953770D03*
X1719580Y953770D03*
X1732280Y953770D03*
X1681480Y953770D03*
D28*
X1399540Y1037590D03*
X1455420Y1037590D03*
X1399540Y999490D03*
X1455420Y999490D03*
D22*
X932180Y1112520D03*
D35*
X990600Y1141984D03*
X990600Y1133856D03*
D36*
X1023620Y1151960D03*
X1023620Y1128960D03*
X1041400Y1151960D03*
X1041400Y1128960D03*
D37*
X1074420Y1038860D03*
X1064260Y1038860D03*
D38*
X1082040Y1038860D03*
X1056640Y1038860D03*
D34*
X68580Y1184275D03*
X1764665Y1184275D03*
D39*
X59525Y-20955D02*
X59528Y-20733D01*
X59536Y-20511D01*
X59550Y-20289D01*
X59569Y-20067D01*
X59593Y-19847D01*
X59623Y-19626D01*
X59658Y-19407D01*
X59699Y-19188D01*
X59745Y-18971D01*
X59796Y-18755D01*
X59853Y-18540D01*
X59915Y-18326D01*
X59982Y-18115D01*
X60054Y-17904D01*
X60132Y-17696D01*
X60214Y-17490D01*
X60302Y-17286D01*
X60394Y-17083D01*
X60492Y-16884D01*
X60594Y-16687D01*
X60701Y-16492D01*
X60813Y-16300D01*
X60930Y-16111D01*
X61051Y-15924D01*
X61177Y-15741D01*
X61307Y-15561D01*
X61442Y-15384D01*
X61580Y-15211D01*
X61723Y-15041D01*
X61871Y-14874D01*
X62022Y-14711D01*
X62177Y-14552D01*
X62336Y-14397D01*
X62499Y-14246D01*
X62666Y-14098D01*
X62836Y-13955D01*
X63009Y-13817D01*
X63186Y-13682D01*
X63366Y-13552D01*
X63549Y-13426D01*
X63736Y-13305D01*
X63925Y-13188D01*
X64117Y-13076D01*
X64312Y-12969D01*
X64509Y-12867D01*
X64708Y-12769D01*
X64911Y-12677D01*
X65115Y-12589D01*
X65321Y-12507D01*
X65529Y-12429D01*
X65740Y-12357D01*
X65951Y-12290D01*
X66165Y-12228D01*
X66380Y-12171D01*
X66596Y-12120D01*
X66813Y-12074D01*
X67032Y-12033D01*
X67251Y-11998D01*
X67472Y-11968D01*
X67692Y-11944D01*
X67914Y-11925D01*
X68136Y-11911D01*
X68358Y-11903D01*
X68580Y-11900D01*
X68802Y-11903D01*
X69024Y-11911D01*
X69246Y-11925D01*
X69468Y-11944D01*
X69688Y-11968D01*
X69909Y-11998D01*
X70128Y-12033D01*
X70347Y-12074D01*
X70564Y-12120D01*
X70780Y-12171D01*
X70995Y-12228D01*
X71209Y-12290D01*
X71420Y-12357D01*
X71631Y-12429D01*
X71839Y-12507D01*
X72045Y-12589D01*
X72249Y-12677D01*
X72452Y-12769D01*
X72651Y-12867D01*
X72848Y-12969D01*
X73043Y-13076D01*
X73235Y-13188D01*
X73424Y-13305D01*
X73611Y-13426D01*
X73794Y-13552D01*
X73974Y-13682D01*
X74151Y-13817D01*
X74324Y-13955D01*
X74494Y-14098D01*
X74661Y-14246D01*
X74824Y-14397D01*
X74983Y-14552D01*
X75138Y-14711D01*
X75289Y-14874D01*
X75437Y-15041D01*
X75580Y-15211D01*
X75718Y-15384D01*
X75853Y-15561D01*
X75983Y-15741D01*
X76109Y-15924D01*
X76230Y-16111D01*
X76347Y-16300D01*
X76459Y-16492D01*
X76566Y-16687D01*
X76668Y-16884D01*
X76766Y-17083D01*
X76858Y-17286D01*
X76946Y-17490D01*
X77028Y-17696D01*
X77106Y-17904D01*
X77178Y-18115D01*
X77245Y-18326D01*
X77307Y-18540D01*
X77364Y-18755D01*
X77415Y-18971D01*
X77461Y-19188D01*
X77502Y-19407D01*
X77537Y-19626D01*
X77567Y-19847D01*
X77591Y-20067D01*
X77610Y-20289D01*
X77624Y-20511D01*
X77632Y-20733D01*
X77635Y-20955D01*
X77632Y-21177D01*
X77624Y-21399D01*
X77610Y-21621D01*
X77591Y-21843D01*
X77567Y-22063D01*
X77537Y-22284D01*
X77502Y-22503D01*
X77461Y-22722D01*
X77415Y-22939D01*
X77364Y-23155D01*
X77307Y-23370D01*
X77245Y-23584D01*
X77178Y-23795D01*
X77106Y-24006D01*
X77028Y-24214D01*
X76946Y-24420D01*
X76858Y-24624D01*
X76766Y-24827D01*
X76668Y-25026D01*
X76566Y-25223D01*
X76459Y-25418D01*
X76347Y-25610D01*
X76230Y-25799D01*
X76109Y-25986D01*
X75983Y-26169D01*
X75853Y-26349D01*
X75718Y-26526D01*
X75580Y-26699D01*
X75437Y-26869D01*
X75289Y-27036D01*
X75138Y-27199D01*
X74983Y-27358D01*
X74824Y-27513D01*
X74661Y-27664D01*
X74494Y-27812D01*
X74324Y-27955D01*
X74151Y-28093D01*
X73974Y-28228D01*
X73794Y-28358D01*
X73611Y-28484D01*
X73424Y-28605D01*
X73235Y-28722D01*
X73043Y-28834D01*
X72848Y-28941D01*
X72651Y-29043D01*
X72452Y-29141D01*
X72249Y-29233D01*
X72045Y-29321D01*
X71839Y-29403D01*
X71631Y-29481D01*
X71420Y-29553D01*
X71209Y-29620D01*
X70995Y-29682D01*
X70780Y-29739D01*
X70564Y-29790D01*
X70347Y-29836D01*
X70128Y-29877D01*
X69909Y-29912D01*
X69688Y-29942D01*
X69468Y-29966D01*
X69246Y-29985D01*
X69024Y-29999D01*
X68802Y-30007D01*
X68580Y-30010D01*
X68358Y-30007D01*
X68136Y-29999D01*
X67914Y-29985D01*
X67692Y-29966D01*
X67472Y-29942D01*
X67251Y-29912D01*
X67032Y-29877D01*
X66813Y-29836D01*
X66596Y-29790D01*
X66380Y-29739D01*
X66165Y-29682D01*
X65951Y-29620D01*
X65740Y-29553D01*
X65529Y-29481D01*
X65321Y-29403D01*
X65115Y-29321D01*
X64911Y-29233D01*
X64708Y-29141D01*
X64509Y-29043D01*
X64312Y-28941D01*
X64117Y-28834D01*
X63925Y-28722D01*
X63736Y-28605D01*
X63549Y-28484D01*
X63366Y-28358D01*
X63186Y-28228D01*
X63009Y-28093D01*
X62836Y-27955D01*
X62666Y-27812D01*
X62499Y-27664D01*
X62336Y-27513D01*
X62177Y-27358D01*
X62022Y-27199D01*
X61871Y-27036D01*
X61723Y-26869D01*
X61580Y-26699D01*
X61442Y-26526D01*
X61307Y-26349D01*
X61177Y-26169D01*
X61051Y-25986D01*
X60930Y-25799D01*
X60813Y-25610D01*
X60701Y-25418D01*
X60594Y-25223D01*
X60492Y-25026D01*
X60394Y-24827D01*
X60302Y-24624D01*
X60214Y-24420D01*
X60132Y-24214D01*
X60054Y-24006D01*
X59982Y-23795D01*
X59915Y-23584D01*
X59853Y-23370D01*
X59796Y-23155D01*
X59745Y-22939D01*
X59699Y-22722D01*
X59658Y-22503D01*
X59623Y-22284D01*
X59593Y-22063D01*
X59569Y-21843D01*
X59550Y-21621D01*
X59536Y-21399D01*
X59528Y-21177D01*
X59525Y-20955D01*
D40*
X68580Y-20955D03*
M02*
