G04 EAGLE Gerber RS-274X export*
G75*
%MOMM*%
%FSLAX34Y34*%
%LPD*%
%INSolderpaste Top*%
%IPPOS*%
%AMOC8*
5,1,8,0,0,1.08239X$1,22.5*%
G01*
%ADD10R,1.000000X1.100000*%
%ADD11R,1.100000X1.000000*%
%ADD12R,1.200000X2.000000*%
%ADD13R,0.600000X1.350000*%
%ADD14R,2.750000X1.200000*%
%ADD15R,1.750000X0.300000*%
%ADD16R,0.250000X0.637500*%
%ADD17R,0.500000X0.640000*%
%ADD18R,0.550000X1.200000*%
%ADD19R,1.375000X0.800000*%
%ADD20R,0.300000X0.650000*%
%ADD21C,0.300000*%
%ADD22R,1.524000X0.762000*%
%ADD23R,1.000000X0.300000*%
%ADD24R,1.000000X0.600000*%
%ADD25R,1.000000X4.600000*%
%ADD26R,1.600000X3.400000*%
%ADD27R,0.830000X0.630000*%

G36*
X1775329Y979161D02*
X1775329Y979161D01*
X1775374Y979162D01*
X1775425Y979184D01*
X1775480Y979197D01*
X1775516Y979223D01*
X1775556Y979241D01*
X1775595Y979282D01*
X1775640Y979315D01*
X1775663Y979353D01*
X1775693Y979385D01*
X1775713Y979438D01*
X1775742Y979486D01*
X1775750Y979537D01*
X1775763Y979571D01*
X1775762Y979605D01*
X1775769Y979650D01*
X1775769Y990650D01*
X1775759Y990703D01*
X1775758Y990756D01*
X1775739Y990799D01*
X1775730Y990845D01*
X1775699Y990889D01*
X1775678Y990938D01*
X1775644Y990970D01*
X1775617Y991009D01*
X1775572Y991038D01*
X1775533Y991074D01*
X1775482Y991095D01*
X1775450Y991116D01*
X1775418Y991121D01*
X1775379Y991137D01*
X1772644Y991748D01*
X1770080Y992776D01*
X1767716Y994203D01*
X1765612Y995992D01*
X1763823Y998096D01*
X1762396Y1000460D01*
X1761368Y1003024D01*
X1760757Y1005759D01*
X1760735Y1005808D01*
X1760723Y1005860D01*
X1760695Y1005898D01*
X1760676Y1005940D01*
X1760637Y1005977D01*
X1760605Y1006020D01*
X1760565Y1006044D01*
X1760531Y1006076D01*
X1760480Y1006094D01*
X1760434Y1006122D01*
X1760380Y1006131D01*
X1760344Y1006144D01*
X1760312Y1006142D01*
X1760270Y1006149D01*
X1749270Y1006149D01*
X1749215Y1006138D01*
X1749159Y1006137D01*
X1749118Y1006118D01*
X1749075Y1006110D01*
X1749029Y1006078D01*
X1748978Y1006055D01*
X1748948Y1006022D01*
X1748911Y1005997D01*
X1748881Y1005950D01*
X1748843Y1005908D01*
X1748828Y1005867D01*
X1748804Y1005830D01*
X1748795Y1005774D01*
X1748776Y1005721D01*
X1748777Y1005669D01*
X1748771Y1005633D01*
X1748779Y1005601D01*
X1748779Y1005596D01*
X1748779Y1005594D01*
X1748779Y1005593D01*
X1748780Y1005555D01*
X1749619Y1001234D01*
X1749631Y1001205D01*
X1749639Y1001163D01*
X1751108Y997013D01*
X1751124Y996986D01*
X1751138Y996946D01*
X1753204Y993059D01*
X1753224Y993035D01*
X1753243Y992997D01*
X1755861Y989458D01*
X1755885Y989437D01*
X1755910Y989402D01*
X1759022Y986290D01*
X1759037Y986280D01*
X1759045Y986269D01*
X1759060Y986260D01*
X1759078Y986241D01*
X1762617Y983623D01*
X1762645Y983610D01*
X1762679Y983584D01*
X1766566Y981518D01*
X1766596Y981509D01*
X1766633Y981488D01*
X1770783Y980019D01*
X1770814Y980014D01*
X1770854Y979999D01*
X1775175Y979160D01*
X1775231Y979160D01*
X1775287Y979151D01*
X1775329Y979161D01*
G37*
G36*
X1775329Y278121D02*
X1775329Y278121D01*
X1775374Y278122D01*
X1775425Y278144D01*
X1775480Y278157D01*
X1775516Y278183D01*
X1775556Y278201D01*
X1775595Y278242D01*
X1775640Y278275D01*
X1775663Y278313D01*
X1775693Y278345D01*
X1775713Y278398D01*
X1775742Y278446D01*
X1775750Y278497D01*
X1775763Y278531D01*
X1775762Y278565D01*
X1775769Y278610D01*
X1775769Y289610D01*
X1775759Y289663D01*
X1775758Y289716D01*
X1775739Y289759D01*
X1775730Y289805D01*
X1775699Y289849D01*
X1775678Y289898D01*
X1775644Y289930D01*
X1775617Y289969D01*
X1775572Y289998D01*
X1775533Y290034D01*
X1775482Y290055D01*
X1775450Y290076D01*
X1775418Y290081D01*
X1775379Y290097D01*
X1772644Y290708D01*
X1770080Y291736D01*
X1767716Y293163D01*
X1765612Y294952D01*
X1763823Y297056D01*
X1762396Y299420D01*
X1761368Y301984D01*
X1760757Y304719D01*
X1760735Y304768D01*
X1760723Y304820D01*
X1760695Y304858D01*
X1760676Y304900D01*
X1760637Y304937D01*
X1760605Y304980D01*
X1760565Y305004D01*
X1760531Y305036D01*
X1760480Y305054D01*
X1760434Y305082D01*
X1760380Y305091D01*
X1760344Y305104D01*
X1760312Y305102D01*
X1760270Y305109D01*
X1749270Y305109D01*
X1749215Y305098D01*
X1749159Y305097D01*
X1749118Y305078D01*
X1749075Y305070D01*
X1749029Y305038D01*
X1748978Y305015D01*
X1748948Y304982D01*
X1748911Y304957D01*
X1748881Y304910D01*
X1748843Y304868D01*
X1748828Y304827D01*
X1748804Y304790D01*
X1748795Y304734D01*
X1748776Y304681D01*
X1748777Y304629D01*
X1748771Y304593D01*
X1748779Y304561D01*
X1748779Y304556D01*
X1748779Y304554D01*
X1748779Y304553D01*
X1748780Y304515D01*
X1749619Y300194D01*
X1749631Y300165D01*
X1749639Y300123D01*
X1751108Y295973D01*
X1751124Y295946D01*
X1751138Y295906D01*
X1753204Y292019D01*
X1753224Y291995D01*
X1753243Y291957D01*
X1755861Y288418D01*
X1755885Y288397D01*
X1755910Y288362D01*
X1759022Y285250D01*
X1759037Y285240D01*
X1759045Y285229D01*
X1759060Y285220D01*
X1759078Y285201D01*
X1762617Y282583D01*
X1762645Y282570D01*
X1762679Y282544D01*
X1766566Y280478D01*
X1766596Y280469D01*
X1766633Y280448D01*
X1770783Y278979D01*
X1770814Y278974D01*
X1770854Y278959D01*
X1775175Y278120D01*
X1775231Y278120D01*
X1775287Y278111D01*
X1775329Y278121D01*
G37*
G36*
X855849Y278121D02*
X855849Y278121D01*
X855894Y278122D01*
X855945Y278144D01*
X856000Y278157D01*
X856036Y278183D01*
X856076Y278201D01*
X856115Y278242D01*
X856160Y278275D01*
X856183Y278313D01*
X856213Y278345D01*
X856233Y278398D01*
X856262Y278446D01*
X856270Y278497D01*
X856283Y278531D01*
X856282Y278565D01*
X856289Y278610D01*
X856289Y289610D01*
X856279Y289663D01*
X856278Y289716D01*
X856259Y289759D01*
X856250Y289805D01*
X856219Y289849D01*
X856198Y289898D01*
X856164Y289930D01*
X856137Y289969D01*
X856092Y289998D01*
X856053Y290034D01*
X856002Y290055D01*
X855970Y290076D01*
X855938Y290081D01*
X855899Y290097D01*
X853164Y290708D01*
X850600Y291736D01*
X848236Y293163D01*
X846132Y294952D01*
X844343Y297056D01*
X842916Y299420D01*
X841888Y301984D01*
X841277Y304719D01*
X841255Y304768D01*
X841243Y304820D01*
X841215Y304858D01*
X841196Y304900D01*
X841157Y304937D01*
X841125Y304980D01*
X841085Y305004D01*
X841051Y305036D01*
X841000Y305054D01*
X840954Y305082D01*
X840900Y305091D01*
X840864Y305104D01*
X840832Y305102D01*
X840790Y305109D01*
X829790Y305109D01*
X829735Y305098D01*
X829679Y305097D01*
X829638Y305078D01*
X829595Y305070D01*
X829549Y305038D01*
X829498Y305015D01*
X829468Y304982D01*
X829431Y304957D01*
X829401Y304910D01*
X829363Y304868D01*
X829348Y304827D01*
X829324Y304790D01*
X829315Y304734D01*
X829296Y304681D01*
X829297Y304629D01*
X829291Y304593D01*
X829299Y304561D01*
X829299Y304556D01*
X829299Y304554D01*
X829299Y304553D01*
X829300Y304515D01*
X830139Y300194D01*
X830151Y300165D01*
X830159Y300123D01*
X831628Y295973D01*
X831644Y295946D01*
X831658Y295906D01*
X833724Y292019D01*
X833744Y291995D01*
X833763Y291957D01*
X836381Y288418D01*
X836405Y288397D01*
X836430Y288362D01*
X839542Y285250D01*
X839557Y285240D01*
X839565Y285229D01*
X839580Y285220D01*
X839598Y285201D01*
X843137Y282583D01*
X843165Y282570D01*
X843199Y282544D01*
X847086Y280478D01*
X847116Y280469D01*
X847153Y280448D01*
X851303Y278979D01*
X851334Y278974D01*
X851374Y278959D01*
X855695Y278120D01*
X855751Y278120D01*
X855807Y278111D01*
X855849Y278121D01*
G37*
G36*
X855849Y745481D02*
X855849Y745481D01*
X855894Y745482D01*
X855945Y745504D01*
X856000Y745517D01*
X856036Y745543D01*
X856076Y745561D01*
X856115Y745602D01*
X856160Y745635D01*
X856183Y745673D01*
X856213Y745705D01*
X856233Y745758D01*
X856262Y745806D01*
X856270Y745857D01*
X856283Y745891D01*
X856282Y745925D01*
X856289Y745970D01*
X856289Y756970D01*
X856279Y757023D01*
X856278Y757076D01*
X856259Y757119D01*
X856250Y757165D01*
X856219Y757209D01*
X856198Y757258D01*
X856164Y757290D01*
X856137Y757329D01*
X856092Y757358D01*
X856053Y757394D01*
X856002Y757415D01*
X855970Y757436D01*
X855938Y757441D01*
X855899Y757457D01*
X853164Y758068D01*
X850600Y759096D01*
X848236Y760523D01*
X846132Y762312D01*
X844343Y764416D01*
X842916Y766780D01*
X841888Y769344D01*
X841277Y772079D01*
X841255Y772128D01*
X841243Y772180D01*
X841215Y772218D01*
X841196Y772260D01*
X841157Y772297D01*
X841125Y772340D01*
X841085Y772364D01*
X841051Y772396D01*
X841000Y772414D01*
X840954Y772442D01*
X840900Y772451D01*
X840864Y772464D01*
X840832Y772462D01*
X840790Y772469D01*
X829790Y772469D01*
X829735Y772458D01*
X829679Y772457D01*
X829638Y772438D01*
X829595Y772430D01*
X829549Y772398D01*
X829498Y772375D01*
X829468Y772342D01*
X829431Y772317D01*
X829401Y772270D01*
X829363Y772228D01*
X829348Y772187D01*
X829324Y772150D01*
X829315Y772094D01*
X829296Y772041D01*
X829297Y771989D01*
X829291Y771953D01*
X829299Y771921D01*
X829299Y771916D01*
X829299Y771914D01*
X829299Y771913D01*
X829300Y771875D01*
X830139Y767554D01*
X830151Y767525D01*
X830159Y767483D01*
X831628Y763333D01*
X831644Y763306D01*
X831658Y763266D01*
X833724Y759379D01*
X833744Y759355D01*
X833763Y759317D01*
X836381Y755778D01*
X836405Y755757D01*
X836430Y755722D01*
X839542Y752610D01*
X839557Y752600D01*
X839565Y752589D01*
X839580Y752580D01*
X839598Y752561D01*
X843137Y749943D01*
X843165Y749930D01*
X843199Y749904D01*
X847086Y747838D01*
X847116Y747829D01*
X847153Y747808D01*
X851303Y746339D01*
X851334Y746334D01*
X851374Y746319D01*
X855695Y745480D01*
X855751Y745480D01*
X855807Y745471D01*
X855849Y745481D01*
G37*
G36*
X855849Y979161D02*
X855849Y979161D01*
X855894Y979162D01*
X855945Y979184D01*
X856000Y979197D01*
X856036Y979223D01*
X856076Y979241D01*
X856115Y979282D01*
X856160Y979315D01*
X856183Y979353D01*
X856213Y979385D01*
X856233Y979438D01*
X856262Y979486D01*
X856270Y979537D01*
X856283Y979571D01*
X856282Y979605D01*
X856289Y979650D01*
X856289Y990650D01*
X856279Y990703D01*
X856278Y990756D01*
X856259Y990799D01*
X856250Y990845D01*
X856219Y990889D01*
X856198Y990938D01*
X856164Y990970D01*
X856137Y991009D01*
X856092Y991038D01*
X856053Y991074D01*
X856002Y991095D01*
X855970Y991116D01*
X855938Y991121D01*
X855899Y991137D01*
X853164Y991748D01*
X850600Y992776D01*
X848236Y994203D01*
X846132Y995992D01*
X844343Y998096D01*
X842916Y1000460D01*
X841888Y1003024D01*
X841277Y1005759D01*
X841255Y1005808D01*
X841243Y1005860D01*
X841215Y1005898D01*
X841196Y1005940D01*
X841157Y1005977D01*
X841125Y1006020D01*
X841085Y1006044D01*
X841051Y1006076D01*
X841000Y1006094D01*
X840954Y1006122D01*
X840900Y1006131D01*
X840864Y1006144D01*
X840832Y1006142D01*
X840790Y1006149D01*
X829790Y1006149D01*
X829735Y1006138D01*
X829679Y1006137D01*
X829638Y1006118D01*
X829595Y1006110D01*
X829549Y1006078D01*
X829498Y1006055D01*
X829468Y1006022D01*
X829431Y1005997D01*
X829401Y1005950D01*
X829363Y1005908D01*
X829348Y1005867D01*
X829324Y1005830D01*
X829315Y1005774D01*
X829296Y1005721D01*
X829297Y1005669D01*
X829291Y1005633D01*
X829299Y1005601D01*
X829299Y1005596D01*
X829299Y1005594D01*
X829299Y1005593D01*
X829300Y1005555D01*
X830139Y1001234D01*
X830151Y1001205D01*
X830159Y1001163D01*
X831628Y997013D01*
X831644Y996986D01*
X831658Y996946D01*
X833724Y993059D01*
X833744Y993035D01*
X833763Y992997D01*
X836381Y989458D01*
X836405Y989437D01*
X836430Y989402D01*
X839542Y986290D01*
X839557Y986280D01*
X839565Y986269D01*
X839580Y986260D01*
X839598Y986241D01*
X843137Y983623D01*
X843165Y983610D01*
X843199Y983584D01*
X847086Y981518D01*
X847116Y981509D01*
X847153Y981488D01*
X851303Y980019D01*
X851334Y980014D01*
X851374Y979999D01*
X855695Y979160D01*
X855751Y979160D01*
X855807Y979151D01*
X855849Y979161D01*
G37*
G36*
X1775329Y745481D02*
X1775329Y745481D01*
X1775374Y745482D01*
X1775425Y745504D01*
X1775480Y745517D01*
X1775516Y745543D01*
X1775556Y745561D01*
X1775595Y745602D01*
X1775640Y745635D01*
X1775663Y745673D01*
X1775693Y745705D01*
X1775713Y745758D01*
X1775742Y745806D01*
X1775750Y745857D01*
X1775763Y745891D01*
X1775762Y745925D01*
X1775769Y745970D01*
X1775769Y756970D01*
X1775759Y757023D01*
X1775758Y757076D01*
X1775739Y757119D01*
X1775730Y757165D01*
X1775699Y757209D01*
X1775678Y757258D01*
X1775644Y757290D01*
X1775617Y757329D01*
X1775572Y757358D01*
X1775533Y757394D01*
X1775482Y757415D01*
X1775450Y757436D01*
X1775418Y757441D01*
X1775379Y757457D01*
X1772644Y758068D01*
X1770080Y759096D01*
X1767716Y760523D01*
X1765612Y762312D01*
X1763823Y764416D01*
X1762396Y766780D01*
X1761368Y769344D01*
X1760757Y772079D01*
X1760735Y772128D01*
X1760723Y772180D01*
X1760695Y772218D01*
X1760676Y772260D01*
X1760637Y772297D01*
X1760605Y772340D01*
X1760565Y772364D01*
X1760531Y772396D01*
X1760480Y772414D01*
X1760434Y772442D01*
X1760380Y772451D01*
X1760344Y772464D01*
X1760312Y772462D01*
X1760270Y772469D01*
X1749270Y772469D01*
X1749215Y772458D01*
X1749159Y772457D01*
X1749118Y772438D01*
X1749075Y772430D01*
X1749029Y772398D01*
X1748978Y772375D01*
X1748948Y772342D01*
X1748911Y772317D01*
X1748881Y772270D01*
X1748843Y772228D01*
X1748828Y772187D01*
X1748804Y772150D01*
X1748795Y772094D01*
X1748776Y772041D01*
X1748777Y771989D01*
X1748771Y771953D01*
X1748779Y771921D01*
X1748779Y771916D01*
X1748779Y771914D01*
X1748779Y771913D01*
X1748780Y771875D01*
X1749619Y767554D01*
X1749631Y767525D01*
X1749639Y767483D01*
X1751108Y763333D01*
X1751124Y763306D01*
X1751138Y763266D01*
X1753204Y759379D01*
X1753224Y759355D01*
X1753243Y759317D01*
X1755861Y755778D01*
X1755885Y755757D01*
X1755910Y755722D01*
X1759022Y752610D01*
X1759037Y752600D01*
X1759045Y752589D01*
X1759060Y752580D01*
X1759078Y752561D01*
X1762617Y749943D01*
X1762645Y749930D01*
X1762679Y749904D01*
X1766566Y747838D01*
X1766596Y747829D01*
X1766633Y747808D01*
X1770783Y746339D01*
X1770814Y746334D01*
X1770854Y746319D01*
X1775175Y745480D01*
X1775231Y745480D01*
X1775287Y745471D01*
X1775329Y745481D01*
G37*
G36*
X855849Y511801D02*
X855849Y511801D01*
X855894Y511802D01*
X855945Y511824D01*
X856000Y511837D01*
X856036Y511863D01*
X856076Y511881D01*
X856115Y511922D01*
X856160Y511955D01*
X856183Y511993D01*
X856213Y512025D01*
X856233Y512078D01*
X856262Y512126D01*
X856270Y512177D01*
X856283Y512211D01*
X856282Y512245D01*
X856289Y512290D01*
X856289Y523290D01*
X856279Y523343D01*
X856278Y523396D01*
X856259Y523439D01*
X856250Y523485D01*
X856219Y523529D01*
X856198Y523578D01*
X856164Y523610D01*
X856137Y523649D01*
X856092Y523678D01*
X856053Y523714D01*
X856002Y523735D01*
X855970Y523756D01*
X855938Y523761D01*
X855899Y523777D01*
X853164Y524388D01*
X850600Y525416D01*
X848236Y526843D01*
X846132Y528632D01*
X844343Y530736D01*
X842916Y533100D01*
X841888Y535664D01*
X841277Y538399D01*
X841255Y538448D01*
X841243Y538500D01*
X841215Y538538D01*
X841196Y538580D01*
X841157Y538617D01*
X841125Y538660D01*
X841085Y538684D01*
X841051Y538716D01*
X841000Y538734D01*
X840954Y538762D01*
X840900Y538771D01*
X840864Y538784D01*
X840832Y538782D01*
X840790Y538789D01*
X829790Y538789D01*
X829735Y538778D01*
X829679Y538777D01*
X829638Y538758D01*
X829595Y538750D01*
X829549Y538718D01*
X829498Y538695D01*
X829468Y538662D01*
X829431Y538637D01*
X829401Y538590D01*
X829363Y538548D01*
X829348Y538507D01*
X829324Y538470D01*
X829315Y538414D01*
X829296Y538361D01*
X829297Y538309D01*
X829291Y538273D01*
X829299Y538241D01*
X829299Y538236D01*
X829299Y538234D01*
X829299Y538233D01*
X829300Y538195D01*
X830139Y533874D01*
X830151Y533845D01*
X830159Y533803D01*
X831628Y529653D01*
X831644Y529626D01*
X831658Y529586D01*
X833724Y525699D01*
X833744Y525675D01*
X833763Y525637D01*
X836381Y522098D01*
X836405Y522077D01*
X836430Y522042D01*
X839542Y518930D01*
X839557Y518920D01*
X839565Y518909D01*
X839580Y518900D01*
X839598Y518881D01*
X843137Y516263D01*
X843165Y516250D01*
X843199Y516224D01*
X847086Y514158D01*
X847116Y514149D01*
X847153Y514128D01*
X851303Y512659D01*
X851334Y512654D01*
X851374Y512639D01*
X855695Y511800D01*
X855751Y511800D01*
X855807Y511791D01*
X855849Y511801D01*
G37*
G36*
X1775329Y511801D02*
X1775329Y511801D01*
X1775374Y511802D01*
X1775425Y511824D01*
X1775480Y511837D01*
X1775516Y511863D01*
X1775556Y511881D01*
X1775595Y511922D01*
X1775640Y511955D01*
X1775663Y511993D01*
X1775693Y512025D01*
X1775713Y512078D01*
X1775742Y512126D01*
X1775750Y512177D01*
X1775763Y512211D01*
X1775762Y512245D01*
X1775769Y512290D01*
X1775769Y523290D01*
X1775759Y523343D01*
X1775758Y523396D01*
X1775739Y523439D01*
X1775730Y523485D01*
X1775699Y523529D01*
X1775678Y523578D01*
X1775644Y523610D01*
X1775617Y523649D01*
X1775572Y523678D01*
X1775533Y523714D01*
X1775482Y523735D01*
X1775450Y523756D01*
X1775418Y523761D01*
X1775379Y523777D01*
X1772644Y524388D01*
X1770080Y525416D01*
X1767716Y526843D01*
X1765612Y528632D01*
X1763823Y530736D01*
X1762396Y533100D01*
X1761368Y535664D01*
X1760757Y538399D01*
X1760735Y538448D01*
X1760723Y538500D01*
X1760695Y538538D01*
X1760676Y538580D01*
X1760637Y538617D01*
X1760605Y538660D01*
X1760565Y538684D01*
X1760531Y538716D01*
X1760480Y538734D01*
X1760434Y538762D01*
X1760380Y538771D01*
X1760344Y538784D01*
X1760312Y538782D01*
X1760270Y538789D01*
X1749270Y538789D01*
X1749215Y538778D01*
X1749159Y538777D01*
X1749118Y538758D01*
X1749075Y538750D01*
X1749029Y538718D01*
X1748978Y538695D01*
X1748948Y538662D01*
X1748911Y538637D01*
X1748881Y538590D01*
X1748843Y538548D01*
X1748828Y538507D01*
X1748804Y538470D01*
X1748795Y538414D01*
X1748776Y538361D01*
X1748777Y538309D01*
X1748771Y538273D01*
X1748779Y538241D01*
X1748779Y538236D01*
X1748779Y538234D01*
X1748779Y538233D01*
X1748780Y538195D01*
X1749619Y533874D01*
X1749631Y533845D01*
X1749639Y533803D01*
X1751108Y529653D01*
X1751124Y529626D01*
X1751138Y529586D01*
X1753204Y525699D01*
X1753224Y525675D01*
X1753243Y525637D01*
X1755861Y522098D01*
X1755885Y522077D01*
X1755910Y522042D01*
X1759022Y518930D01*
X1759037Y518920D01*
X1759045Y518909D01*
X1759060Y518900D01*
X1759078Y518881D01*
X1762617Y516263D01*
X1762645Y516250D01*
X1762679Y516224D01*
X1766566Y514158D01*
X1766596Y514149D01*
X1766633Y514128D01*
X1770783Y512659D01*
X1770814Y512654D01*
X1770854Y512639D01*
X1775175Y511800D01*
X1775231Y511800D01*
X1775287Y511791D01*
X1775329Y511801D01*
G37*
G36*
X1775329Y44441D02*
X1775329Y44441D01*
X1775374Y44442D01*
X1775425Y44464D01*
X1775480Y44477D01*
X1775516Y44503D01*
X1775556Y44521D01*
X1775595Y44562D01*
X1775640Y44595D01*
X1775663Y44633D01*
X1775693Y44665D01*
X1775713Y44718D01*
X1775742Y44766D01*
X1775750Y44817D01*
X1775763Y44851D01*
X1775762Y44885D01*
X1775769Y44930D01*
X1775769Y55930D01*
X1775759Y55983D01*
X1775758Y56036D01*
X1775739Y56079D01*
X1775730Y56125D01*
X1775699Y56169D01*
X1775678Y56218D01*
X1775644Y56250D01*
X1775617Y56289D01*
X1775572Y56318D01*
X1775533Y56354D01*
X1775482Y56375D01*
X1775450Y56396D01*
X1775418Y56401D01*
X1775379Y56417D01*
X1772644Y57028D01*
X1770080Y58056D01*
X1767716Y59483D01*
X1765612Y61272D01*
X1763823Y63376D01*
X1762396Y65740D01*
X1761368Y68304D01*
X1760757Y71039D01*
X1760735Y71088D01*
X1760723Y71140D01*
X1760695Y71178D01*
X1760676Y71220D01*
X1760637Y71257D01*
X1760605Y71300D01*
X1760565Y71324D01*
X1760531Y71356D01*
X1760480Y71374D01*
X1760434Y71402D01*
X1760380Y71411D01*
X1760344Y71424D01*
X1760312Y71422D01*
X1760270Y71429D01*
X1749270Y71429D01*
X1749215Y71418D01*
X1749159Y71417D01*
X1749118Y71398D01*
X1749075Y71390D01*
X1749029Y71358D01*
X1748978Y71335D01*
X1748948Y71302D01*
X1748911Y71277D01*
X1748881Y71230D01*
X1748843Y71188D01*
X1748828Y71147D01*
X1748804Y71110D01*
X1748795Y71054D01*
X1748776Y71001D01*
X1748777Y70949D01*
X1748771Y70913D01*
X1748779Y70881D01*
X1748779Y70876D01*
X1748779Y70874D01*
X1748779Y70873D01*
X1748780Y70835D01*
X1749619Y66514D01*
X1749631Y66485D01*
X1749639Y66443D01*
X1751108Y62293D01*
X1751124Y62266D01*
X1751138Y62226D01*
X1753204Y58339D01*
X1753224Y58315D01*
X1753243Y58277D01*
X1755861Y54738D01*
X1755885Y54717D01*
X1755910Y54682D01*
X1759022Y51570D01*
X1759037Y51560D01*
X1759045Y51549D01*
X1759060Y51540D01*
X1759078Y51521D01*
X1762617Y48903D01*
X1762645Y48890D01*
X1762679Y48864D01*
X1766566Y46798D01*
X1766596Y46789D01*
X1766633Y46768D01*
X1770783Y45299D01*
X1770814Y45294D01*
X1770854Y45279D01*
X1775175Y44440D01*
X1775231Y44440D01*
X1775287Y44431D01*
X1775329Y44441D01*
G37*
G36*
X855849Y44441D02*
X855849Y44441D01*
X855894Y44442D01*
X855945Y44464D01*
X856000Y44477D01*
X856036Y44503D01*
X856076Y44521D01*
X856115Y44562D01*
X856160Y44595D01*
X856183Y44633D01*
X856213Y44665D01*
X856233Y44718D01*
X856262Y44766D01*
X856270Y44817D01*
X856283Y44851D01*
X856282Y44885D01*
X856289Y44930D01*
X856289Y55930D01*
X856279Y55983D01*
X856278Y56036D01*
X856259Y56079D01*
X856250Y56125D01*
X856219Y56169D01*
X856198Y56218D01*
X856164Y56250D01*
X856137Y56289D01*
X856092Y56318D01*
X856053Y56354D01*
X856002Y56375D01*
X855970Y56396D01*
X855938Y56401D01*
X855899Y56417D01*
X853164Y57028D01*
X850600Y58056D01*
X848236Y59483D01*
X846132Y61272D01*
X844343Y63376D01*
X842916Y65740D01*
X841888Y68304D01*
X841277Y71039D01*
X841255Y71088D01*
X841243Y71140D01*
X841215Y71178D01*
X841196Y71220D01*
X841157Y71257D01*
X841125Y71300D01*
X841085Y71324D01*
X841051Y71356D01*
X841000Y71374D01*
X840954Y71402D01*
X840900Y71411D01*
X840864Y71424D01*
X840832Y71422D01*
X840790Y71429D01*
X829790Y71429D01*
X829735Y71418D01*
X829679Y71417D01*
X829638Y71398D01*
X829595Y71390D01*
X829549Y71358D01*
X829498Y71335D01*
X829468Y71302D01*
X829431Y71277D01*
X829401Y71230D01*
X829363Y71188D01*
X829348Y71147D01*
X829324Y71110D01*
X829315Y71054D01*
X829296Y71001D01*
X829297Y70949D01*
X829291Y70913D01*
X829299Y70881D01*
X829299Y70876D01*
X829299Y70874D01*
X829299Y70873D01*
X829300Y70835D01*
X830139Y66514D01*
X830151Y66485D01*
X830159Y66443D01*
X831628Y62293D01*
X831644Y62266D01*
X831658Y62226D01*
X833724Y58339D01*
X833744Y58315D01*
X833763Y58277D01*
X836381Y54738D01*
X836405Y54717D01*
X836430Y54682D01*
X839542Y51570D01*
X839557Y51560D01*
X839565Y51549D01*
X839580Y51540D01*
X839598Y51521D01*
X843137Y48903D01*
X843165Y48890D01*
X843199Y48864D01*
X847086Y46798D01*
X847116Y46789D01*
X847153Y46768D01*
X851303Y45299D01*
X851334Y45294D01*
X851374Y45279D01*
X855695Y44440D01*
X855751Y44440D01*
X855807Y44431D01*
X855849Y44441D01*
G37*
G36*
X1760323Y779481D02*
X1760323Y779481D01*
X1760376Y779482D01*
X1760419Y779501D01*
X1760465Y779510D01*
X1760509Y779541D01*
X1760558Y779562D01*
X1760590Y779596D01*
X1760629Y779623D01*
X1760658Y779668D01*
X1760694Y779707D01*
X1760715Y779758D01*
X1760736Y779790D01*
X1760741Y779822D01*
X1760757Y779861D01*
X1761368Y782596D01*
X1762396Y785160D01*
X1763823Y787524D01*
X1765612Y789628D01*
X1767716Y791417D01*
X1770080Y792844D01*
X1772644Y793872D01*
X1775379Y794483D01*
X1775428Y794505D01*
X1775480Y794517D01*
X1775518Y794545D01*
X1775560Y794564D01*
X1775597Y794603D01*
X1775640Y794635D01*
X1775664Y794675D01*
X1775696Y794709D01*
X1775714Y794760D01*
X1775742Y794806D01*
X1775751Y794860D01*
X1775764Y794896D01*
X1775762Y794928D01*
X1775769Y794970D01*
X1775769Y805970D01*
X1775758Y806025D01*
X1775757Y806081D01*
X1775738Y806122D01*
X1775730Y806165D01*
X1775698Y806211D01*
X1775675Y806263D01*
X1775642Y806292D01*
X1775617Y806329D01*
X1775570Y806359D01*
X1775528Y806397D01*
X1775487Y806412D01*
X1775450Y806436D01*
X1775394Y806445D01*
X1775341Y806464D01*
X1775289Y806463D01*
X1775253Y806469D01*
X1775221Y806461D01*
X1775175Y806460D01*
X1770854Y805621D01*
X1770825Y805609D01*
X1770783Y805601D01*
X1766633Y804132D01*
X1766606Y804116D01*
X1766566Y804102D01*
X1762679Y802036D01*
X1762655Y802016D01*
X1762617Y801997D01*
X1759078Y799379D01*
X1759057Y799355D01*
X1759022Y799330D01*
X1755910Y796218D01*
X1755892Y796192D01*
X1755861Y796162D01*
X1753243Y792624D01*
X1753230Y792595D01*
X1753204Y792561D01*
X1751138Y788674D01*
X1751131Y788651D01*
X1751122Y788637D01*
X1751121Y788629D01*
X1751108Y788607D01*
X1749639Y784457D01*
X1749634Y784426D01*
X1749619Y784386D01*
X1748780Y780065D01*
X1748780Y780009D01*
X1748771Y779953D01*
X1748781Y779911D01*
X1748782Y779866D01*
X1748804Y779815D01*
X1748817Y779760D01*
X1748843Y779725D01*
X1748861Y779684D01*
X1748902Y779645D01*
X1748935Y779600D01*
X1748973Y779577D01*
X1749005Y779547D01*
X1749058Y779527D01*
X1749106Y779498D01*
X1749157Y779490D01*
X1749191Y779477D01*
X1749225Y779478D01*
X1749270Y779471D01*
X1760270Y779471D01*
X1760323Y779481D01*
G37*
G36*
X840843Y78441D02*
X840843Y78441D01*
X840896Y78442D01*
X840939Y78461D01*
X840985Y78470D01*
X841029Y78501D01*
X841078Y78522D01*
X841110Y78556D01*
X841149Y78583D01*
X841178Y78628D01*
X841214Y78667D01*
X841235Y78718D01*
X841256Y78750D01*
X841261Y78782D01*
X841277Y78821D01*
X841888Y81556D01*
X842916Y84120D01*
X844343Y86484D01*
X846132Y88588D01*
X848236Y90377D01*
X850600Y91804D01*
X853164Y92832D01*
X855899Y93443D01*
X855948Y93465D01*
X856000Y93477D01*
X856038Y93505D01*
X856080Y93524D01*
X856117Y93563D01*
X856160Y93595D01*
X856184Y93635D01*
X856216Y93669D01*
X856234Y93720D01*
X856262Y93766D01*
X856271Y93820D01*
X856284Y93856D01*
X856282Y93888D01*
X856289Y93930D01*
X856289Y104930D01*
X856278Y104985D01*
X856277Y105041D01*
X856258Y105082D01*
X856250Y105125D01*
X856218Y105171D01*
X856195Y105223D01*
X856162Y105252D01*
X856137Y105289D01*
X856090Y105319D01*
X856048Y105357D01*
X856007Y105372D01*
X855970Y105396D01*
X855914Y105405D01*
X855861Y105424D01*
X855809Y105423D01*
X855773Y105429D01*
X855741Y105421D01*
X855695Y105420D01*
X851374Y104581D01*
X851345Y104569D01*
X851303Y104561D01*
X847153Y103092D01*
X847126Y103076D01*
X847086Y103062D01*
X843199Y100996D01*
X843175Y100976D01*
X843137Y100957D01*
X839598Y98339D01*
X839577Y98315D01*
X839542Y98290D01*
X836430Y95178D01*
X836412Y95152D01*
X836381Y95122D01*
X833763Y91584D01*
X833750Y91555D01*
X833724Y91521D01*
X831658Y87634D01*
X831651Y87611D01*
X831642Y87597D01*
X831641Y87589D01*
X831628Y87567D01*
X830159Y83417D01*
X830154Y83386D01*
X830139Y83346D01*
X829300Y79025D01*
X829300Y78969D01*
X829291Y78913D01*
X829301Y78871D01*
X829302Y78826D01*
X829324Y78775D01*
X829337Y78720D01*
X829363Y78685D01*
X829381Y78644D01*
X829422Y78605D01*
X829455Y78560D01*
X829493Y78537D01*
X829525Y78507D01*
X829578Y78487D01*
X829626Y78458D01*
X829677Y78450D01*
X829711Y78437D01*
X829745Y78438D01*
X829790Y78431D01*
X840790Y78431D01*
X840843Y78441D01*
G37*
G36*
X840843Y1013161D02*
X840843Y1013161D01*
X840896Y1013162D01*
X840939Y1013181D01*
X840985Y1013190D01*
X841029Y1013221D01*
X841078Y1013242D01*
X841110Y1013276D01*
X841149Y1013303D01*
X841178Y1013348D01*
X841214Y1013387D01*
X841235Y1013438D01*
X841256Y1013470D01*
X841261Y1013502D01*
X841277Y1013541D01*
X841888Y1016276D01*
X842916Y1018840D01*
X844343Y1021204D01*
X846132Y1023308D01*
X848236Y1025097D01*
X850600Y1026524D01*
X853164Y1027552D01*
X855899Y1028163D01*
X855948Y1028185D01*
X856000Y1028197D01*
X856038Y1028225D01*
X856080Y1028244D01*
X856117Y1028283D01*
X856160Y1028315D01*
X856184Y1028355D01*
X856216Y1028389D01*
X856234Y1028440D01*
X856262Y1028486D01*
X856271Y1028540D01*
X856284Y1028576D01*
X856282Y1028608D01*
X856289Y1028650D01*
X856289Y1039650D01*
X856278Y1039705D01*
X856277Y1039761D01*
X856258Y1039802D01*
X856250Y1039845D01*
X856218Y1039891D01*
X856195Y1039943D01*
X856162Y1039972D01*
X856137Y1040009D01*
X856090Y1040039D01*
X856048Y1040077D01*
X856007Y1040092D01*
X855970Y1040116D01*
X855914Y1040125D01*
X855861Y1040144D01*
X855809Y1040143D01*
X855773Y1040149D01*
X855741Y1040141D01*
X855695Y1040140D01*
X851374Y1039301D01*
X851345Y1039289D01*
X851303Y1039281D01*
X847153Y1037812D01*
X847126Y1037796D01*
X847086Y1037782D01*
X843199Y1035716D01*
X843175Y1035696D01*
X843137Y1035677D01*
X839598Y1033059D01*
X839577Y1033035D01*
X839542Y1033010D01*
X836430Y1029898D01*
X836412Y1029872D01*
X836381Y1029842D01*
X833763Y1026304D01*
X833750Y1026275D01*
X833724Y1026241D01*
X831658Y1022354D01*
X831651Y1022331D01*
X831642Y1022317D01*
X831641Y1022309D01*
X831628Y1022287D01*
X830159Y1018137D01*
X830154Y1018106D01*
X830139Y1018066D01*
X829300Y1013745D01*
X829300Y1013689D01*
X829291Y1013633D01*
X829301Y1013591D01*
X829302Y1013546D01*
X829324Y1013495D01*
X829337Y1013440D01*
X829363Y1013405D01*
X829381Y1013364D01*
X829422Y1013325D01*
X829455Y1013280D01*
X829493Y1013257D01*
X829525Y1013227D01*
X829578Y1013207D01*
X829626Y1013178D01*
X829677Y1013170D01*
X829711Y1013157D01*
X829745Y1013158D01*
X829790Y1013151D01*
X840790Y1013151D01*
X840843Y1013161D01*
G37*
G36*
X1760323Y1013161D02*
X1760323Y1013161D01*
X1760376Y1013162D01*
X1760419Y1013181D01*
X1760465Y1013190D01*
X1760509Y1013221D01*
X1760558Y1013242D01*
X1760590Y1013276D01*
X1760629Y1013303D01*
X1760658Y1013348D01*
X1760694Y1013387D01*
X1760715Y1013438D01*
X1760736Y1013470D01*
X1760741Y1013502D01*
X1760757Y1013541D01*
X1761368Y1016276D01*
X1762396Y1018840D01*
X1763823Y1021204D01*
X1765612Y1023308D01*
X1767716Y1025097D01*
X1770080Y1026524D01*
X1772644Y1027552D01*
X1775379Y1028163D01*
X1775428Y1028185D01*
X1775480Y1028197D01*
X1775518Y1028225D01*
X1775560Y1028244D01*
X1775597Y1028283D01*
X1775640Y1028315D01*
X1775664Y1028355D01*
X1775696Y1028389D01*
X1775714Y1028440D01*
X1775742Y1028486D01*
X1775751Y1028540D01*
X1775764Y1028576D01*
X1775762Y1028608D01*
X1775769Y1028650D01*
X1775769Y1039650D01*
X1775758Y1039705D01*
X1775757Y1039761D01*
X1775738Y1039802D01*
X1775730Y1039845D01*
X1775698Y1039891D01*
X1775675Y1039943D01*
X1775642Y1039972D01*
X1775617Y1040009D01*
X1775570Y1040039D01*
X1775528Y1040077D01*
X1775487Y1040092D01*
X1775450Y1040116D01*
X1775394Y1040125D01*
X1775341Y1040144D01*
X1775289Y1040143D01*
X1775253Y1040149D01*
X1775221Y1040141D01*
X1775175Y1040140D01*
X1770854Y1039301D01*
X1770825Y1039289D01*
X1770783Y1039281D01*
X1766633Y1037812D01*
X1766606Y1037796D01*
X1766566Y1037782D01*
X1762679Y1035716D01*
X1762655Y1035696D01*
X1762617Y1035677D01*
X1759078Y1033059D01*
X1759057Y1033035D01*
X1759022Y1033010D01*
X1755910Y1029898D01*
X1755892Y1029872D01*
X1755861Y1029842D01*
X1753243Y1026304D01*
X1753230Y1026275D01*
X1753204Y1026241D01*
X1751138Y1022354D01*
X1751131Y1022331D01*
X1751122Y1022317D01*
X1751121Y1022309D01*
X1751108Y1022287D01*
X1749639Y1018137D01*
X1749634Y1018106D01*
X1749619Y1018066D01*
X1748780Y1013745D01*
X1748780Y1013689D01*
X1748771Y1013633D01*
X1748781Y1013591D01*
X1748782Y1013546D01*
X1748804Y1013495D01*
X1748817Y1013440D01*
X1748843Y1013405D01*
X1748861Y1013364D01*
X1748902Y1013325D01*
X1748935Y1013280D01*
X1748973Y1013257D01*
X1749005Y1013227D01*
X1749058Y1013207D01*
X1749106Y1013178D01*
X1749157Y1013170D01*
X1749191Y1013157D01*
X1749225Y1013158D01*
X1749270Y1013151D01*
X1760270Y1013151D01*
X1760323Y1013161D01*
G37*
G36*
X1760323Y78441D02*
X1760323Y78441D01*
X1760376Y78442D01*
X1760419Y78461D01*
X1760465Y78470D01*
X1760509Y78501D01*
X1760558Y78522D01*
X1760590Y78556D01*
X1760629Y78583D01*
X1760658Y78628D01*
X1760694Y78667D01*
X1760715Y78718D01*
X1760736Y78750D01*
X1760741Y78782D01*
X1760757Y78821D01*
X1761368Y81556D01*
X1762396Y84120D01*
X1763823Y86484D01*
X1765612Y88588D01*
X1767716Y90377D01*
X1770080Y91804D01*
X1772644Y92832D01*
X1775379Y93443D01*
X1775428Y93465D01*
X1775480Y93477D01*
X1775518Y93505D01*
X1775560Y93524D01*
X1775597Y93563D01*
X1775640Y93595D01*
X1775664Y93635D01*
X1775696Y93669D01*
X1775714Y93720D01*
X1775742Y93766D01*
X1775751Y93820D01*
X1775764Y93856D01*
X1775762Y93888D01*
X1775769Y93930D01*
X1775769Y104930D01*
X1775758Y104985D01*
X1775757Y105041D01*
X1775738Y105082D01*
X1775730Y105125D01*
X1775698Y105171D01*
X1775675Y105223D01*
X1775642Y105252D01*
X1775617Y105289D01*
X1775570Y105319D01*
X1775528Y105357D01*
X1775487Y105372D01*
X1775450Y105396D01*
X1775394Y105405D01*
X1775341Y105424D01*
X1775289Y105423D01*
X1775253Y105429D01*
X1775221Y105421D01*
X1775175Y105420D01*
X1770854Y104581D01*
X1770825Y104569D01*
X1770783Y104561D01*
X1766633Y103092D01*
X1766606Y103076D01*
X1766566Y103062D01*
X1762679Y100996D01*
X1762655Y100976D01*
X1762617Y100957D01*
X1759078Y98339D01*
X1759057Y98315D01*
X1759022Y98290D01*
X1755910Y95178D01*
X1755892Y95152D01*
X1755861Y95122D01*
X1753243Y91584D01*
X1753230Y91555D01*
X1753204Y91521D01*
X1751138Y87634D01*
X1751131Y87611D01*
X1751122Y87597D01*
X1751121Y87589D01*
X1751108Y87567D01*
X1749639Y83417D01*
X1749634Y83386D01*
X1749619Y83346D01*
X1748780Y79025D01*
X1748780Y78969D01*
X1748771Y78913D01*
X1748781Y78871D01*
X1748782Y78826D01*
X1748804Y78775D01*
X1748817Y78720D01*
X1748843Y78685D01*
X1748861Y78644D01*
X1748902Y78605D01*
X1748935Y78560D01*
X1748973Y78537D01*
X1749005Y78507D01*
X1749058Y78487D01*
X1749106Y78458D01*
X1749157Y78450D01*
X1749191Y78437D01*
X1749225Y78438D01*
X1749270Y78431D01*
X1760270Y78431D01*
X1760323Y78441D01*
G37*
G36*
X1760323Y545801D02*
X1760323Y545801D01*
X1760376Y545802D01*
X1760419Y545821D01*
X1760465Y545830D01*
X1760509Y545861D01*
X1760558Y545882D01*
X1760590Y545916D01*
X1760629Y545943D01*
X1760658Y545988D01*
X1760694Y546027D01*
X1760715Y546078D01*
X1760736Y546110D01*
X1760741Y546142D01*
X1760757Y546181D01*
X1761368Y548916D01*
X1762396Y551480D01*
X1763823Y553844D01*
X1765612Y555948D01*
X1767716Y557737D01*
X1770080Y559164D01*
X1772644Y560192D01*
X1775379Y560803D01*
X1775428Y560825D01*
X1775480Y560837D01*
X1775518Y560865D01*
X1775560Y560884D01*
X1775597Y560923D01*
X1775640Y560955D01*
X1775664Y560995D01*
X1775696Y561029D01*
X1775714Y561080D01*
X1775742Y561126D01*
X1775751Y561180D01*
X1775764Y561216D01*
X1775762Y561248D01*
X1775769Y561290D01*
X1775769Y572290D01*
X1775758Y572345D01*
X1775757Y572401D01*
X1775738Y572442D01*
X1775730Y572485D01*
X1775698Y572531D01*
X1775675Y572583D01*
X1775642Y572612D01*
X1775617Y572649D01*
X1775570Y572679D01*
X1775528Y572717D01*
X1775487Y572732D01*
X1775450Y572756D01*
X1775394Y572765D01*
X1775341Y572784D01*
X1775289Y572783D01*
X1775253Y572789D01*
X1775221Y572781D01*
X1775175Y572780D01*
X1770854Y571941D01*
X1770825Y571929D01*
X1770783Y571921D01*
X1766633Y570452D01*
X1766606Y570436D01*
X1766566Y570422D01*
X1762679Y568356D01*
X1762655Y568336D01*
X1762617Y568317D01*
X1759078Y565699D01*
X1759057Y565675D01*
X1759022Y565650D01*
X1755910Y562538D01*
X1755892Y562512D01*
X1755861Y562482D01*
X1753243Y558944D01*
X1753230Y558915D01*
X1753204Y558881D01*
X1751138Y554994D01*
X1751131Y554971D01*
X1751122Y554957D01*
X1751121Y554949D01*
X1751108Y554927D01*
X1749639Y550777D01*
X1749634Y550746D01*
X1749619Y550706D01*
X1748780Y546385D01*
X1748780Y546329D01*
X1748771Y546273D01*
X1748781Y546231D01*
X1748782Y546186D01*
X1748804Y546135D01*
X1748817Y546080D01*
X1748843Y546045D01*
X1748861Y546004D01*
X1748902Y545965D01*
X1748935Y545920D01*
X1748973Y545897D01*
X1749005Y545867D01*
X1749058Y545847D01*
X1749106Y545818D01*
X1749157Y545810D01*
X1749191Y545797D01*
X1749225Y545798D01*
X1749270Y545791D01*
X1760270Y545791D01*
X1760323Y545801D01*
G37*
G36*
X840843Y545801D02*
X840843Y545801D01*
X840896Y545802D01*
X840939Y545821D01*
X840985Y545830D01*
X841029Y545861D01*
X841078Y545882D01*
X841110Y545916D01*
X841149Y545943D01*
X841178Y545988D01*
X841214Y546027D01*
X841235Y546078D01*
X841256Y546110D01*
X841261Y546142D01*
X841277Y546181D01*
X841888Y548916D01*
X842916Y551480D01*
X844343Y553844D01*
X846132Y555948D01*
X848236Y557737D01*
X850600Y559164D01*
X853164Y560192D01*
X855899Y560803D01*
X855948Y560825D01*
X856000Y560837D01*
X856038Y560865D01*
X856080Y560884D01*
X856117Y560923D01*
X856160Y560955D01*
X856184Y560995D01*
X856216Y561029D01*
X856234Y561080D01*
X856262Y561126D01*
X856271Y561180D01*
X856284Y561216D01*
X856282Y561248D01*
X856289Y561290D01*
X856289Y572290D01*
X856278Y572345D01*
X856277Y572401D01*
X856258Y572442D01*
X856250Y572485D01*
X856218Y572531D01*
X856195Y572583D01*
X856162Y572612D01*
X856137Y572649D01*
X856090Y572679D01*
X856048Y572717D01*
X856007Y572732D01*
X855970Y572756D01*
X855914Y572765D01*
X855861Y572784D01*
X855809Y572783D01*
X855773Y572789D01*
X855741Y572781D01*
X855695Y572780D01*
X851374Y571941D01*
X851345Y571929D01*
X851303Y571921D01*
X847153Y570452D01*
X847126Y570436D01*
X847086Y570422D01*
X843199Y568356D01*
X843175Y568336D01*
X843137Y568317D01*
X839598Y565699D01*
X839577Y565675D01*
X839542Y565650D01*
X836430Y562538D01*
X836412Y562512D01*
X836381Y562482D01*
X833763Y558944D01*
X833750Y558915D01*
X833724Y558881D01*
X831658Y554994D01*
X831651Y554971D01*
X831642Y554957D01*
X831641Y554949D01*
X831628Y554927D01*
X830159Y550777D01*
X830154Y550746D01*
X830139Y550706D01*
X829300Y546385D01*
X829300Y546329D01*
X829291Y546273D01*
X829301Y546231D01*
X829302Y546186D01*
X829324Y546135D01*
X829337Y546080D01*
X829363Y546045D01*
X829381Y546004D01*
X829422Y545965D01*
X829455Y545920D01*
X829493Y545897D01*
X829525Y545867D01*
X829578Y545847D01*
X829626Y545818D01*
X829677Y545810D01*
X829711Y545797D01*
X829745Y545798D01*
X829790Y545791D01*
X840790Y545791D01*
X840843Y545801D01*
G37*
G36*
X840843Y312121D02*
X840843Y312121D01*
X840896Y312122D01*
X840939Y312141D01*
X840985Y312150D01*
X841029Y312181D01*
X841078Y312202D01*
X841110Y312236D01*
X841149Y312263D01*
X841178Y312308D01*
X841214Y312347D01*
X841235Y312398D01*
X841256Y312430D01*
X841261Y312462D01*
X841277Y312501D01*
X841888Y315236D01*
X842916Y317800D01*
X844343Y320164D01*
X846132Y322268D01*
X848236Y324057D01*
X850600Y325484D01*
X853164Y326512D01*
X855899Y327123D01*
X855948Y327145D01*
X856000Y327157D01*
X856038Y327185D01*
X856080Y327204D01*
X856117Y327243D01*
X856160Y327275D01*
X856184Y327315D01*
X856216Y327349D01*
X856234Y327400D01*
X856262Y327446D01*
X856271Y327500D01*
X856284Y327536D01*
X856282Y327568D01*
X856289Y327610D01*
X856289Y338610D01*
X856278Y338665D01*
X856277Y338721D01*
X856258Y338762D01*
X856250Y338805D01*
X856218Y338851D01*
X856195Y338903D01*
X856162Y338932D01*
X856137Y338969D01*
X856090Y338999D01*
X856048Y339037D01*
X856007Y339052D01*
X855970Y339076D01*
X855914Y339085D01*
X855861Y339104D01*
X855809Y339103D01*
X855773Y339109D01*
X855741Y339101D01*
X855695Y339100D01*
X851374Y338261D01*
X851345Y338249D01*
X851303Y338241D01*
X847153Y336772D01*
X847126Y336756D01*
X847086Y336742D01*
X843199Y334676D01*
X843175Y334656D01*
X843137Y334637D01*
X839598Y332019D01*
X839577Y331995D01*
X839542Y331970D01*
X836430Y328858D01*
X836412Y328832D01*
X836381Y328802D01*
X833763Y325264D01*
X833750Y325235D01*
X833724Y325201D01*
X831658Y321314D01*
X831651Y321291D01*
X831642Y321277D01*
X831641Y321269D01*
X831628Y321247D01*
X830159Y317097D01*
X830154Y317066D01*
X830139Y317026D01*
X829300Y312705D01*
X829300Y312649D01*
X829291Y312593D01*
X829301Y312551D01*
X829302Y312506D01*
X829324Y312455D01*
X829337Y312400D01*
X829363Y312365D01*
X829381Y312324D01*
X829422Y312285D01*
X829455Y312240D01*
X829493Y312217D01*
X829525Y312187D01*
X829578Y312167D01*
X829626Y312138D01*
X829677Y312130D01*
X829711Y312117D01*
X829745Y312118D01*
X829790Y312111D01*
X840790Y312111D01*
X840843Y312121D01*
G37*
G36*
X1760323Y312121D02*
X1760323Y312121D01*
X1760376Y312122D01*
X1760419Y312141D01*
X1760465Y312150D01*
X1760509Y312181D01*
X1760558Y312202D01*
X1760590Y312236D01*
X1760629Y312263D01*
X1760658Y312308D01*
X1760694Y312347D01*
X1760715Y312398D01*
X1760736Y312430D01*
X1760741Y312462D01*
X1760757Y312501D01*
X1761368Y315236D01*
X1762396Y317800D01*
X1763823Y320164D01*
X1765612Y322268D01*
X1767716Y324057D01*
X1770080Y325484D01*
X1772644Y326512D01*
X1775379Y327123D01*
X1775428Y327145D01*
X1775480Y327157D01*
X1775518Y327185D01*
X1775560Y327204D01*
X1775597Y327243D01*
X1775640Y327275D01*
X1775664Y327315D01*
X1775696Y327349D01*
X1775714Y327400D01*
X1775742Y327446D01*
X1775751Y327500D01*
X1775764Y327536D01*
X1775762Y327568D01*
X1775769Y327610D01*
X1775769Y338610D01*
X1775758Y338665D01*
X1775757Y338721D01*
X1775738Y338762D01*
X1775730Y338805D01*
X1775698Y338851D01*
X1775675Y338903D01*
X1775642Y338932D01*
X1775617Y338969D01*
X1775570Y338999D01*
X1775528Y339037D01*
X1775487Y339052D01*
X1775450Y339076D01*
X1775394Y339085D01*
X1775341Y339104D01*
X1775289Y339103D01*
X1775253Y339109D01*
X1775221Y339101D01*
X1775175Y339100D01*
X1770854Y338261D01*
X1770825Y338249D01*
X1770783Y338241D01*
X1766633Y336772D01*
X1766606Y336756D01*
X1766566Y336742D01*
X1762679Y334676D01*
X1762655Y334656D01*
X1762617Y334637D01*
X1759078Y332019D01*
X1759057Y331995D01*
X1759022Y331970D01*
X1755910Y328858D01*
X1755892Y328832D01*
X1755861Y328802D01*
X1753243Y325264D01*
X1753230Y325235D01*
X1753204Y325201D01*
X1751138Y321314D01*
X1751131Y321291D01*
X1751122Y321277D01*
X1751121Y321269D01*
X1751108Y321247D01*
X1749639Y317097D01*
X1749634Y317066D01*
X1749619Y317026D01*
X1748780Y312705D01*
X1748780Y312649D01*
X1748771Y312593D01*
X1748781Y312551D01*
X1748782Y312506D01*
X1748804Y312455D01*
X1748817Y312400D01*
X1748843Y312365D01*
X1748861Y312324D01*
X1748902Y312285D01*
X1748935Y312240D01*
X1748973Y312217D01*
X1749005Y312187D01*
X1749058Y312167D01*
X1749106Y312138D01*
X1749157Y312130D01*
X1749191Y312117D01*
X1749225Y312118D01*
X1749270Y312111D01*
X1760270Y312111D01*
X1760323Y312121D01*
G37*
G36*
X840843Y779481D02*
X840843Y779481D01*
X840896Y779482D01*
X840939Y779501D01*
X840985Y779510D01*
X841029Y779541D01*
X841078Y779562D01*
X841110Y779596D01*
X841149Y779623D01*
X841178Y779668D01*
X841214Y779707D01*
X841235Y779758D01*
X841256Y779790D01*
X841261Y779822D01*
X841277Y779861D01*
X841888Y782596D01*
X842916Y785160D01*
X844343Y787524D01*
X846132Y789628D01*
X848236Y791417D01*
X850600Y792844D01*
X853164Y793872D01*
X855899Y794483D01*
X855948Y794505D01*
X856000Y794517D01*
X856038Y794545D01*
X856080Y794564D01*
X856117Y794603D01*
X856160Y794635D01*
X856184Y794675D01*
X856216Y794709D01*
X856234Y794760D01*
X856262Y794806D01*
X856271Y794860D01*
X856284Y794896D01*
X856282Y794928D01*
X856289Y794970D01*
X856289Y805970D01*
X856278Y806025D01*
X856277Y806081D01*
X856258Y806122D01*
X856250Y806165D01*
X856218Y806211D01*
X856195Y806263D01*
X856162Y806292D01*
X856137Y806329D01*
X856090Y806359D01*
X856048Y806397D01*
X856007Y806412D01*
X855970Y806436D01*
X855914Y806445D01*
X855861Y806464D01*
X855809Y806463D01*
X855773Y806469D01*
X855741Y806461D01*
X855695Y806460D01*
X851374Y805621D01*
X851345Y805609D01*
X851303Y805601D01*
X847153Y804132D01*
X847126Y804116D01*
X847086Y804102D01*
X843199Y802036D01*
X843175Y802016D01*
X843137Y801997D01*
X839598Y799379D01*
X839577Y799355D01*
X839542Y799330D01*
X836430Y796218D01*
X836412Y796192D01*
X836381Y796162D01*
X833763Y792624D01*
X833750Y792595D01*
X833724Y792561D01*
X831658Y788674D01*
X831651Y788651D01*
X831642Y788637D01*
X831641Y788629D01*
X831628Y788607D01*
X830159Y784457D01*
X830154Y784426D01*
X830139Y784386D01*
X829300Y780065D01*
X829300Y780009D01*
X829291Y779953D01*
X829301Y779911D01*
X829302Y779866D01*
X829324Y779815D01*
X829337Y779760D01*
X829363Y779725D01*
X829381Y779684D01*
X829422Y779645D01*
X829455Y779600D01*
X829493Y779577D01*
X829525Y779547D01*
X829578Y779527D01*
X829626Y779498D01*
X829677Y779490D01*
X829711Y779477D01*
X829745Y779478D01*
X829790Y779471D01*
X840790Y779471D01*
X840843Y779481D01*
G37*
G36*
X1809325Y312122D02*
X1809325Y312122D01*
X1809381Y312123D01*
X1809422Y312142D01*
X1809465Y312150D01*
X1809511Y312182D01*
X1809563Y312205D01*
X1809592Y312238D01*
X1809629Y312263D01*
X1809659Y312310D01*
X1809697Y312352D01*
X1809712Y312393D01*
X1809736Y312430D01*
X1809745Y312486D01*
X1809764Y312539D01*
X1809763Y312591D01*
X1809769Y312627D01*
X1809761Y312659D01*
X1809760Y312705D01*
X1808921Y317026D01*
X1808909Y317055D01*
X1808901Y317097D01*
X1807432Y321247D01*
X1807416Y321274D01*
X1807407Y321301D01*
X1807405Y321307D01*
X1807404Y321309D01*
X1807402Y321314D01*
X1805336Y325201D01*
X1805316Y325225D01*
X1805297Y325264D01*
X1802679Y328802D01*
X1802655Y328823D01*
X1802630Y328858D01*
X1799518Y331970D01*
X1799492Y331988D01*
X1799462Y332019D01*
X1795924Y334637D01*
X1795895Y334650D01*
X1795861Y334676D01*
X1791974Y336742D01*
X1791944Y336751D01*
X1791907Y336772D01*
X1787757Y338241D01*
X1787726Y338246D01*
X1787686Y338261D01*
X1783365Y339100D01*
X1783309Y339100D01*
X1783253Y339109D01*
X1783211Y339099D01*
X1783166Y339098D01*
X1783115Y339076D01*
X1783060Y339063D01*
X1783025Y339037D01*
X1782984Y339019D01*
X1782945Y338978D01*
X1782900Y338945D01*
X1782877Y338907D01*
X1782847Y338875D01*
X1782827Y338822D01*
X1782798Y338774D01*
X1782790Y338723D01*
X1782777Y338689D01*
X1782778Y338655D01*
X1782771Y338610D01*
X1782771Y327610D01*
X1782781Y327557D01*
X1782782Y327504D01*
X1782801Y327461D01*
X1782810Y327415D01*
X1782841Y327371D01*
X1782862Y327322D01*
X1782896Y327290D01*
X1782923Y327251D01*
X1782968Y327222D01*
X1783007Y327186D01*
X1783058Y327165D01*
X1783090Y327144D01*
X1783122Y327139D01*
X1783161Y327123D01*
X1785896Y326512D01*
X1788460Y325484D01*
X1790824Y324057D01*
X1792928Y322268D01*
X1794717Y320164D01*
X1796144Y317800D01*
X1797172Y315236D01*
X1797783Y312501D01*
X1797805Y312452D01*
X1797817Y312400D01*
X1797845Y312362D01*
X1797864Y312320D01*
X1797903Y312283D01*
X1797935Y312240D01*
X1797975Y312216D01*
X1798009Y312184D01*
X1798060Y312166D01*
X1798106Y312138D01*
X1798160Y312129D01*
X1798196Y312116D01*
X1798228Y312118D01*
X1798270Y312111D01*
X1809270Y312111D01*
X1809325Y312122D01*
G37*
G36*
X889845Y779482D02*
X889845Y779482D01*
X889901Y779483D01*
X889942Y779502D01*
X889985Y779510D01*
X890031Y779542D01*
X890083Y779565D01*
X890112Y779598D01*
X890149Y779623D01*
X890179Y779670D01*
X890217Y779712D01*
X890232Y779753D01*
X890256Y779790D01*
X890265Y779846D01*
X890284Y779899D01*
X890283Y779951D01*
X890289Y779987D01*
X890281Y780019D01*
X890280Y780065D01*
X889441Y784386D01*
X889429Y784415D01*
X889421Y784457D01*
X887952Y788607D01*
X887936Y788634D01*
X887927Y788661D01*
X887925Y788667D01*
X887924Y788669D01*
X887922Y788674D01*
X885856Y792561D01*
X885836Y792585D01*
X885817Y792624D01*
X883199Y796162D01*
X883175Y796183D01*
X883150Y796218D01*
X880038Y799330D01*
X880012Y799348D01*
X879982Y799379D01*
X876444Y801997D01*
X876415Y802010D01*
X876381Y802036D01*
X872494Y804102D01*
X872464Y804111D01*
X872427Y804132D01*
X868277Y805601D01*
X868246Y805606D01*
X868206Y805621D01*
X863885Y806460D01*
X863829Y806460D01*
X863773Y806469D01*
X863731Y806459D01*
X863686Y806458D01*
X863635Y806436D01*
X863580Y806423D01*
X863545Y806397D01*
X863504Y806379D01*
X863465Y806338D01*
X863420Y806305D01*
X863397Y806267D01*
X863367Y806235D01*
X863347Y806182D01*
X863318Y806134D01*
X863310Y806083D01*
X863297Y806049D01*
X863298Y806015D01*
X863291Y805970D01*
X863291Y794970D01*
X863301Y794917D01*
X863302Y794864D01*
X863321Y794821D01*
X863330Y794775D01*
X863361Y794731D01*
X863382Y794682D01*
X863416Y794650D01*
X863443Y794611D01*
X863488Y794582D01*
X863527Y794546D01*
X863578Y794525D01*
X863610Y794504D01*
X863642Y794499D01*
X863681Y794483D01*
X866416Y793872D01*
X868980Y792844D01*
X871344Y791417D01*
X873448Y789628D01*
X875237Y787524D01*
X876664Y785160D01*
X877692Y782596D01*
X878303Y779861D01*
X878325Y779812D01*
X878337Y779760D01*
X878365Y779722D01*
X878384Y779680D01*
X878423Y779643D01*
X878455Y779600D01*
X878495Y779576D01*
X878529Y779544D01*
X878580Y779526D01*
X878626Y779498D01*
X878680Y779489D01*
X878716Y779476D01*
X878748Y779478D01*
X878790Y779471D01*
X889790Y779471D01*
X889845Y779482D01*
G37*
G36*
X889845Y312122D02*
X889845Y312122D01*
X889901Y312123D01*
X889942Y312142D01*
X889985Y312150D01*
X890031Y312182D01*
X890083Y312205D01*
X890112Y312238D01*
X890149Y312263D01*
X890179Y312310D01*
X890217Y312352D01*
X890232Y312393D01*
X890256Y312430D01*
X890265Y312486D01*
X890284Y312539D01*
X890283Y312591D01*
X890289Y312627D01*
X890281Y312659D01*
X890280Y312705D01*
X889441Y317026D01*
X889429Y317055D01*
X889421Y317097D01*
X887952Y321247D01*
X887936Y321274D01*
X887927Y321301D01*
X887925Y321307D01*
X887924Y321309D01*
X887922Y321314D01*
X885856Y325201D01*
X885836Y325225D01*
X885817Y325264D01*
X883199Y328802D01*
X883175Y328823D01*
X883150Y328858D01*
X880038Y331970D01*
X880012Y331988D01*
X879982Y332019D01*
X876444Y334637D01*
X876415Y334650D01*
X876381Y334676D01*
X872494Y336742D01*
X872464Y336751D01*
X872427Y336772D01*
X868277Y338241D01*
X868246Y338246D01*
X868206Y338261D01*
X863885Y339100D01*
X863829Y339100D01*
X863773Y339109D01*
X863731Y339099D01*
X863686Y339098D01*
X863635Y339076D01*
X863580Y339063D01*
X863545Y339037D01*
X863504Y339019D01*
X863465Y338978D01*
X863420Y338945D01*
X863397Y338907D01*
X863367Y338875D01*
X863347Y338822D01*
X863318Y338774D01*
X863310Y338723D01*
X863297Y338689D01*
X863298Y338655D01*
X863291Y338610D01*
X863291Y327610D01*
X863301Y327557D01*
X863302Y327504D01*
X863321Y327461D01*
X863330Y327415D01*
X863361Y327371D01*
X863382Y327322D01*
X863416Y327290D01*
X863443Y327251D01*
X863488Y327222D01*
X863527Y327186D01*
X863578Y327165D01*
X863610Y327144D01*
X863642Y327139D01*
X863681Y327123D01*
X866416Y326512D01*
X868980Y325484D01*
X871344Y324057D01*
X873448Y322268D01*
X875237Y320164D01*
X876664Y317800D01*
X877692Y315236D01*
X878303Y312501D01*
X878325Y312452D01*
X878337Y312400D01*
X878365Y312362D01*
X878384Y312320D01*
X878423Y312283D01*
X878455Y312240D01*
X878495Y312216D01*
X878529Y312184D01*
X878580Y312166D01*
X878626Y312138D01*
X878680Y312129D01*
X878716Y312116D01*
X878748Y312118D01*
X878790Y312111D01*
X889790Y312111D01*
X889845Y312122D01*
G37*
G36*
X1809325Y545802D02*
X1809325Y545802D01*
X1809381Y545803D01*
X1809422Y545822D01*
X1809465Y545830D01*
X1809511Y545862D01*
X1809563Y545885D01*
X1809592Y545918D01*
X1809629Y545943D01*
X1809659Y545990D01*
X1809697Y546032D01*
X1809712Y546073D01*
X1809736Y546110D01*
X1809745Y546166D01*
X1809764Y546219D01*
X1809763Y546271D01*
X1809769Y546307D01*
X1809761Y546339D01*
X1809760Y546385D01*
X1808921Y550706D01*
X1808909Y550735D01*
X1808901Y550777D01*
X1807432Y554927D01*
X1807416Y554954D01*
X1807407Y554981D01*
X1807405Y554987D01*
X1807404Y554989D01*
X1807402Y554994D01*
X1805336Y558881D01*
X1805316Y558905D01*
X1805297Y558944D01*
X1802679Y562482D01*
X1802655Y562503D01*
X1802630Y562538D01*
X1799518Y565650D01*
X1799492Y565668D01*
X1799462Y565699D01*
X1795924Y568317D01*
X1795895Y568330D01*
X1795861Y568356D01*
X1791974Y570422D01*
X1791944Y570431D01*
X1791907Y570452D01*
X1787757Y571921D01*
X1787726Y571926D01*
X1787686Y571941D01*
X1783365Y572780D01*
X1783309Y572780D01*
X1783253Y572789D01*
X1783211Y572779D01*
X1783166Y572778D01*
X1783115Y572756D01*
X1783060Y572743D01*
X1783025Y572717D01*
X1782984Y572699D01*
X1782945Y572658D01*
X1782900Y572625D01*
X1782877Y572587D01*
X1782847Y572555D01*
X1782827Y572502D01*
X1782798Y572454D01*
X1782790Y572403D01*
X1782777Y572369D01*
X1782778Y572335D01*
X1782771Y572290D01*
X1782771Y561290D01*
X1782781Y561237D01*
X1782782Y561184D01*
X1782801Y561141D01*
X1782810Y561095D01*
X1782841Y561051D01*
X1782862Y561002D01*
X1782896Y560970D01*
X1782923Y560931D01*
X1782968Y560902D01*
X1783007Y560866D01*
X1783058Y560845D01*
X1783090Y560824D01*
X1783122Y560819D01*
X1783161Y560803D01*
X1785896Y560192D01*
X1788460Y559164D01*
X1790824Y557737D01*
X1792928Y555948D01*
X1794717Y553844D01*
X1796144Y551480D01*
X1797172Y548916D01*
X1797783Y546181D01*
X1797805Y546132D01*
X1797817Y546080D01*
X1797845Y546042D01*
X1797864Y546000D01*
X1797903Y545963D01*
X1797935Y545920D01*
X1797975Y545896D01*
X1798009Y545864D01*
X1798060Y545846D01*
X1798106Y545818D01*
X1798160Y545809D01*
X1798196Y545796D01*
X1798228Y545798D01*
X1798270Y545791D01*
X1809270Y545791D01*
X1809325Y545802D01*
G37*
G36*
X1809325Y779482D02*
X1809325Y779482D01*
X1809381Y779483D01*
X1809422Y779502D01*
X1809465Y779510D01*
X1809511Y779542D01*
X1809563Y779565D01*
X1809592Y779598D01*
X1809629Y779623D01*
X1809659Y779670D01*
X1809697Y779712D01*
X1809712Y779753D01*
X1809736Y779790D01*
X1809745Y779846D01*
X1809764Y779899D01*
X1809763Y779951D01*
X1809769Y779987D01*
X1809761Y780019D01*
X1809760Y780065D01*
X1808921Y784386D01*
X1808909Y784415D01*
X1808901Y784457D01*
X1807432Y788607D01*
X1807416Y788634D01*
X1807407Y788661D01*
X1807405Y788667D01*
X1807404Y788669D01*
X1807402Y788674D01*
X1805336Y792561D01*
X1805316Y792585D01*
X1805297Y792624D01*
X1802679Y796162D01*
X1802655Y796183D01*
X1802630Y796218D01*
X1799518Y799330D01*
X1799492Y799348D01*
X1799462Y799379D01*
X1795924Y801997D01*
X1795895Y802010D01*
X1795861Y802036D01*
X1791974Y804102D01*
X1791944Y804111D01*
X1791907Y804132D01*
X1787757Y805601D01*
X1787726Y805606D01*
X1787686Y805621D01*
X1783365Y806460D01*
X1783309Y806460D01*
X1783253Y806469D01*
X1783211Y806459D01*
X1783166Y806458D01*
X1783115Y806436D01*
X1783060Y806423D01*
X1783025Y806397D01*
X1782984Y806379D01*
X1782945Y806338D01*
X1782900Y806305D01*
X1782877Y806267D01*
X1782847Y806235D01*
X1782827Y806182D01*
X1782798Y806134D01*
X1782790Y806083D01*
X1782777Y806049D01*
X1782778Y806015D01*
X1782771Y805970D01*
X1782771Y794970D01*
X1782781Y794917D01*
X1782782Y794864D01*
X1782801Y794821D01*
X1782810Y794775D01*
X1782841Y794731D01*
X1782862Y794682D01*
X1782896Y794650D01*
X1782923Y794611D01*
X1782968Y794582D01*
X1783007Y794546D01*
X1783058Y794525D01*
X1783090Y794504D01*
X1783122Y794499D01*
X1783161Y794483D01*
X1785896Y793872D01*
X1788460Y792844D01*
X1790824Y791417D01*
X1792928Y789628D01*
X1794717Y787524D01*
X1796144Y785160D01*
X1797172Y782596D01*
X1797783Y779861D01*
X1797805Y779812D01*
X1797817Y779760D01*
X1797845Y779722D01*
X1797864Y779680D01*
X1797903Y779643D01*
X1797935Y779600D01*
X1797975Y779576D01*
X1798009Y779544D01*
X1798060Y779526D01*
X1798106Y779498D01*
X1798160Y779489D01*
X1798196Y779476D01*
X1798228Y779478D01*
X1798270Y779471D01*
X1809270Y779471D01*
X1809325Y779482D01*
G37*
G36*
X1809325Y78442D02*
X1809325Y78442D01*
X1809381Y78443D01*
X1809422Y78462D01*
X1809465Y78470D01*
X1809511Y78502D01*
X1809563Y78525D01*
X1809592Y78558D01*
X1809629Y78583D01*
X1809659Y78630D01*
X1809697Y78672D01*
X1809712Y78713D01*
X1809736Y78750D01*
X1809745Y78806D01*
X1809764Y78859D01*
X1809763Y78911D01*
X1809769Y78947D01*
X1809761Y78979D01*
X1809760Y79025D01*
X1808921Y83346D01*
X1808909Y83375D01*
X1808901Y83417D01*
X1807432Y87567D01*
X1807416Y87594D01*
X1807407Y87621D01*
X1807405Y87627D01*
X1807404Y87629D01*
X1807402Y87634D01*
X1805336Y91521D01*
X1805316Y91545D01*
X1805297Y91584D01*
X1802679Y95122D01*
X1802655Y95143D01*
X1802630Y95178D01*
X1799518Y98290D01*
X1799492Y98308D01*
X1799462Y98339D01*
X1795924Y100957D01*
X1795895Y100970D01*
X1795861Y100996D01*
X1791974Y103062D01*
X1791944Y103071D01*
X1791907Y103092D01*
X1787757Y104561D01*
X1787726Y104566D01*
X1787686Y104581D01*
X1783365Y105420D01*
X1783309Y105420D01*
X1783253Y105429D01*
X1783211Y105419D01*
X1783166Y105418D01*
X1783115Y105396D01*
X1783060Y105383D01*
X1783025Y105357D01*
X1782984Y105339D01*
X1782945Y105298D01*
X1782900Y105265D01*
X1782877Y105227D01*
X1782847Y105195D01*
X1782827Y105142D01*
X1782798Y105094D01*
X1782790Y105043D01*
X1782777Y105009D01*
X1782778Y104975D01*
X1782771Y104930D01*
X1782771Y93930D01*
X1782781Y93877D01*
X1782782Y93824D01*
X1782801Y93781D01*
X1782810Y93735D01*
X1782841Y93691D01*
X1782862Y93642D01*
X1782896Y93610D01*
X1782923Y93571D01*
X1782968Y93542D01*
X1783007Y93506D01*
X1783058Y93485D01*
X1783090Y93464D01*
X1783122Y93459D01*
X1783161Y93443D01*
X1785896Y92832D01*
X1788460Y91804D01*
X1790824Y90377D01*
X1792928Y88588D01*
X1794717Y86484D01*
X1796144Y84120D01*
X1797172Y81556D01*
X1797783Y78821D01*
X1797805Y78772D01*
X1797817Y78720D01*
X1797845Y78682D01*
X1797864Y78640D01*
X1797903Y78603D01*
X1797935Y78560D01*
X1797975Y78536D01*
X1798009Y78504D01*
X1798060Y78486D01*
X1798106Y78458D01*
X1798160Y78449D01*
X1798196Y78436D01*
X1798228Y78438D01*
X1798270Y78431D01*
X1809270Y78431D01*
X1809325Y78442D01*
G37*
G36*
X889845Y1013162D02*
X889845Y1013162D01*
X889901Y1013163D01*
X889942Y1013182D01*
X889985Y1013190D01*
X890031Y1013222D01*
X890083Y1013245D01*
X890112Y1013278D01*
X890149Y1013303D01*
X890179Y1013350D01*
X890217Y1013392D01*
X890232Y1013433D01*
X890256Y1013470D01*
X890265Y1013526D01*
X890284Y1013579D01*
X890283Y1013631D01*
X890289Y1013667D01*
X890281Y1013699D01*
X890280Y1013745D01*
X889441Y1018066D01*
X889429Y1018095D01*
X889421Y1018137D01*
X887952Y1022287D01*
X887936Y1022314D01*
X887927Y1022341D01*
X887925Y1022347D01*
X887924Y1022349D01*
X887922Y1022354D01*
X885856Y1026241D01*
X885836Y1026265D01*
X885817Y1026304D01*
X883199Y1029842D01*
X883175Y1029863D01*
X883150Y1029898D01*
X880038Y1033010D01*
X880012Y1033028D01*
X879982Y1033059D01*
X876444Y1035677D01*
X876415Y1035690D01*
X876381Y1035716D01*
X872494Y1037782D01*
X872464Y1037791D01*
X872427Y1037812D01*
X868277Y1039281D01*
X868246Y1039286D01*
X868206Y1039301D01*
X863885Y1040140D01*
X863829Y1040140D01*
X863773Y1040149D01*
X863731Y1040139D01*
X863686Y1040138D01*
X863635Y1040116D01*
X863580Y1040103D01*
X863545Y1040077D01*
X863504Y1040059D01*
X863465Y1040018D01*
X863420Y1039985D01*
X863397Y1039947D01*
X863367Y1039915D01*
X863347Y1039862D01*
X863318Y1039814D01*
X863310Y1039763D01*
X863297Y1039729D01*
X863298Y1039695D01*
X863291Y1039650D01*
X863291Y1028650D01*
X863301Y1028597D01*
X863302Y1028544D01*
X863321Y1028501D01*
X863330Y1028455D01*
X863361Y1028411D01*
X863382Y1028362D01*
X863416Y1028330D01*
X863443Y1028291D01*
X863488Y1028262D01*
X863527Y1028226D01*
X863578Y1028205D01*
X863610Y1028184D01*
X863642Y1028179D01*
X863681Y1028163D01*
X866416Y1027552D01*
X868980Y1026524D01*
X871344Y1025097D01*
X873448Y1023308D01*
X875237Y1021204D01*
X876664Y1018840D01*
X877692Y1016276D01*
X878303Y1013541D01*
X878325Y1013492D01*
X878337Y1013440D01*
X878365Y1013402D01*
X878384Y1013360D01*
X878423Y1013323D01*
X878455Y1013280D01*
X878495Y1013256D01*
X878529Y1013224D01*
X878580Y1013206D01*
X878626Y1013178D01*
X878680Y1013169D01*
X878716Y1013156D01*
X878748Y1013158D01*
X878790Y1013151D01*
X889790Y1013151D01*
X889845Y1013162D01*
G37*
G36*
X889845Y78442D02*
X889845Y78442D01*
X889901Y78443D01*
X889942Y78462D01*
X889985Y78470D01*
X890031Y78502D01*
X890083Y78525D01*
X890112Y78558D01*
X890149Y78583D01*
X890179Y78630D01*
X890217Y78672D01*
X890232Y78713D01*
X890256Y78750D01*
X890265Y78806D01*
X890284Y78859D01*
X890283Y78911D01*
X890289Y78947D01*
X890281Y78979D01*
X890280Y79025D01*
X889441Y83346D01*
X889429Y83375D01*
X889421Y83417D01*
X887952Y87567D01*
X887936Y87594D01*
X887927Y87621D01*
X887925Y87627D01*
X887924Y87629D01*
X887922Y87634D01*
X885856Y91521D01*
X885836Y91545D01*
X885817Y91584D01*
X883199Y95122D01*
X883175Y95143D01*
X883150Y95178D01*
X880038Y98290D01*
X880012Y98308D01*
X879982Y98339D01*
X876444Y100957D01*
X876415Y100970D01*
X876381Y100996D01*
X872494Y103062D01*
X872464Y103071D01*
X872427Y103092D01*
X868277Y104561D01*
X868246Y104566D01*
X868206Y104581D01*
X863885Y105420D01*
X863829Y105420D01*
X863773Y105429D01*
X863731Y105419D01*
X863686Y105418D01*
X863635Y105396D01*
X863580Y105383D01*
X863545Y105357D01*
X863504Y105339D01*
X863465Y105298D01*
X863420Y105265D01*
X863397Y105227D01*
X863367Y105195D01*
X863347Y105142D01*
X863318Y105094D01*
X863310Y105043D01*
X863297Y105009D01*
X863298Y104975D01*
X863291Y104930D01*
X863291Y93930D01*
X863301Y93877D01*
X863302Y93824D01*
X863321Y93781D01*
X863330Y93735D01*
X863361Y93691D01*
X863382Y93642D01*
X863416Y93610D01*
X863443Y93571D01*
X863488Y93542D01*
X863527Y93506D01*
X863578Y93485D01*
X863610Y93464D01*
X863642Y93459D01*
X863681Y93443D01*
X866416Y92832D01*
X868980Y91804D01*
X871344Y90377D01*
X873448Y88588D01*
X875237Y86484D01*
X876664Y84120D01*
X877692Y81556D01*
X878303Y78821D01*
X878325Y78772D01*
X878337Y78720D01*
X878365Y78682D01*
X878384Y78640D01*
X878423Y78603D01*
X878455Y78560D01*
X878495Y78536D01*
X878529Y78504D01*
X878580Y78486D01*
X878626Y78458D01*
X878680Y78449D01*
X878716Y78436D01*
X878748Y78438D01*
X878790Y78431D01*
X889790Y78431D01*
X889845Y78442D01*
G37*
G36*
X1809325Y1013162D02*
X1809325Y1013162D01*
X1809381Y1013163D01*
X1809422Y1013182D01*
X1809465Y1013190D01*
X1809511Y1013222D01*
X1809563Y1013245D01*
X1809592Y1013278D01*
X1809629Y1013303D01*
X1809659Y1013350D01*
X1809697Y1013392D01*
X1809712Y1013433D01*
X1809736Y1013470D01*
X1809745Y1013526D01*
X1809764Y1013579D01*
X1809763Y1013631D01*
X1809769Y1013667D01*
X1809761Y1013699D01*
X1809760Y1013745D01*
X1808921Y1018066D01*
X1808909Y1018095D01*
X1808901Y1018137D01*
X1807432Y1022287D01*
X1807416Y1022314D01*
X1807407Y1022341D01*
X1807405Y1022347D01*
X1807404Y1022349D01*
X1807402Y1022354D01*
X1805336Y1026241D01*
X1805316Y1026265D01*
X1805297Y1026304D01*
X1802679Y1029842D01*
X1802655Y1029863D01*
X1802630Y1029898D01*
X1799518Y1033010D01*
X1799492Y1033028D01*
X1799462Y1033059D01*
X1795924Y1035677D01*
X1795895Y1035690D01*
X1795861Y1035716D01*
X1791974Y1037782D01*
X1791944Y1037791D01*
X1791907Y1037812D01*
X1787757Y1039281D01*
X1787726Y1039286D01*
X1787686Y1039301D01*
X1783365Y1040140D01*
X1783309Y1040140D01*
X1783253Y1040149D01*
X1783211Y1040139D01*
X1783166Y1040138D01*
X1783115Y1040116D01*
X1783060Y1040103D01*
X1783025Y1040077D01*
X1782984Y1040059D01*
X1782945Y1040018D01*
X1782900Y1039985D01*
X1782877Y1039947D01*
X1782847Y1039915D01*
X1782827Y1039862D01*
X1782798Y1039814D01*
X1782790Y1039763D01*
X1782777Y1039729D01*
X1782778Y1039695D01*
X1782771Y1039650D01*
X1782771Y1028650D01*
X1782781Y1028597D01*
X1782782Y1028544D01*
X1782801Y1028501D01*
X1782810Y1028455D01*
X1782841Y1028411D01*
X1782862Y1028362D01*
X1782896Y1028330D01*
X1782923Y1028291D01*
X1782968Y1028262D01*
X1783007Y1028226D01*
X1783058Y1028205D01*
X1783090Y1028184D01*
X1783122Y1028179D01*
X1783161Y1028163D01*
X1785896Y1027552D01*
X1788460Y1026524D01*
X1790824Y1025097D01*
X1792928Y1023308D01*
X1794717Y1021204D01*
X1796144Y1018840D01*
X1797172Y1016276D01*
X1797783Y1013541D01*
X1797805Y1013492D01*
X1797817Y1013440D01*
X1797845Y1013402D01*
X1797864Y1013360D01*
X1797903Y1013323D01*
X1797935Y1013280D01*
X1797975Y1013256D01*
X1798009Y1013224D01*
X1798060Y1013206D01*
X1798106Y1013178D01*
X1798160Y1013169D01*
X1798196Y1013156D01*
X1798228Y1013158D01*
X1798270Y1013151D01*
X1809270Y1013151D01*
X1809325Y1013162D01*
G37*
G36*
X889845Y545802D02*
X889845Y545802D01*
X889901Y545803D01*
X889942Y545822D01*
X889985Y545830D01*
X890031Y545862D01*
X890083Y545885D01*
X890112Y545918D01*
X890149Y545943D01*
X890179Y545990D01*
X890217Y546032D01*
X890232Y546073D01*
X890256Y546110D01*
X890265Y546166D01*
X890284Y546219D01*
X890283Y546271D01*
X890289Y546307D01*
X890281Y546339D01*
X890280Y546385D01*
X889441Y550706D01*
X889429Y550735D01*
X889421Y550777D01*
X887952Y554927D01*
X887936Y554954D01*
X887927Y554981D01*
X887925Y554987D01*
X887924Y554989D01*
X887922Y554994D01*
X885856Y558881D01*
X885836Y558905D01*
X885817Y558944D01*
X883199Y562482D01*
X883175Y562503D01*
X883150Y562538D01*
X880038Y565650D01*
X880012Y565668D01*
X879982Y565699D01*
X876444Y568317D01*
X876415Y568330D01*
X876381Y568356D01*
X872494Y570422D01*
X872464Y570431D01*
X872427Y570452D01*
X868277Y571921D01*
X868246Y571926D01*
X868206Y571941D01*
X863885Y572780D01*
X863829Y572780D01*
X863773Y572789D01*
X863731Y572779D01*
X863686Y572778D01*
X863635Y572756D01*
X863580Y572743D01*
X863545Y572717D01*
X863504Y572699D01*
X863465Y572658D01*
X863420Y572625D01*
X863397Y572587D01*
X863367Y572555D01*
X863347Y572502D01*
X863318Y572454D01*
X863310Y572403D01*
X863297Y572369D01*
X863298Y572335D01*
X863291Y572290D01*
X863291Y561290D01*
X863301Y561237D01*
X863302Y561184D01*
X863321Y561141D01*
X863330Y561095D01*
X863361Y561051D01*
X863382Y561002D01*
X863416Y560970D01*
X863443Y560931D01*
X863488Y560902D01*
X863527Y560866D01*
X863578Y560845D01*
X863610Y560824D01*
X863642Y560819D01*
X863681Y560803D01*
X866416Y560192D01*
X868980Y559164D01*
X871344Y557737D01*
X873448Y555948D01*
X875237Y553844D01*
X876664Y551480D01*
X877692Y548916D01*
X878303Y546181D01*
X878325Y546132D01*
X878337Y546080D01*
X878365Y546042D01*
X878384Y546000D01*
X878423Y545963D01*
X878455Y545920D01*
X878495Y545896D01*
X878529Y545864D01*
X878580Y545846D01*
X878626Y545818D01*
X878680Y545809D01*
X878716Y545796D01*
X878748Y545798D01*
X878790Y545791D01*
X889790Y545791D01*
X889845Y545802D01*
G37*
G36*
X863839Y745479D02*
X863839Y745479D01*
X863885Y745480D01*
X868206Y746319D01*
X868235Y746331D01*
X868277Y746339D01*
X872427Y747808D01*
X872454Y747824D01*
X872494Y747838D01*
X876381Y749904D01*
X876405Y749924D01*
X876444Y749943D01*
X879982Y752561D01*
X880003Y752585D01*
X880038Y752610D01*
X883150Y755722D01*
X883168Y755749D01*
X883199Y755778D01*
X885817Y759317D01*
X885830Y759345D01*
X885856Y759379D01*
X887922Y763266D01*
X887931Y763296D01*
X887952Y763333D01*
X889421Y767483D01*
X889426Y767514D01*
X889441Y767554D01*
X890280Y771875D01*
X890280Y771931D01*
X890289Y771987D01*
X890279Y772029D01*
X890278Y772074D01*
X890256Y772125D01*
X890243Y772180D01*
X890217Y772216D01*
X890199Y772256D01*
X890158Y772295D01*
X890125Y772340D01*
X890087Y772363D01*
X890055Y772393D01*
X890002Y772413D01*
X889954Y772442D01*
X889903Y772450D01*
X889869Y772463D01*
X889835Y772462D01*
X889790Y772469D01*
X878790Y772469D01*
X878737Y772459D01*
X878684Y772458D01*
X878641Y772439D01*
X878595Y772430D01*
X878551Y772399D01*
X878502Y772378D01*
X878470Y772344D01*
X878431Y772317D01*
X878402Y772272D01*
X878366Y772233D01*
X878345Y772182D01*
X878324Y772150D01*
X878319Y772118D01*
X878316Y772112D01*
X878315Y772111D01*
X878315Y772110D01*
X878303Y772079D01*
X877692Y769344D01*
X876664Y766780D01*
X875237Y764416D01*
X873448Y762312D01*
X871344Y760523D01*
X868980Y759096D01*
X866416Y758068D01*
X863681Y757457D01*
X863632Y757435D01*
X863580Y757423D01*
X863542Y757395D01*
X863500Y757376D01*
X863463Y757337D01*
X863420Y757305D01*
X863396Y757265D01*
X863364Y757231D01*
X863346Y757180D01*
X863318Y757134D01*
X863309Y757080D01*
X863296Y757044D01*
X863298Y757012D01*
X863291Y756970D01*
X863291Y745970D01*
X863302Y745915D01*
X863303Y745859D01*
X863322Y745818D01*
X863330Y745775D01*
X863362Y745729D01*
X863385Y745678D01*
X863418Y745648D01*
X863443Y745611D01*
X863490Y745581D01*
X863532Y745543D01*
X863573Y745528D01*
X863610Y745504D01*
X863666Y745495D01*
X863719Y745476D01*
X863771Y745477D01*
X863807Y745471D01*
X863839Y745479D01*
G37*
G36*
X1783319Y278119D02*
X1783319Y278119D01*
X1783365Y278120D01*
X1787686Y278959D01*
X1787715Y278971D01*
X1787757Y278979D01*
X1791907Y280448D01*
X1791934Y280464D01*
X1791974Y280478D01*
X1795861Y282544D01*
X1795885Y282564D01*
X1795924Y282583D01*
X1799462Y285201D01*
X1799483Y285225D01*
X1799518Y285250D01*
X1802630Y288362D01*
X1802648Y288389D01*
X1802679Y288418D01*
X1805297Y291957D01*
X1805310Y291985D01*
X1805336Y292019D01*
X1807402Y295906D01*
X1807411Y295936D01*
X1807432Y295973D01*
X1808901Y300123D01*
X1808906Y300154D01*
X1808921Y300194D01*
X1809760Y304515D01*
X1809760Y304571D01*
X1809769Y304627D01*
X1809759Y304669D01*
X1809758Y304714D01*
X1809736Y304765D01*
X1809723Y304820D01*
X1809697Y304856D01*
X1809679Y304896D01*
X1809638Y304935D01*
X1809605Y304980D01*
X1809567Y305003D01*
X1809535Y305033D01*
X1809482Y305053D01*
X1809434Y305082D01*
X1809383Y305090D01*
X1809349Y305103D01*
X1809315Y305102D01*
X1809270Y305109D01*
X1798270Y305109D01*
X1798217Y305099D01*
X1798164Y305098D01*
X1798121Y305079D01*
X1798075Y305070D01*
X1798031Y305039D01*
X1797982Y305018D01*
X1797950Y304984D01*
X1797911Y304957D01*
X1797882Y304912D01*
X1797846Y304873D01*
X1797825Y304822D01*
X1797804Y304790D01*
X1797799Y304758D01*
X1797796Y304752D01*
X1797795Y304751D01*
X1797795Y304750D01*
X1797783Y304719D01*
X1797172Y301984D01*
X1796144Y299420D01*
X1794717Y297056D01*
X1792928Y294952D01*
X1790824Y293163D01*
X1788460Y291736D01*
X1785896Y290708D01*
X1783161Y290097D01*
X1783112Y290075D01*
X1783060Y290063D01*
X1783022Y290035D01*
X1782980Y290016D01*
X1782943Y289977D01*
X1782900Y289945D01*
X1782876Y289905D01*
X1782844Y289871D01*
X1782826Y289820D01*
X1782798Y289774D01*
X1782789Y289720D01*
X1782776Y289684D01*
X1782778Y289652D01*
X1782771Y289610D01*
X1782771Y278610D01*
X1782782Y278555D01*
X1782783Y278499D01*
X1782802Y278458D01*
X1782810Y278415D01*
X1782842Y278369D01*
X1782865Y278318D01*
X1782898Y278288D01*
X1782923Y278251D01*
X1782970Y278221D01*
X1783012Y278183D01*
X1783053Y278168D01*
X1783090Y278144D01*
X1783146Y278135D01*
X1783199Y278116D01*
X1783251Y278117D01*
X1783287Y278111D01*
X1783319Y278119D01*
G37*
G36*
X863839Y511799D02*
X863839Y511799D01*
X863885Y511800D01*
X868206Y512639D01*
X868235Y512651D01*
X868277Y512659D01*
X872427Y514128D01*
X872454Y514144D01*
X872494Y514158D01*
X876381Y516224D01*
X876405Y516244D01*
X876444Y516263D01*
X879982Y518881D01*
X880003Y518905D01*
X880038Y518930D01*
X883150Y522042D01*
X883168Y522069D01*
X883199Y522098D01*
X885817Y525637D01*
X885830Y525665D01*
X885856Y525699D01*
X887922Y529586D01*
X887931Y529616D01*
X887952Y529653D01*
X889421Y533803D01*
X889426Y533834D01*
X889441Y533874D01*
X890280Y538195D01*
X890280Y538251D01*
X890289Y538307D01*
X890279Y538349D01*
X890278Y538394D01*
X890256Y538445D01*
X890243Y538500D01*
X890217Y538536D01*
X890199Y538576D01*
X890158Y538615D01*
X890125Y538660D01*
X890087Y538683D01*
X890055Y538713D01*
X890002Y538733D01*
X889954Y538762D01*
X889903Y538770D01*
X889869Y538783D01*
X889835Y538782D01*
X889790Y538789D01*
X878790Y538789D01*
X878737Y538779D01*
X878684Y538778D01*
X878641Y538759D01*
X878595Y538750D01*
X878551Y538719D01*
X878502Y538698D01*
X878470Y538664D01*
X878431Y538637D01*
X878402Y538592D01*
X878366Y538553D01*
X878345Y538502D01*
X878324Y538470D01*
X878319Y538438D01*
X878316Y538432D01*
X878315Y538431D01*
X878315Y538430D01*
X878303Y538399D01*
X877692Y535664D01*
X876664Y533100D01*
X875237Y530736D01*
X873448Y528632D01*
X871344Y526843D01*
X868980Y525416D01*
X866416Y524388D01*
X863681Y523777D01*
X863632Y523755D01*
X863580Y523743D01*
X863542Y523715D01*
X863500Y523696D01*
X863463Y523657D01*
X863420Y523625D01*
X863396Y523585D01*
X863364Y523551D01*
X863346Y523500D01*
X863318Y523454D01*
X863309Y523400D01*
X863296Y523364D01*
X863298Y523332D01*
X863291Y523290D01*
X863291Y512290D01*
X863302Y512235D01*
X863303Y512179D01*
X863322Y512138D01*
X863330Y512095D01*
X863362Y512049D01*
X863385Y511998D01*
X863418Y511968D01*
X863443Y511931D01*
X863490Y511901D01*
X863532Y511863D01*
X863573Y511848D01*
X863610Y511824D01*
X863666Y511815D01*
X863719Y511796D01*
X863771Y511797D01*
X863807Y511791D01*
X863839Y511799D01*
G37*
G36*
X863839Y979159D02*
X863839Y979159D01*
X863885Y979160D01*
X868206Y979999D01*
X868235Y980011D01*
X868277Y980019D01*
X872427Y981488D01*
X872454Y981504D01*
X872494Y981518D01*
X876381Y983584D01*
X876405Y983604D01*
X876444Y983623D01*
X879982Y986241D01*
X880003Y986265D01*
X880038Y986290D01*
X883150Y989402D01*
X883168Y989429D01*
X883199Y989458D01*
X885817Y992997D01*
X885830Y993025D01*
X885856Y993059D01*
X887922Y996946D01*
X887931Y996976D01*
X887952Y997013D01*
X889421Y1001163D01*
X889426Y1001194D01*
X889441Y1001234D01*
X890280Y1005555D01*
X890280Y1005611D01*
X890289Y1005667D01*
X890279Y1005709D01*
X890278Y1005754D01*
X890256Y1005805D01*
X890243Y1005860D01*
X890217Y1005896D01*
X890199Y1005936D01*
X890158Y1005975D01*
X890125Y1006020D01*
X890087Y1006043D01*
X890055Y1006073D01*
X890002Y1006093D01*
X889954Y1006122D01*
X889903Y1006130D01*
X889869Y1006143D01*
X889835Y1006142D01*
X889790Y1006149D01*
X878790Y1006149D01*
X878737Y1006139D01*
X878684Y1006138D01*
X878641Y1006119D01*
X878595Y1006110D01*
X878551Y1006079D01*
X878502Y1006058D01*
X878470Y1006024D01*
X878431Y1005997D01*
X878402Y1005952D01*
X878366Y1005913D01*
X878345Y1005862D01*
X878324Y1005830D01*
X878319Y1005798D01*
X878316Y1005792D01*
X878315Y1005791D01*
X878315Y1005790D01*
X878303Y1005759D01*
X877692Y1003024D01*
X876664Y1000460D01*
X875237Y998096D01*
X873448Y995992D01*
X871344Y994203D01*
X868980Y992776D01*
X866416Y991748D01*
X863681Y991137D01*
X863632Y991115D01*
X863580Y991103D01*
X863542Y991075D01*
X863500Y991056D01*
X863463Y991017D01*
X863420Y990985D01*
X863396Y990945D01*
X863364Y990911D01*
X863346Y990860D01*
X863318Y990814D01*
X863309Y990760D01*
X863296Y990724D01*
X863298Y990692D01*
X863291Y990650D01*
X863291Y979650D01*
X863302Y979595D01*
X863303Y979539D01*
X863322Y979498D01*
X863330Y979455D01*
X863362Y979409D01*
X863385Y979358D01*
X863418Y979328D01*
X863443Y979291D01*
X863490Y979261D01*
X863532Y979223D01*
X863573Y979208D01*
X863610Y979184D01*
X863666Y979175D01*
X863719Y979156D01*
X863771Y979157D01*
X863807Y979151D01*
X863839Y979159D01*
G37*
G36*
X1783319Y979159D02*
X1783319Y979159D01*
X1783365Y979160D01*
X1787686Y979999D01*
X1787715Y980011D01*
X1787757Y980019D01*
X1791907Y981488D01*
X1791934Y981504D01*
X1791974Y981518D01*
X1795861Y983584D01*
X1795885Y983604D01*
X1795924Y983623D01*
X1799462Y986241D01*
X1799483Y986265D01*
X1799518Y986290D01*
X1802630Y989402D01*
X1802648Y989429D01*
X1802679Y989458D01*
X1805297Y992997D01*
X1805310Y993025D01*
X1805336Y993059D01*
X1807402Y996946D01*
X1807411Y996976D01*
X1807432Y997013D01*
X1808901Y1001163D01*
X1808906Y1001194D01*
X1808921Y1001234D01*
X1809760Y1005555D01*
X1809760Y1005611D01*
X1809769Y1005667D01*
X1809759Y1005709D01*
X1809758Y1005754D01*
X1809736Y1005805D01*
X1809723Y1005860D01*
X1809697Y1005896D01*
X1809679Y1005936D01*
X1809638Y1005975D01*
X1809605Y1006020D01*
X1809567Y1006043D01*
X1809535Y1006073D01*
X1809482Y1006093D01*
X1809434Y1006122D01*
X1809383Y1006130D01*
X1809349Y1006143D01*
X1809315Y1006142D01*
X1809270Y1006149D01*
X1798270Y1006149D01*
X1798217Y1006139D01*
X1798164Y1006138D01*
X1798121Y1006119D01*
X1798075Y1006110D01*
X1798031Y1006079D01*
X1797982Y1006058D01*
X1797950Y1006024D01*
X1797911Y1005997D01*
X1797882Y1005952D01*
X1797846Y1005913D01*
X1797825Y1005862D01*
X1797804Y1005830D01*
X1797799Y1005798D01*
X1797796Y1005792D01*
X1797795Y1005791D01*
X1797795Y1005790D01*
X1797783Y1005759D01*
X1797172Y1003024D01*
X1796144Y1000460D01*
X1794717Y998096D01*
X1792928Y995992D01*
X1790824Y994203D01*
X1788460Y992776D01*
X1785896Y991748D01*
X1783161Y991137D01*
X1783112Y991115D01*
X1783060Y991103D01*
X1783022Y991075D01*
X1782980Y991056D01*
X1782943Y991017D01*
X1782900Y990985D01*
X1782876Y990945D01*
X1782844Y990911D01*
X1782826Y990860D01*
X1782798Y990814D01*
X1782789Y990760D01*
X1782776Y990724D01*
X1782778Y990692D01*
X1782771Y990650D01*
X1782771Y979650D01*
X1782782Y979595D01*
X1782783Y979539D01*
X1782802Y979498D01*
X1782810Y979455D01*
X1782842Y979409D01*
X1782865Y979358D01*
X1782898Y979328D01*
X1782923Y979291D01*
X1782970Y979261D01*
X1783012Y979223D01*
X1783053Y979208D01*
X1783090Y979184D01*
X1783146Y979175D01*
X1783199Y979156D01*
X1783251Y979157D01*
X1783287Y979151D01*
X1783319Y979159D01*
G37*
G36*
X1783319Y511799D02*
X1783319Y511799D01*
X1783365Y511800D01*
X1787686Y512639D01*
X1787715Y512651D01*
X1787757Y512659D01*
X1791907Y514128D01*
X1791934Y514144D01*
X1791974Y514158D01*
X1795861Y516224D01*
X1795885Y516244D01*
X1795924Y516263D01*
X1799462Y518881D01*
X1799483Y518905D01*
X1799518Y518930D01*
X1802630Y522042D01*
X1802648Y522069D01*
X1802679Y522098D01*
X1805297Y525637D01*
X1805310Y525665D01*
X1805336Y525699D01*
X1807402Y529586D01*
X1807411Y529616D01*
X1807432Y529653D01*
X1808901Y533803D01*
X1808906Y533834D01*
X1808921Y533874D01*
X1809760Y538195D01*
X1809760Y538251D01*
X1809769Y538307D01*
X1809759Y538349D01*
X1809758Y538394D01*
X1809736Y538445D01*
X1809723Y538500D01*
X1809697Y538536D01*
X1809679Y538576D01*
X1809638Y538615D01*
X1809605Y538660D01*
X1809567Y538683D01*
X1809535Y538713D01*
X1809482Y538733D01*
X1809434Y538762D01*
X1809383Y538770D01*
X1809349Y538783D01*
X1809315Y538782D01*
X1809270Y538789D01*
X1798270Y538789D01*
X1798217Y538779D01*
X1798164Y538778D01*
X1798121Y538759D01*
X1798075Y538750D01*
X1798031Y538719D01*
X1797982Y538698D01*
X1797950Y538664D01*
X1797911Y538637D01*
X1797882Y538592D01*
X1797846Y538553D01*
X1797825Y538502D01*
X1797804Y538470D01*
X1797799Y538438D01*
X1797796Y538432D01*
X1797795Y538431D01*
X1797795Y538430D01*
X1797783Y538399D01*
X1797172Y535664D01*
X1796144Y533100D01*
X1794717Y530736D01*
X1792928Y528632D01*
X1790824Y526843D01*
X1788460Y525416D01*
X1785896Y524388D01*
X1783161Y523777D01*
X1783112Y523755D01*
X1783060Y523743D01*
X1783022Y523715D01*
X1782980Y523696D01*
X1782943Y523657D01*
X1782900Y523625D01*
X1782876Y523585D01*
X1782844Y523551D01*
X1782826Y523500D01*
X1782798Y523454D01*
X1782789Y523400D01*
X1782776Y523364D01*
X1782778Y523332D01*
X1782771Y523290D01*
X1782771Y512290D01*
X1782782Y512235D01*
X1782783Y512179D01*
X1782802Y512138D01*
X1782810Y512095D01*
X1782842Y512049D01*
X1782865Y511998D01*
X1782898Y511968D01*
X1782923Y511931D01*
X1782970Y511901D01*
X1783012Y511863D01*
X1783053Y511848D01*
X1783090Y511824D01*
X1783146Y511815D01*
X1783199Y511796D01*
X1783251Y511797D01*
X1783287Y511791D01*
X1783319Y511799D01*
G37*
G36*
X863839Y44439D02*
X863839Y44439D01*
X863885Y44440D01*
X868206Y45279D01*
X868235Y45291D01*
X868277Y45299D01*
X872427Y46768D01*
X872454Y46784D01*
X872494Y46798D01*
X876381Y48864D01*
X876405Y48884D01*
X876444Y48903D01*
X879982Y51521D01*
X880003Y51545D01*
X880038Y51570D01*
X883150Y54682D01*
X883168Y54709D01*
X883199Y54738D01*
X885817Y58277D01*
X885830Y58305D01*
X885856Y58339D01*
X887922Y62226D01*
X887931Y62256D01*
X887952Y62293D01*
X889421Y66443D01*
X889426Y66474D01*
X889441Y66514D01*
X890280Y70835D01*
X890280Y70891D01*
X890289Y70947D01*
X890279Y70989D01*
X890278Y71034D01*
X890256Y71085D01*
X890243Y71140D01*
X890217Y71176D01*
X890199Y71216D01*
X890158Y71255D01*
X890125Y71300D01*
X890087Y71323D01*
X890055Y71353D01*
X890002Y71373D01*
X889954Y71402D01*
X889903Y71410D01*
X889869Y71423D01*
X889835Y71422D01*
X889790Y71429D01*
X878790Y71429D01*
X878737Y71419D01*
X878684Y71418D01*
X878641Y71399D01*
X878595Y71390D01*
X878551Y71359D01*
X878502Y71338D01*
X878470Y71304D01*
X878431Y71277D01*
X878402Y71232D01*
X878366Y71193D01*
X878345Y71142D01*
X878324Y71110D01*
X878319Y71078D01*
X878316Y71072D01*
X878315Y71071D01*
X878315Y71070D01*
X878303Y71039D01*
X877692Y68304D01*
X876664Y65740D01*
X875237Y63376D01*
X873448Y61272D01*
X871344Y59483D01*
X868980Y58056D01*
X866416Y57028D01*
X863681Y56417D01*
X863632Y56395D01*
X863580Y56383D01*
X863542Y56355D01*
X863500Y56336D01*
X863463Y56297D01*
X863420Y56265D01*
X863396Y56225D01*
X863364Y56191D01*
X863346Y56140D01*
X863318Y56094D01*
X863309Y56040D01*
X863296Y56004D01*
X863298Y55972D01*
X863291Y55930D01*
X863291Y44930D01*
X863302Y44875D01*
X863303Y44819D01*
X863322Y44778D01*
X863330Y44735D01*
X863362Y44689D01*
X863385Y44638D01*
X863418Y44608D01*
X863443Y44571D01*
X863490Y44541D01*
X863532Y44503D01*
X863573Y44488D01*
X863610Y44464D01*
X863666Y44455D01*
X863719Y44436D01*
X863771Y44437D01*
X863807Y44431D01*
X863839Y44439D01*
G37*
G36*
X863839Y278119D02*
X863839Y278119D01*
X863885Y278120D01*
X868206Y278959D01*
X868235Y278971D01*
X868277Y278979D01*
X872427Y280448D01*
X872454Y280464D01*
X872494Y280478D01*
X876381Y282544D01*
X876405Y282564D01*
X876444Y282583D01*
X879982Y285201D01*
X880003Y285225D01*
X880038Y285250D01*
X883150Y288362D01*
X883168Y288389D01*
X883199Y288418D01*
X885817Y291957D01*
X885830Y291985D01*
X885856Y292019D01*
X887922Y295906D01*
X887931Y295936D01*
X887952Y295973D01*
X889421Y300123D01*
X889426Y300154D01*
X889441Y300194D01*
X890280Y304515D01*
X890280Y304571D01*
X890289Y304627D01*
X890279Y304669D01*
X890278Y304714D01*
X890256Y304765D01*
X890243Y304820D01*
X890217Y304856D01*
X890199Y304896D01*
X890158Y304935D01*
X890125Y304980D01*
X890087Y305003D01*
X890055Y305033D01*
X890002Y305053D01*
X889954Y305082D01*
X889903Y305090D01*
X889869Y305103D01*
X889835Y305102D01*
X889790Y305109D01*
X878790Y305109D01*
X878737Y305099D01*
X878684Y305098D01*
X878641Y305079D01*
X878595Y305070D01*
X878551Y305039D01*
X878502Y305018D01*
X878470Y304984D01*
X878431Y304957D01*
X878402Y304912D01*
X878366Y304873D01*
X878345Y304822D01*
X878324Y304790D01*
X878319Y304758D01*
X878316Y304752D01*
X878315Y304751D01*
X878315Y304750D01*
X878303Y304719D01*
X877692Y301984D01*
X876664Y299420D01*
X875237Y297056D01*
X873448Y294952D01*
X871344Y293163D01*
X868980Y291736D01*
X866416Y290708D01*
X863681Y290097D01*
X863632Y290075D01*
X863580Y290063D01*
X863542Y290035D01*
X863500Y290016D01*
X863463Y289977D01*
X863420Y289945D01*
X863396Y289905D01*
X863364Y289871D01*
X863346Y289820D01*
X863318Y289774D01*
X863309Y289720D01*
X863296Y289684D01*
X863298Y289652D01*
X863291Y289610D01*
X863291Y278610D01*
X863302Y278555D01*
X863303Y278499D01*
X863322Y278458D01*
X863330Y278415D01*
X863362Y278369D01*
X863385Y278318D01*
X863418Y278288D01*
X863443Y278251D01*
X863490Y278221D01*
X863532Y278183D01*
X863573Y278168D01*
X863610Y278144D01*
X863666Y278135D01*
X863719Y278116D01*
X863771Y278117D01*
X863807Y278111D01*
X863839Y278119D01*
G37*
G36*
X1783319Y745479D02*
X1783319Y745479D01*
X1783365Y745480D01*
X1787686Y746319D01*
X1787715Y746331D01*
X1787757Y746339D01*
X1791907Y747808D01*
X1791934Y747824D01*
X1791974Y747838D01*
X1795861Y749904D01*
X1795885Y749924D01*
X1795924Y749943D01*
X1799462Y752561D01*
X1799483Y752585D01*
X1799518Y752610D01*
X1802630Y755722D01*
X1802648Y755749D01*
X1802679Y755778D01*
X1805297Y759317D01*
X1805310Y759345D01*
X1805336Y759379D01*
X1807402Y763266D01*
X1807411Y763296D01*
X1807432Y763333D01*
X1808901Y767483D01*
X1808906Y767514D01*
X1808921Y767554D01*
X1809760Y771875D01*
X1809760Y771931D01*
X1809769Y771987D01*
X1809759Y772029D01*
X1809758Y772074D01*
X1809736Y772125D01*
X1809723Y772180D01*
X1809697Y772216D01*
X1809679Y772256D01*
X1809638Y772295D01*
X1809605Y772340D01*
X1809567Y772363D01*
X1809535Y772393D01*
X1809482Y772413D01*
X1809434Y772442D01*
X1809383Y772450D01*
X1809349Y772463D01*
X1809315Y772462D01*
X1809270Y772469D01*
X1798270Y772469D01*
X1798217Y772459D01*
X1798164Y772458D01*
X1798121Y772439D01*
X1798075Y772430D01*
X1798031Y772399D01*
X1797982Y772378D01*
X1797950Y772344D01*
X1797911Y772317D01*
X1797882Y772272D01*
X1797846Y772233D01*
X1797825Y772182D01*
X1797804Y772150D01*
X1797799Y772118D01*
X1797796Y772112D01*
X1797795Y772111D01*
X1797795Y772110D01*
X1797783Y772079D01*
X1797172Y769344D01*
X1796144Y766780D01*
X1794717Y764416D01*
X1792928Y762312D01*
X1790824Y760523D01*
X1788460Y759096D01*
X1785896Y758068D01*
X1783161Y757457D01*
X1783112Y757435D01*
X1783060Y757423D01*
X1783022Y757395D01*
X1782980Y757376D01*
X1782943Y757337D01*
X1782900Y757305D01*
X1782876Y757265D01*
X1782844Y757231D01*
X1782826Y757180D01*
X1782798Y757134D01*
X1782789Y757080D01*
X1782776Y757044D01*
X1782778Y757012D01*
X1782771Y756970D01*
X1782771Y745970D01*
X1782782Y745915D01*
X1782783Y745859D01*
X1782802Y745818D01*
X1782810Y745775D01*
X1782842Y745729D01*
X1782865Y745678D01*
X1782898Y745648D01*
X1782923Y745611D01*
X1782970Y745581D01*
X1783012Y745543D01*
X1783053Y745528D01*
X1783090Y745504D01*
X1783146Y745495D01*
X1783199Y745476D01*
X1783251Y745477D01*
X1783287Y745471D01*
X1783319Y745479D01*
G37*
G36*
X1783319Y44439D02*
X1783319Y44439D01*
X1783365Y44440D01*
X1787686Y45279D01*
X1787715Y45291D01*
X1787757Y45299D01*
X1791907Y46768D01*
X1791934Y46784D01*
X1791974Y46798D01*
X1795861Y48864D01*
X1795885Y48884D01*
X1795924Y48903D01*
X1799462Y51521D01*
X1799483Y51545D01*
X1799518Y51570D01*
X1802630Y54682D01*
X1802648Y54709D01*
X1802679Y54738D01*
X1805297Y58277D01*
X1805310Y58305D01*
X1805336Y58339D01*
X1807402Y62226D01*
X1807411Y62256D01*
X1807432Y62293D01*
X1808901Y66443D01*
X1808906Y66474D01*
X1808921Y66514D01*
X1809760Y70835D01*
X1809760Y70891D01*
X1809769Y70947D01*
X1809759Y70989D01*
X1809758Y71034D01*
X1809736Y71085D01*
X1809723Y71140D01*
X1809697Y71176D01*
X1809679Y71216D01*
X1809638Y71255D01*
X1809605Y71300D01*
X1809567Y71323D01*
X1809535Y71353D01*
X1809482Y71373D01*
X1809434Y71402D01*
X1809383Y71410D01*
X1809349Y71423D01*
X1809315Y71422D01*
X1809270Y71429D01*
X1798270Y71429D01*
X1798217Y71419D01*
X1798164Y71418D01*
X1798121Y71399D01*
X1798075Y71390D01*
X1798031Y71359D01*
X1797982Y71338D01*
X1797950Y71304D01*
X1797911Y71277D01*
X1797882Y71232D01*
X1797846Y71193D01*
X1797825Y71142D01*
X1797804Y71110D01*
X1797799Y71078D01*
X1797796Y71072D01*
X1797795Y71071D01*
X1797795Y71070D01*
X1797783Y71039D01*
X1797172Y68304D01*
X1796144Y65740D01*
X1794717Y63376D01*
X1792928Y61272D01*
X1790824Y59483D01*
X1788460Y58056D01*
X1785896Y57028D01*
X1783161Y56417D01*
X1783112Y56395D01*
X1783060Y56383D01*
X1783022Y56355D01*
X1782980Y56336D01*
X1782943Y56297D01*
X1782900Y56265D01*
X1782876Y56225D01*
X1782844Y56191D01*
X1782826Y56140D01*
X1782798Y56094D01*
X1782789Y56040D01*
X1782776Y56004D01*
X1782778Y55972D01*
X1782771Y55930D01*
X1782771Y44930D01*
X1782782Y44875D01*
X1782783Y44819D01*
X1782802Y44778D01*
X1782810Y44735D01*
X1782842Y44689D01*
X1782865Y44638D01*
X1782898Y44608D01*
X1782923Y44571D01*
X1782970Y44541D01*
X1783012Y44503D01*
X1783053Y44488D01*
X1783090Y44464D01*
X1783146Y44455D01*
X1783199Y44436D01*
X1783251Y44437D01*
X1783287Y44431D01*
X1783319Y44439D01*
G37*
G36*
X979785Y533414D02*
X979785Y533414D01*
X979788Y533411D01*
X980883Y533591D01*
X980889Y533597D01*
X980894Y533594D01*
X981922Y534013D01*
X981926Y534020D01*
X981931Y534018D01*
X982840Y534656D01*
X982843Y534663D01*
X982848Y534663D01*
X983592Y535486D01*
X983593Y535494D01*
X983599Y535495D01*
X984141Y536463D01*
X984140Y536472D01*
X984146Y536474D01*
X984459Y537538D01*
X984456Y537546D01*
X984461Y537549D01*
X984529Y538657D01*
X984525Y538664D01*
X984529Y538667D01*
X984359Y539775D01*
X984353Y539781D01*
X984356Y539786D01*
X983944Y540828D01*
X983937Y540832D01*
X983939Y540837D01*
X983305Y541762D01*
X983297Y541764D01*
X983298Y541770D01*
X982475Y542530D01*
X982466Y542531D01*
X982466Y542537D01*
X981494Y543094D01*
X981486Y543093D01*
X981484Y543099D01*
X980412Y543426D01*
X980404Y543423D01*
X980401Y543428D01*
X979284Y543509D01*
X979281Y543508D01*
X979280Y543509D01*
X967280Y543509D01*
X967277Y543507D01*
X967270Y543507D01*
X967269Y543508D01*
X966325Y543289D01*
X966319Y543283D01*
X966314Y543285D01*
X965442Y542862D01*
X965439Y542854D01*
X965433Y542856D01*
X964677Y542249D01*
X964675Y542241D01*
X964669Y542241D01*
X964068Y541481D01*
X964068Y541472D01*
X964062Y541471D01*
X963644Y540596D01*
X963646Y540588D01*
X963641Y540586D01*
X963429Y539640D01*
X963432Y539633D01*
X963427Y539629D01*
X963431Y538660D01*
X963431Y538659D01*
X963450Y537591D01*
X963455Y537584D01*
X963451Y537580D01*
X963707Y536543D01*
X963714Y536538D01*
X963711Y536532D01*
X964192Y535578D01*
X964199Y535575D01*
X964198Y535569D01*
X964879Y534746D01*
X964887Y534744D01*
X964887Y534738D01*
X965734Y534087D01*
X965742Y534087D01*
X965743Y534081D01*
X966714Y533634D01*
X966722Y533636D01*
X966724Y533631D01*
X967770Y533412D01*
X967777Y533415D01*
X967780Y533411D01*
X979780Y533411D01*
X979785Y533414D01*
G37*
G36*
X60305Y533414D02*
X60305Y533414D01*
X60308Y533411D01*
X61403Y533591D01*
X61409Y533597D01*
X61414Y533594D01*
X62442Y534013D01*
X62446Y534020D01*
X62451Y534018D01*
X63360Y534656D01*
X63363Y534663D01*
X63368Y534663D01*
X64112Y535486D01*
X64113Y535494D01*
X64119Y535495D01*
X64661Y536463D01*
X64660Y536472D01*
X64666Y536474D01*
X64979Y537538D01*
X64976Y537546D01*
X64981Y537549D01*
X65049Y538657D01*
X65045Y538664D01*
X65049Y538667D01*
X64879Y539775D01*
X64873Y539781D01*
X64876Y539786D01*
X64464Y540828D01*
X64457Y540832D01*
X64459Y540837D01*
X63825Y541762D01*
X63817Y541764D01*
X63818Y541770D01*
X62995Y542530D01*
X62986Y542531D01*
X62986Y542537D01*
X62014Y543094D01*
X62006Y543093D01*
X62004Y543099D01*
X60932Y543426D01*
X60924Y543423D01*
X60921Y543428D01*
X59804Y543509D01*
X59801Y543508D01*
X59800Y543509D01*
X47800Y543509D01*
X47797Y543507D01*
X47790Y543507D01*
X47789Y543508D01*
X46845Y543289D01*
X46839Y543283D01*
X46834Y543285D01*
X45962Y542862D01*
X45959Y542854D01*
X45953Y542856D01*
X45197Y542249D01*
X45195Y542241D01*
X45189Y542241D01*
X44588Y541481D01*
X44588Y541472D01*
X44582Y541471D01*
X44164Y540596D01*
X44166Y540588D01*
X44161Y540586D01*
X43949Y539640D01*
X43952Y539633D01*
X43947Y539629D01*
X43951Y538660D01*
X43951Y538659D01*
X43970Y537591D01*
X43975Y537584D01*
X43971Y537580D01*
X44227Y536543D01*
X44234Y536538D01*
X44231Y536532D01*
X44712Y535578D01*
X44719Y535575D01*
X44718Y535569D01*
X45399Y534746D01*
X45407Y534744D01*
X45407Y534738D01*
X46254Y534087D01*
X46262Y534087D01*
X46263Y534081D01*
X47234Y533634D01*
X47242Y533636D01*
X47244Y533631D01*
X48290Y533412D01*
X48297Y533415D01*
X48300Y533411D01*
X60300Y533411D01*
X60305Y533414D01*
G37*
G36*
X979785Y299734D02*
X979785Y299734D01*
X979788Y299731D01*
X980883Y299911D01*
X980889Y299917D01*
X980894Y299914D01*
X981922Y300333D01*
X981926Y300340D01*
X981931Y300338D01*
X982840Y300976D01*
X982843Y300983D01*
X982848Y300983D01*
X983592Y301806D01*
X983593Y301814D01*
X983599Y301815D01*
X984141Y302783D01*
X984140Y302792D01*
X984146Y302794D01*
X984459Y303858D01*
X984456Y303866D01*
X984461Y303869D01*
X984529Y304977D01*
X984525Y304984D01*
X984529Y304987D01*
X984359Y306095D01*
X984353Y306101D01*
X984356Y306106D01*
X983944Y307148D01*
X983937Y307152D01*
X983939Y307157D01*
X983305Y308082D01*
X983297Y308084D01*
X983298Y308090D01*
X982475Y308850D01*
X982466Y308851D01*
X982466Y308857D01*
X981494Y309414D01*
X981486Y309413D01*
X981484Y309419D01*
X980412Y309746D01*
X980404Y309743D01*
X980401Y309748D01*
X979284Y309829D01*
X979281Y309828D01*
X979280Y309829D01*
X967280Y309829D01*
X967277Y309827D01*
X967270Y309827D01*
X967269Y309828D01*
X966325Y309609D01*
X966319Y309603D01*
X966314Y309605D01*
X965442Y309182D01*
X965439Y309174D01*
X965433Y309176D01*
X964677Y308569D01*
X964675Y308561D01*
X964669Y308561D01*
X964068Y307801D01*
X964068Y307792D01*
X964062Y307791D01*
X963644Y306916D01*
X963646Y306908D01*
X963641Y306906D01*
X963429Y305960D01*
X963432Y305953D01*
X963427Y305949D01*
X963431Y304980D01*
X963431Y304979D01*
X963450Y303911D01*
X963455Y303904D01*
X963451Y303900D01*
X963707Y302863D01*
X963714Y302858D01*
X963711Y302852D01*
X964192Y301898D01*
X964199Y301895D01*
X964198Y301889D01*
X964879Y301066D01*
X964887Y301064D01*
X964887Y301058D01*
X965734Y300407D01*
X965742Y300407D01*
X965743Y300401D01*
X966714Y299954D01*
X966722Y299956D01*
X966724Y299951D01*
X967770Y299732D01*
X967777Y299735D01*
X967780Y299731D01*
X979780Y299731D01*
X979785Y299734D01*
G37*
G36*
X60305Y1000774D02*
X60305Y1000774D01*
X60308Y1000771D01*
X61403Y1000951D01*
X61409Y1000957D01*
X61414Y1000954D01*
X62442Y1001373D01*
X62446Y1001380D01*
X62451Y1001378D01*
X63360Y1002016D01*
X63363Y1002023D01*
X63368Y1002023D01*
X64112Y1002846D01*
X64113Y1002854D01*
X64119Y1002855D01*
X64661Y1003823D01*
X64660Y1003832D01*
X64666Y1003834D01*
X64979Y1004898D01*
X64976Y1004906D01*
X64981Y1004909D01*
X65049Y1006017D01*
X65045Y1006024D01*
X65049Y1006027D01*
X64879Y1007135D01*
X64873Y1007141D01*
X64876Y1007146D01*
X64464Y1008188D01*
X64457Y1008192D01*
X64459Y1008197D01*
X63825Y1009122D01*
X63817Y1009124D01*
X63818Y1009130D01*
X62995Y1009890D01*
X62986Y1009891D01*
X62986Y1009897D01*
X62014Y1010454D01*
X62006Y1010453D01*
X62004Y1010459D01*
X60932Y1010786D01*
X60924Y1010783D01*
X60921Y1010788D01*
X59804Y1010869D01*
X59801Y1010868D01*
X59800Y1010869D01*
X47800Y1010869D01*
X47797Y1010867D01*
X47790Y1010867D01*
X47789Y1010868D01*
X46845Y1010649D01*
X46839Y1010643D01*
X46834Y1010645D01*
X45962Y1010222D01*
X45959Y1010214D01*
X45953Y1010216D01*
X45197Y1009609D01*
X45195Y1009601D01*
X45189Y1009601D01*
X44588Y1008841D01*
X44588Y1008832D01*
X44582Y1008831D01*
X44164Y1007956D01*
X44166Y1007948D01*
X44161Y1007946D01*
X43949Y1007000D01*
X43952Y1006993D01*
X43947Y1006989D01*
X43951Y1006020D01*
X43951Y1006019D01*
X43970Y1004951D01*
X43975Y1004944D01*
X43971Y1004940D01*
X44227Y1003903D01*
X44234Y1003898D01*
X44231Y1003892D01*
X44712Y1002938D01*
X44719Y1002935D01*
X44718Y1002929D01*
X45399Y1002106D01*
X45407Y1002104D01*
X45407Y1002098D01*
X46254Y1001447D01*
X46262Y1001447D01*
X46263Y1001441D01*
X47234Y1000994D01*
X47242Y1000996D01*
X47244Y1000991D01*
X48290Y1000772D01*
X48297Y1000775D01*
X48300Y1000771D01*
X60300Y1000771D01*
X60305Y1000774D01*
G37*
G36*
X979785Y66054D02*
X979785Y66054D01*
X979788Y66051D01*
X980883Y66231D01*
X980889Y66237D01*
X980894Y66234D01*
X981922Y66653D01*
X981926Y66660D01*
X981931Y66658D01*
X982840Y67296D01*
X982843Y67303D01*
X982848Y67303D01*
X983592Y68126D01*
X983593Y68134D01*
X983599Y68135D01*
X984141Y69103D01*
X984140Y69112D01*
X984146Y69114D01*
X984459Y70178D01*
X984456Y70186D01*
X984461Y70189D01*
X984529Y71297D01*
X984525Y71304D01*
X984529Y71307D01*
X984359Y72415D01*
X984353Y72421D01*
X984356Y72426D01*
X983944Y73468D01*
X983937Y73472D01*
X983939Y73477D01*
X983305Y74402D01*
X983297Y74404D01*
X983298Y74410D01*
X982475Y75170D01*
X982466Y75171D01*
X982466Y75177D01*
X981494Y75734D01*
X981486Y75733D01*
X981484Y75739D01*
X980412Y76066D01*
X980404Y76063D01*
X980401Y76068D01*
X979284Y76149D01*
X979281Y76148D01*
X979280Y76149D01*
X967280Y76149D01*
X967277Y76147D01*
X967270Y76147D01*
X967269Y76148D01*
X966325Y75929D01*
X966319Y75923D01*
X966314Y75925D01*
X965442Y75502D01*
X965439Y75494D01*
X965433Y75496D01*
X964677Y74889D01*
X964675Y74881D01*
X964669Y74881D01*
X964068Y74121D01*
X964068Y74112D01*
X964062Y74111D01*
X963644Y73236D01*
X963646Y73228D01*
X963641Y73226D01*
X963429Y72280D01*
X963432Y72273D01*
X963427Y72269D01*
X963431Y71300D01*
X963431Y71299D01*
X963450Y70231D01*
X963455Y70224D01*
X963451Y70220D01*
X963707Y69183D01*
X963714Y69178D01*
X963711Y69172D01*
X964192Y68218D01*
X964199Y68215D01*
X964198Y68209D01*
X964879Y67386D01*
X964887Y67384D01*
X964887Y67378D01*
X965734Y66727D01*
X965742Y66727D01*
X965743Y66721D01*
X966714Y66274D01*
X966722Y66276D01*
X966724Y66271D01*
X967770Y66052D01*
X967777Y66055D01*
X967780Y66051D01*
X979780Y66051D01*
X979785Y66054D01*
G37*
G36*
X60305Y66054D02*
X60305Y66054D01*
X60308Y66051D01*
X61403Y66231D01*
X61409Y66237D01*
X61414Y66234D01*
X62442Y66653D01*
X62446Y66660D01*
X62451Y66658D01*
X63360Y67296D01*
X63363Y67303D01*
X63368Y67303D01*
X64112Y68126D01*
X64113Y68134D01*
X64119Y68135D01*
X64661Y69103D01*
X64660Y69112D01*
X64666Y69114D01*
X64979Y70178D01*
X64976Y70186D01*
X64981Y70189D01*
X65049Y71297D01*
X65045Y71304D01*
X65049Y71307D01*
X64879Y72415D01*
X64873Y72421D01*
X64876Y72426D01*
X64464Y73468D01*
X64457Y73472D01*
X64459Y73477D01*
X63825Y74402D01*
X63817Y74404D01*
X63818Y74410D01*
X62995Y75170D01*
X62986Y75171D01*
X62986Y75177D01*
X62014Y75734D01*
X62006Y75733D01*
X62004Y75739D01*
X60932Y76066D01*
X60924Y76063D01*
X60921Y76068D01*
X59804Y76149D01*
X59801Y76148D01*
X59800Y76149D01*
X47800Y76149D01*
X47797Y76147D01*
X47790Y76147D01*
X47789Y76148D01*
X46845Y75929D01*
X46839Y75923D01*
X46834Y75925D01*
X45962Y75502D01*
X45959Y75494D01*
X45953Y75496D01*
X45197Y74889D01*
X45195Y74881D01*
X45189Y74881D01*
X44588Y74121D01*
X44588Y74112D01*
X44582Y74111D01*
X44164Y73236D01*
X44166Y73228D01*
X44161Y73226D01*
X43949Y72280D01*
X43952Y72273D01*
X43947Y72269D01*
X43951Y71300D01*
X43951Y71299D01*
X43970Y70231D01*
X43975Y70224D01*
X43971Y70220D01*
X44227Y69183D01*
X44234Y69178D01*
X44231Y69172D01*
X44712Y68218D01*
X44719Y68215D01*
X44718Y68209D01*
X45399Y67386D01*
X45407Y67384D01*
X45407Y67378D01*
X46254Y66727D01*
X46262Y66727D01*
X46263Y66721D01*
X47234Y66274D01*
X47242Y66276D01*
X47244Y66271D01*
X48290Y66052D01*
X48297Y66055D01*
X48300Y66051D01*
X60300Y66051D01*
X60305Y66054D01*
G37*
G36*
X979785Y1000774D02*
X979785Y1000774D01*
X979788Y1000771D01*
X980883Y1000951D01*
X980889Y1000957D01*
X980894Y1000954D01*
X981922Y1001373D01*
X981926Y1001380D01*
X981931Y1001378D01*
X982840Y1002016D01*
X982843Y1002023D01*
X982848Y1002023D01*
X983592Y1002846D01*
X983593Y1002854D01*
X983599Y1002855D01*
X984141Y1003823D01*
X984140Y1003832D01*
X984146Y1003834D01*
X984459Y1004898D01*
X984456Y1004906D01*
X984461Y1004909D01*
X984529Y1006017D01*
X984525Y1006024D01*
X984529Y1006027D01*
X984359Y1007135D01*
X984353Y1007141D01*
X984356Y1007146D01*
X983944Y1008188D01*
X983937Y1008192D01*
X983939Y1008197D01*
X983305Y1009122D01*
X983297Y1009124D01*
X983298Y1009130D01*
X982475Y1009890D01*
X982466Y1009891D01*
X982466Y1009897D01*
X981494Y1010454D01*
X981486Y1010453D01*
X981484Y1010459D01*
X980412Y1010786D01*
X980404Y1010783D01*
X980401Y1010788D01*
X979284Y1010869D01*
X979281Y1010868D01*
X979280Y1010869D01*
X967280Y1010869D01*
X967277Y1010867D01*
X967270Y1010867D01*
X967269Y1010868D01*
X966325Y1010649D01*
X966319Y1010643D01*
X966314Y1010645D01*
X965442Y1010222D01*
X965439Y1010214D01*
X965433Y1010216D01*
X964677Y1009609D01*
X964675Y1009601D01*
X964669Y1009601D01*
X964068Y1008841D01*
X964068Y1008832D01*
X964062Y1008831D01*
X963644Y1007956D01*
X963646Y1007948D01*
X963641Y1007946D01*
X963429Y1007000D01*
X963432Y1006993D01*
X963427Y1006989D01*
X963431Y1006020D01*
X963431Y1006019D01*
X963450Y1004951D01*
X963455Y1004944D01*
X963451Y1004940D01*
X963707Y1003903D01*
X963714Y1003898D01*
X963711Y1003892D01*
X964192Y1002938D01*
X964199Y1002935D01*
X964198Y1002929D01*
X964879Y1002106D01*
X964887Y1002104D01*
X964887Y1002098D01*
X965734Y1001447D01*
X965742Y1001447D01*
X965743Y1001441D01*
X966714Y1000994D01*
X966722Y1000996D01*
X966724Y1000991D01*
X967770Y1000772D01*
X967777Y1000775D01*
X967780Y1000771D01*
X979780Y1000771D01*
X979785Y1000774D01*
G37*
G36*
X979785Y767094D02*
X979785Y767094D01*
X979788Y767091D01*
X980883Y767271D01*
X980889Y767277D01*
X980894Y767274D01*
X981922Y767693D01*
X981926Y767700D01*
X981931Y767698D01*
X982840Y768336D01*
X982843Y768343D01*
X982848Y768343D01*
X983592Y769166D01*
X983593Y769174D01*
X983599Y769175D01*
X984141Y770143D01*
X984140Y770152D01*
X984146Y770154D01*
X984459Y771218D01*
X984456Y771226D01*
X984461Y771229D01*
X984529Y772337D01*
X984525Y772344D01*
X984529Y772347D01*
X984359Y773455D01*
X984353Y773461D01*
X984356Y773466D01*
X983944Y774508D01*
X983937Y774512D01*
X983939Y774517D01*
X983305Y775442D01*
X983297Y775444D01*
X983298Y775450D01*
X982475Y776210D01*
X982466Y776211D01*
X982466Y776217D01*
X981494Y776774D01*
X981486Y776773D01*
X981484Y776779D01*
X980412Y777106D01*
X980404Y777103D01*
X980401Y777108D01*
X979284Y777189D01*
X979281Y777188D01*
X979280Y777189D01*
X967280Y777189D01*
X967277Y777187D01*
X967270Y777187D01*
X967269Y777188D01*
X966325Y776969D01*
X966319Y776963D01*
X966314Y776965D01*
X965442Y776542D01*
X965439Y776534D01*
X965433Y776536D01*
X964677Y775929D01*
X964675Y775921D01*
X964669Y775921D01*
X964068Y775161D01*
X964068Y775152D01*
X964062Y775151D01*
X963644Y774276D01*
X963646Y774268D01*
X963641Y774266D01*
X963429Y773320D01*
X963432Y773313D01*
X963427Y773309D01*
X963431Y772340D01*
X963431Y772339D01*
X963450Y771271D01*
X963455Y771264D01*
X963451Y771260D01*
X963707Y770223D01*
X963714Y770218D01*
X963711Y770212D01*
X964192Y769258D01*
X964199Y769255D01*
X964198Y769249D01*
X964879Y768426D01*
X964887Y768424D01*
X964887Y768418D01*
X965734Y767767D01*
X965742Y767767D01*
X965743Y767761D01*
X966714Y767314D01*
X966722Y767316D01*
X966724Y767311D01*
X967770Y767092D01*
X967777Y767095D01*
X967780Y767091D01*
X979780Y767091D01*
X979785Y767094D01*
G37*
G36*
X60305Y767094D02*
X60305Y767094D01*
X60308Y767091D01*
X61403Y767271D01*
X61409Y767277D01*
X61414Y767274D01*
X62442Y767693D01*
X62446Y767700D01*
X62451Y767698D01*
X63360Y768336D01*
X63363Y768343D01*
X63368Y768343D01*
X64112Y769166D01*
X64113Y769174D01*
X64119Y769175D01*
X64661Y770143D01*
X64660Y770152D01*
X64666Y770154D01*
X64979Y771218D01*
X64976Y771226D01*
X64981Y771229D01*
X65049Y772337D01*
X65045Y772344D01*
X65049Y772347D01*
X64879Y773455D01*
X64873Y773461D01*
X64876Y773466D01*
X64464Y774508D01*
X64457Y774512D01*
X64459Y774517D01*
X63825Y775442D01*
X63817Y775444D01*
X63818Y775450D01*
X62995Y776210D01*
X62986Y776211D01*
X62986Y776217D01*
X62014Y776774D01*
X62006Y776773D01*
X62004Y776779D01*
X60932Y777106D01*
X60924Y777103D01*
X60921Y777108D01*
X59804Y777189D01*
X59801Y777188D01*
X59800Y777189D01*
X47800Y777189D01*
X47797Y777187D01*
X47790Y777187D01*
X47789Y777188D01*
X46845Y776969D01*
X46839Y776963D01*
X46834Y776965D01*
X45962Y776542D01*
X45959Y776534D01*
X45953Y776536D01*
X45197Y775929D01*
X45195Y775921D01*
X45189Y775921D01*
X44588Y775161D01*
X44588Y775152D01*
X44582Y775151D01*
X44164Y774276D01*
X44166Y774268D01*
X44161Y774266D01*
X43949Y773320D01*
X43952Y773313D01*
X43947Y773309D01*
X43951Y772340D01*
X43951Y772339D01*
X43970Y771271D01*
X43975Y771264D01*
X43971Y771260D01*
X44227Y770223D01*
X44234Y770218D01*
X44231Y770212D01*
X44712Y769258D01*
X44719Y769255D01*
X44718Y769249D01*
X45399Y768426D01*
X45407Y768424D01*
X45407Y768418D01*
X46254Y767767D01*
X46262Y767767D01*
X46263Y767761D01*
X47234Y767314D01*
X47242Y767316D01*
X47244Y767311D01*
X48290Y767092D01*
X48297Y767095D01*
X48300Y767091D01*
X60300Y767091D01*
X60305Y767094D01*
G37*
G36*
X60305Y299734D02*
X60305Y299734D01*
X60308Y299731D01*
X61403Y299911D01*
X61409Y299917D01*
X61414Y299914D01*
X62442Y300333D01*
X62446Y300340D01*
X62451Y300338D01*
X63360Y300976D01*
X63363Y300983D01*
X63368Y300983D01*
X64112Y301806D01*
X64113Y301814D01*
X64119Y301815D01*
X64661Y302783D01*
X64660Y302792D01*
X64666Y302794D01*
X64979Y303858D01*
X64976Y303866D01*
X64981Y303869D01*
X65049Y304977D01*
X65045Y304984D01*
X65049Y304987D01*
X64879Y306095D01*
X64873Y306101D01*
X64876Y306106D01*
X64464Y307148D01*
X64457Y307152D01*
X64459Y307157D01*
X63825Y308082D01*
X63817Y308084D01*
X63818Y308090D01*
X62995Y308850D01*
X62986Y308851D01*
X62986Y308857D01*
X62014Y309414D01*
X62006Y309413D01*
X62004Y309419D01*
X60932Y309746D01*
X60924Y309743D01*
X60921Y309748D01*
X59804Y309829D01*
X59801Y309828D01*
X59800Y309829D01*
X47800Y309829D01*
X47797Y309827D01*
X47790Y309827D01*
X47789Y309828D01*
X46845Y309609D01*
X46839Y309603D01*
X46834Y309605D01*
X45962Y309182D01*
X45959Y309174D01*
X45953Y309176D01*
X45197Y308569D01*
X45195Y308561D01*
X45189Y308561D01*
X44588Y307801D01*
X44588Y307792D01*
X44582Y307791D01*
X44164Y306916D01*
X44166Y306908D01*
X44161Y306906D01*
X43949Y305960D01*
X43952Y305953D01*
X43947Y305949D01*
X43951Y304980D01*
X43951Y304979D01*
X43970Y303911D01*
X43975Y303904D01*
X43971Y303900D01*
X44227Y302863D01*
X44234Y302858D01*
X44231Y302852D01*
X44712Y301898D01*
X44719Y301895D01*
X44718Y301889D01*
X45399Y301066D01*
X45407Y301064D01*
X45407Y301058D01*
X46254Y300407D01*
X46262Y300407D01*
X46263Y300401D01*
X47234Y299954D01*
X47242Y299956D01*
X47244Y299951D01*
X48290Y299732D01*
X48297Y299735D01*
X48300Y299731D01*
X60300Y299731D01*
X60305Y299734D01*
G37*
G36*
X979785Y386135D02*
X979785Y386135D01*
X979788Y386131D01*
X980894Y386324D01*
X980899Y386329D01*
X980899Y386330D01*
X980904Y386327D01*
X981939Y386760D01*
X981943Y386767D01*
X981948Y386765D01*
X982861Y387418D01*
X982863Y387426D01*
X982869Y387425D01*
X983613Y388264D01*
X983614Y388273D01*
X983619Y388273D01*
X984158Y389257D01*
X984157Y389265D01*
X984158Y389266D01*
X984162Y389267D01*
X984163Y389269D01*
X984345Y389910D01*
X984469Y390346D01*
X984467Y390351D01*
X984469Y390353D01*
X984467Y390355D01*
X984471Y390357D01*
X984529Y391477D01*
X984526Y391482D01*
X984529Y391486D01*
X984411Y392531D01*
X984405Y392537D01*
X984409Y392542D01*
X984061Y393536D01*
X984054Y393540D01*
X984056Y393545D01*
X983496Y394437D01*
X983489Y394440D01*
X983489Y394445D01*
X982745Y395189D01*
X982737Y395191D01*
X982737Y395196D01*
X981845Y395756D01*
X981837Y395756D01*
X981836Y395761D01*
X980842Y396109D01*
X980834Y396106D01*
X980831Y396111D01*
X979786Y396229D01*
X979782Y396227D01*
X979780Y396229D01*
X967780Y396229D01*
X967777Y396227D01*
X967774Y396227D01*
X967772Y396229D01*
X966776Y396071D01*
X966770Y396065D01*
X966765Y396068D01*
X965829Y395693D01*
X965825Y395686D01*
X965819Y395688D01*
X964990Y395114D01*
X964987Y395106D01*
X964982Y395107D01*
X964301Y394363D01*
X964300Y394354D01*
X964294Y394354D01*
X963796Y393477D01*
X963797Y393469D01*
X963792Y393466D01*
X963604Y392842D01*
X963501Y392501D01*
X963502Y392498D01*
X963501Y392497D01*
X963504Y392493D01*
X963499Y392490D01*
X963431Y391483D01*
X963432Y391481D01*
X963431Y391480D01*
X963440Y390399D01*
X963445Y390392D01*
X963441Y390388D01*
X963691Y389336D01*
X963697Y389331D01*
X963694Y389326D01*
X964171Y388356D01*
X964179Y388353D01*
X964177Y388347D01*
X964858Y387508D01*
X964866Y387506D01*
X964866Y387500D01*
X965717Y386834D01*
X965725Y386833D01*
X965726Y386828D01*
X966703Y386367D01*
X966711Y386369D01*
X966714Y386364D01*
X967769Y386132D01*
X967777Y386135D01*
X967780Y386131D01*
X979780Y386131D01*
X979785Y386135D01*
G37*
G36*
X979785Y853495D02*
X979785Y853495D01*
X979788Y853491D01*
X980894Y853684D01*
X980899Y853689D01*
X980899Y853690D01*
X980904Y853687D01*
X981939Y854120D01*
X981943Y854127D01*
X981948Y854125D01*
X982861Y854778D01*
X982863Y854786D01*
X982869Y854785D01*
X983613Y855624D01*
X983614Y855633D01*
X983619Y855633D01*
X984158Y856617D01*
X984157Y856625D01*
X984158Y856626D01*
X984162Y856627D01*
X984163Y856629D01*
X984345Y857270D01*
X984469Y857706D01*
X984467Y857711D01*
X984469Y857713D01*
X984467Y857715D01*
X984471Y857717D01*
X984529Y858837D01*
X984526Y858842D01*
X984529Y858846D01*
X984411Y859891D01*
X984405Y859897D01*
X984409Y859902D01*
X984061Y860896D01*
X984054Y860900D01*
X984056Y860905D01*
X983496Y861797D01*
X983489Y861800D01*
X983489Y861805D01*
X982745Y862549D01*
X982737Y862551D01*
X982737Y862556D01*
X981845Y863116D01*
X981837Y863116D01*
X981836Y863121D01*
X980842Y863469D01*
X980834Y863466D01*
X980831Y863471D01*
X979786Y863589D01*
X979782Y863587D01*
X979780Y863589D01*
X967780Y863589D01*
X967777Y863587D01*
X967774Y863587D01*
X967772Y863589D01*
X966776Y863431D01*
X966770Y863425D01*
X966765Y863428D01*
X965829Y863053D01*
X965825Y863046D01*
X965819Y863048D01*
X964990Y862474D01*
X964987Y862466D01*
X964982Y862467D01*
X964301Y861723D01*
X964300Y861714D01*
X964294Y861714D01*
X963796Y860837D01*
X963797Y860829D01*
X963792Y860826D01*
X963604Y860202D01*
X963501Y859861D01*
X963502Y859858D01*
X963501Y859857D01*
X963504Y859853D01*
X963499Y859850D01*
X963431Y858843D01*
X963432Y858841D01*
X963431Y858840D01*
X963440Y857759D01*
X963445Y857752D01*
X963441Y857748D01*
X963691Y856696D01*
X963697Y856691D01*
X963694Y856686D01*
X964171Y855716D01*
X964179Y855713D01*
X964177Y855707D01*
X964858Y854868D01*
X964866Y854866D01*
X964866Y854860D01*
X965717Y854194D01*
X965725Y854193D01*
X965726Y854188D01*
X966703Y853727D01*
X966711Y853729D01*
X966714Y853724D01*
X967769Y853492D01*
X967777Y853495D01*
X967780Y853491D01*
X979780Y853491D01*
X979785Y853495D01*
G37*
G36*
X60305Y853495D02*
X60305Y853495D01*
X60308Y853491D01*
X61414Y853684D01*
X61419Y853689D01*
X61419Y853690D01*
X61424Y853687D01*
X62459Y854120D01*
X62463Y854127D01*
X62468Y854125D01*
X63381Y854778D01*
X63383Y854786D01*
X63389Y854785D01*
X64133Y855624D01*
X64134Y855633D01*
X64139Y855633D01*
X64678Y856617D01*
X64677Y856625D01*
X64678Y856626D01*
X64682Y856627D01*
X64683Y856629D01*
X64865Y857270D01*
X64989Y857706D01*
X64987Y857711D01*
X64989Y857713D01*
X64987Y857715D01*
X64991Y857717D01*
X65049Y858837D01*
X65046Y858842D01*
X65049Y858846D01*
X64931Y859891D01*
X64925Y859897D01*
X64929Y859902D01*
X64581Y860896D01*
X64574Y860900D01*
X64576Y860905D01*
X64016Y861797D01*
X64009Y861800D01*
X64009Y861805D01*
X63265Y862549D01*
X63257Y862551D01*
X63257Y862556D01*
X62365Y863116D01*
X62357Y863116D01*
X62356Y863121D01*
X61362Y863469D01*
X61354Y863466D01*
X61351Y863471D01*
X60306Y863589D01*
X60302Y863587D01*
X60300Y863589D01*
X48300Y863589D01*
X48297Y863587D01*
X48294Y863587D01*
X48292Y863589D01*
X47296Y863431D01*
X47290Y863425D01*
X47285Y863428D01*
X46349Y863053D01*
X46345Y863046D01*
X46339Y863048D01*
X45510Y862474D01*
X45507Y862466D01*
X45502Y862467D01*
X44821Y861723D01*
X44820Y861714D01*
X44814Y861714D01*
X44316Y860837D01*
X44317Y860829D01*
X44312Y860826D01*
X44124Y860202D01*
X44021Y859861D01*
X44022Y859858D01*
X44021Y859857D01*
X44024Y859853D01*
X44019Y859850D01*
X43951Y858843D01*
X43952Y858841D01*
X43951Y858840D01*
X43960Y857759D01*
X43965Y857752D01*
X43961Y857748D01*
X44211Y856696D01*
X44217Y856691D01*
X44214Y856686D01*
X44691Y855716D01*
X44699Y855713D01*
X44697Y855707D01*
X45378Y854868D01*
X45386Y854866D01*
X45386Y854860D01*
X46237Y854194D01*
X46245Y854193D01*
X46246Y854188D01*
X47223Y853727D01*
X47231Y853729D01*
X47234Y853724D01*
X48289Y853492D01*
X48297Y853495D01*
X48300Y853491D01*
X60300Y853491D01*
X60305Y853495D01*
G37*
G36*
X60305Y152455D02*
X60305Y152455D01*
X60308Y152451D01*
X61414Y152644D01*
X61419Y152649D01*
X61419Y152650D01*
X61424Y152647D01*
X62459Y153080D01*
X62463Y153087D01*
X62468Y153085D01*
X63381Y153738D01*
X63383Y153746D01*
X63389Y153745D01*
X64133Y154584D01*
X64134Y154593D01*
X64139Y154593D01*
X64678Y155577D01*
X64677Y155585D01*
X64678Y155586D01*
X64682Y155587D01*
X64683Y155589D01*
X64865Y156230D01*
X64989Y156666D01*
X64987Y156671D01*
X64989Y156673D01*
X64987Y156675D01*
X64991Y156677D01*
X65049Y157797D01*
X65046Y157802D01*
X65049Y157806D01*
X64931Y158851D01*
X64925Y158857D01*
X64929Y158862D01*
X64581Y159856D01*
X64574Y159860D01*
X64576Y159865D01*
X64016Y160757D01*
X64009Y160760D01*
X64009Y160765D01*
X63265Y161509D01*
X63257Y161511D01*
X63257Y161516D01*
X62365Y162076D01*
X62357Y162076D01*
X62356Y162081D01*
X61362Y162429D01*
X61354Y162426D01*
X61351Y162431D01*
X60306Y162549D01*
X60302Y162547D01*
X60300Y162549D01*
X48300Y162549D01*
X48297Y162547D01*
X48294Y162547D01*
X48292Y162549D01*
X47296Y162391D01*
X47290Y162385D01*
X47285Y162388D01*
X46349Y162013D01*
X46345Y162006D01*
X46339Y162008D01*
X45510Y161434D01*
X45507Y161426D01*
X45502Y161427D01*
X44821Y160683D01*
X44820Y160674D01*
X44814Y160674D01*
X44316Y159797D01*
X44317Y159789D01*
X44312Y159786D01*
X44124Y159162D01*
X44021Y158821D01*
X44022Y158818D01*
X44021Y158817D01*
X44024Y158813D01*
X44019Y158810D01*
X43951Y157803D01*
X43952Y157801D01*
X43951Y157800D01*
X43960Y156719D01*
X43965Y156712D01*
X43961Y156708D01*
X44211Y155656D01*
X44217Y155651D01*
X44214Y155646D01*
X44691Y154676D01*
X44699Y154673D01*
X44697Y154667D01*
X45378Y153828D01*
X45386Y153826D01*
X45386Y153820D01*
X46237Y153154D01*
X46245Y153153D01*
X46246Y153148D01*
X47223Y152687D01*
X47231Y152689D01*
X47234Y152684D01*
X48289Y152452D01*
X48297Y152455D01*
X48300Y152451D01*
X60300Y152451D01*
X60305Y152455D01*
G37*
G36*
X979785Y152455D02*
X979785Y152455D01*
X979788Y152451D01*
X980894Y152644D01*
X980899Y152649D01*
X980899Y152650D01*
X980904Y152647D01*
X981939Y153080D01*
X981943Y153087D01*
X981948Y153085D01*
X982861Y153738D01*
X982863Y153746D01*
X982869Y153745D01*
X983613Y154584D01*
X983614Y154593D01*
X983619Y154593D01*
X984158Y155577D01*
X984157Y155585D01*
X984158Y155586D01*
X984162Y155587D01*
X984163Y155589D01*
X984345Y156230D01*
X984469Y156666D01*
X984467Y156671D01*
X984469Y156673D01*
X984467Y156675D01*
X984471Y156677D01*
X984529Y157797D01*
X984526Y157802D01*
X984529Y157806D01*
X984411Y158851D01*
X984405Y158857D01*
X984409Y158862D01*
X984061Y159856D01*
X984054Y159860D01*
X984056Y159865D01*
X983496Y160757D01*
X983489Y160760D01*
X983489Y160765D01*
X982745Y161509D01*
X982737Y161511D01*
X982737Y161516D01*
X981845Y162076D01*
X981837Y162076D01*
X981836Y162081D01*
X980842Y162429D01*
X980834Y162426D01*
X980831Y162431D01*
X979786Y162549D01*
X979782Y162547D01*
X979780Y162549D01*
X967780Y162549D01*
X967777Y162547D01*
X967774Y162547D01*
X967772Y162549D01*
X966776Y162391D01*
X966770Y162385D01*
X966765Y162388D01*
X965829Y162013D01*
X965825Y162006D01*
X965819Y162008D01*
X964990Y161434D01*
X964987Y161426D01*
X964982Y161427D01*
X964301Y160683D01*
X964300Y160674D01*
X964294Y160674D01*
X963796Y159797D01*
X963797Y159789D01*
X963792Y159786D01*
X963604Y159162D01*
X963501Y158821D01*
X963502Y158818D01*
X963501Y158817D01*
X963504Y158813D01*
X963499Y158810D01*
X963431Y157803D01*
X963432Y157801D01*
X963431Y157800D01*
X963440Y156719D01*
X963445Y156712D01*
X963441Y156708D01*
X963691Y155656D01*
X963697Y155651D01*
X963694Y155646D01*
X964171Y154676D01*
X964179Y154673D01*
X964177Y154667D01*
X964858Y153828D01*
X964866Y153826D01*
X964866Y153820D01*
X965717Y153154D01*
X965725Y153153D01*
X965726Y153148D01*
X966703Y152687D01*
X966711Y152689D01*
X966714Y152684D01*
X967769Y152452D01*
X967777Y152455D01*
X967780Y152451D01*
X979780Y152451D01*
X979785Y152455D01*
G37*
G36*
X60305Y1087175D02*
X60305Y1087175D01*
X60308Y1087171D01*
X61414Y1087364D01*
X61419Y1087369D01*
X61419Y1087370D01*
X61424Y1087367D01*
X62459Y1087800D01*
X62463Y1087807D01*
X62468Y1087805D01*
X63381Y1088458D01*
X63383Y1088466D01*
X63389Y1088465D01*
X64133Y1089304D01*
X64134Y1089313D01*
X64139Y1089313D01*
X64678Y1090297D01*
X64677Y1090305D01*
X64678Y1090306D01*
X64682Y1090307D01*
X64683Y1090309D01*
X64865Y1090950D01*
X64989Y1091386D01*
X64987Y1091391D01*
X64989Y1091393D01*
X64987Y1091395D01*
X64991Y1091397D01*
X65049Y1092517D01*
X65046Y1092522D01*
X65049Y1092526D01*
X64931Y1093571D01*
X64925Y1093577D01*
X64929Y1093582D01*
X64581Y1094576D01*
X64574Y1094580D01*
X64576Y1094585D01*
X64016Y1095477D01*
X64009Y1095480D01*
X64009Y1095485D01*
X63265Y1096229D01*
X63257Y1096231D01*
X63257Y1096236D01*
X62365Y1096796D01*
X62357Y1096796D01*
X62356Y1096801D01*
X61362Y1097149D01*
X61354Y1097146D01*
X61351Y1097151D01*
X60306Y1097269D01*
X60302Y1097267D01*
X60300Y1097269D01*
X48300Y1097269D01*
X48297Y1097267D01*
X48294Y1097267D01*
X48292Y1097269D01*
X47296Y1097111D01*
X47290Y1097105D01*
X47285Y1097108D01*
X46349Y1096733D01*
X46345Y1096726D01*
X46339Y1096728D01*
X45510Y1096154D01*
X45507Y1096146D01*
X45502Y1096147D01*
X44821Y1095403D01*
X44820Y1095394D01*
X44814Y1095394D01*
X44316Y1094517D01*
X44317Y1094509D01*
X44312Y1094506D01*
X44124Y1093882D01*
X44021Y1093541D01*
X44022Y1093538D01*
X44021Y1093537D01*
X44024Y1093533D01*
X44019Y1093530D01*
X43951Y1092523D01*
X43952Y1092521D01*
X43951Y1092520D01*
X43960Y1091439D01*
X43965Y1091432D01*
X43961Y1091428D01*
X44211Y1090376D01*
X44217Y1090371D01*
X44214Y1090366D01*
X44691Y1089396D01*
X44699Y1089393D01*
X44697Y1089387D01*
X45378Y1088548D01*
X45386Y1088546D01*
X45386Y1088540D01*
X46237Y1087874D01*
X46245Y1087873D01*
X46246Y1087868D01*
X47223Y1087407D01*
X47231Y1087409D01*
X47234Y1087404D01*
X48289Y1087172D01*
X48297Y1087175D01*
X48300Y1087171D01*
X60300Y1087171D01*
X60305Y1087175D01*
G37*
G36*
X979785Y1087175D02*
X979785Y1087175D01*
X979788Y1087171D01*
X980894Y1087364D01*
X980899Y1087369D01*
X980899Y1087370D01*
X980904Y1087367D01*
X981939Y1087800D01*
X981943Y1087807D01*
X981948Y1087805D01*
X982861Y1088458D01*
X982863Y1088466D01*
X982869Y1088465D01*
X983613Y1089304D01*
X983614Y1089313D01*
X983619Y1089313D01*
X984158Y1090297D01*
X984157Y1090305D01*
X984158Y1090306D01*
X984162Y1090307D01*
X984163Y1090309D01*
X984345Y1090950D01*
X984469Y1091386D01*
X984467Y1091391D01*
X984469Y1091393D01*
X984467Y1091395D01*
X984471Y1091397D01*
X984529Y1092517D01*
X984526Y1092522D01*
X984529Y1092526D01*
X984411Y1093571D01*
X984405Y1093577D01*
X984409Y1093582D01*
X984061Y1094576D01*
X984054Y1094580D01*
X984056Y1094585D01*
X983496Y1095477D01*
X983489Y1095480D01*
X983489Y1095485D01*
X982745Y1096229D01*
X982737Y1096231D01*
X982737Y1096236D01*
X981845Y1096796D01*
X981837Y1096796D01*
X981836Y1096801D01*
X980842Y1097149D01*
X980834Y1097146D01*
X980831Y1097151D01*
X979786Y1097269D01*
X979782Y1097267D01*
X979780Y1097269D01*
X967780Y1097269D01*
X967777Y1097267D01*
X967774Y1097267D01*
X967772Y1097269D01*
X966776Y1097111D01*
X966770Y1097105D01*
X966765Y1097108D01*
X965829Y1096733D01*
X965825Y1096726D01*
X965819Y1096728D01*
X964990Y1096154D01*
X964987Y1096146D01*
X964982Y1096147D01*
X964301Y1095403D01*
X964300Y1095394D01*
X964294Y1095394D01*
X963796Y1094517D01*
X963797Y1094509D01*
X963792Y1094506D01*
X963604Y1093882D01*
X963501Y1093541D01*
X963502Y1093538D01*
X963501Y1093537D01*
X963504Y1093533D01*
X963499Y1093530D01*
X963431Y1092523D01*
X963432Y1092521D01*
X963431Y1092520D01*
X963440Y1091439D01*
X963445Y1091432D01*
X963441Y1091428D01*
X963691Y1090376D01*
X963697Y1090371D01*
X963694Y1090366D01*
X964171Y1089396D01*
X964179Y1089393D01*
X964177Y1089387D01*
X964858Y1088548D01*
X964866Y1088546D01*
X964866Y1088540D01*
X965717Y1087874D01*
X965725Y1087873D01*
X965726Y1087868D01*
X966703Y1087407D01*
X966711Y1087409D01*
X966714Y1087404D01*
X967769Y1087172D01*
X967777Y1087175D01*
X967780Y1087171D01*
X979780Y1087171D01*
X979785Y1087175D01*
G37*
G36*
X979785Y619815D02*
X979785Y619815D01*
X979788Y619811D01*
X980894Y620004D01*
X980899Y620009D01*
X980899Y620010D01*
X980904Y620007D01*
X981939Y620440D01*
X981943Y620447D01*
X981948Y620445D01*
X982861Y621098D01*
X982863Y621106D01*
X982869Y621105D01*
X983613Y621944D01*
X983614Y621953D01*
X983619Y621953D01*
X984158Y622937D01*
X984157Y622945D01*
X984158Y622946D01*
X984162Y622947D01*
X984163Y622949D01*
X984345Y623590D01*
X984469Y624026D01*
X984467Y624031D01*
X984469Y624033D01*
X984467Y624035D01*
X984471Y624037D01*
X984529Y625157D01*
X984526Y625162D01*
X984529Y625166D01*
X984411Y626211D01*
X984405Y626217D01*
X984409Y626222D01*
X984061Y627216D01*
X984054Y627220D01*
X984056Y627225D01*
X983496Y628117D01*
X983489Y628120D01*
X983489Y628125D01*
X982745Y628869D01*
X982737Y628871D01*
X982737Y628876D01*
X981845Y629436D01*
X981837Y629436D01*
X981836Y629441D01*
X980842Y629789D01*
X980834Y629786D01*
X980831Y629791D01*
X979786Y629909D01*
X979782Y629907D01*
X979780Y629909D01*
X967780Y629909D01*
X967777Y629907D01*
X967774Y629907D01*
X967772Y629909D01*
X966776Y629751D01*
X966770Y629745D01*
X966765Y629748D01*
X965829Y629373D01*
X965825Y629366D01*
X965819Y629368D01*
X964990Y628794D01*
X964987Y628786D01*
X964982Y628787D01*
X964301Y628043D01*
X964300Y628034D01*
X964294Y628034D01*
X963796Y627157D01*
X963797Y627149D01*
X963792Y627146D01*
X963604Y626522D01*
X963501Y626181D01*
X963502Y626178D01*
X963501Y626177D01*
X963504Y626173D01*
X963499Y626170D01*
X963431Y625163D01*
X963432Y625161D01*
X963431Y625160D01*
X963440Y624079D01*
X963445Y624072D01*
X963441Y624068D01*
X963691Y623016D01*
X963697Y623011D01*
X963694Y623006D01*
X964171Y622036D01*
X964179Y622033D01*
X964177Y622027D01*
X964858Y621188D01*
X964866Y621186D01*
X964866Y621180D01*
X965717Y620514D01*
X965725Y620513D01*
X965726Y620508D01*
X966703Y620047D01*
X966711Y620049D01*
X966714Y620044D01*
X967769Y619812D01*
X967777Y619815D01*
X967780Y619811D01*
X979780Y619811D01*
X979785Y619815D01*
G37*
G36*
X60305Y619815D02*
X60305Y619815D01*
X60308Y619811D01*
X61414Y620004D01*
X61419Y620009D01*
X61419Y620010D01*
X61424Y620007D01*
X62459Y620440D01*
X62463Y620447D01*
X62468Y620445D01*
X63381Y621098D01*
X63383Y621106D01*
X63389Y621105D01*
X64133Y621944D01*
X64134Y621953D01*
X64139Y621953D01*
X64678Y622937D01*
X64677Y622945D01*
X64678Y622946D01*
X64682Y622947D01*
X64683Y622949D01*
X64865Y623590D01*
X64989Y624026D01*
X64987Y624031D01*
X64989Y624033D01*
X64987Y624035D01*
X64991Y624037D01*
X65049Y625157D01*
X65046Y625162D01*
X65049Y625166D01*
X64931Y626211D01*
X64925Y626217D01*
X64929Y626222D01*
X64581Y627216D01*
X64574Y627220D01*
X64576Y627225D01*
X64016Y628117D01*
X64009Y628120D01*
X64009Y628125D01*
X63265Y628869D01*
X63257Y628871D01*
X63257Y628876D01*
X62365Y629436D01*
X62357Y629436D01*
X62356Y629441D01*
X61362Y629789D01*
X61354Y629786D01*
X61351Y629791D01*
X60306Y629909D01*
X60302Y629907D01*
X60300Y629909D01*
X48300Y629909D01*
X48297Y629907D01*
X48294Y629907D01*
X48292Y629909D01*
X47296Y629751D01*
X47290Y629745D01*
X47285Y629748D01*
X46349Y629373D01*
X46345Y629366D01*
X46339Y629368D01*
X45510Y628794D01*
X45507Y628786D01*
X45502Y628787D01*
X44821Y628043D01*
X44820Y628034D01*
X44814Y628034D01*
X44316Y627157D01*
X44317Y627149D01*
X44312Y627146D01*
X44124Y626522D01*
X44021Y626181D01*
X44022Y626178D01*
X44021Y626177D01*
X44024Y626173D01*
X44019Y626170D01*
X43951Y625163D01*
X43952Y625161D01*
X43951Y625160D01*
X43960Y624079D01*
X43965Y624072D01*
X43961Y624068D01*
X44211Y623016D01*
X44217Y623011D01*
X44214Y623006D01*
X44691Y622036D01*
X44699Y622033D01*
X44697Y622027D01*
X45378Y621188D01*
X45386Y621186D01*
X45386Y621180D01*
X46237Y620514D01*
X46245Y620513D01*
X46246Y620508D01*
X47223Y620047D01*
X47231Y620049D01*
X47234Y620044D01*
X48289Y619812D01*
X48297Y619815D01*
X48300Y619811D01*
X60300Y619811D01*
X60305Y619815D01*
G37*
G36*
X60305Y386135D02*
X60305Y386135D01*
X60308Y386131D01*
X61414Y386324D01*
X61419Y386329D01*
X61419Y386330D01*
X61424Y386327D01*
X62459Y386760D01*
X62463Y386767D01*
X62468Y386765D01*
X63381Y387418D01*
X63383Y387426D01*
X63389Y387425D01*
X64133Y388264D01*
X64134Y388273D01*
X64139Y388273D01*
X64678Y389257D01*
X64677Y389265D01*
X64678Y389266D01*
X64682Y389267D01*
X64683Y389269D01*
X64865Y389910D01*
X64989Y390346D01*
X64987Y390351D01*
X64989Y390353D01*
X64987Y390355D01*
X64991Y390357D01*
X65049Y391477D01*
X65046Y391482D01*
X65049Y391486D01*
X64931Y392531D01*
X64925Y392537D01*
X64929Y392542D01*
X64581Y393536D01*
X64574Y393540D01*
X64576Y393545D01*
X64016Y394437D01*
X64009Y394440D01*
X64009Y394445D01*
X63265Y395189D01*
X63257Y395191D01*
X63257Y395196D01*
X62365Y395756D01*
X62357Y395756D01*
X62356Y395761D01*
X61362Y396109D01*
X61354Y396106D01*
X61351Y396111D01*
X60306Y396229D01*
X60302Y396227D01*
X60300Y396229D01*
X48300Y396229D01*
X48297Y396227D01*
X48294Y396227D01*
X48292Y396229D01*
X47296Y396071D01*
X47290Y396065D01*
X47285Y396068D01*
X46349Y395693D01*
X46345Y395686D01*
X46339Y395688D01*
X45510Y395114D01*
X45507Y395106D01*
X45502Y395107D01*
X44821Y394363D01*
X44820Y394354D01*
X44814Y394354D01*
X44316Y393477D01*
X44317Y393469D01*
X44312Y393466D01*
X44124Y392842D01*
X44021Y392501D01*
X44022Y392498D01*
X44021Y392497D01*
X44024Y392493D01*
X44019Y392490D01*
X43951Y391483D01*
X43952Y391481D01*
X43951Y391480D01*
X43960Y390399D01*
X43965Y390392D01*
X43961Y390388D01*
X44211Y389336D01*
X44217Y389331D01*
X44214Y389326D01*
X44691Y388356D01*
X44699Y388353D01*
X44697Y388347D01*
X45378Y387508D01*
X45386Y387506D01*
X45386Y387500D01*
X46237Y386834D01*
X46245Y386833D01*
X46246Y386828D01*
X47223Y386367D01*
X47231Y386369D01*
X47234Y386364D01*
X48289Y386132D01*
X48297Y386135D01*
X48300Y386131D01*
X60300Y386131D01*
X60305Y386135D01*
G37*
G36*
X934984Y767094D02*
X934984Y767094D01*
X934986Y767091D01*
X936119Y767241D01*
X936125Y767247D01*
X936130Y767244D01*
X937200Y767642D01*
X937204Y767649D01*
X937210Y767647D01*
X938165Y768274D01*
X938168Y768282D01*
X938173Y768281D01*
X938965Y769104D01*
X938966Y769112D01*
X938972Y769113D01*
X939561Y770092D01*
X939560Y770100D01*
X939565Y770102D01*
X939921Y771187D01*
X939919Y771195D01*
X939923Y771198D01*
X940029Y772335D01*
X940024Y772344D01*
X940028Y772349D01*
X939821Y773486D01*
X939815Y773492D01*
X939818Y773497D01*
X939363Y774559D01*
X939356Y774563D01*
X939358Y774569D01*
X938678Y775504D01*
X938670Y775506D01*
X938671Y775512D01*
X937800Y776272D01*
X937792Y776272D01*
X937791Y776278D01*
X936772Y776825D01*
X936764Y776824D01*
X936762Y776829D01*
X935648Y777136D01*
X935640Y777133D01*
X935637Y777138D01*
X934482Y777189D01*
X934481Y777188D01*
X934480Y777189D01*
X928480Y777189D01*
X928477Y777187D01*
X928472Y777187D01*
X928471Y777188D01*
X927390Y776976D01*
X927385Y776970D01*
X927380Y776973D01*
X926374Y776526D01*
X926370Y776519D01*
X926364Y776521D01*
X925483Y775861D01*
X925480Y775853D01*
X925475Y775853D01*
X924762Y775014D01*
X924762Y775006D01*
X924756Y775005D01*
X924248Y774028D01*
X924249Y774020D01*
X924244Y774018D01*
X923966Y772953D01*
X923969Y772945D01*
X923965Y772942D01*
X923931Y771842D01*
X923935Y771836D01*
X923931Y771833D01*
X924086Y770758D01*
X924092Y770752D01*
X924089Y770747D01*
X924479Y769733D01*
X924486Y769729D01*
X924485Y769723D01*
X925091Y768821D01*
X925099Y768819D01*
X925098Y768813D01*
X925890Y768069D01*
X925898Y768068D01*
X925898Y768062D01*
X926836Y767513D01*
X926844Y767514D01*
X926846Y767508D01*
X927882Y767181D01*
X927890Y767184D01*
X927893Y767179D01*
X928976Y767091D01*
X928979Y767093D01*
X928980Y767091D01*
X934980Y767091D01*
X934984Y767094D01*
G37*
G36*
X15504Y767094D02*
X15504Y767094D01*
X15506Y767091D01*
X16639Y767241D01*
X16645Y767247D01*
X16650Y767244D01*
X17720Y767642D01*
X17724Y767649D01*
X17730Y767647D01*
X18685Y768274D01*
X18688Y768282D01*
X18693Y768281D01*
X19485Y769104D01*
X19486Y769112D01*
X19492Y769113D01*
X20081Y770092D01*
X20080Y770100D01*
X20085Y770102D01*
X20441Y771187D01*
X20439Y771195D01*
X20443Y771198D01*
X20549Y772335D01*
X20544Y772344D01*
X20548Y772349D01*
X20341Y773486D01*
X20335Y773492D01*
X20338Y773497D01*
X19883Y774559D01*
X19876Y774563D01*
X19878Y774569D01*
X19198Y775504D01*
X19190Y775506D01*
X19191Y775512D01*
X18320Y776272D01*
X18312Y776272D01*
X18311Y776278D01*
X17292Y776825D01*
X17284Y776824D01*
X17282Y776829D01*
X16168Y777136D01*
X16160Y777133D01*
X16157Y777138D01*
X15002Y777189D01*
X15001Y777188D01*
X15000Y777189D01*
X9000Y777189D01*
X8997Y777187D01*
X8992Y777187D01*
X8991Y777188D01*
X7910Y776976D01*
X7905Y776970D01*
X7900Y776973D01*
X6894Y776526D01*
X6890Y776519D01*
X6884Y776521D01*
X6003Y775861D01*
X6000Y775853D01*
X5995Y775853D01*
X5282Y775014D01*
X5282Y775006D01*
X5276Y775005D01*
X4768Y774028D01*
X4769Y774020D01*
X4764Y774018D01*
X4486Y772953D01*
X4489Y772945D01*
X4485Y772942D01*
X4451Y771842D01*
X4455Y771836D01*
X4451Y771833D01*
X4606Y770758D01*
X4612Y770752D01*
X4609Y770747D01*
X4999Y769733D01*
X5006Y769729D01*
X5005Y769723D01*
X5611Y768821D01*
X5619Y768819D01*
X5618Y768813D01*
X6410Y768069D01*
X6418Y768068D01*
X6418Y768062D01*
X7356Y767513D01*
X7364Y767514D01*
X7366Y767508D01*
X8402Y767181D01*
X8410Y767184D01*
X8413Y767179D01*
X9496Y767091D01*
X9499Y767093D01*
X9500Y767091D01*
X15500Y767091D01*
X15504Y767094D01*
G37*
G36*
X15504Y1000774D02*
X15504Y1000774D01*
X15506Y1000771D01*
X16639Y1000921D01*
X16645Y1000927D01*
X16650Y1000924D01*
X17720Y1001322D01*
X17724Y1001329D01*
X17730Y1001327D01*
X18685Y1001954D01*
X18688Y1001962D01*
X18693Y1001961D01*
X19485Y1002784D01*
X19486Y1002792D01*
X19492Y1002793D01*
X20081Y1003772D01*
X20080Y1003780D01*
X20085Y1003782D01*
X20441Y1004867D01*
X20439Y1004875D01*
X20443Y1004878D01*
X20549Y1006015D01*
X20544Y1006024D01*
X20548Y1006029D01*
X20341Y1007166D01*
X20335Y1007172D01*
X20338Y1007177D01*
X19883Y1008239D01*
X19876Y1008243D01*
X19878Y1008249D01*
X19198Y1009184D01*
X19190Y1009186D01*
X19191Y1009192D01*
X18320Y1009952D01*
X18312Y1009952D01*
X18311Y1009958D01*
X17292Y1010505D01*
X17284Y1010504D01*
X17282Y1010509D01*
X16168Y1010816D01*
X16160Y1010813D01*
X16157Y1010818D01*
X15002Y1010869D01*
X15001Y1010868D01*
X15000Y1010869D01*
X9000Y1010869D01*
X8997Y1010867D01*
X8992Y1010867D01*
X8991Y1010868D01*
X7910Y1010656D01*
X7905Y1010650D01*
X7900Y1010653D01*
X6894Y1010206D01*
X6890Y1010199D01*
X6884Y1010201D01*
X6003Y1009541D01*
X6000Y1009533D01*
X5995Y1009533D01*
X5282Y1008694D01*
X5282Y1008686D01*
X5276Y1008685D01*
X4768Y1007708D01*
X4769Y1007700D01*
X4764Y1007698D01*
X4486Y1006633D01*
X4489Y1006625D01*
X4485Y1006622D01*
X4451Y1005522D01*
X4455Y1005516D01*
X4451Y1005513D01*
X4606Y1004438D01*
X4612Y1004432D01*
X4609Y1004427D01*
X4999Y1003413D01*
X5006Y1003409D01*
X5005Y1003403D01*
X5611Y1002501D01*
X5619Y1002499D01*
X5618Y1002493D01*
X6410Y1001749D01*
X6418Y1001748D01*
X6418Y1001742D01*
X7356Y1001193D01*
X7364Y1001194D01*
X7366Y1001188D01*
X8402Y1000861D01*
X8410Y1000864D01*
X8413Y1000859D01*
X9496Y1000771D01*
X9499Y1000773D01*
X9500Y1000771D01*
X15500Y1000771D01*
X15504Y1000774D01*
G37*
G36*
X934984Y299734D02*
X934984Y299734D01*
X934986Y299731D01*
X936119Y299881D01*
X936125Y299887D01*
X936130Y299884D01*
X937200Y300282D01*
X937204Y300289D01*
X937210Y300287D01*
X938165Y300914D01*
X938168Y300922D01*
X938173Y300921D01*
X938965Y301744D01*
X938966Y301752D01*
X938972Y301753D01*
X939561Y302732D01*
X939560Y302740D01*
X939565Y302742D01*
X939921Y303827D01*
X939919Y303835D01*
X939923Y303838D01*
X940029Y304975D01*
X940024Y304984D01*
X940028Y304989D01*
X939821Y306126D01*
X939815Y306132D01*
X939818Y306137D01*
X939363Y307199D01*
X939356Y307203D01*
X939358Y307209D01*
X938678Y308144D01*
X938670Y308146D01*
X938671Y308152D01*
X937800Y308912D01*
X937792Y308912D01*
X937791Y308918D01*
X936772Y309465D01*
X936764Y309464D01*
X936762Y309469D01*
X935648Y309776D01*
X935640Y309773D01*
X935637Y309778D01*
X934482Y309829D01*
X934481Y309828D01*
X934480Y309829D01*
X928480Y309829D01*
X928477Y309827D01*
X928472Y309827D01*
X928471Y309828D01*
X927390Y309616D01*
X927385Y309610D01*
X927380Y309613D01*
X926374Y309166D01*
X926370Y309159D01*
X926364Y309161D01*
X925483Y308501D01*
X925480Y308493D01*
X925475Y308493D01*
X924762Y307654D01*
X924762Y307646D01*
X924756Y307645D01*
X924248Y306668D01*
X924249Y306660D01*
X924244Y306658D01*
X923966Y305593D01*
X923969Y305585D01*
X923965Y305582D01*
X923931Y304482D01*
X923935Y304476D01*
X923931Y304473D01*
X924086Y303398D01*
X924092Y303392D01*
X924089Y303387D01*
X924479Y302373D01*
X924486Y302369D01*
X924485Y302363D01*
X925091Y301461D01*
X925099Y301459D01*
X925098Y301453D01*
X925890Y300709D01*
X925898Y300708D01*
X925898Y300702D01*
X926836Y300153D01*
X926844Y300154D01*
X926846Y300148D01*
X927882Y299821D01*
X927890Y299824D01*
X927893Y299819D01*
X928976Y299731D01*
X928979Y299733D01*
X928980Y299731D01*
X934980Y299731D01*
X934984Y299734D01*
G37*
G36*
X15504Y299734D02*
X15504Y299734D01*
X15506Y299731D01*
X16639Y299881D01*
X16645Y299887D01*
X16650Y299884D01*
X17720Y300282D01*
X17724Y300289D01*
X17730Y300287D01*
X18685Y300914D01*
X18688Y300922D01*
X18693Y300921D01*
X19485Y301744D01*
X19486Y301752D01*
X19492Y301753D01*
X20081Y302732D01*
X20080Y302740D01*
X20085Y302742D01*
X20441Y303827D01*
X20439Y303835D01*
X20443Y303838D01*
X20549Y304975D01*
X20544Y304984D01*
X20548Y304989D01*
X20341Y306126D01*
X20335Y306132D01*
X20338Y306137D01*
X19883Y307199D01*
X19876Y307203D01*
X19878Y307209D01*
X19198Y308144D01*
X19190Y308146D01*
X19191Y308152D01*
X18320Y308912D01*
X18312Y308912D01*
X18311Y308918D01*
X17292Y309465D01*
X17284Y309464D01*
X17282Y309469D01*
X16168Y309776D01*
X16160Y309773D01*
X16157Y309778D01*
X15002Y309829D01*
X15001Y309828D01*
X15000Y309829D01*
X9000Y309829D01*
X8997Y309827D01*
X8992Y309827D01*
X8991Y309828D01*
X7910Y309616D01*
X7905Y309610D01*
X7900Y309613D01*
X6894Y309166D01*
X6890Y309159D01*
X6884Y309161D01*
X6003Y308501D01*
X6000Y308493D01*
X5995Y308493D01*
X5282Y307654D01*
X5282Y307646D01*
X5276Y307645D01*
X4768Y306668D01*
X4769Y306660D01*
X4764Y306658D01*
X4486Y305593D01*
X4489Y305585D01*
X4485Y305582D01*
X4451Y304482D01*
X4455Y304476D01*
X4451Y304473D01*
X4606Y303398D01*
X4612Y303392D01*
X4609Y303387D01*
X4999Y302373D01*
X5006Y302369D01*
X5005Y302363D01*
X5611Y301461D01*
X5619Y301459D01*
X5618Y301453D01*
X6410Y300709D01*
X6418Y300708D01*
X6418Y300702D01*
X7356Y300153D01*
X7364Y300154D01*
X7366Y300148D01*
X8402Y299821D01*
X8410Y299824D01*
X8413Y299819D01*
X9496Y299731D01*
X9499Y299733D01*
X9500Y299731D01*
X15500Y299731D01*
X15504Y299734D01*
G37*
G36*
X15504Y533414D02*
X15504Y533414D01*
X15506Y533411D01*
X16639Y533561D01*
X16645Y533567D01*
X16650Y533564D01*
X17720Y533962D01*
X17724Y533969D01*
X17730Y533967D01*
X18685Y534594D01*
X18688Y534602D01*
X18693Y534601D01*
X19485Y535424D01*
X19486Y535432D01*
X19492Y535433D01*
X20081Y536412D01*
X20080Y536420D01*
X20085Y536422D01*
X20441Y537507D01*
X20439Y537515D01*
X20443Y537518D01*
X20549Y538655D01*
X20544Y538664D01*
X20548Y538669D01*
X20341Y539806D01*
X20335Y539812D01*
X20338Y539817D01*
X19883Y540879D01*
X19876Y540883D01*
X19878Y540889D01*
X19198Y541824D01*
X19190Y541826D01*
X19191Y541832D01*
X18320Y542592D01*
X18312Y542592D01*
X18311Y542598D01*
X17292Y543145D01*
X17284Y543144D01*
X17282Y543149D01*
X16168Y543456D01*
X16160Y543453D01*
X16157Y543458D01*
X15002Y543509D01*
X15001Y543508D01*
X15000Y543509D01*
X9000Y543509D01*
X8997Y543507D01*
X8992Y543507D01*
X8991Y543508D01*
X7910Y543296D01*
X7905Y543290D01*
X7900Y543293D01*
X6894Y542846D01*
X6890Y542839D01*
X6884Y542841D01*
X6003Y542181D01*
X6000Y542173D01*
X5995Y542173D01*
X5282Y541334D01*
X5282Y541326D01*
X5276Y541325D01*
X4768Y540348D01*
X4769Y540340D01*
X4764Y540338D01*
X4486Y539273D01*
X4489Y539265D01*
X4485Y539262D01*
X4451Y538162D01*
X4455Y538156D01*
X4451Y538153D01*
X4606Y537078D01*
X4612Y537072D01*
X4609Y537067D01*
X4999Y536053D01*
X5006Y536049D01*
X5005Y536043D01*
X5611Y535141D01*
X5619Y535139D01*
X5618Y535133D01*
X6410Y534389D01*
X6418Y534388D01*
X6418Y534382D01*
X7356Y533833D01*
X7364Y533834D01*
X7366Y533828D01*
X8402Y533501D01*
X8410Y533504D01*
X8413Y533499D01*
X9496Y533411D01*
X9499Y533413D01*
X9500Y533411D01*
X15500Y533411D01*
X15504Y533414D01*
G37*
G36*
X934984Y1000774D02*
X934984Y1000774D01*
X934986Y1000771D01*
X936119Y1000921D01*
X936125Y1000927D01*
X936130Y1000924D01*
X937200Y1001322D01*
X937204Y1001329D01*
X937210Y1001327D01*
X938165Y1001954D01*
X938168Y1001962D01*
X938173Y1001961D01*
X938965Y1002784D01*
X938966Y1002792D01*
X938972Y1002793D01*
X939561Y1003772D01*
X939560Y1003780D01*
X939565Y1003782D01*
X939921Y1004867D01*
X939919Y1004875D01*
X939923Y1004878D01*
X940029Y1006015D01*
X940024Y1006024D01*
X940028Y1006029D01*
X939821Y1007166D01*
X939815Y1007172D01*
X939818Y1007177D01*
X939363Y1008239D01*
X939356Y1008243D01*
X939358Y1008249D01*
X938678Y1009184D01*
X938670Y1009186D01*
X938671Y1009192D01*
X937800Y1009952D01*
X937792Y1009952D01*
X937791Y1009958D01*
X936772Y1010505D01*
X936764Y1010504D01*
X936762Y1010509D01*
X935648Y1010816D01*
X935640Y1010813D01*
X935637Y1010818D01*
X934482Y1010869D01*
X934481Y1010868D01*
X934480Y1010869D01*
X928480Y1010869D01*
X928477Y1010867D01*
X928472Y1010867D01*
X928471Y1010868D01*
X927390Y1010656D01*
X927385Y1010650D01*
X927380Y1010653D01*
X926374Y1010206D01*
X926370Y1010199D01*
X926364Y1010201D01*
X925483Y1009541D01*
X925480Y1009533D01*
X925475Y1009533D01*
X924762Y1008694D01*
X924762Y1008686D01*
X924756Y1008685D01*
X924248Y1007708D01*
X924249Y1007700D01*
X924244Y1007698D01*
X923966Y1006633D01*
X923969Y1006625D01*
X923965Y1006622D01*
X923931Y1005522D01*
X923935Y1005516D01*
X923931Y1005513D01*
X924086Y1004438D01*
X924092Y1004432D01*
X924089Y1004427D01*
X924479Y1003413D01*
X924486Y1003409D01*
X924485Y1003403D01*
X925091Y1002501D01*
X925099Y1002499D01*
X925098Y1002493D01*
X925890Y1001749D01*
X925898Y1001748D01*
X925898Y1001742D01*
X926836Y1001193D01*
X926844Y1001194D01*
X926846Y1001188D01*
X927882Y1000861D01*
X927890Y1000864D01*
X927893Y1000859D01*
X928976Y1000771D01*
X928979Y1000773D01*
X928980Y1000771D01*
X934980Y1000771D01*
X934984Y1000774D01*
G37*
G36*
X934984Y533414D02*
X934984Y533414D01*
X934986Y533411D01*
X936119Y533561D01*
X936125Y533567D01*
X936130Y533564D01*
X937200Y533962D01*
X937204Y533969D01*
X937210Y533967D01*
X938165Y534594D01*
X938168Y534602D01*
X938173Y534601D01*
X938965Y535424D01*
X938966Y535432D01*
X938972Y535433D01*
X939561Y536412D01*
X939560Y536420D01*
X939565Y536422D01*
X939921Y537507D01*
X939919Y537515D01*
X939923Y537518D01*
X940029Y538655D01*
X940024Y538664D01*
X940028Y538669D01*
X939821Y539806D01*
X939815Y539812D01*
X939818Y539817D01*
X939363Y540879D01*
X939356Y540883D01*
X939358Y540889D01*
X938678Y541824D01*
X938670Y541826D01*
X938671Y541832D01*
X937800Y542592D01*
X937792Y542592D01*
X937791Y542598D01*
X936772Y543145D01*
X936764Y543144D01*
X936762Y543149D01*
X935648Y543456D01*
X935640Y543453D01*
X935637Y543458D01*
X934482Y543509D01*
X934481Y543508D01*
X934480Y543509D01*
X928480Y543509D01*
X928477Y543507D01*
X928472Y543507D01*
X928471Y543508D01*
X927390Y543296D01*
X927385Y543290D01*
X927380Y543293D01*
X926374Y542846D01*
X926370Y542839D01*
X926364Y542841D01*
X925483Y542181D01*
X925480Y542173D01*
X925475Y542173D01*
X924762Y541334D01*
X924762Y541326D01*
X924756Y541325D01*
X924248Y540348D01*
X924249Y540340D01*
X924244Y540338D01*
X923966Y539273D01*
X923969Y539265D01*
X923965Y539262D01*
X923931Y538162D01*
X923935Y538156D01*
X923931Y538153D01*
X924086Y537078D01*
X924092Y537072D01*
X924089Y537067D01*
X924479Y536053D01*
X924486Y536049D01*
X924485Y536043D01*
X925091Y535141D01*
X925099Y535139D01*
X925098Y535133D01*
X925890Y534389D01*
X925898Y534388D01*
X925898Y534382D01*
X926836Y533833D01*
X926844Y533834D01*
X926846Y533828D01*
X927882Y533501D01*
X927890Y533504D01*
X927893Y533499D01*
X928976Y533411D01*
X928979Y533413D01*
X928980Y533411D01*
X934980Y533411D01*
X934984Y533414D01*
G37*
G36*
X934984Y66054D02*
X934984Y66054D01*
X934986Y66051D01*
X936119Y66201D01*
X936125Y66207D01*
X936130Y66204D01*
X937200Y66602D01*
X937204Y66609D01*
X937210Y66607D01*
X938165Y67234D01*
X938168Y67242D01*
X938173Y67241D01*
X938965Y68064D01*
X938966Y68072D01*
X938972Y68073D01*
X939561Y69052D01*
X939560Y69060D01*
X939565Y69062D01*
X939921Y70147D01*
X939919Y70155D01*
X939923Y70158D01*
X940029Y71295D01*
X940024Y71304D01*
X940028Y71309D01*
X939821Y72446D01*
X939815Y72452D01*
X939818Y72457D01*
X939363Y73519D01*
X939356Y73523D01*
X939358Y73529D01*
X938678Y74464D01*
X938670Y74466D01*
X938671Y74472D01*
X937800Y75232D01*
X937792Y75232D01*
X937791Y75238D01*
X936772Y75785D01*
X936764Y75784D01*
X936762Y75789D01*
X935648Y76096D01*
X935640Y76093D01*
X935637Y76098D01*
X934482Y76149D01*
X934481Y76148D01*
X934480Y76149D01*
X928480Y76149D01*
X928477Y76147D01*
X928472Y76147D01*
X928471Y76148D01*
X927390Y75936D01*
X927385Y75930D01*
X927380Y75933D01*
X926374Y75486D01*
X926370Y75479D01*
X926364Y75481D01*
X925483Y74821D01*
X925480Y74813D01*
X925475Y74813D01*
X924762Y73974D01*
X924762Y73966D01*
X924756Y73965D01*
X924248Y72988D01*
X924249Y72980D01*
X924244Y72978D01*
X923966Y71913D01*
X923969Y71905D01*
X923965Y71902D01*
X923931Y70802D01*
X923935Y70796D01*
X923931Y70793D01*
X924086Y69718D01*
X924092Y69712D01*
X924089Y69707D01*
X924479Y68693D01*
X924486Y68689D01*
X924485Y68683D01*
X925091Y67781D01*
X925099Y67779D01*
X925098Y67773D01*
X925890Y67029D01*
X925898Y67028D01*
X925898Y67022D01*
X926836Y66473D01*
X926844Y66474D01*
X926846Y66468D01*
X927882Y66141D01*
X927890Y66144D01*
X927893Y66139D01*
X928976Y66051D01*
X928979Y66053D01*
X928980Y66051D01*
X934980Y66051D01*
X934984Y66054D01*
G37*
G36*
X15504Y66054D02*
X15504Y66054D01*
X15506Y66051D01*
X16639Y66201D01*
X16645Y66207D01*
X16650Y66204D01*
X17720Y66602D01*
X17724Y66609D01*
X17730Y66607D01*
X18685Y67234D01*
X18688Y67242D01*
X18693Y67241D01*
X19485Y68064D01*
X19486Y68072D01*
X19492Y68073D01*
X20081Y69052D01*
X20080Y69060D01*
X20085Y69062D01*
X20441Y70147D01*
X20439Y70155D01*
X20443Y70158D01*
X20549Y71295D01*
X20544Y71304D01*
X20548Y71309D01*
X20341Y72446D01*
X20335Y72452D01*
X20338Y72457D01*
X19883Y73519D01*
X19876Y73523D01*
X19878Y73529D01*
X19198Y74464D01*
X19190Y74466D01*
X19191Y74472D01*
X18320Y75232D01*
X18312Y75232D01*
X18311Y75238D01*
X17292Y75785D01*
X17284Y75784D01*
X17282Y75789D01*
X16168Y76096D01*
X16160Y76093D01*
X16157Y76098D01*
X15002Y76149D01*
X15001Y76148D01*
X15000Y76149D01*
X9000Y76149D01*
X8997Y76147D01*
X8992Y76147D01*
X8991Y76148D01*
X7910Y75936D01*
X7905Y75930D01*
X7900Y75933D01*
X6894Y75486D01*
X6890Y75479D01*
X6884Y75481D01*
X6003Y74821D01*
X6000Y74813D01*
X5995Y74813D01*
X5282Y73974D01*
X5282Y73966D01*
X5276Y73965D01*
X4768Y72988D01*
X4769Y72980D01*
X4764Y72978D01*
X4486Y71913D01*
X4489Y71905D01*
X4485Y71902D01*
X4451Y70802D01*
X4455Y70796D01*
X4451Y70793D01*
X4606Y69718D01*
X4612Y69712D01*
X4609Y69707D01*
X4999Y68693D01*
X5006Y68689D01*
X5005Y68683D01*
X5611Y67781D01*
X5619Y67779D01*
X5618Y67773D01*
X6410Y67029D01*
X6418Y67028D01*
X6418Y67022D01*
X7356Y66473D01*
X7364Y66474D01*
X7366Y66468D01*
X8402Y66141D01*
X8410Y66144D01*
X8413Y66139D01*
X9496Y66051D01*
X9499Y66053D01*
X9500Y66051D01*
X15500Y66051D01*
X15504Y66054D01*
G37*
G36*
X934983Y386133D02*
X934983Y386133D01*
X934985Y386131D01*
X936077Y386232D01*
X936083Y386237D01*
X936088Y386234D01*
X937131Y386575D01*
X937136Y386582D01*
X937141Y386580D01*
X938082Y387144D01*
X938085Y387152D01*
X938091Y387151D01*
X938883Y387911D01*
X938884Y387919D01*
X938890Y387920D01*
X939493Y388837D01*
X939492Y388845D01*
X939498Y388847D01*
X939881Y389875D01*
X939879Y389883D01*
X939884Y389886D01*
X940029Y390974D01*
X940025Y390981D01*
X940029Y390985D01*
X939923Y392122D01*
X939918Y392128D01*
X939921Y392133D01*
X939565Y393218D01*
X939558Y393223D01*
X939561Y393228D01*
X938972Y394207D01*
X938964Y394210D01*
X938965Y394216D01*
X938173Y395039D01*
X938165Y395040D01*
X938165Y395046D01*
X937210Y395673D01*
X937202Y395672D01*
X937200Y395678D01*
X936130Y396076D01*
X936122Y396074D01*
X936119Y396079D01*
X934986Y396229D01*
X934983Y396227D01*
X934982Y396227D01*
X934980Y396229D01*
X928980Y396229D01*
X928977Y396227D01*
X928975Y396227D01*
X928974Y396229D01*
X927841Y396079D01*
X927835Y396073D01*
X927830Y396076D01*
X926760Y395678D01*
X926756Y395671D01*
X926750Y395673D01*
X925795Y395046D01*
X925792Y395038D01*
X925787Y395039D01*
X924995Y394216D01*
X924994Y394208D01*
X924988Y394207D01*
X924399Y393228D01*
X924400Y393220D01*
X924395Y393218D01*
X924039Y392133D01*
X924042Y392125D01*
X924037Y392122D01*
X923931Y390985D01*
X923935Y390978D01*
X923931Y390974D01*
X924076Y389886D01*
X924082Y389880D01*
X924079Y389875D01*
X924463Y388847D01*
X924469Y388842D01*
X924468Y388837D01*
X925070Y387920D01*
X925078Y387917D01*
X925077Y387911D01*
X925869Y387151D01*
X925877Y387150D01*
X925878Y387144D01*
X926819Y386580D01*
X926827Y386581D01*
X926829Y386575D01*
X927872Y386234D01*
X927880Y386236D01*
X927883Y386232D01*
X928976Y386131D01*
X928978Y386133D01*
X928980Y386131D01*
X934980Y386131D01*
X934983Y386133D01*
G37*
G36*
X934983Y853493D02*
X934983Y853493D01*
X934985Y853491D01*
X936077Y853592D01*
X936083Y853597D01*
X936088Y853594D01*
X937131Y853935D01*
X937136Y853942D01*
X937141Y853940D01*
X938082Y854504D01*
X938085Y854512D01*
X938091Y854511D01*
X938883Y855271D01*
X938884Y855279D01*
X938890Y855280D01*
X939493Y856197D01*
X939492Y856205D01*
X939498Y856207D01*
X939881Y857235D01*
X939879Y857243D01*
X939884Y857246D01*
X940029Y858334D01*
X940025Y858341D01*
X940029Y858345D01*
X939923Y859482D01*
X939918Y859488D01*
X939921Y859493D01*
X939565Y860578D01*
X939558Y860583D01*
X939561Y860588D01*
X938972Y861567D01*
X938964Y861570D01*
X938965Y861576D01*
X938173Y862399D01*
X938165Y862400D01*
X938165Y862406D01*
X937210Y863033D01*
X937202Y863032D01*
X937200Y863038D01*
X936130Y863436D01*
X936122Y863434D01*
X936119Y863439D01*
X934986Y863589D01*
X934983Y863587D01*
X934982Y863587D01*
X934980Y863589D01*
X928980Y863589D01*
X928977Y863587D01*
X928975Y863587D01*
X928974Y863589D01*
X927841Y863439D01*
X927835Y863433D01*
X927830Y863436D01*
X926760Y863038D01*
X926756Y863031D01*
X926750Y863033D01*
X925795Y862406D01*
X925792Y862398D01*
X925787Y862399D01*
X924995Y861576D01*
X924994Y861568D01*
X924988Y861567D01*
X924399Y860588D01*
X924400Y860580D01*
X924395Y860578D01*
X924039Y859493D01*
X924042Y859485D01*
X924037Y859482D01*
X923931Y858345D01*
X923935Y858338D01*
X923931Y858334D01*
X924076Y857246D01*
X924082Y857240D01*
X924079Y857235D01*
X924463Y856207D01*
X924469Y856202D01*
X924468Y856197D01*
X925070Y855280D01*
X925078Y855277D01*
X925077Y855271D01*
X925869Y854511D01*
X925877Y854510D01*
X925878Y854504D01*
X926819Y853940D01*
X926827Y853941D01*
X926829Y853935D01*
X927872Y853594D01*
X927880Y853596D01*
X927883Y853592D01*
X928976Y853491D01*
X928978Y853493D01*
X928980Y853491D01*
X934980Y853491D01*
X934983Y853493D01*
G37*
G36*
X15503Y853493D02*
X15503Y853493D01*
X15505Y853491D01*
X16597Y853592D01*
X16603Y853597D01*
X16608Y853594D01*
X17651Y853935D01*
X17656Y853942D01*
X17661Y853940D01*
X18602Y854504D01*
X18605Y854512D01*
X18611Y854511D01*
X19403Y855271D01*
X19404Y855279D01*
X19410Y855280D01*
X20013Y856197D01*
X20012Y856205D01*
X20018Y856207D01*
X20401Y857235D01*
X20399Y857243D01*
X20404Y857246D01*
X20549Y858334D01*
X20545Y858341D01*
X20549Y858345D01*
X20443Y859482D01*
X20438Y859488D01*
X20441Y859493D01*
X20085Y860578D01*
X20078Y860583D01*
X20081Y860588D01*
X19492Y861567D01*
X19484Y861570D01*
X19485Y861576D01*
X18693Y862399D01*
X18685Y862400D01*
X18685Y862406D01*
X17730Y863033D01*
X17722Y863032D01*
X17720Y863038D01*
X16650Y863436D01*
X16642Y863434D01*
X16639Y863439D01*
X15506Y863589D01*
X15503Y863587D01*
X15502Y863587D01*
X15500Y863589D01*
X9500Y863589D01*
X9497Y863587D01*
X9495Y863587D01*
X9494Y863589D01*
X8361Y863439D01*
X8355Y863433D01*
X8350Y863436D01*
X7280Y863038D01*
X7276Y863031D01*
X7270Y863033D01*
X6315Y862406D01*
X6312Y862398D01*
X6307Y862399D01*
X5515Y861576D01*
X5514Y861568D01*
X5508Y861567D01*
X4919Y860588D01*
X4920Y860580D01*
X4915Y860578D01*
X4559Y859493D01*
X4562Y859485D01*
X4557Y859482D01*
X4451Y858345D01*
X4455Y858338D01*
X4451Y858334D01*
X4596Y857246D01*
X4602Y857240D01*
X4599Y857235D01*
X4983Y856207D01*
X4989Y856202D01*
X4988Y856197D01*
X5590Y855280D01*
X5598Y855277D01*
X5597Y855271D01*
X6389Y854511D01*
X6397Y854510D01*
X6398Y854504D01*
X7339Y853940D01*
X7347Y853941D01*
X7349Y853935D01*
X8392Y853594D01*
X8400Y853596D01*
X8403Y853592D01*
X9496Y853491D01*
X9498Y853493D01*
X9500Y853491D01*
X15500Y853491D01*
X15503Y853493D01*
G37*
G36*
X934983Y1087173D02*
X934983Y1087173D01*
X934985Y1087171D01*
X936077Y1087272D01*
X936083Y1087277D01*
X936088Y1087274D01*
X937131Y1087615D01*
X937136Y1087622D01*
X937141Y1087620D01*
X938082Y1088184D01*
X938085Y1088192D01*
X938091Y1088191D01*
X938883Y1088951D01*
X938884Y1088959D01*
X938890Y1088960D01*
X939493Y1089877D01*
X939492Y1089885D01*
X939498Y1089887D01*
X939881Y1090915D01*
X939879Y1090923D01*
X939884Y1090926D01*
X940029Y1092014D01*
X940025Y1092021D01*
X940029Y1092025D01*
X939923Y1093162D01*
X939918Y1093168D01*
X939921Y1093173D01*
X939565Y1094258D01*
X939558Y1094263D01*
X939561Y1094268D01*
X938972Y1095247D01*
X938964Y1095250D01*
X938965Y1095256D01*
X938173Y1096079D01*
X938165Y1096080D01*
X938165Y1096086D01*
X937210Y1096713D01*
X937202Y1096712D01*
X937200Y1096718D01*
X936130Y1097116D01*
X936122Y1097114D01*
X936119Y1097119D01*
X934986Y1097269D01*
X934983Y1097267D01*
X934982Y1097267D01*
X934980Y1097269D01*
X928980Y1097269D01*
X928977Y1097267D01*
X928975Y1097267D01*
X928974Y1097269D01*
X927841Y1097119D01*
X927835Y1097113D01*
X927830Y1097116D01*
X926760Y1096718D01*
X926756Y1096711D01*
X926750Y1096713D01*
X925795Y1096086D01*
X925792Y1096078D01*
X925787Y1096079D01*
X924995Y1095256D01*
X924994Y1095248D01*
X924988Y1095247D01*
X924399Y1094268D01*
X924400Y1094260D01*
X924395Y1094258D01*
X924039Y1093173D01*
X924042Y1093165D01*
X924037Y1093162D01*
X923931Y1092025D01*
X923935Y1092018D01*
X923931Y1092014D01*
X924076Y1090926D01*
X924082Y1090920D01*
X924079Y1090915D01*
X924463Y1089887D01*
X924469Y1089882D01*
X924468Y1089877D01*
X925070Y1088960D01*
X925078Y1088957D01*
X925077Y1088951D01*
X925869Y1088191D01*
X925877Y1088190D01*
X925878Y1088184D01*
X926819Y1087620D01*
X926827Y1087621D01*
X926829Y1087615D01*
X927872Y1087274D01*
X927880Y1087276D01*
X927883Y1087272D01*
X928976Y1087171D01*
X928978Y1087173D01*
X928980Y1087171D01*
X934980Y1087171D01*
X934983Y1087173D01*
G37*
G36*
X15503Y152453D02*
X15503Y152453D01*
X15505Y152451D01*
X16597Y152552D01*
X16603Y152557D01*
X16608Y152554D01*
X17651Y152895D01*
X17656Y152902D01*
X17661Y152900D01*
X18602Y153464D01*
X18605Y153472D01*
X18611Y153471D01*
X19403Y154231D01*
X19404Y154239D01*
X19410Y154240D01*
X20013Y155157D01*
X20012Y155165D01*
X20018Y155167D01*
X20401Y156195D01*
X20399Y156203D01*
X20404Y156206D01*
X20549Y157294D01*
X20545Y157301D01*
X20549Y157305D01*
X20443Y158442D01*
X20438Y158448D01*
X20441Y158453D01*
X20085Y159538D01*
X20078Y159543D01*
X20081Y159548D01*
X19492Y160527D01*
X19484Y160530D01*
X19485Y160536D01*
X18693Y161359D01*
X18685Y161360D01*
X18685Y161366D01*
X17730Y161993D01*
X17722Y161992D01*
X17720Y161998D01*
X16650Y162396D01*
X16642Y162394D01*
X16639Y162399D01*
X15506Y162549D01*
X15503Y162547D01*
X15502Y162547D01*
X15500Y162549D01*
X9500Y162549D01*
X9497Y162547D01*
X9495Y162547D01*
X9494Y162549D01*
X8361Y162399D01*
X8355Y162393D01*
X8350Y162396D01*
X7280Y161998D01*
X7276Y161991D01*
X7270Y161993D01*
X6315Y161366D01*
X6312Y161358D01*
X6307Y161359D01*
X5515Y160536D01*
X5514Y160528D01*
X5508Y160527D01*
X4919Y159548D01*
X4920Y159540D01*
X4915Y159538D01*
X4559Y158453D01*
X4562Y158445D01*
X4557Y158442D01*
X4451Y157305D01*
X4455Y157298D01*
X4451Y157294D01*
X4596Y156206D01*
X4602Y156200D01*
X4599Y156195D01*
X4983Y155167D01*
X4989Y155162D01*
X4988Y155157D01*
X5590Y154240D01*
X5598Y154237D01*
X5597Y154231D01*
X6389Y153471D01*
X6397Y153470D01*
X6398Y153464D01*
X7339Y152900D01*
X7347Y152901D01*
X7349Y152895D01*
X8392Y152554D01*
X8400Y152556D01*
X8403Y152552D01*
X9496Y152451D01*
X9498Y152453D01*
X9500Y152451D01*
X15500Y152451D01*
X15503Y152453D01*
G37*
G36*
X934983Y152453D02*
X934983Y152453D01*
X934985Y152451D01*
X936077Y152552D01*
X936083Y152557D01*
X936088Y152554D01*
X937131Y152895D01*
X937136Y152902D01*
X937141Y152900D01*
X938082Y153464D01*
X938085Y153472D01*
X938091Y153471D01*
X938883Y154231D01*
X938884Y154239D01*
X938890Y154240D01*
X939493Y155157D01*
X939492Y155165D01*
X939498Y155167D01*
X939881Y156195D01*
X939879Y156203D01*
X939884Y156206D01*
X940029Y157294D01*
X940025Y157301D01*
X940029Y157305D01*
X939923Y158442D01*
X939918Y158448D01*
X939921Y158453D01*
X939565Y159538D01*
X939558Y159543D01*
X939561Y159548D01*
X938972Y160527D01*
X938964Y160530D01*
X938965Y160536D01*
X938173Y161359D01*
X938165Y161360D01*
X938165Y161366D01*
X937210Y161993D01*
X937202Y161992D01*
X937200Y161998D01*
X936130Y162396D01*
X936122Y162394D01*
X936119Y162399D01*
X934986Y162549D01*
X934983Y162547D01*
X934982Y162547D01*
X934980Y162549D01*
X928980Y162549D01*
X928977Y162547D01*
X928975Y162547D01*
X928974Y162549D01*
X927841Y162399D01*
X927835Y162393D01*
X927830Y162396D01*
X926760Y161998D01*
X926756Y161991D01*
X926750Y161993D01*
X925795Y161366D01*
X925792Y161358D01*
X925787Y161359D01*
X924995Y160536D01*
X924994Y160528D01*
X924988Y160527D01*
X924399Y159548D01*
X924400Y159540D01*
X924395Y159538D01*
X924039Y158453D01*
X924042Y158445D01*
X924037Y158442D01*
X923931Y157305D01*
X923935Y157298D01*
X923931Y157294D01*
X924076Y156206D01*
X924082Y156200D01*
X924079Y156195D01*
X924463Y155167D01*
X924469Y155162D01*
X924468Y155157D01*
X925070Y154240D01*
X925078Y154237D01*
X925077Y154231D01*
X925869Y153471D01*
X925877Y153470D01*
X925878Y153464D01*
X926819Y152900D01*
X926827Y152901D01*
X926829Y152895D01*
X927872Y152554D01*
X927880Y152556D01*
X927883Y152552D01*
X928976Y152451D01*
X928978Y152453D01*
X928980Y152451D01*
X934980Y152451D01*
X934983Y152453D01*
G37*
G36*
X15503Y1087173D02*
X15503Y1087173D01*
X15505Y1087171D01*
X16597Y1087272D01*
X16603Y1087277D01*
X16608Y1087274D01*
X17651Y1087615D01*
X17656Y1087622D01*
X17661Y1087620D01*
X18602Y1088184D01*
X18605Y1088192D01*
X18611Y1088191D01*
X19403Y1088951D01*
X19404Y1088959D01*
X19410Y1088960D01*
X20013Y1089877D01*
X20012Y1089885D01*
X20018Y1089887D01*
X20401Y1090915D01*
X20399Y1090923D01*
X20404Y1090926D01*
X20549Y1092014D01*
X20545Y1092021D01*
X20549Y1092025D01*
X20443Y1093162D01*
X20438Y1093168D01*
X20441Y1093173D01*
X20085Y1094258D01*
X20078Y1094263D01*
X20081Y1094268D01*
X19492Y1095247D01*
X19484Y1095250D01*
X19485Y1095256D01*
X18693Y1096079D01*
X18685Y1096080D01*
X18685Y1096086D01*
X17730Y1096713D01*
X17722Y1096712D01*
X17720Y1096718D01*
X16650Y1097116D01*
X16642Y1097114D01*
X16639Y1097119D01*
X15506Y1097269D01*
X15503Y1097267D01*
X15502Y1097267D01*
X15500Y1097269D01*
X9500Y1097269D01*
X9497Y1097267D01*
X9495Y1097267D01*
X9494Y1097269D01*
X8361Y1097119D01*
X8355Y1097113D01*
X8350Y1097116D01*
X7280Y1096718D01*
X7276Y1096711D01*
X7270Y1096713D01*
X6315Y1096086D01*
X6312Y1096078D01*
X6307Y1096079D01*
X5515Y1095256D01*
X5514Y1095248D01*
X5508Y1095247D01*
X4919Y1094268D01*
X4920Y1094260D01*
X4915Y1094258D01*
X4559Y1093173D01*
X4562Y1093165D01*
X4557Y1093162D01*
X4451Y1092025D01*
X4455Y1092018D01*
X4451Y1092014D01*
X4596Y1090926D01*
X4602Y1090920D01*
X4599Y1090915D01*
X4983Y1089887D01*
X4989Y1089882D01*
X4988Y1089877D01*
X5590Y1088960D01*
X5598Y1088957D01*
X5597Y1088951D01*
X6389Y1088191D01*
X6397Y1088190D01*
X6398Y1088184D01*
X7339Y1087620D01*
X7347Y1087621D01*
X7349Y1087615D01*
X8392Y1087274D01*
X8400Y1087276D01*
X8403Y1087272D01*
X9496Y1087171D01*
X9498Y1087173D01*
X9500Y1087171D01*
X15500Y1087171D01*
X15503Y1087173D01*
G37*
G36*
X15503Y619813D02*
X15503Y619813D01*
X15505Y619811D01*
X16597Y619912D01*
X16603Y619917D01*
X16608Y619914D01*
X17651Y620255D01*
X17656Y620262D01*
X17661Y620260D01*
X18602Y620824D01*
X18605Y620832D01*
X18611Y620831D01*
X19403Y621591D01*
X19404Y621599D01*
X19410Y621600D01*
X20013Y622517D01*
X20012Y622525D01*
X20018Y622527D01*
X20401Y623555D01*
X20399Y623563D01*
X20404Y623566D01*
X20549Y624654D01*
X20545Y624661D01*
X20549Y624665D01*
X20443Y625802D01*
X20438Y625808D01*
X20441Y625813D01*
X20085Y626898D01*
X20078Y626903D01*
X20081Y626908D01*
X19492Y627887D01*
X19484Y627890D01*
X19485Y627896D01*
X18693Y628719D01*
X18685Y628720D01*
X18685Y628726D01*
X17730Y629353D01*
X17722Y629352D01*
X17720Y629358D01*
X16650Y629756D01*
X16642Y629754D01*
X16639Y629759D01*
X15506Y629909D01*
X15503Y629907D01*
X15502Y629907D01*
X15500Y629909D01*
X9500Y629909D01*
X9497Y629907D01*
X9495Y629907D01*
X9494Y629909D01*
X8361Y629759D01*
X8355Y629753D01*
X8350Y629756D01*
X7280Y629358D01*
X7276Y629351D01*
X7270Y629353D01*
X6315Y628726D01*
X6312Y628718D01*
X6307Y628719D01*
X5515Y627896D01*
X5514Y627888D01*
X5508Y627887D01*
X4919Y626908D01*
X4920Y626900D01*
X4915Y626898D01*
X4559Y625813D01*
X4562Y625805D01*
X4557Y625802D01*
X4451Y624665D01*
X4455Y624658D01*
X4451Y624654D01*
X4596Y623566D01*
X4602Y623560D01*
X4599Y623555D01*
X4983Y622527D01*
X4989Y622522D01*
X4988Y622517D01*
X5590Y621600D01*
X5598Y621597D01*
X5597Y621591D01*
X6389Y620831D01*
X6397Y620830D01*
X6398Y620824D01*
X7339Y620260D01*
X7347Y620261D01*
X7349Y620255D01*
X8392Y619914D01*
X8400Y619916D01*
X8403Y619912D01*
X9496Y619811D01*
X9498Y619813D01*
X9500Y619811D01*
X15500Y619811D01*
X15503Y619813D01*
G37*
G36*
X934983Y619813D02*
X934983Y619813D01*
X934985Y619811D01*
X936077Y619912D01*
X936083Y619917D01*
X936088Y619914D01*
X937131Y620255D01*
X937136Y620262D01*
X937141Y620260D01*
X938082Y620824D01*
X938085Y620832D01*
X938091Y620831D01*
X938883Y621591D01*
X938884Y621599D01*
X938890Y621600D01*
X939493Y622517D01*
X939492Y622525D01*
X939498Y622527D01*
X939881Y623555D01*
X939879Y623563D01*
X939884Y623566D01*
X940029Y624654D01*
X940025Y624661D01*
X940029Y624665D01*
X939923Y625802D01*
X939918Y625808D01*
X939921Y625813D01*
X939565Y626898D01*
X939558Y626903D01*
X939561Y626908D01*
X938972Y627887D01*
X938964Y627890D01*
X938965Y627896D01*
X938173Y628719D01*
X938165Y628720D01*
X938165Y628726D01*
X937210Y629353D01*
X937202Y629352D01*
X937200Y629358D01*
X936130Y629756D01*
X936122Y629754D01*
X936119Y629759D01*
X934986Y629909D01*
X934983Y629907D01*
X934982Y629907D01*
X934980Y629909D01*
X928980Y629909D01*
X928977Y629907D01*
X928975Y629907D01*
X928974Y629909D01*
X927841Y629759D01*
X927835Y629753D01*
X927830Y629756D01*
X926760Y629358D01*
X926756Y629351D01*
X926750Y629353D01*
X925795Y628726D01*
X925792Y628718D01*
X925787Y628719D01*
X924995Y627896D01*
X924994Y627888D01*
X924988Y627887D01*
X924399Y626908D01*
X924400Y626900D01*
X924395Y626898D01*
X924039Y625813D01*
X924042Y625805D01*
X924037Y625802D01*
X923931Y624665D01*
X923935Y624658D01*
X923931Y624654D01*
X924076Y623566D01*
X924082Y623560D01*
X924079Y623555D01*
X924463Y622527D01*
X924469Y622522D01*
X924468Y622517D01*
X925070Y621600D01*
X925078Y621597D01*
X925077Y621591D01*
X925869Y620831D01*
X925877Y620830D01*
X925878Y620824D01*
X926819Y620260D01*
X926827Y620261D01*
X926829Y620255D01*
X927872Y619914D01*
X927880Y619916D01*
X927883Y619912D01*
X928976Y619811D01*
X928978Y619813D01*
X928980Y619811D01*
X934980Y619811D01*
X934983Y619813D01*
G37*
G36*
X15503Y386133D02*
X15503Y386133D01*
X15505Y386131D01*
X16597Y386232D01*
X16603Y386237D01*
X16608Y386234D01*
X17651Y386575D01*
X17656Y386582D01*
X17661Y386580D01*
X18602Y387144D01*
X18605Y387152D01*
X18611Y387151D01*
X19403Y387911D01*
X19404Y387919D01*
X19410Y387920D01*
X20013Y388837D01*
X20012Y388845D01*
X20018Y388847D01*
X20401Y389875D01*
X20399Y389883D01*
X20404Y389886D01*
X20549Y390974D01*
X20545Y390981D01*
X20549Y390985D01*
X20443Y392122D01*
X20438Y392128D01*
X20441Y392133D01*
X20085Y393218D01*
X20078Y393223D01*
X20081Y393228D01*
X19492Y394207D01*
X19484Y394210D01*
X19485Y394216D01*
X18693Y395039D01*
X18685Y395040D01*
X18685Y395046D01*
X17730Y395673D01*
X17722Y395672D01*
X17720Y395678D01*
X16650Y396076D01*
X16642Y396074D01*
X16639Y396079D01*
X15506Y396229D01*
X15503Y396227D01*
X15502Y396227D01*
X15500Y396229D01*
X9500Y396229D01*
X9497Y396227D01*
X9495Y396227D01*
X9494Y396229D01*
X8361Y396079D01*
X8355Y396073D01*
X8350Y396076D01*
X7280Y395678D01*
X7276Y395671D01*
X7270Y395673D01*
X6315Y395046D01*
X6312Y395038D01*
X6307Y395039D01*
X5515Y394216D01*
X5514Y394208D01*
X5508Y394207D01*
X4919Y393228D01*
X4920Y393220D01*
X4915Y393218D01*
X4559Y392133D01*
X4562Y392125D01*
X4557Y392122D01*
X4451Y390985D01*
X4455Y390978D01*
X4451Y390974D01*
X4596Y389886D01*
X4602Y389880D01*
X4599Y389875D01*
X4983Y388847D01*
X4989Y388842D01*
X4988Y388837D01*
X5590Y387920D01*
X5598Y387917D01*
X5597Y387911D01*
X6389Y387151D01*
X6397Y387150D01*
X6398Y387144D01*
X7339Y386580D01*
X7347Y386581D01*
X7349Y386575D01*
X8392Y386234D01*
X8400Y386236D01*
X8403Y386232D01*
X9496Y386131D01*
X9498Y386133D01*
X9500Y386131D01*
X15500Y386131D01*
X15503Y386133D01*
G37*
D10*
X243840Y160900D03*
X243840Y143900D03*
D11*
X110100Y88900D03*
X93100Y88900D03*
D12*
X60900Y14050D03*
X116900Y14050D03*
D13*
X73900Y50800D03*
X83900Y50800D03*
X93900Y50800D03*
X103900Y50800D03*
D14*
X615400Y10800D03*
X615400Y217800D03*
D15*
X683150Y204300D03*
X683150Y194300D03*
X683150Y189300D03*
X683150Y199300D03*
X683150Y184300D03*
X683150Y174300D03*
X683150Y169300D03*
X683150Y179300D03*
X683150Y164300D03*
X683150Y154300D03*
X683150Y149300D03*
X683150Y159300D03*
X683150Y144300D03*
X683150Y134300D03*
X683150Y129300D03*
X683150Y139300D03*
X683150Y124300D03*
X683150Y114300D03*
X683150Y109300D03*
X683150Y119300D03*
X683150Y104300D03*
X683150Y99300D03*
X683150Y74300D03*
X683150Y69300D03*
X683150Y64300D03*
X683150Y54300D03*
X683150Y49300D03*
X683150Y59300D03*
X683150Y44300D03*
X683150Y34300D03*
X683150Y29300D03*
X683150Y39300D03*
X683150Y24300D03*
X607650Y206800D03*
X607650Y196800D03*
X607650Y191800D03*
X607650Y201800D03*
X607650Y186800D03*
X607650Y176800D03*
X607650Y171800D03*
X607650Y181800D03*
X607650Y166800D03*
X607650Y156800D03*
X607650Y151800D03*
X607650Y161800D03*
X607650Y146800D03*
X607650Y136800D03*
X607650Y131800D03*
X607650Y141800D03*
X607650Y126800D03*
X607650Y116800D03*
X607650Y111800D03*
X607650Y121800D03*
X607650Y106800D03*
X607650Y101800D03*
X607650Y76800D03*
X607650Y71800D03*
X607650Y66800D03*
X607650Y56800D03*
X607650Y51800D03*
X607650Y61800D03*
X607650Y46800D03*
X607650Y36800D03*
X607650Y31800D03*
X607650Y41800D03*
X607650Y26800D03*
X607650Y21800D03*
D10*
X289560Y160900D03*
X289560Y143900D03*
X393700Y93100D03*
X393700Y110100D03*
X368300Y93100D03*
X368300Y110100D03*
X444500Y110100D03*
X444500Y93100D03*
D16*
X411600Y91413D03*
X416600Y111788D03*
X411600Y111788D03*
X421600Y111788D03*
X426600Y111788D03*
X416600Y91413D03*
X421600Y91413D03*
X426600Y91413D03*
D17*
X422500Y101600D03*
X415700Y101600D03*
D18*
X123800Y152701D03*
X114300Y152701D03*
X104800Y152701D03*
X104800Y126699D03*
X123800Y126699D03*
D10*
X304800Y160900D03*
X304800Y143900D03*
X274320Y160900D03*
X274320Y143900D03*
X259080Y143900D03*
X259080Y160900D03*
D19*
X330200Y101600D03*
D20*
X320450Y87850D03*
X326950Y87850D03*
X333450Y87850D03*
X339950Y87850D03*
X339950Y115350D03*
X333450Y115350D03*
X326950Y115350D03*
X320450Y115350D03*
D10*
X292100Y93100D03*
X292100Y110100D03*
X335280Y143900D03*
X335280Y160900D03*
X320040Y143900D03*
X320040Y160900D03*
D21*
X386270Y155900D02*
X386270Y148900D01*
X386270Y155900D02*
X393270Y155900D01*
X393270Y148900D01*
X386270Y148900D01*
X386270Y151750D02*
X393270Y151750D01*
X393270Y154600D02*
X386270Y154600D01*
X368730Y155900D02*
X368730Y148900D01*
X368730Y155900D02*
X375730Y155900D01*
X375730Y148900D01*
X368730Y148900D01*
X368730Y151750D02*
X375730Y151750D01*
X375730Y154600D02*
X368730Y154600D01*
X437070Y155900D02*
X437070Y148900D01*
X437070Y155900D02*
X444070Y155900D01*
X444070Y148900D01*
X437070Y148900D01*
X437070Y151750D02*
X444070Y151750D01*
X444070Y154600D02*
X437070Y154600D01*
X419530Y155900D02*
X419530Y148900D01*
X419530Y155900D02*
X426530Y155900D01*
X426530Y148900D01*
X419530Y148900D01*
X419530Y151750D02*
X426530Y151750D01*
X426530Y154600D02*
X419530Y154600D01*
D22*
X480060Y158750D03*
X535940Y158750D03*
X480060Y120650D03*
X535940Y120650D03*
D23*
X60100Y106800D03*
X60100Y111800D03*
D24*
X60100Y82050D03*
X60100Y89800D03*
D23*
X60100Y96800D03*
X60100Y101800D03*
X60100Y121800D03*
X60100Y116800D03*
D24*
X60100Y146550D03*
X60100Y138800D03*
D23*
X60100Y131800D03*
X60100Y126800D03*
D18*
X225400Y114601D03*
X215900Y114601D03*
X206400Y114601D03*
X206400Y88599D03*
X225400Y88599D03*
D10*
X228600Y160900D03*
X228600Y143900D03*
X271780Y110100D03*
X271780Y93100D03*
D21*
X260040Y96330D02*
X253040Y96330D01*
X260040Y96330D02*
X260040Y89330D01*
X253040Y89330D01*
X253040Y96330D01*
X253040Y92180D02*
X260040Y92180D01*
X260040Y95030D02*
X253040Y95030D01*
X253040Y113870D02*
X260040Y113870D01*
X260040Y106870D01*
X253040Y106870D01*
X253040Y113870D01*
X253040Y109720D02*
X260040Y109720D01*
X260040Y112570D02*
X253040Y112570D01*
D10*
X241300Y110100D03*
X241300Y93100D03*
D25*
X167800Y153500D03*
X187800Y153500D03*
D26*
X143800Y205500D03*
X211800Y205500D03*
D22*
X480060Y102870D03*
X535940Y102870D03*
X480060Y64770D03*
X535940Y64770D03*
D27*
X104140Y217240D03*
X104140Y194240D03*
X121920Y217240D03*
X121920Y194240D03*
D10*
X1163320Y160900D03*
X1163320Y143900D03*
D11*
X1029580Y88900D03*
X1012580Y88900D03*
D12*
X980380Y14050D03*
X1036380Y14050D03*
D13*
X993380Y50800D03*
X1003380Y50800D03*
X1013380Y50800D03*
X1023380Y50800D03*
D14*
X1534880Y10800D03*
X1534880Y217800D03*
D15*
X1602630Y204300D03*
X1602630Y194300D03*
X1602630Y189300D03*
X1602630Y199300D03*
X1602630Y184300D03*
X1602630Y174300D03*
X1602630Y169300D03*
X1602630Y179300D03*
X1602630Y164300D03*
X1602630Y154300D03*
X1602630Y149300D03*
X1602630Y159300D03*
X1602630Y144300D03*
X1602630Y134300D03*
X1602630Y129300D03*
X1602630Y139300D03*
X1602630Y124300D03*
X1602630Y114300D03*
X1602630Y109300D03*
X1602630Y119300D03*
X1602630Y104300D03*
X1602630Y99300D03*
X1602630Y74300D03*
X1602630Y69300D03*
X1602630Y64300D03*
X1602630Y54300D03*
X1602630Y49300D03*
X1602630Y59300D03*
X1602630Y44300D03*
X1602630Y34300D03*
X1602630Y29300D03*
X1602630Y39300D03*
X1602630Y24300D03*
X1527130Y206800D03*
X1527130Y196800D03*
X1527130Y191800D03*
X1527130Y201800D03*
X1527130Y186800D03*
X1527130Y176800D03*
X1527130Y171800D03*
X1527130Y181800D03*
X1527130Y166800D03*
X1527130Y156800D03*
X1527130Y151800D03*
X1527130Y161800D03*
X1527130Y146800D03*
X1527130Y136800D03*
X1527130Y131800D03*
X1527130Y141800D03*
X1527130Y126800D03*
X1527130Y116800D03*
X1527130Y111800D03*
X1527130Y121800D03*
X1527130Y106800D03*
X1527130Y101800D03*
X1527130Y76800D03*
X1527130Y71800D03*
X1527130Y66800D03*
X1527130Y56800D03*
X1527130Y51800D03*
X1527130Y61800D03*
X1527130Y46800D03*
X1527130Y36800D03*
X1527130Y31800D03*
X1527130Y41800D03*
X1527130Y26800D03*
X1527130Y21800D03*
D10*
X1209040Y160900D03*
X1209040Y143900D03*
X1313180Y93100D03*
X1313180Y110100D03*
X1287780Y93100D03*
X1287780Y110100D03*
X1363980Y110100D03*
X1363980Y93100D03*
D16*
X1331080Y91413D03*
X1336080Y111788D03*
X1331080Y111788D03*
X1341080Y111788D03*
X1346080Y111788D03*
X1336080Y91413D03*
X1341080Y91413D03*
X1346080Y91413D03*
D17*
X1341980Y101600D03*
X1335180Y101600D03*
D18*
X1043280Y152701D03*
X1033780Y152701D03*
X1024280Y152701D03*
X1024280Y126699D03*
X1043280Y126699D03*
D10*
X1224280Y160900D03*
X1224280Y143900D03*
X1193800Y160900D03*
X1193800Y143900D03*
X1178560Y143900D03*
X1178560Y160900D03*
D19*
X1249680Y101600D03*
D20*
X1239930Y87850D03*
X1246430Y87850D03*
X1252930Y87850D03*
X1259430Y87850D03*
X1259430Y115350D03*
X1252930Y115350D03*
X1246430Y115350D03*
X1239930Y115350D03*
D10*
X1211580Y93100D03*
X1211580Y110100D03*
X1254760Y143900D03*
X1254760Y160900D03*
X1239520Y143900D03*
X1239520Y160900D03*
D21*
X1305750Y155900D02*
X1305750Y148900D01*
X1305750Y155900D02*
X1312750Y155900D01*
X1312750Y148900D01*
X1305750Y148900D01*
X1305750Y151750D02*
X1312750Y151750D01*
X1312750Y154600D02*
X1305750Y154600D01*
X1288210Y155900D02*
X1288210Y148900D01*
X1288210Y155900D02*
X1295210Y155900D01*
X1295210Y148900D01*
X1288210Y148900D01*
X1288210Y151750D02*
X1295210Y151750D01*
X1295210Y154600D02*
X1288210Y154600D01*
X1356550Y155900D02*
X1356550Y148900D01*
X1356550Y155900D02*
X1363550Y155900D01*
X1363550Y148900D01*
X1356550Y148900D01*
X1356550Y151750D02*
X1363550Y151750D01*
X1363550Y154600D02*
X1356550Y154600D01*
X1339010Y155900D02*
X1339010Y148900D01*
X1339010Y155900D02*
X1346010Y155900D01*
X1346010Y148900D01*
X1339010Y148900D01*
X1339010Y151750D02*
X1346010Y151750D01*
X1346010Y154600D02*
X1339010Y154600D01*
D22*
X1399540Y158750D03*
X1455420Y158750D03*
X1399540Y120650D03*
X1455420Y120650D03*
D23*
X979580Y106800D03*
X979580Y111800D03*
D24*
X979580Y82050D03*
X979580Y89800D03*
D23*
X979580Y96800D03*
X979580Y101800D03*
X979580Y121800D03*
X979580Y116800D03*
D24*
X979580Y146550D03*
X979580Y138800D03*
D23*
X979580Y131800D03*
X979580Y126800D03*
D18*
X1144880Y114601D03*
X1135380Y114601D03*
X1125880Y114601D03*
X1125880Y88599D03*
X1144880Y88599D03*
D10*
X1148080Y160900D03*
X1148080Y143900D03*
X1191260Y110100D03*
X1191260Y93100D03*
D21*
X1179520Y96330D02*
X1172520Y96330D01*
X1179520Y96330D02*
X1179520Y89330D01*
X1172520Y89330D01*
X1172520Y96330D01*
X1172520Y92180D02*
X1179520Y92180D01*
X1179520Y95030D02*
X1172520Y95030D01*
X1172520Y113870D02*
X1179520Y113870D01*
X1179520Y106870D01*
X1172520Y106870D01*
X1172520Y113870D01*
X1172520Y109720D02*
X1179520Y109720D01*
X1179520Y112570D02*
X1172520Y112570D01*
D10*
X1160780Y110100D03*
X1160780Y93100D03*
D25*
X1087280Y153500D03*
X1107280Y153500D03*
D26*
X1063280Y205500D03*
X1131280Y205500D03*
D22*
X1399540Y102870D03*
X1455420Y102870D03*
X1399540Y64770D03*
X1455420Y64770D03*
D27*
X1023620Y217240D03*
X1023620Y194240D03*
X1041400Y217240D03*
X1041400Y194240D03*
D10*
X243840Y394580D03*
X243840Y377580D03*
D11*
X110100Y322580D03*
X93100Y322580D03*
D12*
X60900Y247730D03*
X116900Y247730D03*
D13*
X73900Y284480D03*
X83900Y284480D03*
X93900Y284480D03*
X103900Y284480D03*
D14*
X615400Y244480D03*
X615400Y451480D03*
D15*
X683150Y437980D03*
X683150Y427980D03*
X683150Y422980D03*
X683150Y432980D03*
X683150Y417980D03*
X683150Y407980D03*
X683150Y402980D03*
X683150Y412980D03*
X683150Y397980D03*
X683150Y387980D03*
X683150Y382980D03*
X683150Y392980D03*
X683150Y377980D03*
X683150Y367980D03*
X683150Y362980D03*
X683150Y372980D03*
X683150Y357980D03*
X683150Y347980D03*
X683150Y342980D03*
X683150Y352980D03*
X683150Y337980D03*
X683150Y332980D03*
X683150Y307980D03*
X683150Y302980D03*
X683150Y297980D03*
X683150Y287980D03*
X683150Y282980D03*
X683150Y292980D03*
X683150Y277980D03*
X683150Y267980D03*
X683150Y262980D03*
X683150Y272980D03*
X683150Y257980D03*
X607650Y440480D03*
X607650Y430480D03*
X607650Y425480D03*
X607650Y435480D03*
X607650Y420480D03*
X607650Y410480D03*
X607650Y405480D03*
X607650Y415480D03*
X607650Y400480D03*
X607650Y390480D03*
X607650Y385480D03*
X607650Y395480D03*
X607650Y380480D03*
X607650Y370480D03*
X607650Y365480D03*
X607650Y375480D03*
X607650Y360480D03*
X607650Y350480D03*
X607650Y345480D03*
X607650Y355480D03*
X607650Y340480D03*
X607650Y335480D03*
X607650Y310480D03*
X607650Y305480D03*
X607650Y300480D03*
X607650Y290480D03*
X607650Y285480D03*
X607650Y295480D03*
X607650Y280480D03*
X607650Y270480D03*
X607650Y265480D03*
X607650Y275480D03*
X607650Y260480D03*
X607650Y255480D03*
D10*
X289560Y394580D03*
X289560Y377580D03*
X393700Y326780D03*
X393700Y343780D03*
X368300Y326780D03*
X368300Y343780D03*
X444500Y343780D03*
X444500Y326780D03*
D16*
X411600Y325093D03*
X416600Y345468D03*
X411600Y345468D03*
X421600Y345468D03*
X426600Y345468D03*
X416600Y325093D03*
X421600Y325093D03*
X426600Y325093D03*
D17*
X422500Y335280D03*
X415700Y335280D03*
D18*
X123800Y386381D03*
X114300Y386381D03*
X104800Y386381D03*
X104800Y360379D03*
X123800Y360379D03*
D10*
X304800Y394580D03*
X304800Y377580D03*
X274320Y394580D03*
X274320Y377580D03*
X259080Y377580D03*
X259080Y394580D03*
D19*
X330200Y335280D03*
D20*
X320450Y321530D03*
X326950Y321530D03*
X333450Y321530D03*
X339950Y321530D03*
X339950Y349030D03*
X333450Y349030D03*
X326950Y349030D03*
X320450Y349030D03*
D10*
X292100Y326780D03*
X292100Y343780D03*
X335280Y377580D03*
X335280Y394580D03*
X320040Y377580D03*
X320040Y394580D03*
D21*
X386270Y389580D02*
X386270Y382580D01*
X386270Y389580D02*
X393270Y389580D01*
X393270Y382580D01*
X386270Y382580D01*
X386270Y385430D02*
X393270Y385430D01*
X393270Y388280D02*
X386270Y388280D01*
X368730Y389580D02*
X368730Y382580D01*
X368730Y389580D02*
X375730Y389580D01*
X375730Y382580D01*
X368730Y382580D01*
X368730Y385430D02*
X375730Y385430D01*
X375730Y388280D02*
X368730Y388280D01*
X437070Y389580D02*
X437070Y382580D01*
X437070Y389580D02*
X444070Y389580D01*
X444070Y382580D01*
X437070Y382580D01*
X437070Y385430D02*
X444070Y385430D01*
X444070Y388280D02*
X437070Y388280D01*
X419530Y389580D02*
X419530Y382580D01*
X419530Y389580D02*
X426530Y389580D01*
X426530Y382580D01*
X419530Y382580D01*
X419530Y385430D02*
X426530Y385430D01*
X426530Y388280D02*
X419530Y388280D01*
D22*
X480060Y392430D03*
X535940Y392430D03*
X480060Y354330D03*
X535940Y354330D03*
D23*
X60100Y340480D03*
X60100Y345480D03*
D24*
X60100Y315730D03*
X60100Y323480D03*
D23*
X60100Y330480D03*
X60100Y335480D03*
X60100Y355480D03*
X60100Y350480D03*
D24*
X60100Y380230D03*
X60100Y372480D03*
D23*
X60100Y365480D03*
X60100Y360480D03*
D18*
X225400Y348281D03*
X215900Y348281D03*
X206400Y348281D03*
X206400Y322279D03*
X225400Y322279D03*
D10*
X228600Y394580D03*
X228600Y377580D03*
X271780Y343780D03*
X271780Y326780D03*
D21*
X260040Y330010D02*
X253040Y330010D01*
X260040Y330010D02*
X260040Y323010D01*
X253040Y323010D01*
X253040Y330010D01*
X253040Y325860D02*
X260040Y325860D01*
X260040Y328710D02*
X253040Y328710D01*
X253040Y347550D02*
X260040Y347550D01*
X260040Y340550D01*
X253040Y340550D01*
X253040Y347550D01*
X253040Y343400D02*
X260040Y343400D01*
X260040Y346250D02*
X253040Y346250D01*
D10*
X241300Y343780D03*
X241300Y326780D03*
D25*
X167800Y387180D03*
X187800Y387180D03*
D26*
X143800Y439180D03*
X211800Y439180D03*
D22*
X480060Y336550D03*
X535940Y336550D03*
X480060Y298450D03*
X535940Y298450D03*
D27*
X104140Y450920D03*
X104140Y427920D03*
X121920Y450920D03*
X121920Y427920D03*
D10*
X1163320Y394580D03*
X1163320Y377580D03*
D11*
X1029580Y322580D03*
X1012580Y322580D03*
D12*
X980380Y247730D03*
X1036380Y247730D03*
D13*
X993380Y284480D03*
X1003380Y284480D03*
X1013380Y284480D03*
X1023380Y284480D03*
D14*
X1534880Y244480D03*
X1534880Y451480D03*
D15*
X1602630Y437980D03*
X1602630Y427980D03*
X1602630Y422980D03*
X1602630Y432980D03*
X1602630Y417980D03*
X1602630Y407980D03*
X1602630Y402980D03*
X1602630Y412980D03*
X1602630Y397980D03*
X1602630Y387980D03*
X1602630Y382980D03*
X1602630Y392980D03*
X1602630Y377980D03*
X1602630Y367980D03*
X1602630Y362980D03*
X1602630Y372980D03*
X1602630Y357980D03*
X1602630Y347980D03*
X1602630Y342980D03*
X1602630Y352980D03*
X1602630Y337980D03*
X1602630Y332980D03*
X1602630Y307980D03*
X1602630Y302980D03*
X1602630Y297980D03*
X1602630Y287980D03*
X1602630Y282980D03*
X1602630Y292980D03*
X1602630Y277980D03*
X1602630Y267980D03*
X1602630Y262980D03*
X1602630Y272980D03*
X1602630Y257980D03*
X1527130Y440480D03*
X1527130Y430480D03*
X1527130Y425480D03*
X1527130Y435480D03*
X1527130Y420480D03*
X1527130Y410480D03*
X1527130Y405480D03*
X1527130Y415480D03*
X1527130Y400480D03*
X1527130Y390480D03*
X1527130Y385480D03*
X1527130Y395480D03*
X1527130Y380480D03*
X1527130Y370480D03*
X1527130Y365480D03*
X1527130Y375480D03*
X1527130Y360480D03*
X1527130Y350480D03*
X1527130Y345480D03*
X1527130Y355480D03*
X1527130Y340480D03*
X1527130Y335480D03*
X1527130Y310480D03*
X1527130Y305480D03*
X1527130Y300480D03*
X1527130Y290480D03*
X1527130Y285480D03*
X1527130Y295480D03*
X1527130Y280480D03*
X1527130Y270480D03*
X1527130Y265480D03*
X1527130Y275480D03*
X1527130Y260480D03*
X1527130Y255480D03*
D10*
X1209040Y394580D03*
X1209040Y377580D03*
X1313180Y326780D03*
X1313180Y343780D03*
X1287780Y326780D03*
X1287780Y343780D03*
X1363980Y343780D03*
X1363980Y326780D03*
D16*
X1331080Y325093D03*
X1336080Y345468D03*
X1331080Y345468D03*
X1341080Y345468D03*
X1346080Y345468D03*
X1336080Y325093D03*
X1341080Y325093D03*
X1346080Y325093D03*
D17*
X1341980Y335280D03*
X1335180Y335280D03*
D18*
X1043280Y386381D03*
X1033780Y386381D03*
X1024280Y386381D03*
X1024280Y360379D03*
X1043280Y360379D03*
D10*
X1224280Y394580D03*
X1224280Y377580D03*
X1193800Y394580D03*
X1193800Y377580D03*
X1178560Y377580D03*
X1178560Y394580D03*
D19*
X1249680Y335280D03*
D20*
X1239930Y321530D03*
X1246430Y321530D03*
X1252930Y321530D03*
X1259430Y321530D03*
X1259430Y349030D03*
X1252930Y349030D03*
X1246430Y349030D03*
X1239930Y349030D03*
D10*
X1211580Y326780D03*
X1211580Y343780D03*
X1254760Y377580D03*
X1254760Y394580D03*
X1239520Y377580D03*
X1239520Y394580D03*
D21*
X1305750Y389580D02*
X1305750Y382580D01*
X1305750Y389580D02*
X1312750Y389580D01*
X1312750Y382580D01*
X1305750Y382580D01*
X1305750Y385430D02*
X1312750Y385430D01*
X1312750Y388280D02*
X1305750Y388280D01*
X1288210Y389580D02*
X1288210Y382580D01*
X1288210Y389580D02*
X1295210Y389580D01*
X1295210Y382580D01*
X1288210Y382580D01*
X1288210Y385430D02*
X1295210Y385430D01*
X1295210Y388280D02*
X1288210Y388280D01*
X1356550Y389580D02*
X1356550Y382580D01*
X1356550Y389580D02*
X1363550Y389580D01*
X1363550Y382580D01*
X1356550Y382580D01*
X1356550Y385430D02*
X1363550Y385430D01*
X1363550Y388280D02*
X1356550Y388280D01*
X1339010Y389580D02*
X1339010Y382580D01*
X1339010Y389580D02*
X1346010Y389580D01*
X1346010Y382580D01*
X1339010Y382580D01*
X1339010Y385430D02*
X1346010Y385430D01*
X1346010Y388280D02*
X1339010Y388280D01*
D22*
X1399540Y392430D03*
X1455420Y392430D03*
X1399540Y354330D03*
X1455420Y354330D03*
D23*
X979580Y340480D03*
X979580Y345480D03*
D24*
X979580Y315730D03*
X979580Y323480D03*
D23*
X979580Y330480D03*
X979580Y335480D03*
X979580Y355480D03*
X979580Y350480D03*
D24*
X979580Y380230D03*
X979580Y372480D03*
D23*
X979580Y365480D03*
X979580Y360480D03*
D18*
X1144880Y348281D03*
X1135380Y348281D03*
X1125880Y348281D03*
X1125880Y322279D03*
X1144880Y322279D03*
D10*
X1148080Y394580D03*
X1148080Y377580D03*
X1191260Y343780D03*
X1191260Y326780D03*
D21*
X1179520Y330010D02*
X1172520Y330010D01*
X1179520Y330010D02*
X1179520Y323010D01*
X1172520Y323010D01*
X1172520Y330010D01*
X1172520Y325860D02*
X1179520Y325860D01*
X1179520Y328710D02*
X1172520Y328710D01*
X1172520Y347550D02*
X1179520Y347550D01*
X1179520Y340550D01*
X1172520Y340550D01*
X1172520Y347550D01*
X1172520Y343400D02*
X1179520Y343400D01*
X1179520Y346250D02*
X1172520Y346250D01*
D10*
X1160780Y343780D03*
X1160780Y326780D03*
D25*
X1087280Y387180D03*
X1107280Y387180D03*
D26*
X1063280Y439180D03*
X1131280Y439180D03*
D22*
X1399540Y336550D03*
X1455420Y336550D03*
X1399540Y298450D03*
X1455420Y298450D03*
D27*
X1023620Y450920D03*
X1023620Y427920D03*
X1041400Y450920D03*
X1041400Y427920D03*
D10*
X243840Y628260D03*
X243840Y611260D03*
D11*
X110100Y556260D03*
X93100Y556260D03*
D12*
X60900Y481410D03*
X116900Y481410D03*
D13*
X73900Y518160D03*
X83900Y518160D03*
X93900Y518160D03*
X103900Y518160D03*
D14*
X615400Y478160D03*
X615400Y685160D03*
D15*
X683150Y671660D03*
X683150Y661660D03*
X683150Y656660D03*
X683150Y666660D03*
X683150Y651660D03*
X683150Y641660D03*
X683150Y636660D03*
X683150Y646660D03*
X683150Y631660D03*
X683150Y621660D03*
X683150Y616660D03*
X683150Y626660D03*
X683150Y611660D03*
X683150Y601660D03*
X683150Y596660D03*
X683150Y606660D03*
X683150Y591660D03*
X683150Y581660D03*
X683150Y576660D03*
X683150Y586660D03*
X683150Y571660D03*
X683150Y566660D03*
X683150Y541660D03*
X683150Y536660D03*
X683150Y531660D03*
X683150Y521660D03*
X683150Y516660D03*
X683150Y526660D03*
X683150Y511660D03*
X683150Y501660D03*
X683150Y496660D03*
X683150Y506660D03*
X683150Y491660D03*
X607650Y674160D03*
X607650Y664160D03*
X607650Y659160D03*
X607650Y669160D03*
X607650Y654160D03*
X607650Y644160D03*
X607650Y639160D03*
X607650Y649160D03*
X607650Y634160D03*
X607650Y624160D03*
X607650Y619160D03*
X607650Y629160D03*
X607650Y614160D03*
X607650Y604160D03*
X607650Y599160D03*
X607650Y609160D03*
X607650Y594160D03*
X607650Y584160D03*
X607650Y579160D03*
X607650Y589160D03*
X607650Y574160D03*
X607650Y569160D03*
X607650Y544160D03*
X607650Y539160D03*
X607650Y534160D03*
X607650Y524160D03*
X607650Y519160D03*
X607650Y529160D03*
X607650Y514160D03*
X607650Y504160D03*
X607650Y499160D03*
X607650Y509160D03*
X607650Y494160D03*
X607650Y489160D03*
D10*
X289560Y628260D03*
X289560Y611260D03*
X393700Y560460D03*
X393700Y577460D03*
X368300Y560460D03*
X368300Y577460D03*
X444500Y577460D03*
X444500Y560460D03*
D16*
X411600Y558773D03*
X416600Y579148D03*
X411600Y579148D03*
X421600Y579148D03*
X426600Y579148D03*
X416600Y558773D03*
X421600Y558773D03*
X426600Y558773D03*
D17*
X422500Y568960D03*
X415700Y568960D03*
D18*
X123800Y620061D03*
X114300Y620061D03*
X104800Y620061D03*
X104800Y594059D03*
X123800Y594059D03*
D10*
X304800Y628260D03*
X304800Y611260D03*
X274320Y628260D03*
X274320Y611260D03*
X259080Y611260D03*
X259080Y628260D03*
D19*
X330200Y568960D03*
D20*
X320450Y555210D03*
X326950Y555210D03*
X333450Y555210D03*
X339950Y555210D03*
X339950Y582710D03*
X333450Y582710D03*
X326950Y582710D03*
X320450Y582710D03*
D10*
X292100Y560460D03*
X292100Y577460D03*
X335280Y611260D03*
X335280Y628260D03*
X320040Y611260D03*
X320040Y628260D03*
D21*
X386270Y623260D02*
X386270Y616260D01*
X386270Y623260D02*
X393270Y623260D01*
X393270Y616260D01*
X386270Y616260D01*
X386270Y619110D02*
X393270Y619110D01*
X393270Y621960D02*
X386270Y621960D01*
X368730Y623260D02*
X368730Y616260D01*
X368730Y623260D02*
X375730Y623260D01*
X375730Y616260D01*
X368730Y616260D01*
X368730Y619110D02*
X375730Y619110D01*
X375730Y621960D02*
X368730Y621960D01*
X437070Y623260D02*
X437070Y616260D01*
X437070Y623260D02*
X444070Y623260D01*
X444070Y616260D01*
X437070Y616260D01*
X437070Y619110D02*
X444070Y619110D01*
X444070Y621960D02*
X437070Y621960D01*
X419530Y623260D02*
X419530Y616260D01*
X419530Y623260D02*
X426530Y623260D01*
X426530Y616260D01*
X419530Y616260D01*
X419530Y619110D02*
X426530Y619110D01*
X426530Y621960D02*
X419530Y621960D01*
D22*
X480060Y626110D03*
X535940Y626110D03*
X480060Y588010D03*
X535940Y588010D03*
D23*
X60100Y574160D03*
X60100Y579160D03*
D24*
X60100Y549410D03*
X60100Y557160D03*
D23*
X60100Y564160D03*
X60100Y569160D03*
X60100Y589160D03*
X60100Y584160D03*
D24*
X60100Y613910D03*
X60100Y606160D03*
D23*
X60100Y599160D03*
X60100Y594160D03*
D18*
X225400Y581961D03*
X215900Y581961D03*
X206400Y581961D03*
X206400Y555959D03*
X225400Y555959D03*
D10*
X228600Y628260D03*
X228600Y611260D03*
X271780Y577460D03*
X271780Y560460D03*
D21*
X260040Y563690D02*
X253040Y563690D01*
X260040Y563690D02*
X260040Y556690D01*
X253040Y556690D01*
X253040Y563690D01*
X253040Y559540D02*
X260040Y559540D01*
X260040Y562390D02*
X253040Y562390D01*
X253040Y581230D02*
X260040Y581230D01*
X260040Y574230D01*
X253040Y574230D01*
X253040Y581230D01*
X253040Y577080D02*
X260040Y577080D01*
X260040Y579930D02*
X253040Y579930D01*
D10*
X241300Y577460D03*
X241300Y560460D03*
D25*
X167800Y620860D03*
X187800Y620860D03*
D26*
X143800Y672860D03*
X211800Y672860D03*
D22*
X480060Y570230D03*
X535940Y570230D03*
X480060Y532130D03*
X535940Y532130D03*
D27*
X104140Y684600D03*
X104140Y661600D03*
X121920Y684600D03*
X121920Y661600D03*
D10*
X1163320Y628260D03*
X1163320Y611260D03*
D11*
X1029580Y556260D03*
X1012580Y556260D03*
D12*
X980380Y481410D03*
X1036380Y481410D03*
D13*
X993380Y518160D03*
X1003380Y518160D03*
X1013380Y518160D03*
X1023380Y518160D03*
D14*
X1534880Y478160D03*
X1534880Y685160D03*
D15*
X1602630Y671660D03*
X1602630Y661660D03*
X1602630Y656660D03*
X1602630Y666660D03*
X1602630Y651660D03*
X1602630Y641660D03*
X1602630Y636660D03*
X1602630Y646660D03*
X1602630Y631660D03*
X1602630Y621660D03*
X1602630Y616660D03*
X1602630Y626660D03*
X1602630Y611660D03*
X1602630Y601660D03*
X1602630Y596660D03*
X1602630Y606660D03*
X1602630Y591660D03*
X1602630Y581660D03*
X1602630Y576660D03*
X1602630Y586660D03*
X1602630Y571660D03*
X1602630Y566660D03*
X1602630Y541660D03*
X1602630Y536660D03*
X1602630Y531660D03*
X1602630Y521660D03*
X1602630Y516660D03*
X1602630Y526660D03*
X1602630Y511660D03*
X1602630Y501660D03*
X1602630Y496660D03*
X1602630Y506660D03*
X1602630Y491660D03*
X1527130Y674160D03*
X1527130Y664160D03*
X1527130Y659160D03*
X1527130Y669160D03*
X1527130Y654160D03*
X1527130Y644160D03*
X1527130Y639160D03*
X1527130Y649160D03*
X1527130Y634160D03*
X1527130Y624160D03*
X1527130Y619160D03*
X1527130Y629160D03*
X1527130Y614160D03*
X1527130Y604160D03*
X1527130Y599160D03*
X1527130Y609160D03*
X1527130Y594160D03*
X1527130Y584160D03*
X1527130Y579160D03*
X1527130Y589160D03*
X1527130Y574160D03*
X1527130Y569160D03*
X1527130Y544160D03*
X1527130Y539160D03*
X1527130Y534160D03*
X1527130Y524160D03*
X1527130Y519160D03*
X1527130Y529160D03*
X1527130Y514160D03*
X1527130Y504160D03*
X1527130Y499160D03*
X1527130Y509160D03*
X1527130Y494160D03*
X1527130Y489160D03*
D10*
X1209040Y628260D03*
X1209040Y611260D03*
X1313180Y560460D03*
X1313180Y577460D03*
X1287780Y560460D03*
X1287780Y577460D03*
X1363980Y577460D03*
X1363980Y560460D03*
D16*
X1331080Y558773D03*
X1336080Y579148D03*
X1331080Y579148D03*
X1341080Y579148D03*
X1346080Y579148D03*
X1336080Y558773D03*
X1341080Y558773D03*
X1346080Y558773D03*
D17*
X1341980Y568960D03*
X1335180Y568960D03*
D18*
X1043280Y620061D03*
X1033780Y620061D03*
X1024280Y620061D03*
X1024280Y594059D03*
X1043280Y594059D03*
D10*
X1224280Y628260D03*
X1224280Y611260D03*
X1193800Y628260D03*
X1193800Y611260D03*
X1178560Y611260D03*
X1178560Y628260D03*
D19*
X1249680Y568960D03*
D20*
X1239930Y555210D03*
X1246430Y555210D03*
X1252930Y555210D03*
X1259430Y555210D03*
X1259430Y582710D03*
X1252930Y582710D03*
X1246430Y582710D03*
X1239930Y582710D03*
D10*
X1211580Y560460D03*
X1211580Y577460D03*
X1254760Y611260D03*
X1254760Y628260D03*
X1239520Y611260D03*
X1239520Y628260D03*
D21*
X1305750Y623260D02*
X1305750Y616260D01*
X1305750Y623260D02*
X1312750Y623260D01*
X1312750Y616260D01*
X1305750Y616260D01*
X1305750Y619110D02*
X1312750Y619110D01*
X1312750Y621960D02*
X1305750Y621960D01*
X1288210Y623260D02*
X1288210Y616260D01*
X1288210Y623260D02*
X1295210Y623260D01*
X1295210Y616260D01*
X1288210Y616260D01*
X1288210Y619110D02*
X1295210Y619110D01*
X1295210Y621960D02*
X1288210Y621960D01*
X1356550Y623260D02*
X1356550Y616260D01*
X1356550Y623260D02*
X1363550Y623260D01*
X1363550Y616260D01*
X1356550Y616260D01*
X1356550Y619110D02*
X1363550Y619110D01*
X1363550Y621960D02*
X1356550Y621960D01*
X1339010Y623260D02*
X1339010Y616260D01*
X1339010Y623260D02*
X1346010Y623260D01*
X1346010Y616260D01*
X1339010Y616260D01*
X1339010Y619110D02*
X1346010Y619110D01*
X1346010Y621960D02*
X1339010Y621960D01*
D22*
X1399540Y626110D03*
X1455420Y626110D03*
X1399540Y588010D03*
X1455420Y588010D03*
D23*
X979580Y574160D03*
X979580Y579160D03*
D24*
X979580Y549410D03*
X979580Y557160D03*
D23*
X979580Y564160D03*
X979580Y569160D03*
X979580Y589160D03*
X979580Y584160D03*
D24*
X979580Y613910D03*
X979580Y606160D03*
D23*
X979580Y599160D03*
X979580Y594160D03*
D18*
X1144880Y581961D03*
X1135380Y581961D03*
X1125880Y581961D03*
X1125880Y555959D03*
X1144880Y555959D03*
D10*
X1148080Y628260D03*
X1148080Y611260D03*
X1191260Y577460D03*
X1191260Y560460D03*
D21*
X1179520Y563690D02*
X1172520Y563690D01*
X1179520Y563690D02*
X1179520Y556690D01*
X1172520Y556690D01*
X1172520Y563690D01*
X1172520Y559540D02*
X1179520Y559540D01*
X1179520Y562390D02*
X1172520Y562390D01*
X1172520Y581230D02*
X1179520Y581230D01*
X1179520Y574230D01*
X1172520Y574230D01*
X1172520Y581230D01*
X1172520Y577080D02*
X1179520Y577080D01*
X1179520Y579930D02*
X1172520Y579930D01*
D10*
X1160780Y577460D03*
X1160780Y560460D03*
D25*
X1087280Y620860D03*
X1107280Y620860D03*
D26*
X1063280Y672860D03*
X1131280Y672860D03*
D22*
X1399540Y570230D03*
X1455420Y570230D03*
X1399540Y532130D03*
X1455420Y532130D03*
D27*
X1023620Y684600D03*
X1023620Y661600D03*
X1041400Y684600D03*
X1041400Y661600D03*
D10*
X243840Y861940D03*
X243840Y844940D03*
D11*
X110100Y789940D03*
X93100Y789940D03*
D12*
X60900Y715090D03*
X116900Y715090D03*
D13*
X73900Y751840D03*
X83900Y751840D03*
X93900Y751840D03*
X103900Y751840D03*
D14*
X615400Y711840D03*
X615400Y918840D03*
D15*
X683150Y905340D03*
X683150Y895340D03*
X683150Y890340D03*
X683150Y900340D03*
X683150Y885340D03*
X683150Y875340D03*
X683150Y870340D03*
X683150Y880340D03*
X683150Y865340D03*
X683150Y855340D03*
X683150Y850340D03*
X683150Y860340D03*
X683150Y845340D03*
X683150Y835340D03*
X683150Y830340D03*
X683150Y840340D03*
X683150Y825340D03*
X683150Y815340D03*
X683150Y810340D03*
X683150Y820340D03*
X683150Y805340D03*
X683150Y800340D03*
X683150Y775340D03*
X683150Y770340D03*
X683150Y765340D03*
X683150Y755340D03*
X683150Y750340D03*
X683150Y760340D03*
X683150Y745340D03*
X683150Y735340D03*
X683150Y730340D03*
X683150Y740340D03*
X683150Y725340D03*
X607650Y907840D03*
X607650Y897840D03*
X607650Y892840D03*
X607650Y902840D03*
X607650Y887840D03*
X607650Y877840D03*
X607650Y872840D03*
X607650Y882840D03*
X607650Y867840D03*
X607650Y857840D03*
X607650Y852840D03*
X607650Y862840D03*
X607650Y847840D03*
X607650Y837840D03*
X607650Y832840D03*
X607650Y842840D03*
X607650Y827840D03*
X607650Y817840D03*
X607650Y812840D03*
X607650Y822840D03*
X607650Y807840D03*
X607650Y802840D03*
X607650Y777840D03*
X607650Y772840D03*
X607650Y767840D03*
X607650Y757840D03*
X607650Y752840D03*
X607650Y762840D03*
X607650Y747840D03*
X607650Y737840D03*
X607650Y732840D03*
X607650Y742840D03*
X607650Y727840D03*
X607650Y722840D03*
D10*
X289560Y861940D03*
X289560Y844940D03*
X393700Y794140D03*
X393700Y811140D03*
X368300Y794140D03*
X368300Y811140D03*
X444500Y811140D03*
X444500Y794140D03*
D16*
X411600Y792453D03*
X416600Y812828D03*
X411600Y812828D03*
X421600Y812828D03*
X426600Y812828D03*
X416600Y792453D03*
X421600Y792453D03*
X426600Y792453D03*
D17*
X422500Y802640D03*
X415700Y802640D03*
D18*
X123800Y853741D03*
X114300Y853741D03*
X104800Y853741D03*
X104800Y827739D03*
X123800Y827739D03*
D10*
X304800Y861940D03*
X304800Y844940D03*
X274320Y861940D03*
X274320Y844940D03*
X259080Y844940D03*
X259080Y861940D03*
D19*
X330200Y802640D03*
D20*
X320450Y788890D03*
X326950Y788890D03*
X333450Y788890D03*
X339950Y788890D03*
X339950Y816390D03*
X333450Y816390D03*
X326950Y816390D03*
X320450Y816390D03*
D10*
X292100Y794140D03*
X292100Y811140D03*
X335280Y844940D03*
X335280Y861940D03*
X320040Y844940D03*
X320040Y861940D03*
D21*
X386270Y856940D02*
X386270Y849940D01*
X386270Y856940D02*
X393270Y856940D01*
X393270Y849940D01*
X386270Y849940D01*
X386270Y852790D02*
X393270Y852790D01*
X393270Y855640D02*
X386270Y855640D01*
X368730Y856940D02*
X368730Y849940D01*
X368730Y856940D02*
X375730Y856940D01*
X375730Y849940D01*
X368730Y849940D01*
X368730Y852790D02*
X375730Y852790D01*
X375730Y855640D02*
X368730Y855640D01*
X437070Y856940D02*
X437070Y849940D01*
X437070Y856940D02*
X444070Y856940D01*
X444070Y849940D01*
X437070Y849940D01*
X437070Y852790D02*
X444070Y852790D01*
X444070Y855640D02*
X437070Y855640D01*
X419530Y856940D02*
X419530Y849940D01*
X419530Y856940D02*
X426530Y856940D01*
X426530Y849940D01*
X419530Y849940D01*
X419530Y852790D02*
X426530Y852790D01*
X426530Y855640D02*
X419530Y855640D01*
D22*
X480060Y859790D03*
X535940Y859790D03*
X480060Y821690D03*
X535940Y821690D03*
D23*
X60100Y807840D03*
X60100Y812840D03*
D24*
X60100Y783090D03*
X60100Y790840D03*
D23*
X60100Y797840D03*
X60100Y802840D03*
X60100Y822840D03*
X60100Y817840D03*
D24*
X60100Y847590D03*
X60100Y839840D03*
D23*
X60100Y832840D03*
X60100Y827840D03*
D18*
X225400Y815641D03*
X215900Y815641D03*
X206400Y815641D03*
X206400Y789639D03*
X225400Y789639D03*
D10*
X228600Y861940D03*
X228600Y844940D03*
X271780Y811140D03*
X271780Y794140D03*
D21*
X260040Y797370D02*
X253040Y797370D01*
X260040Y797370D02*
X260040Y790370D01*
X253040Y790370D01*
X253040Y797370D01*
X253040Y793220D02*
X260040Y793220D01*
X260040Y796070D02*
X253040Y796070D01*
X253040Y814910D02*
X260040Y814910D01*
X260040Y807910D01*
X253040Y807910D01*
X253040Y814910D01*
X253040Y810760D02*
X260040Y810760D01*
X260040Y813610D02*
X253040Y813610D01*
D10*
X241300Y811140D03*
X241300Y794140D03*
D25*
X167800Y854540D03*
X187800Y854540D03*
D26*
X143800Y906540D03*
X211800Y906540D03*
D22*
X480060Y803910D03*
X535940Y803910D03*
X480060Y765810D03*
X535940Y765810D03*
D27*
X104140Y918280D03*
X104140Y895280D03*
X121920Y918280D03*
X121920Y895280D03*
D10*
X1163320Y861940D03*
X1163320Y844940D03*
D11*
X1029580Y789940D03*
X1012580Y789940D03*
D12*
X980380Y715090D03*
X1036380Y715090D03*
D13*
X993380Y751840D03*
X1003380Y751840D03*
X1013380Y751840D03*
X1023380Y751840D03*
D14*
X1534880Y711840D03*
X1534880Y918840D03*
D15*
X1602630Y905340D03*
X1602630Y895340D03*
X1602630Y890340D03*
X1602630Y900340D03*
X1602630Y885340D03*
X1602630Y875340D03*
X1602630Y870340D03*
X1602630Y880340D03*
X1602630Y865340D03*
X1602630Y855340D03*
X1602630Y850340D03*
X1602630Y860340D03*
X1602630Y845340D03*
X1602630Y835340D03*
X1602630Y830340D03*
X1602630Y840340D03*
X1602630Y825340D03*
X1602630Y815340D03*
X1602630Y810340D03*
X1602630Y820340D03*
X1602630Y805340D03*
X1602630Y800340D03*
X1602630Y775340D03*
X1602630Y770340D03*
X1602630Y765340D03*
X1602630Y755340D03*
X1602630Y750340D03*
X1602630Y760340D03*
X1602630Y745340D03*
X1602630Y735340D03*
X1602630Y730340D03*
X1602630Y740340D03*
X1602630Y725340D03*
X1527130Y907840D03*
X1527130Y897840D03*
X1527130Y892840D03*
X1527130Y902840D03*
X1527130Y887840D03*
X1527130Y877840D03*
X1527130Y872840D03*
X1527130Y882840D03*
X1527130Y867840D03*
X1527130Y857840D03*
X1527130Y852840D03*
X1527130Y862840D03*
X1527130Y847840D03*
X1527130Y837840D03*
X1527130Y832840D03*
X1527130Y842840D03*
X1527130Y827840D03*
X1527130Y817840D03*
X1527130Y812840D03*
X1527130Y822840D03*
X1527130Y807840D03*
X1527130Y802840D03*
X1527130Y777840D03*
X1527130Y772840D03*
X1527130Y767840D03*
X1527130Y757840D03*
X1527130Y752840D03*
X1527130Y762840D03*
X1527130Y747840D03*
X1527130Y737840D03*
X1527130Y732840D03*
X1527130Y742840D03*
X1527130Y727840D03*
X1527130Y722840D03*
D10*
X1209040Y861940D03*
X1209040Y844940D03*
X1313180Y794140D03*
X1313180Y811140D03*
X1287780Y794140D03*
X1287780Y811140D03*
X1363980Y811140D03*
X1363980Y794140D03*
D16*
X1331080Y792453D03*
X1336080Y812828D03*
X1331080Y812828D03*
X1341080Y812828D03*
X1346080Y812828D03*
X1336080Y792453D03*
X1341080Y792453D03*
X1346080Y792453D03*
D17*
X1341980Y802640D03*
X1335180Y802640D03*
D18*
X1043280Y853741D03*
X1033780Y853741D03*
X1024280Y853741D03*
X1024280Y827739D03*
X1043280Y827739D03*
D10*
X1224280Y861940D03*
X1224280Y844940D03*
X1193800Y861940D03*
X1193800Y844940D03*
X1178560Y844940D03*
X1178560Y861940D03*
D19*
X1249680Y802640D03*
D20*
X1239930Y788890D03*
X1246430Y788890D03*
X1252930Y788890D03*
X1259430Y788890D03*
X1259430Y816390D03*
X1252930Y816390D03*
X1246430Y816390D03*
X1239930Y816390D03*
D10*
X1211580Y794140D03*
X1211580Y811140D03*
X1254760Y844940D03*
X1254760Y861940D03*
X1239520Y844940D03*
X1239520Y861940D03*
D21*
X1305750Y856940D02*
X1305750Y849940D01*
X1305750Y856940D02*
X1312750Y856940D01*
X1312750Y849940D01*
X1305750Y849940D01*
X1305750Y852790D02*
X1312750Y852790D01*
X1312750Y855640D02*
X1305750Y855640D01*
X1288210Y856940D02*
X1288210Y849940D01*
X1288210Y856940D02*
X1295210Y856940D01*
X1295210Y849940D01*
X1288210Y849940D01*
X1288210Y852790D02*
X1295210Y852790D01*
X1295210Y855640D02*
X1288210Y855640D01*
X1356550Y856940D02*
X1356550Y849940D01*
X1356550Y856940D02*
X1363550Y856940D01*
X1363550Y849940D01*
X1356550Y849940D01*
X1356550Y852790D02*
X1363550Y852790D01*
X1363550Y855640D02*
X1356550Y855640D01*
X1339010Y856940D02*
X1339010Y849940D01*
X1339010Y856940D02*
X1346010Y856940D01*
X1346010Y849940D01*
X1339010Y849940D01*
X1339010Y852790D02*
X1346010Y852790D01*
X1346010Y855640D02*
X1339010Y855640D01*
D22*
X1399540Y859790D03*
X1455420Y859790D03*
X1399540Y821690D03*
X1455420Y821690D03*
D23*
X979580Y807840D03*
X979580Y812840D03*
D24*
X979580Y783090D03*
X979580Y790840D03*
D23*
X979580Y797840D03*
X979580Y802840D03*
X979580Y822840D03*
X979580Y817840D03*
D24*
X979580Y847590D03*
X979580Y839840D03*
D23*
X979580Y832840D03*
X979580Y827840D03*
D18*
X1144880Y815641D03*
X1135380Y815641D03*
X1125880Y815641D03*
X1125880Y789639D03*
X1144880Y789639D03*
D10*
X1148080Y861940D03*
X1148080Y844940D03*
X1191260Y811140D03*
X1191260Y794140D03*
D21*
X1179520Y797370D02*
X1172520Y797370D01*
X1179520Y797370D02*
X1179520Y790370D01*
X1172520Y790370D01*
X1172520Y797370D01*
X1172520Y793220D02*
X1179520Y793220D01*
X1179520Y796070D02*
X1172520Y796070D01*
X1172520Y814910D02*
X1179520Y814910D01*
X1179520Y807910D01*
X1172520Y807910D01*
X1172520Y814910D01*
X1172520Y810760D02*
X1179520Y810760D01*
X1179520Y813610D02*
X1172520Y813610D01*
D10*
X1160780Y811140D03*
X1160780Y794140D03*
D25*
X1087280Y854540D03*
X1107280Y854540D03*
D26*
X1063280Y906540D03*
X1131280Y906540D03*
D22*
X1399540Y803910D03*
X1455420Y803910D03*
X1399540Y765810D03*
X1455420Y765810D03*
D27*
X1023620Y918280D03*
X1023620Y895280D03*
X1041400Y918280D03*
X1041400Y895280D03*
D10*
X243840Y1095620D03*
X243840Y1078620D03*
D11*
X110100Y1023620D03*
X93100Y1023620D03*
D12*
X60900Y948770D03*
X116900Y948770D03*
D13*
X73900Y985520D03*
X83900Y985520D03*
X93900Y985520D03*
X103900Y985520D03*
D14*
X615400Y945520D03*
X615400Y1152520D03*
D15*
X683150Y1139020D03*
X683150Y1129020D03*
X683150Y1124020D03*
X683150Y1134020D03*
X683150Y1119020D03*
X683150Y1109020D03*
X683150Y1104020D03*
X683150Y1114020D03*
X683150Y1099020D03*
X683150Y1089020D03*
X683150Y1084020D03*
X683150Y1094020D03*
X683150Y1079020D03*
X683150Y1069020D03*
X683150Y1064020D03*
X683150Y1074020D03*
X683150Y1059020D03*
X683150Y1049020D03*
X683150Y1044020D03*
X683150Y1054020D03*
X683150Y1039020D03*
X683150Y1034020D03*
X683150Y1009020D03*
X683150Y1004020D03*
X683150Y999020D03*
X683150Y989020D03*
X683150Y984020D03*
X683150Y994020D03*
X683150Y979020D03*
X683150Y969020D03*
X683150Y964020D03*
X683150Y974020D03*
X683150Y959020D03*
X607650Y1141520D03*
X607650Y1131520D03*
X607650Y1126520D03*
X607650Y1136520D03*
X607650Y1121520D03*
X607650Y1111520D03*
X607650Y1106520D03*
X607650Y1116520D03*
X607650Y1101520D03*
X607650Y1091520D03*
X607650Y1086520D03*
X607650Y1096520D03*
X607650Y1081520D03*
X607650Y1071520D03*
X607650Y1066520D03*
X607650Y1076520D03*
X607650Y1061520D03*
X607650Y1051520D03*
X607650Y1046520D03*
X607650Y1056520D03*
X607650Y1041520D03*
X607650Y1036520D03*
X607650Y1011520D03*
X607650Y1006520D03*
X607650Y1001520D03*
X607650Y991520D03*
X607650Y986520D03*
X607650Y996520D03*
X607650Y981520D03*
X607650Y971520D03*
X607650Y966520D03*
X607650Y976520D03*
X607650Y961520D03*
X607650Y956520D03*
D10*
X289560Y1095620D03*
X289560Y1078620D03*
X393700Y1027820D03*
X393700Y1044820D03*
X368300Y1027820D03*
X368300Y1044820D03*
X444500Y1044820D03*
X444500Y1027820D03*
D16*
X411600Y1026133D03*
X416600Y1046508D03*
X411600Y1046508D03*
X421600Y1046508D03*
X426600Y1046508D03*
X416600Y1026133D03*
X421600Y1026133D03*
X426600Y1026133D03*
D17*
X422500Y1036320D03*
X415700Y1036320D03*
D18*
X123800Y1087421D03*
X114300Y1087421D03*
X104800Y1087421D03*
X104800Y1061419D03*
X123800Y1061419D03*
D10*
X304800Y1095620D03*
X304800Y1078620D03*
X274320Y1095620D03*
X274320Y1078620D03*
X259080Y1078620D03*
X259080Y1095620D03*
D19*
X330200Y1036320D03*
D20*
X320450Y1022570D03*
X326950Y1022570D03*
X333450Y1022570D03*
X339950Y1022570D03*
X339950Y1050070D03*
X333450Y1050070D03*
X326950Y1050070D03*
X320450Y1050070D03*
D10*
X292100Y1027820D03*
X292100Y1044820D03*
X335280Y1078620D03*
X335280Y1095620D03*
X320040Y1078620D03*
X320040Y1095620D03*
D21*
X386270Y1090620D02*
X386270Y1083620D01*
X386270Y1090620D02*
X393270Y1090620D01*
X393270Y1083620D01*
X386270Y1083620D01*
X386270Y1086470D02*
X393270Y1086470D01*
X393270Y1089320D02*
X386270Y1089320D01*
X368730Y1090620D02*
X368730Y1083620D01*
X368730Y1090620D02*
X375730Y1090620D01*
X375730Y1083620D01*
X368730Y1083620D01*
X368730Y1086470D02*
X375730Y1086470D01*
X375730Y1089320D02*
X368730Y1089320D01*
X437070Y1090620D02*
X437070Y1083620D01*
X437070Y1090620D02*
X444070Y1090620D01*
X444070Y1083620D01*
X437070Y1083620D01*
X437070Y1086470D02*
X444070Y1086470D01*
X444070Y1089320D02*
X437070Y1089320D01*
X419530Y1090620D02*
X419530Y1083620D01*
X419530Y1090620D02*
X426530Y1090620D01*
X426530Y1083620D01*
X419530Y1083620D01*
X419530Y1086470D02*
X426530Y1086470D01*
X426530Y1089320D02*
X419530Y1089320D01*
D22*
X480060Y1093470D03*
X535940Y1093470D03*
X480060Y1055370D03*
X535940Y1055370D03*
D23*
X60100Y1041520D03*
X60100Y1046520D03*
D24*
X60100Y1016770D03*
X60100Y1024520D03*
D23*
X60100Y1031520D03*
X60100Y1036520D03*
X60100Y1056520D03*
X60100Y1051520D03*
D24*
X60100Y1081270D03*
X60100Y1073520D03*
D23*
X60100Y1066520D03*
X60100Y1061520D03*
D18*
X225400Y1049321D03*
X215900Y1049321D03*
X206400Y1049321D03*
X206400Y1023319D03*
X225400Y1023319D03*
D10*
X228600Y1095620D03*
X228600Y1078620D03*
X271780Y1044820D03*
X271780Y1027820D03*
D21*
X260040Y1031050D02*
X253040Y1031050D01*
X260040Y1031050D02*
X260040Y1024050D01*
X253040Y1024050D01*
X253040Y1031050D01*
X253040Y1026900D02*
X260040Y1026900D01*
X260040Y1029750D02*
X253040Y1029750D01*
X253040Y1048590D02*
X260040Y1048590D01*
X260040Y1041590D01*
X253040Y1041590D01*
X253040Y1048590D01*
X253040Y1044440D02*
X260040Y1044440D01*
X260040Y1047290D02*
X253040Y1047290D01*
D10*
X241300Y1044820D03*
X241300Y1027820D03*
D25*
X167800Y1088220D03*
X187800Y1088220D03*
D26*
X143800Y1140220D03*
X211800Y1140220D03*
D22*
X480060Y1037590D03*
X535940Y1037590D03*
X480060Y999490D03*
X535940Y999490D03*
D27*
X104140Y1151960D03*
X104140Y1128960D03*
X121920Y1151960D03*
X121920Y1128960D03*
D10*
X1163320Y1095620D03*
X1163320Y1078620D03*
D11*
X1029580Y1023620D03*
X1012580Y1023620D03*
D12*
X980380Y948770D03*
X1036380Y948770D03*
D13*
X993380Y985520D03*
X1003380Y985520D03*
X1013380Y985520D03*
X1023380Y985520D03*
D14*
X1534880Y945520D03*
X1534880Y1152520D03*
D15*
X1602630Y1139020D03*
X1602630Y1129020D03*
X1602630Y1124020D03*
X1602630Y1134020D03*
X1602630Y1119020D03*
X1602630Y1109020D03*
X1602630Y1104020D03*
X1602630Y1114020D03*
X1602630Y1099020D03*
X1602630Y1089020D03*
X1602630Y1084020D03*
X1602630Y1094020D03*
X1602630Y1079020D03*
X1602630Y1069020D03*
X1602630Y1064020D03*
X1602630Y1074020D03*
X1602630Y1059020D03*
X1602630Y1049020D03*
X1602630Y1044020D03*
X1602630Y1054020D03*
X1602630Y1039020D03*
X1602630Y1034020D03*
X1602630Y1009020D03*
X1602630Y1004020D03*
X1602630Y999020D03*
X1602630Y989020D03*
X1602630Y984020D03*
X1602630Y994020D03*
X1602630Y979020D03*
X1602630Y969020D03*
X1602630Y964020D03*
X1602630Y974020D03*
X1602630Y959020D03*
X1527130Y1141520D03*
X1527130Y1131520D03*
X1527130Y1126520D03*
X1527130Y1136520D03*
X1527130Y1121520D03*
X1527130Y1111520D03*
X1527130Y1106520D03*
X1527130Y1116520D03*
X1527130Y1101520D03*
X1527130Y1091520D03*
X1527130Y1086520D03*
X1527130Y1096520D03*
X1527130Y1081520D03*
X1527130Y1071520D03*
X1527130Y1066520D03*
X1527130Y1076520D03*
X1527130Y1061520D03*
X1527130Y1051520D03*
X1527130Y1046520D03*
X1527130Y1056520D03*
X1527130Y1041520D03*
X1527130Y1036520D03*
X1527130Y1011520D03*
X1527130Y1006520D03*
X1527130Y1001520D03*
X1527130Y991520D03*
X1527130Y986520D03*
X1527130Y996520D03*
X1527130Y981520D03*
X1527130Y971520D03*
X1527130Y966520D03*
X1527130Y976520D03*
X1527130Y961520D03*
X1527130Y956520D03*
D10*
X1209040Y1095620D03*
X1209040Y1078620D03*
X1313180Y1027820D03*
X1313180Y1044820D03*
X1287780Y1027820D03*
X1287780Y1044820D03*
X1363980Y1044820D03*
X1363980Y1027820D03*
D16*
X1331080Y1026133D03*
X1336080Y1046508D03*
X1331080Y1046508D03*
X1341080Y1046508D03*
X1346080Y1046508D03*
X1336080Y1026133D03*
X1341080Y1026133D03*
X1346080Y1026133D03*
D17*
X1341980Y1036320D03*
X1335180Y1036320D03*
D18*
X1043280Y1087421D03*
X1033780Y1087421D03*
X1024280Y1087421D03*
X1024280Y1061419D03*
X1043280Y1061419D03*
D10*
X1224280Y1095620D03*
X1224280Y1078620D03*
X1193800Y1095620D03*
X1193800Y1078620D03*
X1178560Y1078620D03*
X1178560Y1095620D03*
D19*
X1249680Y1036320D03*
D20*
X1239930Y1022570D03*
X1246430Y1022570D03*
X1252930Y1022570D03*
X1259430Y1022570D03*
X1259430Y1050070D03*
X1252930Y1050070D03*
X1246430Y1050070D03*
X1239930Y1050070D03*
D10*
X1211580Y1027820D03*
X1211580Y1044820D03*
X1254760Y1078620D03*
X1254760Y1095620D03*
X1239520Y1078620D03*
X1239520Y1095620D03*
D21*
X1305750Y1090620D02*
X1305750Y1083620D01*
X1305750Y1090620D02*
X1312750Y1090620D01*
X1312750Y1083620D01*
X1305750Y1083620D01*
X1305750Y1086470D02*
X1312750Y1086470D01*
X1312750Y1089320D02*
X1305750Y1089320D01*
X1288210Y1090620D02*
X1288210Y1083620D01*
X1288210Y1090620D02*
X1295210Y1090620D01*
X1295210Y1083620D01*
X1288210Y1083620D01*
X1288210Y1086470D02*
X1295210Y1086470D01*
X1295210Y1089320D02*
X1288210Y1089320D01*
X1356550Y1090620D02*
X1356550Y1083620D01*
X1356550Y1090620D02*
X1363550Y1090620D01*
X1363550Y1083620D01*
X1356550Y1083620D01*
X1356550Y1086470D02*
X1363550Y1086470D01*
X1363550Y1089320D02*
X1356550Y1089320D01*
X1339010Y1090620D02*
X1339010Y1083620D01*
X1339010Y1090620D02*
X1346010Y1090620D01*
X1346010Y1083620D01*
X1339010Y1083620D01*
X1339010Y1086470D02*
X1346010Y1086470D01*
X1346010Y1089320D02*
X1339010Y1089320D01*
D22*
X1399540Y1093470D03*
X1455420Y1093470D03*
X1399540Y1055370D03*
X1455420Y1055370D03*
D23*
X979580Y1041520D03*
X979580Y1046520D03*
D24*
X979580Y1016770D03*
X979580Y1024520D03*
D23*
X979580Y1031520D03*
X979580Y1036520D03*
X979580Y1056520D03*
X979580Y1051520D03*
D24*
X979580Y1081270D03*
X979580Y1073520D03*
D23*
X979580Y1066520D03*
X979580Y1061520D03*
D18*
X1144880Y1049321D03*
X1135380Y1049321D03*
X1125880Y1049321D03*
X1125880Y1023319D03*
X1144880Y1023319D03*
D10*
X1148080Y1095620D03*
X1148080Y1078620D03*
X1191260Y1044820D03*
X1191260Y1027820D03*
D21*
X1179520Y1031050D02*
X1172520Y1031050D01*
X1179520Y1031050D02*
X1179520Y1024050D01*
X1172520Y1024050D01*
X1172520Y1031050D01*
X1172520Y1026900D02*
X1179520Y1026900D01*
X1179520Y1029750D02*
X1172520Y1029750D01*
X1172520Y1048590D02*
X1179520Y1048590D01*
X1179520Y1041590D01*
X1172520Y1041590D01*
X1172520Y1048590D01*
X1172520Y1044440D02*
X1179520Y1044440D01*
X1179520Y1047290D02*
X1172520Y1047290D01*
D10*
X1160780Y1044820D03*
X1160780Y1027820D03*
D25*
X1087280Y1088220D03*
X1107280Y1088220D03*
D26*
X1063280Y1140220D03*
X1131280Y1140220D03*
D22*
X1399540Y1037590D03*
X1455420Y1037590D03*
X1399540Y999490D03*
X1455420Y999490D03*
D27*
X1023620Y1151960D03*
X1023620Y1128960D03*
X1041400Y1151960D03*
X1041400Y1128960D03*
M02*
